<svg xmlns="http://www.w3.org/2000/svg" xmlns:xlink="http://www.w3.org/1999/xlink" width="113" height="113" viewBox="0 0 113 113">
  <defs>
    <filter id="Trazado_982547" x="0" y="0" width="113" height="113" filterUnits="userSpaceOnUse">
      <feOffset dy="3" input="SourceAlpha"/>
      <feGaussianBlur stdDeviation="3" result="blur"/>
      <feFlood flood-opacity="0.161"/>
      <feComposite operator="in" in2="blur"/>
      <feComposite in="SourceGraphic"/>
    </filter>
  </defs>
  <g id="Grupo_1211225" data-name="Grupo 1211225" transform="translate(-271.75 -1400.712)">
    <g id="Grupo_1210968" data-name="Grupo 1210968" transform="translate(0 -47.125)">
      <g id="Grupo_1210937" data-name="Grupo 1210937" transform="translate(15.75 621.587)">
        <g id="Grupo_1174742" data-name="Grupo 1174742" transform="translate(-16 -280.75)">
          <g id="Grupo_1163948" data-name="Grupo 1163948" transform="translate(0 -1371)">
            <g id="Grupo_1158168" data-name="Grupo 1158168" transform="translate(281 2484)">
              <g id="Grupo_1152576" data-name="Grupo 1152576" transform="translate(0)">
                <g id="Grupo_1148633" data-name="Grupo 1148633">
                  <g id="Grupo_1148525" data-name="Grupo 1148525">
                    <g transform="matrix(1, 0, 0, 1, -9, -6)" filter="url(#Trazado_982547)">
                      <g id="Trazado_982547-2" data-name="Trazado 982547" transform="translate(9 6)" fill="#fdf6e4">
                        <path d="M 47.5 93.5 C 41.28937149047852 93.5 35.26533508300781 92.28397369384766 29.59518623352051 89.88570404052734 C 24.11771965026855 87.56893157958984 19.19813346862793 84.25196075439453 14.97309303283691 80.02691650390625 C 10.74804019927979 75.80186462402344 7.431066513061523 70.88229370117188 5.114293098449707 65.40481567382812 C 2.716026782989502 59.73468017578125 1.5 53.71062850952148 1.5 47.5 C 1.5 41.28937149047852 2.716026782989502 35.26533508300781 5.114293098449707 29.59518623352051 C 7.431066513061523 24.11771965026855 10.74804019927979 19.19813346862793 14.97309303283691 14.97309303283691 C 19.19813346862793 10.74804019927979 24.11771965026855 7.431066513061523 29.59518623352051 5.114293098449707 C 35.26533508300781 2.716026782989502 41.28937149047852 1.5 47.5 1.5 C 53.71062850952148 1.5 59.73468017578125 2.716026782989502 65.40481567382812 5.114293098449707 C 70.88229370117188 7.431066513061523 75.80186462402344 10.74804019927979 80.02691650390625 14.97309303283691 C 84.25196075439453 19.19813346862793 87.56893157958984 24.11771965026855 89.88570404052734 29.59518623352051 C 92.28397369384766 35.26533508300781 93.5 41.28937149047852 93.5 47.5 C 93.5 53.71062850952148 92.28397369384766 59.73468017578125 89.88570404052734 65.40481567382812 C 87.56893157958984 70.88229370117188 84.25196075439453 75.80186462402344 80.02691650390625 80.02691650390625 C 75.80186462402344 84.25196075439453 70.88229370117188 87.56893157958984 65.40481567382812 89.88570404052734 C 59.73468017578125 92.28397369384766 53.71062850952148 93.5 47.5 93.5 Z" stroke="none"/>
                        <path d="M 47.5 3 C 41.49121475219727 3 35.66376876831055 4.176155090332031 30.17950439453125 6.495796203613281 C 24.88084411621094 8.736953735351562 20.12152099609375 11.94598388671875 16.03375244140625 16.03375244140625 C 11.94598388671875 20.12152099609375 8.736953735351562 24.88084411621094 6.495796203613281 30.17950439453125 C 4.176155090332031 35.66376876831055 3 41.49121475219727 3 47.5 C 3 53.50878524780273 4.176155090332031 59.33623123168945 6.495796203613281 64.82049560546875 C 8.736953735351562 70.11915588378906 11.94598388671875 74.87847900390625 16.03375244140625 78.96624755859375 C 20.12152099609375 83.05401611328125 24.88084411621094 86.26304626464844 30.17950439453125 88.50419616699219 C 35.66376876831055 90.82384490966797 41.49121475219727 92 47.5 92 C 53.50878524780273 92 59.33623123168945 90.82384490966797 64.82049560546875 88.50419616699219 C 70.11915588378906 86.26304626464844 74.87847900390625 83.05401611328125 78.96624755859375 78.96624755859375 C 83.05401611328125 74.87847900390625 86.26304626464844 70.11915588378906 88.50419616699219 64.82049560546875 C 90.82384490966797 59.33623123168945 92 53.50878524780273 92 47.5 C 92 41.49121475219727 90.82384490966797 35.66376876831055 88.50419616699219 30.17950439453125 C 86.26304626464844 24.88084411621094 83.05401611328125 20.12152099609375 78.96624755859375 16.03375244140625 C 74.87847900390625 11.94598388671875 70.11915588378906 8.736953735351562 64.82049560546875 6.495796203613281 C 59.33623123168945 4.176155090332031 53.50878524780273 3 47.5 3 M 47.5 0 C 73.7335205078125 0 95 21.2664794921875 95 47.5 C 95 73.7335205078125 73.7335205078125 95 47.5 95 C 21.2664794921875 95 0 73.7335205078125 0 47.5 C 0 21.2664794921875 21.2664794921875 0 47.5 0 Z" stroke="none" fill="#f5b104"/>
                      </g>
                    </g>
                  </g>
                </g>
              </g>
            </g>
          </g>
        </g>
      </g>
    </g>
    <g id="goal-setting_18127997" transform="translate(274.178 1395.024)">
      <g id="Grupo_1211224" data-name="Grupo 1211224" transform="translate(26.543 28.366)">
        <path id="Trazado_1056872" data-name="Trazado 1056872" d="M60.823,144.359a2.416,2.416,0,1,1-3.3.885A2.415,2.415,0,0,1,60.823,144.359Z" transform="translate(-53.704 -128.481)" fill="#fdb614" fill-rule="evenodd"/>
        <path id="Trazado_1056873" data-name="Trazado 1056873" d="M148.569,102.73c-5.625,0-10.22,1.564-10.481,3.53l-.008,7.864a1.707,1.707,0,0,0,1.7,1.708h17.572a1.713,1.713,0,0,0,1.709-1.709v-7.687C159.065,103.4,150.8,102.73,148.569,102.73Z" transform="translate(-123.113 -93.034)" fill="#9b9a9a" fill-rule="evenodd"/>
        <path id="Trazado_1056874" data-name="Trazado 1056874" d="M168.845,116.338H182.3a1.713,1.713,0,0,0,1.709-1.709v-7.687c0-2.452-5.391-3.361-8.64-3.622-4.547.353-7.987,1.753-8.213,3.445l-.013,7.864a1.712,1.712,0,0,0,1.7,1.709Z" transform="translate(-148.052 -93.54)" fill="#b3b4b4" fill-rule="evenodd"/>
        <path id="Trazado_1056875" data-name="Trazado 1056875" d="M102.1,34.36,84.82,43.088l17.56,7.485,18.529-7.485Z" transform="translate(-77.407 -34.36)" fill="#595a5a" fill-rule="evenodd"/>
        <path id="Trazado_1056876" data-name="Trazado 1056876" d="M156.452,60.9l14.3-5.776L156.24,48.39,142.9,55.128Z" transform="translate(-127.25 -46.4)" fill="#868686" fill-rule="evenodd"/>
        <path id="Trazado_1056877" data-name="Trazado 1056877" d="M92.007,166.4a19.717,19.717,0,1,1-13.528,24.382A19.714,19.714,0,0,1,92.007,166.4Z" transform="translate(-71.307 -147.012)" fill="#b92025" fill-rule="evenodd"/>
        <path id="Trazado_1056878" data-name="Trazado 1056878" d="M130.823,209.43a13.582,13.582,0,1,1-9.319,16.8A13.578,13.578,0,0,1,130.823,209.43Z" transform="translate(-108.435 -184.147)" fill="#a7a7a7" fill-rule="evenodd"/>
        <path id="Trazado_1056879" data-name="Trazado 1056879" d="M169.458,252.248a7.477,7.477,0,1,1-5.13,9.247A7.475,7.475,0,0,1,169.458,252.248Z" transform="translate(-145.389 -221.097)" fill="#b92025" fill-rule="evenodd"/>
        <path id="Trazado_1056880" data-name="Trazado 1056880" d="M139.139,166.4a19.728,19.728,0,0,1,24.8,22.65,22.542,22.542,0,0,1-9.576,2.3c-11.811.2-21.54-8.6-21.728-19.655a19.079,19.079,0,0,1,.081-2.1,19.579,19.579,0,0,1,6.423-3.192Z" transform="translate(-118.438 -147.012)" fill="#ed2024" fill-rule="evenodd"/>
        <path id="Trazado_1056881" data-name="Trazado 1056881" d="M146.7,209.521a13.581,13.581,0,0,1,16.012,18.871,22.936,22.936,0,0,1-2.476.182c-9.713.165-18.014-5.752-20.764-14.006A13.532,13.532,0,0,1,146.7,209.521Z" transform="translate(-124.306 -184.227)" fill="#e6e6e6" fill-rule="evenodd"/>
        <path id="Trazado_1056882" data-name="Trazado 1056882" d="M170.464,252.248A7.478,7.478,0,0,1,177.516,265a21.58,21.58,0,0,1-12.306-7.132A7.469,7.469,0,0,1,170.464,252.248Z" transform="translate(-146.396 -221.097)" fill="#ed2024" fill-rule="evenodd"/>
        <path id="Trazado_1056883" data-name="Trazado 1056883" d="M249.207,146.131l-.828.627-8.233,6.219L222.116,166.6a1.948,1.948,0,0,1-2.351-3.107l18.03-13.621,8.233-6.219.832-.627A1.947,1.947,0,0,1,249.207,146.131Z" transform="translate(-192.53 -127.249)" fill="#fdb614" fill-rule="evenodd"/>
        <path id="Trazado_1056884" data-name="Trazado 1056884" d="M337.59,107.117l.3-7.735,11.068-8.362-.3,7.739Z" transform="translate(-294.329 -82.984)" fill="#fdb614" fill-rule="evenodd"/>
        <path id="Trazado_1056885" data-name="Trazado 1056885" d="M365.216,167.5l7.067,1.709c.024.133.052.269.077.4l-10.685,8.072-7.525-1.821Z" transform="translate(-308.54 -148.618)" fill="#fdb614" fill-rule="evenodd"/>
        <path id="Trazado_1056886" data-name="Trazado 1056886" d="M42.761,327.54H44.4a.87.87,0,0,1,.868.868v.64a.857.857,0,0,0,.644.837,9.079,9.079,0,0,1,2.167.9.859.859,0,0,0,1.049-.136l.45-.45a.87.87,0,0,1,1.227,0l1.157,1.157a.87.87,0,0,1,0,1.227l-.45.45a.858.858,0,0,0-.136,1.049,8.974,8.974,0,0,1,.9,2.167.859.859,0,0,0,.84.644h.635a.87.87,0,0,1,.868.868v1.637a.87.87,0,0,1-.868.868H53.11a.852.852,0,0,0-.84.644,9.024,9.024,0,0,1-.9,2.163.859.859,0,0,0,.136,1.049l.45.45a.873.873,0,0,1,0,1.23L50.8,346.951a.87.87,0,0,1-1.227,0l-.45-.45a.864.864,0,0,0-1.049-.136,8.805,8.805,0,0,1-2.167.9.867.867,0,0,0-.644.84v.635a.87.87,0,0,1-.868.868H42.761a.87.87,0,0,1-.868-.868V348.1a.858.858,0,0,0-.644-.84,8.854,8.854,0,0,1-2.163-.9.865.865,0,0,0-1.049.136l-.45.45a.873.873,0,0,1-1.23,0L35.2,345.8a.873.873,0,0,1,0-1.23l.45-.45a.858.858,0,0,0,.136-1.049,8.8,8.8,0,0,1-.9-2.163.862.862,0,0,0-.84-.644h-.635a.87.87,0,0,1-.868-.868v-1.637a.87.87,0,0,1,.868-.868h.635a.863.863,0,0,0,.84-.644,8.908,8.908,0,0,1,.9-2.167.859.859,0,0,0-.136-1.049l-.45-.45a.87.87,0,0,1,0-1.227l1.154-1.157a.873.873,0,0,1,1.23,0l.45.45a.858.858,0,0,0,1.049.136,8.967,8.967,0,0,1,2.163-.9.854.854,0,0,0,.644-.837v-.64a.87.87,0,0,1,.868-.868Z" transform="translate(-32.55 -285.961)" fill="gray" fill-rule="evenodd"/>
        <path id="Trazado_1056887" data-name="Trazado 1056887" d="M77.7,367.03a5.408,5.408,0,1,1-5.408,5.408A5.409,5.409,0,0,1,77.7,367.03Z" transform="translate(-66.654 -319.85)" fill="#b3b4b4" fill-rule="evenodd"/>
        <path id="Trazado_1056888" data-name="Trazado 1056888" d="M87.572,378.183a5.408,5.408,0,0,1-9.1,5.642,5.347,5.347,0,0,1-.454-2.167,5.408,5.408,0,0,1,9.552-3.475Z" transform="translate(-71.571 -327.763)" fill="#e6e6e6" fill-rule="evenodd"/>
        <path id="Trazado_1056889" data-name="Trazado 1056889" d="M122.289,387.13a1.381,1.381,0,1,1-1.379,1.378A1.382,1.382,0,0,1,122.289,387.13Z" transform="translate(-108.379 -337.1)" fill="#fff" fill-rule="evenodd"/>
        <path id="Trazado_1056890" data-name="Trazado 1056890" d="M141.805,364.17a.635.635,0,1,1-.635.635A.638.638,0,0,1,141.805,364.17Z" transform="translate(-125.765 -317.396)" fill="#b3b4b4" fill-rule="evenodd"/>
      </g>
      <path id="Trazado_1056891" data-name="Trazado 1056891" d="M37.591,74.553a6.4,6.4,0,1,1-6.4,6.4A6.4,6.4,0,0,1,37.591,74.553Zm3.119,3.276a4.416,4.416,0,1,0,0,6.247A4.421,4.421,0,0,0,40.709,77.829Zm-3.955-8.872H38.27A14.577,14.577,0,0,1,62.987,56.405l3.341-2.52A18.728,18.728,0,0,0,34.561,71.461c.112-.035.225-.072.338-.1v-.539h0a1.865,1.865,0,0,1,1.859-1.861Zm4.321,2.669a9.73,9.73,0,0,1,1.4.659,2.226,2.226,0,0,1,1.7-.933A1.865,1.865,0,0,1,45.5,71.9l1.154,1.157a1.857,1.857,0,0,1,0,2.629h0l-.386.386A9.979,9.979,0,0,1,47.107,78l.647.294a1.847,1.847,0,0,1,1.17.434A12.6,12.6,0,0,0,64.569,62.579l-3.558,2.686a8.466,8.466,0,1,1-2.984-5.113l3.357-2.537A12.594,12.594,0,0,0,41.075,71.625ZM49.6,80.953c0,.837.1,1.617-.627,2.231a2.21,2.21,0,0,1-1.777.475,9.023,9.023,0,0,1-.289.868A18.732,18.732,0,0,0,69.631,58.758l-3.414,2.577A14.57,14.57,0,0,1,49.6,80.953ZM46.913,86.6a1.845,1.845,0,0,1,.281.984h0a1.869,1.869,0,0,1-.543,1.319L45.5,90.058a1.857,1.857,0,0,1-2.629,0h0l-.381-.382a9.985,9.985,0,0,1-2.231.925,2.194,2.194,0,0,1-.55,1.858A1.845,1.845,0,0,1,38.39,93H36.754a1.865,1.865,0,0,1-1.861-1.861V90.6a10.367,10.367,0,0,1-2.227-.925,2.223,2.223,0,0,1-1.7.929,1.85,1.85,0,0,1-1.315-.546l-1.227-1.234a1.853,1.853,0,0,1,.068-2.553l.386-.386a9.607,9.607,0,0,1-.53-1.085,10.133,10.133,0,0,1-.394-1.142,2.193,2.193,0,0,1-1.858-.547A1.85,1.85,0,0,1,25.55,81.8V80.163A1.865,1.865,0,0,1,27.411,78.3h.543a9.871,9.871,0,0,1,.925-2.227,2.191,2.191,0,0,1-.925-1.7h0a1.848,1.848,0,0,1,.546-1.315h0l1.234-1.23a1.863,1.863,0,0,1,2.557.072l.381.386.052-.033a20.725,20.725,0,0,1,7.836-22.348,2.762,2.762,0,0,1-.033-.45l.016-7.992a2.417,2.417,0,0,1,.1-.442L33.9,38.146a1.033,1.033,0,0,0-.627,1.013h0v3.867a3.41,3.41,0,0,1,2.13,5.013h0a3.408,3.408,0,1,1-4.12-4.9V39.16h0a3.074,3.074,0,0,1,.671-1.97,3.106,3.106,0,0,1,1.665-1.037L50.764,27.5a.987.987,0,0,1,.888-.033L70.458,36.2a.991.991,0,0,1-.048,1.817l-7.084,2.862a2.566,2.566,0,0,1,.16.892v7.281a20.859,20.859,0,0,1,4.426,3.633l.916-.692.289-7.268a.991.991,0,0,1,.394-.752l11.068-8.362a.993.993,0,0,1,1.584.888l-.247,6.225a3.053,3.053,0,0,1,2.954,3.911L90.516,48a.989.989,0,0,1,.74.776h0c.085.414.237.973-.3,1.378h0L80.277,58.222a1,1,0,0,1-.885.157l-7.014-1.7-1.133.857A20.712,20.712,0,0,1,46.913,86.6ZM38.266,70.942H36.874v.511h0a1.855,1.855,0,0,1-1.379,1.8,7.971,7.971,0,0,0-1.926.8,1.86,1.86,0,0,1-2.248-.294l-.362-.362-.981.981.362.362v0a1.846,1.846,0,0,1,.294,2.244,7.794,7.794,0,0,0-.8,1.926,1.858,1.858,0,0,1-1.8,1.379h-.511v1.387a2.3,2.3,0,0,1,1.644.381c.671.519.644,1.13,1,1.986l.462.936a1.855,1.855,0,0,1-.294,2.248l-.362.362.981.981.362-.362,0,0a1.85,1.85,0,0,1,2.244-.3,7.821,7.821,0,0,0,1.926.8,1.859,1.859,0,0,1,1.379,1.8v.511h1.387a2.276,2.276,0,0,1,.386-1.641c.515-.675,1.126-.647,1.983-1a7.267,7.267,0,0,0,.936-.462,1.859,1.859,0,0,1,2.248.294l.362.362.981-.981-.362-.362h0a1.852,1.852,0,0,1-.294-2.248,8.058,8.058,0,0,0,.458-.936h0c.35-.852.322-1.464,1-1.985a2.293,2.293,0,0,1,1.644-.382V80.284a2.3,2.3,0,0,1-1.644-.382c-.675-.519-.644-1.13-1-1.985a8.063,8.063,0,0,0-.458-.936,1.86,1.86,0,0,1,.289-2.248l.362-.362-.981-.981a2.272,2.272,0,0,1-1.435.892,1.884,1.884,0,0,1-1.174-.237,7.931,7.931,0,0,0-1.922-.8,1.859,1.859,0,0,1-1.383-1.8ZM71.557,54.818l11.068-8.358a.957.957,0,0,0-1.154-1.527L54.374,65.4a.957.957,0,0,0,1.154,1.527ZM88.482,49.54l-5.037-1.218L74.419,55.14l5.033,1.218Zm-17.4-4.266-.208,5.174q4.516-3.408,9.03-6.819l.206-5.174ZM59.159,66.664l-2.436,1.841a2.925,2.925,0,0,1-4.632-1.652,2.766,2.766,0,0,1,1.089-3.039l3.209-2.424a6.489,6.489,0,1,0,2.77,5.274Zm-16.66-18a20.7,20.7,0,0,1,19-.684c0-.684.024-6.175-.016-6.359l-9.58,3.872a1,1,0,0,1-.776,0l-8.623-3.675Zm8.756-19.2L36.3,37.021l15.225,6.484,16.029-6.473ZM33.232,45.137a.593.593,0,0,1-.109-.061,1.414,1.414,0,1,0,.109.061Z"/>
    </g>
  </g>
</svg>
