<svg xmlns="http://www.w3.org/2000/svg" xmlns:xlink="http://www.w3.org/1999/xlink" width="113" height="113" viewBox="0 0 113 113">
  <defs>
    <filter id="Trazado_982547" x="0" y="0" width="113" height="113" filterUnits="userSpaceOnUse">
      <feOffset dy="3" input="SourceAlpha"/>
      <feGaussianBlur stdDeviation="3" result="blur"/>
      <feFlood flood-opacity="0.161"/>
      <feComposite operator="in" in2="blur"/>
      <feComposite in="SourceGraphic"/>
    </filter>
  </defs>
  <g id="Grupo_1211226" data-name="Grupo 1211226" transform="translate(-586.984 -1400.712)">
    <g id="Grupo_1210965" data-name="Grupo 1210965" transform="translate(315.234 -47.125)">
      <g id="Grupo_1210937" data-name="Grupo 1210937" transform="translate(15.75 621.587)">
        <g id="Grupo_1174742" data-name="Grupo 1174742" transform="translate(-16 -280.75)">
          <g id="Grupo_1163948" data-name="Grupo 1163948" transform="translate(0 -1371)">
            <g id="Grupo_1158168" data-name="Grupo 1158168" transform="translate(281 2484)">
              <g id="Grupo_1152576" data-name="Grupo 1152576" transform="translate(0)">
                <g id="Grupo_1148633" data-name="Grupo 1148633">
                  <g id="Grupo_1148525" data-name="Grupo 1148525">
                    <g transform="matrix(1, 0, 0, 1, -9, -6)" filter="url(#Trazado_982547)">
                      <g id="Trazado_982547-2" data-name="Trazado 982547" transform="translate(9 6)" fill="#fdf6e4">
                        <path d="M 47.5 93.5 C 41.28937149047852 93.5 35.26533508300781 92.28397369384766 29.59518623352051 89.88570404052734 C 24.11771965026855 87.56893157958984 19.19813346862793 84.25196075439453 14.97309303283691 80.02691650390625 C 10.74804019927979 75.80186462402344 7.431066513061523 70.88229370117188 5.114293098449707 65.40481567382812 C 2.716026782989502 59.73468017578125 1.5 53.71062850952148 1.5 47.5 C 1.5 41.28937149047852 2.716026782989502 35.26533508300781 5.114293098449707 29.59518623352051 C 7.431066513061523 24.11771965026855 10.74804019927979 19.19813346862793 14.97309303283691 14.97309303283691 C 19.19813346862793 10.74804019927979 24.11771965026855 7.431066513061523 29.59518623352051 5.114293098449707 C 35.26533508300781 2.716026782989502 41.28937149047852 1.5 47.5 1.5 C 53.71062850952148 1.5 59.73468017578125 2.716026782989502 65.40481567382812 5.114293098449707 C 70.88229370117188 7.431066513061523 75.80186462402344 10.74804019927979 80.02691650390625 14.97309303283691 C 84.25196075439453 19.19813346862793 87.56893157958984 24.11771965026855 89.88570404052734 29.59518623352051 C 92.28397369384766 35.26533508300781 93.5 41.28937149047852 93.5 47.5 C 93.5 53.71062850952148 92.28397369384766 59.73468017578125 89.88570404052734 65.40481567382812 C 87.56893157958984 70.88229370117188 84.25196075439453 75.80186462402344 80.02691650390625 80.02691650390625 C 75.80186462402344 84.25196075439453 70.88229370117188 87.56893157958984 65.40481567382812 89.88570404052734 C 59.73468017578125 92.28397369384766 53.71062850952148 93.5 47.5 93.5 Z" stroke="none"/>
                        <path d="M 47.5 3 C 41.49121475219727 3 35.66376876831055 4.176155090332031 30.17950439453125 6.495796203613281 C 24.88084411621094 8.736953735351562 20.12152099609375 11.94598388671875 16.03375244140625 16.03375244140625 C 11.94598388671875 20.12152099609375 8.736953735351562 24.88084411621094 6.495796203613281 30.17950439453125 C 4.176155090332031 35.66376876831055 3 41.49121475219727 3 47.5 C 3 53.50878524780273 4.176155090332031 59.33623123168945 6.495796203613281 64.82049560546875 C 8.736953735351562 70.11915588378906 11.94598388671875 74.87847900390625 16.03375244140625 78.96624755859375 C 20.12152099609375 83.05401611328125 24.88084411621094 86.26304626464844 30.17950439453125 88.50419616699219 C 35.66376876831055 90.82384490966797 41.49121475219727 92 47.5 92 C 53.50878524780273 92 59.33623123168945 90.82384490966797 64.82049560546875 88.50419616699219 C 70.11915588378906 86.26304626464844 74.87847900390625 83.05401611328125 78.96624755859375 78.96624755859375 C 83.05401611328125 74.87847900390625 86.26304626464844 70.11915588378906 88.50419616699219 64.82049560546875 C 90.82384490966797 59.33623123168945 92 53.50878524780273 92 47.5 C 92 41.49121475219727 90.82384490966797 35.66376876831055 88.50419616699219 30.17950439453125 C 86.26304626464844 24.88084411621094 83.05401611328125 20.12152099609375 78.96624755859375 16.03375244140625 C 74.87847900390625 11.94598388671875 70.11915588378906 8.736953735351562 64.82049560546875 6.495796203613281 C 59.33623123168945 4.176155090332031 53.50878524780273 3 47.5 3 M 47.5 0 C 73.7335205078125 0 95 21.2664794921875 95 47.5 C 95 73.7335205078125 73.7335205078125 95 47.5 95 C 21.2664794921875 95 0 73.7335205078125 0 47.5 C 0 21.2664794921875 21.2664794921875 0 47.5 0 Z" stroke="none" fill="#f5b104"/>
                      </g>
                    </g>
                  </g>
                </g>
              </g>
            </g>
          </g>
        </g>
      </g>
    </g>
    <g id="Layer_x0020_1" transform="translate(612.096 1285.38)">
      <path id="Trazado_1056892" data-name="Trazado 1056892" d="M8.45,176.893A2.009,2.009,0,0,1,7,176.307l-2.7-2.7a2.03,2.03,0,0,1,0-2.856L6.689,168.4a13.973,13.973,0,0,1-1.33-3.169H2a2,2,0,0,1-2-2v-3.834a2.012,2.012,0,0,1,2-2.034H5.359a13.973,13.973,0,0,1,1.33-3.169L4.3,151.858A2.031,2.031,0,0,1,4.3,149L7,146.3a2.031,2.031,0,0,1,2.856,0L12.2,148.65a15.852,15.852,0,0,1,3.169-1.291V144a2.012,2.012,0,0,1,2.034-2h3.834a2,2,0,0,1,2,2v3.364A15.852,15.852,0,0,1,26.4,148.65l2.386-2.347a2.058,2.058,0,0,1,2.817,0l2.7,2.7a2.031,2.031,0,0,1,0,2.856L31.96,154.2c2.738,4.733-.2,4.577-.352,3.442-.469-2.7-2.034-3.286-1.213-4.107.43-.43,2.934-2.7,2.934-3.09s-2.425-2.621-2.817-3.051a.475.475,0,0,0-.626,0c-4.968,4.968-1.839,2.7-7.628,1.33a.754.754,0,0,1-.587-.743V144a.434.434,0,0,0-.43-.43H17.408a.444.444,0,0,0-.469.43c0,7,.626,3.208-4.42,6.337a.83.83,0,0,1-.978-.117c-.43-.43-2.738-2.934-3.129-2.934s-2.582,2.425-3.012,2.856a.425.425,0,0,0,0,.587c4.968,4.968,2.66,1.839,1.33,7.628a.754.754,0,0,1-.743.587H2a.444.444,0,0,0-.43.469v3.834a.434.434,0,0,0,.43.43c7,0,3.169-.626,6.337,4.459a.765.765,0,0,1-.117.939c-.43.43-2.934,2.738-2.934,3.129s2.425,2.582,2.856,3.012a.425.425,0,0,0,.587,0l2.817-2.817c.626-.626,1.878.235,1.408,1.056a.8.8,0,0,1-.626.391l-2.464,2.464A1.985,1.985,0,0,1,8.45,176.893Z" fill-rule="evenodd"/>
      <path id="Trazado_1056893" data-name="Trazado 1056893" d="M287.682,440.711c-1.213,0-1.682-3.364-1.682-4.3a8.134,8.134,0,0,1,13.574-6.024c.782.665-.274,1.839-1.056,1.134-5.359-4.851-13.691,1.526-10.132,8.058A.769.769,0,0,1,287.682,440.711Z" transform="translate(-274.812 -275.083)" fill-rule="evenodd"/>
      <path id="Trazado_1056894" data-name="Trazado 1056894" d="M1189.963,1027.127h-6.181a.785.785,0,0,1-.782-.782v-7.471a3.873,3.873,0,0,1,7.745,0v7.471A.785.785,0,0,1,1189.963,1027.127Zm-5.4-1.565h4.616v-6.689a2.308,2.308,0,0,0-4.616,0Z" transform="translate(-1136.723 -838.85)" fill-rule="evenodd"/>
      <path id="Trazado_1056895" data-name="Trazado 1056895" d="M977.029,416.354H959.935a.785.785,0,0,1-.782-.782v-5.79c-1.174.587-3.208.43-2.856-.743.352-1.252,2.073.391,2.895-1.447a.8.8,0,0,1,1.526.313v6.885h15.53v-4.772a3.221,3.221,0,0,1-4.616-2.895,3.189,3.189,0,0,1,4.616-2.856v-5.085h-6.533a.78.78,0,0,1-.313-1.486,1.648,1.648,0,1,0-1.447,0,.776.776,0,0,1-.313,1.486h-6.924v6.728a.8.8,0,0,1-1.526.313,1.617,1.617,0,0,0-2.621-.469.8.8,0,0,1-1.135-1.134,3.225,3.225,0,0,1,3.716-.587V398.4a.785.785,0,0,1,.782-.782H965.8a3.2,3.2,0,1,1,5.75,0h5.476a.785.785,0,0,1,.782.782v7.745a.78.78,0,0,1-1.487.313,1.64,1.64,0,1,0,0,1.369.773.773,0,0,1,1.487.313v7.432A.785.785,0,0,1,977.029,416.354Z" transform="translate(-917.843 -241.181)" fill-rule="evenodd"/>
      <path id="Trazado_1056896" data-name="Trazado 1056896" d="M909.47,382.375h-13.5a2.229,2.229,0,0,1-2.23-2.23c0-2.738.9-5.868-.9-7.12a16.655,16.655,0,0,1-3.09-2.895c-.665-.782.587-1.76,1.213-.978,3.169,3.834,4.968,2.191,4.46,8.88-.078,1.174-.43,2.777.587,2.777h13.5c2,0-1.447-6.454,2.23-9.075,11.383-8.1,5.75-26.522-8.958-26.131l-.665-.039a14.421,14.421,0,0,0-13.3,8.841.789.789,0,0,1-1.447-.626A15.946,15.946,0,0,1,902.077,344h1.291a15.991,15.991,0,0,1,9.271,29.026c-1.839,1.291-.9,4.42-.939,7.12A2.2,2.2,0,0,1,909.47,382.375Z" transform="translate(-852.592 -194.098)" fill-rule="evenodd"/>
      <path id="Trazado_1056897" data-name="Trazado 1056897" d="M1135.252,1291.1h-5.985a3.055,3.055,0,0,1-3.051-3.051c0-1.447-.274-3.051.782-3.051,1.917,0-.548,4.538,2.269,4.538,8.019,0,7.472.7,7.472-3.755a.783.783,0,0,1,1.565,0v2.269A3.055,3.055,0,0,1,1135.252,1291.1Z" transform="translate(-1082.13 -1098.288)" fill-rule="evenodd"/>
      <path id="Trazado_1056898" data-name="Trazado 1056898" d="M1189.745,1405.577h-3.051a2.27,2.27,0,0,1-2.269-2.269c0-1.017-.235-2.308.782-2.308,1.6,0-.078,3.012,1.487,3.012,4.186,0,3.755.43,3.755-2.23a.783.783,0,0,1,1.565,0v1.526A2.271,2.271,0,0,1,1189.745,1405.577Z" transform="translate(-1138.07 -1209.75)" fill-rule="evenodd"/>
      <path id="Trazado_1056899" data-name="Trazado 1056899" d="M1262.782,917.106a.785.785,0,0,1-.782-.782V901.263a.783.783,0,0,1,1.565,0v15.061A.785.785,0,0,1,1262.782,917.106Z" transform="translate(-1212.633 -728.829)" fill-rule="evenodd"/>
      <path id="Trazado_1056900" data-name="Trazado 1056900" d="M1189.833,750.706a3.853,3.853,0,1,1,3.873-3.873A3.848,3.848,0,0,1,1189.833,750.706Zm0-6.142a2.289,2.289,0,0,0,0,4.577A2.289,2.289,0,1,0,1189.833,744.565Z" transform="translate(-1139.606 -577.49)" fill-rule="evenodd"/>
      <path id="Trazado_1056901" data-name="Trazado 1056901" d="M291.414,505.337a.792.792,0,0,1-.587-1.291L294,500.33a.792.792,0,0,1,1.017-.2,12.7,12.7,0,1,0-3.521-2.973.773.773,0,0,1,0,1.017l-3.169,3.716a.776.776,0,1,1-1.174-1.017l2.738-3.208a14.375,14.375,0,0,1,10.366-22.884c12.713-1.017,20.341,13.887,12.088,23.588a14.347,14.347,0,0,1-17.564,3.442L292,505.063A.764.764,0,0,1,291.414,505.337Z" transform="translate(-275.727 -319.72)" fill-rule="evenodd"/>
      <path id="Trazado_1056902" data-name="Trazado 1056902" d="M26.314,1141.689c-3.286,0-7-4.42-4.029-7.9l7.276-8.528a2.283,2.283,0,0,1,3.208-.274l3.951,3.4a2.32,2.32,0,0,1,.274,3.208l-7.315,8.528A4.25,4.25,0,0,1,26.314,1141.689ZM31.282,1126a.747.747,0,0,0-.548.274l-7.276,8.528c-2.5,2.934,2.543,7.237,5.046,4.3l7.276-8.567a.725.725,0,0,0-.078-.978C35.077,1129.015,31.791,1126,31.282,1126Z" transform="translate(-20.368 -944.024)" fill-rule="evenodd"/>
      <path id="Trazado_1056903" data-name="Trazado 1056903" d="M401.609,596.691A10.369,10.369,0,1,1,411.976,585.5,10.377,10.377,0,0,1,401.609,596.691Zm.039-19.168a8.809,8.809,0,1,0,8.762,8.1A8.817,8.817,0,0,0,401.648,577.523Z" transform="translate(-375.948 -416.981)" fill-rule="evenodd"/>
      <path id="Trazado_1056904" data-name="Trazado 1056904" d="M440.046,616a8.809,8.809,0,1,0,8.763,8.1A8.817,8.817,0,0,0,440.046,616Z" transform="translate(-414.346 -455.458)" fill="#8ad7f8" fill-rule="evenodd"/>
      <path id="Trazado_1056905" data-name="Trazado 1056905" d="M352.834,526.583a10.369,10.369,0,1,1-18.229-5.907A10.35,10.35,0,0,1,352.834,526.583Zm-16.743,11.892a12.829,12.829,0,0,0,18.229-15.96,1.389,1.389,0,0,1-.156-.352,12.006,12.006,0,0,0-2.308-3.482l-.235-.235a13.024,13.024,0,0,0-10.327-3.755,1.206,1.206,0,0,1-.391.039,12.185,12.185,0,0,0-8.137,4.42,12.759,12.759,0,0,0-.2,16.351.773.773,0,0,1,0,1.017l-2.66,3.129,2.5,2.151,2.66-3.129A.792.792,0,0,1,336.091,538.475Z" transform="translate(-316.806 -358.061)" fill="#344a5e" fill-rule="evenodd"/>
      <path id="Trazado_1056906" data-name="Trazado 1056906" d="M74.653,1168.538a.725.725,0,0,0-.078-.978c-.626-.548-3.912-3.56-4.42-3.56a.747.747,0,0,0-.548.274l-7.276,8.528c-2.5,2.934,2.543,7.237,5.046,4.3Z" transform="translate(-59.241 -982.021)" fill="#f3705a" fill-rule="evenodd"/>
      <path id="Trazado_1056907" data-name="Trazado 1056907" d="M49.623,199.76a8.126,8.126,0,0,1,13.3-6.259,13.782,13.782,0,0,1,6.65.978c-.626-1.369-1.33-1.878-.743-2.5.43-.43,2.934-2.7,2.934-3.09s-2.425-2.621-2.817-3.051a.475.475,0,0,0-.626,0c-4.968,4.968-1.839,2.7-7.628,1.33a.754.754,0,0,1-.587-.743v-3.99a.434.434,0,0,0-.43-.43H55.843a.444.444,0,0,0-.469.43c0,7,.626,3.208-4.42,6.337a.83.83,0,0,1-.978-.117c-.43-.43-2.738-2.934-3.129-2.934s-2.582,2.425-3.012,2.856a.425.425,0,0,0,0,.587c4.968,4.968,2.66,1.839,1.33,7.628a.754.754,0,0,1-.743.587H40.43a.444.444,0,0,0-.43.469v3.834a.434.434,0,0,0,.43.43c7,0,3.169-.626,6.337,4.459a.765.765,0,0,1-.117.939c-.43.43-2.934,2.738-2.934,3.129s2.425,2.582,2.856,3.012a.425.425,0,0,0,.587,0l2.895-2.856a14.326,14.326,0,0,1,.391-7.393A9.38,9.38,0,0,1,49.623,199.76Z" transform="translate(-38.435 -38.435)" fill="#668fa3" fill-rule="evenodd"/>
      <path id="Trazado_1056908" data-name="Trazado 1056908" d="M1002.794,437.616v6.728a.8.8,0,0,1-1.526.313,1.593,1.593,0,0,0-2.269-.743,13.52,13.52,0,0,1,.821,3.051,1.407,1.407,0,0,0,1.447-.939.8.8,0,0,1,1.526.313v6.885h6.494v-.469c-4.42-1.056-3.677-7.628.861-7.628a3.865,3.865,0,0,1,.7,7.667v.43h7.472v-4.772a3.221,3.221,0,0,1-4.616-2.895,3.189,3.189,0,0,1,4.616-2.856v-5.085h-6.533a.78.78,0,0,1-.313-1.486,1.648,1.648,0,1,0-1.447,0,.776.776,0,0,1-.313,1.486Z" transform="translate(-959.921 -279.617)" fill="#3e8fc9" fill-rule="evenodd"/>
      <path id="Trazado_1056909" data-name="Trazado 1056909" d="M935.89,395.383V389.75a.785.785,0,0,1,.782-.782h5.868a3.2,3.2,0,1,1,5.75,0h5.476a.785.785,0,0,1,.782.782V397.5a.78.78,0,0,1-1.486.313,1.64,1.64,0,1,0,0,1.369.773.773,0,0,1,1.486.313v7.432a.785.785,0,0,1-.782.782h-8.254v1.056a3.865,3.865,0,0,1,3.09,3.794v6.689H951.5c1.995,0-1.447-6.454,2.23-9.075,11.383-8.1,5.75-26.522-8.958-26.131L944.1,384a14.406,14.406,0,0,0-13.1,8.371,15.667,15.667,0,0,1,2.034,3.012A3.19,3.19,0,0,1,935.89,395.383Z" transform="translate(-894.581 -232.533)" fill="#ffe666" fill-rule="evenodd"/>
      <path id="Trazado_1056910" data-name="Trazado 1056910" d="M1000.64,828.572h-7.276a.785.785,0,0,1-.782-.782V822a2.7,2.7,0,0,1-1.252.313,14.3,14.3,0,0,1-1.33,6.533c2.934,3.325,4.616,2.034,4.107,8.489-.235,3.208-.548,2.777,3.442,2.777v-6.689a3.865,3.865,0,0,1,3.09-3.794Z" transform="translate(-951.273 -653.4)" fill="#ffe666" fill-rule="evenodd"/>
      <path id="Trazado_1056911" data-name="Trazado 1056911" d="M1223,1061.151v6.689h1.526V1059A2.119,2.119,0,0,0,1223,1061.151Z" transform="translate(-1175.158 -881.129)" fill="#ffcf5c" fill-rule="evenodd"/>
      <path id="Trazado_1056912" data-name="Trazado 1056912" d="M1302,1059v8.841h1.526v-6.689A2.162,2.162,0,0,0,1302,1059Z" transform="translate(-1251.068 -881.129)" fill="#ffcf5c" fill-rule="evenodd"/>
      <path id="Trazado_1056913" data-name="Trazado 1056913" d="M1175.017,1325h-7.55c-.039,1.721-.2,2.895,1.526,2.973,7.432.039,7.432.626,7.393-2.973Z" transform="translate(-1121.777 -1136.723)" fill="#dfe7f4" fill-rule="evenodd"/>
      <path id="Trazado_1056914" data-name="Trazado 1056914" d="M1228.5,1441H1224c0,.743,0,1.447.743,1.447C1228.42,1442.447,1228.538,1442.76,1228.5,1441Z" transform="translate(-1176.119 -1248.186)" fill="#47568c" fill-rule="evenodd"/>
      <path id="Trazado_1056915" data-name="Trazado 1056915" d="M1228.509,787.577a2.288,2.288,0,0,0,0-4.577A2.288,2.288,0,0,0,1228.509,787.577Z" transform="translate(-1178.281 -615.925)" fill="#ffe666" fill-rule="evenodd"/>
    </g>
  </g>
</svg>
