<svg xmlns="http://www.w3.org/2000/svg" xmlns:xlink="http://www.w3.org/1999/xlink" width="113" height="113" viewBox="0 0 113 113">
  <defs>
    <filter id="Trazado_982547" x="0" y="0" width="113" height="113" filterUnits="userSpaceOnUse">
      <feOffset dy="3" input="SourceAlpha"/>
      <feGaussianBlur stdDeviation="3" result="blur"/>
      <feFlood flood-opacity="0.161"/>
      <feComposite operator="in" in2="blur"/>
      <feComposite in="SourceGraphic"/>
    </filter>
  </defs>
  <g id="Grupo_1211310" data-name="Grupo 1211310" transform="translate(-901 -1400.712)">
    <g id="Grupo_1210966" data-name="Grupo 1210966" transform="translate(629.25 -47.125)">
      <g id="Grupo_1210937" data-name="Grupo 1210937" transform="translate(15.75 621.587)">
        <g id="Grupo_1174742" data-name="Grupo 1174742" transform="translate(-16 -280.75)">
          <g id="Grupo_1163948" data-name="Grupo 1163948" transform="translate(0 -1371)">
            <g id="Grupo_1158168" data-name="Grupo 1158168" transform="translate(281 2484)">
              <g id="Grupo_1152576" data-name="Grupo 1152576" transform="translate(0)">
                <g id="Grupo_1148633" data-name="Grupo 1148633">
                  <g id="Grupo_1148525" data-name="Grupo 1148525">
                    <g transform="matrix(1, 0, 0, 1, -9, -6)" filter="url(#Trazado_982547)">
                      <g id="Trazado_982547-2" data-name="Trazado 982547" transform="translate(9 6)" fill="#fdf6e4">
                        <path d="M 47.5 93.5 C 41.28937149047852 93.5 35.26533508300781 92.28397369384766 29.59518623352051 89.88570404052734 C 24.11771965026855 87.56893157958984 19.19813346862793 84.25196075439453 14.97309303283691 80.02691650390625 C 10.74804019927979 75.80186462402344 7.431066513061523 70.88229370117188 5.114293098449707 65.40481567382812 C 2.716026782989502 59.73468017578125 1.5 53.71062850952148 1.5 47.5 C 1.5 41.28937149047852 2.716026782989502 35.26533508300781 5.114293098449707 29.59518623352051 C 7.431066513061523 24.11771965026855 10.74804019927979 19.19813346862793 14.97309303283691 14.97309303283691 C 19.19813346862793 10.74804019927979 24.11771965026855 7.431066513061523 29.59518623352051 5.114293098449707 C 35.26533508300781 2.716026782989502 41.28937149047852 1.5 47.5 1.5 C 53.71062850952148 1.5 59.73468017578125 2.716026782989502 65.40481567382812 5.114293098449707 C 70.88229370117188 7.431066513061523 75.80186462402344 10.74804019927979 80.02691650390625 14.97309303283691 C 84.25196075439453 19.19813346862793 87.56893157958984 24.11771965026855 89.88570404052734 29.59518623352051 C 92.28397369384766 35.26533508300781 93.5 41.28937149047852 93.5 47.5 C 93.5 53.71062850952148 92.28397369384766 59.73468017578125 89.88570404052734 65.40481567382812 C 87.56893157958984 70.88229370117188 84.25196075439453 75.80186462402344 80.02691650390625 80.02691650390625 C 75.80186462402344 84.25196075439453 70.88229370117188 87.56893157958984 65.40481567382812 89.88570404052734 C 59.73468017578125 92.28397369384766 53.71062850952148 93.5 47.5 93.5 Z" stroke="none"/>
                        <path d="M 47.5 3 C 41.49121475219727 3 35.66376876831055 4.176155090332031 30.17950439453125 6.495796203613281 C 24.88084411621094 8.736953735351562 20.12152099609375 11.94598388671875 16.03375244140625 16.03375244140625 C 11.94598388671875 20.12152099609375 8.736953735351562 24.88084411621094 6.495796203613281 30.17950439453125 C 4.176155090332031 35.66376876831055 3 41.49121475219727 3 47.5 C 3 53.50878524780273 4.176155090332031 59.33623123168945 6.495796203613281 64.82049560546875 C 8.736953735351562 70.11915588378906 11.94598388671875 74.87847900390625 16.03375244140625 78.96624755859375 C 20.12152099609375 83.05401611328125 24.88084411621094 86.26304626464844 30.17950439453125 88.50419616699219 C 35.66376876831055 90.82384490966797 41.49121475219727 92 47.5 92 C 53.50878524780273 92 59.33623123168945 90.82384490966797 64.82049560546875 88.50419616699219 C 70.11915588378906 86.26304626464844 74.87847900390625 83.05401611328125 78.96624755859375 78.96624755859375 C 83.05401611328125 74.87847900390625 86.26304626464844 70.11915588378906 88.50419616699219 64.82049560546875 C 90.82384490966797 59.33623123168945 92 53.50878524780273 92 47.5 C 92 41.49121475219727 90.82384490966797 35.66376876831055 88.50419616699219 30.17950439453125 C 86.26304626464844 24.88084411621094 83.05401611328125 20.12152099609375 78.96624755859375 16.03375244140625 C 74.87847900390625 11.94598388671875 70.11915588378906 8.736953735351562 64.82049560546875 6.495796203613281 C 59.33623123168945 4.176155090332031 53.50878524780273 3 47.5 3 M 47.5 0 C 73.7335205078125 0 95 21.2664794921875 95 47.5 C 95 73.7335205078125 73.7335205078125 95 47.5 95 C 21.2664794921875 95 0 73.7335205078125 0 47.5 C 0 21.2664794921875 21.2664794921875 0 47.5 0 Z" stroke="none" fill="#f5b104"/>
                      </g>
                    </g>
                  </g>
                </g>
              </g>
            </g>
          </g>
        </g>
      </g>
    </g>
    <g id="Filled_Outline" transform="translate(918.459 1415.458)">
      <g id="Grupo_1211227" data-name="Grupo 1211227" transform="translate(17.053 13.798)">
        <path id="Trazado_1056916" data-name="Trazado 1056916" d="M50.354,67.552H19.84a4.734,4.734,0,0,1-4.733-4.733V17.09a4.734,4.734,0,0,1,4.733-4.733H50.354a4.734,4.734,0,0,1,4.733,4.733V62.818A4.734,4.734,0,0,1,50.354,67.552Z" transform="translate(-15.107 -12.357)" fill="#495f8d"/>
      </g>
      <g id="Grupo_1211228" data-name="Grupo 1211228" transform="translate(19.419 16.164)">
        <path id="Trazado_1056917" data-name="Trazado 1056917" d="M19.474,64.818a2.369,2.369,0,0,1-2.367-2.367V16.724a2.369,2.369,0,0,1,2.367-2.367H49.987a2.369,2.369,0,0,1,2.367,2.367V62.452a2.369,2.369,0,0,1-2.367,2.367Z" transform="translate(-17.107 -14.357)" fill="#00a98c"/>
      </g>
      <g id="Grupo_1211229" data-name="Grupo 1211229" transform="translate(19.419 38.687)">
        <path id="Trazado_1056918" data-name="Trazado 1056918" d="M18.29,33.39a1.184,1.184,0,0,1,1.183,1.183V52.115a1.183,1.183,0,0,1-2.367,0V34.573A1.184,1.184,0,0,1,18.29,33.39Z" transform="translate(-17.107 -33.39)" fill="#00d18c"/>
      </g>
      <g id="Grupo_1211230" data-name="Grupo 1211230" transform="translate(19.419 19.883)">
        <path id="Trazado_1056919" data-name="Trazado 1056919" d="M18.29,34.151a1.184,1.184,0,0,1-1.183-1.183V18.683a1.183,1.183,0,1,1,2.367,0V32.967A1.183,1.183,0,0,1,18.29,34.151Z" transform="translate(-17.107 -17.5)" fill="#00d18c"/>
      </g>
      <g id="Grupo_1211233" data-name="Grupo 1211233" transform="translate(17.053 20.647)">
        <path id="Trazado_1056922" data-name="Trazado 1056922" d="M16.29,38.884A1.184,1.184,0,0,1,15.107,37.7V19.328a1.183,1.183,0,0,1,2.367,0V37.7A1.184,1.184,0,0,1,16.29,38.884Z" transform="translate(-15.107 -18.145)" fill="#6282b0"/>
      </g>
      <g id="Grupo_1211234" data-name="Grupo 1211234" transform="translate(22.397 13.798)">
        <path id="Trazado_1056923" data-name="Trazado 1056923" d="M48.681,13.54A1.184,1.184,0,0,1,47.5,14.724H20.806a1.183,1.183,0,1,1,0-2.367H47.5A1.184,1.184,0,0,1,48.681,13.54Z" transform="translate(-19.623 -12.357)" fill="#6282b0"/>
      </g>
      <g id="Grupo_1211235" data-name="Grupo 1211235" transform="translate(22.397 16.164)">
        <path id="Trazado_1056924" data-name="Trazado 1056924" d="M48.681,15.54A1.184,1.184,0,0,1,47.5,16.724H20.806a1.183,1.183,0,1,1,0-2.367H47.5A1.184,1.184,0,0,1,48.681,15.54Z" transform="translate(-19.623 -14.357)" fill="#00d18c"/>
      </g>
      <g id="Grupo_1211236" data-name="Grupo 1211236" transform="translate(17.053 45.325)">
        <path id="Trazado_1056925" data-name="Trazado 1056925" d="M16.29,57.933a1.184,1.184,0,0,1-1.183-1.183V40.183a1.183,1.183,0,1,1,2.367,0V56.75A1.184,1.184,0,0,1,16.29,57.933Z" transform="translate(-15.107 -39)" fill="#6282b0"/>
      </g>
      <g id="Grupo_1211237" data-name="Grupo 1211237" transform="translate(17.053 22.835)">
        <path id="Trazado_1056926" data-name="Trazado 1056926" d="M16.29,34.9a1.184,1.184,0,0,1-1.183-1.183V21.177a1.183,1.183,0,0,1,2.367,0V33.715A1.183,1.183,0,0,1,16.29,34.9Z" transform="translate(-15.107 -19.994)" fill="#95b5db"/>
      </g>
      <g id="Grupo_1211238" data-name="Grupo 1211238" transform="translate(17.479 14.224)">
        <path id="Trazado_1056927" data-name="Trazado 1056927" d="M52.229,12.717a4.691,4.691,0,0,1,.426,1.941V60.386a4.734,4.734,0,0,1-4.733,4.733H17.408a4.687,4.687,0,0,1-1.941-.426,4.726,4.726,0,0,0,4.307,2.793H50.288a4.734,4.734,0,0,0,4.733-4.733V17.024a4.726,4.726,0,0,0-2.793-4.307Z" transform="translate(-15.467 -12.717)" fill="#354674"/>
      </g>
      <g id="Grupo_1211239" data-name="Grupo 1211239" transform="translate(16.461 13.206)">
        <path id="Trazado_1056928" data-name="Trazado 1056928" d="M50.446,68.235H19.932a5.332,5.332,0,0,1-5.325-5.325V17.182a5.332,5.332,0,0,1,5.325-5.325H50.446a5.332,5.332,0,0,1,5.325,5.325V62.91A5.332,5.332,0,0,1,50.446,68.235ZM19.932,13.04a4.146,4.146,0,0,0-4.142,4.142V62.91a4.146,4.146,0,0,0,4.142,4.142H50.446a4.146,4.146,0,0,0,4.142-4.142V17.182a4.146,4.146,0,0,0-4.142-4.142Z" transform="translate(-14.607 -11.857)" fill="#202228"/>
      </g>
      <g id="Grupo_1211240" data-name="Grupo 1211240" transform="translate(19.419 16.164)">
        <path id="Trazado_1056929" data-name="Trazado 1056929" d="M49.987,14.357V42.08A20.371,20.371,0,0,1,29.616,62.452H17.107a2.369,2.369,0,0,0,2.367,2.367H49.987a2.366,2.366,0,0,0,2.367-2.367V16.724a2.371,2.371,0,0,0-2.367-2.367Z" transform="translate(-17.107 -14.357)" fill="#008182"/>
      </g>
      <g id="Grupo_1211241" data-name="Grupo 1211241" transform="translate(18.828 15.573)">
        <path id="Trazado_1056930" data-name="Trazado 1056930" d="M50.079,65.5H19.565a2.962,2.962,0,0,1-2.958-2.958V16.815a2.962,2.962,0,0,1,2.958-2.958H50.079a2.961,2.961,0,0,1,2.958,2.958V62.543A2.962,2.962,0,0,1,50.079,65.5ZM19.565,15.04a1.777,1.777,0,0,0-1.775,1.775V62.543a1.777,1.777,0,0,0,1.775,1.775H50.079a1.777,1.777,0,0,0,1.775-1.775V16.815a1.777,1.777,0,0,0-1.775-1.775Z" transform="translate(-16.607 -13.857)" fill="#202228"/>
      </g>
      <g id="Grupo_1211242" data-name="Grupo 1211242" transform="translate(21.638 18.383)">
        <path id="Trazado_1056931" data-name="Trazado 1056931" d="M48.8,62.256h-.622a.148.148,0,0,1,0-.3H48.8a.7.7,0,0,0,.427-.146.148.148,0,1,1,.181.233.988.988,0,0,1-.608.208Zm-1.8,0h-1.18a.148.148,0,1,1,0-.3H47a.148.148,0,1,1,0,.3Zm-2.36,0h-1.18a.148.148,0,0,1,0-.3h1.18a.148.148,0,0,1,0,.3Zm-2.36,0H41.1a.148.148,0,0,1,0-.3h1.179a.148.148,0,0,1,0,.3Zm-2.358,0h-1.18a.148.148,0,0,1,0-.3h1.18a.148.148,0,0,1,0,.3Zm-2.36,0h-1.18a.148.148,0,1,1,0-.3h1.18a.148.148,0,1,1,0,.3Zm-2.36,0h-1.18a.148.148,0,0,1,0-.3H35.2a.148.148,0,0,1,0,.3Zm-2.36,0h-1.18a.148.148,0,1,1,0-.3h1.18a.148.148,0,0,1,0,.3Zm-2.36,0H29.3a.148.148,0,1,1,0-.3h1.18a.148.148,0,1,1,0,.3Zm-2.358,0h-1.18a.148.148,0,1,1,0-.3h1.18a.148.148,0,1,1,0,.3Zm-2.36,0h-1.18a.148.148,0,1,1,0-.3h1.18a.148.148,0,1,1,0,.3Zm-2.36,0h-1.18a.148.148,0,1,1,0-.3H23.4a.148.148,0,1,1,0,.3Zm-2.36,0H19.975a.961.961,0,0,1-.13-.008.148.148,0,0,1-.128-.166.139.139,0,0,1,.166-.128.809.809,0,0,0,.093.006h1.067a.148.148,0,1,1,0,.3Zm-1.764-.785h-.3V60.083a.148.148,0,0,1,.3,0v1.388ZM49.644,61a.148.148,0,0,1-.148-.148v-1.18a.148.148,0,0,1,.3,0v1.18A.147.147,0,0,1,49.644,61ZM19.13,59.051a.148.148,0,0,1-.148-.148V57.725a.148.148,0,0,1,.3,0V58.9A.148.148,0,0,1,19.13,59.051Zm30.514-.408A.148.148,0,0,1,49.5,58.5v-1.18a.148.148,0,1,1,.3,0V58.5A.147.147,0,0,1,49.644,58.643ZM19.13,56.693a.148.148,0,0,1-.148-.148v-1.18a.148.148,0,1,1,.3,0v1.18A.148.148,0,0,1,19.13,56.693Zm30.514-.409a.148.148,0,0,1-.148-.148V54.957a.148.148,0,1,1,.3,0v1.179A.148.148,0,0,1,49.644,56.283ZM19.13,54.333a.148.148,0,0,1-.148-.148v-1.18a.148.148,0,0,1,.3,0v1.18A.148.148,0,0,1,19.13,54.333Zm30.514-.408a.148.148,0,0,1-.148-.148V52.6a.148.148,0,0,1,.3,0v1.18A.148.148,0,0,1,49.644,53.925ZM19.13,51.974a.148.148,0,0,1-.148-.148V50.647a.148.148,0,1,1,.3,0v1.179A.148.148,0,0,1,19.13,51.974Zm30.514-.408a.148.148,0,0,1-.148-.148v-1.18a.148.148,0,1,1,.3,0v1.18A.148.148,0,0,1,49.644,51.565ZM19.13,49.614a.148.148,0,0,1-.148-.148v-1.18a.148.148,0,1,1,.3,0v1.18A.147.147,0,0,1,19.13,49.614Zm30.514-.408a.148.148,0,0,1-.148-.148V47.879a.148.148,0,1,1,.3,0v1.179A.148.148,0,0,1,49.644,49.206ZM19.13,47.255a.148.148,0,0,1-.148-.148v-1.18a.148.148,0,0,1,.3,0v1.18A.147.147,0,0,1,19.13,47.255Zm30.514-.407A.148.148,0,0,1,49.5,46.7V45.52a.148.148,0,0,1,.3,0V46.7A.148.148,0,0,1,49.644,46.847ZM19.13,44.9a.148.148,0,0,1-.148-.148v-1.18a.148.148,0,1,1,.3,0v1.18A.148.148,0,0,1,19.13,44.9Zm30.514-.409a.148.148,0,0,1-.148-.148v-1.18a.148.148,0,1,1,.3,0v1.18A.147.147,0,0,1,49.644,44.487ZM19.13,42.537a.148.148,0,0,1-.148-.148v-1.18a.148.148,0,1,1,.3,0v1.18A.148.148,0,0,1,19.13,42.537Zm30.514-.408a.148.148,0,0,1-.148-.148V40.8a.148.148,0,1,1,.3,0v1.18A.147.147,0,0,1,49.644,42.128ZM19.13,40.177a.148.148,0,0,1-.148-.148v-1.18a.148.148,0,1,1,.3,0v1.18A.148.148,0,0,1,19.13,40.177Zm30.514-.408a.148.148,0,0,1-.148-.148v-1.18a.148.148,0,1,1,.3,0v1.18A.148.148,0,0,1,49.644,39.769ZM19.13,37.819a.148.148,0,0,1-.148-.148v-1.18a.148.148,0,1,1,.3,0v1.18A.148.148,0,0,1,19.13,37.819Zm30.514-.409a.148.148,0,0,1-.148-.148v-1.18a.148.148,0,0,1,.3,0v1.18A.148.148,0,0,1,49.644,37.409ZM19.13,35.458a.148.148,0,0,1-.148-.148V34.13a.148.148,0,1,1,.3,0v1.18A.147.147,0,0,1,19.13,35.458Zm30.514-.407A.148.148,0,0,1,49.5,34.9v-1.18a.148.148,0,0,1,.3,0V34.9A.148.148,0,0,1,49.644,35.051ZM19.13,33.1a.148.148,0,0,1-.148-.148V31.772a.148.148,0,1,1,.3,0V32.95A.147.147,0,0,1,19.13,33.1Zm30.514-.407a.148.148,0,0,1-.148-.148v-1.18a.148.148,0,0,1,.3,0v1.18A.148.148,0,0,1,49.644,32.691ZM19.13,30.74a.148.148,0,0,1-.148-.148v-1.18a.148.148,0,0,1,.3,0v1.18A.147.147,0,0,1,19.13,30.74Zm30.514-.409a.148.148,0,0,1-.148-.148V29a.148.148,0,0,1,.3,0v1.179A.147.147,0,0,1,49.644,30.33ZM19.13,28.38a.148.148,0,0,1-.148-.148v-1.18a.148.148,0,1,1,.3,0v1.18A.148.148,0,0,1,19.13,28.38Zm30.514-.408a.148.148,0,0,1-.148-.148v-1.18a.148.148,0,1,1,.3,0v1.18A.147.147,0,0,1,49.644,27.972ZM19.13,26.021a.148.148,0,0,1-.148-.148V24.694a.148.148,0,1,1,.3,0v1.179A.148.148,0,0,1,19.13,26.021Zm30.514-.408a.148.148,0,0,1-.148-.148v-1.18a.148.148,0,1,1,.3,0v1.18A.147.147,0,0,1,49.644,25.612ZM19.13,23.662a.148.148,0,0,1-.148-.148v-1.18a.148.148,0,1,1,.3,0v1.18A.148.148,0,0,1,19.13,23.662Zm30.514-.409A.148.148,0,0,1,49.5,23.1V21.926a.148.148,0,0,1,.3,0V23.1A.148.148,0,0,1,49.644,23.253ZM19.13,21.3a.148.148,0,0,1-.148-.148v-1.18a.148.148,0,0,1,.3,0v1.18A.148.148,0,0,1,19.13,21.3Zm30.514-.408a.148.148,0,0,1-.148-.148v-1.18a.148.148,0,1,1,.3,0v1.18A.148.148,0,0,1,49.644,20.894ZM19.13,18.943a.148.148,0,0,1-.148-.148v-1.18a.148.148,0,0,1,.3,0V18.8A.147.147,0,0,1,19.13,18.943Zm30.514-.408a.148.148,0,0,1-.148-.148V17.226a.156.156,0,0,1,.148-.157.141.141,0,0,1,.148.14v1.179A.148.148,0,0,1,49.644,18.535ZM19.472,16.694a.151.151,0,0,1-.12-.06.149.149,0,0,1,.031-.207.986.986,0,0,1,.59-.194h.641a.148.148,0,1,1,0,.3h-.641a.7.7,0,0,0-.414.136A.14.14,0,0,1,19.472,16.694Zm29.456-.155-.024,0a.646.646,0,0,0-.107-.008h-1.05a.148.148,0,1,1,0-.3H48.8a.927.927,0,0,1,.153.013.148.148,0,0,1-.022.293Zm-2.358-.011h-1.18a.148.148,0,1,1,0-.3h1.18a.148.148,0,0,1,0,.3Zm-2.36,0H43.03a.148.148,0,1,1,0-.3h1.18a.148.148,0,1,1,0,.3Zm-2.36,0H40.672a.148.148,0,1,1,0-.3H41.85a.148.148,0,0,1,0,.3Zm-2.36,0h-1.18a.148.148,0,1,1,0-.3h1.18a.148.148,0,0,1,0,.3Zm-2.36,0h-1.18a.148.148,0,1,1,0-.3h1.18a.148.148,0,1,1,0,.3Zm-2.358,0h-1.18a.148.148,0,1,1,0-.3h1.18a.148.148,0,0,1,0,.3Zm-2.36,0h-1.18a.148.148,0,0,1,0-.3h1.18a.148.148,0,0,1,0,.3Zm-2.36,0h-1.18a.148.148,0,0,1,0-.3h1.18a.148.148,0,0,1,0,.3Zm-2.36,0h-1.18a.148.148,0,0,1,0-.3h1.18a.148.148,0,1,1,0,.3Zm-2.358,0h-1.18a.148.148,0,0,1,0-.3h1.18a.148.148,0,1,1,0,.3Zm-2.36,0H21.8a.148.148,0,0,1,0-.3h1.18a.148.148,0,0,1,0,.3Z" transform="translate(-18.982 -16.232)" fill="#202228"/>
      </g>
      <g id="Grupo_1211243" data-name="Grupo 1211243" transform="translate(25.906 24.701)">
        <path id="Trazado_1056932" data-name="Trazado 1056932" d="M27.534,27.7H23.772a1.184,1.184,0,0,1-1.183-1.183V22.754a1.184,1.184,0,0,1,1.183-1.183h3.762a1.184,1.184,0,0,1,1.183,1.183v3.762A1.184,1.184,0,0,1,27.534,27.7Z" transform="translate(-22.589 -21.571)" fill="#64a6ee"/>
      </g>
      <g id="Grupo_1211244" data-name="Grupo 1211244" transform="translate(25.906 34.675)">
        <path id="Trazado_1056933" data-name="Trazado 1056933" d="M27.534,36.129H23.772a1.184,1.184,0,0,1-1.183-1.183V31.183A1.184,1.184,0,0,1,23.772,30h3.762a1.184,1.184,0,0,1,1.183,1.183v3.762a1.184,1.184,0,0,1-1.183,1.183Z" transform="translate(-22.589 -30)" fill="#64a6ee"/>
      </g>
      <g id="Grupo_1211245" data-name="Grupo 1211245" transform="translate(25.906 44.648)">
        <path id="Trazado_1056934" data-name="Trazado 1056934" d="M27.534,44.557H23.772a1.184,1.184,0,0,1-1.183-1.183V39.611a1.184,1.184,0,0,1,1.183-1.183h3.762a1.184,1.184,0,0,1,1.183,1.183v3.762a1.184,1.184,0,0,1-1.183,1.183Z" transform="translate(-22.589 -38.428)" fill="#64a6ee"/>
      </g>
      <g id="Grupo_1211246" data-name="Grupo 1211246" transform="translate(25.906 54.623)">
        <path id="Trazado_1056935" data-name="Trazado 1056935" d="M27.534,52.986H23.772A1.184,1.184,0,0,1,22.589,51.8V48.04a1.184,1.184,0,0,1,1.183-1.183h3.762a1.184,1.184,0,0,1,1.183,1.183V51.8a1.184,1.184,0,0,1-1.183,1.183Z" transform="translate(-22.589 -46.857)" fill="#64a6ee"/>
      </g>
      <g id="Grupo_1211247" data-name="Grupo 1211247" transform="translate(35.606 25.293)">
        <path id="Trazado_1056936" data-name="Trazado 1056936" d="M37.168,23.254h-5.79a.592.592,0,1,1,0-1.183h5.79a.592.592,0,0,1,0,1.183Z" transform="translate(-30.786 -22.071)" fill="#202228"/>
      </g>
      <g id="Grupo_1211248" data-name="Grupo 1211248" transform="translate(35.605 29.097)">
        <path id="Trazado_1056937" data-name="Trazado 1056937" d="M42.957,26.469H31.377a.592.592,0,1,1,0-1.183h11.58a.592.592,0,0,1,0,1.183Z" transform="translate(-30.785 -25.286)" fill="#202228"/>
      </g>
      <g id="Grupo_1211249" data-name="Grupo 1211249" transform="translate(35.606 35.246)">
        <path id="Trazado_1056938" data-name="Trazado 1056938" d="M37.168,31.665h-5.79a.592.592,0,1,1,0-1.183h5.79a.592.592,0,0,1,0,1.183Z" transform="translate(-30.786 -30.482)" fill="#202228"/>
      </g>
      <g id="Grupo_1211250" data-name="Grupo 1211250" transform="translate(35.605 39.049)">
        <path id="Trazado_1056939" data-name="Trazado 1056939" d="M42.957,34.879H31.377a.592.592,0,1,1,0-1.183h11.58a.592.592,0,0,1,0,1.183Z" transform="translate(-30.785 -33.696)" fill="#202228"/>
      </g>
      <g id="Grupo_1211251" data-name="Grupo 1211251" transform="translate(35.606 45.199)">
        <path id="Trazado_1056940" data-name="Trazado 1056940" d="M37.168,40.076h-5.79a.592.592,0,1,1,0-1.183h5.79a.592.592,0,1,1,0,1.183Z" transform="translate(-30.786 -38.893)" fill="#202228"/>
      </g>
      <g id="Grupo_1211252" data-name="Grupo 1211252" transform="translate(35.605 49.002)">
        <path id="Trazado_1056941" data-name="Trazado 1056941" d="M42.957,43.29H31.377a.592.592,0,1,1,0-1.183h11.58a.592.592,0,1,1,0,1.183Z" transform="translate(-30.785 -42.107)" fill="#202228"/>
      </g>
      <g id="Grupo_1211253" data-name="Grupo 1211253" transform="translate(35.606 55.172)">
        <path id="Trazado_1056942" data-name="Trazado 1056942" d="M37.168,48.5h-5.79a.592.592,0,1,1,0-1.183h5.79a.592.592,0,0,1,0,1.183Z" transform="translate(-30.786 -47.321)" fill="#202228"/>
      </g>
      <g id="Grupo_1211254" data-name="Grupo 1211254" transform="translate(35.605 58.976)">
        <path id="Trazado_1056943" data-name="Trazado 1056943" d="M42.957,51.719H31.377a.592.592,0,1,1,0-1.183h11.58a.592.592,0,0,1,0,1.183Z" transform="translate(-30.785 -50.536)" fill="#202228"/>
      </g>
      <g id="Grupo_1211255" data-name="Grupo 1211255" transform="translate(45.072 57.307)">
        <path id="Trazado_1056944" data-name="Trazado 1056944" d="M38.785,60.811l6.508-11.686,4.227,1.458L44.153,60.811Z" transform="translate(-38.785 -49.125)" fill="#ffba4e"/>
      </g>
      <g id="Grupo_1211256" data-name="Grupo 1211256" transform="translate(49.157 57.308)">
        <path id="Trazado_1056945" data-name="Trazado 1056945" d="M42.237,53.476a13.93,13.93,0,0,0,4.13,1.909l2.519-4.8L44.66,49.126Z" transform="translate(-42.237 -49.126)" fill="#ff7d3f"/>
      </g>
      <g id="Grupo_1211257" data-name="Grupo 1211257" transform="translate(58.259 57.307)">
        <path id="Trazado_1056946" data-name="Trazado 1056946" d="M60.663,60.811,54.155,49.125l-4.226,1.458L55.3,60.811Z" transform="translate(-49.929 -49.125)" fill="#ffba4e"/>
      </g>
      <g id="Grupo_1211258" data-name="Grupo 1211258" transform="translate(58.259 57.307)">
        <path id="Trazado_1056947" data-name="Trazado 1056947" d="M54.155,49.125l-4.226,1.458,2.519,4.8a13.944,13.944,0,0,0,4.13-1.909Z" transform="translate(-49.929 -49.125)" fill="#ff7d3f"/>
      </g>
      <g id="Grupo_1211259" data-name="Grupo 1211259" transform="translate(51.305 63.794)">
        <path id="Trazado_1056948" data-name="Trazado 1056948" d="M53.645,54.607H45.915l-1.863,3.55H55.508Z" transform="translate(-44.052 -54.607)" fill="#96abda"/>
      </g>
      <g id="Grupo_1211260" data-name="Grupo 1211260" transform="translate(58.257 63.794)">
        <path id="Trazado_1056949" data-name="Trazado 1056949" d="M52.568,54.607H49.927l1.863,3.55h2.641Z" transform="translate(-49.927 -54.607)" fill="#6979b7"/>
      </g>
      <g id="Grupo_1211261" data-name="Grupo 1211261" transform="translate(57.668 56.716)">
        <path id="Trazado_1056950" data-name="Trazado 1056950" d="M60.755,61.494H55.387a.591.591,0,0,1-.523-.317L49.5,50.949a.591.591,0,0,1,.331-.834l4.226-1.458a.6.6,0,0,1,.71.271l6.508,11.686a.593.593,0,0,1-.518.88ZM55.746,60.31h4L53.971,49.937l-3.106,1.072Z" transform="translate(-49.43 -48.625)" fill="#202228"/>
      </g>
      <g id="Grupo_1211262" data-name="Grupo 1211262" transform="translate(44.48 56.717)">
        <path id="Trazado_1056951" data-name="Trazado 1056951" d="M44.244,61.494H38.877a.592.592,0,0,1-.517-.879l6.508-11.686a.6.6,0,0,1,.71-.271L49.8,50.116a.591.591,0,0,1,.331.834L44.769,61.178a.594.594,0,0,1-.524.316ZM39.884,60.31h4l4.881-9.3-3.106-1.072Z" transform="translate(-38.285 -48.626)" fill="#202228"/>
      </g>
      <g id="Grupo_1211263" data-name="Grupo 1211263" transform="translate(50.711 63.202)">
        <path id="Trazado_1056952" data-name="Trazado 1056952" d="M55.6,58.84H44.143a.594.594,0,0,1-.506-.285.588.588,0,0,1-.018-.581l1.863-3.55A.593.593,0,0,1,46,54.107h7.731a.591.591,0,0,1,.523.317l1.863,3.55a.591.591,0,0,1-.521.866ZM45.123,57.657h9.5L53.379,55.29H46.364Z" transform="translate(-43.55 -54.107)" fill="#202228"/>
      </g>
      <g id="Grupo_1211264" data-name="Grupo 1211264" transform="translate(45.073 38.12)">
        <circle id="Elipse_12560" data-name="Elipse 12560" cx="11.96" cy="11.96" r="11.96" fill="#ff2353"/>
      </g>
      <g id="Grupo_1211265" data-name="Grupo 1211265" transform="translate(47.043 40.089)">
        <path id="Trazado_1056953" data-name="Trazado 1056953" d="M57.008,34.575A11.953,11.953,0,0,1,40.451,51.132,11.956,11.956,0,1,0,57.008,34.575Z" transform="translate(-40.451 -34.575)" fill="#b91953"/>
      </g>
      <g id="Grupo_1211266" data-name="Grupo 1211266" transform="translate(49.808 42.855)">
        <path id="Trazado_1056954" data-name="Trazado 1056954" d="M50.012,51.364a7.226,7.226,0,1,1,7.227-7.227A7.234,7.234,0,0,1,50.012,51.364Z" transform="translate(-42.787 -36.912)" fill="#96abda"/>
      </g>
      <g id="Grupo_1211267" data-name="Grupo 1211267" transform="translate(51.155 44.202)">
        <path id="Trazado_1056955" data-name="Trazado 1056955" d="M53.992,38.051A7.214,7.214,0,0,1,43.926,48.117,7.219,7.219,0,1,0,53.992,38.051Z" transform="translate(-43.926 -38.051)" fill="#6979b7"/>
      </g>
      <g id="Grupo_1211268" data-name="Grupo 1211268" transform="translate(54.541 47.588)">
        <path id="Trazado_1056956" data-name="Trazado 1056956" d="M49.279,45.9A2.493,2.493,0,1,1,51.772,43.4,2.5,2.5,0,0,1,49.279,45.9Z" transform="translate(-46.787 -40.912)" fill="#ff2353"/>
      </g>
      <g id="Grupo_1211269" data-name="Grupo 1211269" transform="translate(53.949 46.996)">
        <path id="Trazado_1056957" data-name="Trazado 1056957" d="M49.371,46.581A3.084,3.084,0,1,1,52.456,43.5,3.087,3.087,0,0,1,49.371,46.581Zm0-4.987a1.9,1.9,0,1,0,1.9,1.9A1.9,1.9,0,0,0,49.371,41.594Z" transform="translate(-46.287 -40.412)" fill="#202228"/>
      </g>
      <g id="Grupo_1211270" data-name="Grupo 1211270" transform="translate(45.071 38.119)">
        <path id="Trazado_1056958" data-name="Trazado 1056958" d="M41.519,42.268a9.574,9.574,0,0,1,11.02-6.821,1.172,1.172,0,0,0,1.342-.811,1.192,1.192,0,0,0-.916-1.519A11.954,11.954,0,0,0,39,42.649a11.722,11.722,0,0,0,.095,4.881,1.189,1.189,0,0,0,1.547.846,1.168,1.168,0,0,0,.762-1.364,9.433,9.433,0,0,1,.12-4.744Z" transform="translate(-38.784 -32.91)" fill="#ff507e"/>
      </g>
      <g id="Grupo_1211272" data-name="Grupo 1211272" transform="translate(44.483 37.529)">
        <path id="Trazado_1056960" data-name="Trazado 1056960" d="M50.838,57.514A12.551,12.551,0,1,1,63.389,44.963,12.565,12.565,0,0,1,50.838,57.514Zm0-23.92A11.368,11.368,0,1,0,62.206,44.961,11.38,11.38,0,0,0,50.838,33.594Z" transform="translate(-38.287 -32.412)" fill="#202228"/>
      </g>
      <g id="Grupo_1211273" data-name="Grupo 1211273" transform="translate(47.292 40.39)">
        <path id="Trazado_1056961" data-name="Trazado 1056961" d="M50.476,54.261H50.4a9.685,9.685,0,0,1-1.219-.076.148.148,0,0,1-.128-.166.141.141,0,0,1,.166-.128,9.532,9.532,0,0,0,1.181.073h.073a.148.148,0,1,1,0,.3Zm1.2-.084a.148.148,0,0,1-.02-.295,9.068,9.068,0,0,0,1.161-.23.148.148,0,0,1,.076.286,9.712,9.712,0,0,1-1.2.237Zm-3.655-.215a.13.13,0,0,1-.037,0,9.52,9.52,0,0,1-1.162-.379.147.147,0,0,1-.083-.192.15.15,0,0,1,.192-.083,9.3,9.3,0,0,0,1.128.368.147.147,0,0,1-.038.29ZM54,53.56a.146.146,0,0,1-.137-.092.15.15,0,0,1,.082-.193,9.157,9.157,0,0,0,1.065-.512.149.149,0,0,1,.146.259,9.658,9.658,0,0,1-1.1.528A.148.148,0,0,1,54,53.56Zm-8.212-.485a.146.146,0,0,1-.072-.019,9.341,9.341,0,0,1-1.03-.657.147.147,0,0,1,.174-.238,9.555,9.555,0,0,0,1,.635.148.148,0,0,1-.072.278Zm10.3-.689a.151.151,0,0,1-.12-.06A.149.149,0,0,1,56,52.119a9.436,9.436,0,0,0,.908-.762.148.148,0,1,1,.2.215,9.71,9.71,0,0,1-.935.785.142.142,0,0,1-.088.03Zm-12.246-.723a.154.154,0,0,1-.1-.04,9.725,9.725,0,0,1-.835-.889.148.148,0,0,1,.227-.189,9.487,9.487,0,0,0,.813.863.148.148,0,0,1,.006.209A.159.159,0,0,1,43.844,51.663Zm13.987-.931a.148.148,0,0,1-.115-.241,9.711,9.711,0,0,0,.691-.961.143.143,0,0,1,.2-.046.146.146,0,0,1,.046.2,9.8,9.8,0,0,1-.712.992A.148.148,0,0,1,57.831,50.732Zm-15.522-.918a.147.147,0,0,1-.124-.069,9.752,9.752,0,0,1-.59-1.067.148.148,0,0,1,.269-.127,9.763,9.763,0,0,0,.572,1.035.149.149,0,0,1-.045.2.156.156,0,0,1-.08.022Zm16.8-1.115a.147.147,0,0,1-.063-.014.149.149,0,0,1-.072-.2,9.123,9.123,0,0,0,.431-1.105.151.151,0,0,1,.186-.1.148.148,0,0,1,.1.186,9.785,9.785,0,0,1-.445,1.14A.144.144,0,0,1,59.107,48.7ZM41.283,47.643a.147.147,0,0,1-.141-.1,10.345,10.345,0,0,1-.306-1.185.148.148,0,0,1,.118-.173.154.154,0,0,1,.173.118,9.387,9.387,0,0,0,.3,1.148.149.149,0,0,1-.095.187.215.215,0,0,1-.046.006Zm18.554-1.235-.026,0a.15.15,0,0,1-.12-.173,9.19,9.19,0,0,0,.141-1.176.145.145,0,0,1,.156-.14.148.148,0,0,1,.14.156,10.218,10.218,0,0,1-.146,1.213.146.146,0,0,1-.146.122ZM40.829,45.286a.149.149,0,0,1-.148-.138c-.013-.208-.02-.418-.02-.628s.021-.4.037-.6a.149.149,0,0,1,.148-.135h.013a.149.149,0,0,1,.135.161c-.017.188-.028.38-.037.575s.007.4.02.6a.15.15,0,0,1-.138.157h-.009Zm19.124-1.274a.148.148,0,0,1-.147-.134,11.576,11.576,0,0,0-.169-1.176.148.148,0,1,1,.291-.057c.075.386.133.792.172,1.207a.147.147,0,0,1-.133.161h-.014ZM41.008,42.892l-.027,0a.15.15,0,0,1-.118-.173,10.689,10.689,0,0,1,.291-1.185.145.145,0,0,1,.185-.1.147.147,0,0,1,.1.185,10.374,10.374,0,0,0-.282,1.153A.148.148,0,0,1,41.008,42.892Zm18.479-1.237a.146.146,0,0,1-.141-.1,9.8,9.8,0,0,0-.421-1.108.15.15,0,0,1,.073-.2.153.153,0,0,1,.2.073,9.735,9.735,0,0,1,.433,1.142.147.147,0,0,1-.1.185.111.111,0,0,1-.044.008ZM41.717,40.6a.158.158,0,0,1-.06-.013.147.147,0,0,1-.075-.2,9.684,9.684,0,0,1,.567-1.083.148.148,0,0,1,.252.155,9.253,9.253,0,0,0-.548,1.048A.149.149,0,0,1,41.717,40.6Zm16.776-1.128a.145.145,0,0,1-.125-.071,8.946,8.946,0,0,0-.689-.961.148.148,0,0,1,.23-.187,9.161,9.161,0,0,1,.712.994.147.147,0,0,1-.049.2.163.163,0,0,1-.079.021Zm-15.529-.921a.148.148,0,0,1-.115-.241,8.983,8.983,0,0,1,.831-.895.148.148,0,1,1,.2.215,8.979,8.979,0,0,0-.806.866.142.142,0,0,1-.114.054Zm14-.931a.15.15,0,0,1-.1-.039,8.482,8.482,0,0,0-.921-.743.149.149,0,1,1,.172-.243,9.336,9.336,0,0,1,.951.768.148.148,0,0,1,.008.209.153.153,0,0,1-.11.047ZM44.714,36.9a.15.15,0,0,1-.121-.063.148.148,0,0,1,.034-.206,9.247,9.247,0,0,1,1.04-.645.15.15,0,0,1,.2.062.147.147,0,0,1-.062.2,9.349,9.349,0,0,0-1.008.624A.136.136,0,0,1,44.714,36.9ZM55,36.237a.145.145,0,0,1-.069-.018,9.766,9.766,0,0,0-1.083-.48.148.148,0,0,1-.086-.191.149.149,0,0,1,.191-.086,9.732,9.732,0,0,1,1.115.5.147.147,0,0,1-.067.278Zm-8.171-.466a.146.146,0,0,1-.138-.1.149.149,0,0,1,.086-.191,10.074,10.074,0,0,1,1.166-.362.141.141,0,0,1,.179.108.147.147,0,0,1-.108.179,9.826,9.826,0,0,0-1.134.353.149.149,0,0,1-.051.009Zm5.921-.372a.142.142,0,0,1-.033,0,10.147,10.147,0,0,0-1.169-.206.148.148,0,0,1-.129-.164.142.142,0,0,1,.164-.129,10.463,10.463,0,0,1,1.2.211.151.151,0,0,1,.111.178.155.155,0,0,1-.147.115Zm-3.589-.2a.149.149,0,0,1-.147-.13.147.147,0,0,1,.129-.164,10.286,10.286,0,0,1,1.218-.076.148.148,0,0,1,0,.3,10.246,10.246,0,0,0-1.183.073Z" transform="translate(-40.661 -34.829)" fill="#202228"/>
      </g>
      <g id="Grupo_1211274" data-name="Grupo 1211274" transform="translate(49.807 42.856)">
        <path id="Trazado_1056962" data-name="Trazado 1056962" d="M43.223,41.665a7.207,7.207,0,0,0-.337,3.648,1.184,1.184,0,1,0,2.332-.412,4.509,4.509,0,0,1-.065-.763c0-.164.008-.325.024-.485a4.856,4.856,0,0,1,4.835-4.374,4.482,4.482,0,0,1,.761.065,1.185,1.185,0,1,0,.412-2.334,7.219,7.219,0,0,0-7.962,4.654Z" transform="translate(-42.787 -36.913)" fill="#c8cef8"/>
      </g>
      <g id="Grupo_1211276" data-name="Grupo 1211276" transform="translate(49.216 42.263)">
        <path id="Trazado_1056964" data-name="Trazado 1056964" d="M50.1,52.048a7.818,7.818,0,1,1,7.818-7.818A7.826,7.826,0,0,1,50.1,52.048Zm0-14.453a6.634,6.634,0,1,0,6.635,6.634A6.641,6.641,0,0,0,50.1,37.594Z" transform="translate(-42.287 -36.412)" fill="#202228"/>
      </g>
      <g id="Grupo_1211277" data-name="Grupo 1211277" transform="translate(25.906 5.092)">
        <path id="Trazado_1056965" data-name="Trazado 1056965" d="M42.5,10.917H39.642a2.536,2.536,0,0,1-2.536-2.536,3.381,3.381,0,1,0-6.762,0,2.536,2.536,0,0,1-2.536,2.536H24.956a2.366,2.366,0,0,0-2.367,2.367v4.9a2.366,2.366,0,0,0,2.367,2.367H42.494a2.366,2.366,0,0,0,2.367-2.367v-4.9A2.365,2.365,0,0,0,42.5,10.917Z" transform="translate(-22.589 -5)" fill="#ffba4e"/>
      </g>
      <g id="Grupo_1211279" data-name="Grupo 1211279" transform="translate(25.906 11.008)">
        <g id="Grupo_1211278" data-name="Grupo 1211278">
          <path id="Trazado_1056966" data-name="Trazado 1056966" d="M42.5,10H42.19v4.6a2.366,2.366,0,0,1-2.367,2.367H22.589v.305a2.366,2.366,0,0,0,2.367,2.367H42.494a2.366,2.366,0,0,0,2.367-2.367v-4.9A2.365,2.365,0,0,0,42.5,10Z" transform="translate(-22.589 -10)" fill="#ff7d3f"/>
        </g>
      </g>
      <g id="Grupo_1211280" data-name="Grupo 1211280" transform="translate(28.273 5.092)">
        <path id="Trazado_1056967" data-name="Trazado 1056967" d="M24.589,12.1a1.184,1.184,0,0,0,1.183,1.183h1.67a4.907,4.907,0,0,0,4.9-4.9,1.014,1.014,0,1,1,2.028,0,4.732,4.732,0,0,0,.309,1.684,1.141,1.141,0,0,0,1.784.444,1.189,1.189,0,0,0,.418-1.295,2.447,2.447,0,0,1-.143-.766A3.366,3.366,0,0,0,33.475,5h-.2a3.382,3.382,0,0,0-3.293,3.449,2.536,2.536,0,0,1-2.535,2.467h-1.67A1.184,1.184,0,0,0,24.589,12.1Z" transform="translate(-24.589 -5)" fill="#ffdd67"/>
      </g>
      <g id="Grupo_1211282" data-name="Grupo 1211282" transform="translate(25.315 4.5)">
        <path id="Trazado_1056969" data-name="Trazado 1056969" d="M42.587,21.238H25.047a2.962,2.962,0,0,1-2.958-2.958v-4.9a2.962,2.962,0,0,1,2.958-2.958H27.9a1.946,1.946,0,0,0,1.944-1.944,3.972,3.972,0,0,1,7.945,0,1.947,1.947,0,0,0,1.944,1.944h2.853a2.961,2.961,0,0,1,2.958,2.958v4.9A2.962,2.962,0,0,1,42.587,21.238ZM25.047,11.6a1.777,1.777,0,0,0-1.775,1.775v4.9a1.777,1.777,0,0,0,1.775,1.775h17.54a1.777,1.777,0,0,0,1.775-1.775v-4.9A1.777,1.777,0,0,0,42.587,11.6H39.734a3.132,3.132,0,0,1-3.128-3.128,2.789,2.789,0,0,0-5.578,0A3.132,3.132,0,0,1,27.9,11.6Z" transform="translate(-22.089 -4.5)" fill="#202228"/>
      </g>
      <g id="Grupo_1211283" data-name="Grupo 1211283" transform="translate(25.906 24.701)">
        <path id="Trazado_1056970" data-name="Trazado 1056970" d="M24.462,24.628a1.184,1.184,0,0,1,1.183-1.183h3.072v-.69a1.184,1.184,0,0,0-1.183-1.183H23.772a1.184,1.184,0,0,0-1.183,1.183v3.762A1.184,1.184,0,0,0,23.772,27.7h.69Z" transform="translate(-22.589 -21.571)" fill="#4683cd"/>
      </g>
      <g id="Grupo_1211284" data-name="Grupo 1211284" transform="translate(25.906 34.675)">
        <path id="Trazado_1056971" data-name="Trazado 1056971" d="M24.462,33.057a1.184,1.184,0,0,1,1.183-1.183h3.072v-.69A1.184,1.184,0,0,0,27.534,30H23.772a1.184,1.184,0,0,0-1.183,1.183v3.762a1.184,1.184,0,0,0,1.183,1.183h.69Z" transform="translate(-22.589 -30)" fill="#4683cd"/>
      </g>
      <g id="Grupo_1211285" data-name="Grupo 1211285" transform="translate(25.906 44.648)">
        <path id="Trazado_1056972" data-name="Trazado 1056972" d="M24.462,41.485A1.184,1.184,0,0,1,25.646,40.3h3.072v-.69a1.184,1.184,0,0,0-1.183-1.183H23.772a1.184,1.184,0,0,0-1.183,1.183v3.762a1.184,1.184,0,0,0,1.183,1.183h.69Z" transform="translate(-22.589 -38.428)" fill="#4683cd"/>
      </g>
      <g id="Grupo_1211286" data-name="Grupo 1211286" transform="translate(25.906 54.623)">
        <path id="Trazado_1056973" data-name="Trazado 1056973" d="M24.462,49.914a1.184,1.184,0,0,1,1.183-1.183h3.072v-.69a1.184,1.184,0,0,0-1.183-1.183H23.772a1.184,1.184,0,0,0-1.183,1.183V51.8a1.184,1.184,0,0,0,1.183,1.183h.69Z" transform="translate(-22.589 -46.857)" fill="#4683cd"/>
      </g>
      <g id="Grupo_1211287" data-name="Grupo 1211287" transform="translate(25.315 24.109)">
        <path id="Trazado_1056974" data-name="Trazado 1056974" d="M27.626,28.383H23.864a1.777,1.777,0,0,1-1.775-1.775V22.846a1.777,1.777,0,0,1,1.775-1.775h3.762A1.777,1.777,0,0,1,29.4,22.846v3.762a1.777,1.777,0,0,1-1.775,1.775Zm-3.762-6.129a.593.593,0,0,0-.592.592v3.762a.593.593,0,0,0,.592.592h3.762a.593.593,0,0,0,.592-.592V22.846a.593.593,0,0,0-.592-.592Z" transform="translate(-22.089 -21.071)" fill="#202228"/>
      </g>
      <g id="Grupo_1211288" data-name="Grupo 1211288" transform="translate(25.315 34.084)">
        <path id="Trazado_1056975" data-name="Trazado 1056975" d="M27.626,36.812H23.864a1.777,1.777,0,0,1-1.775-1.775V31.275A1.777,1.777,0,0,1,23.864,29.5h3.762A1.777,1.777,0,0,1,29.4,31.275v3.762a1.777,1.777,0,0,1-1.775,1.775Zm-3.762-6.129a.593.593,0,0,0-.592.592v3.762a.593.593,0,0,0,.592.592h3.762a.593.593,0,0,0,.592-.592V31.275a.593.593,0,0,0-.592-.592Z" transform="translate(-22.089 -29.5)" fill="#202228"/>
      </g>
      <g id="Grupo_1211289" data-name="Grupo 1211289" transform="translate(25.315 44.057)">
        <path id="Trazado_1056976" data-name="Trazado 1056976" d="M27.626,45.24H23.864a1.777,1.777,0,0,1-1.775-1.775V39.7a1.777,1.777,0,0,1,1.775-1.775h3.762A1.777,1.777,0,0,1,29.4,39.7v3.762a1.776,1.776,0,0,1-1.775,1.775Zm-3.762-6.127a.593.593,0,0,0-.592.592v3.762a.593.593,0,0,0,.592.592h3.762a.593.593,0,0,0,.592-.592V39.7a.593.593,0,0,0-.592-.592Z" transform="translate(-22.089 -37.928)" fill="#202228"/>
      </g>
      <g id="Grupo_1211290" data-name="Grupo 1211290" transform="translate(25.315 54.031)">
        <path id="Trazado_1056977" data-name="Trazado 1056977" d="M27.626,53.669H23.864a1.777,1.777,0,0,1-1.775-1.775V48.132a1.777,1.777,0,0,1,1.775-1.775h3.762A1.777,1.777,0,0,1,29.4,48.132v3.762a1.777,1.777,0,0,1-1.775,1.775ZM23.864,47.54a.593.593,0,0,0-.592.592v3.762a.593.593,0,0,0,.592.592h3.762a.593.593,0,0,0,.592-.592V48.132a.593.593,0,0,0-.592-.592Z" transform="translate(-22.089 -46.357)" fill="#202228"/>
      </g>
      <g id="Grupo_1211291" data-name="Grupo 1211291" transform="translate(5.085 20.243)">
        <path id="Trazado_1056978" data-name="Trazado 1056978" d="M7.8,17.964a3.908,3.908,0,0,1,4.853,2.648l1.18,4.014-7.5,2.2-1.18-4.014A3.908,3.908,0,0,1,7.8,17.964Z" transform="translate(-4.994 -17.804)" fill="#96abda"/>
      </g>
      <g id="Grupo_1211292" data-name="Grupo 1211292" transform="translate(6.42 27.055)">
        <path id="Trazado_1056979" data-name="Trazado 1056979" d="M0,0H7.818V27.555H0Z" transform="matrix(0.959, -0.282, 0.282, 0.959, 0, 2.205)" fill="#64a6ee"/>
      </g>
      <g id="Grupo_1211293" data-name="Grupo 1211293" transform="translate(12.18 27.065)">
        <path id="Trazado_1056980" data-name="Trazado 1056980" d="M12.736,23.569l-1.747.514,6.054,20.594A4.2,4.2,0,0,1,14.2,49.895l-1.722.506.531,1.809,7.5-2.2Z" transform="translate(-10.989 -23.569)" fill="#4683cd"/>
      </g>
      <g id="Grupo_1211294" data-name="Grupo 1211294" transform="translate(14.196 53.501)">
        <path id="Trazado_1056981" data-name="Trazado 1056981" d="M20.194,45.909,19.069,51a1.589,1.589,0,0,1-2.672.786l-3.7-3.675Z" transform="translate(-12.693 -45.909)" fill="#ffba4e"/>
      </g>
      <g id="Grupo_1211295" data-name="Grupo 1211295" transform="translate(17.842 53.502)">
        <path id="Trazado_1056982" data-name="Trazado 1056982" d="M17.408,46.562l-.921,4.165a1.561,1.561,0,0,1-.714,1.006l.057.057A1.589,1.589,0,0,0,18.5,51l1.125-5.094Z" transform="translate(-15.774 -45.91)" fill="#ff7d3f"/>
      </g>
      <g id="Grupo_1211296" data-name="Grupo 1211296" transform="translate(5.971 20.263)">
        <path id="Trazado_1056983" data-name="Trazado 1056983" d="M12.518,20.608a3.894,3.894,0,0,0-3.623-2.787,3.878,3.878,0,0,1,1.173,1.824l.282.96a3.184,3.184,0,0,1-2.156,3.952l-2.451.721.456,1.55,7.5-2.2Z" transform="translate(-5.742 -17.821)" fill="#6979b7"/>
      </g>
      <g id="Grupo_1211297" data-name="Grupo 1211297" transform="translate(13.604 52.911)">
        <path id="Trazado_1056984" data-name="Trazado 1056984" d="M17.6,52.937a2.15,2.15,0,0,1-1.524-.637l-3.7-3.674a.6.6,0,0,1-.157-.566.588.588,0,0,1,.407-.421l7.5-2.2a.591.591,0,0,1,.744.695l-1.125,5.1a2.151,2.151,0,0,1-1.516,1.622A2.287,2.287,0,0,1,17.6,52.937Zm-3.684-4.446,2.993,2.97a1,1,0,0,0,1.678-.493l.91-4.117Z" transform="translate(-12.193 -45.411)" fill="#202228"/>
      </g>
      <g id="Grupo_1211298" data-name="Grupo 1211298" transform="translate(7.097 30.438)">
        <path id="Trazado_1056985" data-name="Trazado 1056985" d="M9.683,34.233a.98.98,0,0,1-1.216-.664L6.734,27.676a.98.98,0,1,1,1.88-.553l1.732,5.893A.98.98,0,0,1,9.683,34.233Z" transform="translate(-6.694 -26.419)" fill="#73c4ff"/>
      </g>
      <g id="Grupo_1211299" data-name="Grupo 1211299" transform="translate(9.984 40.257)">
        <path id="Trazado_1056986" data-name="Trazado 1056986" d="M13.307,46.559a.98.98,0,0,1-1.216-.664L9.173,35.974a.98.98,0,1,1,1.88-.553l2.917,9.921A.981.981,0,0,1,13.307,46.559Z" transform="translate(-9.134 -34.717)" fill="#73c4ff"/>
      </g>
      <g id="Grupo_1211300" data-name="Grupo 1211300" transform="translate(9.584 27.577)">
        <path id="Trazado_1056987" data-name="Trazado 1056987" d="M17.159,51.62a.59.59,0,0,1-.567-.425L8.82,24.758a.591.591,0,1,1,1.135-.333l7.771,26.436a.593.593,0,0,1-.567.759Z" transform="translate(-8.796 -24.001)" fill="#202228"/>
      </g>
      <g id="Grupo_1211303" data-name="Grupo 1211303" transform="translate(5.833 26.473)">
        <path id="Trazado_1056990" data-name="Trazado 1056990" d="M13.989,52.893a.591.591,0,0,1-.567-.425L5.65,26.031a.591.591,0,0,1,.4-.734l7.5-2.2a.589.589,0,0,1,.735.4l7.771,26.437a.584.584,0,0,1-.049.45.594.594,0,0,1-.353.284l-7.5,2.2a.572.572,0,0,1-.166.024ZM6.953,26.266l7.437,25.3L20.756,49.7,13.318,24.4Z" transform="translate(-5.626 -23.069)" fill="#202228"/>
      </g>
      <g id="Grupo_1211307" data-name="Grupo 1211307" transform="translate(8.578 30.006)">
        <g id="Grupo_1211304" data-name="Grupo 1211304">
          <path id="Trazado_1056991" data-name="Trazado 1056991" d="M8.262,26.917a.148.148,0,0,1-.142-.107l-.168-.567a.148.148,0,0,1,.1-.183.15.15,0,0,1,.183.1l.168.567a.148.148,0,0,1-.1.183A.167.167,0,0,1,8.262,26.917Z" transform="translate(-7.946 -26.054)" fill="#202228"/>
        </g>
        <g id="Grupo_1211305" data-name="Grupo 1211305" transform="translate(0.504 1.706)">
          <path id="Trazado_1056992" data-name="Trazado 1056992" d="M14.232,47.138a.148.148,0,0,1-.142-.107l-.336-1.138a.148.148,0,0,1,.1-.183.151.151,0,0,1,.183.1l.336,1.138a.148.148,0,0,1-.1.183A.159.159,0,0,1,14.232,47.138Zm-.672-2.277a.148.148,0,0,1-.142-.107l-.336-1.137a.148.148,0,0,1,.1-.183.152.152,0,0,1,.183.1l.336,1.137a.148.148,0,0,1-.1.183A.159.159,0,0,1,13.56,44.862Zm-.672-2.276a.148.148,0,0,1-.142-.107l-.336-1.138a.148.148,0,0,1,.1-.183.15.15,0,0,1,.183.1L13.03,42.4a.148.148,0,0,1-.1.183A.159.159,0,0,1,12.888,42.586Zm-.671-2.277a.148.148,0,0,1-.142-.106l-.336-1.138a.148.148,0,0,1,.1-.183.152.152,0,0,1,.183.1l.336,1.138a.148.148,0,0,1-.1.183A.175.175,0,0,1,12.217,40.309Zm-.672-2.277a.148.148,0,0,1-.142-.106l-.336-1.137a.147.147,0,0,1,.1-.183.149.149,0,0,1,.183.1l.336,1.137a.147.147,0,0,1-.1.183A.175.175,0,0,1,11.545,38.033Zm-.672-2.274a.148.148,0,0,1-.142-.107l-.336-1.138a.148.148,0,0,1,.1-.183.15.15,0,0,1,.185.1l.336,1.138a.148.148,0,0,1-.1.183A.184.184,0,0,1,10.872,35.758ZM10.2,33.481a.148.148,0,0,1-.142-.107l-.336-1.138a.148.148,0,0,1,.1-.183.152.152,0,0,1,.185.1l.336,1.138a.148.148,0,0,1-.1.183A.184.184,0,0,1,10.2,33.481ZM9.528,31.2a.148.148,0,0,1-.142-.107L9.05,29.961a.147.147,0,0,1,.1-.183.151.151,0,0,1,.185.1l.336,1.137a.147.147,0,0,1-.1.183.176.176,0,0,1-.043.006Zm-.672-2.276a.148.148,0,0,1-.142-.107l-.336-1.138a.148.148,0,1,1,.284-.083L9,28.74a.148.148,0,0,1-.1.183A.176.176,0,0,1,8.856,28.929Z" transform="translate(-8.372 -27.495)" fill="#202228"/>
        </g>
        <g id="Grupo_1211306" data-name="Grupo 1211306" transform="translate(6.552 22.192)">
          <path id="Trazado_1056993" data-name="Trazado 1056993" d="M13.8,45.67a.148.148,0,0,1-.142-.106L13.489,45a.148.148,0,0,1,.1-.183.151.151,0,0,1,.183.1l.168.567a.148.148,0,0,1-.1.183A.167.167,0,0,1,13.8,45.67Z" transform="translate(-13.483 -44.807)" fill="#202228"/>
        </g>
      </g>
      <g id="Grupo_1211308" data-name="Grupo 1211308" transform="translate(5.119 20.244)">
        <path id="Trazado_1056994" data-name="Trazado 1056994" d="M7.249,18.168a4.016,4.016,0,0,0-2.057,4.8l.08.272a.964.964,0,1,0,1.85-.543L7,22.277a2.026,2.026,0,0,1,.754-2.265,1.97,1.97,0,0,1,1.089-.331,1.888,1.888,0,0,1,1.3.525.96.96,0,0,0,1.209.09.976.976,0,0,0,.091-1.535A3.882,3.882,0,0,0,7.249,18.168Z" transform="translate(-5.022 -17.805)" fill="#c8cef8"/>
      </g>
      <g id="Grupo_1211309" data-name="Grupo 1211309" transform="translate(4.495 19.65)">
        <path id="Trazado_1056995" data-name="Trazado 1056995" d="M6.425,27.514a.59.59,0,0,1-.567-.425l-1.18-4.014a4.5,4.5,0,1,1,8.636-2.537l1.18,4.014a.584.584,0,0,1-.049.45.594.594,0,0,1-.353.284l-7.5,2.2a.631.631,0,0,1-.167.024ZM9,18.486a3.322,3.322,0,0,0-3.187,4.255l1.013,3.445,6.365-1.871L12.178,20.87A3.319,3.319,0,0,0,9,18.486Z" transform="translate(-4.495 -17.303)" fill="#202228"/>
      </g>
    </g>
  </g>
</svg>
