<svg xmlns="http://www.w3.org/2000/svg" xmlns:xlink="http://www.w3.org/1999/xlink" width="113" height="113" viewBox="0 0 113 113">
  <defs>
    <filter id="Trazado_982547" x="0" y="0" width="113" height="113" filterUnits="userSpaceOnUse">
      <feOffset dy="3" input="SourceAlpha"/>
      <feGaussianBlur stdDeviation="3" result="blur"/>
      <feFlood flood-opacity="0.161"/>
      <feComposite operator="in" in2="blur"/>
      <feComposite in="SourceGraphic"/>
    </filter>
  </defs>
  <g id="Grupo_1211312" data-name="Grupo 1211312" transform="translate(-1214.774 -1400.712)">
    <g id="Grupo_1210967" data-name="Grupo 1210967" transform="translate(943.024 -47.125)">
      <g id="Grupo_1210937" data-name="Grupo 1210937" transform="translate(15.75 621.587)">
        <g id="Grupo_1174742" data-name="Grupo 1174742" transform="translate(-16 -280.75)">
          <g id="Grupo_1163948" data-name="Grupo 1163948" transform="translate(0 -1371)">
            <g id="Grupo_1158168" data-name="Grupo 1158168" transform="translate(281 2484)">
              <g id="Grupo_1152576" data-name="Grupo 1152576" transform="translate(0)">
                <g id="Grupo_1148633" data-name="Grupo 1148633">
                  <g id="Grupo_1148525" data-name="Grupo 1148525">
                    <g transform="matrix(1, 0, 0, 1, -9, -6)" filter="url(#Trazado_982547)">
                      <g id="Trazado_982547-2" data-name="Trazado 982547" transform="translate(9 6)" fill="#fdf6e4">
                        <path d="M 47.5 93.5 C 41.28937149047852 93.5 35.26533508300781 92.28397369384766 29.59518623352051 89.88570404052734 C 24.11771965026855 87.56893157958984 19.19813346862793 84.25196075439453 14.97309303283691 80.02691650390625 C 10.74804019927979 75.80186462402344 7.431066513061523 70.88229370117188 5.114293098449707 65.40481567382812 C 2.716026782989502 59.73468017578125 1.5 53.71062850952148 1.5 47.5 C 1.5 41.28937149047852 2.716026782989502 35.26533508300781 5.114293098449707 29.59518623352051 C 7.431066513061523 24.11771965026855 10.74804019927979 19.19813346862793 14.97309303283691 14.97309303283691 C 19.19813346862793 10.74804019927979 24.11771965026855 7.431066513061523 29.59518623352051 5.114293098449707 C 35.26533508300781 2.716026782989502 41.28937149047852 1.5 47.5 1.5 C 53.71062850952148 1.5 59.73468017578125 2.716026782989502 65.40481567382812 5.114293098449707 C 70.88229370117188 7.431066513061523 75.80186462402344 10.74804019927979 80.02691650390625 14.97309303283691 C 84.25196075439453 19.19813346862793 87.56893157958984 24.11771965026855 89.88570404052734 29.59518623352051 C 92.28397369384766 35.26533508300781 93.5 41.28937149047852 93.5 47.5 C 93.5 53.71062850952148 92.28397369384766 59.73468017578125 89.88570404052734 65.40481567382812 C 87.56893157958984 70.88229370117188 84.25196075439453 75.80186462402344 80.02691650390625 80.02691650390625 C 75.80186462402344 84.25196075439453 70.88229370117188 87.56893157958984 65.40481567382812 89.88570404052734 C 59.73468017578125 92.28397369384766 53.71062850952148 93.5 47.5 93.5 Z" stroke="none"/>
                        <path d="M 47.5 3 C 41.49121475219727 3 35.66376876831055 4.176155090332031 30.17950439453125 6.495796203613281 C 24.88084411621094 8.736953735351562 20.12152099609375 11.94598388671875 16.03375244140625 16.03375244140625 C 11.94598388671875 20.12152099609375 8.736953735351562 24.88084411621094 6.495796203613281 30.17950439453125 C 4.176155090332031 35.66376876831055 3 41.49121475219727 3 47.5 C 3 53.50878524780273 4.176155090332031 59.33623123168945 6.495796203613281 64.82049560546875 C 8.736953735351562 70.11915588378906 11.94598388671875 74.87847900390625 16.03375244140625 78.96624755859375 C 20.12152099609375 83.05401611328125 24.88084411621094 86.26304626464844 30.17950439453125 88.50419616699219 C 35.66376876831055 90.82384490966797 41.49121475219727 92 47.5 92 C 53.50878524780273 92 59.33623123168945 90.82384490966797 64.82049560546875 88.50419616699219 C 70.11915588378906 86.26304626464844 74.87847900390625 83.05401611328125 78.96624755859375 78.96624755859375 C 83.05401611328125 74.87847900390625 86.26304626464844 70.11915588378906 88.50419616699219 64.82049560546875 C 90.82384490966797 59.33623123168945 92 53.50878524780273 92 47.5 C 92 41.49121475219727 90.82384490966797 35.66376876831055 88.50419616699219 30.17950439453125 C 86.26304626464844 24.88084411621094 83.05401611328125 20.12152099609375 78.96624755859375 16.03375244140625 C 74.87847900390625 11.94598388671875 70.11915588378906 8.736953735351562 64.82049560546875 6.495796203613281 C 59.33623123168945 4.176155090332031 53.50878524780273 3 47.5 3 M 47.5 0 C 73.7335205078125 0 95 21.2664794921875 95 47.5 C 95 73.7335205078125 73.7335205078125 95 47.5 95 C 21.2664794921875 95 0 73.7335205078125 0 47.5 C 0 21.2664794921875 21.2664794921875 0 47.5 0 Z" stroke="none" fill="#f5b104"/>
                      </g>
                    </g>
                  </g>
                </g>
              </g>
            </g>
          </g>
        </g>
      </g>
    </g>
    <g id="analysis_12634752" transform="translate(1225.47 1407.61)">
      <g id="Grupo_1211311" data-name="Grupo 1211311" transform="translate(17.35 16)">
        <path id="Trazado_1056996" data-name="Trazado 1056996" d="M70.394,65.786a2.784,2.784,0,0,1,1.582.789l5.416,5.416a2.8,2.8,0,0,1-3.958,3.958l-5.416-5.416a2.783,2.783,0,0,1-.789-1.582l-2.179-2.179a.463.463,0,0,0-.565-.083,8.916,8.916,0,0,1-.913.428v7.05A3.042,3.042,0,0,1,60.534,77.2H20.387a3.042,3.042,0,0,1-3.037-3.037V26.644a.7.7,0,0,1,.106-.371l.009-.015a.7.7,0,0,1,.1-.116l9.931-9.931a.7.7,0,0,1,.5-.212h32.54a3.042,3.042,0,0,1,3.037,3.037V50.432a8.995,8.995,0,0,1,4.561,12.61.463.463,0,0,0,.083.565l2.179,2.179Z" transform="translate(-17.35 -16)" fill-rule="evenodd"/>
        <path id="Trazado_1056997" data-name="Trazado 1056997" d="M309.426,307.345a2.783,2.783,0,0,1,.683-.5l-1.477-1.477a1.864,1.864,0,0,1-.324-2.218,7.585,7.585,0,1,0-3.078,3.078,1.863,1.863,0,0,1,2.218.324l1.477,1.477a2.785,2.785,0,0,1,.5-.683Zm-11.879-11.879a5.769,5.769,0,1,1,0,8.158A5.769,5.769,0,0,1,297.547,295.466Z" transform="translate(-258.758 -256.77)" fill="#24809d" fill-rule="evenodd"/>
        <path id="Trazado_1056998" data-name="Trazado 1056998" d="M71.761,77.142a8.99,8.99,0,1,1,0-17.552V28.628a1.639,1.639,0,0,0-1.635-1.635H38.286V33.9a3.042,3.042,0,0,1-3.037,3.037H28.343V83.759a1.639,1.639,0,0,0,1.635,1.635H70.126a1.639,1.639,0,0,0,1.635-1.635V77.142ZM38.243,83.757a.7.7,0,1,1,0-1.4h23.2a.7.7,0,1,1,0,1.4Zm0-3.422a.7.7,0,1,1,0-1.4h23.2a.7.7,0,1,1,0,1.4Zm0-3.486a.7.7,0,1,1,0-1.4h16.5a.7.7,0,1,1,0,1.4Zm0-3.422a.7.7,0,1,1,0-1.4h16.5a.7.7,0,1,1,0,1.4Zm28.592,6.137a.7.7,0,0,1,1.035.942l-2.377,2.62a.7.7,0,0,1-1.054-.022l-1.3-1.553a.7.7,0,1,1,1.073-.9l.783.937,1.838-2.025Zm-7.159-6.908a.7.7,0,1,1,1.035.942l-2.377,2.62A.7.7,0,0,1,57.28,76.2l-1.3-1.553a.7.7,0,1,1,1.073-.9l.783.937,1.838-2.025ZM31.409,78.486h4.318a.7.7,0,0,1,.7.7V83.5a.7.7,0,0,1-.7.7H31.409a.7.7,0,0,1-.7-.7V79.187A.7.7,0,0,1,31.409,78.486Zm0-6.908h4.318a.7.7,0,0,1,.7.7V76.6a.7.7,0,0,1-.7.7H31.409a.7.7,0,0,1-.7-.7V72.279A.7.7,0,0,1,31.409,71.579ZM37.932,44.16a12.39,12.39,0,0,1,1.426-3.436L38,39.37a.7.7,0,0,1-.205-.5V37.322a.7.7,0,0,1,.212-.5l1.7-1.7a.7.7,0,0,1,.5-.205h1.552a.7.7,0,0,1,.5.212l1.349,1.349a12.394,12.394,0,0,1,3.436-1.425V33.133a.7.7,0,0,1,.212-.5l1.091-1.091a.7.7,0,0,1,.5-.205H51.26a.7.7,0,0,1,.5.212l1.091,1.091a.7.7,0,0,1,.205.5v1.914a12.4,12.4,0,0,1,3.436,1.425l1.355-1.355a.7.7,0,0,1,.5-.205H59.9a.7.7,0,0,1,.5.212l1.7,1.7a.7.7,0,0,1,.2.556v1.492a.7.7,0,0,1-.2.494l-1.353,1.357a12.394,12.394,0,0,1,1.425,3.436h1.914a.7.7,0,0,1,.5.212l1.091,1.091a.7.7,0,0,1,.205.5v2.416a.7.7,0,0,1-.212.5l-1.091,1.091a.7.7,0,0,1-.5.205H62.172a12.393,12.393,0,0,1-1.426,3.436L62.1,54.964a.7.7,0,0,1,.205.5v1.552a.7.7,0,0,1-.212.5l-1.7,1.7a.7.7,0,0,1-.556.2H58.344a.7.7,0,0,1-.494-.2l-1.356-1.353a12.26,12.26,0,0,1-1.856.92,16.432,16.432,0,0,0,1.231,2.586,2.816,2.816,0,0,1,.395,1.457v1.2a1.977,1.977,0,0,1,1.186,2.427,1.979,1.979,0,0,1,1.8,1.967v1.274a.7.7,0,0,1-.7.7H41.557a.7.7,0,0,1-.7-.7V68.416a1.979,1.979,0,0,1,1.8-1.967,1.977,1.977,0,0,1,1.186-2.427,8.658,8.658,0,0,1,.1-1.951,2.875,2.875,0,0,1,.3-.7,16.443,16.443,0,0,0,1.231-2.586,12.266,12.266,0,0,1-1.855-.92l-1.355,1.355a.7.7,0,0,1-.5.205H40.206a.7.7,0,0,1-.5-.212l-1.7-1.7a.7.7,0,0,1-.205-.5V55.46a.7.7,0,0,1,.212-.5l1.349-1.349a12.4,12.4,0,0,1-1.425-3.436H36.018a.7.7,0,0,1-.5-.212l-1.091-1.091a.7.7,0,0,1-.205-.5V45.959a.7.7,0,0,1,.212-.5l1.091-1.091a.7.7,0,0,1,.5-.205h1.914Z" transform="translate(-26.941 -25.591)" fill="#fff" fill-rule="evenodd"/>
        <path id="Trazado_1056999" data-name="Trazado 1056999" d="M162.474,327.381H151.451a.573.573,0,0,0,0,1.146h11.023a.573.573,0,0,0,0-1.146Z" transform="translate(-133.852 -287.677)" fill="#a7afba" fill-rule="evenodd"/>
        <path id="Trazado_1057000" data-name="Trazado 1057000" d="M174.706,205.486H167.87a.573.573,0,0,0,0,1.146h6.836a.573.573,0,0,0,0-1.146Z" transform="translate(-148.178 -181.325)" fill="#a7afba" fill-rule="evenodd"/>
        <path id="Trazado_1057001" data-name="Trazado 1057001" d="M166.863,175.819h.754c.473,0,.965-.3.965-.74V173.09h-1.219v.818a.7.7,0,0,1-.7.7h-1.907a.7.7,0,0,1-.7-.7v-.818h-1.219v.818a.7.7,0,0,1-.7.7h-1.907a.7.7,0,0,1-.7-.7v-.818h-1.219v1.989c0,.444.492.74.965.74Z" transform="translate(-140.335 -153.06)" fill="#fba23d" fill-rule="evenodd"/>
        <path id="Trazado_1057002" data-name="Trazado 1057002" d="M152.49,347.36H138.049a.576.576,0,0,0-.573.573v.573h15.587v-.573A.576.576,0,0,0,152.49,347.36Z" transform="translate(-122.159 -305.109)" fill="#535b63" fill-rule="evenodd"/>
        <path id="Trazado_1057003" data-name="Trazado 1057003" d="M43.666,34.764l-7.551,7.551h5.916a1.639,1.639,0,0,0,1.635-1.635Z" transform="translate(-33.722 -32.371)" fill="#204a5d" fill-rule="evenodd"/>
        <path id="Trazado_1057004" data-name="Trazado 1057004" d="M163.063,230.147a16.082,16.082,0,0,1-1.992,5.092,1.381,1.381,0,0,0-.2.751v1.069h9.621a8.79,8.79,0,0,0-.048-1.461,1.473,1.473,0,0,0-.155-.359,15.724,15.724,0,0,1-2.215-9.774h-4.786a15.209,15.209,0,0,1-.223,4.682Z" transform="translate(-142.568 -198.757)" fill="#b88858" fill-rule="evenodd"/>
        <path id="Trazado_1057005" data-name="Trazado 1057005" d="M141.109,138.364a15.259,15.259,0,0,0-.091-1.831A1.977,1.977,0,0,1,139.6,133.8a2.134,2.134,0,0,1-1.315-1.917v-2.69a.7.7,0,0,1,.7-.7h2.621a.7.7,0,0,1,.7.7v.818h.505v-.818a.7.7,0,0,1,.7-.7h2.621a.7.7,0,0,1,.7.7v.818h.505v-.818a.7.7,0,0,1,.7-.7h2.621a.7.7,0,0,1,.7.7v2.69a2.134,2.134,0,0,1-1.315,1.917,1.977,1.977,0,0,1-1.421,2.734,14.178,14.178,0,0,0-.1,1.836,7.859,7.859,0,1,0-7.424-.007Z" transform="translate(-121.717 -109.864)" fill="#204a5d" fill-rule="evenodd"/>
        <path id="Trazado_1057006" data-name="Trazado 1057006" d="M95.867,96q.109-.544.174-1.1a9.26,9.26,0,1,1,7.624,0,13.866,13.866,0,0,0,.354,1.835,11.349,11.349,0,0,0,1.946-1.024.7.7,0,0,1,.928.055l1.548,1.548h.967l1.3-1.3v-.972L109.164,93.5a.7.7,0,0,1-.055-.929,11.031,11.031,0,0,0,1.613-3.907.7.7,0,0,1,.693-.6H113.6l.687-.687V85.544l-.687-.687h-2.184a.7.7,0,0,1-.693-.6,11.033,11.033,0,0,0-1.613-3.906.7.7,0,0,1,.055-.929l1.548-1.548V76.91l-1.3-1.3h-.972l-1.545,1.545a.7.7,0,0,1-.929.055,11.033,11.033,0,0,0-3.907-1.613.7.7,0,0,1-.6-.693V72.719l-.687-.687H98.938l-.687.687V74.9a.7.7,0,0,1-.6.693,11.033,11.033,0,0,0-3.907,1.613.7.7,0,0,1-.929-.055l-1.545-1.545H90.3l-1.3,1.3v.972l1.545,1.545a.7.7,0,0,1,.055.929,11.032,11.032,0,0,0-1.613,3.907.7.7,0,0,1-.693.6H86.113l-.687.687v1.836l.687.687H88.3a.7.7,0,0,1,.693.6A11.033,11.033,0,0,0,90.6,92.572a.7.7,0,0,1-.055.929L89,95.046v.972l1.3,1.3h.972l1.545-1.545a.7.7,0,0,1,.928-.055,11.357,11.357,0,0,0,1.946,1.024L95.867,96Z" transform="translate(-76.746 -64.887)" fill="#24809d" fill-rule="evenodd"/>
        <path id="Trazado_1057007" data-name="Trazado 1057007" d="M323.666,317.218a4.367,4.367,0,1,0,4.367,4.367A4.367,4.367,0,0,0,323.666,317.218Zm1.32,2.587a.7.7,0,1,1,1.035.942l-2.377,2.62a.7.7,0,0,1-1.054-.022l-1.3-1.553a.7.7,0,1,1,1.073-.9l.783.937,1.838-2.025Z" transform="translate(-280.798 -278.81)" fill="#e9e5dc" fill-rule="evenodd"/>
        <path id="Trazado_1057008" data-name="Trazado 1057008" d="M420.691,417.222a1.4,1.4,0,0,0-.988,2.383l5.416,5.416a1.4,1.4,0,0,0,1.976-1.976l-5.416-5.416A1.393,1.393,0,0,0,420.691,417.222Z" transform="translate(-368.043 -366.063)" fill="#535b63" fill-rule="evenodd"/>
      </g>
      <path id="Trazado_1057009" data-name="Trazado 1057009" d="M57.884,441.826H60.8v2.916H57.884Z" transform="translate(-35.366 -371.53)" fill="#f3585c"/>
      <path id="Trazado_1057010" data-name="Trazado 1057010" d="M57.884,387.652H60.8v2.916H57.884Z" transform="translate(-35.366 -324.263)" fill="#f3585c"/>
    </g>
  </g>
</svg>
