<svg xmlns="http://www.w3.org/2000/svg" xmlns:xlink="http://www.w3.org/1999/xlink" width="113" height="113" viewBox="0 0 113 113">
  <defs>
    <filter id="Trazado_982547" x="0" y="0" width="113" height="113" filterUnits="userSpaceOnUse">
      <feOffset dy="3" input="SourceAlpha"/>
      <feGaussianBlur stdDeviation="3" result="blur"/>
      <feFlood flood-opacity="0.161"/>
      <feComposite operator="in" in2="blur"/>
      <feComposite in="SourceGraphic"/>
    </filter>
  </defs>
  <g id="Grupo_1211314" data-name="Grupo 1211314" transform="translate(-324.771 -2102.712)">
    <g id="Grupo_1210969" data-name="Grupo 1210969" transform="translate(333.771 2108.712)">
      <g id="Grupo_1210937" data-name="Grupo 1210937" transform="translate(0 0)">
        <g id="Grupo_1174742" data-name="Grupo 1174742">
          <g id="Grupo_1163948" data-name="Grupo 1163948">
            <g id="Grupo_1158168" data-name="Grupo 1158168" transform="translate(0)">
              <g id="Grupo_1152576" data-name="Grupo 1152576">
                <g id="Grupo_1148633" data-name="Grupo 1148633">
                  <g id="Grupo_1148525" data-name="Grupo 1148525">
                    <g transform="matrix(1, 0, 0, 1, -9, -6)" filter="url(#Trazado_982547)">
                      <g id="Trazado_982547-2" data-name="Trazado 982547" transform="translate(9 6)" fill="#fdf6e4">
                        <path d="M 47.5 93.5 C 41.28937149047852 93.5 35.26533508300781 92.28397369384766 29.59518623352051 89.88570404052734 C 24.11771965026855 87.56893157958984 19.19813346862793 84.25196075439453 14.97309303283691 80.02691650390625 C 10.74804019927979 75.80186462402344 7.431066513061523 70.88229370117188 5.114293098449707 65.40481567382812 C 2.716026782989502 59.73468017578125 1.5 53.71062850952148 1.5 47.5 C 1.5 41.28937149047852 2.716026782989502 35.26533508300781 5.114293098449707 29.59518623352051 C 7.431066513061523 24.11771965026855 10.74804019927979 19.19813346862793 14.97309303283691 14.97309303283691 C 19.19813346862793 10.74804019927979 24.11771965026855 7.431066513061523 29.59518623352051 5.114293098449707 C 35.26533508300781 2.716026782989502 41.28937149047852 1.5 47.5 1.5 C 53.71062850952148 1.5 59.73468017578125 2.716026782989502 65.40481567382812 5.114293098449707 C 70.88229370117188 7.431066513061523 75.80186462402344 10.74804019927979 80.02691650390625 14.97309303283691 C 84.25196075439453 19.19813346862793 87.56893157958984 24.11771965026855 89.88570404052734 29.59518623352051 C 92.28397369384766 35.26533508300781 93.5 41.28937149047852 93.5 47.5 C 93.5 53.71062850952148 92.28397369384766 59.73468017578125 89.88570404052734 65.40481567382812 C 87.56893157958984 70.88229370117188 84.25196075439453 75.80186462402344 80.02691650390625 80.02691650390625 C 75.80186462402344 84.25196075439453 70.88229370117188 87.56893157958984 65.40481567382812 89.88570404052734 C 59.73468017578125 92.28397369384766 53.71062850952148 93.5 47.5 93.5 Z" stroke="none"/>
                        <path d="M 47.5 3 C 41.49121475219727 3 35.66376876831055 4.176155090332031 30.17950439453125 6.495796203613281 C 24.88084411621094 8.736953735351562 20.12152099609375 11.94598388671875 16.03375244140625 16.03375244140625 C 11.94598388671875 20.12152099609375 8.736953735351562 24.88084411621094 6.495796203613281 30.17950439453125 C 4.176155090332031 35.66376876831055 3 41.49121475219727 3 47.5 C 3 53.50878524780273 4.176155090332031 59.33623123168945 6.495796203613281 64.82049560546875 C 8.736953735351562 70.11915588378906 11.94598388671875 74.87847900390625 16.03375244140625 78.96624755859375 C 20.12152099609375 83.05401611328125 24.88084411621094 86.26304626464844 30.17950439453125 88.50419616699219 C 35.66376876831055 90.82384490966797 41.49121475219727 92 47.5 92 C 53.50878524780273 92 59.33623123168945 90.82384490966797 64.82049560546875 88.50419616699219 C 70.11915588378906 86.26304626464844 74.87847900390625 83.05401611328125 78.96624755859375 78.96624755859375 C 83.05401611328125 74.87847900390625 86.26304626464844 70.11915588378906 88.50419616699219 64.82049560546875 C 90.82384490966797 59.33623123168945 92 53.50878524780273 92 47.5 C 92 41.49121475219727 90.82384490966797 35.66376876831055 88.50419616699219 30.17950439453125 C 86.26304626464844 24.88084411621094 83.05401611328125 20.12152099609375 78.96624755859375 16.03375244140625 C 74.87847900390625 11.94598388671875 70.11915588378906 8.736953735351562 64.82049560546875 6.495796203613281 C 59.33623123168945 4.176155090332031 53.50878524780273 3 47.5 3 M 47.5 0 C 73.7335205078125 0 95 21.2664794921875 95 47.5 C 95 73.7335205078125 73.7335205078125 95 47.5 95 C 21.2664794921875 95 0 73.7335205078125 0 47.5 C 0 21.2664794921875 21.2664794921875 0 47.5 0 Z" stroke="none" fill="#f5b104"/>
                      </g>
                    </g>
                  </g>
                </g>
              </g>
            </g>
          </g>
        </g>
      </g>
    </g>
    <g id="question_18835602" transform="translate(343.262 2124.014)">
      <path id="Trazado_1057019" data-name="Trazado 1057019" d="M16.643,341.243H50.3v-9.4a10.756,10.756,0,0,0-10.737-10.737H27.38a10.756,10.756,0,0,0-10.737,10.737Z" transform="translate(-7.029 -281.86)" fill="#60b7ff" fill-rule="evenodd"/>
      <path id="Trazado_1057020" data-name="Trazado 1057020" d="M122.233,271.817h7.825v10.005h-7.825Z" transform="translate(-99.705 -238.594)" fill="#ff965a"/>
      <g id="Grupo_1211317" data-name="Grupo 1211317" transform="translate(15.681 0.957)">
        <path id="Trazado_1057021" data-name="Trazado 1057021" d="M68.766,199.7H85.247a2.517,2.517,0,1,1,0,5.034H68.766a2.517,2.517,0,0,1,0-5.034Z" transform="translate(-66.249 -176.255)" fill="#ff965a" fill-rule="evenodd"/>
        <path id="Trazado_1057022" data-name="Trazado 1057022" d="M88.217,141.339h16.145v11.326a8.073,8.073,0,0,1-16.145,0Z" transform="translate(-85.53 -125.031)" fill="#ffbe82" fill-rule="evenodd"/>
        <path id="Trazado_1057023" data-name="Trazado 1057023" d="M73.02,103.12h.17V98.551a2.574,2.574,0,0,1,2.568-2.568H86.765a2.577,2.577,0,0,1,2.568,2.568v4.569l1.432-4.968a6.473,6.473,0,0,0,.454-3.158c-.17-1.941-.849-3.99-3.363-4.018a2.6,2.6,0,0,0-2.094.974c-.128.159-.26.319-.385.489-.038-.194-.083-.381-.128-.562A2.793,2.793,0,0,0,82.6,89.662H77.216c-3.283,0-6.909,3.148-5.97,6.729Z" transform="translate(-70.503 -79.675)" fill="#58595b" fill-rule="evenodd"/>
        <path id="Trazado_1057024" data-name="Trazado 1057024" d="M136.8,370.768l2.052,1.248,2.049-1.248-.846-17.143h-2.406Z" transform="translate(-128.174 -311.355)" fill="#dc1428" fill-rule="evenodd"/>
        <path id="Trazado_1057025" data-name="Trazado 1057025" d="M158.639,321.112l-4.431,3.976,4.573,4.16,3.463-7.96a10.6,10.6,0,0,0-1.945-.177Z" transform="translate(-143.451 -282.818)" fill="#27a2cc" fill-rule="evenodd"/>
        <path id="Trazado_1057026" data-name="Trazado 1057026" d="M92.135,321.112l4.427,3.976-4.569,4.16-3.464-7.96a10.578,10.578,0,0,1,1.945-.177Z" transform="translate(-85.804 -282.818)" fill="#27a2cc" fill-rule="evenodd"/>
        <path id="Trazado_1057027" data-name="Trazado 1057027" d="M271.208,8a13.023,13.023,0,0,1,13.021,13.019c0,8.26-5.578,6.7-6.923,18.879H265.023c-1.334-12.109-6.84-10.754-6.84-18.877A13.023,13.023,0,0,1,271.2,8Z" transform="translate(-234.709 -8)" fill="#fdbf00" fill-rule="evenodd"/>
        <path id="Trazado_1057028" data-name="Trazado 1057028" d="M264.432,241.627l23.994,2.811a2.343,2.343,0,0,1,2.222,2.222v11.285a2.227,2.227,0,0,1-2.222,2.222h-3.131l-.43,4.729-6.157-4.729H264.345a2.22,2.22,0,0,1-2.222-2.222l.087-14.1a2.15,2.15,0,0,1,2.222-2.222Z" transform="translate(-238.167 -213.043)" fill="#d7d0d6" fill-rule="evenodd"/>
      </g>
      <path id="Trazado_1057029" data-name="Trazado 1057029" d="M53.278,17.3a.14.14,0,0,0-.122.142v3.7a.979.979,0,1,1-1.959,0v-3.7a2.108,2.108,0,0,1,1.7-2.064,3.724,3.724,0,1,0-4.446-3.657.979.979,0,1,1-1.959,0A5.682,5.682,0,1,1,53.277,17.3Zm-1.1,5.985a.979.979,0,0,0-.979.979v.045a.979.979,0,0,0,1.959,0v-.045a.979.979,0,0,0-.98-.98ZM69.142,34.575V45.859a3.205,3.205,0,0,1-3.2,3.2H63.7L63.355,52.9a.979.979,0,0,1-1.572.688L55.89,49.061H44.208c.024.308.039.616.039.924v9.4a.979.979,0,0,1-.979.979H29.389a.978.978,0,0,1-.468.845l-2.049,1.247a.979.979,0,0,1-1.018,0L23.8,61.208a.978.978,0,0,1-.469-.845H9.614a.979.979,0,0,1-.979-.979v-9.4A11.729,11.729,0,0,1,20.352,38.268h1.194V36.2a9.071,9.071,0,0,1-3.982-5.841,3.5,3.5,0,0,1-.578-6.72L15.48,17.92a5.706,5.706,0,0,1,1.1-5.013A7.637,7.637,0,0,1,22.4,9.965h5.387A3.646,3.646,0,0,1,30.964,11.9a3.566,3.566,0,0,1,2.076-.617c1.784.02,3.982.888,4.334,4.912a6.448,6.448,0,0,1-.337,3c-.046.155-.1.325-.152.516l-1.121,3.887a3.5,3.5,0,0,1-.447,6.763A9.071,9.071,0,0,1,31.332,36.2v2.069h1.2a11.661,11.661,0,0,1,6.16,1.761l.054-8.276a3.374,3.374,0,0,1,1.119-2.472,2.8,2.8,0,0,1,2.2-.713l2.23.261a18.477,18.477,0,0,0-3.279-6.717,12.189,12.189,0,0,1-2.835-8.134,14,14,0,1,1,28,0A12.033,12.033,0,0,1,63.3,22.166a18.2,18.2,0,0,0-3.706,8.456l6.464.757a3.289,3.289,0,0,1,3.088,3.195Zm-22.776-5.5,11.276,1.321a20.175,20.175,0,0,1,4.07-9.379,10.161,10.161,0,0,0,2.511-7.036,12.044,12.044,0,0,0-24.088,0,10.312,10.312,0,0,0,2.474,7,20.164,20.164,0,0,1,3.756,8.094Zm-10.873-.85a1.536,1.536,0,0,0,0-2.608Zm-18.1-2.61a1.536,1.536,0,0,0,0,2.612Zm3.548-9.326h11a3.557,3.557,0,0,1,3.273,2.17,4.38,4.38,0,0,0,.21-2.094c-.239-2.732-1.348-3.112-2.4-3.124a1.612,1.612,0,0,0-1.329.625c-.115.136-.229.28-.352.443a.979.979,0,0,1-1.744-.4c-.031-.157-.071-.323-.117-.5a1.818,1.818,0,0,0-1.7-1.491H22.4A5.69,5.69,0,0,0,18.135,14.1a3.774,3.774,0,0,0-.762,3.319l.281,1.066a3.554,3.554,0,0,1,3.283-2.2Zm2.015,18.477a.963.963,0,0,1,.122.069,7.082,7.082,0,0,0,6.725,0,.977.977,0,0,1,.136-.077,7.093,7.093,0,0,0,3.6-6.166V19.834a1.593,1.593,0,0,0-1.593-1.59h-11a1.591,1.591,0,0,0-1.59,1.59v8.757a7.1,7.1,0,0,0,3.605,6.172Zm3.486,2.879a9.011,9.011,0,0,1-2.937-.492v2.126l2.935,2.636,2.935-2.636V37.15a9.011,9.011,0,0,1-2.935.491ZM24,46.768l-1.476,1.344a.979.979,0,0,1-1.557-.333L17.83,40.559a9.774,9.774,0,0,0-7.237,9.425V58.4h5.149V52.1a.979.979,0,0,1,1.959,0V58.4h5.727Zm.974-3.536-3.346-3.005H20.351c-.176,0-.35.005-.523.014l2.394,5.5ZM27.4,59.838l-.745-15.086-.22-.2-.38.346-.742,14.939,1.045.635Zm.882-16.253,2.373,2.158,2.393-5.5c-.174-.009-.348-.015-.522-.015H31.244L27.9,43.232l.365.332.023.021Zm13.956,5.476h-.387a3.206,3.206,0,0,1-3.2-3.206l.022-3.433a9.729,9.729,0,0,0-3.626-1.859l-3.14,7.217a.979.979,0,0,1-1.557.334l-1.64-1.492L29.295,58.4h5.883V52.1a.979.979,0,0,1,1.959,0V58.4h5.152V49.985c0-.308-.016-.616-.046-.924ZM67.183,34.575a1.385,1.385,0,0,0-1.365-1.251L45.461,30.939l-.023,0-3.607-.423a.779.779,0,0,0-.09-.005.887.887,0,0,0-.581.24,1.406,1.406,0,0,0-.458,1.017l-.09,14.1a1.213,1.213,0,0,0,.36.866,1.239,1.239,0,0,0,.883.371H56.222a.978.978,0,0,1,.6.2l4.746,3.645.269-2.957a.979.979,0,0,1,.975-.891H65.94a1.244,1.244,0,0,0,1.243-1.243ZM45.257,38.05H56.711a.979.979,0,1,0,0-1.959H45.257a.979.979,0,1,0,0,1.959Zm2.288,2.461H45.257a.979.979,0,0,0,0,1.959h2.288a.979.979,0,0,0,0-1.959Zm15,0H51.088a.979.979,0,0,0,0,1.959H62.542a.979.979,0,0,0,0-1.959Zm0-4.42H60.251a.979.979,0,1,0,0,1.959h2.292a.979.979,0,1,0,0-1.959Z"/>
    </g>
  </g>
</svg>
