<svg xmlns="http://www.w3.org/2000/svg" xmlns:xlink="http://www.w3.org/1999/xlink" width="113" height="113" viewBox="0 0 113 113">
  <defs>
    <filter id="Trazado_982547" x="0" y="0" width="113" height="113" filterUnits="userSpaceOnUse">
      <feOffset dy="3" input="SourceAlpha"/>
      <feGaussianBlur stdDeviation="3" result="blur"/>
      <feFlood flood-opacity="0.161"/>
      <feComposite operator="in" in2="blur"/>
      <feComposite in="SourceGraphic"/>
    </filter>
  </defs>
  <g id="Grupo_1210959" data-name="Grupo 1210959" transform="translate(-271.75 -1447.837)">
    <g id="Grupo_1210937" data-name="Grupo 1210937" transform="translate(15.75 621.587)">
      <g id="Grupo_1174742" data-name="Grupo 1174742" transform="translate(-16 -280.75)">
        <g id="Grupo_1163948" data-name="Grupo 1163948" transform="translate(0 -1371)">
          <g id="Grupo_1158168" data-name="Grupo 1158168" transform="translate(281 2484)">
            <g id="Grupo_1152576" data-name="Grupo 1152576" transform="translate(0)">
              <g id="Grupo_1148633" data-name="Grupo 1148633">
                <g id="Grupo_1148525" data-name="Grupo 1148525">
                  <g transform="matrix(1, 0, 0, 1, -9, -6)" filter="url(#Trazado_982547)">
                    <g id="Trazado_982547-2" data-name="Trazado 982547" transform="translate(9 6)" fill="#fdf6e4">
                      <path d="M 47.5 93.5 C 41.28937149047852 93.5 35.26533508300781 92.28397369384766 29.59518623352051 89.88570404052734 C 24.11771965026855 87.56893157958984 19.19813346862793 84.25196075439453 14.97309303283691 80.02691650390625 C 10.74804019927979 75.80186462402344 7.431066513061523 70.88229370117188 5.114293098449707 65.40481567382812 C 2.716026782989502 59.73468017578125 1.5 53.71062850952148 1.5 47.5 C 1.5 41.28937149047852 2.716026782989502 35.26533508300781 5.114293098449707 29.59518623352051 C 7.431066513061523 24.11771965026855 10.74804019927979 19.19813346862793 14.97309303283691 14.97309303283691 C 19.19813346862793 10.74804019927979 24.11771965026855 7.431066513061523 29.59518623352051 5.114293098449707 C 35.26533508300781 2.716026782989502 41.28937149047852 1.5 47.5 1.5 C 53.71062850952148 1.5 59.73468017578125 2.716026782989502 65.40481567382812 5.114293098449707 C 70.88229370117188 7.431066513061523 75.80186462402344 10.74804019927979 80.02691650390625 14.97309303283691 C 84.25196075439453 19.19813346862793 87.56893157958984 24.11771965026855 89.88570404052734 29.59518623352051 C 92.28397369384766 35.26533508300781 93.5 41.28937149047852 93.5 47.5 C 93.5 53.71062850952148 92.28397369384766 59.73468017578125 89.88570404052734 65.40481567382812 C 87.56893157958984 70.88229370117188 84.25196075439453 75.80186462402344 80.02691650390625 80.02691650390625 C 75.80186462402344 84.25196075439453 70.88229370117188 87.56893157958984 65.40481567382812 89.88570404052734 C 59.73468017578125 92.28397369384766 53.71062850952148 93.5 47.5 93.5 Z" stroke="none"/>
                      <path d="M 47.5 3 C 41.49121475219727 3 35.66376876831055 4.176155090332031 30.17950439453125 6.495796203613281 C 24.88084411621094 8.736953735351562 20.12152099609375 11.94598388671875 16.03375244140625 16.03375244140625 C 11.94598388671875 20.12152099609375 8.736953735351562 24.88084411621094 6.495796203613281 30.17950439453125 C 4.176155090332031 35.66376876831055 3 41.49121475219727 3 47.5 C 3 53.50878524780273 4.176155090332031 59.33623123168945 6.495796203613281 64.82049560546875 C 8.736953735351562 70.11915588378906 11.94598388671875 74.87847900390625 16.03375244140625 78.96624755859375 C 20.12152099609375 83.05401611328125 24.88084411621094 86.26304626464844 30.17950439453125 88.50419616699219 C 35.66376876831055 90.82384490966797 41.49121475219727 92 47.5 92 C 53.50878524780273 92 59.33623123168945 90.82384490966797 64.82049560546875 88.50419616699219 C 70.11915588378906 86.26304626464844 74.87847900390625 83.05401611328125 78.96624755859375 78.96624755859375 C 83.05401611328125 74.87847900390625 86.26304626464844 70.11915588378906 88.50419616699219 64.82049560546875 C 90.82384490966797 59.33623123168945 92 53.50878524780273 92 47.5 C 92 41.49121475219727 90.82384490966797 35.66376876831055 88.50419616699219 30.17950439453125 C 86.26304626464844 24.88084411621094 83.05401611328125 20.12152099609375 78.96624755859375 16.03375244140625 C 74.87847900390625 11.94598388671875 70.11915588378906 8.736953735351562 64.82049560546875 6.495796203613281 C 59.33623123168945 4.176155090332031 53.50878524780273 3 47.5 3 M 47.5 0 C 73.7335205078125 0 95 21.2664794921875 95 47.5 C 95 73.7335205078125 73.7335205078125 95 47.5 95 C 21.2664794921875 95 0 73.7335205078125 0 47.5 C 0 21.2664794921875 21.2664794921875 0 47.5 0 Z" stroke="none" fill="#f5b104"/>
                    </g>
                  </g>
                </g>
              </g>
            </g>
          </g>
        </g>
      </g>
    </g>
    <g id="diagram_4394629_1_" data-name="diagram_4394629 (1)" transform="translate(300.382 1472.372)">
      <g id="Grupo_1210942" data-name="Grupo 1210942" transform="translate(1.302 30.333)">
        <path id="Trazado_1056594" data-name="Trazado 1056594" d="M35.153,284.452V263.96a1.354,1.354,0,0,0-1.35-1.35H27.894l-3.186-2.738a1.571,1.571,0,0,0-2.168-.119L19.22,262.61H13.311a1.354,1.354,0,0,0-1.35,1.35v20.492a1.354,1.354,0,0,0,1.35,1.35H33.8A1.354,1.354,0,0,0,35.153,284.452Z" transform="translate(-11.961 -259.375)" fill="#a7e9a6" fill-rule="evenodd"/>
      </g>
      <g id="Grupo_1210943" data-name="Grupo 1210943" transform="translate(6.596 38.812)">
        <path id="Trazado_1056595" data-name="Trazado 1056595" d="M72.471,341.72a.731.731,0,0,0,.727-.727v-3a.731.731,0,0,0-.727-.727H61.322A.729.729,0,0,0,60.6,338v3a.729.729,0,0,0,.727.727Z" transform="translate(-60.595 -337.271)" fill="#375e7d" fill-rule="evenodd"/>
      </g>
      <g id="Grupo_1210944" data-name="Grupo 1210944" transform="translate(28.49 33.568)">
        <path id="Trazado_1056596" data-name="Trazado 1056596" d="M288.15,310.938V290.446a1.354,1.354,0,0,0-1.35-1.35H266.308a1.354,1.354,0,0,0-1.35,1.35v5.908l-2.741,3.186a1.567,1.567,0,0,0-.116,2.165l2.857,3.324v5.909a1.354,1.354,0,0,0,1.35,1.35H286.8A1.354,1.354,0,0,0,288.15,310.938Z" transform="translate(-261.722 -289.096)" fill="#eb5468" fill-rule="evenodd"/>
      </g>
      <g id="Grupo_1210945" data-name="Grupo 1210945" transform="translate(37.166 39.044)">
        <path id="Trazado_1056597" data-name="Trazado 1056597" d="M341.414,340.128v3a.729.729,0,0,0,.727.727h11.146a.729.729,0,0,0,.727-.727v-3a.729.729,0,0,0-.727-.727H342.141a.729.729,0,0,0-.727.727Z" transform="translate(-341.414 -339.401)" fill="#375e7d" fill-rule="evenodd"/>
      </g>
      <g id="Grupo_1210946" data-name="Grupo 1210946" transform="translate(31.727 3.17)">
        <path id="Trazado_1056598" data-name="Trazado 1056598" d="M292.805,33.045h5.908l3.321,2.857a1.571,1.571,0,0,0,2.168-.119l3.186-2.738H313.3a1.354,1.354,0,0,0,1.35-1.35V11.2a1.354,1.354,0,0,0-1.35-1.35H292.805a1.354,1.354,0,0,0-1.35,1.35V31.695A1.354,1.354,0,0,0,292.805,33.045Z" transform="translate(-291.455 -9.853)" fill="#b1e4f9" fill-rule="evenodd"/>
      </g>
      <g id="Grupo_1210947" data-name="Grupo 1210947" transform="translate(0.816 3.17)">
        <path id="Trazado_1056599" data-name="Trazado 1056599" d="M33.549,22.463A1.567,1.567,0,0,0,33.43,20.3l-2.738-3.186V11.2a1.354,1.354,0,0,0-1.35-1.35H8.85A1.354,1.354,0,0,0,7.5,11.2V31.695a1.354,1.354,0,0,0,1.35,1.35H29.341a1.354,1.354,0,0,0,1.35-1.35V25.787Z" transform="translate(-7.5 -9.853)" fill="#ffc269" fill-rule="evenodd"/>
      </g>
      <g id="Grupo_1210948" data-name="Grupo 1210948" transform="translate(6.089 8.875)">
        <path id="Trazado_1056600" data-name="Trazado 1056600" d="M68.536,65.981v-3a.732.732,0,0,0-.73-.727H56.66a.729.729,0,0,0-.727.727v3a.729.729,0,0,0,.727.727H67.806a.732.732,0,0,0,.73-.727Z" transform="translate(-55.933 -62.259)" fill="#375e7d" fill-rule="evenodd"/>
      </g>
      <g id="Grupo_1210949" data-name="Grupo 1210949" transform="translate(37.075 8.722)">
        <path id="Trazado_1056601" data-name="Trazado 1056601" d="M341.306,65.295h11.146a.727.727,0,0,0,.727-.727V61.576a.727.727,0,0,0-.727-.727H341.306a.727.727,0,0,0-.727.727v2.992A.727.727,0,0,0,341.306,65.295Z" transform="translate(-340.579 -60.849)" fill="#375e7d" fill-rule="evenodd"/>
      </g>
      <g id="Grupo_1210950" data-name="Grupo 1210950" transform="translate(14.369 8.875)">
        <path id="Trazado_1056602" data-name="Trazado 1056602" d="M135.587,62.26h-3.593a31.338,31.338,0,0,1,.589,4.449h3a.732.732,0,0,0,.73-.727v-3A.732.732,0,0,0,135.587,62.26Z" transform="translate(-131.994 -62.26)" fill="#2b4d66" fill-rule="evenodd"/>
      </g>
      <g id="Grupo_1210951" data-name="Grupo 1210951" transform="translate(12.505 3.17)">
        <path id="Trazado_1056603" data-name="Trazado 1056603" d="M120.33,20.006h-3q.061.991.063,2.008c0,.539-.013,1.071-.038,1.6a31.426,31.426,0,0,1-.379,3.59,27.6,27.6,0,0,1-1.61,5.84h9.665a1.354,1.354,0,0,0,1.35-1.35V25.787l2.857-3.324a1.567,1.567,0,0,0-.119-2.165l-2.738-3.186V11.2a1.354,1.354,0,0,0-1.35-1.35H114.873a26.26,26.26,0,0,1,1.864,5.7h3.593a.732.732,0,0,1,.73.727v3A.732.732,0,0,1,120.33,20.006Z" transform="translate(-114.873 -9.853)" fill="#ffa95f" fill-rule="evenodd"/>
      </g>
      <g id="Grupo_1210952" data-name="Grupo 1210952" transform="translate(43.807 8.722)">
        <path id="Trazado_1056604" data-name="Trazado 1056604" d="M402.424,60.849a29.427,29.427,0,0,1,.946,4.445h4.195a.727.727,0,0,0,.727-.727V61.576a.727.727,0,0,0-.727-.727h-5.141Z" transform="translate(-402.424 -60.849)" fill="#2b4d66" fill-rule="evenodd"/>
      </g>
      <g id="Grupo_1210953" data-name="Grupo 1210953" transform="translate(41.379 3.17)">
        <path id="Trazado_1056605" data-name="Trazado 1056605" d="M382.548,15.4h5.141a.727.727,0,0,1,.727.727v2.992a.727.727,0,0,1-.727.727h-4.195a32.2,32.2,0,0,1,.276,3.612c.006.229.009.461.009.689,0,.987-.044,1.952-.128,2.9a28.108,28.108,0,0,1-2.293,9.057,1.574,1.574,0,0,0,1.858-.326l3.186-2.738h5.908a1.354,1.354,0,0,0,1.35-1.35V11.2a1.354,1.354,0,0,0-1.35-1.35H380.12a23.373,23.373,0,0,1,2.428,5.551Z" transform="translate(-380.12 -9.853)" fill="#75cef8" fill-rule="evenodd"/>
      </g>
      <g id="Grupo_1210954" data-name="Grupo 1210954" transform="translate(45.486 39.044)">
        <path id="Trazado_1056606" data-name="Trazado 1056606" d="M421.4,339.4h-3.553a32.551,32.551,0,0,1,.188,3.531c0,.307,0,.614-.013.918H421.4a.729.729,0,0,0,.727-.727v-3A.729.729,0,0,0,421.4,339.4Z" transform="translate(-417.848 -339.402)" fill="#2b4d66" fill-rule="evenodd"/>
      </g>
      <g id="Grupo_1210955" data-name="Grupo 1210955" transform="translate(42.087 33.568)">
        <path id="Trazado_1056607" data-name="Trazado 1056607" d="M390.023,294.572h3.553a.729.729,0,0,1,.727.727v3a.729.729,0,0,1-.727.727H390.2a31.307,31.307,0,0,1-.3,3.609,28.99,28.99,0,0,1-.736,3.59,23.783,23.783,0,0,1-2.537,6.068h11.481a1.354,1.354,0,0,0,1.35-1.35V290.446a1.354,1.354,0,0,0-1.35-1.35h-9.2A29.829,29.829,0,0,1,390.023,294.572Z" transform="translate(-386.624 -289.096)" fill="#e5384f" fill-rule="evenodd"/>
      </g>
      <g id="Grupo_1210956" data-name="Grupo 1210956" transform="translate(14.682 38.812)">
        <path id="Trazado_1056608" data-name="Trazado 1056608" d="M139.39,340.993v-3a.731.731,0,0,0-.727-.727h-3.791a32.529,32.529,0,0,1,.338,4.449h3.452A.731.731,0,0,0,139.39,340.993Z" transform="translate(-134.872 -337.271)" fill="#2b4d66" fill-rule="evenodd"/>
      </g>
      <g id="Grupo_1210957" data-name="Grupo 1210957" transform="translate(11.953 30.334)">
        <path id="Trazado_1056609" data-name="Trazado 1056609" d="M117.052,268.59v3a.731.731,0,0,1-.727.727h-3.452v.232a32.223,32.223,0,0,1-.175,3.377,30.131,30.131,0,0,1-.589,3.59,25.331,25.331,0,0,1-2.3,6.3H121a1.354,1.354,0,0,0,1.35-1.35V263.969a1.354,1.354,0,0,0-1.35-1.35h-5.908L111.9,259.88a1.579,1.579,0,0,0-1.93-.288,26.619,26.619,0,0,1,2.563,8.271h3.791A.731.731,0,0,1,117.052,268.59Z" transform="translate(-109.806 -259.384)" fill="#7fdbae" fill-rule="evenodd"/>
      </g>
      <g id="Grupo_1210958" data-name="Grupo 1210958" transform="translate(0 2.354)">
        <path id="Trazado_1056610" data-name="Trazado 1056610" d="M27.346,13.06l-2.521-2.934V4.521a2.169,2.169,0,0,0-2.167-2.167H2.167A2.169,2.169,0,0,0,0,4.521V25.012a2.169,2.169,0,0,0,2.167,2.167h8.427a.816.816,0,1,0,0-1.633H2.167a.541.541,0,0,1-.534-.534V4.521a.541.541,0,0,1,.534-.534H22.658a.541.541,0,0,1,.534.534v5.908a.816.816,0,0,0,.2.532l2.738,3.186c.014.017.029.033.045.048a.757.757,0,0,1,.074,1.052l-2.857,3.324a.817.817,0,0,0-.2.532v5.908a.541.541,0,0,1-.534.534H14.234a.816.816,0,0,0,0,1.633h8.424a2.169,2.169,0,0,0,2.167-2.167V19.407l2.658-3.093A2.381,2.381,0,0,0,27.346,13.06Z" transform="translate(0 -2.354)"/>
        <path id="Trazado_1056611" data-name="Trazado 1056611" d="M348.146,336.439v-3A1.545,1.545,0,0,0,346.6,331.9H335.456a1.545,1.545,0,0,0-1.543,1.543v3a1.545,1.545,0,0,0,1.543,1.543H346.6A1.545,1.545,0,0,0,348.146,336.439Zm-1.633-.09H335.546v-2.816h10.967Z" transform="translate(-297.564 -296.027)"/>
        <path id="Trazado_1056612" data-name="Trazado 1056612" d="M357.724,405.921a.816.816,0,0,0,0,1.633h7.594a.816.816,0,0,0,0-1.633Z" transform="translate(-318.056 -361.99)"/>
        <path id="Trazado_1056613" data-name="Trazado 1056613" d="M337.521,440.535h11.992a.816.816,0,1,0,0-1.633H337.521a.816.816,0,0,0,0,1.633Z" transform="translate(-300.052 -391.38)"/>
        <path id="Trazado_1056614" data-name="Trazado 1056614" d="M65.788,329.771H54.638a1.545,1.545,0,0,0-1.543,1.543v2.995a1.545,1.545,0,0,0,1.543,1.543H65.788a1.545,1.545,0,0,0,1.543-1.543v-2.995A1.545,1.545,0,0,0,65.788,329.771Zm-.09,4.449H54.728V331.4H65.7Z" transform="translate(-47.315 -294.129)"/>
        <path id="Trazado_1056615" data-name="Trazado 1056615" d="M84.5,405.424a.816.816,0,1,0,0-1.633h-7.6a.816.816,0,1,0,0,1.633Z" transform="translate(-67.807 -360.091)"/>
        <path id="Trazado_1056616" data-name="Trazado 1056616" d="M68.7,436.772H56.7a.816.816,0,1,0,0,1.633H68.7a.816.816,0,0,0,0-1.633Z" transform="translate(-49.803 -389.482)"/>
        <path id="Trazado_1056617" data-name="Trazado 1056617" d="M306.612,2.354H286.121a2.169,2.169,0,0,0-2.167,2.167V25.012a2.169,2.169,0,0,0,2.167,2.167h5.605l3.091,2.66a2.354,2.354,0,0,0,1.541.575,2.442,2.442,0,0,0,1.714-.714l2.934-2.521h5.606a2.169,2.169,0,0,0,2.167-2.167V4.521a2.169,2.169,0,0,0-2.167-2.167Zm.534,22.658a.541.541,0,0,1-.534.534H300.7a.816.816,0,0,0-.532.2l-3.186,2.738c-.017.014-.033.029-.048.045a.752.752,0,0,1-1.055.075l-3.321-2.857a.817.817,0,0,0-.533-.2h-5.908a.541.541,0,0,1-.534-.534V4.521a.541.541,0,0,1,.534-.534h20.491a.541.541,0,0,1,.534.534Z" transform="translate(-253.043 -2.354)"/>
        <path id="Trazado_1056618" data-name="Trazado 1056618" d="M280.111,281.6H259.62a2.169,2.169,0,0,0-2.167,2.167v5.606l-2.524,2.934a2.38,2.38,0,0,0-.136,3.252l2.66,3.094v5.606a2.169,2.169,0,0,0,2.167,2.167h8.415a.816.816,0,0,0,0-1.633H259.62a.541.541,0,0,1-.534-.534v-5.908a.817.817,0,0,0-.2-.532l-2.858-3.326a.756.756,0,0,1,.073-1.051q.023-.023.044-.048l2.741-3.186a.817.817,0,0,0,.2-.533v-5.908a.541.541,0,0,1,.534-.534h20.491a.541.541,0,0,1,.534.534v20.492a.541.541,0,0,1-.534.534h-8.436a.816.816,0,0,0,0,1.633h8.436a2.169,2.169,0,0,0,2.167-2.167V283.763A2.169,2.169,0,0,0,280.111,281.6Z" transform="translate(-226.543 -251.198)"/>
        <path id="Trazado_1056619" data-name="Trazado 1056619" d="M27.118,255.112H21.512l-2.934-2.521a2.386,2.386,0,0,0-3.255-.138l-3.091,2.66H6.627a2.169,2.169,0,0,0-2.167,2.167v20.492a2.169,2.169,0,0,0,2.167,2.167H27.118a2.169,2.169,0,0,0,2.167-2.167V257.279A2.169,2.169,0,0,0,27.118,255.112Zm.534,22.658a.541.541,0,0,1-.534.534H6.627a.541.541,0,0,1-.534-.534V257.279a.541.541,0,0,1,.534-.534h5.908a.817.817,0,0,0,.533-.2l3.32-2.857a.752.752,0,0,1,1.055.074c.015.016.032.03.048.045l3.186,2.738a.816.816,0,0,0,.532.2h5.908a.541.541,0,0,1,.534.534Z" transform="translate(-3.974 -224.714)"/>
        <path id="Trazado_1056620" data-name="Trazado 1056620" d="M345.769,53.35H334.622a1.545,1.545,0,0,0-1.543,1.543v2.992a1.545,1.545,0,0,0,1.543,1.543h11.146a1.545,1.545,0,0,0,1.543-1.543V54.893A1.545,1.545,0,0,0,345.769,53.35Zm-.09,4.445H334.712V54.983h10.967Z" transform="translate(-296.821 -47.799)"/>
        <path id="Trazado_1056621" data-name="Trazado 1056621" d="M364.484,129a.816.816,0,0,0,0-1.633H356.89a.816.816,0,0,0,0,1.633Z" transform="translate(-317.313 -113.76)"/>
        <path id="Trazado_1056622" data-name="Trazado 1056622" d="M348.68,160.35H336.687a.816.816,0,0,0,0,1.633H348.68a.816.816,0,1,0,0-1.633Z" transform="translate(-299.309 -143.151)"/>
        <path id="Trazado_1056623" data-name="Trazado 1056623" d="M62.669,59.3V56.3a1.547,1.547,0,0,0-1.546-1.543H49.976A1.545,1.545,0,0,0,48.433,56.3v3a1.545,1.545,0,0,0,1.543,1.543H61.123A1.547,1.547,0,0,0,62.669,59.3Zm-1.633-.09H50.066V56.393h10.97v2.816Z" transform="translate(-43.161 -49.055)"/>
        <path id="Trazado_1056624" data-name="Trazado 1056624" d="M72.244,128.779a.816.816,0,0,0,0,1.633h7.594a.816.816,0,0,0,0-1.633Z" transform="translate(-63.653 -115.017)"/>
        <path id="Trazado_1056625" data-name="Trazado 1056625" d="M52.041,163.393H64.034a.816.816,0,1,0,0-1.633H52.041a.816.816,0,1,0,0,1.633Z" transform="translate(-45.649 -144.407)"/>
      </g>
    </g>
  </g>
</svg>
