<svg xmlns="http://www.w3.org/2000/svg" width="295" height="127.413" viewBox="0 0 295 127.413">
  <g id="Grupo_1210805" data-name="Grupo 1210805" transform="translate(-1125 -296.239)">
    <g id="Grupo_1210675" data-name="Grupo 1210675" transform="translate(0 27.756)">
      <rect id="Rect치ngulo_420844" data-name="Rect치ngulo 420844" width="295" height="44" rx="3" transform="translate(1125 319.244)" fill="#f5b104"/>
      <rect id="Rect치ngulo_420843" data-name="Rect치ngulo 420843" width="239" height="90" rx="3" transform="translate(1153 296.244)" fill="#3b2a76"/>
    </g>
    <g id="Layer_23" data-name="Layer 23" transform="translate(1206 294.27)">
      <path id="Trazado_1056206" data-name="Trazado 1056206" d="M5,106.142V27.612A10.612,10.612,0,0,1,15.612,17H109a10.612,10.612,0,0,1,10.612,10.612v78.53Z" transform="translate(4.49 16.872)" fill="#a5badb"/>
      <path id="Trazado_1056207" data-name="Trazado 1056207" d="M106.754,17H17.612A10.612,10.612,0,0,0,7,27.612v78.53H117.366V27.612A10.612,10.612,0,0,0,106.754,17Z" transform="translate(6.735 16.872)" fill="#c1cfe8"/>
      <path id="Trazado_1056208" data-name="Trazado 1056208" d="M78.408,55v4.245H52.938V55H2A12.735,12.735,0,0,0,14.735,67.735H116.611A12.735,12.735,0,0,0,129.346,55Z" transform="translate(1.122 59.524)" fill="#0059be"/>
      <path id="Trazado_1056209" data-name="Trazado 1056209" d="M9,99.53V21h97.632V99.53" transform="translate(8.979 21.362)" fill="#66c3e9"/>
      <path id="Trazado_1056210" data-name="Trazado 1056210" d="M75.771,59.245H50.3V55H4.349a12.735,12.735,0,0,0,11.994,8.49H118.22a12.667,12.667,0,0,0,6.62-1.87,12.667,12.667,0,0,0,1.87-6.62H75.771Z" transform="translate(3.759 59.524)" fill="#006bdb"/>
      <path id="Trazado_1056211" data-name="Trazado 1056211" d="M11,21V75.173A13.747,13.747,0,0,0,24.743,88.918h79.644V21Z" transform="translate(11.224 21.362)" fill="#8adef9"/>
      <circle id="Elipse_12534" data-name="Elipse 12534" cx="21.224" cy="21.224" r="21.224" transform="translate(66.795 48.729)" fill="#f79b31"/>
      <path id="Trazado_1056212" data-name="Trazado 1056212" d="M50.981,24a21.1,21.1,0,0,0-12.719,4.263A21.195,21.195,0,0,0,67.943,57.942,21.195,21.195,0,0,0,50.981,24Z" transform="translate(37.039 24.729)" fill="#fcb732"/>
      <circle id="Elipse_12535" data-name="Elipse 12535" cx="21.224" cy="21.224" r="21.224" transform="translate(24.347 65.708)" fill="#e73844"/>
      <path id="Trazado_1056213" data-name="Trazado 1056213" d="M30.981,32a21.1,21.1,0,0,0-12.719,4.263A21.195,21.195,0,0,0,47.943,65.942,21.195,21.195,0,0,0,30.981,32Z" transform="translate(14.59 33.708)" fill="#ff4d55"/>
      <circle id="Elipse_12536" data-name="Elipse 12536" cx="21.224" cy="21.224" r="21.224" transform="translate(37.081 4.158)" fill="#7e357b"/>
      <path id="Trazado_1056214" data-name="Trazado 1056214" d="M36.981,3A21.1,21.1,0,0,0,24.261,7.263,21.195,21.195,0,0,0,53.943,36.942,21.195,21.195,0,0,0,36.981,3Z" transform="translate(21.325 1.158)" fill="#e761e1"/>
      <path id="Trazado_1056215" data-name="Trazado 1056215" d="M18,37V58.224L39.224,47.612Z" transform="translate(19.081 39.321)" fill="#fff"/>
      <path id="Trazado_1056216" data-name="Trazado 1056216" d="M42.1,7H25.122A2.122,2.122,0,0,0,23,9.122V15.49h4.245V11.245H31.49V28.224H27.245v4.245H39.979V28.224H35.735V11.245h4.245V15.49h4.245V9.122A2.122,2.122,0,0,0,42.1,7Z" transform="translate(24.693 5.648)" fill="#fff"/>
      <circle id="Elipse_12537" data-name="Elipse 12537" cx="4.245" cy="4.245" r="4.245" transform="translate(79.53 57.219)" fill="#ffeacd"/>
      <path id="Trazado_1056217" data-name="Trazado 1056217" d="M49.3,46.979l-8.49-8.49-7.2,11.518a21.2,21.2,0,0,0,38.4-6.408L59.909,30Z" transform="translate(36.6 31.464)" fill="#82ab00"/>
      <path id="Trazado_1056218" data-name="Trazado 1056218" d="M53.835,55.469a21.1,21.1,0,0,0,12.707-4.245A21.2,21.2,0,0,0,70.177,43.6L58.08,30,47.467,46.979l-8.49-8.49-3.74,5.981a21.224,21.224,0,0,0,18.6,11Z" transform="translate(38.43 31.464)" fill="#8dbf00"/>
      <path id="Trazado_1056219" data-name="Trazado 1056219" d="M130.468,112.4h-4.245V44.484a12.747,12.747,0,0,0-12.735-12.735H80.748a23.347,23.347,0,1,0-44.885,0H20.1A12.747,12.747,0,0,0,7.367,44.484V112.4H3.122A2.122,2.122,0,0,0,1,114.524a14.874,14.874,0,0,0,14.857,14.857H117.734a14.874,14.874,0,0,0,14.857-14.857A2.122,2.122,0,0,0,130.468,112.4ZM113.489,35.994a8.49,8.49,0,0,1,8.49,8.49V112.4h-4.245V42.362a2.122,2.122,0,0,0-2.122-2.122H76.3a23.375,23.375,0,0,0,2.774-4.245ZM54.061,112.4H20.1V44.484H44.934a23.215,23.215,0,0,0,26.764,0h41.791V112.4H79.53a2.122,2.122,0,0,0-2.122,2.122v2.122H56.183v-2.122A2.122,2.122,0,0,0,54.061,112.4ZM58.306,6.28a19.1,19.1,0,1,1-19.1,19.1,19.1,19.1,0,0,1,19.1-19.1Zm-46.693,38.2a8.49,8.49,0,0,1,8.49-8.49H37.536a23.374,23.374,0,0,0,2.774,4.245H17.979a2.122,2.122,0,0,0-2.122,2.122V112.4H11.612Zm106.122,80.652H15.857a10.629,10.629,0,0,1-10.4-8.49H51.938v2.122a2.122,2.122,0,0,0,2.122,2.122H79.53a2.122,2.122,0,0,0,2.122-2.122v-2.122h46.481A10.629,10.629,0,0,1,117.734,125.136Z" transform="translate(0 0)"/>
      <path id="Trazado_1056220" data-name="Trazado 1056220" d="M57.668,63.6a23.281,23.281,0,0,0-.395-4.168,23.716,23.716,0,1,0-3.455-8.643A23.321,23.321,0,1,0,57.668,63.6Zm19.1,2.122a19.07,19.07,0,0,1-15.26-7.66L66.544,50l6.6,6.6a2.093,2.093,0,0,0,1.74.607,2.122,2.122,0,0,0,1.56-.983l9.109-14.575,9.455,10.633A19.138,19.138,0,0,1,76.77,65.722Zm0-38.2a19.123,19.123,0,0,1,19.1,19.1c0,.081-.011.159-.013.24L86.848,36.721a2.078,2.078,0,0,0-1.766-.713A2.122,2.122,0,0,0,83.46,37l-9.2,14.717-6.6-6.6a2.091,2.091,0,0,0-1.74-.607,2.122,2.122,0,0,0-1.56.983l-5.245,8.392A19.083,19.083,0,0,1,76.77,27.518ZM34.322,82.7a19.1,19.1,0,1,1,19.1-19.1,19.1,19.1,0,0,1-19.1,19.1Z" transform="translate(11.249 23.333)"/>
      <path id="Trazado_1056221" data-name="Trazado 1056221" d="M41.3,46.836,20.071,36.223A2.122,2.122,0,0,0,17,38.123V59.347a2.122,2.122,0,0,0,3.071,1.91L41.3,50.645a2.122,2.122,0,0,0,0-3.8ZM21.245,55.913V41.557L35.6,48.735Z" transform="translate(17.959 38.198)"/>
      <path id="Trazado_1056222" data-name="Trazado 1056222" d="M27.245,11.245H31.49V28.224H27.245v4.245H39.979V28.224H35.735V11.245h4.245V15.49h4.245V9.122A2.122,2.122,0,0,0,42.1,7H25.122A2.122,2.122,0,0,0,23,9.122V15.49h4.245Z" transform="translate(24.693 5.648)"/>
      <circle id="Elipse_12538" data-name="Elipse 12538" cx="4.245" cy="4.245" r="4.245" transform="translate(79.53 57.219)"/>
    </g>
  </g>
</svg>
