<svg xmlns="http://www.w3.org/2000/svg" width="191" height="92" viewBox="0 0 191 92">
  <g id="Grupo_1210810" data-name="Grupo 1210810" transform="translate(-1230 -290)">
    <g id="Grupo_1210710" data-name="Grupo 1210710" transform="translate(105 -0.369)">
      <rect id="Rect치ngulo_420844" data-name="Rect치ngulo 420844" width="191" height="51" rx="3" transform="translate(1125 310.369)" fill="#f5b104"/>
      <rect id="Rect치ngulo_420843" data-name="Rect치ngulo 420843" width="161" height="80" rx="3" transform="translate(1141 296.369)" fill="#3b2a76"/>
    </g>
    <g id="Page-1" transform="translate(1279 289.995)">
      <g id="_087---Smart-Course" data-name="087---Smart-Course" transform="translate(0 0.005)">
        <g id="Icons_copy" transform="translate(1.533 1.513)">
          <path id="Shape" d="M41.717,28a7.514,7.514,0,0,0-1.763,4.83V37.2a3.076,3.076,0,0,1-3.067,3.067h-9.2A3.076,3.076,0,0,1,24.619,37.2V32.815A7.436,7.436,0,0,0,22.84,28Z" transform="translate(12.184 13.416)" fill="#9e9e9e"/>
          <path id="Shape-2" data-name="Shape" d="M33.83,28a7.514,7.514,0,0,0-1.763,4.83V37.2A3.076,3.076,0,0,1,29,40.268h4.6A3.076,3.076,0,0,0,36.667,37.2V32.83A7.514,7.514,0,0,1,38.431,28Z" transform="translate(15.47 13.416)" fill="#707070"/>
          <path id="Shape-3" data-name="Shape" d="M47.925,40.614A8.138,8.138,0,0,0,45.9,42.408H27.024a7.937,7.937,0,0,0-1.993-1.779,21.468,21.468,0,1,1,22.894-.015Z" transform="translate(8 -0.991)" fill="#ffdc00"/>
          <path id="Shape-4" data-name="Shape" d="M51.045,19.5a21.525,21.525,0,0,0-18.8-18.371,22.082,22.082,0,0,0-4.7,0h.1A21.458,21.458,0,0,1,36.63,40.6,8.138,8.138,0,0,0,34.606,42.4h4.6A8.138,8.138,0,0,1,41.23,40.6a21.447,21.447,0,0,0,9.814-21.1Z" transform="translate(14.694 -0.982)" fill="#fec108"/>
          <path id="Shape-5" data-name="Shape" d="M35.2,36v1.533a4.6,4.6,0,0,1-9.2,0V36Z" transform="translate(13.87 17.684)" fill="#37474f"/>
          <circle id="Oval" cx="12" cy="12" r="12" transform="translate(32.466 9.487)" fill="#ef314c"/>
          <path id="Shape-6" data-name="Shape" d="M35.737,45.084V46.4H2V8.343A3.22,3.22,0,0,1,5.068,5H28.392a21.445,21.445,0,0,0,3.573,33.491,7.937,7.937,0,0,1,1.993,1.779,7.436,7.436,0,0,1,1.779,4.815Z" transform="translate(1.066 1.147)" fill="#00bcd4"/>
          <path id="Shape-7" data-name="Shape" d="M84.807,44v4.324a3.441,3.441,0,0,1-.491,1.809H77.14a1.533,1.533,0,0,0-1.533,1.533H5.068A3.22,3.22,0,0,1,2,48.324V44Z" transform="translate(1.066 21.952)" fill="#9e9e9e"/>
          <path id="Shape-8" data-name="Shape" d="M47,49.533h4.6A1.533,1.533,0,0,1,53.134,48h-4.6A1.533,1.533,0,0,0,47,49.533Z" transform="translate(25.072 24.085)" fill="#707070"/>
          <path id="Shape-9" data-name="Shape" d="M53.171,44v4.324a3.441,3.441,0,0,1-.491,1.809h4.6a3.441,3.441,0,0,0,.491-1.809V44Z" transform="translate(28.102 21.952)" fill="#707070"/>
          <path id="Shape-10" data-name="Shape" d="M84.806,32V50.4H2V32H35.736v3.067A3.076,3.076,0,0,0,38.8,38.134v1.533a4.6,4.6,0,0,0,9.2,0V38.134a3.076,3.076,0,0,0,3.067-3.067V32Z" transform="translate(1.067 15.55)" fill="#ef314c"/>
          <path id="Shape-11" data-name="Shape" d="M24.067,38.134v1.533a4.573,4.573,0,0,0,6.9,3.964,4.573,4.573,0,0,1-2.3-3.964V38.134A3.076,3.076,0,0,1,25.6,35.067V32H21v3.067a3.076,3.076,0,0,0,3.067,3.067Z" transform="translate(11.202 15.55)" fill="#bb193b"/>
          <path id="Rectangle-path" d="M53,32h4.6V50.4H53Z" transform="translate(28.273 15.55)" fill="#bb193b"/>
          <path id="Shape-12" data-name="Shape" d="M67.736,8.343V46.4H34V45.1a7.514,7.514,0,0,1,1.763-4.83,8.138,8.138,0,0,1,2.024-1.794A21.428,21.428,0,0,0,41.345,5H64.669a3.22,3.22,0,0,1,3.067,3.343Z" transform="translate(18.137 1.147)" fill="#00bcd4"/>
          <path id="Shape-13" data-name="Shape" d="M51.736,58.2H18L22.6,49H47.136Z" transform="translate(9.602 24.619)" fill="#707070"/>
          <path id="Shape-14" data-name="Shape" d="M64.137,58.067a3.076,3.076,0,0,1-3.067,3.067h-46a3.067,3.067,0,1,1,0-6.134h46A3.09,3.09,0,0,1,64.137,58.067Z" transform="translate(6.401 27.82)" fill="#9e9e9e"/>
          <path id="Shape-15" data-name="Shape" d="M47.763,55.9A3,3,0,0,0,45.6,55H41a3.067,3.067,0,0,1,0,6.134h4.6a3.076,3.076,0,0,0,3.067-3.067,3,3,0,0,0-.9-2.162Z" transform="translate(21.871 27.82)" fill="#707070"/>
          <path id="Shape-16" data-name="Shape" d="M4.6,55H7.667a4.6,4.6,0,0,1,4.6,4.6,1.533,1.533,0,0,1-1.533,1.533h-9.2A1.533,1.533,0,0,1,0,59.6,4.6,4.6,0,0,1,4.6,55Z" transform="translate(0 27.82)" fill="#9e9e9e"/>
          <path id="Shape-17" data-name="Shape" d="M62.268,49.533V60.268a4.6,4.6,0,0,1-4.6,4.6H54.6a4.6,4.6,0,0,1-4.6-4.6V49.533A1.533,1.533,0,0,1,51.533,48h9.2A1.533,1.533,0,0,1,62.268,49.533Z" transform="translate(26.672 24.085)" fill="#ffdc00"/>
          <path id="Shape-18" data-name="Shape" d="M33.916,18l-4.6,2.964A1.533,1.533,0,0,1,27,19.523V13.665a1.533,1.533,0,0,1,2.3-1.446l4.6,2.892A1.748,1.748,0,0,1,33.916,18Z" transform="translate(14.401 4.887)" fill="#f5f5f5"/>
        </g>
        <g id="Icons">
          <path id="Shape-19" data-name="Shape" d="M28.647,22.9a2.929,2.929,0,0,0,3.025-.113l4.6-2.964a3.28,3.28,0,0,0-.028-5.471l-4.6-2.892a2.926,2.926,0,0,0-3.013-.089A3.22,3.22,0,0,0,27,14.206v5.856A3.22,3.22,0,0,0,28.647,22.9Zm1.42-8.7a.844.844,0,0,1,.011-.106l4.542,2.851a.2.2,0,0,1,.048.153.2.2,0,0,1-.049.153l-4.5,2.964s-.049-.032-.049-.153Z" transform="translate(14.403 5.86)"/>
          <path id="Shape-20" data-name="Shape" d="M34.8,33.6A13.8,13.8,0,1,0,21,19.8,13.8,13.8,0,0,0,34.8,33.6Zm0-24.535A10.734,10.734,0,1,1,24.067,19.8,10.734,10.734,0,0,1,34.8,9.067Z" transform="translate(11.202 3.194)"/>
          <path id="Shape-21" data-name="Shape" d="M88.94,72.07h-.018c0-.092.018-.182.018-.276V11.008a4.754,4.754,0,0,0-4.6-4.876H61.576A22.848,22.848,0,0,0,48.639.151a23.131,23.131,0,0,0-17.97,5.7c-.1.089-.182.189-.281.279H7.667a4.754,4.754,0,0,0-4.6,4.876V71.794a4.859,4.859,0,0,0,3.067,4.577V82.8A6.134,6.134,0,0,0,0,88.938,3.067,3.067,0,0,0,3.067,92h9.2a3.067,3.067,0,0,0,3.067-3.067A6.134,6.134,0,0,0,9.2,82.8V76.67H31.255L28.188,82.8H23A4.6,4.6,0,1,0,23,92h46a4.6,4.6,0,1,0,0-9.2H63.819L60.752,76.67h15.92v9.2A6.134,6.134,0,0,0,82.806,92h3.067a6.134,6.134,0,0,0,6.134-6.134V75.137A3.067,3.067,0,0,0,88.94,72.07ZM12.268,88.938h-9.2a3.067,3.067,0,0,1,3.067-3.067H9.2A3.075,3.075,0,0,1,12.268,88.938Zm73.606-77.93V47.535H55.219a6.344,6.344,0,0,1,3.052-5.09A22.859,22.859,0,0,0,68.791,19.836,22.58,22.58,0,0,0,64.368,9.2H84.34a1.711,1.711,0,0,1,1.533,1.809ZM52.153,47.535h-12.3a8.96,8.96,0,0,0-.613-3.067H52.775A8.968,8.968,0,0,0,52.153,47.535ZM50.6,53.668H41.4a1.533,1.533,0,0,1-1.533-1.533V50.6H52.137v1.533A1.533,1.533,0,0,1,50.6,53.668ZM49.07,56.735a3.067,3.067,0,0,1-6.134,0ZM32.718,8.139A19.7,19.7,0,0,1,45.976,3.064,19.926,19.926,0,0,1,56.635,39.852a10.043,10.043,0,0,0-1.9,1.549H37.272a10.056,10.056,0,0,0-1.9-1.547A19.923,19.923,0,0,1,32.718,8.139ZM7.667,9.2H27.625a22.954,22.954,0,0,0,6.111,33.25,6.85,6.85,0,0,1,1.7,1.533c.017.018.031.04.049.058a6.052,6.052,0,0,1,1.3,3.495H6.134V11.008A1.711,1.711,0,0,1,7.667,9.2ZM70.539,87.4a1.533,1.533,0,0,1-1.533,1.533H23a1.533,1.533,0,1,1,0-3.067h46A1.533,1.533,0,0,1,70.539,87.4ZM60.39,82.8H31.617l3.067-6.134h22.64ZM77.1,73.6H7.667a1.711,1.711,0,0,1-1.533-1.809V69h6.134a1.533,1.533,0,1,0,0-3.067H6.134V50.6H36.8v1.533a4.6,4.6,0,0,0,3.067,4.318v.282a6.134,6.134,0,0,0,12.268,0v-.282A4.6,4.6,0,0,0,55.2,52.135V50.6H85.873V65.936H18.4A1.533,1.533,0,1,0,18.4,69H85.873v2.791a2.3,2.3,0,0,1-.034.276h-6.1A3.056,3.056,0,0,0,77.1,73.6ZM88.94,85.871a3.067,3.067,0,0,1-3.067,3.067H82.806a3.067,3.067,0,0,1-3.067-3.067V75.137h9.2Z" transform="translate(0 -0.005)"/>
          <path id="Shape-22" data-name="Shape" d="M8.533,36A1.533,1.533,0,0,0,7,37.533V40.6a1.533,1.533,0,0,0,3.067,0V37.533A1.533,1.533,0,0,0,8.533,36Z" transform="translate(3.734 19.197)"/>
          <path id="Shape-23" data-name="Shape" d="M12.533,42.134A1.533,1.533,0,0,0,14.067,40.6V37.533a1.533,1.533,0,0,0-3.067,0V40.6A1.533,1.533,0,0,0,12.533,42.134Z" transform="translate(5.868 19.197)"/>
          <path id="Shape-24" data-name="Shape" d="M17.533,40.067H25.2A1.533,1.533,0,0,0,25.2,37H17.533a1.533,1.533,0,1,0,0,3.067Z" transform="translate(8.535 19.731)"/>
          <path id="Shape-25" data-name="Shape" d="M38.533,40.6H41.6a1.533,1.533,0,0,0,3.067,0H60a1.533,1.533,0,0,0,0-3.067H44.667a1.533,1.533,0,0,0-3.067,0H38.533a1.533,1.533,0,0,0,0,3.067Z" transform="translate(19.738 19.197)"/>
        </g>
      </g>
    </g>
  </g>
</svg>
