<svg xmlns="http://www.w3.org/2000/svg" width="143.623" height="162.322" viewBox="0 0 143.623 162.322">
  <g id="Grupo_1210934" data-name="Grupo 1210934" transform="translate(-1.1 1.735)">
    <g id="obs-2" transform="translate(20.016 0)">
      <circle id="Elipse_12541" data-name="Elipse 12541" cx="59.102" cy="59.102" r="59.102" transform="translate(0 0)" fill="#302e31" stroke="#fff" stroke-width="3.47"/>
      <path id="Trazado_1056241" data-name="Trazado 1056241" d="M21.188,26.836A30.182,30.182,0,0,1,36.937,6.2c-1.39,1.412-3.071,2.493-4.358,4.028A25.143,25.143,0,0,0,26.388,31.69c1.832,11.54,12.679,20.966,24.433,20.8A25.1,25.1,0,0,0,73.273,39.746,31.089,31.089,0,0,1,97.541,52.9c2.79,4.127,4.969,8.964,5.118,14A25.908,25.908,0,0,0,90.393,50.923,25.181,25.181,0,0,0,53.908,65.731a26.3,26.3,0,0,0,1.948,19.481A30.216,30.216,0,0,1,35.55,99.442,31.253,31.253,0,0,1,16.4,97.049a26.871,26.871,0,0,0,16.476-.058,25.318,25.318,0,0,0-2.939-48.767c-1.965-.35-3.946-.508-5.927-.69A31.18,31.18,0,0,1,21.287,26.9Z" transform="translate(7.868 1.229)" fill="#c4c2c4"/>
    </g>
    <path id="Trazado_1056593" data-name="Trazado 1056593" d="M11.4.4A11.447,11.447,0,0,1,7.263-.325,9.6,9.6,0,0,1,4-2.375,9.328,9.328,0,0,1,1.863-5.513,10.182,10.182,0,0,1,1.1-9.5a9.846,9.846,0,0,1,.775-3.913,9.441,9.441,0,0,1,2.175-3.15A10.138,10.138,0,0,1,7.325-18.65,10.872,10.872,0,0,1,11.4-19.4a11.447,11.447,0,0,1,4.137.725,9.6,9.6,0,0,1,3.263,2.05,9.328,9.328,0,0,1,2.137,3.137A10.182,10.182,0,0,1,21.7-9.5a9.846,9.846,0,0,1-.775,3.913,9.441,9.441,0,0,1-2.175,3.15A10.138,10.138,0,0,1,15.475-.35,10.872,10.872,0,0,1,11.4.4Zm5.075-9.875a6.012,6.012,0,0,0-.65-2.838,4.988,4.988,0,0,0-1.788-1.95,4.864,4.864,0,0,0-2.637-.713,4.947,4.947,0,0,0-2.625.7,4.888,4.888,0,0,0-1.8,1.925,5.937,5.937,0,0,0-.65,2.825,6.012,6.012,0,0,0,.65,2.838,4.957,4.957,0,0,0,1.8,1.95,4.881,4.881,0,0,0,2.625.712,4.93,4.93,0,0,0,2.637-.7,4.9,4.9,0,0,0,1.788-1.938A5.957,5.957,0,0,0,16.475-9.475ZM24.8-19h7.4a8.221,8.221,0,0,1,4.938,1.25,4.259,4.259,0,0,1,1.688,3.65,4.554,4.554,0,0,1-.625,2.375,4.1,4.1,0,0,1-1.725,1.6,4.377,4.377,0,0,1,2.45,1.65,4.8,4.8,0,0,1,.9,2.925,4.972,4.972,0,0,1-1.775,4.138A8.257,8.257,0,0,1,32.828,0H24.8ZM32.5-3.45a2.745,2.745,0,0,0,1.9-.588,2.126,2.126,0,0,0,.65-1.662q0-2.25-2.65-2.25H29.278v4.5Zm-.725-7.825q2.5,0,2.5-2.2,0-2.075-2.475-2.075H29.278v4.275Zm10.677,6a10.141,10.141,0,0,0,2.85,1.225,12.141,12.141,0,0,0,3.2.45q2.875,0,2.875-1.8a1.384,1.384,0,0,0-.288-.888,2.7,2.7,0,0,0-.987-.687A13.207,13.207,0,0,0,48.13-7.65a9.767,9.767,0,0,1-4.425-2.237,5.028,5.028,0,0,1-1.35-3.663,5.209,5.209,0,0,1,1.938-4.288A8.191,8.191,0,0,1,49.58-19.4a13.4,13.4,0,0,1,3.238.4,9.222,9.222,0,0,1,2.688,1.075l-.65,3.9a8.812,8.812,0,0,0-2.4-1,10.254,10.254,0,0,0-2.65-.375q-2.6,0-2.6,1.675a1.338,1.338,0,0,0,.6,1.15,8.631,8.631,0,0,0,2.225.925,11.829,11.829,0,0,1,4.875,2.337A4.793,4.793,0,0,1,56.38-5.65a5.359,5.359,0,0,1-2.013,4.462A8.9,8.9,0,0,1,48.73.4,15.486,15.486,0,0,1,46.18.188a15.561,15.561,0,0,1-2.363-.575,7.307,7.307,0,0,1-1.787-.838Zm22.03,0a10.141,10.141,0,0,0,2.85,1.225,12.141,12.141,0,0,0,3.2.45q2.875,0,2.875-1.8a1.384,1.384,0,0,0-.287-.888,2.7,2.7,0,0,0-.987-.687A13.207,13.207,0,0,0,70.16-7.65a9.767,9.767,0,0,1-4.425-2.237,5.028,5.028,0,0,1-1.35-3.663,5.209,5.209,0,0,1,1.938-4.288A8.191,8.191,0,0,1,71.61-19.4a13.4,13.4,0,0,1,3.237.4,9.222,9.222,0,0,1,2.688,1.075l-.65,3.9a8.812,8.812,0,0,0-2.4-1,10.254,10.254,0,0,0-2.65-.375q-2.6,0-2.6,1.675a1.338,1.338,0,0,0,.6,1.15,8.631,8.631,0,0,0,2.225.925,11.829,11.829,0,0,1,4.875,2.337A4.793,4.793,0,0,1,78.41-5.65,5.359,5.359,0,0,1,76.4-1.188,8.9,8.9,0,0,1,70.76.4,15.486,15.486,0,0,1,68.21.188a15.561,15.561,0,0,1-2.363-.575,7.307,7.307,0,0,1-1.787-.838Zm17.752-4H80.063V-12.9h2.175v-3.325h4.525V-12.9h2.625v3.625H86.763V0H82.238ZM91.715-12.9H96.24v7.1q0,2.175,1.75,2.175,1.7,0,1.7-2.175v-7.1h4.525v7.225a6.044,6.044,0,0,1-1.588,4.525A6.413,6.413,0,0,1,97.965.4,6.413,6.413,0,0,1,93.3-1.15a6.044,6.044,0,0,1-1.588-4.525ZM120.518,0h-4.275l-.05-1.65A4.14,4.14,0,0,1,114.58-.138,4.911,4.911,0,0,1,112.243.4a5.2,5.2,0,0,1-2.963-.863,5.777,5.777,0,0,1-2.012-2.4,8.2,8.2,0,0,1-.725-3.537,7.776,7.776,0,0,1,.775-3.525,6.4,6.4,0,0,1,2.1-2.463,5.124,5.124,0,0,1,2.975-.912,4.193,4.193,0,0,1,3.6,1.75v-8.7h4.525Zm-6.875-3.625a2.386,2.386,0,0,0,1.85-.8,2.9,2.9,0,0,0,.725-2.025,2.89,2.89,0,0,0-.725-2.037,2.4,2.4,0,0,0-1.85-.788,2.432,2.432,0,0,0-1.875.788,2.89,2.89,0,0,0-.725,2.037,2.9,2.9,0,0,0,.725,2.025A2.414,2.414,0,0,0,113.643-3.625ZM123.57-12.9H128.1V0H123.57Zm.438-2.725a2.256,2.256,0,0,1-.738-1.7,2.273,2.273,0,0,1,.738-1.738,2.559,2.559,0,0,1,1.813-.687,2.515,2.515,0,0,1,1.8.687,2.292,2.292,0,0,1,.725,1.738,2.275,2.275,0,0,1-.725,1.7,2.49,2.49,0,0,1-1.8.7A2.533,2.533,0,0,1,124.007-15.625ZM137.647.4A7.4,7.4,0,0,1,134-.488a6.632,6.632,0,0,1-2.525-2.438,6.745,6.745,0,0,1-.925-3.525,6.745,6.745,0,0,1,.925-3.525,6.607,6.607,0,0,1,2.537-2.438,7.417,7.417,0,0,1,3.637-.887,7.327,7.327,0,0,1,3.638.887A6.687,6.687,0,0,1,143.8-9.988a6.727,6.727,0,0,1,.925,3.537,6.745,6.745,0,0,1-.925,3.525,6.632,6.632,0,0,1-2.525,2.438A7.346,7.346,0,0,1,137.647.4Zm2.575-6.85a2.89,2.89,0,0,0-.725-2.037,2.4,2.4,0,0,0-1.85-.788,2.432,2.432,0,0,0-1.875.788,2.89,2.89,0,0,0-.725,2.037,2.9,2.9,0,0,0,.725,2.025,2.414,2.414,0,0,0,1.875.8,2.386,2.386,0,0,0,1.85-.8A2.9,2.9,0,0,0,140.223-6.45Z" transform="translate(0 160.187)" fill="#212429"/>
  </g>
</svg>
