<svg xmlns="http://www.w3.org/2000/svg" width="119.871" height="156.113" viewBox="0 0 119.871 156.113">
  <g id="Grupo_1210935" data-name="Grupo 1210935" transform="translate(-1055.615 -2001.066)">
    <g id="icons8-estudio-de-camtasia" transform="translate(1060.638 2001.067)">
      <path id="Trazado_1056237" data-name="Trazado 1056237" d="M111.277,120.848H15.571A9.57,9.57,0,0,1,6,111.277V15.571A9.57,9.57,0,0,1,15.571,6h95.706a9.57,9.57,0,0,1,9.571,9.571v95.706A9.57,9.57,0,0,1,111.277,120.848Z" transform="translate(-6 -6)" fill="#8bc34a"/>
      <path id="Trazado_1056238" data-name="Trazado 1056238" d="M13,26.951,28.951,11H81.586a1.6,1.6,0,0,1,1.129,2.724L69.486,26.951Zm0,51.043L28.951,93.945H81.586a1.6,1.6,0,0,0,1.129-2.724L69.486,77.994Z" transform="translate(9.331 4.951)" fill="#fff"/>
      <path id="Trazado_1056239" data-name="Trazado 1056239" d="M13,16H28.951V67.043H13Z" transform="translate(9.331 15.902)" fill="#dcedc8"/>
    </g>
    <path id="Trazado_1056592" data-name="Trazado 1056592" d="M2.35-4.275A10.214,10.214,0,0,1,1.1-9.45a10.09,10.09,0,0,1,.762-3.975,9.141,9.141,0,0,1,2.15-3.113,9.632,9.632,0,0,1,3.3-2.025,11.981,11.981,0,0,1,4.213-.713,13.707,13.707,0,0,1,3.263.4A9.952,9.952,0,0,1,17.55-17.8l-.8,4.175a12.689,12.689,0,0,0-2.45-.9,9.913,9.913,0,0,0-2.45-.325,5.509,5.509,0,0,0-4.038,1.463A5.238,5.238,0,0,0,6.325-9.475,5.155,5.155,0,0,0,7.813-5.588,5.6,5.6,0,0,0,11.875-4.15a9.756,9.756,0,0,0,2.65-.412,13.033,13.033,0,0,0,2.65-1.062l.525,4.35A10.243,10.243,0,0,1,14.825-.15,14.275,14.275,0,0,1,11.4.275,11.872,11.872,0,0,1,5.913-.913,8.47,8.47,0,0,1,2.35-4.275ZM33.878,0H29.6l-.05-1.675A4.171,4.171,0,0,1,25.6.4,5.2,5.2,0,0,1,22.64-.463a5.777,5.777,0,0,1-2.013-2.4A8.2,8.2,0,0,1,19.9-6.4a7.776,7.776,0,0,1,.775-3.525,6.4,6.4,0,0,1,2.1-2.463,5.124,5.124,0,0,1,2.975-.912,4.676,4.676,0,0,1,2.25.537,3.816,3.816,0,0,1,1.55,1.513l.05-1.65h4.275ZM28.853-4.425a2.9,2.9,0,0,0,.725-2.025,2.89,2.89,0,0,0-.725-2.037A2.4,2.4,0,0,0,27-9.275a2.432,2.432,0,0,0-1.875.788A2.89,2.89,0,0,0,24.4-6.45a2.9,2.9,0,0,0,.725,2.025,2.414,2.414,0,0,0,1.875.8A2.386,2.386,0,0,0,28.853-4.425ZM36.93-12.9h4.4l.05,1.6a3.515,3.515,0,0,1,1.462-1.475A4.6,4.6,0,0,1,45.08-13.3a3.84,3.84,0,0,1,3.75,2.15,3.9,3.9,0,0,1,1.625-1.575A5.06,5.06,0,0,1,52.88-13.3a4.132,4.132,0,0,1,3.375,1.387,6.23,6.23,0,0,1,1.15,4.063V0h-4.5V-7q0-2.275-1.675-2.275-1.825,0-1.825,2.45V0H44.93V-7a2.889,2.889,0,0,0-.413-1.725,1.5,1.5,0,0,0-1.287-.55q-1.825,0-1.825,2.45V0H36.93ZM61.508-9.275H59.333V-12.9h2.175v-3.325h4.525V-12.9h2.625v3.625H66.033V0H61.508ZM83.81,0H79.535l-.05-1.675A4.171,4.171,0,0,1,75.535.4a5.2,5.2,0,0,1-2.963-.863,5.777,5.777,0,0,1-2.012-2.4A8.2,8.2,0,0,1,69.835-6.4a7.776,7.776,0,0,1,.775-3.525,6.4,6.4,0,0,1,2.1-2.463,5.124,5.124,0,0,1,2.975-.912,4.676,4.676,0,0,1,2.25.537,3.816,3.816,0,0,1,1.55,1.513l.05-1.65H83.81ZM78.785-4.425A2.9,2.9,0,0,0,79.51-6.45a2.89,2.89,0,0,0-.725-2.037,2.4,2.4,0,0,0-1.85-.788,2.432,2.432,0,0,0-1.875.788,2.89,2.89,0,0,0-.725,2.037,2.9,2.9,0,0,0,.725,2.025,2.414,2.414,0,0,0,1.875.8A2.386,2.386,0,0,0,78.785-4.425Zm8.028.35a7.888,7.888,0,0,0,2.125.95,8.337,8.337,0,0,0,2.275.325q1.7,0,1.7-.875a.765.765,0,0,0-.375-.688,6.78,6.78,0,0,0-1.575-.562A8.072,8.072,0,0,1,87.55-6.537a3.465,3.465,0,0,1-1.013-2.638,3.558,3.558,0,0,1,1.475-3.038,6.7,6.7,0,0,1,4.05-1.087,12.179,12.179,0,0,1,2.575.275,7.315,7.315,0,0,1,2.1.75l-.45,3.15a8.915,8.915,0,0,0-3.925-.975q-1.45,0-1.45.825a.774.774,0,0,0,.4.663,6.355,6.355,0,0,0,1.575.587,7.785,7.785,0,0,1,3.425,1.663A3.576,3.576,0,0,1,97.338-3.7,3.479,3.479,0,0,1,95.8-.675,7.4,7.4,0,0,1,91.513.4,12.218,12.218,0,0,1,88.588.05a7.09,7.09,0,0,1-2.275-.925ZM99.84-12.9h4.525V0H99.84Zm.438-2.725a2.256,2.256,0,0,1-.738-1.7,2.273,2.273,0,0,1,.738-1.738,2.559,2.559,0,0,1,1.813-.687,2.515,2.515,0,0,1,1.8.687,2.292,2.292,0,0,1,.725,1.738,2.275,2.275,0,0,1-.725,1.7,2.49,2.49,0,0,1-1.8.7A2.533,2.533,0,0,1,100.278-15.625ZM120.793,0h-4.275l-.05-1.675A4.171,4.171,0,0,1,112.518.4a5.2,5.2,0,0,1-2.963-.863,5.777,5.777,0,0,1-2.012-2.4,8.2,8.2,0,0,1-.725-3.537,7.776,7.776,0,0,1,.775-3.525,6.4,6.4,0,0,1,2.1-2.463,5.124,5.124,0,0,1,2.975-.912,4.676,4.676,0,0,1,2.25.537,3.816,3.816,0,0,1,1.55,1.513l.05-1.65h4.275Zm-5.025-4.425a2.9,2.9,0,0,0,.725-2.025,2.89,2.89,0,0,0-.725-2.037,2.4,2.4,0,0,0-1.85-.788,2.432,2.432,0,0,0-1.875.788,2.89,2.89,0,0,0-.725,2.037,2.9,2.9,0,0,0,.725,2.025,2.414,2.414,0,0,0,1.875.8A2.386,2.386,0,0,0,115.768-4.425Z" transform="translate(1054.515 2156.78)" fill="#5b8b23"/>
  </g>
</svg>
