<svg xmlns="http://www.w3.org/2000/svg" xmlns:xlink="http://www.w3.org/1999/xlink" width="445" height="309" viewBox="0 0 445 309">
  <defs>
    <filter id="Rect치ngulo_420917" x="0" y="0" width="445" height="309" filterUnits="userSpaceOnUse">
      <feOffset dy="1" input="SourceAlpha"/>
      <feGaussianBlur stdDeviation="4" result="blur"/>
      <feFlood flood-opacity="0.29"/>
      <feComposite operator="in" in2="blur"/>
      <feComposite in="SourceGraphic"/>
    </filter>
  </defs>
  <g id="Grupo_1210807" data-name="Grupo 1210807" transform="translate(-242 -591)">
    <g transform="matrix(1, 0, 0, 1, 242, 591)" filter="url(#Rect치ngulo_420917)">
      <rect id="Rect치ngulo_420917-2" data-name="Rect치ngulo 420917" width="421" height="285" rx="10" transform="translate(12 11)" fill="#f3f3f3"/>
    </g>
    <g id="Grupo_1210806" data-name="Grupo 1210806" transform="translate(130.012 624.084)">
      <path id="Trazado_1056233" data-name="Trazado 1056233" d="M120.273,267.593v-66.85H161.72v57.492h44.79V200.743h33.45l-.359,1.5c-.7,2.922-12.933,57.085-14.422,63.842-.83,3.769-1.348,7.015-1.149,7.213s8.385,1.467,18.19,2.819l17.829,2.458,2.719-3.181c7.676-8.98,20.722-9.133,28.255-.331,9.874,11.535,1.3,29.546-14.034,29.477-5.441-.024-9.8-2.026-13.888-6.383l-3.237-3.448-17.806,2.524c-9.793,1.388-17.955,2.673-18.139,2.856-.7.7,2.885,9.487,5.763,14.136a42.359,42.359,0,0,0,20.981,17.876c2.372.993,4.437,1.925,4.59,2.07s-10.751.264-24.233.264H206.51V284.972H161.72V334.44H120.273Z" transform="translate(61.715 -147.332)" fill="#3d70be"/>
      <path id="Trazado_1056234" data-name="Trazado 1056234" d="M120.273,267.593v-66.85H161.72v57.492h44.79V200.743h33.45l-.359,1.5c-.7,2.922-12.933,57.085-14.422,63.842-.83,3.769-1.348,7.015-1.149,7.213s8.385,1.467,18.19,2.819l17.829,2.458,2.719-3.181c7.676-8.98,20.722-9.133,28.255-.331,9.874,11.535,1.3,29.546-14.034,29.477-5.441-.024-9.8-2.026-13.888-6.383l-3.237-3.448-17.806,2.524c-9.793,1.388-17.955,2.673-18.139,2.856-.7.7,2.885,9.487,5.763,14.136a42.359,42.359,0,0,0,20.981,17.876c2.372.993,4.437,1.925,4.59,2.07s-10.751.264-24.233.264H206.51V284.972H161.72V334.44H120.273Z" transform="translate(61.715 -147.332)" fill="#3d70be" stroke="#fff" stroke-miterlimit="1.067" stroke-width="0.649"/>
      <path id="Trazado_1056235" data-name="Trazado 1056235" d="M299.541,333.868a18.47,18.47,0,0,1,4.048-1.693c16-5.188,28.321-24.995,28.335-45.545.008-11.867-3.57-21.1-11.361-29.3a42.34,42.34,0,0,0-18.382-11.588c-4.907-1.626-6.286-1.776-16.713-1.822-10.659-.046-11.728.066-17.22,1.812-3.221,1.023-6.308,2.035-6.86,2.246-.648.249-.9.064-.709-.524.162-.5,1.245-5.047,2.4-10.1l2.11-9.191h60.717V200.592l31.254.333c29.134.311,31.615.43,36.6,1.754,13.863,3.683,22.026,11.1,26.205,23.813,1.543,4.694,1.765,6.493,1.813,14.707.042,6.987-.242,10.461-1.121,13.7-3.827,14.124-14.013,24.025-28.569,27.769-5.353,1.376-18.019,2.247-33.259,2.285l-11.532.029v49.469H323.1c-13.909,0-23.929-.249-23.564-.586Zm71.883-77.373c4.66-1.384,8.843-5.417,9.974-9.62a14.614,14.614,0,0,0-9.951-18.049c-1.329-.378-7.306-.88-13.281-1.115l-10.864-.427v31.168l10.254-.443C363.754,257.743,369.241,257.143,371.425,256.495Z" transform="translate(65.97 -147.337)" fill="#3d70be"/>
      <path id="Trazado_1056236" data-name="Trazado 1056236" d="M299.541,333.868a18.47,18.47,0,0,1,4.048-1.693c16-5.188,28.321-24.995,28.335-45.545.008-11.867-3.57-21.1-11.361-29.3a42.34,42.34,0,0,0-18.382-11.588c-4.907-1.626-6.286-1.776-16.713-1.822-10.659-.046-11.728.066-17.22,1.812-3.221,1.023-6.308,2.035-6.86,2.246-.648.249-.9.064-.709-.524.162-.5,1.245-5.047,2.4-10.1l2.11-9.191h60.717V200.592l31.254.333c29.134.311,31.615.43,36.6,1.754,13.863,3.683,22.026,11.1,26.205,23.813,1.543,4.694,1.765,6.493,1.813,14.707.042,6.987-.242,10.461-1.121,13.7-3.827,14.124-14.013,24.025-28.569,27.769-5.353,1.376-18.019,2.247-33.259,2.285l-11.532.029v49.469H323.1c-13.909,0-23.929-.249-23.564-.586Zm71.883-77.373c4.66-1.384,8.843-5.417,9.974-9.62a14.614,14.614,0,0,0-9.951-18.049c-1.329-.378-7.306-.88-13.281-1.115l-10.864-.427v31.168l10.254-.443C363.754,257.743,369.241,257.143,371.425,256.495Z" transform="translate(65.97 -147.337)" fill="#3d70be" stroke="#fff" stroke-miterlimit="1.067" stroke-width="0.649"/>
    </g>
  </g>
</svg>
