<svg xmlns="http://www.w3.org/2000/svg" xmlns:xlink="http://www.w3.org/1999/xlink" width="113" height="113" viewBox="0 0 113 113">
  <defs>
    <filter id="Trazado_982547" x="0" y="0" width="113" height="113" filterUnits="userSpaceOnUse">
      <feOffset dy="3" input="SourceAlpha"/>
      <feGaussianBlur stdDeviation="3" result="blur"/>
      <feFlood flood-opacity="0.161"/>
      <feComposite operator="in" in2="blur"/>
      <feComposite in="SourceGraphic"/>
    </filter>
  </defs>
  <g id="Grupo_1210815" data-name="Grupo 1210815" transform="translate(-792 -3039.846)">
    <g id="Grupo_1210736" data-name="Grupo 1210736" transform="translate(801 3045.846)">
      <g id="Grupo_1210537" data-name="Grupo 1210537" transform="translate(0)">
        <g id="Grupo_1164202" data-name="Grupo 1164202">
          <g id="Grupo_1158168" data-name="Grupo 1158168">
            <g id="Grupo_1152576" data-name="Grupo 1152576">
              <g id="Grupo_1148633" data-name="Grupo 1148633">
                <g id="Grupo_1148525" data-name="Grupo 1148525">
                  <g transform="matrix(1, 0, 0, 1, -9, -6)" filter="url(#Trazado_982547)">
                    <g id="Trazado_982547-2" data-name="Trazado 982547" transform="translate(9 6)" fill="#fdf6e4">
                      <path d="M 47.5 93.5 C 41.28937149047852 93.5 35.26533508300781 92.28397369384766 29.59518623352051 89.88570404052734 C 24.11771965026855 87.56893157958984 19.19813346862793 84.25196075439453 14.97309303283691 80.02691650390625 C 10.74804019927979 75.80186462402344 7.431066513061523 70.88229370117188 5.114293098449707 65.40481567382812 C 2.716026782989502 59.73468017578125 1.5 53.71062850952148 1.5 47.5 C 1.5 41.28937149047852 2.716026782989502 35.26533508300781 5.114293098449707 29.59518623352051 C 7.431066513061523 24.11771965026855 10.74804019927979 19.19813346862793 14.97309303283691 14.97309303283691 C 19.19813346862793 10.74804019927979 24.11771965026855 7.431066513061523 29.59518623352051 5.114293098449707 C 35.26533508300781 2.716026782989502 41.28937149047852 1.5 47.5 1.5 C 53.71062850952148 1.5 59.73468017578125 2.716026782989502 65.40481567382812 5.114293098449707 C 70.88229370117188 7.431066513061523 75.80186462402344 10.74804019927979 80.02691650390625 14.97309303283691 C 84.25196075439453 19.19813346862793 87.56893157958984 24.11771965026855 89.88570404052734 29.59518623352051 C 92.28397369384766 35.26533508300781 93.5 41.28937149047852 93.5 47.5 C 93.5 53.71062850952148 92.28397369384766 59.73468017578125 89.88570404052734 65.40481567382812 C 87.56893157958984 70.88229370117188 84.25196075439453 75.80186462402344 80.02691650390625 80.02691650390625 C 75.80186462402344 84.25196075439453 70.88229370117188 87.56893157958984 65.40481567382812 89.88570404052734 C 59.73468017578125 92.28397369384766 53.71062850952148 93.5 47.5 93.5 Z" stroke="none"/>
                      <path d="M 47.5 3 C 41.49121475219727 3 35.66376876831055 4.176155090332031 30.17950439453125 6.495796203613281 C 24.88084411621094 8.736953735351562 20.12152099609375 11.94598388671875 16.03375244140625 16.03375244140625 C 11.94598388671875 20.12152099609375 8.736953735351562 24.88084411621094 6.495796203613281 30.17950439453125 C 4.176155090332031 35.66376876831055 3 41.49121475219727 3 47.5 C 3 53.50878524780273 4.176155090332031 59.33623123168945 6.495796203613281 64.82049560546875 C 8.736953735351562 70.11915588378906 11.94598388671875 74.87847900390625 16.03375244140625 78.96624755859375 C 20.12152099609375 83.05401611328125 24.88084411621094 86.26304626464844 30.17950439453125 88.50419616699219 C 35.66376876831055 90.82384490966797 41.49121475219727 92 47.5 92 C 53.50878524780273 92 59.33623123168945 90.82384490966797 64.82049560546875 88.50419616699219 C 70.11915588378906 86.26304626464844 74.87847900390625 83.05401611328125 78.96624755859375 78.96624755859375 C 83.05401611328125 74.87847900390625 86.26304626464844 70.11915588378906 88.50419616699219 64.82049560546875 C 90.82384490966797 59.33623123168945 92 53.50878524780273 92 47.5 C 92 41.49121475219727 90.82384490966797 35.66376876831055 88.50419616699219 30.17950439453125 C 86.26304626464844 24.88084411621094 83.05401611328125 20.12152099609375 78.96624755859375 16.03375244140625 C 74.87847900390625 11.94598388671875 70.11915588378906 8.736953735351562 64.82049560546875 6.495796203613281 C 59.33623123168945 4.176155090332031 53.50878524780273 3 47.5 3 M 47.5 0 C 73.7335205078125 0 95 21.2664794921875 95 47.5 C 95 73.7335205078125 73.7335205078125 95 47.5 95 C 21.2664794921875 95 0 73.7335205078125 0 47.5 C 0 21.2664794921875 21.2664794921875 0 47.5 0 Z" stroke="none" fill="#f5b104"/>
                    </g>
                  </g>
                </g>
              </g>
            </g>
          </g>
        </g>
      </g>
    </g>
    <g id="Layer_x0020_1" transform="translate(653.362 3062.107)">
      <path id="Trazado_1056242" data-name="Trazado 1056242" d="M205.179,48.952a1.287,1.287,0,0,0-1.168-1.4,1.314,1.314,0,0,0-1.168,1.4v10.2a1.3,1.3,0,0,0,1.168,1.363,1.274,1.274,0,0,0,1.168-1.363Zm-21.964-8.568a1.172,1.172,0,0,0-1.168,1.168,1.147,1.147,0,0,0,1.168,1.168h17.291a1.147,1.147,0,0,0,1.168-1.168,1.172,1.172,0,0,0-1.168-1.168Zm0-5.569a1.168,1.168,0,1,0,0,2.337h17.291a1.168,1.168,0,0,0,0-2.337Zm0-5.569a1.147,1.147,0,0,0-1.168,1.168,1.172,1.172,0,0,0,1.168,1.168h17.291a1.172,1.172,0,0,0,1.168-1.168,1.147,1.147,0,0,0-1.168-1.168Zm0-5.569a1.147,1.147,0,0,0-1.168,1.168,1.172,1.172,0,0,0,1.168,1.168h17.291a1.172,1.172,0,0,0,1.168-1.168,1.147,1.147,0,0,0-1.168-1.168ZM181.929,0h19.861a1.147,1.147,0,0,1,1.168,1.168V4.6h10.593a1.2,1.2,0,0,1,1.168,1.168V41.358a13.572,13.572,0,0,1,3.816,2.687,13.3,13.3,0,0,1,3.739,9.269,13.467,13.467,0,0,1-3.739,9.308,12.744,12.744,0,0,1-18.265,0,13.632,13.632,0,0,1-2.648-3.972H170.168A1.2,1.2,0,0,1,169,57.481V5.764A1.2,1.2,0,0,1,170.168,4.6h10.593V1.168A1.147,1.147,0,0,1,181.929,0Zm21.03,6.932V10.4a1.172,1.172,0,0,1-1.168,1.168H181.929a1.172,1.172,0,0,1-1.168-1.168V6.932h-9.424V56.313h25.508a12.887,12.887,0,0,1-.35-3,11.01,11.01,0,0,1,.117-1.6H177.256a1.172,1.172,0,0,1-1.168-1.168V15.772a1.172,1.172,0,0,1,1.168-1.168h29.208a1.147,1.147,0,0,1,1.168,1.168V40.307a13.245,13.245,0,0,1,1.752-.117,12.644,12.644,0,0,1,3,.35V6.932Zm-2.337-4.6H183.1V9.23h17.525Zm1.246,43.422a10.76,10.76,0,0,0-3.038,7.555,10.942,10.942,0,0,0,3.116,7.672,10.393,10.393,0,0,0,14.915,0,11,11,0,0,0,3.077-7.672,10.837,10.837,0,0,0-3.077-7.633,10.4,10.4,0,0,0-14.993.078ZM205.3,16.941H178.424v32.44h18.693a13.125,13.125,0,0,1,8.178-8.529Zm5.18,31.038,6.231,3.622a2.726,2.726,0,0,1,1.051,1.051,2.673,2.673,0,0,1,.389,1.441,2.981,2.981,0,0,1-.428,1.519,2.942,2.942,0,0,1-1.013.935c-1.947,1.129-4.479,2.8-6.426,3.739A3.114,3.114,0,0,1,209,60.6a3.032,3.032,0,0,1-1.441-.35,2.928,2.928,0,0,1-1.09-1.09,2.767,2.767,0,0,1-.389-1.441V54.093c0-1.129-.117-2.882,0-3.894a2.943,2.943,0,0,1,.389-1.207,2.886,2.886,0,0,1,4.011-1.013Zm5.1,5.647L209.307,50a.931.931,0,0,0-.35-.117.472.472,0,0,0-.467.273.3.3,0,0,0-.078.156v7.36a.558.558,0,0,0,.545.584.292.292,0,0,0,.195-.039c2.1-1.246,4.284-2.453,6.426-3.7a.489.489,0,0,0,.234-.428A.51.51,0,0,0,215.577,53.626Z"/>
      <path id="Trazado_1056243" data-name="Trazado 1056243" d="M531,66.893h17.525V60H531Z" transform="translate(-347.902 -57.663)" fill="#999" fill-rule="evenodd"/>
      <path id="Trazado_1056244" data-name="Trazado 1056244" d="M259.454,182.634H239.593a1.172,1.172,0,0,1-1.168-1.168V178H229v49.381h25.508a12.887,12.887,0,0,1-.35-3,11.01,11.01,0,0,1,.117-1.6H234.919a1.172,1.172,0,0,1-1.168-1.168V186.84a1.172,1.172,0,0,1,1.168-1.168h29.208a1.147,1.147,0,0,1,1.168,1.168v24.535a13.244,13.244,0,0,1,1.752-.117,12.644,12.644,0,0,1,3,.35V178h-9.424v3.466A1.172,1.172,0,0,1,259.454,182.634Z" transform="translate(-57.663 -171.068)" fill="#f69e07" fill-rule="evenodd"/>
      <path id="Trazado_1056245" data-name="Trazado 1056245" d="M437.871,435H411v32.44h18.693a13.125,13.125,0,0,1,8.178-8.529Zm-4.79,6.737a1.147,1.147,0,0,1,1.168,1.168,1.172,1.172,0,0,1-1.168,1.168H415.79a1.172,1.172,0,0,1-1.168-1.168,1.147,1.147,0,0,1,1.168-1.168Zm-17.291,5.569h17.291a1.147,1.147,0,0,1,1.168,1.168,1.172,1.172,0,0,1-1.168,1.168H415.79a1.172,1.172,0,0,1-1.168-1.168A1.147,1.147,0,0,1,415.79,447.306Zm0,5.569h17.291a1.168,1.168,0,1,1,0,2.337H415.79a1.168,1.168,0,1,1,0-2.337Zm-1.168,6.737a1.172,1.172,0,0,1,1.168-1.168h17.291a1.172,1.172,0,0,1,1.168,1.168,1.147,1.147,0,0,1-1.168,1.168H415.79A1.147,1.147,0,0,1,414.622,459.612Z" transform="translate(-232.576 -418.059)" fill="#f3f3f3" fill-rule="evenodd"/>
      <path id="Trazado_1056246" data-name="Trazado 1056246" d="M1188.166,1284.739l-6.27-3.622a.932.932,0,0,0-.351-.117.473.473,0,0,0-.467.273.3.3,0,0,0-.078.156v7.36a.558.558,0,0,0,.545.584.291.291,0,0,0,.195-.039c2.1-1.246,4.284-2.453,6.426-3.7a.489.489,0,0,0,.234-.428A.51.51,0,0,0,1188.166,1284.739Z" transform="translate(-972.589 -1231.113)" fill="#f3f3f3" fill-rule="evenodd"/>
      <path id="Trazado_1056247" data-name="Trazado 1056247" d="M946.644,1097.452l6.231,3.622a2.728,2.728,0,0,1,1.051,1.052,2.673,2.673,0,0,1,.389,1.441,2.98,2.98,0,0,1-.428,1.519,2.942,2.942,0,0,1-1.012.935c-1.947,1.129-4.479,2.8-6.426,3.739a3.114,3.114,0,0,1-1.285.312,3.033,3.033,0,0,1-1.441-.35,2.93,2.93,0,0,1-1.09-1.09,2.767,2.767,0,0,1-.389-1.441v-3.622c0-1.129-.117-2.882,0-3.894a2.944,2.944,0,0,1,.389-1.207,2.886,2.886,0,0,1,4.011-1.012Zm-6.465-.428a1.287,1.287,0,0,1,1.168,1.4v10.2a1.274,1.274,0,0,1-1.168,1.363,1.3,1.3,0,0,1-1.168-1.363v-10.2A1.314,1.314,0,0,1,940.18,1097.024Zm5.374-5.024a10.4,10.4,0,0,0-7.516,3.232,10.761,10.761,0,0,0-3.038,7.555,10.942,10.942,0,0,0,3.115,7.672,10.393,10.393,0,0,0,14.915,0,11,11,0,0,0,3.077-7.672,10.837,10.837,0,0,0-3.077-7.633A10.4,10.4,0,0,0,945.554,1092Z" transform="translate(-736.169 -1049.473)" fill="#ffcf00" fill-rule="evenodd"/>
    </g>
  </g>
</svg>
