<svg xmlns="http://www.w3.org/2000/svg" xmlns:xlink="http://www.w3.org/1999/xlink" width="113" height="113" viewBox="0 0 113 113">
  <defs>
    <filter id="Trazado_982547" x="0" y="0" width="113" height="113" filterUnits="userSpaceOnUse">
      <feOffset dy="3" input="SourceAlpha"/>
      <feGaussianBlur stdDeviation="3" result="blur"/>
      <feFlood flood-opacity="0.161"/>
      <feComposite operator="in" in2="blur"/>
      <feComposite in="SourceGraphic"/>
    </filter>
  </defs>
  <g id="Grupo_1210828" data-name="Grupo 1210828" transform="translate(-1110.509 -3039.846)">
    <g id="Grupo_1210737" data-name="Grupo 1210737" transform="translate(1119.509 3045.846)">
      <g id="Grupo_1210537" data-name="Grupo 1210537" transform="translate(0)">
        <g id="Grupo_1164202" data-name="Grupo 1164202">
          <g id="Grupo_1158168" data-name="Grupo 1158168">
            <g id="Grupo_1152576" data-name="Grupo 1152576">
              <g id="Grupo_1148633" data-name="Grupo 1148633">
                <g id="Grupo_1148525" data-name="Grupo 1148525">
                  <g transform="matrix(1, 0, 0, 1, -9, -6)" filter="url(#Trazado_982547)">
                    <g id="Trazado_982547-2" data-name="Trazado 982547" transform="translate(9 6)" fill="#fdf6e4">
                      <path d="M 47.5 93.5 C 41.28937149047852 93.5 35.26533508300781 92.28397369384766 29.59518623352051 89.88570404052734 C 24.11771965026855 87.56893157958984 19.19813346862793 84.25196075439453 14.97309303283691 80.02691650390625 C 10.74804019927979 75.80186462402344 7.431066513061523 70.88229370117188 5.114293098449707 65.40481567382812 C 2.716026782989502 59.73468017578125 1.5 53.71062850952148 1.5 47.5 C 1.5 41.28937149047852 2.716026782989502 35.26533508300781 5.114293098449707 29.59518623352051 C 7.431066513061523 24.11771965026855 10.74804019927979 19.19813346862793 14.97309303283691 14.97309303283691 C 19.19813346862793 10.74804019927979 24.11771965026855 7.431066513061523 29.59518623352051 5.114293098449707 C 35.26533508300781 2.716026782989502 41.28937149047852 1.5 47.5 1.5 C 53.71062850952148 1.5 59.73468017578125 2.716026782989502 65.40481567382812 5.114293098449707 C 70.88229370117188 7.431066513061523 75.80186462402344 10.74804019927979 80.02691650390625 14.97309303283691 C 84.25196075439453 19.19813346862793 87.56893157958984 24.11771965026855 89.88570404052734 29.59518623352051 C 92.28397369384766 35.26533508300781 93.5 41.28937149047852 93.5 47.5 C 93.5 53.71062850952148 92.28397369384766 59.73468017578125 89.88570404052734 65.40481567382812 C 87.56893157958984 70.88229370117188 84.25196075439453 75.80186462402344 80.02691650390625 80.02691650390625 C 75.80186462402344 84.25196075439453 70.88229370117188 87.56893157958984 65.40481567382812 89.88570404052734 C 59.73468017578125 92.28397369384766 53.71062850952148 93.5 47.5 93.5 Z" stroke="none"/>
                      <path d="M 47.5 3 C 41.49121475219727 3 35.66376876831055 4.176155090332031 30.17950439453125 6.495796203613281 C 24.88084411621094 8.736953735351562 20.12152099609375 11.94598388671875 16.03375244140625 16.03375244140625 C 11.94598388671875 20.12152099609375 8.736953735351562 24.88084411621094 6.495796203613281 30.17950439453125 C 4.176155090332031 35.66376876831055 3 41.49121475219727 3 47.5 C 3 53.50878524780273 4.176155090332031 59.33623123168945 6.495796203613281 64.82049560546875 C 8.736953735351562 70.11915588378906 11.94598388671875 74.87847900390625 16.03375244140625 78.96624755859375 C 20.12152099609375 83.05401611328125 24.88084411621094 86.26304626464844 30.17950439453125 88.50419616699219 C 35.66376876831055 90.82384490966797 41.49121475219727 92 47.5 92 C 53.50878524780273 92 59.33623123168945 90.82384490966797 64.82049560546875 88.50419616699219 C 70.11915588378906 86.26304626464844 74.87847900390625 83.05401611328125 78.96624755859375 78.96624755859375 C 83.05401611328125 74.87847900390625 86.26304626464844 70.11915588378906 88.50419616699219 64.82049560546875 C 90.82384490966797 59.33623123168945 92 53.50878524780273 92 47.5 C 92 41.49121475219727 90.82384490966797 35.66376876831055 88.50419616699219 30.17950439453125 C 86.26304626464844 24.88084411621094 83.05401611328125 20.12152099609375 78.96624755859375 16.03375244140625 C 74.87847900390625 11.94598388671875 70.11915588378906 8.736953735351562 64.82049560546875 6.495796203613281 C 59.33623123168945 4.176155090332031 53.50878524780273 3 47.5 3 M 47.5 0 C 73.7335205078125 0 95 21.2664794921875 95 47.5 C 95 73.7335205078125 73.7335205078125 95 47.5 95 C 21.2664794921875 95 0 73.7335205078125 0 47.5 C 0 21.2664794921875 21.2664794921875 0 47.5 0 Z" stroke="none" fill="#f5b104"/>
                    </g>
                  </g>
                </g>
              </g>
            </g>
          </g>
        </g>
      </g>
    </g>
    <g id="creative-work_2974628" transform="translate(1136.783 3063.534)">
      <g id="Grupo_1210826" data-name="Grupo 1210826" transform="translate(1.937 1.91)">
        <g id="Grupo_1210816" data-name="Grupo 1210816" transform="translate(26.644 0.937)">
          <path id="Trazado_1056248" data-name="Trazado 1056248" d="M60,10.492,52.5,17.984V13.3H33.334a12.951,12.951,0,0,0-.777-2.266A13.749,13.749,0,0,0,30.45,7.683H52.5V3Z" transform="translate(-30.45 -3)" fill="#ccd1d9"/>
        </g>
        <g id="Grupo_1210817" data-name="Grupo 1210817" transform="translate(25.061 15.921)">
          <path id="Trazado_1056249" data-name="Trazado 1056249" d="M52.4,26.492l-6.556,6.556-.937.937V29.3H28.76a20.508,20.508,0,0,1,1.817-2.688,13.88,13.88,0,0,0,1.807-2.931H44.906V19Z" transform="translate(-28.76 -19)" fill="#ccd1d9"/>
        </g>
        <g id="Grupo_1210818" data-name="Grupo 1210818" transform="translate(1.873 31.842)">
          <path id="Trazado_1056250" data-name="Trazado 1056250" d="M58.318,36.937V59.413a.939.939,0,0,1-.937.937H4.937A.939.939,0,0,1,4,59.413V56.6H46.7a.916.916,0,0,0,.384-.084V56.51a.761.761,0,0,0,.272-.178L54.3,49.383a.761.761,0,0,0,.178-.272h.009a.916.916,0,0,0,.084-.384V36h2.81a.939.939,0,0,1,.937.937Z" transform="translate(-4 -36)" fill="#e6e9ed"/>
        </g>
        <g id="Grupo_1210819" data-name="Grupo 1210819" transform="translate(0 29.969)">
          <path id="Trazado_1056251" data-name="Trazado 1056251" d="M53.508,34H2.937A.939.939,0,0,0,2,34.937v20.6a.939.939,0,0,0,.937.937H46.569a.916.916,0,0,0,.384-.084V48.984h7.408a.916.916,0,0,0,.084-.384V34.937A.939.939,0,0,0,53.508,34Z" transform="translate(-2 -34)" fill="#f0d0b4"/>
        </g>
        <g id="Grupo_1210820" data-name="Grupo 1210820" transform="translate(44.953 44.953)">
          <path id="Trazado_1056252" data-name="Trazado 1056252" d="M50,50h7.4a.761.761,0,0,1-.178.272l-6.949,6.949A.761.761,0,0,1,50,57.4Z" transform="translate(-50 -50)" fill="#b4dd7f"/>
        </g>
        <g id="Grupo_1210821" data-name="Grupo 1210821" transform="translate(7.492 39.334)">
          <path id="Trazado_1056253" data-name="Trazado 1056253" d="M24.984,44v1.1a1.879,1.879,0,0,1-.553,1.33l-6.94,6.94-6.94-6.94A1.879,1.879,0,0,1,10,45.1V44Z" transform="translate(-10 -44)" fill="#aab2bd"/>
        </g>
        <g id="Grupo_1210822" data-name="Grupo 1210822" transform="translate(7.043 31.842)">
          <path id="Trazado_1056254" data-name="Trazado 1056254" d="M9.52,36a19.97,19.97,0,0,1,.44,3.746c.009.159.009.328.009.487v3.259H24.954V40.233c0-.159,0-.328.009-.487A19.97,19.97,0,0,1,25.4,36Z" transform="translate(-9.52 -36)" fill="#ef7385"/>
        </g>
        <g id="Grupo_1210823" data-name="Grupo 1210823" transform="translate(0 0)">
          <path id="Trazado_1056255" data-name="Trazado 1056255" d="M31.528,13.238a12.951,12.951,0,0,0-.777-2.266,13.749,13.749,0,0,0-2.107-3.353,12.643,12.643,0,0,0-1.349-1.4l-.515-.468a14.666,14.666,0,0,0-19.592,0l-.515.468A14.11,14.11,0,0,0,2.8,21.386,13.762,13.762,0,0,0,5.09,25.535a20.011,20.011,0,0,1,3.268,5.891c.066.178.122.356.178.543.2.618.365,1.236.506,1.873H24.926c.14-.637.309-1.255.506-1.873a19.553,19.553,0,0,1,1.63-3.746,20.507,20.507,0,0,1,1.817-2.688A13.88,13.88,0,0,0,30.685,22.6c.178-.393.347-.805.487-1.217a14.079,14.079,0,0,0,.8-4.673,13.911,13.911,0,0,0-.44-3.474Z" transform="translate(-2 -2)" fill="#ffeaa7"/>
        </g>
        <g id="Grupo_1210824" data-name="Grupo 1210824" transform="translate(18.73 13.111)">
          <path id="Trazado_1056256" data-name="Trazado 1056256" d="M27.619,19.587v.318a4.148,4.148,0,0,1-1.208,2.922,2.261,2.261,0,0,1-3.2,0L22,21.619V19.587a4.148,4.148,0,0,1,1.208-2.922,2.261,2.261,0,0,1,3.2,0A4.148,4.148,0,0,1,27.619,19.587Z" transform="translate(-22 -16)" fill="#fcd770"/>
        </g>
        <g id="Grupo_1210825" data-name="Grupo 1210825" transform="translate(5.619 13.111)">
          <path id="Trazado_1056257" data-name="Trazado 1056257" d="M13.619,19.587v2.032l-1.208,1.208a2.261,2.261,0,0,1-3.2,0A4.148,4.148,0,0,1,8,19.905v-.318a4.148,4.148,0,0,1,1.208-2.922,2.261,2.261,0,0,1,3.2,0,4.148,4.148,0,0,1,1.208,2.922Z" transform="translate(-8 -16)" fill="#fcd770"/>
        </g>
      </g>
      <g id="Grupo_1210827" data-name="Grupo 1210827" transform="translate(1 0.586)">
        <path id="Trazado_1056258" data-name="Trazado 1056258" d="M57.191,32.815H55.318a1.875,1.875,0,0,0-1.873-1.873h-7.1l5.619-5.619L42.207,15.57v6.007H32a15.076,15.076,0,0,0,.843-4.951,14.917,14.917,0,0,0-.237-2.541H49.7v6.007l9.753-9.753L49.7.586V6.593H29.007a15.016,15.016,0,0,0-1.148-1.156l-.516-.465a15.58,15.58,0,0,0-20.845,0l-.516.464A15.054,15.054,0,0,0,4.3,26.028a19.083,19.083,0,0,1,2.829,4.914H2.873A1.875,1.875,0,0,0,1,32.815v20.6a1.875,1.875,0,0,0,1.873,1.873v1.873a1.875,1.875,0,0,0,1.873,1.873H57.191a1.875,1.875,0,0,0,1.873-1.873V34.688a1.875,1.875,0,0,0-1.873-1.873ZM44.08,23.45V20.092l5.231,5.231L44.08,30.555V27.2H28.688c.272-.4.553-.79.855-1.168a14.953,14.953,0,0,0,1.645-2.578ZM27.57,29.069H42.207v1.873H26.715A18.947,18.947,0,0,1,27.57,29.069Zm24-20.6V5.108L56.8,10.339,51.572,15.57V12.212H32.166a15.1,15.1,0,0,0-1.754-3.746Zm-48.7,8.16a13.2,13.2,0,0,1,4.362-9.8l.516-.465a13.707,13.707,0,0,1,18.339,0l.516.465A13.179,13.179,0,0,1,28.08,24.859a21.066,21.066,0,0,0-3.95,7.957H21.6v-9.97a3.271,3.271,0,0,0,4.134-.332,5.035,5.035,0,0,0,1.485-3.586v-.321a5.038,5.038,0,0,0-1.485-3.586,3.274,3.274,0,0,0-4.521,0,5.035,5.035,0,0,0-1.481,3.363l-.553-.553a3.274,3.274,0,0,0-4.522,0l-.553.553a5.035,5.035,0,0,0-1.481-3.363,3.274,3.274,0,0,0-4.522,0,5.035,5.035,0,0,0-1.485,3.586v.321A5.034,5.034,0,0,0,8.1,22.514a3.271,3.271,0,0,0,4.134.332v9.97H9.711a21.066,21.066,0,0,0-3.95-7.957,13.226,13.226,0,0,1-2.888-8.233Zm17.406,29.3H13.562L10.64,43a.932.932,0,0,1-.274-.663v-.16H23.476v.16A.932.932,0,0,1,23.2,43ZM18.406,47.8l-1.485,1.485L15.435,47.8ZM12.238,20.253l-.937.937a1.355,1.355,0,0,1-1.873,0,3.176,3.176,0,0,1-.937-2.262v-.321a3.174,3.174,0,0,1,.937-2.261,1.325,1.325,0,0,1,1.873,0,3.176,3.176,0,0,1,.937,2.262ZM19.73,32.815H14.111V21.028l1.873-1.873a1.355,1.355,0,0,1,1.873,0l1.873,1.873Zm4.018,1.873c-.1.62-.168,1.245-.211,1.873H10.3c-.043-.628-.111-1.253-.21-1.873ZM10.365,38.434H23.476v1.873H10.365ZM21.6,20.253V18.607a3.174,3.174,0,0,1,.937-2.261,1.355,1.355,0,0,1,1.873,0,3.176,3.176,0,0,1,.937,2.262v.321a3.174,3.174,0,0,1-.937,2.261,1.355,1.355,0,0,1-1.873,0ZM2.873,32.815H7.764a19.106,19.106,0,0,1,.728,5.169v4.357a2.8,2.8,0,0,0,.823,1.987l7.605,7.605,7.605-7.605a2.789,2.789,0,0,0,.823-1.987V37.984a19.106,19.106,0,0,1,.728-5.169h16.13v2.261l2.261-2.261h8.977V45.926H45.953v7.492H2.873ZM52.121,47.8l-4.295,4.295V47.8Zm5.07,9.365H4.746V55.292H46.5a1.883,1.883,0,0,0,1.324-.549L54.769,47.8a1.86,1.86,0,0,0,.549-1.324V34.688h1.873Z" transform="translate(-1 -0.586)"/>
        <path id="Trazado_1056259" data-name="Trazado 1056259" d="M39,39h1.873V52.111H39Z" transform="translate(-3.412 -3.025)"/>
        <path id="Trazado_1056260" data-name="Trazado 1056260" d="M35,39h1.873V52.111H35Z" transform="translate(-3.158 -3.025)"/>
        <path id="Trazado_1056261" data-name="Trazado 1056261" d="M31,39h1.873v3.746H31Z" transform="translate(-2.905 -3.025)"/>
        <path id="Trazado_1056262" data-name="Trazado 1056262" d="M31,45h1.873v7.492H31Z" transform="translate(-2.905 -3.406)"/>
      </g>
    </g>
  </g>
</svg>
