<svg xmlns="http://www.w3.org/2000/svg" xmlns:xlink="http://www.w3.org/1999/xlink" width="113" height="113" viewBox="0 0 113 113">
  <defs>
    <filter id="Trazado_982547" x="0" y="0" width="113" height="113" filterUnits="userSpaceOnUse">
      <feOffset dy="3" input="SourceAlpha"/>
      <feGaussianBlur stdDeviation="3" result="blur"/>
      <feFlood flood-opacity="0.161"/>
      <feComposite operator="in" in2="blur"/>
      <feComposite in="SourceGraphic"/>
    </filter>
  </defs>
  <g id="Grupo_1210955" data-name="Grupo 1210955" transform="translate(-4689.509 -3039.846)">
    <g id="Grupo_1210738" data-name="Grupo 1210738" transform="translate(4698.509 3045.846)">
      <g id="Grupo_1210537" data-name="Grupo 1210537" transform="translate(0)">
        <g id="Grupo_1164202" data-name="Grupo 1164202">
          <g id="Grupo_1158168" data-name="Grupo 1158168">
            <g id="Grupo_1152576" data-name="Grupo 1152576">
              <g id="Grupo_1148633" data-name="Grupo 1148633">
                <g id="Grupo_1148525" data-name="Grupo 1148525">
                  <g transform="matrix(1, 0, 0, 1, -9, -6)" filter="url(#Trazado_982547)">
                    <g id="Trazado_982547-2" data-name="Trazado 982547" transform="translate(9 6)" fill="#fdf6e4">
                      <path d="M 47.5 93.5 C 41.28937149047852 93.5 35.26533508300781 92.28397369384766 29.59518623352051 89.88570404052734 C 24.11771965026855 87.56893157958984 19.19813346862793 84.25196075439453 14.97309303283691 80.02691650390625 C 10.74804019927979 75.80186462402344 7.431066513061523 70.88229370117188 5.114293098449707 65.40481567382812 C 2.716026782989502 59.73468017578125 1.5 53.71062850952148 1.5 47.5 C 1.5 41.28937149047852 2.716026782989502 35.26533508300781 5.114293098449707 29.59518623352051 C 7.431066513061523 24.11771965026855 10.74804019927979 19.19813346862793 14.97309303283691 14.97309303283691 C 19.19813346862793 10.74804019927979 24.11771965026855 7.431066513061523 29.59518623352051 5.114293098449707 C 35.26533508300781 2.716026782989502 41.28937149047852 1.5 47.5 1.5 C 53.71062850952148 1.5 59.73468017578125 2.716026782989502 65.40481567382812 5.114293098449707 C 70.88229370117188 7.431066513061523 75.80186462402344 10.74804019927979 80.02691650390625 14.97309303283691 C 84.25196075439453 19.19813346862793 87.56893157958984 24.11771965026855 89.88570404052734 29.59518623352051 C 92.28397369384766 35.26533508300781 93.5 41.28937149047852 93.5 47.5 C 93.5 53.71062850952148 92.28397369384766 59.73468017578125 89.88570404052734 65.40481567382812 C 87.56893157958984 70.88229370117188 84.25196075439453 75.80186462402344 80.02691650390625 80.02691650390625 C 75.80186462402344 84.25196075439453 70.88229370117188 87.56893157958984 65.40481567382812 89.88570404052734 C 59.73468017578125 92.28397369384766 53.71062850952148 93.5 47.5 93.5 Z" stroke="none"/>
                      <path d="M 47.5 3 C 41.49121475219727 3 35.66376876831055 4.176155090332031 30.17950439453125 6.495796203613281 C 24.88084411621094 8.736953735351562 20.12152099609375 11.94598388671875 16.03375244140625 16.03375244140625 C 11.94598388671875 20.12152099609375 8.736953735351562 24.88084411621094 6.495796203613281 30.17950439453125 C 4.176155090332031 35.66376876831055 3 41.49121475219727 3 47.5 C 3 53.50878524780273 4.176155090332031 59.33623123168945 6.495796203613281 64.82049560546875 C 8.736953735351562 70.11915588378906 11.94598388671875 74.87847900390625 16.03375244140625 78.96624755859375 C 20.12152099609375 83.05401611328125 24.88084411621094 86.26304626464844 30.17950439453125 88.50419616699219 C 35.66376876831055 90.82384490966797 41.49121475219727 92 47.5 92 C 53.50878524780273 92 59.33623123168945 90.82384490966797 64.82049560546875 88.50419616699219 C 70.11915588378906 86.26304626464844 74.87847900390625 83.05401611328125 78.96624755859375 78.96624755859375 C 83.05401611328125 74.87847900390625 86.26304626464844 70.11915588378906 88.50419616699219 64.82049560546875 C 90.82384490966797 59.33623123168945 92 53.50878524780273 92 47.5 C 92 41.49121475219727 90.82384490966797 35.66376876831055 88.50419616699219 30.17950439453125 C 86.26304626464844 24.88084411621094 83.05401611328125 20.12152099609375 78.96624755859375 16.03375244140625 C 74.87847900390625 11.94598388671875 70.11915588378906 8.736953735351562 64.82049560546875 6.495796203613281 C 59.33623123168945 4.176155090332031 53.50878524780273 3 47.5 3 M 47.5 0 C 73.7335205078125 0 95 21.2664794921875 95 47.5 C 95 73.7335205078125 73.7335205078125 95 47.5 95 C 21.2664794921875 95 0 73.7335205078125 0 47.5 C 0 21.2664794921875 21.2664794921875 0 47.5 0 Z" stroke="none" fill="#f5b104"/>
                    </g>
                  </g>
                </g>
              </g>
            </g>
          </g>
        </g>
      </g>
    </g>
    <g id="FILLED_OUTLINE" transform="translate(4703.896 3044.525)">
      <rect id="Rectángulo_420929" data-name="Rectángulo 420929" width="47.715" height="39.04" rx="2" transform="translate(18.745 33.351)" fill="#4e89de"/>
      <path id="Trazado_1056360" data-name="Trazado 1056360" d="M112,176h39.04v30.364H112Z" transform="translate(-88.917 -138.311)" fill="#91bcfb"/>
      <circle id="Elipse_12549" data-name="Elipse 12549" cx="9.76" cy="9.76" r="9.76" transform="translate(32.843 43.111)" fill="#fcdcc8"/>
      <path id="Trazado_1056361" data-name="Trazado 1056361" d="M36.281,217.437l-.04-.04a2.561,2.561,0,0,0-3.622,0l-7.944,7.953V208l-4.152,4.152a4.338,4.338,0,0,0-1.27,3.067V228.6L16,234.026l5.422,13.013,5.422-8.675,2.208-1.1a6.507,6.507,0,0,0,3.508-6.889l-.294-1.766s2.9-5.223,4.461-8.025a2.629,2.629,0,0,0-.446-3.142Z" transform="translate(-5.93 -165.974)" fill="#fcdcc8"/>
      <path id="Trazado_1056362" data-name="Trazado 1056362" d="M358.456,228.6V215.219a4.338,4.338,0,0,0-1.271-3.067L353.034,208v17.351L345.09,217.4a2.56,2.56,0,0,0-3.622,0l-.04.04a2.629,2.629,0,0,0-.446,3.142c1.56,2.8,4.461,8.025,4.461,8.025l-.294,1.766a6.507,6.507,0,0,0,3.508,6.889l2.208,1.1,5.422,8.675,5.422-13.013Z" transform="translate(-286.573 -165.974)" fill="#fcdcc8"/>
      <path id="Trazado_1056363" data-name="Trazado 1056363" d="M240,256v8.675l6.507-4.338Z" transform="translate(-199.566 -207.467)" fill="#eabfac"/>
      <path id="Trazado_1056364" data-name="Trazado 1056364" d="M132.686,27.821l-2.126-.432a17.232,17.232,0,0,1,5.207-9.255l1.475,1.59a15.075,15.075,0,0,0-4.557,8.1Z" transform="translate(-104.961 -1.845)" fill="#a2cbf4"/>
      <path id="Trazado_1056365" data-name="Trazado 1056365" d="M128.038,105.786c-.025-.382-.038-.771-.038-1.156s.013-.773.038-1.156l2.164.142c-.022.335-.033.676-.033,1.013s.011.678.033,1.013Z" transform="translate(-102.748 -75.618)" fill="#a2cbf4"/>
      <path id="Trazado_1056366" data-name="Trazado 1056366" d="M369.919,105.786l-2.164-.142c.022-.335.033-.676.033-1.013s-.011-.678-.033-1.013l2.164-.142c.025.382.038.771.038,1.156S369.945,105.4,369.919,105.786Z" transform="translate(-310.003 -75.618)" fill="#a2cbf4"/>
      <circle id="Elipse_12550" data-name="Elipse 12550" cx="10.844" cy="10.844" r="10.844" transform="translate(31.759 17.084)" fill="#efb465"/>
      <path id="Trazado_1056367" data-name="Trazado 1056367" d="M250.169,24.054c-.357-.035-.718-.054-1.084-.054s-.728.019-1.084.054v3.2h2.169Z" transform="translate(-206.482 -6.916)" fill="#d7a25b"/>
      <path id="Trazado_1056368" data-name="Trazado 1056368" d="M292.551,42.062l-2.207,2.207,1.534,1.534,2.207-2.207a10.909,10.909,0,0,0-1.534-1.534Z" transform="translate(-243.085 -22.529)" fill="#d7a25b"/>
      <path id="Trazado_1056369" data-name="Trazado 1056369" d="M312,106.169h3.036a10.891,10.891,0,0,0,.217-2.169H312Z" transform="translate(-261.806 -76.071)" fill="#d7a25b"/>
      <path id="Trazado_1056370" data-name="Trazado 1056370" d="M291.877,138.343l-1.534,1.534,2.207,2.207a10.908,10.908,0,0,0,1.534-1.534Z" transform="translate(-243.085 -105.759)" fill="#d7a25b"/>
      <path id="Trazado_1056371" data-name="Trazado 1056371" d="M248,163.2c.357.035.718.054,1.084.054s.728-.019,1.084-.054V160H248Z" transform="translate(-206.482 -124.481)" fill="#d7a25b"/>
      <path id="Trazado_1056372" data-name="Trazado 1056372" d="M194.062,140.55a10.908,10.908,0,0,0,1.534,1.534l2.207-2.207-1.534-1.534Z" transform="translate(-159.855 -105.759)" fill="#d7a25b"/>
      <path id="Trazado_1056373" data-name="Trazado 1056373" d="M179.253,106.169V104H176a10.894,10.894,0,0,0,.217,2.169Z" transform="translate(-144.241 -76.071)" fill="#d7a25b"/>
      <path id="Trazado_1056374" data-name="Trazado 1056374" d="M194.062,43.6l2.207,2.207,1.534-1.534L195.6,42.061a10.908,10.908,0,0,0-1.534,1.534Z" transform="translate(-159.855 -22.529)" fill="#d7a25b"/>
      <path id="Trazado_1056375" data-name="Trazado 1056375" d="M227.877,73.442l-1.534-1.534,2.936-2.936V64h2.169v5.422a1.085,1.085,0,0,1-.318.767Z" transform="translate(-187.761 -41.493)" fill="#d7a25b"/>
      <path id="Trazado_1056376" data-name="Trazado 1056376" d="M335.422,26.49a15.265,15.265,0,0,0-4.757-8.279l1.446-1.616a17.449,17.449,0,0,1,5.436,9.463Z" transform="translate(-277.941 -0.514)" fill="#a2cbf4"/>
      <g id="Grupo_1210852" data-name="Grupo 1210852" transform="translate(9.14 16)">
        <path id="Trazado_1056377" data-name="Trazado 1056377" d="M72.967,166.063V152.979a5.387,5.387,0,0,0-1.588-3.834l-3.834-3.834v-6.057A3.257,3.257,0,0,0,64.292,136H55.616v2.169h8.675a1.086,1.086,0,0,1,1.084,1.084V160.49l-2.169-2.171v-16.9a1.084,1.084,0,0,0-1.084-1.084h-9.76v2.169h8.675v13.641l-1.754-1.756a3.621,3.621,0,0,0-2.578-1.069h0a3.621,3.621,0,0,0-2.577,1.067l-.041.04a3.733,3.733,0,0,0-.627,4.436c1.324,2.379,3.615,6.5,4.277,7.693l-.232,1.393a7.636,7.636,0,0,0,.04,2.75H27.66a7.636,7.636,0,0,0,.04-2.75l-.232-1.393c.662-1.192,2.953-5.314,4.277-7.693a3.733,3.733,0,0,0-.628-4.437l-.039-.039a3.621,3.621,0,0,0-2.577-1.068h0a3.621,3.621,0,0,0-2.578,1.069l-1.754,1.756V142.506h8.675v-2.169h-9.76A1.084,1.084,0,0,0,22,141.422v16.9L19.83,160.49V139.253a1.086,1.086,0,0,1,1.084-1.084H29.59V136H20.914a3.257,3.257,0,0,0-3.253,3.253v6.057l-3.834,3.834a5.387,5.387,0,0,0-1.588,3.834v13.085l-3.1,5.165L11,172.344l3.253-5.422a1.084,1.084,0,0,0,.155-.558V152.979a3.232,3.232,0,0,1,.953-2.3l2.3-2.3v14.733a1.084,1.084,0,0,0,1.852.766l7.944-7.953a1.466,1.466,0,0,1,1.044-.433h0a1.467,1.467,0,0,1,1.044.433l.039.039a1.536,1.536,0,0,1,.266,1.848c-1.56,2.8-4.462,8.026-4.462,8.026a1.085,1.085,0,0,0-.122.7l.294,1.766a5.4,5.4,0,0,1-2.924,5.741l-2.208,1.1a1.084,1.084,0,0,0-.435.4l-5.422,8.675,1.839,1.15,5.1-8.166H63.691l5.1,8.166,1.839-1.15-5.422-8.675a1.084,1.084,0,0,0-.435-.4l-2.208-1.1a5.4,5.4,0,0,1-2.924-5.741l.294-1.766a1.084,1.084,0,0,0-.122-.7s-2.9-5.223-4.462-8.026a1.536,1.536,0,0,1,.265-1.847l.041-.041a1.466,1.466,0,0,1,1.044-.432h0a1.466,1.466,0,0,1,1.044.433l7.944,7.953a1.084,1.084,0,0,0,1.852-.766V148.378l2.3,2.3a3.233,3.233,0,0,1,.953,2.3v13.385a1.084,1.084,0,0,0,.155.558l3.253,5.422,1.86-1.116Zm-12.828,8.976H25.067a7.539,7.539,0,0,0,1.8-2.169H58.339a7.54,7.54,0,0,0,1.8,2.169Z" transform="translate(-9.14 -119.733)"/>
        <path id="Trazado_1056378" data-name="Trazado 1056378" d="M233.085,258.844a1.083,1.083,0,0,0,.6-.182l6.507-4.338a1.084,1.084,0,0,0,0-1.8l-6.507-4.338a1.084,1.084,0,0,0-1.686.9v8.675a1.084,1.084,0,0,0,1.084,1.084Zm1.085-7.734,3.467,2.311-3.467,2.311Z" transform="translate(-201.791 -216.551)"/>
        <path id="Trazado_1056379" data-name="Trazado 1056379" d="M179.929,39.857A11.929,11.929,0,1,0,168,27.929a11.929,11.929,0,0,0,11.929,11.929Zm-7.621-18.016,1.432,1.432,1.534-1.534-1.432-1.432a9.712,9.712,0,0,1,5-2.077v2.107h2.169V18.231a9.712,9.712,0,0,1,5,2.077l-1.432,1.432,1.534,1.534,1.432-1.432a9.71,9.71,0,0,1,2.139,6.087H187.52V30.1h1.923a9.727,9.727,0,0,1-1.893,3.918l-1.432-1.432-1.534,1.534,1.432,1.432a9.712,9.712,0,0,1-5,2.077V35.52h-2.169v2.107a9.712,9.712,0,0,1-5-2.077l1.432-1.432-1.534-1.534-1.432,1.432a9.728,9.728,0,0,1-1.893-3.918h1.923V27.929h-2.169a9.711,9.711,0,0,1,2.139-6.087Z" transform="translate(-146.466 -16)"/>
        <path id="Trazado_1056380" data-name="Trazado 1056380" d="M231.13,70.189a1.085,1.085,0,0,0,.318-.767V64h-2.169v4.973l-2.936,2.936,1.534,1.534Z" transform="translate(-196.901 -57.493)"/>
        <path id="Trazado_1056381" data-name="Trazado 1056381" d="M137.242,19.725l-1.475-1.59a17.232,17.232,0,0,0-5.207,9.255l2.126.432a15.075,15.075,0,0,1,4.557-8.1Z" transform="translate(-114.101 -17.845)"/>
        <path id="Trazado_1056382" data-name="Trazado 1056382" d="M130.2,105.645c-.022-.335-.033-.676-.033-1.013s.011-.678.033-1.013l-2.164-.142c-.025.382-.038.771-.038,1.156s.013.773.038,1.156Z" transform="translate(-111.888 -91.618)"/>
        <path id="Trazado_1056383" data-name="Trazado 1056383" d="M367.788,104.631c0,.337-.011.678-.033,1.013l2.164.142c.025-.382.038-.771.038-1.156s-.013-.773-.038-1.156l-2.164.142C367.777,103.953,367.788,104.294,367.788,104.631Z" transform="translate(-319.143 -91.618)"/>
        <path id="Trazado_1056384" data-name="Trazado 1056384" d="M335.422,26.49l2.126-.432a17.449,17.449,0,0,0-5.436-9.463l-1.447,1.616a15.266,15.266,0,0,1,4.757,8.279Z" transform="translate(-287.081 -16.514)"/>
        <path id="Trazado_1056385" data-name="Trazado 1056385" d="M186.82,316.562l-1.927,1a10.848,10.848,0,0,0,19.355-.153l-1.942-.965a8.679,8.679,0,0,1-15.486.123Z" transform="translate(-161.069 -275.714)"/>
        <path id="Trazado_1056386" data-name="Trazado 1056386" d="M190.781,208a10.863,10.863,0,0,0-10.227,7.23l2.045.723a8.679,8.679,0,0,1,16.364,0l2.045-.723A10.863,10.863,0,0,0,190.781,208Z" transform="translate(-157.318 -181.974)"/>
      </g>
    </g>
  </g>
</svg>
