<svg xmlns="http://www.w3.org/2000/svg" xmlns:xlink="http://www.w3.org/1999/xlink" width="113" height="113" viewBox="0 0 113 113">
  <defs>
    <filter id="Trazado_982547" x="0" y="0" width="113" height="113" filterUnits="userSpaceOnUse">
      <feOffset dy="3" input="SourceAlpha"/>
      <feGaussianBlur stdDeviation="3" result="blur"/>
      <feFlood flood-opacity="0.161"/>
      <feComposite operator="in" in2="blur"/>
      <feComposite in="SourceGraphic"/>
    </filter>
  </defs>
  <g id="Grupo_1210956" data-name="Grupo 1210956" transform="translate(-5042.509 -3039.846)">
    <g id="Grupo_1210739" data-name="Grupo 1210739" transform="translate(5051.509 3045.846)">
      <g id="Grupo_1210537" data-name="Grupo 1210537" transform="translate(0)">
        <g id="Grupo_1164202" data-name="Grupo 1164202">
          <g id="Grupo_1158168" data-name="Grupo 1158168">
            <g id="Grupo_1152576" data-name="Grupo 1152576">
              <g id="Grupo_1148633" data-name="Grupo 1148633">
                <g id="Grupo_1148525" data-name="Grupo 1148525">
                  <g transform="matrix(1, 0, 0, 1, -9, -6)" filter="url(#Trazado_982547)">
                    <g id="Trazado_982547-2" data-name="Trazado 982547" transform="translate(9 6)" fill="#fdf6e4">
                      <path d="M 47.5 93.5 C 41.28937149047852 93.5 35.26533508300781 92.28397369384766 29.59518623352051 89.88570404052734 C 24.11771965026855 87.56893157958984 19.19813346862793 84.25196075439453 14.97309303283691 80.02691650390625 C 10.74804019927979 75.80186462402344 7.431066513061523 70.88229370117188 5.114293098449707 65.40481567382812 C 2.716026782989502 59.73468017578125 1.5 53.71062850952148 1.5 47.5 C 1.5 41.28937149047852 2.716026782989502 35.26533508300781 5.114293098449707 29.59518623352051 C 7.431066513061523 24.11771965026855 10.74804019927979 19.19813346862793 14.97309303283691 14.97309303283691 C 19.19813346862793 10.74804019927979 24.11771965026855 7.431066513061523 29.59518623352051 5.114293098449707 C 35.26533508300781 2.716026782989502 41.28937149047852 1.5 47.5 1.5 C 53.71062850952148 1.5 59.73468017578125 2.716026782989502 65.40481567382812 5.114293098449707 C 70.88229370117188 7.431066513061523 75.80186462402344 10.74804019927979 80.02691650390625 14.97309303283691 C 84.25196075439453 19.19813346862793 87.56893157958984 24.11771965026855 89.88570404052734 29.59518623352051 C 92.28397369384766 35.26533508300781 93.5 41.28937149047852 93.5 47.5 C 93.5 53.71062850952148 92.28397369384766 59.73468017578125 89.88570404052734 65.40481567382812 C 87.56893157958984 70.88229370117188 84.25196075439453 75.80186462402344 80.02691650390625 80.02691650390625 C 75.80186462402344 84.25196075439453 70.88229370117188 87.56893157958984 65.40481567382812 89.88570404052734 C 59.73468017578125 92.28397369384766 53.71062850952148 93.5 47.5 93.5 Z" stroke="none"/>
                      <path d="M 47.5 3 C 41.49121475219727 3 35.66376876831055 4.176155090332031 30.17950439453125 6.495796203613281 C 24.88084411621094 8.736953735351562 20.12152099609375 11.94598388671875 16.03375244140625 16.03375244140625 C 11.94598388671875 20.12152099609375 8.736953735351562 24.88084411621094 6.495796203613281 30.17950439453125 C 4.176155090332031 35.66376876831055 3 41.49121475219727 3 47.5 C 3 53.50878524780273 4.176155090332031 59.33623123168945 6.495796203613281 64.82049560546875 C 8.736953735351562 70.11915588378906 11.94598388671875 74.87847900390625 16.03375244140625 78.96624755859375 C 20.12152099609375 83.05401611328125 24.88084411621094 86.26304626464844 30.17950439453125 88.50419616699219 C 35.66376876831055 90.82384490966797 41.49121475219727 92 47.5 92 C 53.50878524780273 92 59.33623123168945 90.82384490966797 64.82049560546875 88.50419616699219 C 70.11915588378906 86.26304626464844 74.87847900390625 83.05401611328125 78.96624755859375 78.96624755859375 C 83.05401611328125 74.87847900390625 86.26304626464844 70.11915588378906 88.50419616699219 64.82049560546875 C 90.82384490966797 59.33623123168945 92 53.50878524780273 92 47.5 C 92 41.49121475219727 90.82384490966797 35.66376876831055 88.50419616699219 30.17950439453125 C 86.26304626464844 24.88084411621094 83.05401611328125 20.12152099609375 78.96624755859375 16.03375244140625 C 74.87847900390625 11.94598388671875 70.11915588378906 8.736953735351562 64.82049560546875 6.495796203613281 C 59.33623123168945 4.176155090332031 53.50878524780273 3 47.5 3 M 47.5 0 C 73.7335205078125 0 95 21.2664794921875 95 47.5 C 95 73.7335205078125 73.7335205078125 95 47.5 95 C 21.2664794921875 95 0 73.7335205078125 0 47.5 C 0 21.2664794921875 21.2664794921875 0 47.5 0 Z" stroke="none" fill="#f5b104"/>
                    </g>
                  </g>
                </g>
              </g>
            </g>
          </g>
        </g>
      </g>
    </g>
    <g id="Icons" transform="translate(5063.945 3049.83)">
      <g id="Grupo_1210854" data-name="Grupo 1210854" transform="translate(3.861 10.563)">
        <path id="Trazado_1056387" data-name="Trazado 1056387" d="M63.57,221.222H11.259a4.9,4.9,0,0,1-4.9-4.9,2.556,2.556,0,0,1,2.556-2.556h57a2.556,2.556,0,0,1,2.556,2.556,4.9,4.9,0,0,1-4.9,4.9Z" transform="translate(-5.721 -161.83)" fill="#afafaf"/>
        <path id="Trazado_1056388" data-name="Trazado 1056388" d="M75.883,67.006v35.609H21.526V67.006a2.557,2.557,0,0,1,2.556-2.556H73.327A2.557,2.557,0,0,1,75.883,67.006Z" transform="translate(-17.011 -50.677)" fill="#afafaf"/>
        <path id="Trazado_1056389" data-name="Trazado 1056389" d="M34.526,77.45H82.237v31.519H34.526Z" transform="translate(-26.688 -60.354)" fill="#f0c020"/>
        <path id="Trazado_1056390" data-name="Trazado 1056390" d="M107.834,64.45a11.15,11.15,0,0,1-6.962,6.773v.56a3.509,3.509,0,0,1-7.019,0v-.56a11.15,11.15,0,0,1-6.962-6.773Z" transform="translate(-65.669 -50.677)" fill="#878787"/>
        <path id="Trazado_1056391" data-name="Trazado 1056391" d="M111.481,77.45a11.142,11.142,0,0,1-5.056,3.45v.56a3.509,3.509,0,0,1-7.019,0V80.9a11.142,11.142,0,0,1-5.056-3.45Z" transform="translate(-71.223 -60.354)" fill="#e8a61e"/>
        <path id="Trazado_1056392" data-name="Trazado 1056392" d="M113.573,217.494h-7.157a2.556,2.556,0,0,1-2.556-2.556v-1.171h12.268v1.171A2.556,2.556,0,0,1,113.573,217.494Z" transform="translate(-78.302 -161.83)" fill="#878787"/>
        <path id="Trazado_1056393" data-name="Trazado 1056393" d="M94.043,29.008a9.3,9.3,0,0,0,4.887,2.577v1.941a1.719,1.719,0,1,0,3.438,0V31.585a9.343,9.343,0,1,0-8.326-2.577Z" transform="translate(-68.956 -12.42)" fill="#13bf6d"/>
        <path id="Trazado_1056394" data-name="Trazado 1056394" d="M117.254,37.976,113,42.227a2.045,2.045,0,0,1-2.892,0L107.7,39.819a1.726,1.726,0,1,1,2.441-2.441l1.413,1.413,3.256-3.256a1.726,1.726,0,0,1,2.441,2.441Z" transform="translate(-80.785 -28.776)" fill="#efefef"/>
        <path id="Trazado_1056395" data-name="Trazado 1056395" d="M54.232,29.085c-.839-.275-1.482-.459-1.916-2.327a.639.639,0,0,0-1.245,0c-.426,1.835-1.019,2.031-1.916,2.327a.64.64,0,0,0,0,1.214c1.49.493,1.66,1.222,1.916,2.327a.639.639,0,0,0,1.245,0c.426-1.835,1.019-2.03,1.916-2.327A.64.64,0,0,0,54.232,29.085Z" transform="translate(-37.253 -22.252)"/>
        <path id="Trazado_1056396" data-name="Trazado 1056396" d="M58.69,36.9a3.031,3.031,0,0,0-.823.925,3.154,3.154,0,0,0-.872-.918,2.983,2.983,0,0,0,.861-.969A3.129,3.129,0,0,0,58.69,36.9Z" transform="translate(-43.414 -29.449)" fill="#f0c020"/>
        <path id="Trazado_1056397" data-name="Trazado 1056397" d="M189.232,29.085c-.839-.275-1.482-.459-1.916-2.327a.639.639,0,0,0-1.245,0c-.426,1.835-1.019,2.031-1.916,2.327a.64.64,0,0,0,0,1.214c1.49.493,1.66,1.222,1.916,2.327a.639.639,0,0,0,1.245,0c.426-1.835,1.019-2.03,1.916-2.327a.64.64,0,0,0,0-1.214Z" transform="translate(-137.748 -22.252)"/>
        <path id="Trazado_1056398" data-name="Trazado 1056398" d="M193.69,36.9a3.031,3.031,0,0,0-.823.925,3.155,3.155,0,0,0-.872-.918,2.983,2.983,0,0,0,.861-.969A3.129,3.129,0,0,0,193.69,36.9Z" transform="translate(-143.91 -29.449)" fill="#f0c020"/>
        <path id="Trazado_1056399" data-name="Trazado 1056399" d="M42.667,112.638a.639.639,0,0,1-.639-.639v-.767a.639.639,0,1,1,1.278,0V112A.639.639,0,0,1,42.667,112.638Zm0-3.323a.639.639,0,0,1-.639-.639V85.593a.639.639,0,0,1,1.278,0v23.083A.639.639,0,0,1,42.667,109.315Z" transform="translate(-32.273 -65.94)" fill="#f8e5b0"/>
        <path id="Trazado_1056400" data-name="Trazado 1056400" d="M209.334,112.638A.639.639,0,0,1,208.7,112V88.916a.639.639,0,0,1,1.278,0V112A.639.639,0,0,1,209.334,112.638Zm0-25.639a.639.639,0,0,1-.639-.639v-.767a.639.639,0,0,1,1.278,0v.767A.639.639,0,0,1,209.334,87Z" transform="translate(-156.341 -65.94)" fill="#f8e5b0"/>
        <path id="Trazado_1056401" data-name="Trazado 1056401" d="M64.053,61.861H63.37V26.891A3.2,3.2,0,0,0,60.175,23.7H45.028A9.99,9.99,0,0,0,35.2,10.567a.64.64,0,0,0-.619.659.632.632,0,0,0,.659.619A8.7,8.7,0,0,1,37.156,29.1a.639.639,0,0,0-.522.628v1.941a1.08,1.08,0,0,1-2.161,0V29.727a.639.639,0,0,0-.522-.628A8.7,8.7,0,0,1,30.77,13.271a.64.64,0,0,0,.179-.887.652.652,0,0,0-.882-.181h0A9.987,9.987,0,0,0,26.082,23.7H10.933a3.2,3.2,0,0,0-3.195,3.195V49.721a.639.639,0,0,0,1.278,0V26.891a1.919,1.919,0,0,1,1.917-1.917H26.609a9.9,9.9,0,0,0,1.351,2.045H11.7a.639.639,0,0,0-.639.639V59.177a.639.639,0,0,0,.639.639H59.409a.639.639,0,0,0,.639-.639V27.658a.639.639,0,0,0-.639-.639H43.149A9.948,9.948,0,0,0,44.5,24.974H60.175a1.919,1.919,0,0,1,1.917,1.917v34.97H9.016V54.833a.639.639,0,0,0-1.278,0v7.029H7.056a3.2,3.2,0,0,0-3.195,3.195,5.544,5.544,0,0,0,5.531,5.538H48.929a.639.639,0,1,0,0-1.278H9.4a4.265,4.265,0,0,1-4.26-4.26A1.919,1.919,0,0,1,7.056,63.14H28.781v.532a3.2,3.2,0,0,0,3.195,3.195h7.157a3.2,3.2,0,0,0,3.195-3.195V63.14H64.053a1.919,1.919,0,0,1,1.917,1.917,4.265,4.265,0,0,1-4.26,4.26H54.041a.639.639,0,0,0,0,1.278h7.676a5.544,5.544,0,0,0,5.531-5.538,3.2,3.2,0,0,0-3.195-3.2ZM58.77,58.538H12.339V28.3H29.274A9.9,9.9,0,0,0,33.2,30.244v1.424a2.358,2.358,0,0,0,4.716,0V30.244A9.9,9.9,0,0,0,41.834,28.3H58.77Zm-17.72,5.133a1.919,1.919,0,0,1-1.917,1.917H31.976a1.919,1.919,0,0,1-1.917-1.917v-.532h10.99Z" transform="translate(-3.861 -10.563)"/>
        <path id="Trazado_1056402" data-name="Trazado 1056402" d="M105.389,35.063a2.362,2.362,0,0,0,0,3.345l2.408,2.408a2.687,2.687,0,0,0,3.8,0l4.251-4.251a2.365,2.365,0,0,0-3.344-3.344l-2.8,2.8-.962-.962a2.363,2.363,0,0,0-3.343,0Zm3.853,2.318a.639.639,0,0,0,.9,0l3.256-3.256a1.087,1.087,0,1,1,1.537,1.537l-4.251,4.251a1.405,1.405,0,0,1-1.988,0L106.292,37.5a1.087,1.087,0,0,1,1.537-1.537Z" transform="translate(-78.922 -26.914)"/>
        <path id="Trazado_1056403" data-name="Trazado 1056403" d="M115.078,13.516a.639.639,0,1,0-.805-.414A.638.638,0,0,0,115.078,13.516Z" transform="translate(-86.03 -11.833)"/>
        <circle id="Elipse_12551" data-name="Elipse 12551" cx="0.639" cy="0.639" r="0.639" transform="translate(3.877 41.074)"/>
        <circle id="Elipse_12552" data-name="Elipse 12552" cx="0.639" cy="0.639" r="0.639" transform="translate(46.985 58.753)"/>
        <path id="Trazado_1056404" data-name="Trazado 1056404" d="M72.833,134.86a.639.639,0,0,0-.639.639v2.327a.639.639,0,0,0,1.278,0V135.5A.639.639,0,0,0,72.833,134.86Z" transform="translate(-54.729 -103.091)"/>
        <path id="Trazado_1056405" data-name="Trazado 1056405" d="M86.25,126.763a.639.639,0,0,0-.639.639v6.466a.639.639,0,0,0,1.278,0V127.4A.639.639,0,0,0,86.25,126.763Z" transform="translate(-64.716 -97.063)"/>
        <path id="Trazado_1056406" data-name="Trazado 1056406" d="M99.667,134.86a.639.639,0,0,0-.639.639v2.327a.639.639,0,1,0,1.278,0V135.5A.639.639,0,0,0,99.667,134.86Z" transform="translate(-74.704 -103.091)"/>
        <path id="Trazado_1056407" data-name="Trazado 1056407" d="M113.083,126.763a.639.639,0,0,0-.639.639v6.466a.639.639,0,0,0,1.278,0V127.4A.639.639,0,0,0,113.083,126.763Z" transform="translate(-84.691 -97.063)"/>
        <path id="Trazado_1056408" data-name="Trazado 1056408" d="M126.5,116.33a.639.639,0,0,0-.639.639v11.8a.639.639,0,0,0,1.278,0v-11.8A.639.639,0,0,0,126.5,116.33Z" transform="translate(-94.679 -89.297)"/>
        <path id="Trazado_1056409" data-name="Trazado 1056409" d="M139.917,126.763a.639.639,0,0,0-.639.639v6.466a.639.639,0,0,0,1.278,0V127.4A.639.639,0,0,0,139.917,126.763Z" transform="translate(-104.667 -97.063)"/>
        <path id="Trazado_1056410" data-name="Trazado 1056410" d="M153.333,138.466a.639.639,0,0,0,.639-.639V135.5a.639.639,0,0,0-1.278,0v2.327A.639.639,0,0,0,153.333,138.466Z" transform="translate(-114.654 -103.092)"/>
        <path id="Trazado_1056411" data-name="Trazado 1056411" d="M166.75,134.507a.639.639,0,0,0,.639-.639V127.4a.639.639,0,1,0-1.278,0v6.466A.639.639,0,0,0,166.75,134.507Z" transform="translate(-124.641 -97.063)"/>
        <path id="Trazado_1056412" data-name="Trazado 1056412" d="M180.167,138.466a.639.639,0,0,0,.639-.639V135.5a.639.639,0,0,0-1.278,0v2.327A.639.639,0,0,0,180.167,138.466Z" transform="translate(-134.629 -103.092)"/>
      </g>
    </g>
  </g>
</svg>
