<svg xmlns="http://www.w3.org/2000/svg" xmlns:xlink="http://www.w3.org/1999/xlink" width="113" height="113" viewBox="0 0 113 113">
  <defs>
    <filter id="Trazado_982547" x="0" y="0" width="113" height="113" filterUnits="userSpaceOnUse">
      <feOffset dy="3" input="SourceAlpha"/>
      <feGaussianBlur stdDeviation="3" result="blur"/>
      <feFlood flood-opacity="0.161"/>
      <feComposite operator="in" in2="blur"/>
      <feComposite in="SourceGraphic"/>
    </filter>
  </defs>
  <g id="Grupo_1210957" data-name="Grupo 1210957" transform="translate(-5395.509 -3039.846)">
    <g id="Grupo_1210740" data-name="Grupo 1210740" transform="translate(5404.509 3045.846)">
      <g id="Grupo_1210537" data-name="Grupo 1210537" transform="translate(0)">
        <g id="Grupo_1164202" data-name="Grupo 1164202">
          <g id="Grupo_1158168" data-name="Grupo 1158168">
            <g id="Grupo_1152576" data-name="Grupo 1152576">
              <g id="Grupo_1148633" data-name="Grupo 1148633">
                <g id="Grupo_1148525" data-name="Grupo 1148525">
                  <g transform="matrix(1, 0, 0, 1, -9, -6)" filter="url(#Trazado_982547)">
                    <g id="Trazado_982547-2" data-name="Trazado 982547" transform="translate(9 6)" fill="#fdf6e4">
                      <path d="M 47.5 93.5 C 41.28937149047852 93.5 35.26533508300781 92.28397369384766 29.59518623352051 89.88570404052734 C 24.11771965026855 87.56893157958984 19.19813346862793 84.25196075439453 14.97309303283691 80.02691650390625 C 10.74804019927979 75.80186462402344 7.431066513061523 70.88229370117188 5.114293098449707 65.40481567382812 C 2.716026782989502 59.73468017578125 1.5 53.71062850952148 1.5 47.5 C 1.5 41.28937149047852 2.716026782989502 35.26533508300781 5.114293098449707 29.59518623352051 C 7.431066513061523 24.11771965026855 10.74804019927979 19.19813346862793 14.97309303283691 14.97309303283691 C 19.19813346862793 10.74804019927979 24.11771965026855 7.431066513061523 29.59518623352051 5.114293098449707 C 35.26533508300781 2.716026782989502 41.28937149047852 1.5 47.5 1.5 C 53.71062850952148 1.5 59.73468017578125 2.716026782989502 65.40481567382812 5.114293098449707 C 70.88229370117188 7.431066513061523 75.80186462402344 10.74804019927979 80.02691650390625 14.97309303283691 C 84.25196075439453 19.19813346862793 87.56893157958984 24.11771965026855 89.88570404052734 29.59518623352051 C 92.28397369384766 35.26533508300781 93.5 41.28937149047852 93.5 47.5 C 93.5 53.71062850952148 92.28397369384766 59.73468017578125 89.88570404052734 65.40481567382812 C 87.56893157958984 70.88229370117188 84.25196075439453 75.80186462402344 80.02691650390625 80.02691650390625 C 75.80186462402344 84.25196075439453 70.88229370117188 87.56893157958984 65.40481567382812 89.88570404052734 C 59.73468017578125 92.28397369384766 53.71062850952148 93.5 47.5 93.5 Z" stroke="none"/>
                      <path d="M 47.5 3 C 41.49121475219727 3 35.66376876831055 4.176155090332031 30.17950439453125 6.495796203613281 C 24.88084411621094 8.736953735351562 20.12152099609375 11.94598388671875 16.03375244140625 16.03375244140625 C 11.94598388671875 20.12152099609375 8.736953735351562 24.88084411621094 6.495796203613281 30.17950439453125 C 4.176155090332031 35.66376876831055 3 41.49121475219727 3 47.5 C 3 53.50878524780273 4.176155090332031 59.33623123168945 6.495796203613281 64.82049560546875 C 8.736953735351562 70.11915588378906 11.94598388671875 74.87847900390625 16.03375244140625 78.96624755859375 C 20.12152099609375 83.05401611328125 24.88084411621094 86.26304626464844 30.17950439453125 88.50419616699219 C 35.66376876831055 90.82384490966797 41.49121475219727 92 47.5 92 C 53.50878524780273 92 59.33623123168945 90.82384490966797 64.82049560546875 88.50419616699219 C 70.11915588378906 86.26304626464844 74.87847900390625 83.05401611328125 78.96624755859375 78.96624755859375 C 83.05401611328125 74.87847900390625 86.26304626464844 70.11915588378906 88.50419616699219 64.82049560546875 C 90.82384490966797 59.33623123168945 92 53.50878524780273 92 47.5 C 92 41.49121475219727 90.82384490966797 35.66376876831055 88.50419616699219 30.17950439453125 C 86.26304626464844 24.88084411621094 83.05401611328125 20.12152099609375 78.96624755859375 16.03375244140625 C 74.87847900390625 11.94598388671875 70.11915588378906 8.736953735351562 64.82049560546875 6.495796203613281 C 59.33623123168945 4.176155090332031 53.50878524780273 3 47.5 3 M 47.5 0 C 73.7335205078125 0 95 21.2664794921875 95 47.5 C 95 73.7335205078125 73.7335205078125 95 47.5 95 C 21.2664794921875 95 0 73.7335205078125 0 47.5 C 0 21.2664794921875 21.2664794921875 0 47.5 0 Z" stroke="none" fill="#f5b104"/>
                    </g>
                  </g>
                </g>
              </g>
            </g>
          </g>
        </g>
      </g>
    </g>
    <g id="movie_9074707_1_" data-name="movie_9074707 (1)" transform="translate(5414.07 3060.406)">
      <path id="Trazado_1056413" data-name="Trazado 1056413" d="M7.5,7.5V52.045H68.379V7.5ZM17.523,48.333H13.811a1.856,1.856,0,1,1,0-3.712h3.712a1.856,1.856,0,1,1,0,3.712Zm0-33.409H13.811a1.856,1.856,0,1,1,0-3.712h3.712a1.856,1.856,0,1,1,0,3.712Zm11.136,0H24.947a1.856,1.856,0,1,1,0-3.712h3.712a1.856,1.856,0,1,1,0,3.712Zm11.136,0H36.083a1.856,1.856,0,1,1,0-3.712H39.8a1.856,1.856,0,1,1,0,3.712Zm11.136,0H47.22a1.856,1.856,0,1,1,0-3.712h3.712a1.856,1.856,0,1,1,0,3.712ZM62.068,48.333H58.356a1.856,1.856,0,1,1,0-3.712h3.712a1.856,1.856,0,1,1,0,3.712Zm0-33.409H58.356a1.856,1.856,0,1,1,0-3.712h3.712a1.856,1.856,0,1,1,0,3.712Z" transform="translate(0 0)" fill="#528fd8"/>
      <rect id="Rectángulo_420930" data-name="Rectángulo 420930" width="3.712" height="44.545" transform="translate(64.667 7.5)" fill="#0573ce"/>
      <path id="Trazado_1056414" data-name="Trazado 1056414" d="M107.393,216.179A18.965,18.965,0,0,0,93.05,197.811a5.566,5.566,0,0,0-4.589-2.42,20.587,20.587,0,0,0-12.56,4.233,21.027,21.027,0,0,0-6.064,7.337A5.584,5.584,0,0,0,65.89,209.5h2.154a1.856,1.856,0,1,1,0,3.712h-2.97a5.541,5.541,0,0,0,.992,2.505l.862,1.207h40.449C107.386,216.675,107.393,216.427,107.393,216.179Z" transform="translate(-50.522 -164.876)" fill="#0573ce"/>
      <path id="Trazado_1056415" data-name="Trazado 1056415" d="M190.013,121.719V105.531a2.47,2.47,0,0,1,3.7-2.145l14.165,8.094a2.47,2.47,0,0,1,0,4.289l-14.165,8.094A2.47,2.47,0,0,1,190.013,121.719Z" transform="translate(-160.157 -83.852)" fill="#ffe177"/>
      <path id="Trazado_1056416" data-name="Trazado 1056416" d="M193.709,204.887l11.169-6.382a18.755,18.755,0,0,0-2.193-.694,5.566,5.566,0,0,0-4.589-2.42,20.633,20.633,0,0,0-8.083,1.631v5.721A2.47,2.47,0,0,0,193.709,204.887Z" transform="translate(-160.157 -164.876)" fill="#ffd15b"/>
      <circle id="Elipse_12553" data-name="Elipse 12553" cx="15.22" cy="15.22" r="15.22" transform="translate(22.72 36.083)" fill="#dff6fd"/>
      <path id="Trazado_1056417" data-name="Trazado 1056417" d="M170.845,259.021a15.222,15.222,0,0,1-20.922,20.922,15.221,15.221,0,1,0,20.922-20.922Z" transform="translate(-124.977 -220.712)" fill="#c8effe"/>
      <path id="Trazado_1056418" data-name="Trazado 1056418" d="M114.723,225.7A17.106,17.106,0,0,0,98.34,237.954a1.855,1.855,0,0,0-2.992,2.194l2.645,3.7a1.856,1.856,0,0,0,2.589.431l3.7-2.645a1.856,1.856,0,1,0-2.158-3.02l-.136.1a13.387,13.387,0,0,1,12.733-9.306,1.856,1.856,0,0,0,0-3.712Z" transform="translate(-76.784 -191.468)" fill="#fe646f"/>
      <path id="Trazado_1056419" data-name="Trazado 1056419" d="M242.7,368.878a17.106,17.106,0,0,0,16.383-12.259,1.855,1.855,0,0,0,2.992-2.194l-2.645-3.7a1.856,1.856,0,0,0-2.589-.431l-3.7,2.645a1.856,1.856,0,1,0,2.158,3.02l.136-.1a13.387,13.387,0,0,1-12.733,9.306,1.856,1.856,0,1,0,0,3.712Z" transform="translate(-204.764 -300.499)" fill="#fd4755"/>
      <path id="Trazado_1056420" data-name="Trazado 1056420" d="M190.016,120.119V105.533a2.469,2.469,0,0,1,3.695-2.144l14.165,8.094a2.47,2.47,0,0,1,0,4.289l-7.57,4.326" transform="translate(-160.159 -83.854)" fill="none" stroke="#000" stroke-linecap="round" stroke-linejoin="round" stroke-miterlimit="10" stroke-width="1.2"/>
      <path id="Trazado_1056421" data-name="Trazado 1056421" d="M17.523,14.924H13.811a1.856,1.856,0,1,1,0-3.712h3.712a1.856,1.856,0,1,1,0,3.712Zm11.136,0H24.947a1.856,1.856,0,1,1,0-3.712h3.712a1.856,1.856,0,1,1,0,3.712Zm11.136,0H36.083a1.856,1.856,0,1,1,0-3.712H39.8a1.856,1.856,0,1,1,0,3.712Zm11.136,0H47.22a1.856,1.856,0,1,1,0-3.712h3.712a1.856,1.856,0,1,1,0,3.712ZM62.068,48.333H58.356a1.856,1.856,0,1,1,0-3.712h3.712a1.856,1.856,0,1,1,0,3.712Zm0-33.409H58.356a1.856,1.856,0,1,1,0-3.712h3.712a1.856,1.856,0,1,1,0,3.712ZM19.292,45.918a1.856,1.856,0,0,0-1.769-1.3H13.811a1.856,1.856,0,1,0,0,3.712h3.712a1.835,1.835,0,0,0,.781-.173M68.379,21.349v30.7H56.094M7.5,46.472v5.573H20.846M7.5,42.185V7.5H68.379v9.562" transform="translate(0 0)" fill="none" stroke="#000" stroke-linecap="round" stroke-linejoin="round" stroke-miterlimit="10" stroke-width="1.2"/>
      <path id="Trazado_1056422" data-name="Trazado 1056422" d="M353.287,291.6a15.159,15.159,0,0,0-3.637-8.149" transform="translate(-300.239 -242.148)" fill="none" stroke="#000" stroke-linecap="round" stroke-linejoin="round" stroke-miterlimit="10" stroke-width="1.2"/>
      <path id="Trazado_1056423" data-name="Trazado 1056423" d="M277.507,244.079a15.131,15.131,0,0,0-6.387-2.309" transform="translate(-231.329 -205.574)" fill="none" stroke="#000" stroke-linecap="round" stroke-linejoin="round" stroke-miterlimit="10" stroke-width="1.2"/>
      <path id="Trazado_1056424" data-name="Trazado 1056424" d="M132.67,380.22a15.226,15.226,0,0,0,13.255,13.256" transform="translate(-109.838 -327.065)" fill="none" stroke="#000" stroke-linecap="round" stroke-linejoin="round" stroke-miterlimit="10" stroke-width="1.2"/>
      <path id="Trazado_1056425" data-name="Trazado 1056425" d="M114.723,225.7A17.106,17.106,0,0,0,98.34,237.954a1.855,1.855,0,0,0-2.992,2.194l2.645,3.7a1.856,1.856,0,0,0,2.589.431l3.7-2.645a1.856,1.856,0,1,0-2.158-3.02l-.136.1a13.387,13.387,0,0,1,12.733-9.306,1.856,1.856,0,0,0,0-3.712Z" transform="translate(-76.784 -191.468)" fill="none" stroke="#000" stroke-linecap="round" stroke-linejoin="round" stroke-miterlimit="10" stroke-width="1.2"/>
      <path id="Trazado_1056426" data-name="Trazado 1056426" d="M242.7,368.878a17.106,17.106,0,0,0,16.383-12.259,1.855,1.855,0,0,0,2.992-2.194l-2.645-3.7a1.856,1.856,0,0,0-2.589-.431l-3.7,2.645a1.856,1.856,0,1,0,2.158,3.02l.136-.1a13.387,13.387,0,0,1-12.733,9.306,1.856,1.856,0,1,0,0,3.712Z" transform="translate(-204.764 -300.499)" fill="none" stroke="#000" stroke-linecap="round" stroke-linejoin="round" stroke-miterlimit="10" stroke-width="1.2"/>
      <path id="Trazado_1056427" data-name="Trazado 1056427" d="M256,316.61v5.939l1.856,3.215" transform="translate(-218.061 -271.246)" fill="none" stroke="#000" stroke-linecap="round" stroke-linejoin="round" stroke-miterlimit="10" stroke-width="1.2"/>
      <line id="Línea_2399" data-name="Línea 2399" transform="translate(33.114 42.944)" fill="none" stroke="#000" stroke-linecap="round" stroke-linejoin="round" stroke-miterlimit="10" stroke-width="1.2"/>
      <line id="Línea_2400" data-name="Línea 2400" transform="translate(29.581 56.129)" fill="none" stroke="#000" stroke-linecap="round" stroke-linejoin="round" stroke-miterlimit="10" stroke-width="1.2"/>
      <line id="Línea_2401" data-name="Línea 2401" transform="translate(33.114 59.661)" fill="none" stroke="#000" stroke-linecap="round" stroke-linejoin="round" stroke-miterlimit="10" stroke-width="1.2"/>
      <line id="Línea_2402" data-name="Línea 2402" transform="translate(37.939 60.954)" fill="none" stroke="#000" stroke-linecap="round" stroke-linejoin="round" stroke-miterlimit="10" stroke-width="1.2"/>
      <line id="Línea_2403" data-name="Línea 2403" transform="translate(37.939 41.651)" fill="none" stroke="#000" stroke-linecap="round" stroke-linejoin="round" stroke-miterlimit="10" stroke-width="1.2"/>
      <line id="Línea_2404" data-name="Línea 2404" transform="translate(42.765 59.661)" fill="none" stroke="#000" stroke-linecap="round" stroke-linejoin="round" stroke-miterlimit="10" stroke-width="1.2"/>
      <line id="Línea_2405" data-name="Línea 2405" transform="translate(46.298 46.477)" fill="none" stroke="#000" stroke-linecap="round" stroke-linejoin="round" stroke-miterlimit="10" stroke-width="1.2"/>
      <line id="Línea_2406" data-name="Línea 2406" transform="translate(42.765 42.944)" fill="none" stroke="#000" stroke-linecap="round" stroke-linejoin="round" stroke-miterlimit="10" stroke-width="1.2"/>
    </g>
  </g>
</svg>
