<svg xmlns="http://www.w3.org/2000/svg" xmlns:xlink="http://www.w3.org/1999/xlink" width="113" height="113" viewBox="0 0 113 113">
  <defs>
    <filter id="Trazado_982547" x="0" y="0" width="113" height="113" filterUnits="userSpaceOnUse">
      <feOffset dy="3" input="SourceAlpha"/>
      <feGaussianBlur stdDeviation="3" result="blur"/>
      <feFlood flood-opacity="0.161"/>
      <feComposite operator="in" in2="blur"/>
      <feComposite in="SourceGraphic"/>
    </filter>
  </defs>
  <g id="Grupo_1210831" data-name="Grupo 1210831" transform="translate(-374.02 -4082.346)">
    <g id="Grupo_1210742" data-name="Grupo 1210742" transform="translate(383.02 4088.346)">
      <g id="Grupo_1210537" data-name="Grupo 1210537" transform="translate(0)">
        <g id="Grupo_1164202" data-name="Grupo 1164202">
          <g id="Grupo_1158168" data-name="Grupo 1158168">
            <g id="Grupo_1152576" data-name="Grupo 1152576">
              <g id="Grupo_1148633" data-name="Grupo 1148633">
                <g id="Grupo_1148525" data-name="Grupo 1148525">
                  <g transform="matrix(1, 0, 0, 1, -9, -6)" filter="url(#Trazado_982547)">
                    <g id="Trazado_982547-2" data-name="Trazado 982547" transform="translate(9 6)" fill="#fdf6e4">
                      <path d="M 47.5 93.5 C 41.28937149047852 93.5 35.26533508300781 92.28397369384766 29.59518623352051 89.88570404052734 C 24.11771965026855 87.56893157958984 19.19813346862793 84.25196075439453 14.97309303283691 80.02691650390625 C 10.74804019927979 75.80186462402344 7.431066513061523 70.88229370117188 5.114293098449707 65.40481567382812 C 2.716026782989502 59.73468017578125 1.5 53.71062850952148 1.5 47.5 C 1.5 41.28937149047852 2.716026782989502 35.26533508300781 5.114293098449707 29.59518623352051 C 7.431066513061523 24.11771965026855 10.74804019927979 19.19813346862793 14.97309303283691 14.97309303283691 C 19.19813346862793 10.74804019927979 24.11771965026855 7.431066513061523 29.59518623352051 5.114293098449707 C 35.26533508300781 2.716026782989502 41.28937149047852 1.5 47.5 1.5 C 53.71062850952148 1.5 59.73468017578125 2.716026782989502 65.40481567382812 5.114293098449707 C 70.88229370117188 7.431066513061523 75.80186462402344 10.74804019927979 80.02691650390625 14.97309303283691 C 84.25196075439453 19.19813346862793 87.56893157958984 24.11771965026855 89.88570404052734 29.59518623352051 C 92.28397369384766 35.26533508300781 93.5 41.28937149047852 93.5 47.5 C 93.5 53.71062850952148 92.28397369384766 59.73468017578125 89.88570404052734 65.40481567382812 C 87.56893157958984 70.88229370117188 84.25196075439453 75.80186462402344 80.02691650390625 80.02691650390625 C 75.80186462402344 84.25196075439453 70.88229370117188 87.56893157958984 65.40481567382812 89.88570404052734 C 59.73468017578125 92.28397369384766 53.71062850952148 93.5 47.5 93.5 Z" stroke="none"/>
                      <path d="M 47.5 3 C 41.49121475219727 3 35.66376876831055 4.176155090332031 30.17950439453125 6.495796203613281 C 24.88084411621094 8.736953735351562 20.12152099609375 11.94598388671875 16.03375244140625 16.03375244140625 C 11.94598388671875 20.12152099609375 8.736953735351562 24.88084411621094 6.495796203613281 30.17950439453125 C 4.176155090332031 35.66376876831055 3 41.49121475219727 3 47.5 C 3 53.50878524780273 4.176155090332031 59.33623123168945 6.495796203613281 64.82049560546875 C 8.736953735351562 70.11915588378906 11.94598388671875 74.87847900390625 16.03375244140625 78.96624755859375 C 20.12152099609375 83.05401611328125 24.88084411621094 86.26304626464844 30.17950439453125 88.50419616699219 C 35.66376876831055 90.82384490966797 41.49121475219727 92 47.5 92 C 53.50878524780273 92 59.33623123168945 90.82384490966797 64.82049560546875 88.50419616699219 C 70.11915588378906 86.26304626464844 74.87847900390625 83.05401611328125 78.96624755859375 78.96624755859375 C 83.05401611328125 74.87847900390625 86.26304626464844 70.11915588378906 88.50419616699219 64.82049560546875 C 90.82384490966797 59.33623123168945 92 53.50878524780273 92 47.5 C 92 41.49121475219727 90.82384490966797 35.66376876831055 88.50419616699219 30.17950439453125 C 86.26304626464844 24.88084411621094 83.05401611328125 20.12152099609375 78.96624755859375 16.03375244140625 C 74.87847900390625 11.94598388671875 70.11915588378906 8.736953735351562 64.82049560546875 6.495796203613281 C 59.33623123168945 4.176155090332031 53.50878524780273 3 47.5 3 M 47.5 0 C 73.7335205078125 0 95 21.2664794921875 95 47.5 C 95 73.7335205078125 73.7335205078125 95 47.5 95 C 21.2664794921875 95 0 73.7335205078125 0 47.5 C 0 21.2664794921875 21.2664794921875 0 47.5 0 Z" stroke="none" fill="#f5b104"/>
                    </g>
                  </g>
                </g>
              </g>
            </g>
          </g>
        </g>
      </g>
    </g>
    <g id="tutorial_648139" transform="translate(400.517 4077.604)">
      <path id="Trazado_1056263" data-name="Trazado 1056263" d="M112,82.033h41.674a1.016,1.016,0,0,1,1.016,1.016v29.477h2.033V80H112Z" transform="translate(-97.77 -41.928)" fill="#f8cf26"/>
      <path id="Trazado_1056264" data-name="Trazado 1056264" d="M160,316.944v4.842l4.842-2.421Z" transform="translate(-139.671 -248.767)" fill="#e0634b"/>
      <path id="Trazado_1056265" data-name="Trazado 1056265" d="M120.132,288.263A8.132,8.132,0,1,0,112,280.132,8.141,8.141,0,0,0,120.132,288.263Zm-4.066-12.2a1.017,1.017,0,0,1,1.472-.91l8.132,4.066a1.018,1.018,0,0,1,0,1.819l-8.132,4.066a1.017,1.017,0,0,1-1.471-.91Z" transform="translate(-97.77 -209.533)" fill="#3fe7ef"/>
      <g id="Grupo_1210829" data-name="Grupo 1210829" transform="translate(2.033 42.138)">
        <path id="Trazado_1056266" data-name="Trazado 1056266" d="M80,114.033h41.674a1.016,1.016,0,0,1,1.016,1.016v29.477h2.033V112H80Z" transform="translate(-71.868 -112)" fill="#f8cf26"/>
        <path id="Trazado_1056267" data-name="Trazado 1056267" d="M16,264.395H60.724V240H16Zm20.329-22.362A10.165,10.165,0,1,1,26.164,252.2,10.176,10.176,0,0,1,36.329,242.033Z" transform="translate(-16 -223.737)" fill="#f8cf26"/>
        <path id="Trazado_1056268" data-name="Trazado 1056268" d="M48,146.033H89.674a1.016,1.016,0,0,1,1.016,1.016v29.477h2.033V144H48Z" transform="translate(-43.934 -139.934)" fill="#f8cf26"/>
        <path id="Trazado_1056269" data-name="Trazado 1056269" d="M16,182.1H60.724V176H16Zm10.164-4.066H28.2v2.033H26.164Zm-4.066,0h2.033v2.033H22.1Zm-4.066,0h2.033v2.033H18.033Z" transform="translate(-16 -167.868)" fill="#f8cf26"/>
      </g>
      <path id="Trazado_1056270" data-name="Trazado 1056270" d="M59.971,64H13.214A1.016,1.016,0,0,0,12.2,65.016v3.049H9.148a1.016,1.016,0,0,0-1.016,1.016v3.049H5.082a1.016,1.016,0,0,0-1.016,1.016V76.2H1.016A1.016,1.016,0,0,0,0,77.214v34.559a1.016,1.016,0,0,0,1.016,1.016H47.773a1.016,1.016,0,0,0,1.016-1.016v-3.049h3.049a1.016,1.016,0,0,0,1.016-1.016v-3.049H55.9a1.016,1.016,0,0,0,1.016-1.016v-3.049h3.049a1.016,1.016,0,0,0,1.016-1.016V65.016A1.016,1.016,0,0,0,59.971,64ZM46.757,110.757H2.033V86.362H46.757Zm0-26.428H2.033v-6.1H46.757Zm4.066,22.362H48.79V77.214A1.016,1.016,0,0,0,47.773,76.2H6.1V74.164H50.823Zm4.066-4.066H52.855V73.148a1.016,1.016,0,0,0-1.016-1.016H10.165V70.1H54.888Zm4.066-4.066H56.921V69.082A1.016,1.016,0,0,0,55.9,68.066H14.23V66.033H58.954Z" transform="translate(0 -27.961)"/>
      <rect id="Rectángulo_420918" data-name="Rectángulo 420918" width="2.767" height="2.767" transform="translate(3.747 51.945)"/>
      <rect id="Rectángulo_420919" data-name="Rectángulo 420919" width="1.845" height="2.767" transform="translate(8.358 51.945)"/>
      <rect id="Rectángulo_420920" data-name="Rectángulo 420920" width="1.845" height="2.767" transform="translate(12.048 51.945)"/>
      <path id="Trazado_1056271" data-name="Trazado 1056271" d="M106.164,276.329A10.164,10.164,0,1,0,96,266.164,10.176,10.176,0,0,0,106.164,276.329Zm0-18.3a8.132,8.132,0,1,1-8.132,8.132A8.141,8.141,0,0,1,106.164,258.033Z" transform="translate(-83.803 -195.566)"/>
      <path id="Trazado_1056272" data-name="Trazado 1056272" d="M144.483,306.011a1.018,1.018,0,0,0,.988.045l8.132-4.066a1.017,1.017,0,0,0,0-1.819l-8.132-4.066a1.016,1.016,0,0,0-1.471.91v8.132A1.018,1.018,0,0,0,144.483,306.011Zm1.55-7.352,4.842,2.421-4.842,2.421Z" transform="translate(-125.704 -230.482)"/>
      <g id="Grupo_1210830" data-name="Grupo 1210830" transform="translate(31.416 31.654)">
        <rect id="Rectángulo_420921" data-name="Rectángulo 420921" width="1.845" height="2.767" transform="translate(0 0)" fill="#3fe7ef"/>
        <rect id="Rectángulo_420922" data-name="Rectángulo 420922" width="1.845" height="2.767" transform="translate(4.611 0)" fill="#3fe7ef"/>
        <rect id="Rectángulo_420923" data-name="Rectángulo 420923" width="1.845" height="2.767" transform="translate(8.301 0)" fill="#3fe7ef"/>
      </g>
    </g>
  </g>
</svg>
