<svg xmlns="http://www.w3.org/2000/svg" xmlns:xlink="http://www.w3.org/1999/xlink" width="113" height="113" viewBox="0 0 113 113">
  <defs>
    <filter id="Trazado_982547" x="0" y="0" width="113" height="113" filterUnits="userSpaceOnUse">
      <feOffset dy="3" input="SourceAlpha"/>
      <feGaussianBlur stdDeviation="3" result="blur"/>
      <feFlood flood-opacity="0.161"/>
      <feComposite operator="in" in2="blur"/>
      <feComposite in="SourceGraphic"/>
    </filter>
  </defs>
  <g id="Grupo_1211548" data-name="Grupo 1211548" transform="translate(-693.529 -7405.826)">
    <g id="Grupo_1210743" data-name="Grupo 1210743" transform="translate(702.529 7411.826)">
      <g id="Grupo_1210537" data-name="Grupo 1210537" transform="translate(0)">
        <g id="Grupo_1164202" data-name="Grupo 1164202">
          <g id="Grupo_1158168" data-name="Grupo 1158168">
            <g id="Grupo_1152576" data-name="Grupo 1152576">
              <g id="Grupo_1148633" data-name="Grupo 1148633">
                <g id="Grupo_1148525" data-name="Grupo 1148525">
                  <g transform="matrix(1, 0, 0, 1, -9, -6)" filter="url(#Trazado_982547)">
                    <g id="Trazado_982547-2" data-name="Trazado 982547" transform="translate(9 6)" fill="#fdf6e4">
                      <path d="M 47.5 93.5 C 41.28937149047852 93.5 35.26533508300781 92.28397369384766 29.59518623352051 89.88570404052734 C 24.11771965026855 87.56893157958984 19.19813346862793 84.25196075439453 14.97309303283691 80.02691650390625 C 10.74804019927979 75.80186462402344 7.431066513061523 70.88229370117188 5.114293098449707 65.40481567382812 C 2.716026782989502 59.73468017578125 1.5 53.71062850952148 1.5 47.5 C 1.5 41.28937149047852 2.716026782989502 35.26533508300781 5.114293098449707 29.59518623352051 C 7.431066513061523 24.11771965026855 10.74804019927979 19.19813346862793 14.97309303283691 14.97309303283691 C 19.19813346862793 10.74804019927979 24.11771965026855 7.431066513061523 29.59518623352051 5.114293098449707 C 35.26533508300781 2.716026782989502 41.28937149047852 1.5 47.5 1.5 C 53.71062850952148 1.5 59.73468017578125 2.716026782989502 65.40481567382812 5.114293098449707 C 70.88229370117188 7.431066513061523 75.80186462402344 10.74804019927979 80.02691650390625 14.97309303283691 C 84.25196075439453 19.19813346862793 87.56893157958984 24.11771965026855 89.88570404052734 29.59518623352051 C 92.28397369384766 35.26533508300781 93.5 41.28937149047852 93.5 47.5 C 93.5 53.71062850952148 92.28397369384766 59.73468017578125 89.88570404052734 65.40481567382812 C 87.56893157958984 70.88229370117188 84.25196075439453 75.80186462402344 80.02691650390625 80.02691650390625 C 75.80186462402344 84.25196075439453 70.88229370117188 87.56893157958984 65.40481567382812 89.88570404052734 C 59.73468017578125 92.28397369384766 53.71062850952148 93.5 47.5 93.5 Z" stroke="none"/>
                      <path d="M 47.5 3 C 41.49121475219727 3 35.66376876831055 4.176155090332031 30.17950439453125 6.495796203613281 C 24.88084411621094 8.736953735351562 20.12152099609375 11.94598388671875 16.03375244140625 16.03375244140625 C 11.94598388671875 20.12152099609375 8.736953735351562 24.88084411621094 6.495796203613281 30.17950439453125 C 4.176155090332031 35.66376876831055 3 41.49121475219727 3 47.5 C 3 53.50878524780273 4.176155090332031 59.33623123168945 6.495796203613281 64.82049560546875 C 8.736953735351562 70.11915588378906 11.94598388671875 74.87847900390625 16.03375244140625 78.96624755859375 C 20.12152099609375 83.05401611328125 24.88084411621094 86.26304626464844 30.17950439453125 88.50419616699219 C 35.66376876831055 90.82384490966797 41.49121475219727 92 47.5 92 C 53.50878524780273 92 59.33623123168945 90.82384490966797 64.82049560546875 88.50419616699219 C 70.11915588378906 86.26304626464844 74.87847900390625 83.05401611328125 78.96624755859375 78.96624755859375 C 83.05401611328125 74.87847900390625 86.26304626464844 70.11915588378906 88.50419616699219 64.82049560546875 C 90.82384490966797 59.33623123168945 92 53.50878524780273 92 47.5 C 92 41.49121475219727 90.82384490966797 35.66376876831055 88.50419616699219 30.17950439453125 C 86.26304626464844 24.88084411621094 83.05401611328125 20.12152099609375 78.96624755859375 16.03375244140625 C 74.87847900390625 11.94598388671875 70.11915588378906 8.736953735351562 64.82049560546875 6.495796203613281 C 59.33623123168945 4.176155090332031 53.50878524780273 3 47.5 3 M 47.5 0 C 73.7335205078125 0 95 21.2664794921875 95 47.5 C 95 73.7335205078125 73.7335205078125 95 47.5 95 C 21.2664794921875 95 0 73.7335205078125 0 47.5 C 0 21.2664794921875 21.2664794921875 0 47.5 0 Z" stroke="none" fill="#f5b104"/>
                    </g>
                  </g>
                </g>
              </g>
            </g>
          </g>
        </g>
      </g>
    </g>
    <g id="Filled_outline" data-name="Filled outline" transform="translate(704.375 7416.671)">
      <rect id="Rect치ngulo_420924" data-name="Rect치ngulo 420924" width="48" height="38" rx="3" transform="translate(16.654 16.654)" fill="#2b78b8"/>
      <rect id="Rect치ngulo_420925" data-name="Rect치ngulo 420925" width="48" height="38" rx="5" transform="translate(21.654 21.654)" fill="#348fd9"/>
      <path id="Trazado_1056273" data-name="Trazado 1056273" d="M151.447,111.908V138.6a2.966,2.966,0,0,1-2.965,2.965H106.965A2.966,2.966,0,0,1,104,138.6V106.965A2.966,2.966,0,0,1,106.965,104h36.574Z" transform="translate(-77.127 -77.127)" fill="#60d1e0"/>
      <path id="Trazado_1056274" data-name="Trazado 1056274" d="M158.082,111.908V138.6a2.966,2.966,0,0,1-2.965,2.965H113.6a2.961,2.961,0,0,1-2.03-.8L148.95,104h1.223Z" transform="translate(-83.761 -77.127)" fill="#5ac6d4"/>
      <path id="Trazado_1056275" data-name="Trazado 1056275" d="M424,104v4.942a2.965,2.965,0,0,0,2.965,2.965h4.942Z" transform="translate(-357.588 -77.127)" fill="#9fe4ed"/>
      <circle id="Elipse_12542" data-name="Elipse 12542" cx="8" cy="8" r="8" transform="translate(42.654 38.654)" fill="#f35244"/>
      <path id="Trazado_1056276" data-name="Trazado 1056276" d="M272,232v7.908l6.919-3.954Z" transform="translate(-224.369 -189.311)" fill="#e0e0de"/>
      <path id="Trazado_1056277" data-name="Trazado 1056277" d="M321.885,337.885v-7.908a1.977,1.977,0,1,0-3.954,0V340.85L315.58,338.5a2.1,2.1,0,0,0-3.58,1.483v.093a2.1,2.1,0,0,0,.5,1.365l5.426,6.33h15.816v-9.885a1.977,1.977,0,1,0-3.954,0,1.977,1.977,0,1,0-3.954,0,1.977,1.977,0,0,0-3.954,0Z" transform="translate(-259.426 -273.449)" fill="#fec9a3"/>
      <circle id="Elipse_12543" data-name="Elipse 12543" cx="3" cy="3" r="3" transform="translate(35.654 55.654)" fill="#f35244"/>
      <path id="Trazado_1056278" data-name="Trazado 1056278" d="M18.636,55.314l.659-1.864a1.981,1.981,0,0,1-1.318-1.865V19.954a1.979,1.979,0,0,1,1.977-1.977H61.47A1.981,1.981,0,0,1,63.335,19.3l1.864-.659A3.961,3.961,0,0,0,61.47,16H19.954A3.958,3.958,0,0,0,16,19.954V51.585a3.961,3.961,0,0,0,2.636,3.728Z"/>
      <path id="Trazado_1056279" data-name="Trazado 1056279" d="M105.424,60.942v-.988A3.958,3.958,0,0,0,101.47,56H59.954A3.958,3.958,0,0,0,56,59.954V91.585a3.961,3.961,0,0,0,2.636,3.728l.659-1.864a1.981,1.981,0,0,1-1.318-1.865V59.954a1.979,1.979,0,0,1,1.977-1.977H101.47a1.979,1.979,0,0,1,1.977,1.977v.988Z" transform="translate(-35.058 -35.058)"/>
      <path id="Trazado_1056280" data-name="Trazado 1056280" d="M137.227,96.289a.988.988,0,0,0-.7-.289H99.954A3.958,3.958,0,0,0,96,99.954v31.631a3.958,3.958,0,0,0,3.954,3.954h19.77v-1.977H99.954a1.979,1.979,0,0,1-1.977-1.977V99.954a1.979,1.979,0,0,1,1.977-1.977h35.585v3.954a3.958,3.958,0,0,0,3.954,3.954h3.954V130.6h1.977V104.9a.989.989,0,0,0-.29-.7Zm.29,5.641V99.375l4.533,4.533h-2.556A1.979,1.979,0,0,1,137.516,101.931Z" transform="translate(-70.115 -70.115)"/>
      <path id="Trazado_1056281" data-name="Trazado 1056281" d="M128,128h1.977v1.977H128Z" transform="translate(-98.161 -98.161)"/>
      <path id="Trazado_1056282" data-name="Trazado 1056282" d="M160,128h1.977v1.977H160Z" transform="translate(-126.207 -98.161)"/>
      <path id="Trazado_1056283" data-name="Trazado 1056283" d="M192,128h1.977v1.977H192Z" transform="translate(-154.254 -98.161)"/>
      <path id="Trazado_1056284" data-name="Trazado 1056284" d="M128,160h33.608v1.977H128Z" transform="translate(-98.161 -126.207)"/>
      <path id="Trazado_1056285" data-name="Trazado 1056285" d="M224,200.9a8.9,8.9,0,1,0,8.9-8.9A8.9,8.9,0,0,0,224,200.9Zm15.816,0a6.919,6.919,0,1,1-6.919-6.919A6.919,6.919,0,0,1,239.816,200.9Z" transform="translate(-182.3 -154.254)"/>
      <path id="Trazado_1056286" data-name="Trazado 1056286" d="M264.492,224.134a.988.988,0,0,0-.492.855V232.9a.988.988,0,0,0,1.479.858L272.4,229.8a.988.988,0,0,0,0-1.716l-6.919-3.954A.988.988,0,0,0,264.492,224.134Zm1.485,2.558,3.938,2.251-3.938,2.251Z" transform="translate(-217.357 -182.3)"/>
      <path id="Trazado_1056287" data-name="Trazado 1056287" d="M324.758,327.908a2.953,2.953,0,0,0-1.977.757,2.96,2.96,0,0,0-3.954,0,2.963,2.963,0,0,0-2.965-.588v-5.112a2.965,2.965,0,0,0-5.931,0v8.487l-.664-.664A3.085,3.085,0,0,0,304,332.97v.093a3.088,3.088,0,0,0,.743,2.008l5.426,6.33a.989.989,0,0,0,.751.345h15.816a.988.988,0,0,0,.988-.988v-9.885A2.969,2.969,0,0,0,324.758,327.908Zm.988,11.862H311.374l-5.13-5.985a1.109,1.109,0,0,1-.267-.721v-.093a1.108,1.108,0,0,1,1.892-.784l2.351,2.351a.988.988,0,0,0,1.687-.7V322.965a.988.988,0,1,1,1.977,0v7.908a.988.988,0,0,0,1.977,0,.988.988,0,0,1,1.977,0,.988.988,0,1,0,1.977,0,.988.988,0,0,1,1.977,0,.988.988,0,0,0,1.977,0,.988.988,0,0,1,1.977,0Z" transform="translate(-252.415 -266.438)"/>
      <path id="Trazado_1056288" data-name="Trazado 1056288" d="M416,352h3.954v1.977H416Z" transform="translate(-350.576 -294.484)"/>
      <path id="Trazado_1056289" data-name="Trazado 1056289" d="M150.919,341.939a2.97,2.97,0,0,0,2.8-1.977h14.009v-1.977H153.715a2.965,2.965,0,0,0-5.591,0H144v1.977h4.124A2.97,2.97,0,0,0,150.919,341.939Zm0-3.954a.988.988,0,1,1-.988.988A.988.988,0,0,1,150.919,337.985Z" transform="translate(-112.184 -280.469)"/>
    </g>
  </g>
</svg>
