<svg xmlns="http://www.w3.org/2000/svg" xmlns:xlink="http://www.w3.org/1999/xlink" width="113" height="113" viewBox="0 0 113 113">
  <defs>
    <filter id="Trazado_982547" x="0" y="0" width="113" height="113" filterUnits="userSpaceOnUse">
      <feOffset dy="3" input="SourceAlpha"/>
      <feGaussianBlur stdDeviation="3" result="blur"/>
      <feFlood flood-opacity="0.161"/>
      <feComposite operator="in" in2="blur"/>
      <feComposite in="SourceGraphic"/>
    </filter>
  </defs>
  <g id="Grupo_1210958" data-name="Grupo 1210958" transform="translate(-4668.02 -4102.346)">
    <g id="Grupo_1210744" data-name="Grupo 1210744" transform="translate(4677.02 4108.346)">
      <g id="Grupo_1210537" data-name="Grupo 1210537" transform="translate(0)">
        <g id="Grupo_1164202" data-name="Grupo 1164202">
          <g id="Grupo_1158168" data-name="Grupo 1158168">
            <g id="Grupo_1152576" data-name="Grupo 1152576">
              <g id="Grupo_1148633" data-name="Grupo 1148633">
                <g id="Grupo_1148525" data-name="Grupo 1148525">
                  <g transform="matrix(1, 0, 0, 1, -9, -6)" filter="url(#Trazado_982547)">
                    <g id="Trazado_982547-2" data-name="Trazado 982547" transform="translate(9 6)" fill="#fdf6e4">
                      <path d="M 47.5 93.5 C 41.28937149047852 93.5 35.26533508300781 92.28397369384766 29.59518623352051 89.88570404052734 C 24.11771965026855 87.56893157958984 19.19813346862793 84.25196075439453 14.97309303283691 80.02691650390625 C 10.74804019927979 75.80186462402344 7.431066513061523 70.88229370117188 5.114293098449707 65.40481567382812 C 2.716026782989502 59.73468017578125 1.5 53.71062850952148 1.5 47.5 C 1.5 41.28937149047852 2.716026782989502 35.26533508300781 5.114293098449707 29.59518623352051 C 7.431066513061523 24.11771965026855 10.74804019927979 19.19813346862793 14.97309303283691 14.97309303283691 C 19.19813346862793 10.74804019927979 24.11771965026855 7.431066513061523 29.59518623352051 5.114293098449707 C 35.26533508300781 2.716026782989502 41.28937149047852 1.5 47.5 1.5 C 53.71062850952148 1.5 59.73468017578125 2.716026782989502 65.40481567382812 5.114293098449707 C 70.88229370117188 7.431066513061523 75.80186462402344 10.74804019927979 80.02691650390625 14.97309303283691 C 84.25196075439453 19.19813346862793 87.56893157958984 24.11771965026855 89.88570404052734 29.59518623352051 C 92.28397369384766 35.26533508300781 93.5 41.28937149047852 93.5 47.5 C 93.5 53.71062850952148 92.28397369384766 59.73468017578125 89.88570404052734 65.40481567382812 C 87.56893157958984 70.88229370117188 84.25196075439453 75.80186462402344 80.02691650390625 80.02691650390625 C 75.80186462402344 84.25196075439453 70.88229370117188 87.56893157958984 65.40481567382812 89.88570404052734 C 59.73468017578125 92.28397369384766 53.71062850952148 93.5 47.5 93.5 Z" stroke="none"/>
                      <path d="M 47.5 3 C 41.49121475219727 3 35.66376876831055 4.176155090332031 30.17950439453125 6.495796203613281 C 24.88084411621094 8.736953735351562 20.12152099609375 11.94598388671875 16.03375244140625 16.03375244140625 C 11.94598388671875 20.12152099609375 8.736953735351562 24.88084411621094 6.495796203613281 30.17950439453125 C 4.176155090332031 35.66376876831055 3 41.49121475219727 3 47.5 C 3 53.50878524780273 4.176155090332031 59.33623123168945 6.495796203613281 64.82049560546875 C 8.736953735351562 70.11915588378906 11.94598388671875 74.87847900390625 16.03375244140625 78.96624755859375 C 20.12152099609375 83.05401611328125 24.88084411621094 86.26304626464844 30.17950439453125 88.50419616699219 C 35.66376876831055 90.82384490966797 41.49121475219727 92 47.5 92 C 53.50878524780273 92 59.33623123168945 90.82384490966797 64.82049560546875 88.50419616699219 C 70.11915588378906 86.26304626464844 74.87847900390625 83.05401611328125 78.96624755859375 78.96624755859375 C 83.05401611328125 74.87847900390625 86.26304626464844 70.11915588378906 88.50419616699219 64.82049560546875 C 90.82384490966797 59.33623123168945 92 53.50878524780273 92 47.5 C 92 41.49121475219727 90.82384490966797 35.66376876831055 88.50419616699219 30.17950439453125 C 86.26304626464844 24.88084411621094 83.05401611328125 20.12152099609375 78.96624755859375 16.03375244140625 C 74.87847900390625 11.94598388671875 70.11915588378906 8.736953735351562 64.82049560546875 6.495796203613281 C 59.33623123168945 4.176155090332031 53.50878524780273 3 47.5 3 M 47.5 0 C 73.7335205078125 0 95 21.2664794921875 95 47.5 C 95 73.7335205078125 73.7335205078125 95 47.5 95 C 21.2664794921875 95 0 73.7335205078125 0 47.5 C 0 21.2664794921875 21.2664794921875 0 47.5 0 Z" stroke="none" fill="#f5b104"/>
                    </g>
                  </g>
                </g>
              </g>
            </g>
          </g>
        </g>
      </g>
    </g>
    <g id="Layer_x0020_1" transform="translate(4550.531 3980.605)">
      <path id="Trazado_1056290" data-name="Trazado 1056290" d="M196.959,186.531l-5.1-1.457a.656.656,0,0,1-.265-1.126l1.324-1.258a7.291,7.291,0,0,0-11.853,4.7.651.651,0,1,1-1.291-.166,8.6,8.6,0,0,1,14.1-5.463l1.391-1.324a.7.7,0,0,1,1.126.331l1.192,4.933A.672.672,0,0,1,196.959,186.531Zm-42.709,16.951a4.225,4.225,0,0,1-4.238-4.238V174.413h-.861A2.176,2.176,0,0,1,147,172.228v-3.476a2.155,2.155,0,0,1,2.152-2.185h.861v-1.854h-.861A2.176,2.176,0,0,1,147,162.527v-3.476a2.176,2.176,0,0,1,2.152-2.185h.861v-5.628A4.225,4.225,0,0,1,154.251,147h32.644a4.225,4.225,0,0,1,4.238,4.238v10.5h.861a2.148,2.148,0,0,1,2.152,2.152v3.509a2.148,2.148,0,0,1-2.152,2.152h-.861v3.807a15.2,15.2,0,0,1-2.847,30.128Zm36.882-40.424v5.165c2.053,0,1.689,0,1.689-4.337C192.821,162.892,191.728,163.057,191.133,163.057Zm-1.324,10.1V151.238a2.9,2.9,0,0,0-2.913-2.913h-4.039v2.185a4.253,4.253,0,0,1-4.238,4.271h-16.09a4.253,4.253,0,0,1-4.238-4.271v-2.185h-4.039a2.9,2.9,0,0,0-2.913,2.913v48.006a2.9,2.9,0,0,0,2.913,2.913h27.844a15.2,15.2,0,0,1-8.807-11.389A15.762,15.762,0,1,1,186.2,173.221,16.448,16.448,0,0,1,189.808,173.155Zm-30.194-24.831v2.185a2.925,2.925,0,0,0,2.913,2.947h16.09a2.925,2.925,0,0,0,2.913-2.947v-2.185Zm15.13,3.211H166.4a.662.662,0,0,1,0-1.324h8.343A.662.662,0,0,1,174.744,151.536Zm-25.592,6.655a.848.848,0,0,0-.828.861c0,4.3-.4,4.337,1.655,4.337v-5.2Zm0,9.7a.848.848,0,0,0-.828.861c0,4.3-.4,4.3,1.655,4.3v-5.165Zm35.723,5.6a14.428,14.428,0,1,0-11.753,15.958A15.168,15.168,0,0,1,184.875,173.486ZM166.4,182.955a2.3,2.3,0,0,1-2.318-2.318V169.844a2.324,2.324,0,0,1,3.576-1.953l8.31,5.4a2.351,2.351,0,0,1,0,3.907l-8.31,5.4A2.509,2.509,0,0,1,166.4,182.955Zm-.993-13.111v10.793a.98.98,0,0,0,1.523.828l8.31-5.4a.991.991,0,0,0,.066-1.655L167,169.05A.993.993,0,0,0,165.408,169.844Zm22.877,4.569a13.889,13.889,0,1,0,9.8,4.072A13.891,13.891,0,0,0,188.285,174.413Zm0,22.447a8.653,8.653,0,0,1-5.6-2.053c-.563.5-1.391,1.49-1.854,1.49a.638.638,0,0,1-.629-.5l-1.225-4.933a.66.66,0,0,1,.828-.795l4.9,1.424a.632.632,0,0,1,.265,1.093l-1.324,1.291a7.263,7.263,0,0,0,11.819-4.7.668.668,0,0,1,1.324.166A8.55,8.55,0,0,1,188.285,196.86Zm-5.032-4.4-2.715-.795.662,2.715Zm11.091-9.3-1.026.96,2.715.795-.662-2.715Z" fill-rule="evenodd"/>
      <path id="Trazado_1056291" data-name="Trazado 1056291" d="M547,192.132a2.925,2.925,0,0,0,2.913-2.947V187H528v2.185a2.925,2.925,0,0,0,2.914,2.947Zm-3.874-3.245a.662.662,0,0,1,0,1.324h-8.343a.662.662,0,0,1,0-1.324Z" transform="translate(-368.386 -38.676)" fill="#75e147" fill-rule="evenodd"/>
      <path id="Trazado_1056292" data-name="Trazado 1056292" d="M451.254,576.5A14.428,14.428,0,1,0,439.5,592.454,15.168,15.168,0,0,1,451.254,576.5Zm-17.216-5.6,8.31,5.4a2.351,2.351,0,0,1,0,3.907l-8.31,5.4a2.509,2.509,0,0,1-1.258.364,2.3,2.3,0,0,1-2.318-2.318V572.855A2.324,2.324,0,0,1,434.038,570.9Z" transform="translate(-266.379 -403.01)" fill="#ffb81b" fill-rule="evenodd"/>
      <path id="Trazado_1056293" data-name="Trazado 1056293" d="M297.236,198.157a15.76,15.76,0,0,1,15.627,13.74,16.446,16.446,0,0,1,3.609-.066V189.913A2.9,2.9,0,0,0,313.558,187h-4.039v2.185a4.253,4.253,0,0,1-4.238,4.271H289.19a4.253,4.253,0,0,1-4.238-4.271V187h-4.039A2.9,2.9,0,0,0,278,189.913V237.92a2.9,2.9,0,0,0,2.913,2.913h27.844a15.2,15.2,0,0,1-8.807-11.389,15.761,15.761,0,1,1-2.715-31.287Z" transform="translate(-126.663 -38.676)" fill="#9ff" fill-rule="evenodd"/>
      <path id="Trazado_1056294" data-name="Trazado 1056294" d="M712.9,812.814l-8.31-5.363a.993.993,0,0,0-1.589.795v10.793a.98.98,0,0,0,1.523.828l8.31-5.4A.991.991,0,0,0,712.9,812.814Z" transform="translate(-537.592 -638.401)" fill="#f0f0f3" fill-rule="evenodd"/>
      <g id="Grupo_1210832" data-name="Grupo 1210832" transform="translate(148.293 158.19)">
        <path id="Trazado_1056295" data-name="Trazado 1056295" d="M187.752,783.165V778h-.828a.848.848,0,0,0-.828.861C186.1,783.165,185.7,783.165,187.752,783.165Z" transform="translate(-186.065 -768.299)" fill="#75e147" fill-rule="evenodd"/>
        <path id="Trazado_1056296" data-name="Trazado 1056296" d="M186.1,485.861c0,4.3-.4,4.337,1.655,4.337V485h-.828A.848.848,0,0,0,186.1,485.861Z" transform="translate(-186.065 -485)" fill="#75e147" fill-rule="evenodd"/>
        <path id="Trazado_1056297" data-name="Trazado 1056297" d="M1480,631.7v5.165c2.053,0,1.688,0,1.688-4.337C1481.688,631.532,1480.6,631.7,1480,631.7Z" transform="translate(-1437.161 -626.831)" fill="#75e147" fill-rule="evenodd"/>
      </g>
      <path id="Trazado_1056298" data-name="Trazado 1056298" d="M1548.052,1210l-1.026.96-1.026.96,2.715.795Z" transform="translate(-1352.682 -1027.807)" fill="#f0f0f3" fill-rule="evenodd"/>
      <path id="Trazado_1056299" data-name="Trazado 1056299" d="M1162.715,1496.795,1160,1496l.662,2.715Z" transform="translate(-979.462 -1304.338)" fill="#f0f0f3" fill-rule="evenodd"/>
      <path id="Trazado_1056300" data-name="Trazado 1056300" d="M980.155,990.66l4.9,1.424a.632.632,0,0,1,.265,1.092L984,994.467a7.263,7.263,0,0,0,11.819-4.7.668.668,0,0,1,1.324.166,8.55,8.55,0,0,1-8.509,7.515,8.654,8.654,0,0,1-5.6-2.053c-.563.5-1.39,1.49-1.854,1.49a.638.638,0,0,1-.629-.5l-1.225-4.933A.66.66,0,0,1,980.155,990.66Zm13.111-7.383a7.291,7.291,0,0,0-11.853,4.7.651.651,0,1,1-1.291-.166,8.6,8.6,0,0,1,14.1-5.463l1.391-1.324a.7.7,0,0,1,1.126.331l1.192,4.933a.672.672,0,0,1-.629.828l-5.1-1.457a.656.656,0,0,1-.265-1.126ZM988.63,975a13.889,13.889,0,1,0,9.8,4.072A13.89,13.89,0,0,0,988.63,975Z" transform="translate(-800.345 -800.587)" fill="#1d81ce" fill-rule="evenodd"/>
      <path id="Trazado_1056301" data-name="Trazado 1056301" d="M299.95,1388.748a15.653,15.653,0,0,1-9.965-1.523,30.113,30.113,0,0,1-3.013.133A29.57,29.57,0,0,1,278,1386v11.224a2.9,2.9,0,0,0,2.913,2.913h27.844A15.2,15.2,0,0,1,299.95,1388.748Z" transform="translate(-126.663 -1197.979)" fill="#8ae6e6" fill-rule="evenodd"/>
      <path id="Trazado_1056302" data-name="Trazado 1056302" d="M715,1342.384a14.4,14.4,0,0,0,7.317.563,14.561,14.561,0,0,1,.066-2.947A29.639,29.639,0,0,1,715,1342.384Z" transform="translate(-549.195 -1153.502)" fill="#ffac1b" fill-rule="evenodd"/>
      <path id="Trazado_1056303" data-name="Trazado 1056303" d="M1356,706.88a15.593,15.593,0,0,1,2.781,0V699A29.353,29.353,0,0,1,1356,706.88Z" transform="translate(-1168.973 -533.725)" fill="#8ae6e6" fill-rule="evenodd"/>
    </g>
  </g>
</svg>
