<svg xmlns="http://www.w3.org/2000/svg" xmlns:xlink="http://www.w3.org/1999/xlink" width="113" height="113" viewBox="0 0 113 113">
  <defs>
    <filter id="Trazado_982547" x="0" y="0" width="113" height="113" filterUnits="userSpaceOnUse">
      <feOffset dy="3" input="SourceAlpha"/>
      <feGaussianBlur stdDeviation="3" result="blur"/>
      <feFlood flood-opacity="0.161"/>
      <feComposite operator="in" in2="blur"/>
      <feComposite in="SourceGraphic"/>
    </filter>
  </defs>
  <g id="Grupo_1210959" data-name="Grupo 1210959" transform="translate(-5007.02 -4102.346)">
    <g id="Grupo_1210745" data-name="Grupo 1210745" transform="translate(5016.02 4108.346)">
      <g id="Grupo_1210537" data-name="Grupo 1210537" transform="translate(0)">
        <g id="Grupo_1164202" data-name="Grupo 1164202">
          <g id="Grupo_1158168" data-name="Grupo 1158168">
            <g id="Grupo_1152576" data-name="Grupo 1152576">
              <g id="Grupo_1148633" data-name="Grupo 1148633">
                <g id="Grupo_1148525" data-name="Grupo 1148525">
                  <g transform="matrix(1, 0, 0, 1, -9, -6)" filter="url(#Trazado_982547)">
                    <g id="Trazado_982547-2" data-name="Trazado 982547" transform="translate(9 6)" fill="#fdf6e4">
                      <path d="M 47.5 93.5 C 41.28937149047852 93.5 35.26533508300781 92.28397369384766 29.59518623352051 89.88570404052734 C 24.11771965026855 87.56893157958984 19.19813346862793 84.25196075439453 14.97309303283691 80.02691650390625 C 10.74804019927979 75.80186462402344 7.431066513061523 70.88229370117188 5.114293098449707 65.40481567382812 C 2.716026782989502 59.73468017578125 1.5 53.71062850952148 1.5 47.5 C 1.5 41.28937149047852 2.716026782989502 35.26533508300781 5.114293098449707 29.59518623352051 C 7.431066513061523 24.11771965026855 10.74804019927979 19.19813346862793 14.97309303283691 14.97309303283691 C 19.19813346862793 10.74804019927979 24.11771965026855 7.431066513061523 29.59518623352051 5.114293098449707 C 35.26533508300781 2.716026782989502 41.28937149047852 1.5 47.5 1.5 C 53.71062850952148 1.5 59.73468017578125 2.716026782989502 65.40481567382812 5.114293098449707 C 70.88229370117188 7.431066513061523 75.80186462402344 10.74804019927979 80.02691650390625 14.97309303283691 C 84.25196075439453 19.19813346862793 87.56893157958984 24.11771965026855 89.88570404052734 29.59518623352051 C 92.28397369384766 35.26533508300781 93.5 41.28937149047852 93.5 47.5 C 93.5 53.71062850952148 92.28397369384766 59.73468017578125 89.88570404052734 65.40481567382812 C 87.56893157958984 70.88229370117188 84.25196075439453 75.80186462402344 80.02691650390625 80.02691650390625 C 75.80186462402344 84.25196075439453 70.88229370117188 87.56893157958984 65.40481567382812 89.88570404052734 C 59.73468017578125 92.28397369384766 53.71062850952148 93.5 47.5 93.5 Z" stroke="none"/>
                      <path d="M 47.5 3 C 41.49121475219727 3 35.66376876831055 4.176155090332031 30.17950439453125 6.495796203613281 C 24.88084411621094 8.736953735351562 20.12152099609375 11.94598388671875 16.03375244140625 16.03375244140625 C 11.94598388671875 20.12152099609375 8.736953735351562 24.88084411621094 6.495796203613281 30.17950439453125 C 4.176155090332031 35.66376876831055 3 41.49121475219727 3 47.5 C 3 53.50878524780273 4.176155090332031 59.33623123168945 6.495796203613281 64.82049560546875 C 8.736953735351562 70.11915588378906 11.94598388671875 74.87847900390625 16.03375244140625 78.96624755859375 C 20.12152099609375 83.05401611328125 24.88084411621094 86.26304626464844 30.17950439453125 88.50419616699219 C 35.66376876831055 90.82384490966797 41.49121475219727 92 47.5 92 C 53.50878524780273 92 59.33623123168945 90.82384490966797 64.82049560546875 88.50419616699219 C 70.11915588378906 86.26304626464844 74.87847900390625 83.05401611328125 78.96624755859375 78.96624755859375 C 83.05401611328125 74.87847900390625 86.26304626464844 70.11915588378906 88.50419616699219 64.82049560546875 C 90.82384490966797 59.33623123168945 92 53.50878524780273 92 47.5 C 92 41.49121475219727 90.82384490966797 35.66376876831055 88.50419616699219 30.17950439453125 C 86.26304626464844 24.88084411621094 83.05401611328125 20.12152099609375 78.96624755859375 16.03375244140625 C 74.87847900390625 11.94598388671875 70.11915588378906 8.736953735351562 64.82049560546875 6.495796203613281 C 59.33623123168945 4.176155090332031 53.50878524780273 3 47.5 3 M 47.5 0 C 73.7335205078125 0 95 21.2664794921875 95 47.5 C 95 73.7335205078125 73.7335205078125 95 47.5 95 C 21.2664794921875 95 0 73.7335205078125 0 47.5 C 0 21.2664794921875 21.2664794921875 0 47.5 0 Z" stroke="none" fill="#f5b104"/>
                    </g>
                  </g>
                </g>
              </g>
            </g>
          </g>
        </g>
      </g>
    </g>
    <g id="speech-bubble_2496632" transform="translate(5027.161 4126.102)">
      <g id="Grupo_1210844" data-name="Grupo 1210844" transform="translate(8.911 5.964)">
        <path id="Trazado_1056317" data-name="Trazado 1056317" d="M62.017,65.363a9.567,9.567,0,0,1-9.361-11.517A25.966,25.966,0,0,0,21.221,93.5a1.734,1.734,0,0,1,.271,1.676l-2.635,7.242a1.162,1.162,0,0,0,1.489,1.489l8.755-3.186a1.744,1.744,0,0,1,1.341.064A25.97,25.97,0,0,0,64.406,65.062a9.583,9.583,0,0,1-2.389.3Z" transform="translate(-15.539 -51.333)" fill="#fe9901"/>
        <g id="Grupo_1210838" data-name="Grupo 1210838">
          <g id="Grupo_1210837" data-name="Grupo 1210837">
            <path id="Trazado_1056318" data-name="Trazado 1056318" d="M27.329,95.18a1.734,1.734,0,0,0-.271-1.676A25.964,25.964,0,0,1,44.427,51.5,25.975,25.975,0,0,0,15.54,77.422,25.85,25.85,0,0,0,21.221,93.5a1.734,1.734,0,0,1,.271,1.676l-2.635,7.242a1.162,1.162,0,0,0,1.489,1.489l4.387-1.6Z" transform="translate(-15.539 -51.332)" fill="#fb8801"/>
          </g>
        </g>
        <g id="Grupo_1210843" data-name="Grupo 1210843" transform="translate(12.071 12.292)">
          <g id="Grupo_1210839" data-name="Grupo 1210839" transform="translate(10.503)">
            <path id="Trazado_1056319" data-name="Trazado 1056319" d="M209.834,165.237v12.1l11.649,8a.581.581,0,0,0,.91-.479V157.714a.581.581,0,0,0-.91-.479Z" transform="translate(-209.834 -157.132)" fill="#3e5959"/>
          </g>
          <g id="Grupo_1210840" data-name="Grupo 1210840" transform="translate(10.503 4.764)">
            <path id="Trazado_1056320" data-name="Trazado 1056320" d="M215.706,210.65a2.324,2.324,0,0,1-1.008-1.915v-10.6l-4.864,3.342v12.1l11.649,8a.581.581,0,0,0,.91-.479v-5.855Z" transform="translate(-209.834 -198.135)" fill="#384949"/>
          </g>
          <g id="Grupo_1210841" data-name="Grupo 1210841" transform="translate(0 8.106)">
            <path id="Trazado_1056321" data-name="Trazado 1056321" d="M129.938,238.995H120.6a1.162,1.162,0,0,1-1.162-1.162v-9.774A1.162,1.162,0,0,1,120.6,226.9h9.341Z" transform="translate(-119.435 -226.897)" fill="#3e5959"/>
          </g>
          <g id="Grupo_1210842" data-name="Grupo 1210842" transform="translate(0 8.106)">
            <path id="Trazado_1056322" data-name="Trazado 1056322" d="M124.3,237.833v-9.774a1.162,1.162,0,0,1,1.162-1.162H120.6a1.162,1.162,0,0,0-1.162,1.162v9.774a1.162,1.162,0,0,0,1.162,1.162h4.864A1.162,1.162,0,0,1,124.3,237.833Z" transform="translate(-119.435 -226.897)" fill="#384949"/>
          </g>
        </g>
      </g>
      <g id="Grupo_1210847" data-name="Grupo 1210847" transform="translate(45.827 0.871)">
        <g id="Grupo_1210845" data-name="Grupo 1210845" transform="translate(0 0)">
          <circle id="Elipse_12548" data-name="Elipse 12548" cx="9.562" cy="9.562" r="9.562" fill="#fe3d97"/>
        </g>
        <g id="Grupo_1210846" data-name="Grupo 1210846">
          <path id="Trazado_1056323" data-name="Trazado 1056323" d="M337.435,17.061a9.563,9.563,0,0,1,7.48-9.332,9.562,9.562,0,1,0,0,18.663A9.563,9.563,0,0,1,337.435,17.061Z" transform="translate(-333.271 -7.499)" fill="#e41e7f"/>
        </g>
      </g>
      <g id="Grupo_1210848" data-name="Grupo 1210848" transform="translate(8.039)">
        <path id="Trazado_1056324" data-name="Trazado 1056324" d="M135.868,159.611a.871.871,0,0,0,.871-.871v-7.652a1.452,1.452,0,0,0-2.275-1.2l-11.426,7.85h-9.071a2.036,2.036,0,0,0-2.033,2.033v9.774a2.036,2.036,0,0,0,2.033,2.033h9.071l11.426,7.85a1.452,1.452,0,0,0,2.275-1.2V162.806a.871.871,0,1,0-1.743,0v14.875l-10.816-7.43V159.07L135,151.64v7.1a.871.871,0,0,0,.871.871Zm-13.43,10.227h-8.47a.291.291,0,0,1-.29-.29v-9.774a.291.291,0,0,1,.29-.29h8.47Z" transform="translate(-99.864 -132.249)"/>
        <path id="Trazado_1056325" data-name="Trazado 1056325" d="M64.947,11.343a.871.871,0,0,0-1.017.7,8.689,8.689,0,1,1-.1-3.7.871.871,0,0,0,1.692-.418,10.435,10.435,0,0,0-20.065-.673,26.842,26.842,0,0,0-31.54,41.429.867.867,0,0,1,.132.834l-2.635,7.242a2.037,2.037,0,0,0,1.9,2.731,2.058,2.058,0,0,0,.7-.125l8.755-3.186a.868.868,0,0,1,.672.033,26.971,26.971,0,0,0,23.164-.124.871.871,0,1,0-.76-1.569,25.229,25.229,0,0,1-21.661.116,2.6,2.6,0,0,0-2.011-.094l-8.755,3.186a.291.291,0,0,1-.372-.372l2.635-7.242a2.62,2.62,0,0,0-.409-2.519A24.824,24.824,0,0,1,9.782,32.05,25.113,25.113,0,0,1,45.057,8.983a10.431,10.431,0,0,0,12.262,11.7,25.165,25.165,0,0,1-8.105,31.862.871.871,0,1,0,.995,1.431,26.911,26.911,0,0,0,8.821-33.767,10.425,10.425,0,0,0,6.615-7.851A.871.871,0,0,0,64.947,11.343Z" transform="translate(-8.039)"/>
        <path id="Trazado_1056326" data-name="Trazado 1056326" d="M385.212,50.84a.872.872,0,0,0-1.232,0l-3.068,3.068-3.068-3.068a.871.871,0,0,0-1.232,1.232l3.068,3.068-3.068,3.068a.871.871,0,0,0,1.233,1.232l3.068-3.068,3.068,3.068a.871.871,0,1,0,1.232-1.232l-3.068-3.068,3.068-3.068A.872.872,0,0,0,385.212,50.84Z" transform="translate(-333.562 -44.708)"/>
      </g>
    </g>
  </g>
</svg>
