<svg xmlns="http://www.w3.org/2000/svg" xmlns:xlink="http://www.w3.org/1999/xlink" width="113" height="113" viewBox="0 0 113 113">
  <defs>
    <filter id="Trazado_982547" x="0" y="0" width="113" height="113" filterUnits="userSpaceOnUse">
      <feOffset dy="3" input="SourceAlpha"/>
      <feGaussianBlur stdDeviation="3" result="blur"/>
      <feFlood flood-opacity="0.161"/>
      <feComposite operator="in" in2="blur"/>
      <feComposite in="SourceGraphic"/>
    </filter>
  </defs>
  <g id="Grupo_1210960" data-name="Grupo 1210960" transform="translate(-4668.02 -4488.346)">
    <g id="Grupo_1210746" data-name="Grupo 1210746" transform="translate(4677.02 4494.346)">
      <g id="Grupo_1210537" data-name="Grupo 1210537" transform="translate(0)">
        <g id="Grupo_1164202" data-name="Grupo 1164202">
          <g id="Grupo_1158168" data-name="Grupo 1158168">
            <g id="Grupo_1152576" data-name="Grupo 1152576">
              <g id="Grupo_1148633" data-name="Grupo 1148633">
                <g id="Grupo_1148525" data-name="Grupo 1148525">
                  <g transform="matrix(1, 0, 0, 1, -9, -6)" filter="url(#Trazado_982547)">
                    <g id="Trazado_982547-2" data-name="Trazado 982547" transform="translate(9 6)" fill="#fdf6e4">
                      <path d="M 47.5 93.5 C 41.28937149047852 93.5 35.26533508300781 92.28397369384766 29.59518623352051 89.88570404052734 C 24.11771965026855 87.56893157958984 19.19813346862793 84.25196075439453 14.97309303283691 80.02691650390625 C 10.74804019927979 75.80186462402344 7.431066513061523 70.88229370117188 5.114293098449707 65.40481567382812 C 2.716026782989502 59.73468017578125 1.5 53.71062850952148 1.5 47.5 C 1.5 41.28937149047852 2.716026782989502 35.26533508300781 5.114293098449707 29.59518623352051 C 7.431066513061523 24.11771965026855 10.74804019927979 19.19813346862793 14.97309303283691 14.97309303283691 C 19.19813346862793 10.74804019927979 24.11771965026855 7.431066513061523 29.59518623352051 5.114293098449707 C 35.26533508300781 2.716026782989502 41.28937149047852 1.5 47.5 1.5 C 53.71062850952148 1.5 59.73468017578125 2.716026782989502 65.40481567382812 5.114293098449707 C 70.88229370117188 7.431066513061523 75.80186462402344 10.74804019927979 80.02691650390625 14.97309303283691 C 84.25196075439453 19.19813346862793 87.56893157958984 24.11771965026855 89.88570404052734 29.59518623352051 C 92.28397369384766 35.26533508300781 93.5 41.28937149047852 93.5 47.5 C 93.5 53.71062850952148 92.28397369384766 59.73468017578125 89.88570404052734 65.40481567382812 C 87.56893157958984 70.88229370117188 84.25196075439453 75.80186462402344 80.02691650390625 80.02691650390625 C 75.80186462402344 84.25196075439453 70.88229370117188 87.56893157958984 65.40481567382812 89.88570404052734 C 59.73468017578125 92.28397369384766 53.71062850952148 93.5 47.5 93.5 Z" stroke="none"/>
                      <path d="M 47.5 3 C 41.49121475219727 3 35.66376876831055 4.176155090332031 30.17950439453125 6.495796203613281 C 24.88084411621094 8.736953735351562 20.12152099609375 11.94598388671875 16.03375244140625 16.03375244140625 C 11.94598388671875 20.12152099609375 8.736953735351562 24.88084411621094 6.495796203613281 30.17950439453125 C 4.176155090332031 35.66376876831055 3 41.49121475219727 3 47.5 C 3 53.50878524780273 4.176155090332031 59.33623123168945 6.495796203613281 64.82049560546875 C 8.736953735351562 70.11915588378906 11.94598388671875 74.87847900390625 16.03375244140625 78.96624755859375 C 20.12152099609375 83.05401611328125 24.88084411621094 86.26304626464844 30.17950439453125 88.50419616699219 C 35.66376876831055 90.82384490966797 41.49121475219727 92 47.5 92 C 53.50878524780273 92 59.33623123168945 90.82384490966797 64.82049560546875 88.50419616699219 C 70.11915588378906 86.26304626464844 74.87847900390625 83.05401611328125 78.96624755859375 78.96624755859375 C 83.05401611328125 74.87847900390625 86.26304626464844 70.11915588378906 88.50419616699219 64.82049560546875 C 90.82384490966797 59.33623123168945 92 53.50878524780273 92 47.5 C 92 41.49121475219727 90.82384490966797 35.66376876831055 88.50419616699219 30.17950439453125 C 86.26304626464844 24.88084411621094 83.05401611328125 20.12152099609375 78.96624755859375 16.03375244140625 C 74.87847900390625 11.94598388671875 70.11915588378906 8.736953735351562 64.82049560546875 6.495796203613281 C 59.33623123168945 4.176155090332031 53.50878524780273 3 47.5 3 M 47.5 0 C 73.7335205078125 0 95 21.2664794921875 95 47.5 C 95 73.7335205078125 73.7335205078125 95 47.5 95 C 21.2664794921875 95 0 73.7335205078125 0 47.5 C 0 21.2664794921875 21.2664794921875 0 47.5 0 Z" stroke="none" fill="#f5b104"/>
                    </g>
                  </g>
                </g>
              </g>
            </g>
          </g>
        </g>
      </g>
    </g>
    <g id="add-volume_18202805" transform="translate(4687.387 4504.387)">
      <circle id="Elipse_12546" data-name="Elipse 12546" cx="36.5" cy="36.5" r="36.5" transform="translate(0.613 0.613)"/>
      <g id="Layer_2_00000104665697838341048040000006893774105440859533_" transform="translate(0.5 0.5)">
        <g id="layer_copy_13" transform="translate(0 0)">
          <g id="_32">
            <circle id="Elipse_12547" data-name="Elipse 12547" cx="36" cy="36" r="36" transform="translate(0.113 0.113)" fill="#fbb13c"/>
            <path id="Trazado_1056311" data-name="Trazado 1056311" d="M121.138,173.024a7.119,7.119,0,0,1-2.674-.515l-14.345-5.635a7.241,7.241,0,0,1-4.62-6.793V152.73a7.262,7.262,0,0,1,4.62-6.793l14.345-5.635a7.291,7.291,0,0,1,9.968,6.793V165.73a7.189,7.189,0,0,1-2.2,5.22,7.434,7.434,0,0,1-5.091,2.074Z" transform="translate(-85.69 -120.214)"/>
            <path id="Trazado_1056312" data-name="Trazado 1056312" d="M107.747,169.872l14.345,5.635a6.738,6.738,0,0,0,8.724-3.79,6.6,6.6,0,0,0,.472-2.46V150.622a6.714,6.714,0,0,0-6.722-6.722,6.546,6.546,0,0,0-2.46.472l-14.345,5.635a6.722,6.722,0,0,0-4.262,6.264v7.351A6.7,6.7,0,0,0,107.747,169.872Z" transform="translate(-89.118 -123.74)" fill="#d81159"/>
            <path id="Trazado_1056313" data-name="Trazado 1056313" d="M230.832,173.023a7.119,7.119,0,0,1-2.674-.515l-.658-.257V140.558l.658-.257a7.28,7.28,0,0,1,9.968,6.779v18.635A7.3,7.3,0,0,1,230.832,173.023Z" transform="translate(-195.384 -120.212)"/>
            <path id="Trazado_1056314" data-name="Trazado 1056314" d="M240.982,150.546v18.635a6.714,6.714,0,0,1-6.722,6.722,6.6,6.6,0,0,1-2.46-.472l-.3-.114V144.411l.3-.114a6.738,6.738,0,0,1,8.724,3.79A6.883,6.883,0,0,1,240.982,150.546Z" transform="translate(-198.812 -123.679)" fill="#033f63"/>
            <path id="Trazado_1056315" data-name="Trazado 1056315" d="M328.415,223.051a1.434,1.434,0,0,1-1.43-1.43v-3.561h-3.561a1.436,1.436,0,1,1-.257-2.86.777.777,0,0,1,.257,0h3.561v-3.575a1.436,1.436,0,1,1,2.86-.257.779.779,0,0,1,0,.257V215.2h3.561a1.436,1.436,0,0,1,0,2.86h-3.561v3.575A1.441,1.441,0,0,1,328.415,223.051Z" transform="translate(-276.248 -180.437)"/>
            <path id="Trazado_1056316" data-name="Trazado 1056316" d="M337,220.091H332.87v-4.133a.858.858,0,0,0-1.716,0v4.133h-4.133a.864.864,0,0,0-.2,1.716.473.473,0,0,0,.2,0h4.133v4.148a.858.858,0,1,0,1.716,0v-4.148H337a.864.864,0,0,0,0-1.716Z" transform="translate(-279.845 -184.758)" fill="#033f63"/>
          </g>
        </g>
      </g>
    </g>
  </g>
</svg>
