<svg xmlns="http://www.w3.org/2000/svg" xmlns:xlink="http://www.w3.org/1999/xlink" width="400" height="323" viewBox="0 0 400 323">
  <defs>
    <clipPath id="clip-path">
      <rect id="Rectángulo_416148" data-name="Rectángulo 416148" width="400" height="323" fill="#fff" stroke="#707070" stroke-width="1"/>
    </clipPath>
    <clipPath id="clip-path-2">
      <rect id="Rectángulo_420928" data-name="Rectángulo 420928" width="275.553" height="303.262" fill="none"/>
    </clipPath>
  </defs>
  <g id="Enmascarar_grupo_1098812" data-name="Enmascarar grupo 1098812" clip-path="url(#clip-path)">
    <g id="Grupo_1177942" data-name="Grupo 1177942" transform="translate(0 14.287)">
      <rect id="Rectángulo_416147" data-name="Rectángulo 416147" width="400" height="132" rx="17" transform="translate(0 83.713)" fill="#f5b104"/>
    </g>
    <g id="Grupo_1210851" data-name="Grupo 1210851" transform="translate(62.224 15.738)">
      <rect id="Rectángulo_420926" data-name="Rectángulo 420926" width="182.763" height="78.232" transform="translate(83.152 208.765)" fill="#3f5197"/>
      <g id="Grupo_1210850" data-name="Grupo 1210850" transform="translate(0 0)">
        <g id="Grupo_1210849" data-name="Grupo 1210849" clip-path="url(#clip-path-2)">
          <path id="Trazado_1056327" data-name="Trazado 1056327" d="M864.394,20.879c-1.009-.211-2.962-.087-2.55-1.736q2.467-3.948,6.655-2.994a3.773,3.773,0,0,1,2.115,1.02c.166.134.24.1.235-.121q-.275-8.165,7.239-11.056a.616.616,0,0,1,.827.676l-.638,3.815a.181.181,0,0,0,.311.153l1.864-1.891c5.675-7.562,15.38-11.7,24.088-6.278,3.937,2.46,4.224,5.682,5.6,9.429a2.906,2.906,0,0,0,1.587,1.388c2.082.987,4.426-.532,6.244.71a5.87,5.87,0,0,1,2.4,4.952,8.282,8.282,0,0,1-.555,6.266c-1.859,5.921-7.585,7.944-13.244,8.513a.261.261,0,0,0-.269.306,1.84,1.84,0,0,0-.341-.031c-.057,0-.112,0-.167.01a8.1,8.1,0,0,0-1.085-2.462,11.8,11.8,0,0,0-5.611-4.522c-7.4,1.369-13.562,2.148-20.7.9-.208-.039-.318.046-.321.261a48.03,48.03,0,0,1-2.008,12.754l.278.027A1.82,1.82,0,0,0,876.107,42a.363.363,0,0,0-.191.16l-2.5,4.458a.39.39,0,0,1-.707-.051l-1.96-5.31-.339-.71a11.981,11.981,0,0,0-6.477-1.037c-1.24-6.4-3.307-13.212.59-18.258.157-.194.113-.319-.134-.372" transform="translate(-727.376 0.001)" fill="#071433"/>
          <path id="Trazado_1056328" data-name="Trazado 1056328" d="M1096.6,839.068a35.324,35.324,0,0,0,5.48,14.268c7.521,11.069,21.594,12.835,29.523,1.25a26.151,26.151,0,0,0,4.43-14.383c-.01-.074-.109-.178-.286-.317a.777.777,0,0,0-.377-.158c-.409-.052-.644.023-.694.222-1.767,7.259-5.3,14.864-13.014,17.312a12.464,12.464,0,0,1-8.8-.395c-8-3.3-12.273-10.2-14.61-18.234a1.478,1.478,0,0,0-1.653.435" transform="translate(-965.063 -758.577)" fill="#fff"/>
          <path id="Trazado_1056329" data-name="Trazado 1056329" d="M569.282,936.668q.971-9.8,2.3-19.678,1.933-14.661,6.919-49.973c1.19-8.451,5.852-14.457,13.854-17.061A222.358,222.358,0,0,1,614.46,844a35.325,35.325,0,0,0,5.48,14.268c7.521,11.069,21.594,12.835,29.523,1.249a26.15,26.15,0,0,0,4.43-14.383q5.288,1.724,10.473,3.243c7.858,2.3,14.164,5.627,16.594,14l.458,2.34.146-.039,22.631,52.247L677.43,945.773l-2.911,2.916q-2.586-7.629-4.3-14.687l-1.825-6.233-.134,19.757.152,6.558-.191.015-.006.775-9.784.064-70.3,6.017a21.34,21.34,0,0,1,.183-6.8.465.465,0,0,0-.6-.53c-4.358,1.359-8.088,1.765-11.994-1-5.446-3.854-7.078-9.493-6.437-15.967" transform="translate(-482.921 -763.507)" fill="#ff7b6c"/>
          <path id="Trazado_1056330" data-name="Trazado 1056330" d="M857.323,1911.177l-2.911,2.917-4.611,5.233a28.692,28.692,0,0,0,7.522-8.149" transform="translate(-662.814 -1728.911)" fill="#1a2b69"/>
          <path id="Trazado_1056331" data-name="Trazado 1056331" d="M761.97,2798.657l-17.5,7.582.523,5.426.912,4.179c5.416,2.525,10.5,5.606,16.808,8.912,8.987,4.715,15.053,6.786,24.678,5.138a18.774,18.774,0,0,0,10.627-5.294,3.057,3.057,0,0,0-.263-1.786c-7.957-2.357-16.808-5.774-23.68-11.047a45.446,45.446,0,0,1-12.1-13.109" transform="translate(-593.48 -2531.753)" fill="#1a2b69"/>
          <path id="Trazado_1056332" data-name="Trazado 1056332" d="M21.578,2849.507l-.694,9.155-.293.935a66.763,66.763,0,0,0,13.568,3.111,224.376,224.376,0,0,0,29.2,1.841,26.108,26.108,0,0,0,10.2-2.3,15.518,15.518,0,0,0-7.871-4.364l-14.673-4.449Z" transform="translate(200.023 -2577.753)" fill="#1a2b69"/>
          <path id="Trazado_1056333" data-name="Trazado 1056333" d="M.191,2955.3,0,2959.1q13.458,1.591,26.8,3c8.836.929,18.012,1.829,26.845.46a.428.428,0,0,1,.453.212,1.991,1.991,0,0,0,.752.774q1.024-2.752-1.679-5.594a26.04,26.04,0,0,1-10.207,2.3,224.522,224.522,0,0,1-29.2-1.841A66.747,66.747,0,0,1,.191,2955.3" transform="translate(220.423 -2673.455)" fill="#fff"/>
          <path id="Trazado_1056334" data-name="Trazado 1056334" d="M737.305,2978.867a12.016,12.016,0,0,0,1.306,6.683,109.988,109.988,0,0,1,15.545,7.225c9.308,5.225,20.492,7.162,30.4,3.024a8.635,8.635,0,0,0,5.56-7.509.366.366,0,0,0-.191-.382l-.506-.286a18.778,18.778,0,0,1-10.627,5.294c-9.625,1.648-15.691-.424-24.678-5.139-6.311-3.3-11.4-6.385-16.813-8.91" transform="translate(-584.883 -2694.777)" fill="#fedee0"/>
          <path id="Trazado_1056335" data-name="Trazado 1056335" d="M2.427,2995.207l.041,5.229.144.612a.485.485,0,0,0,.36.381c6.077,1.748,12.932.942,19.232,1.537,11.842,1.117,20.419,1.852,30.732.734,2.2-.238,4.4-1.1,4.315-3.549a.558.558,0,0,0,.024-.5,2.009,2.009,0,0,1-.752-.774.427.427,0,0,0-.453-.212c-8.833,1.37-18.009.469-26.845-.459q-13.335-1.412-26.8-3" transform="translate(217.998 -2709.559)" fill="#fedee0"/>
          <path id="Trazado_1056336" data-name="Trazado 1056336" d="M983.388,335.634a.873.873,0,0,0,.71-.706c1.565-8.414,2.368-16.923,3.36-25.463q-8.228-.668-8.277-7.625a7.019,7.019,0,0,1,3.233-5.979,11.98,11.98,0,0,1,6.477,1.037l.339.71,1.96,5.31a.39.39,0,0,0,.707.05l2.5-4.458a.213.213,0,0,1,.03-.041l.4-1.153-.278-.027a48.04,48.04,0,0,0,2.008-12.754c0-.216.113-.3.321-.261,7.131,1.249,13.3.471,20.7-.9a11.887,11.887,0,0,1,4.73,3.362h.272s.119.268.321.763c.1.134.2.263.286.4a8.671,8.671,0,0,1,1.36,4.039c3.794,11.283,9.728,37.1-14.944,38.258l-.334,4.261a1.487,1.487,0,0,0,1.273,1.589,14.988,14.988,0,0,1,4.924,1.678c-1.767,7.258-5.3,14.864-13.014,17.312a12.462,12.462,0,0,1-8.8-.395c-8-3.3-12.273-10.2-14.61-18.234Z" transform="translate(-845.848 -256.352)" fill="#fcdbb4"/>
          <path id="Trazado_1056337" data-name="Trazado 1056337" d="M927.669,367.134A10.039,10.039,0,1,0,917.631,357.1a10.038,10.038,0,0,0,10.039,10.039m0-17.743a7.7,7.7,0,1,1-7.7,7.7,7.7,7.7,0,0,1,7.7-7.7" transform="translate(-749.669 -313.959)" fill="#1a2b69"/>
          <rect id="Rectángulo_420927" data-name="Rectángulo 420927" width="7.002" height="2.217" transform="translate(162.164 41.699)" fill="#1a2b69"/>
          <path id="Trazado_1056338" data-name="Trazado 1056338" d="M1177.99,367.134a10.039,10.039,0,1,0-10.039-10.039,10.039,10.039,0,0,0,10.039,10.039m0-17.743a7.7,7.7,0,1,1-7.7,7.706h0a7.713,7.713,0,0,1,7.7-7.7" transform="translate(-1023.861 -313.959)" fill="#1a2b69"/>
          <path id="Trazado_1056339" data-name="Trazado 1056339" d="M1226.281,423.412c0,2.431,1.325,4.4,2.956,4.4s2.956-1.972,2.956-4.4-1.324-4.405-2.956-4.405-2.956,1.971-2.956,4.405" transform="translate(-1073.59 -379.047)" fill="#1e2855"/>
          <path id="Trazado_1056340" data-name="Trazado 1056340" d="M1212.924,343.391a5.615,5.615,0,0,0-5.731.758c-1.414,1.075-2.782-1.318-1.389-2.378a8.329,8.329,0,0,1,8.507-.757C1215.933,341.739,1214.529,344.11,1212.924,343.391Z" transform="translate(-1054.419 -307.753)" fill="#1e2855"/>
          <path id="Trazado_1056341" data-name="Trazado 1056341" d="M1003.894,423.4c0,2.433-1.324,4.405-2.956,4.405s-2.956-1.972-2.956-4.405,1.319-4.4,2.956-4.4,2.956,1.972,2.956,4.4" transform="translate(-823.517 -379.038)" fill="#1e2855"/>
          <path id="Trazado_1056342" data-name="Trazado 1056342" d="M980.337,343.391a5.614,5.614,0,0,1,5.731.758c1.412,1.075,2.782-1.318,1.39-2.378a8.333,8.333,0,0,0-8.509-.757C977.327,341.739,978.732,344.11,980.337,343.391Z" transform="translate(-805.778 -307.753)" fill="#1e2855"/>
          <path id="Trazado_1056343" data-name="Trazado 1056343" d="M1114.445,599.636c.03,2.171,2.956,2.634,4.033.929.763-1.216,2.708-.1,1.931,1.129-2.258,3.569-8.142,2.384-8.2-2.058a1.119,1.119,0,0,1,2.237,0" transform="translate(-951.106 -541.472)" fill="#1e2855"/>
          <path id="Trazado_1056344" data-name="Trazado 1056344" d="M249.557,1485.912l-26.765,28.853a28.853,28.853,0,0,1-7.522,8.149,4.318,4.318,0,0,1-1.7.954l-28.038.184,4.433,18.708,18.837-.332a216.281,216.281,0,0,1,29.489.062l10.827.28.191-.153a.524.524,0,0,0,.207-.408q.572-18.3,1.479-36.579c.418-8.568,1.794-14.782,5.612-21.772,2.108-3.861,4.827-8.558,9.3-9.716q9.942-2.569,16.38,5.384c2.338,2.89,3.042,5.394,3.032,9.373a39,39,0,0,0,.521,6.379,49.288,49.288,0,0,0,.258-6.676c-1.206-14.068-15.681-20.49-26.755-11.43q-5.745,4.707-9.791,8.74" transform="translate(-28.284 -1332.499)" fill="#0248ff"/>
          <path id="Trazado_1056345" data-name="Trazado 1056345" d="M190.036,1547.9a.288.288,0,0,1,.154,0,.13.13,0,0,1,.116.136l-.912,24.9-.55,17.23a82.034,82.034,0,0,1,0,11.62l-.143,7.1c-.007.251.114.366.366.337a3.8,3.8,0,0,1,1.732.161l29.444,3.935c1.137-.448,1.709-.9,1.717-1.348q.286-9.3.773-18.206.5-10.431.85-20.493c.017-.4.205-.532.572-.423a2,2,0,0,1-.527-1.192q.4-9.417.751-18.844a35.47,35.47,0,0,1,.391-4.228l.75-16.88.256-6.176.98-25.115a39,39,0,0,1-.521-6.379c.01-3.979-.693-6.485-3.032-9.373q-6.444-7.954-16.38-5.384c-4.476,1.158-7.195,5.855-9.3,9.716-3.815,6.988-5.195,13.2-5.612,21.772q-.905,18.282-1.479,36.579a.523.523,0,0,1-.207.408Z" transform="translate(30.801 -1337.629)" fill="#145cff"/>
          <path id="Trazado_1056346" data-name="Trazado 1056346" d="M1062.65,1525.541c.033.3.217.413.543.35.185-.034.235.035.155.2a17.932,17.932,0,0,0-1.726,5.126,78.568,78.568,0,0,0,.321,22.03q2.3,14.079,6.39,32.578a2.19,2.19,0,0,1,.068,1.091l14.66,67.564a.382.382,0,0,0,.55.258l7.3-3.7,17.5-7.582,5.4-2.414a.8.8,0,0,0,.453-.916l-12.664-53.311-4.437-18.709-5.324-22.662-1.782-7.057c-1.777-7.022-4.717-14.583-12.7-16.261a16.516,16.516,0,0,0-14.709,3.419" transform="translate(-939.921 -1376.548)" fill="#145cff"/>
          <path id="Trazado_1056347" data-name="Trazado 1056347" d="M1560.984,1562.287l-.609.54A18.3,18.3,0,0,0,1556.8,1568l-11.784,36.589-1.56,6.156a84.954,84.954,0,0,0-1.731,13.111q12.779-.533,25-.191a2.185,2.185,0,0,0-.068-1.091q-4.094-18.494-6.39-32.578a78.377,78.377,0,0,1-.322-22.03,18.086,18.086,0,0,1,1.726-5.126c.079-.165.03-.235-.155-.2-.323.062-.506-.052-.54-.351" transform="translate(-1438.255 -1413.294)" fill="#0248ff"/>
          <path id="Trazado_1056348" data-name="Trazado 1056348" d="M455.9,1016.163q-5.136,15.577-10.2,31.225c-.3.389-.691.866-1.125,1.409-2.744,3.433-7.494,9.517-7.057,12.54a.991.991,0,0,0,1.473.679,6.828,6.828,0,0,0,1.018-.688l-.858,2.338a4.1,4.1,0,0,0-1.751,3.269l-2.793,8.849-.472,1.032-4.686,13.352a1.1,1.1,0,0,1-.91.709l-11.758,1.406-57.6,6.419-5.674.632,13.171-40.175,1.45-4.424a.231.231,0,0,0,.426-.028q2.181-7.281,4.407-14.5,3.084-9.989,6.25-19.848c.677-2.109.858-2.719,3.391-3.009q26.553-3.052,53.18-6.055l18.746-1.945a1.22,1.22,0,0,1,1.263.719,8.4,8.4,0,0,1,.117,6.09" transform="translate(-214.575 -913.085)" fill="#71a4ff"/>
          <path id="Trazado_1056349" data-name="Trazado 1056349" d="M476.84,1381s5.029,19.134-10.491,27.225c0,0-14.651,5.245-17.493-1.64,0,0-2.406-16.837,10.931-19.242Z" transform="translate(-244.855 -1249.293)" fill="#fcdbb4"/>
          <path id="Trazado_1056350" data-name="Trazado 1056350" d="M1061.357,1459l18.076,4.81s4.375,2.766,1.9,8.892c0,0,0,10.933-10.935,12.828,0,0-18.951,1.606-21.574-5.54,0,0-.439-20.7,12.537-20.991" transform="translate(-906.561 -1319.854)" fill="#fcdbb4"/>
          <path id="Trazado_1056351" data-name="Trazado 1056351" d="M1947.3,531.567a54.3,54.3,0,0,0-.241-12.182l.066-3.787a.172.172,0,0,1,.152-.191.184.184,0,0,1,.038,0l10.691-.151a3.433,3.433,0,0,1-.251-1.29V501.849a3.462,3.462,0,0,1,3.462-3.462h13.372a3.46,3.46,0,0,1,3.46,3.46v12.121a3.472,3.472,0,0,1-.243,1.274l10.144.08a.243.243,0,0,1,.275.286l-.148,3.947q-.211,8.433-.083,16.93c.1,6.806-.286,14.044-.047,21.116.1,2.766-3.338,2.235-5.14,2.193a.522.522,0,0,0-.388.15l-.538.511a.605.605,0,0,1-.445.171q-20.929-.256-27.963-.113a4.252,4.252,0,0,1-2.077-.351.167.167,0,0,0-.234.03.16.16,0,0,0-.025.047.268.268,0,0,0,.074.374l-2.033-.127a.557.557,0,0,0-.157-.564.5.5,0,0,0-.407-.142q-1.5.176-1.5-1.366-.013-10.586-.111-21.163-.025-2.146.3-5.686" transform="translate(-1898.356 -450.857)" fill="#18215c"/>
          <path id="Trazado_1056352" data-name="Trazado 1056352" d="M1985.7,731.253c11.5.395,21.031-10.386,19.038-21.783a30.369,30.369,0,0,0-1.126-3.712c-1.759-5.054-7.125-11.052-12.779-11.964-11.967-1.92-23.2,4.409-24.128,17.331-.784,10.77,8.608,19.767,19,20.127m-14.809-22.945a15.64,15.64,0,1,1,11.378,18.786A15.529,15.529,0,0,1,1970.887,708.308Z" transform="translate(-1917.003 -627.322)" fill="#272a75"/>
          <path id="Trazado_1056353" data-name="Trazado 1056353" d="M2380.194,697.479a.925.925,0,0,1,.715,1.049q-.02,4.53-.052,9.19a.28.28,0,0,1-.278.276l-18.3-.041a.267.267,0,0,1-.3-.311l.148-8.784c-3.128-.08-5.716-.715-5.722,3.49q-.025,14.734-.006,29.481a43.925,43.925,0,0,0,.07,6.493c.237,1.513,2.273,1.621,3.636,1.634q13.986.046,27.954-.061a.557.557,0,0,0-.157-.564.5.5,0,0,0-.407-.142q-1.5.176-1.5-1.366-.013-10.586-.111-21.163-.021-2.14.305-5.68a54.3,54.3,0,0,0-.241-12.182l-3.317-.1a.215.215,0,0,1-.237-.192.207.207,0,0,1,0-.051l-.016-1.364a.3.3,0,0,0-.249-.3c-1.346-.222-1.987.007-1.93.682" transform="translate(-2337.243 -630.271)" fill="#0b1a47"/>
          <path id="Trazado_1056354" data-name="Trazado 1056354" d="M1588.449,719.761c.171.109.275.2.3.268a.457.457,0,0,1-.426.608q-8.612.062-17.37-.107a12.77,12.77,0,0,0-1.837.171.4.4,0,0,0-.311.191c-.819,1.3-.547,2.128-.567,3.491q-.2,16.314-.209,32.628c0,.639.371.931.39,1.609a4.339,4.339,0,0,0,.677,2.219l1.767-.006q7.86-.047,16.076.1c2.318.036,4.252.347,5.108-1.78a4.778,4.778,0,0,0,.083-1.977l-.052-20.265q-.01-6.889-.007-13.809c0-2.625-.93-3.673-3.621-3.337" transform="translate(-1466.182 -651.064)" fill="#18215c"/>
          <path id="Trazado_1056355" data-name="Trazado 1056355" d="M1726.169,720.337h-32.548q-.211,8.433-.083,16.93c.1,6.806-.286,14.044-.047,21.117.1,2.766-3.338,2.235-5.14,2.193a.522.522,0,0,0-.388.15l-.538.511a.606.606,0,0,1-.445.171q-20.929-.256-27.963-.112a4.253,4.253,0,0,1-2.077-.351.167.167,0,0,0-.234.03.164.164,0,0,0-.025.047.268.268,0,0,0,.074.374c.137,2.081-.875,6.314,2.5,6.286q5.913-.054,9.969.1a.218.218,0,0,1,.238.2.234.234,0,0,1,0,.051v7.294a.191.191,0,0,1-.221.219l-22.948.069a.388.388,0,0,1-.319-.143,5.466,5.466,0,0,0-4.8-1.982q-15.593-.023-31.186,0a9.188,9.188,0,0,0-3.661.521,4.143,4.143,0,0,0-.332,7.369,6.8,6.8,0,0,0,3.189.572q7.456,0,14.912.006l6.506.018,4.641-.032c3.743.07,10.194,1.349,11.158-3.81a.382.382,0,0,1,.278-.315,2.634,2.634,0,0,1,1.1-.062l21.458.149a.235.235,0,0,1,.226.233v6.914a.311.311,0,0,1-.319.348l-1.726.163a.47.47,0,0,0-.423.513.531.531,0,0,0,.01.059l.524,2.306.419,3.691a.3.3,0,0,1-.191.333c-5.416,2.335-7.667,9.588-2.729,13.695a.885.885,0,0,1,.292.919l-6.453,24.088-7.445,27.943-2.319,9.167-8.136,31.109-1.959,7.272-7.32,27.968q-.44,3.691,3.047,6.359a12.653,12.653,0,0,0,4.827.1q4.533-1.705,5.3-7.057l4.644-17.216a.314.314,0,0,1,.331-.251l32.753-.015,10.967-.009a.286.286,0,0,1,.3.226l1.778,6.627,3.025,11.2c.148,0,.236.085.269.261a8.176,8.176,0,0,0,4.53,6.254,14.17,14.17,0,0,0,5.012-.018q3.885-2.463,3.523-6.473L1709,923.559l-2.262-8.378-1.7-6.04-2.106-7.827-1.783-6.421L1698.953,887l-5.171-18.949-2.372-8.937-13.438-48.652-.812-3.161a.3.3,0,0,1,.138-.359,8.716,8.716,0,0,0,3.91-6.357,7.983,7.983,0,0,0-5.531-8.057.312.312,0,0,1-.217-.381l1.113-6.485a.2.2,0,0,0-.168-.23l-.022,0-1.819-.029a.2.2,0,0,1-.227-.176.2.2,0,0,1,0-.055V767.9a.205.205,0,0,1,.23-.23q5.571-.011,11.1-.019c3.331-.01,2.575-4.06,2.593-6.1a.215.215,0,0,1,.193-.234.211.211,0,0,1,.044,0l18.317.1a4.337,4.337,0,0,1-.677-2.219c-.019-.678-.39-.97-.39-1.609q0-16.308.209-32.628c.019-1.364-.253-2.193.567-3.491a.4.4,0,0,1,.311-.191,12.907,12.907,0,0,1,1.837-.171q8.757.174,17.37.107a.457.457,0,0,0,.426-.608.78.78,0,0,0-.3-.262m-24.906,4.156a.126.126,0,0,1,.124-.125h3.63a.125.125,0,0,1,.125.125v33.439a.127.127,0,0,1-.125.127h-3.63a.128.128,0,0,1-.124-.127Zm-23.012,134.53,2.469,9.171,8.84,32.834,1.662,6.631c.042.168-.024.251-.191.256l-19.394.006h-19.73a.176.176,0,0,1-.178-.173.178.178,0,0,1,.005-.045l10.276-39.5,2.485-9.23c2.218-8.457,4.747-16.955,6.374-25.348a.214.214,0,0,1,.415-.021Z" transform="translate(-1603.903 -651.639)" fill="#0b1a47"/>
          <path id="Trazado_1056356" data-name="Trazado 1056356" d="M2001.96,739.153a15.641,15.641,0,1,0,18.943-11.111,15.537,15.537,0,0,0-18.943,11.111m1.073,3.529a14.232,14.232,0,1,1,14.23,14.234,14.232,14.232,0,0,1-14.23-14.234Z" transform="translate(-1948.076 -658.167)" fill="#fff"/>
          <path id="Trazado_1056357" data-name="Trazado 1056357" d="M1831.535,762.607h-3.63a.126.126,0,0,0-.124.125v33.439a.127.127,0,0,0,.124.127h3.63a.127.127,0,0,0,.125-.127V762.732a.125.125,0,0,0-.125-.125" transform="translate(-1730.42 -689.878)" fill="#c7bcff"/>
          <path id="Trazado_1056358" data-name="Trazado 1056358" d="M2028.841,737a14.233,14.233,0,1,1-14.23,14.236v0A14.23,14.23,0,0,1,2028.84,737Z" transform="translate(-1959.655 -666.711)" fill="#272a75"/>
          <path id="Trazado_1056359" data-name="Trazado 1056359" d="M2409.145,635.537h16.25a3.528,3.528,0,0,1,3.462,3.592V650.5a3.529,3.529,0,0,1-3.462,3.592h-16.252a3.529,3.529,0,0,1-3.463-3.592V639.129a3.531,3.531,0,0,1,3.465-3.592" transform="translate(-2382.73 -574.927)" fill="#18215c"/>
        </g>
      </g>
    </g>
  </g>
</svg>
