<svg xmlns="http://www.w3.org/2000/svg" xmlns:xlink="http://www.w3.org/1999/xlink" width="108" height="108" viewBox="0 0 108 108">
  <defs>
    <filter id="Trazado_904820" x="0" y="0" width="108" height="108" filterUnits="userSpaceOnUse">
      <feOffset dy="3" input="SourceAlpha"/>
      <feGaussianBlur stdDeviation="3" result="blur"/>
      <feFlood flood-opacity="0.161"/>
      <feComposite operator="in" in2="blur"/>
      <feComposite in="SourceGraphic"/>
    </filter>
  </defs>
  <g id="Grupo_1210686" data-name="Grupo 1210686" transform="translate(9 6)">
    <g id="Grupo_1173585" data-name="Grupo 1173585" transform="translate(0 0)">
      <g id="Grupo_1173428" data-name="Grupo 1173428">
        <g id="Grupo_1171958" data-name="Grupo 1171958">
          <g id="Grupo_1167341" data-name="Grupo 1167341">
            <g id="Grupo_1166792" data-name="Grupo 1166792">
              <g transform="matrix(1, 0, 0, 1, -9, -6)" filter="url(#Trazado_904820)">
                <g id="Trazado_904820-2" data-name="Trazado 904820" transform="translate(9 6)" fill="#ebfefd">
                  <path d="M 44.99999618530273 88.50003814697266 C 39.12687301635742 88.50003814697266 33.43022155761719 87.35011291503906 28.06829643249512 85.08219909667969 C 22.88852119445801 82.89134979248047 18.23629570007324 79.75462341308594 14.24084663391113 75.75917053222656 C 10.24540901184082 71.76372528076172 7.108683586120605 67.11149597167969 4.917821407318115 61.93172454833984 C 2.649921178817749 56.56979751586914 1.499996185302734 50.87314605712891 1.499996185302734 45.00002288818359 C 1.499996185302734 39.12689971923828 2.649921178817749 33.43024826049805 4.917821407318115 28.06830978393555 C 7.108683586120605 22.88853454589844 10.24540901184082 18.2363224029541 14.24084663391113 14.24087333679199 C 18.23629570007324 10.24542331695557 22.88852119445801 7.108697891235352 28.06829643249512 4.917835235595703 C 33.43022155761719 2.649935483932495 39.12687301635742 1.500010371208191 44.99999618530273 1.500010371208191 C 50.87311935424805 1.500010371208191 56.56977081298828 2.649935483932495 61.93169784545898 4.917835235595703 C 67.11147308349609 7.108697891235352 71.76369476318359 10.24542331695557 75.75914764404297 14.24087333679199 C 79.75458526611328 18.2363224029541 82.89131164550781 22.88853454589844 85.08216857910156 28.06830978393555 C 87.35007476806641 33.43024826049805 88.5 39.12689971923828 88.5 45.00002288818359 C 88.5 50.87314605712891 87.35007476806641 56.56979751586914 85.08216857910156 61.93172454833984 C 82.89131164550781 67.11149597167969 79.75458526611328 71.76372528076172 75.75914764404297 75.75917053222656 C 71.76369476318359 79.75462341308594 67.11147308349609 82.89134979248047 61.93169784545898 85.08219909667969 C 56.56977081298828 87.35011291503906 50.87311935424805 88.50003814697266 44.99999618530273 88.50003814697266 Z" stroke="none"/>
                  <path d="M 44.99999618530273 3.000007629394531 C 39.32870864868164 3.000007629394531 33.82865142822266 4.110069274902344 28.65262603759766 6.299354553222656 C 23.65165710449219 8.414581298828125 19.15968322753906 11.44335174560547 15.301513671875 15.30152130126953 C 11.44333648681641 19.15969085693359 8.414566040039062 23.65166473388672 6.299339294433594 28.65263748168945 C 4.110054016113281 33.82867813110352 2.999992370605469 39.3287353515625 2.999992370605469 45.00002288818359 C 2.999992370605469 50.67131042480469 4.110054016113281 56.17136764526367 6.299339294433594 61.34739685058594 C 8.414566040039062 66.34838104248047 11.44333648681641 70.84033966064453 15.301513671875 74.69850921630859 C 19.15968322753906 78.55669403076172 23.65165710449219 81.58546447753906 28.65262603759766 83.70069122314453 C 33.82865142822266 85.88997650146484 39.32870864868164 87.00003814697266 44.99999618530273 87.00003814697266 C 50.67128372192383 87.00003814697266 56.17134094238281 85.88997650146484 61.34736633300781 83.70069122314453 C 66.34834289550781 81.58546447753906 70.84030914306641 78.55669403076172 74.69847869873047 74.69850921630859 C 78.55665588378906 70.84033966064453 81.58542633056641 66.34838104248047 83.70065307617188 61.34739685058594 C 85.88993835449219 56.17136764526367 87 50.67131042480469 87 45.00002288818359 C 87 39.3287353515625 85.88993835449219 33.82867813110352 83.70065307617188 28.65263748168945 C 81.58542633056641 23.65166473388672 78.55665588378906 19.15969085693359 74.69847869873047 15.30152130126953 C 70.84030914306641 11.44335174560547 66.34834289550781 8.414581298828125 61.34736633300781 6.299354553222656 C 56.17134094238281 4.110069274902344 50.67128372192383 3.000007629394531 44.99999618530273 3.000007629394531 M 44.99999618530273 7.62939453125e-06 C 69.85281372070312 7.62939453125e-06 90 20.14719390869141 90 45.00002288818359 C 90 69.85283660888672 69.85281372070312 90.00003814697266 44.99999618530273 90.00003814697266 C 20.14717864990234 90.00003814697266 -7.62939453125e-06 69.85283660888672 -7.62939453125e-06 45.00002288818359 C -7.62939453125e-06 20.14719390869141 20.14717864990234 7.62939453125e-06 44.99999618530273 7.62939453125e-06 Z" stroke="none" fill="#00dcfd"/>
                </g>
              </g>
            </g>
          </g>
        </g>
      </g>
    </g>
    <g id="multimedia_1892552" transform="translate(19.433 21.09)">
      <path id="Trazado_1056187" data-name="Trazado 1056187" d="M80,78.734H51.437A6.832,6.832,0,0,0,44.6,85.566v28.5H86.828v-28.5A6.832,6.832,0,0,0,80,78.734Zm0,0" transform="translate(-40.15 -70.872)" fill="#9fb8c1"/>
      <path id="Trazado_1056188" data-name="Trazado 1056188" d="M44.605,394.98H86.829v3.771H44.605Zm0,0" transform="translate(-40.15 -355.535)" fill="#81a1aa"/>
      <path id="Trazado_1056189" data-name="Trazado 1056189" d="M53.943,78.734a6.832,6.832,0,0,0-6.832,6.832v28.5H45.36v-28.5a6.832,6.832,0,0,1,6.832-6.832Zm0,0" transform="translate(-40.829 -70.872)" fill="#81a1aa"/>
      <path id="Trazado_1056190" data-name="Trazado 1056190" d="M119.208,123.026V140.6a3.839,3.839,0,0,1-3.839,3.839H88.9a3.838,3.838,0,0,1-3.838-3.839V123.026a3.838,3.838,0,0,1,3.838-3.838H115.37A3.839,3.839,0,0,1,119.208,123.026Zm0,0" transform="translate(-76.57 -107.285)" fill="#c3edfc"/>
      <path id="Trazado_1056191" data-name="Trazado 1056191" d="M54.287,412.512H10.538a2.932,2.932,0,0,0,0,5.864h43.75a2.932,2.932,0,1,0,0-5.864Zm0,0" transform="translate(-6.846 -371.316)" fill="#9fb8c1"/>
      <path id="Trazado_1056192" data-name="Trazado 1056192" d="M56.832,416.9a2.932,2.932,0,0,1-2.549,1.481H10.535a2.932,2.932,0,1,1,0-5.863h1.222a2.932,2.932,0,0,0,2.549,4.382Zm0,0" transform="translate(-6.843 -371.322)" fill="#81a1aa"/>
      <path id="Trazado_1056193" data-name="Trazado 1056193" d="M185.886,415.444h-10.9a2.932,2.932,0,0,1-2.932-2.932h16.768a2.932,2.932,0,0,1-2.932,2.932Zm0,0" transform="translate(-154.868 -371.315)" fill="#81a1aa"/>
      <path id="Trazado_1056194" data-name="Trazado 1056194" d="M27.469,10.231V21.466A2.63,2.63,0,0,1,24.839,24.1h-14.6a2.629,2.629,0,0,1-2.63-2.629V10.231A2.629,2.629,0,0,1,10.236,7.6h14.6A2.63,2.63,0,0,1,27.469,10.231Zm0,0" transform="translate(-6.846 -6.843)" fill="#c3edfc"/>
      <path id="Trazado_1056195" data-name="Trazado 1056195" d="M59.767,66.224v3.719a2.63,2.63,0,0,1-2.629,2.629H43.488L54.881,61.456Zm0,0" transform="translate(-39.144 -55.319)" fill="#e5c84e"/>
      <path id="Trazado_1056196" data-name="Trazado 1056196" d="M21.887,86.6H10.236a2.629,2.629,0,0,1-2.63-2.629V81.411l4.482-4.372Zm0,0" transform="translate(-6.846 -69.346)" fill="#ffe76e"/>
      <path id="Trazado_1056197" data-name="Trazado 1056197" d="M302.244,166.169h-16.2a2.917,2.917,0,0,1-2.917-2.917V150.788a2.917,2.917,0,0,1,2.917-2.917h16.2a2.917,2.917,0,0,1,2.917,2.917v12.464A2.917,2.917,0,0,1,302.244,166.169Zm0,0" transform="translate(-254.85 -133.104)" fill="#ff557e"/>
      <path id="Trazado_1056198" data-name="Trazado 1056198" d="M78.167,33.779a1.732,1.732,0,1,1-1.732-1.732A1.732,1.732,0,0,1,78.167,33.779Zm0,0" transform="translate(-67.243 -28.847)" fill="#ffe76e"/>
      <path id="Trazado_1056199" data-name="Trazado 1056199" d="M369.246,199.422l-5.777-3.335a1.011,1.011,0,0,0-1.516.875v6.671a1.011,1.011,0,0,0,1.516.875l5.777-3.335a1.011,1.011,0,0,0,0-1.75Zm0,0" transform="translate(-325.805 -176.381)" fill="#fff"/>
      <path id="Trazado_1056200" data-name="Trazado 1056200" d="M47.441,40.437h0V33.823a3.681,3.681,0,0,0,3.633-3.676V17.684A3.68,3.68,0,0,0,47.4,14.008a7.6,7.6,0,0,0-7.558-6.9H36.327a.759.759,0,1,0,0,1.519h3.519a6.081,6.081,0,0,1,6.032,5.386H43.059a4.6,4.6,0,0,0-4.26-2.865H21.382V8.622H33.29a.759.759,0,1,0,0-1.519H21.382V3.388A3.393,3.393,0,0,0,17.993,0H3.389A3.393,3.393,0,0,0,0,3.388V14.623a3.393,3.393,0,0,0,3.389,3.389H3.7V40.437h0a3.691,3.691,0,1,0,0,7.383H47.441a3.691,3.691,0,1,0,0-7.383Zm2.11-22.753V30.148a2.16,2.16,0,0,1-2.158,2.158h-16.2a2.16,2.16,0,0,1-2.158-2.158V17.684a2.16,2.16,0,0,1,2.158-2.157h16.2A2.16,2.16,0,0,1,49.552,17.684Zm-34.2-1.191-4.571-4.459L15.736,7.2l4.127,4.026v3.4a1.872,1.872,0,0,1-1.87,1.87ZM3.389,1.518h14.6a1.872,1.872,0,0,1,1.87,1.87V9.1l-3.6-3.508a.759.759,0,0,0-1.06,0l-5.515,5.38L5.772,7.15a.759.759,0,0,0-1.061,0L1.519,10.264V3.389a1.873,1.873,0,0,1,1.87-1.87Zm-1.87,13.1V12.386L5.241,8.755l7.933,7.739H3.389a1.872,1.872,0,0,1-1.87-1.87Zm3.7,3.389H7.736V33.317a4.6,4.6,0,0,0,4.6,4.6h1.161a.759.759,0,0,0,0-1.519H12.334a3.083,3.083,0,0,1-3.079-3.079V18.012h8.738a3.393,3.393,0,0,0,3.389-3.389V12.662H38.8a3.082,3.082,0,0,1,2.545,1.346H31.192a3.681,3.681,0,0,0-3.676,3.676V30.148a3.681,3.681,0,0,0,3.676,3.677H41.836A3.084,3.084,0,0,1,38.8,36.4H16.532a.759.759,0,1,0,0,1.519H38.8a4.6,4.6,0,0,0,4.569-4.091h2.55v6.613H5.215V18.012ZM33.054,41.956a2.176,2.176,0,0,1-2.036,1.413h-10.9a2.176,2.176,0,0,1-2.036-1.413ZM47.441,46.3H3.692a2.173,2.173,0,1,1,0-4.345H16.5a3.7,3.7,0,0,0,3.612,2.932h10.9a3.7,3.7,0,0,0,3.613-2.932h12.81a2.173,2.173,0,1,1,0,4.345Zm0,0"/>
      <path id="Trazado_1056201" data-name="Trazado 1056201" d="M111.127,202.347h12.8a.759.759,0,1,0,0-1.519h-12.8a.759.759,0,1,0,0,1.519Zm0,0" transform="translate(-99.345 -180.772)"/>
      <path id="Trazado_1056202" data-name="Trazado 1056202" d="M111.127,237.359h12.8a.759.759,0,1,0,0-1.519h-12.8a.759.759,0,1,0,0,1.519Zm0,0" transform="translate(-99.345 -212.288)"/>
      <path id="Trazado_1056203" data-name="Trazado 1056203" d="M124.685,271.611a.759.759,0,0,0-.759-.76h-12.8a.759.759,0,1,0,0,1.519h12.8A.759.759,0,0,0,124.685,271.611Zm0,0" transform="translate(-99.344 -243.803)"/>
      <path id="Trazado_1056204" data-name="Trazado 1056204" d="M69.589,29.424A2.491,2.491,0,1,0,67.1,26.933,2.494,2.494,0,0,0,69.589,29.424Zm0-3.463a.972.972,0,1,1-.973.972A.974.974,0,0,1,69.589,25.96Zm0,0" transform="translate(-60.396 -22.001)"/>
      <path id="Trazado_1056205" data-name="Trazado 1056205" d="M362.783,191.908l-5.777-3.335a1.77,1.77,0,0,0-2.655,1.533v6.671a1.766,1.766,0,0,0,2.655,1.533l5.777-3.335a1.77,1.77,0,0,0,0-3.066Zm-.76,1.75-5.777,3.335a.251.251,0,0,1-.376-.217V190.1a.242.242,0,0,1,.126-.217.252.252,0,0,1,.126-.035.244.244,0,0,1,.125.035l5.777,3.335a.251.251,0,0,1,0,.435Zm0,0" transform="translate(-318.962 -169.524)"/>
    </g>
  </g>
</svg>
