<svg xmlns="http://www.w3.org/2000/svg" xmlns:xlink="http://www.w3.org/1999/xlink" width="100.48" height="100.48" viewBox="0 0 100.48 100.48">
  <defs>
    <filter id="Trazado_904820" x="0" y="0" width="100.48" height="100.48" filterUnits="userSpaceOnUse">
      <feOffset dy="3" input="SourceAlpha"/>
      <feGaussianBlur stdDeviation="3" result="blur"/>
      <feFlood flood-opacity="0.161"/>
      <feComposite operator="in" in2="blur"/>
      <feComposite in="SourceGraphic"/>
    </filter>
  </defs>
  <g id="Grupo_1210533" data-name="Grupo 1210533" transform="translate(9 6)">
    <g id="Grupo_1173585" data-name="Grupo 1173585" transform="translate(0 0)">
      <g id="Grupo_1173428" data-name="Grupo 1173428">
        <g id="Grupo_1171958" data-name="Grupo 1171958">
          <g id="Grupo_1167341" data-name="Grupo 1167341">
            <g id="Grupo_1166792" data-name="Grupo 1166792">
              <g transform="matrix(1, 0, 0, 1, -9, -6)" filter="url(#Trazado_904820)">
                <g id="Trazado_904820-2" data-name="Trazado 904820" transform="translate(9 6)" fill="#fdf6e4">
                  <path d="M 41.24003219604492 80.9801025390625 C 35.87450408935547 80.9801025390625 30.67026710510254 79.92960357666016 25.77187919616699 77.85774993896484 C 21.03984451293945 75.85626983642578 16.78972625732422 72.99066162109375 13.13958549499512 69.34051513671875 C 9.489443778991699 65.69037628173828 6.623832225799561 61.44025802612305 4.622349739074707 56.70820999145508 C 2.550502777099609 51.80983352661133 1.499996900558472 46.60558700561523 1.499996900558472 41.24005889892578 C 1.499996900558472 35.87453079223633 2.550502777099609 30.6702823638916 4.622349739074707 25.77190589904785 C 6.623832225799561 21.03985977172852 9.489443778991699 16.78974151611328 13.13958549499512 13.13959980010986 C 16.78972625732422 9.489459037780762 21.03984451293945 6.623847007751465 25.77187919616699 4.62236499786377 C 30.67026710510254 2.550517797470093 35.87450408935547 1.500011801719666 41.24003219604492 1.500011801719666 C 46.60556030273438 1.500011801719666 51.80980682373047 2.550517797470093 56.70818328857422 4.62236499786377 C 61.44021987915039 6.623847007751465 65.69033813476562 9.489459037780762 69.34047698974609 13.13959980010986 C 72.99062347412109 16.78974151611328 75.85623168945312 21.03985977172852 77.85771179199219 25.77190589904785 C 79.92955780029297 30.6702823638916 80.98006439208984 35.87453079223633 80.98006439208984 41.24005889892578 C 80.98006439208984 46.60558700561523 79.92955780029297 51.80983352661133 77.85771179199219 56.70820999145508 C 75.85623168945312 61.44025802612305 72.99062347412109 65.69037628173828 69.34047698974609 69.34051513671875 C 65.69033813476562 72.99066162109375 61.44021987915039 75.85626983642578 56.70818328857422 77.85774993896484 C 51.80980682373047 79.92960357666016 46.60556030273438 80.9801025390625 41.24003219604492 80.9801025390625 Z" stroke="none"/>
                  <path d="M 41.24003219604492 3.000007629394531 C 36.07633972167969 3.000007629394531 31.06869888305664 4.010643005371094 26.35620498657227 6.003875732421875 C 21.8029670715332 7.929725646972656 17.71311187744141 10.68739318847656 14.20024871826172 14.20025634765625 C 10.6873779296875 17.71312713623047 7.929710388183594 21.802978515625 6.003860473632812 26.35622024536133 C 4.010635375976562 31.06871032714844 2.999992370605469 36.07636642456055 2.999992370605469 41.24005889892578 C 2.999992370605469 46.40375137329102 4.010635375976562 51.41139221191406 6.003860473632812 56.12388610839844 C 7.929710388183594 60.6771240234375 10.6873779296875 64.76699066162109 14.20024871826172 68.27986145019531 C 17.71311187744141 71.792724609375 21.8029670715332 74.55039215087891 26.35620498657227 76.47624206542969 C 31.06869888305664 78.46947479248047 36.07633972167969 79.48011016845703 41.24003219604492 79.48011016845703 C 46.40372467041016 79.48011016845703 51.4113655090332 78.46947479248047 56.12385940551758 76.47624206542969 C 60.67710113525391 74.55039215087891 64.76695251464844 71.792724609375 68.27981567382812 68.27986145019531 C 71.79268646240234 64.76699066162109 74.55033874511719 60.6771240234375 76.47620391845703 56.12388610839844 C 78.46942138671875 51.41139221191406 79.48005676269531 46.40375137329102 79.48005676269531 41.24005889892578 C 79.48005676269531 36.07636642456055 78.46942138671875 31.06871032714844 76.47620391845703 26.35622024536133 C 74.55033874511719 21.802978515625 71.79268646240234 17.71312713623047 68.27981567382812 14.20025634765625 C 64.76695251464844 10.68739318847656 60.67710113525391 7.929725646972656 56.12385940551758 6.003875732421875 C 51.4113655090332 4.010643005371094 46.40372467041016 3.000007629394531 41.24003219604492 3.000007629394531 M 41.24003219604492 7.62939453125e-06 C 64.01627349853516 7.62939453125e-06 82.48005676269531 18.46380615234375 82.48005676269531 41.24005889892578 C 82.48005676269531 64.01629638671875 64.01627349853516 82.48011016845703 41.24003219604492 82.48011016845703 C 18.46379089355469 82.48011016845703 -7.62939453125e-06 64.01629638671875 -7.62939453125e-06 41.24005889892578 C -7.62939453125e-06 18.46380615234375 18.46379089355469 7.62939453125e-06 41.24003219604492 7.62939453125e-06 Z" stroke="none" fill="#f5b104"/>
                </g>
              </g>
            </g>
          </g>
        </g>
      </g>
    </g>
    <g id="inspire-idea_14781822_1_" data-name="inspire-idea_14781822 (1)" transform="translate(16.67 16.645)">
      <g id="Grupo_1173811" data-name="Grupo 1173811" transform="translate(0 0)">
        <path id="Trazado_1030754" data-name="Trazado 1030754" d="M118.589,345.052v-3.6a2.189,2.189,0,0,0,1.779-2.15v-6.189h11.3V339.3a2.189,2.189,0,0,0,1.779,2.15l.308,3.1Z" transform="translate(-107.619 -300.886)" fill="#ca6e59"/>
        <path id="Trazado_1030755" data-name="Trazado 1030755" d="M59.55,17.241c0,7.121-3.832,15.581-13.588,12.783l-8.141-3.7a3.215,3.215,0,0,1-.212-4.754l.821-.227L39,20.776a3.4,3.4,0,0,1,.681-5.827.3.3,0,0,0,.175-.349,3.224,3.224,0,0,1-.09-.759,3.138,3.138,0,0,1,3.1-3.171,3.107,3.107,0,0,1,.6.06,1.473,1.473,0,0,1,.235-.238A1.254,1.254,0,0,0,44.228,9.4a3.5,3.5,0,0,1,4.9-.346.3.3,0,0,0,.443-.071,3.071,3.071,0,0,1,5.256,0,.3.3,0,0,0,.444.071,3.486,3.486,0,0,1,.7-.463C59.55,9.676,59.55,14.672,59.55,17.241Z" transform="translate(-33.799 -7.5)" fill="#73788c"/>
        <path id="Trazado_1030756" data-name="Trazado 1030756" d="M152.417,30.336a3.19,3.19,0,0,1-1.161,2.472l-9.311,5.06h-8.323l-2.983-1.357a14.625,14.625,0,0,0,10.006-21.434,3.464,3.464,0,0,1,1.576-.377,3.512,3.512,0,0,1,2.628,1.187l.163.8.592.532a3.1,3.1,0,0,1,.6-.06,3.139,3.139,0,0,1,3.1,3.171,3.242,3.242,0,0,1-.163,1.014,3.393,3.393,0,0,1,.929,5.92A3.161,3.161,0,0,1,152.417,30.336Z" transform="translate(-118.477 -13.987)" fill="#5e6577"/>
        <path id="Trazado_1030757" data-name="Trazado 1030757" d="M67.209,199.966a5.419,5.419,0,0,0,4.128-5.263h0a2.155,2.155,0,0,0-2.155-2.155H67.209l-21.706,0H43.53a2.155,2.155,0,0,0-2.155,2.155h0a5.419,5.419,0,0,0,4.128,5.262Z" transform="translate(-38.047 -174.234)" fill="#ca6e59"/>
        <path id="Trazado_1030758" data-name="Trazado 1030758" d="M99.386,130.944a2.144,2.144,0,0,1,2.8.922,8.608,8.608,0,0,0,.718,1.091l.468.623c.2.578.639,3.278,1.251,3.278v8.221a6.858,6.858,0,0,1-2.342,5.162l-4.259,3.727a4.571,4.571,0,0,1-3.01,1.13H92.486a4.571,4.571,0,0,1-3.01-1.13l-4.259-3.727a6.858,6.858,0,0,1-2.342-5.162v-8.221a1.456,1.456,0,0,0,1.353-.995l.938-3.659a2.143,2.143,0,0,1,2.953-1.239l.137.066,1.1.423a12.215,12.215,0,0,0,8.741,0l1.1-.423Z" transform="translate(-75.44 -118.542)" fill="#d78878"/>
        <path id="Trazado_1030759" data-name="Trazado 1030759" d="M170.581,299.994c-2.348,0-2.453-2.167-2.413-2.954a.3.3,0,0,1,.3-.281h4.226a.3.3,0,0,1,.3.288C173.007,297.84,172.852,299.994,170.581,299.994Z" transform="translate(-152.285 -268.131)" fill="#eaf6ff"/>
        <path id="Trazado_1030760" data-name="Trazado 1030760" d="M14.259,439.486l-6.212-.014a.3.3,0,0,1-.3-.3v-5.516a.3.3,0,0,1,.159-.264A9.6,9.6,0,0,1,10.5,432.5l.716-.144,6.313,2.342Z" transform="translate(-7.75 -390.309)" fill="#9be69d"/>
        <path id="Trazado_1030761" data-name="Trazado 1030761" d="M297.434,435.128l-2.4,3.911-8.273.006-2.993-5.242c.033-.034,6.051-1.923,6.051-1.923l.409.078a9.6,9.6,0,0,1,2.705.952Z" transform="translate(-256.453 -389.877)" fill="#9be69d"/>
        <path id="Trazado_1030762" data-name="Trazado 1030762" d="M121.656,418.39l.9,4.541-3.268,3.956-9.922.011-3.764-4.149,1.4-4.337A10.163,10.163,0,0,0,121.656,418.39Z" transform="translate(-95.922 -377.722)" fill="#eaf6ff"/>
        <path id="Trazado_1030763" data-name="Trazado 1030763" d="M48.865,408.638l-2.7-9.718a1.088,1.088,0,0,0-1.364-.749L38.79,400a.471.471,0,0,0-.294.642l1.267,2.87a.3.3,0,0,0,.205.169l3.088.708a.3.3,0,0,1,.177.459l-1.676,2.4a.3.3,0,0,0-.036.27l.4,1.115Z" transform="translate(-35.416 -359.462)" fill="#bbf49b"/>
        <path id="Trazado_1030764" data-name="Trazado 1030764" d="M243.879,408.42l2.706-9.729a1.087,1.087,0,0,1,1.364-.749l6.008,1.83a.472.472,0,0,1,.294.642l-1.267,2.87a.3.3,0,0,1-.205.169l-3.088.708a.3.3,0,0,0-.177.459l1.676,2.4a.3.3,0,0,1,.036.27l-.405,1.129Z" transform="translate(-220.508 -359.256)" fill="#bbf49b"/>
        <g id="Grupo_1173808" data-name="Grupo 1173808" transform="translate(36.639 26.849)">
          <path id="Trazado_1030765" data-name="Trazado 1030765" d="M389.694,387.922v3.806a11.6,11.6,0,0,1-.261,2.307,8.1,8.1,0,0,1-.938,1.687c-.6,1.01-.337,2.049-.333,3.223l-.761.486h-7.5V397.8a4.093,4.093,0,0,0-1.077-2.766,3.388,3.388,0,0,1-.89-2.286v-1.64a2.007,2.007,0,0,1,.857-1.645Z" transform="translate(-377.933 -377.119)" fill="#d78878"/>
          <g id="Grupo_1173807" data-name="Grupo 1173807" transform="translate(9.154 6.391)">
            <path id="Trazado_1030766" data-name="Trazado 1030766" d="M473.031,343.989v3.774a.791.791,0,0,1-.318.708c-.238.238-1.072-.126-1.434-.123l-.645-.69-.209-2.453.685-.529a1.327,1.327,0,0,1,1.293-1.325C472.838,343.512,473.031,343.736,473.031,343.989Z" transform="translate(-470.425 -343.35)" fill="#d78878"/>
            <path id="Trazado_1030767" data-name="Trazado 1030767" d="M481.541,344.666v2.982a1.328,1.328,0,0,1-2.4.78l-.085-.09a1.328,1.328,0,0,0,1.316-1.328v-2.979a1.32,1.32,0,0,0-.193-.69h.036A1.327,1.327,0,0,1,481.541,344.666Z" transform="translate(-478.2 -343.34)" fill="#ca6e59"/>
          </g>
          <path id="Trazado_1030768" data-name="Trazado 1030768" d="M476.585,386.87v3.97a6.472,6.472,0,0,1-.911,3.311,6.476,6.476,0,0,0-.91,3.335l0,.7a.3.3,0,0,1-.3.3h-.913l0-1a6.486,6.486,0,0,1,.911-3.335,6.472,6.472,0,0,0,.911-3.311v-3.8Z" transform="translate(-464.09 -376.171)" fill="#ca6e59"/>
          <path id="Trazado_1030769" data-name="Trazado 1030769" d="M391.333,281.3v10.721c0,.77-1.26,1.4-2.03,1.4l.654-1.749-.9-.861V281.3a1.4,1.4,0,0,1,.825-1.275A1.294,1.294,0,0,1,391.333,281.3Z" transform="translate(-387.952 -279.905)" fill="#d78878"/>
          <path id="Trazado_1030770" data-name="Trazado 1030770" d="M417.589,332.126v3.518c0,.567-.921,1.058-1.408,1.277a1.4,1.4,0,0,1-.828-1.277l-.342-.076v-3.321l.342-.121a1.4,1.4,0,0,1,.828-1.276C417.355,331,417.589,331.56,417.589,332.126Z" transform="translate(-411.341 -325.695)" fill="#d78878"/>
          <path id="Trazado_1030771" data-name="Trazado 1030771" d="M447.187,332.126v3.73c0,.566-1.024,1.057-1.511,1.276a1.4,1.4,0,0,1-.828-1.276l-.334-.213v-3.366l.334-.151a1.4,1.4,0,0,1,.828-1.276C447,331.03,447.187,331.56,447.187,332.126Z" transform="translate(-437.924 -325.695)" fill="#d78878"/>
          <path id="Trazado_1030772" data-name="Trazado 1030772" d="M399.479,280.17v10.15a.633.633,0,0,1-1.261,0V280.17a1.4,1.4,0,0,0-.824-1.275,1.378,1.378,0,0,1,.574-.125h.112A1.4,1.4,0,0,1,399.479,280.17Z" transform="translate(-395.468 -278.77)" fill="#ca6e59"/>
          <path id="Trazado_1030773" data-name="Trazado 1030773" d="M428.917,331v3.518a1.4,1.4,0,0,1-1.4,1.4h-.113a1.367,1.367,0,0,1-.571-.124,1.4,1.4,0,0,0,.828-1.277V331a1.4,1.4,0,0,0-.828-1.276,1.367,1.367,0,0,1,.571-.124h.113A1.4,1.4,0,0,1,428.917,331Z" transform="translate(-421.994 -324.569)" fill="#ca6e59"/>
          <path id="Trazado_1030774" data-name="Trazado 1030774" d="M458.337,331v3.73a1.4,1.4,0,0,1-1.4,1.4h-.112a1.364,1.364,0,0,1-.571-.124,1.4,1.4,0,0,0,.827-1.276V331a1.4,1.4,0,0,0-.827-1.276,1.364,1.364,0,0,1,.571-.124h.112A1.4,1.4,0,0,1,458.337,331Z" transform="translate(-448.502 -324.569)" fill="#ca6e59"/>
          <path id="Trazado_1030775" data-name="Trazado 1030775" d="M398.878,367.006a3.009,3.009,0,0,1-.064.616c-.26,1.245-2.112,1.4-3.425,1.536a4.187,4.187,0,0,0-2.481-.338c-.785.243-1.277,1.5-1.289,1.495l-2.569-1.344v-1.265l2.481-1.784a2.779,2.779,0,0,1,1.588-.517l4.119-.039A1.642,1.642,0,0,1,398.878,367.006Z" transform="translate(-387.95 -356.795)" fill="#ca6e59"/>
          <path id="Trazado_1030776" data-name="Trazado 1030776" d="M390.368,380.77l1.172-1.577a.3.3,0,0,1,.2-.118l2.532-.307a2.01,2.01,0,0,0,1.385-1.928.676.676,0,0,0-.68-.661h-3.726a2.515,2.515,0,0,0-1.443.454l-3.216,2.251Z" transform="translate(-385.738 -366.538)" fill="#d78878"/>
        </g>
        <g id="Grupo_1173810" data-name="Grupo 1173810" transform="translate(27.195 1.399)">
          <path id="Trazado_1030777" data-name="Trazado 1030777" d="M302.369,29.565a11.53,11.53,0,0,1-11.448,11.707c-2.088,0-6.674-1.533-7.27-3.2l.113-.455a.294.294,0,0,0-.026-.207A10.807,10.807,0,0,1,300.472,24.33,10.259,10.259,0,0,1,302.369,29.565Z" transform="translate(-282.517 -21.635)" fill="#eaf6ff"/>
          <path id="Trazado_1030778" data-name="Trazado 1030778" d="M305.118,59.26A10.824,10.824,0,0,1,288.9,66.172a.3.3,0,0,0-.21-.039l-4.457.849a.3.3,0,0,1-.344-.363l.991-4.008A11.655,11.655,0,0,0,301.7,48.865,10.781,10.781,0,0,1,305.118,59.26Z" transform="translate(-283.742 -46.17)" fill="#d8ecfe"/>
          <g id="Grupo_1173809" data-name="Grupo 1173809" transform="translate(5.23 2.692)">
            <path id="Trazado_1030779" data-name="Trazado 1030779" d="M345.238,55.081c0,2.9-3.042,5.7-6,5.7-.448,0-.933.3-1.716-.852a6.3,6.3,0,0,0-.774-1.362,5.364,5.364,0,0,1,3.027-8.883C343.838,49.682,345.238,52.505,345.238,55.081Z" transform="translate(-335.361 -49.598)" fill="#ffe177"/>
            <path id="Trazado_1030780" data-name="Trazado 1030780" d="M364.3,54.2a5.345,5.345,0,0,1-1.365,3.574,6.477,6.477,0,0,0-1.3,3.862v.335l-5.4.017v-.3a9.066,9.066,0,0,0-.664-2.951,5.432,5.432,0,0,0,1.3.156c2.955,0,5.515-1.924,5.515-4.82a5.274,5.274,0,0,0-4.4-5.159A5.368,5.368,0,0,1,364.3,54.2Z" transform="translate(-353.568 -48.837)" fill="#ffd15b"/>
            <path id="Trazado_1030781" data-name="Trazado 1030781" d="M366.592,179.51l.84,1.64c0,.89-.533,1.64-2.449,1.64h-.421a1.611,1.611,0,0,1-1.611-1.611V179.51h3.641Z" transform="translate(-360.22 -166.577)" fill="#5e6577"/>
            <path id="Trazado_1030782" data-name="Trazado 1030782" d="M386.71,179.511v1.669a1.611,1.611,0,0,1-1.611,1.611h-1.625a1.61,1.61,0,0,0,1.61-1.611v-1.669Z" transform="translate(-378.712 -166.578)" fill="#4d5263"/>
            <path id="Trazado_1030783" data-name="Trazado 1030783" d="M353.814,160.516c0,.356.216.76,0,.995a6.486,6.486,0,0,1-2.153.511H347.7a1.246,1.246,0,0,1-1.2-1.291,1.345,1.345,0,0,1,.35-.914,1.153,1.153,0,0,1,.846-.378h3.961C352.322,159.439,353.814,159.8,353.814,160.516Z" transform="translate(-345.401 -148.492)" fill="#73788c"/>
            <path id="Trazado_1030784" data-name="Trazado 1030784" d="M401.976,160.731a1.343,1.343,0,0,1-.35.913,1.153,1.153,0,0,1-.846.378h-2.169a1.151,1.151,0,0,0,.846-.378,1.343,1.343,0,0,0,.35-.913,1.246,1.246,0,0,0-1.2-1.292h2.169A1.246,1.246,0,0,1,401.976,160.731Z" transform="translate(-392.351 -148.492)" fill="#5e6577"/>
          </g>
        </g>
      </g>
      <g id="Grupo_1173820" data-name="Grupo 1173820" transform="translate(0)">
        <g id="Grupo_1173812" data-name="Grupo 1173812" transform="translate(3.328 18.318)">
          <path id="Trazado_1030785" data-name="Trazado 1030785" d="M45.454,199.982a5.419,5.419,0,0,1-4.078-5.25h0a2.155,2.155,0,0,1,2.155-2.155H45.5" transform="translate(-41.376 -192.577)" fill="none" stroke="#000" stroke-linecap="round" stroke-linejoin="round" stroke-miterlimit="10" stroke-width="1.5"/>
          <path id="Trazado_1030786" data-name="Trazado 1030786" d="M306.829,232.041a5.428,5.428,0,0,1-3.772,3.492" transform="translate(-277.157 -228.135)" fill="none" stroke="#000" stroke-linecap="round" stroke-linejoin="round" stroke-miterlimit="10" stroke-width="1.5"/>
        </g>
        <path id="Trazado_1030787" data-name="Trazado 1030787" d="M209.872,132.141a12.213,12.213,0,0,0,2.655-.688l1.1-.423.183-.086a2.143,2.143,0,0,1,2.94,1.245" transform="translate(-189.867 -118.542)" fill="none" stroke="#000" stroke-linecap="round" stroke-linejoin="round" stroke-miterlimit="10" stroke-width="1.5"/>
        <path id="Trazado_1030788" data-name="Trazado 1030788" d="M104.622,140.985v4.227a6.858,6.858,0,0,1-2.342,5.162L98.021,154.1a4.571,4.571,0,0,1-3.01,1.13H92.486a4.571,4.571,0,0,1-3.01-1.13l-4.259-3.727a6.858,6.858,0,0,1-2.342-5.162V136.99A1.456,1.456,0,0,0,84.228,136l.938-3.659a2.144,2.144,0,0,1,2.953-1.239l.137.066,1.1.423a12.206,12.206,0,0,0,2.639.685" transform="translate(-75.439 -118.675)" fill="none" stroke="#000" stroke-linecap="round" stroke-linejoin="round" stroke-miterlimit="10" stroke-width="1.5"/>
        <g id="Grupo_1173814" data-name="Grupo 1173814" transform="translate(12.027 17.377)">
          <g id="Grupo_1173813" data-name="Grupo 1173813">
            <path id="Trazado_1030789" data-name="Trazado 1030789" d="M184.17,262.089a2.294,2.294,0,0,1-2.081,0" transform="translate(-176.861 -254.268)" fill="none" stroke="#000" stroke-linecap="round" stroke-linejoin="round" stroke-miterlimit="10" stroke-width="1.5"/>
            <path id="Trazado_1030790" data-name="Trazado 1030790" d="M133.072,183.561a3.958,3.958,0,0,0-3.806,0" transform="translate(-129.266 -183.073)" fill="none" stroke="#000" stroke-linecap="round" stroke-linejoin="round" stroke-miterlimit="10" stroke-width="1.5"/>
            <path id="Trazado_1030791" data-name="Trazado 1030791" d="M221.292,183.561a3.958,3.958,0,0,0-3.806,0" transform="translate(-208.754 -183.073)" fill="none" stroke="#000" stroke-linecap="round" stroke-linejoin="round" stroke-miterlimit="10" stroke-width="1.5"/>
            <line id="Línea_813" data-name="Línea 813" y1="1.686" transform="translate(10.634 2.858)" fill="none" stroke="#000" stroke-linecap="round" stroke-linejoin="round" stroke-miterlimit="10" stroke-width="1.5"/>
            <line id="Línea_814" data-name="Línea 814" y1="1.686" transform="translate(1.903 2.858)" fill="none" stroke="#000" stroke-linecap="round" stroke-linejoin="round" stroke-miterlimit="10" stroke-width="1.5"/>
          </g>
          <path id="Trazado_1030792" data-name="Trazado 1030792" d="M170.581,299.994c-2.868,0-2.389-3.234-2.389-3.234h4.777S173.364,299.994,170.581,299.994Z" transform="translate(-164.313 -285.508)" fill="none" stroke="#000" stroke-linecap="round" stroke-linejoin="round" stroke-miterlimit="10" stroke-width="1.5"/>
        </g>
        <path id="Trazado_1030793" data-name="Trazado 1030793" d="M63.893,11.781a3.06,3.06,0,0,0-2.963-1.05,3.562,3.562,0,0,0-3.383-2.518,3.506,3.506,0,0,0-2.541,1.094,3.078,3.078,0,0,0-5.606,0,3.506,3.506,0,0,0-2.541-1.094,3.562,3.562,0,0,0-3.383,2.518,3.059,3.059,0,0,0-.6-.06,3.138,3.138,0,0,0-3.1,3.171,3.227,3.227,0,0,0,.163,1.014A3.394,3.394,0,0,0,39,20.776a3.2,3.2,0,0,0-1.178,5.545" transform="translate(-33.802 -7.5)" fill="none" stroke="#000" stroke-linecap="round" stroke-linejoin="round" stroke-miterlimit="10" stroke-width="1.5"/>
        <path id="Trazado_1030794" data-name="Trazado 1030794" d="M61.728,142.209a3.107,3.107,0,0,1-1.4-.568" transform="translate(-55.123 -128.364)" fill="none" stroke="#000" stroke-linecap="round" stroke-linejoin="round" stroke-miterlimit="10" stroke-width="1.5"/>
        <path id="Trazado_1030795" data-name="Trazado 1030795" d="M105.6,40.2a2.946,2.946,0,0,1,1.867,1.24" transform="translate(-95.915 -36.963)" fill="none" stroke="#000" stroke-linecap="round" stroke-linejoin="round" stroke-miterlimit="10" stroke-width="1.5"/>
        <path id="Trazado_1030796" data-name="Trazado 1030796" d="M268.046,40.183a2.95,2.95,0,0,0-1.5,1.143" transform="translate(-240.932 -36.948)" fill="none" stroke="#000" stroke-linecap="round" stroke-linejoin="round" stroke-miterlimit="10" stroke-width="1.5"/>
        <path id="Trazado_1030797" data-name="Trazado 1030797" d="M301.419,32.694q-.05.314-.118.628a11.142,11.142,0,0,1-16.8,7.053l-5.172.986,1.277-5.17A11.113,11.113,0,0,1,288.558,20" transform="translate(-252.418 -18.765)" fill="none" stroke="#000" stroke-linecap="round" stroke-linejoin="round" stroke-miterlimit="10" stroke-width="1.5"/>
        <path id="Trazado_1030798" data-name="Trazado 1030798" d="M407.545,19.544q.4.057.8.144a11.126,11.126,0,0,1,8.634,9.13" transform="translate(-367.975 -18.352)" fill="none" stroke="#000" stroke-linecap="round" stroke-linejoin="round" stroke-miterlimit="10" stroke-width="1.5"/>
        <g id="Grupo_1173815" data-name="Grupo 1173815" transform="translate(32.425 4.094)">
          <path id="Trazado_1030799" data-name="Trazado 1030799" d="M337.687,59.625a6.327,6.327,0,0,0-.944-1.816,5.359,5.359,0,1,1,7.966-.027,6.609,6.609,0,0,0-.96,1.822" transform="translate(-335.355 -48.863)" fill="none" stroke="#000" stroke-linecap="round" stroke-linejoin="round" stroke-miterlimit="10" stroke-width="1.5"/>
          <line id="Línea_815" data-name="Línea 815" y1="3.94" transform="translate(5.358 6.801)" fill="none" stroke="#000" stroke-linecap="round" stroke-linejoin="round" stroke-miterlimit="10" stroke-width="1.5"/>
          <path id="Trazado_1030800" data-name="Trazado 1030800" d="M368.179,186.134v.61a1.979,1.979,0,0,1-1.98,1.979h-1.3a1.979,1.979,0,0,1-1.979-1.979v-.61" transform="translate(-360.19 -172.548)" fill="none" stroke="#000" stroke-linecap="round" stroke-linejoin="round" stroke-miterlimit="10" stroke-width="1.5"/>
          <path id="Trazado_1030801" data-name="Trazado 1030801" d="M355.555,160.385h-5.333a1.355,1.355,0,0,1-1.355-1.355v-.08a1.355,1.355,0,0,1,1.355-1.355h5.333a1.355,1.355,0,0,1,1.355,1.355v.08A1.355,1.355,0,0,1,355.555,160.385Z" transform="translate(-347.53 -146.833)" fill="none" stroke="#000" stroke-linecap="round" stroke-linejoin="round" stroke-miterlimit="10" stroke-width="1.5"/>
          <line id="Línea_816" data-name="Línea 816" x2="3.43" transform="translate(3.715 6.792)" fill="none" stroke="#000" stroke-linecap="round" stroke-linejoin="round" stroke-miterlimit="10" stroke-width="1.5"/>
        </g>
        <path id="Trazado_1030802" data-name="Trazado 1030802" d="M346.53,432.2l.249.047a9.586,9.586,0,0,1,2.7.952" transform="translate(-312.999 -390.161)" fill="none" stroke="#000" stroke-linecap="round" stroke-linejoin="round" stroke-miterlimit="10" stroke-width="1.5"/>
        <path id="Trazado_1030803" data-name="Trazado 1030803" d="M250.768,358.351v3.691a2.189,2.189,0,0,0,1.779,2.15" transform="translate(-226.715 -323.626)" fill="none" stroke="#000" stroke-linecap="round" stroke-linejoin="round" stroke-miterlimit="10" stroke-width="1.5"/>
        <path id="Trazado_1030804" data-name="Trazado 1030804" d="M118.589,417.362h0a10.165,10.165,0,0,0,14.861,0h0" transform="translate(-107.619 -376.796)" fill="none" stroke="#000" stroke-linecap="round" stroke-linejoin="round" stroke-miterlimit="10" stroke-width="1.5"/>
        <path id="Trazado_1030805" data-name="Trazado 1030805" d="M10.887,365.741l-.389.078a9.585,9.585,0,0,0-2.748.975M20.5,358.351v3.691a2.189,2.189,0,0,1-1.779,2.15l-.114.022" transform="translate(-7.75 -323.626)" fill="none" stroke="#000" stroke-linecap="round" stroke-linejoin="round" stroke-miterlimit="10" stroke-width="1.5"/>
        <g id="Grupo_1173816" data-name="Grupo 1173816" transform="translate(2.767 38.662)">
          <path id="Trazado_1030806" data-name="Trazado 1030806" d="M44.964,404.5l-1.553-5.584a1.088,1.088,0,0,0-1.364-.749L36.038,400a.471.471,0,0,0-.294.642l1.328,3.006,3.662.84-2.015,2.888.457,1.274" transform="translate(-35.703 -398.124)" fill="none" stroke="#000" stroke-linecap="round" stroke-linejoin="round" stroke-miterlimit="10" stroke-width="1.5"/>
          <line id="Línea_817" data-name="Línea 817" x1="0.225" y1="0.81" transform="translate(10.189 9.718)" fill="none" stroke="#000" stroke-linecap="round" stroke-linejoin="round" stroke-miterlimit="10" stroke-width="1.5"/>
          <path id="Trazado_1030807" data-name="Trazado 1030807" d="M244.868,408.653l2.707-9.732a1.087,1.087,0,0,1,1.364-.749l6.008,1.83a.472.472,0,0,1,.294.642l-1.328,3.006-3.662.84,2.016,2.889-.457,1.274" transform="translate(-224.166 -398.125)" fill="none" stroke="#000" stroke-linecap="round" stroke-linejoin="round" stroke-miterlimit="10" stroke-width="1.5"/>
        </g>
        <g id="Grupo_1173819" data-name="Grupo 1173819" transform="translate(36.645 26.877)">
          <g id="Grupo_1173817" data-name="Grupo 1173817" transform="translate(9.839 6.391)">
            <path id="Trazado_1030808" data-name="Trazado 1030808" d="M480.068,344.952a1.326,1.326,0,0,0-1.326-1.326h0a1.328,1.328,0,0,0-1.328,1.328v2.979a1.328,1.328,0,0,0,1.328,1.328h0a1.328,1.328,0,0,0,1.328-1.328Z" transform="translate(-477.412 -343.626)" fill="none" stroke="#000" stroke-linecap="round" stroke-linejoin="round" stroke-miterlimit="10" stroke-width="1.5"/>
            <path id="Trazado_1030809" data-name="Trazado 1030809" d="M490.831,400.563" transform="translate(-489.503 -394.928)" fill="none" stroke="#000" stroke-linecap="round" stroke-linejoin="round" stroke-miterlimit="10" stroke-width="1.5"/>
          </g>
          <g id="Grupo_1173818" data-name="Grupo 1173818" transform="translate(10.675 10.736)">
            <path id="Trazado_1030810" data-name="Trazado 1030810" d="M487.678,387.53V391.5a6.447,6.447,0,0,1-.91,3.275h0a6.479,6.479,0,0,0-.91,3.335l0,1" transform="translate(-485.858 -387.53)" fill="none" stroke="#000" stroke-linecap="round" stroke-linejoin="round" stroke-miterlimit="10" stroke-width="1.5"/>
          </g>
          <path id="Trazado_1030811" data-name="Trazado 1030811" d="M433.859,414.75a5.43,5.43,0,0,1,1.16,4.965l-.041.158" transform="translate(-428.33 -401.32)" fill="none" stroke="#000" stroke-linecap="round" stroke-linejoin="round" stroke-miterlimit="10" stroke-width="1.5"/>
          <path id="Trazado_1030812" data-name="Trazado 1030812" d="M389.115,291.17V280.457a1.4,1.4,0,0,1,1.4-1.4h.112a1.4,1.4,0,0,1,1.4,1.4v8.705" transform="translate(-388.015 -279.057)" fill="none" stroke="#000" stroke-linecap="round" stroke-linejoin="round" stroke-miterlimit="10" stroke-width="1.5"/>
          <path id="Trazado_1030813" data-name="Trazado 1030813" d="M418.532,331.293a1.4,1.4,0,0,1,1.4-1.4h.112a1.4,1.4,0,0,1,1.4,1.4v3.186" transform="translate(-414.52 -324.861)" fill="none" stroke="#000" stroke-linecap="round" stroke-linejoin="round" stroke-miterlimit="10" stroke-width="1.5"/>
          <path id="Trazado_1030814" data-name="Trazado 1030814" d="M447.947,334.444v-3.152a1.4,1.4,0,0,1,1.4-1.4h.112a1.4,1.4,0,0,1,1.4,1.4v1.336" transform="translate(-441.024 -324.862)" fill="none" stroke="#000" stroke-linecap="round" stroke-linejoin="round" stroke-miterlimit="10" stroke-width="1.5"/>
          <path id="Trazado_1030815" data-name="Trazado 1030815" d="M382.629,381.059l1.248-1.679,2.5-.322a2.01,2.01,0,0,0,1.385-1.909.68.68,0,0,0-.681-.68h-3.568a2.515,2.515,0,0,0-1.443.454l-3.216,2.251a2.009,2.009,0,0,0-.857,1.645v1.64a3.384,3.384,0,0,0,.89,2.286,4.094,4.094,0,0,1,1.077,2.767v1.629" transform="translate(-377.999 -366.827)" fill="none" stroke="#000" stroke-linecap="round" stroke-linejoin="round" stroke-miterlimit="10" stroke-width="1.5"/>
        </g>
      </g>
    </g>
  </g>
</svg>
