<svg xmlns="http://www.w3.org/2000/svg" xmlns:xlink="http://www.w3.org/1999/xlink" width="295" height="255.045" viewBox="0 0 295 255.045">
  <defs>
    <filter id="Trazado_1055268" x="144.329" y="154.829" width="134.191" height="70.918" filterUnits="userSpaceOnUse">
      <feOffset dy="3" input="SourceAlpha"/>
      <feGaussianBlur stdDeviation="3" result="blur"/>
      <feFlood flood-opacity="0.161"/>
      <feComposite operator="in" in2="blur"/>
      <feComposite in="SourceGraphic"/>
    </filter>
  </defs>
  <g id="Grupo_1210581" data-name="Grupo 1210581" transform="translate(-701.49 -4185.252)">
    <path id="Rectángulo_420782" data-name="Rectángulo 420782" d="M8,0H287a8,8,0,0,1,8,8V255.045a0,0,0,0,1,0,0H0a0,0,0,0,1,0,0V8A8,8,0,0,1,8,0Z" transform="translate(701.49 4185.252)" fill="#684fbc"/>
    <g id="_x32_4_Loading" transform="translate(697.312 4246.284)">
      <g id="Grupo_1210578" data-name="Grupo 1210578" transform="translate(37.178 6)">
        <path id="Trazado_1055240" data-name="Trazado 1055240" d="M243.14,13.615V26a2.714,2.714,0,0,1-2.714,2.714h-4.5A2.714,2.714,0,0,1,233.21,26V13.615a2.714,2.714,0,0,1,2.714-2.714h4.5a2.714,2.714,0,0,1,2.714,2.714Z" transform="translate(-190.488 -9.833)" fill="#fff"/>
        <path id="Trazado_1055241" data-name="Trazado 1055241" d="M243.14,281.814V294.2a2.714,2.714,0,0,1-2.714,2.714h-4.5a2.714,2.714,0,0,1-2.714-2.714V281.814a2.714,2.714,0,0,1,2.714-2.714h4.5A2.714,2.714,0,0,1,243.14,281.814Z" transform="translate(-190.488 -219.582)" fill="#fff"/>
        <path id="Trazado_1055242" data-name="Trazado 1055242" d="M327.541,59.012l-8.758,8.758a2.713,2.713,0,0,1-3.838,0l-3.184-3.184a2.714,2.714,0,0,1,0-3.838l8.758-8.758a2.714,2.714,0,0,1,3.838,0l3.184,3.184A2.714,2.714,0,0,1,327.541,59.012Z" transform="translate(-251.298 -41.346)" fill="#9cc0fd"/>
        <path id="Trazado_1055243" data-name="Trazado 1055243" d="M137.9,248.659l-8.758,8.758a2.713,2.713,0,0,1-3.838,0l-3.184-3.184a2.714,2.714,0,0,1,0-3.838l8.758-8.758a2.713,2.713,0,0,1,3.838,0l3.184,3.184A2.714,2.714,0,0,1,137.9,248.659Z" transform="translate(-102.984 -189.662)" fill="#9cc0fd"/>
        <path id="Trazado_1055244" data-name="Trazado 1055244" d="M364.324,173.016H351.939a2.714,2.714,0,0,1-2.714-2.714v-4.5a2.714,2.714,0,0,1,2.714-2.714h12.385a2.714,2.714,0,0,1,2.714,2.714v4.5A2.714,2.714,0,0,1,364.324,173.016Z" transform="translate(-281.219 -128.851)" fill="#fff"/>
        <path id="Trazado_1055245" data-name="Trazado 1055245" d="M96.124,173.02H83.739a2.714,2.714,0,0,1-2.714-2.714v-4.5a2.714,2.714,0,0,1,2.714-2.714H96.124a2.714,2.714,0,0,1,2.714,2.714v4.5A2.714,2.714,0,0,1,96.124,173.02Z" transform="translate(-71.469 -128.854)" fill="#fff"/>
        <path id="Trazado_1055246" data-name="Trazado 1055246" d="M320.517,257.418l-8.758-8.758a2.714,2.714,0,0,1,0-3.838l3.184-3.184a2.714,2.714,0,0,1,3.838,0l8.758,8.758a2.714,2.714,0,0,1,0,3.838l-3.184,3.184a2.714,2.714,0,0,1-3.838,0Z" transform="translate(-251.297 -189.663)" fill="#9cc0fd"/>
        <path id="Trazado_1055247" data-name="Trazado 1055247" d="M130.869,67.775l-8.758-8.758a2.714,2.714,0,0,1,0-3.838L125.3,52a2.714,2.714,0,0,1,3.838,0l8.758,8.758a2.714,2.714,0,0,1,0,3.838l-3.184,3.184A2.714,2.714,0,0,1,130.869,67.775Z" transform="translate(-102.98 -41.35)" fill="#9cc0fd"/>
        <path id="Trazado_1055248" data-name="Trazado 1055248" d="M135.309,425.57a9.237,9.237,0,0,1-9.237,9.237H51.3a9.237,9.237,0,0,1,0-18.473h74.772a9.237,9.237,0,0,1,9.236,9.237Z" transform="translate(-40.999 -326.906)" fill="#fff"/>
        <path id="Trazado_1055249" data-name="Trazado 1055249" d="M89.859,416.333H51.687a9.493,9.493,0,0,0-9.619,8.953,9.237,9.237,0,0,0,9.232,9.521H89.859a9.237,9.237,0,0,0,0-18.473Z" transform="translate(-40.999 -326.906)" fill="#9cc0fd"/>
        <g id="Grupo_1210576" data-name="Grupo 1210576" transform="translate(5.339 93.7)">
          <path id="Trazado_1055250" data-name="Trazado 1055250" d="M62.746,441.849h-.033a1.069,1.069,0,0,1-1.036-1.1,5.276,5.276,0,0,1,5.349-4.807,1.068,1.068,0,0,1,0,2.137,3.144,3.144,0,0,0-3.212,2.735,1.069,1.069,0,0,1-1.067,1.036Z" transform="translate(-61.676 -435.942)" fill="#5c8ffc"/>
        </g>
        <g id="Grupo_1210577" data-name="Grupo 1210577" transform="translate(0 0)">
          <path id="Trazado_1055251" data-name="Trazado 1055251" d="M232.089,25.949h4.5a3.786,3.786,0,0,0,3.782-3.782V9.782A3.786,3.786,0,0,0,236.592,6h-4.5a3.786,3.786,0,0,0-3.782,3.782V22.167A3.786,3.786,0,0,0,232.089,25.949ZM230.444,9.782a1.647,1.647,0,0,1,1.645-1.645h4.5a1.647,1.647,0,0,1,1.645,1.645V22.167a1.647,1.647,0,0,1-1.645,1.645h-4.5a1.647,1.647,0,0,1-1.645-1.645Z" transform="translate(-186.653 -6)" fill="#5c8ffc"/>
          <path id="Trazado_1055252" data-name="Trazado 1055252" d="M228.307,290.365a3.786,3.786,0,0,0,3.782,3.782h4.5a3.786,3.786,0,0,0,3.782-3.782V277.98a3.786,3.786,0,0,0-3.782-3.782h-4.5a3.786,3.786,0,0,0-3.782,3.782Zm2.137-12.385a1.647,1.647,0,0,1,1.645-1.645h4.5a1.647,1.647,0,0,1,1.645,1.645v12.385a1.647,1.647,0,0,1-1.645,1.645h-4.5a1.647,1.647,0,0,1-1.645-1.645Z" transform="translate(-186.653 -215.748)" fill="#5c8ffc"/>
          <path id="Trazado_1055253" data-name="Trazado 1055253" d="M321.274,47.411a3.789,3.789,0,0,0-5.349,0l-8.757,8.758a3.779,3.779,0,0,0,0,5.348l3.184,3.185a3.781,3.781,0,0,0,5.348,0l8.758-8.758h0a3.786,3.786,0,0,0,0-5.348Zm1.674,7.023-8.758,8.757a1.686,1.686,0,0,1-2.326,0l-3.184-3.185a1.644,1.644,0,0,1,0-2.326l8.757-8.757a1.648,1.648,0,0,1,2.328,0l3.184,3.184A1.65,1.65,0,0,1,322.947,54.434Z" transform="translate(-247.46 -37.522)" fill="#5c8ffc"/>
          <path id="Trazado_1055254" data-name="Trazado 1055254" d="M126.289,237.056l-8.757,8.757a3.786,3.786,0,0,0,0,5.349l3.184,3.184a3.778,3.778,0,0,0,5.348,0l8.758-8.758a3.779,3.779,0,0,0,0-5.348l-3.184-3.184A3.785,3.785,0,0,0,126.289,237.056Zm7.022,7.021h0l-8.758,8.758a1.685,1.685,0,0,1-2.326,0l-3.184-3.184a1.645,1.645,0,0,1,0-2.328l8.757-8.757a1.649,1.649,0,0,1,2.328,0l3.184,3.184A1.644,1.644,0,0,1,133.311,244.076Z" transform="translate(-99.154 -185.835)" fill="#5c8ffc"/>
          <path id="Trazado_1055255" data-name="Trazado 1055255" d="M364.271,166.469v-4.5a3.786,3.786,0,0,0-3.782-3.782H348.1a3.787,3.787,0,0,0-3.782,3.782v4.5a3.786,3.786,0,0,0,3.782,3.782H360.49A3.787,3.787,0,0,0,364.271,166.469Zm-17.813,0v-4.5a1.648,1.648,0,0,1,1.645-1.646H360.49a1.647,1.647,0,0,1,1.645,1.645v4.5a1.648,1.648,0,0,1-1.645,1.646H348.1A1.647,1.647,0,0,1,346.459,166.469Z" transform="translate(-277.384 -125.018)" fill="#5c8ffc"/>
          <path id="Trazado_1055256" data-name="Trazado 1055256" d="M76.121,161.97v4.5a3.787,3.787,0,0,0,3.783,3.782H92.289a3.786,3.786,0,0,0,3.782-3.782v-4.5a3.786,3.786,0,0,0-3.782-3.782H79.9A3.787,3.787,0,0,0,76.121,161.97Zm17.813,0v4.5a1.647,1.647,0,0,1-1.645,1.645H79.9a1.648,1.648,0,0,1-1.646-1.645v-4.5a1.648,1.648,0,0,1,1.646-1.645H92.289A1.647,1.647,0,0,1,93.934,161.97Z" transform="translate(-67.634 -125.021)" fill="#5c8ffc"/>
          <path id="Trazado_1055257" data-name="Trazado 1055257" d="M310.361,237.181l-3.184,3.184a3.786,3.786,0,0,0,0,5.349l8.757,8.757a3.787,3.787,0,0,0,5.349,0l3.184-3.184a3.78,3.78,0,0,0,0-5.349l-8.758-8.757A3.872,3.872,0,0,0,310.361,237.181Zm12.6,12.595-3.184,3.184a1.685,1.685,0,0,1-2.328,0l-8.757-8.757a1.645,1.645,0,0,1,0-2.328l3.184-3.184a1.644,1.644,0,0,1,2.326,0l8.758,8.757A1.644,1.644,0,0,1,322.956,249.776Z" transform="translate(-247.469 -185.96)" fill="#5c8ffc"/>
          <path id="Trazado_1055258" data-name="Trazado 1055258" d="M126.051,47.535a3.87,3.87,0,0,0-5.348,0l-3.184,3.184a3.78,3.78,0,0,0,0,5.349l8.758,8.757a3.778,3.778,0,0,0,5.348,0l3.184-3.184a3.779,3.779,0,0,0,0-5.348ZM133.3,60.13l-3.184,3.184a1.685,1.685,0,0,1-2.326,0h0l-8.758-8.757a1.645,1.645,0,0,1,0-2.327l3.184-3.184a1.644,1.644,0,0,1,2.326,0L133.3,57.8a1.644,1.644,0,0,1,0,2.327Z" transform="translate(-99.143 -37.644)" fill="#5c8ffc"/>
          <path id="Trazado_1055259" data-name="Trazado 1055259" d="M47.48,432.042h74.773a10.3,10.3,0,0,0,0-20.61H47.48a10.3,10.3,0,0,0,0,20.61Zm74.773-18.473a8.168,8.168,0,0,1,0,16.336H92.3a10.266,10.266,0,0,0,0-16.336Zm-36.213,0a8.168,8.168,0,0,1,0,16.336H47.48a8.169,8.169,0,0,1-8.073-9.351,8.5,8.5,0,0,1,8.46-6.986Z" transform="translate(-37.178 -323.074)" fill="#5c8ffc"/>
        </g>
      </g>
    </g>
    <g id="Layer_x0020_1" transform="translate(865.993 4241.787)">
      <path id="Trazado_1055260" data-name="Trazado 1055260" d="M23.271,78.161H11.547a1.182,1.182,0,0,1-1.178-1.178v-39A1.182,1.182,0,0,1,11.547,36.8H23.271a1.182,1.182,0,0,1,1.178,1.178v39A1.182,1.182,0,0,1,23.271,78.161ZM40.355,92.536a1.1,1.1,0,0,1-1.119-1.355L40.3,84.7H6.775A6.827,6.827,0,0,1,0,77.867V37.04a6.814,6.814,0,0,1,6.775-6.775H85.9a6.827,6.827,0,0,1,6.834,6.775v4.006h2.946a4.878,4.878,0,0,1,4.89,4.89V69.03a4.878,4.878,0,0,1-4.89,4.89H92.729v3.947A6.839,6.839,0,0,1,85.9,84.7H46.011c-1.65,2.533-3.181,5.008-4.654,7.305A1.091,1.091,0,0,1,40.355,92.536Zm.295-10.192,3.417-20.5H33.227a1.23,1.23,0,0,1-.943-.471,1.114,1.114,0,0,1-.177-1.06l8.13-27.689H6.775c-2.415,0-4.418,2-4.418,45.245a4.463,4.463,0,0,0,4.418,4.477Zm.295-52.079h0Zm18.086,2.357L53.022,48.41H67.279a1.152,1.152,0,0,1,1.119.766,1.209,1.209,0,0,1-.295,1.3c-.943,1.06-11.311,17.262-20.62,31.872H85.9a4.475,4.475,0,0,0,4.477-4.477V72.742a1.182,1.182,0,0,1,1.178-1.178h4.124a2.592,2.592,0,0,0,2.533-2.533V45.936A2.552,2.552,0,0,0,95.675,43.4H91.551a1.182,1.182,0,0,1-1.178-1.178V37.04A4.463,4.463,0,0,0,85.9,32.622ZM34.818,59.486h10.6a1.253,1.253,0,0,1,.884.412,1.27,1.27,0,0,1,.295,1L42.476,85.82c6.245-9.839,18.263-28.75,22.5-35.053H51.313a1.258,1.258,0,0,1-1-.471,1.5,1.5,0,0,1-.118-1.119l8.248-21.621H44.185ZM12.725,75.8h9.367V39.161H12.725Z" transform="translate(0 -27.555)" fill-rule="evenodd"/>
      <path id="Trazado_1055262" data-name="Trazado 1055262" d="M600.367,596,591,627.931h10.6a1.253,1.253,0,0,1,.884.412,1.269,1.269,0,0,1,.295,1l-4.124,24.92c6.245-9.838,18.263-28.75,22.5-35.053H607.5a1.259,1.259,0,0,1-1-.471,1.5,1.5,0,0,1-.118-1.119L614.624,596Z" transform="translate(-556.182 -596)" fill="#ff802d" fill-rule="evenodd"/>
      <path id="Trazado_1055263" data-name="Trazado 1055263" d="M69.751,709.689,77.881,682H44.418A4.451,4.451,0,0,0,40,686.418v40.827a4.463,4.463,0,0,0,4.418,4.477H78.294l3.417-20.5H70.87a1.23,1.23,0,0,1-.943-.471A1.114,1.114,0,0,1,69.751,709.689Zm-7.659-22.328v39a1.182,1.182,0,0,1-1.178,1.178H49.19a1.182,1.182,0,0,1-1.178-1.178v-39a1.182,1.182,0,0,1,1.178-1.178H60.914A1.182,1.182,0,0,1,62.092,687.361Z" transform="translate(-37.643 -676.933)" fill="#2d516d" fill-rule="evenodd"/>
      <path id="Trazado_1055264" data-name="Trazado 1055264" d="M225.367,829.644V793H216v36.644Z" transform="translate(-203.275 -781.394)" fill="#ccc" fill-rule="evenodd"/>
      <path id="Trazado_1055265" data-name="Trazado 1055265" d="M826.62,699.851c-.943,1.06-11.311,17.262-20.62,31.872h38.411a4.475,4.475,0,0,0,4.477-4.477V722.12a1.182,1.182,0,0,1,1.178-1.178h4.124a2.592,2.592,0,0,0,2.533-2.533V695.314a2.552,2.552,0,0,0-2.533-2.533h-4.124a1.182,1.182,0,0,1-1.178-1.178v-5.184A4.463,4.463,0,0,0,844.411,682H817.547l-6.009,15.789h14.257a1.152,1.152,0,0,1,1.119.766A1.209,1.209,0,0,1,826.62,699.851Z" transform="translate(-758.516 -676.933)" fill="#45637b" fill-rule="evenodd"/>
    </g>
    <g id="Grupo_1210580" data-name="Grupo 1210580" transform="translate(854.818 4346.082)">
      <g id="Grupo_1210579" data-name="Grupo 1210579" transform="translate(0 0)">
        <g transform="matrix(1, 0, 0, 1, -153.33, -160.83)" filter="url(#Trazado_1055268)">
          <path id="Trazado_1055268-2" data-name="Trazado 1055268" d="M26.459,0H89.732a26.459,26.459,0,0,1,0,52.919H26.459A26.459,26.459,0,0,1,26.459,0Z" transform="translate(153.33 160.83)" fill="#052640"/>
        </g>
        <ellipse id="Elipse_12502" data-name="Elipse 12502" cx="17" cy="17.5" rx="17" ry="17.5" transform="translate(14.181 8.919)" fill="#f7fcfe"/>
      </g>
      <g id="Layer_2_00000154411878256728980930000007362278751516906410_" transform="translate(61.27 13.236)">
        <g id="Layer_2_copy_3" transform="translate(0 0)">
          <g id="_63" transform="translate(0 0)">
            <path id="Trazado_1055266" data-name="Trazado 1055266" d="M13.212,91.071a4.267,4.267,0,0,1-3.019-1.251L1.274,80.894a4.267,4.267,0,0,1,6.038-6.032l5.907,5.907,14.9-14.9a4.265,4.265,0,1,1,6.032,6.032L16.232,89.82a4.226,4.226,0,0,1-3.019,1.251Z" transform="translate(-0.025 -64.625)"/>
            <path id="Trazado_1055267" data-name="Trazado 1055267" d="M40.5,74.4a3.854,3.854,0,0,1-1.126,2.722L21.457,95.046a3.853,3.853,0,0,1-5.451,0L7.08,86.119a3.855,3.855,0,0,1,5.451-5.451l6.2,6.2L33.921,71.68A3.852,3.852,0,0,1,40.5,74.4Z" transform="translate(-5.541 -70.141)" fill="#35d97e"/>
          </g>
        </g>
      </g>
    </g>
  </g>
</svg>
