<svg xmlns="http://www.w3.org/2000/svg" width="295" height="255.045" viewBox="0 0 295 255.045">
  <g id="Grupo_1210590" data-name="Grupo 1210590" transform="translate(-9624 -4185.252)">
    <path id="Rectángulo_420785" data-name="Rectángulo 420785" d="M8,0H287a8,8,0,0,1,8,8V255.045a0,0,0,0,1,0,0H0a0,0,0,0,1,0,0V8A8,8,0,0,1,8,0Z" transform="translate(9624 4185.252)" fill="#684fbc"/>
    <g id="Consol" transform="translate(9659.503 4224.403)">
      <path id="Trazado_1055291" data-name="Trazado 1055291" d="M41.649,24H29.95A1.956,1.956,0,0,0,28,25.95v7.8a1.956,1.956,0,0,0,1.95,1.95h11.7a1.956,1.956,0,0,0,1.95-1.95v-7.8A1.956,1.956,0,0,0,41.649,24Z" transform="translate(24.697 18.998)" fill="#1a6dff"/>
      <path id="Trazado_1055292" data-name="Trazado 1055292" d="M39.8,25.95v7.8a1.956,1.956,0,0,1-1.95,1.95H32V24h5.85A1.956,1.956,0,0,1,39.8,25.95Z" transform="translate(28.497 18.998)" fill="#083fba"/>
      <path id="Trazado_1055293" data-name="Trazado 1055293" d="M117.394,42.191a25.481,25.481,0,0,0-40.85-12.128,7.528,7.528,0,0,1-4.953,1.755H49.4a7.617,7.617,0,0,1-4.953-1.735A25.1,25.1,0,0,0,34.31,24.837,25.214,25.214,0,0,0,3.6,42.191C.791,52.545,1.357,76.061,7.908,87.37c3.471,5.869,7.7,6.844,10.432,6.844,9.5,0,15.911-9.047,21.02-15.794a14.343,14.343,0,0,1,11.426-5.655H70.207A14.343,14.343,0,0,1,81.633,78.42c4.641,6.142,13.24,15.794,21.39,15.794,4.66,0,7.995-3.276,10.061-6.844,6.552-11.309,7.117-34.825,4.309-45.179Z" transform="translate(0 18.981)" fill="#e6e6e6"/>
      <path id="Trazado_1055294" data-name="Trazado 1055294" d="M84.588,87.339c-2.067,3.568-5.4,6.844-10.061,6.844-8.151,0-16.749-9.652-21.39-15.794A14.343,14.343,0,0,0,41.71,72.735H32V31.787H43.095a7.528,7.528,0,0,0,4.953-1.755A25.481,25.481,0,0,1,88.9,42.161c2.808,10.354,2.242,33.869-4.309,45.179Z" transform="translate(28.497 19.011)" fill="#9d9e9d"/>
      <path id="Trazado_1055295" data-name="Trazado 1055295" d="M29,17.849A5.85,5.85,0,1,0,34.85,12,5.85,5.85,0,0,0,29,17.849Z" transform="translate(25.647 7.599)" fill="#083fba"/>
      <circle id="Elipse_12503" data-name="Elipse 12503" cx="19.5" cy="19.5" r="19.5" transform="translate(72.497 50.597)" fill="#fff800"/>
      <path id="Trazado_1055296" data-name="Trazado 1055296" d="M67.5,47.5A19.506,19.506,0,0,1,48,67V28A19.506,19.506,0,0,1,67.5,47.5Z" transform="translate(43.695 22.798)" fill="#ffc200"/>
      <circle id="Elipse_12504" data-name="Elipse 12504" cx="19.5" cy="19.5" r="19.5" transform="translate(9.497 50.597)" fill="#fff800"/>
      <path id="Trazado_1055297" data-name="Trazado 1055297" d="M35.5,47.5A19.506,19.506,0,0,1,16,67V28A19.506,19.506,0,0,1,35.5,47.5Z" transform="translate(13.299 22.798)" fill="#ffc200"/>
      <circle id="Elipse_12505" data-name="Elipse 12505" cx="4" cy="4" r="4" transform="translate(87.497 58.597)" fill="#1a6dff"/>
      <ellipse id="Elipse_12506" data-name="Elipse 12506" cx="4" cy="3.5" rx="4" ry="3.5" transform="translate(87.497 74.597)" fill="#1a6dff"/>
      <circle id="Elipse_12507" data-name="Elipse 12507" cx="4" cy="4" r="4" transform="translate(95.497 66.597)" fill="#083fba"/>
      <circle id="Elipse_12508" data-name="Elipse 12508" cx="4" cy="4" r="4" transform="translate(79.497 66.597)" fill="#083fba"/>
      <path id="Trazado_1055298" data-name="Trazado 1055298" d="M31.449,37.85h-3.9v-3.9A1.956,1.956,0,0,0,25.6,32H17.8a1.956,1.956,0,0,0-1.95,1.95v3.9h-3.9A1.956,1.956,0,0,0,10,39.8v7.8a1.956,1.956,0,0,0,1.95,1.95h3.9v3.9A1.956,1.956,0,0,0,17.8,55.4h7.8a1.956,1.956,0,0,0,1.95-1.95v-3.9h3.9A1.956,1.956,0,0,0,33.4,47.6V39.8a1.956,1.956,0,0,0-1.95-1.95Z" transform="translate(7.599 26.597)" fill="#1a6dff"/>
      <path id="Trazado_1055299" data-name="Trazado 1055299" d="M27.7,39.8v7.8a1.956,1.956,0,0,1-1.95,1.95h-3.9v3.9A1.956,1.956,0,0,1,19.9,55.4H16V32h3.9a1.956,1.956,0,0,1,1.95,1.95v3.9h3.9A1.956,1.956,0,0,1,27.7,39.8Z" transform="translate(13.299 26.597)" fill="#083fba"/>
      <path id="Trazado_1055300" data-name="Trazado 1055300" d="M117.387,45.981A25.451,25.451,0,0,0,76.55,33.855,7.6,7.6,0,0,1,71.6,35.6H68.3V29.748a1.949,1.949,0,0,0-1.95-1.95h-3.9v-5.85a1.95,1.95,0,1,0-3.9,0V27.8h-3.9a1.949,1.949,0,0,0-1.95,1.95V35.6H49.4a7.613,7.613,0,0,1-4.953-1.738A25.156,25.156,0,0,0,34.3,28.619a25.2,25.2,0,0,0-30.7,17.364C.789,56.326,1.355,79.851,7.911,91.148,11.384,97.021,15.6,98,18.33,98c9.506,0,15.924-9.041,21.03-15.8a14.384,14.384,0,0,1,11.432-5.652H70.2A14.385,14.385,0,0,1,81.634,82.2C86.276,88.341,94.87,98,103.032,98c4.657,0,7.976-3.275,10.049-6.849,6.556-11.3,7.122-34.822,4.305-45.167ZM56.6,31.7h7.8v3.9H56.6ZM109.71,89.191c-2.782,5.088-10.033,10.328-24.967-9.346a18.3,18.3,0,0,0-14.542-7.2H50.792a18.3,18.3,0,0,0-14.542,7.2c-14.67,20.994-22.124,13.7-24.967,9.346-5.982-10.309-6.5-32.7-3.916-42.181A21.554,21.554,0,0,1,41.916,36.826,11.513,11.513,0,0,0,49.4,39.5H71.6a11.507,11.507,0,0,0,7.482-2.672,21.555,21.555,0,0,1,34.549,10.184c2.584,9.487,2.066,31.874-3.916,42.183Z" transform="translate(0 15.197)"/>
      <path id="Trazado_1055301" data-name="Trazado 1055301" d="M57.5,28A19.5,19.5,0,1,0,77,47.5,19.5,19.5,0,0,0,57.5,28Zm0,35.1A15.6,15.6,0,1,1,73.1,47.5,15.6,15.6,0,0,1,57.5,63.1Z" transform="translate(34.196 22.796)"/>
      <circle id="Elipse_12509" data-name="Elipse 12509" cx="4" cy="4" r="4" transform="translate(87.497 58.597)"/>
      <ellipse id="Elipse_12510" data-name="Elipse 12510" cx="4" cy="3.5" rx="4" ry="3.5" transform="translate(87.497 74.597)"/>
      <circle id="Elipse_12511" data-name="Elipse 12511" cx="4" cy="4" r="4" transform="translate(95.497 66.597)"/>
      <circle id="Elipse_12512" data-name="Elipse 12512" cx="4" cy="4" r="4" transform="translate(79.497 66.597)"/>
      <path id="Trazado_1055302" data-name="Trazado 1055302" d="M25.5,28A19.5,19.5,0,1,0,45,47.5,19.5,19.5,0,0,0,25.5,28Zm0,35.1A15.6,15.6,0,1,1,41.1,47.5,15.6,15.6,0,0,1,25.5,63.1Z" transform="translate(3.8 22.796)"/>
      <path id="Trazado_1055303" data-name="Trazado 1055303" d="M27.549,37.849v-3.9A1.949,1.949,0,0,0,25.6,32H17.8a1.949,1.949,0,0,0-1.95,1.95v3.9h-3.9A1.949,1.949,0,0,0,10,39.8v7.8a1.949,1.949,0,0,0,1.95,1.95h3.9v3.9A1.949,1.949,0,0,0,17.8,55.4h7.8a1.949,1.949,0,0,0,1.95-1.95v-3.9h3.9A1.949,1.949,0,0,0,33.4,47.6V39.8a1.949,1.949,0,0,0-1.95-1.95Zm1.95,7.8H25.6a1.949,1.949,0,0,0-1.95,1.95v3.9h-3.9V47.6a1.949,1.949,0,0,0-1.95-1.95H13.9v-3.9h3.9a1.949,1.949,0,0,0,1.95-1.95V35.9h3.9v3.9a1.949,1.949,0,0,0,1.95,1.95h3.9Z" transform="translate(7.599 26.597)"/>
      <path id="Trazado_1055304" data-name="Trazado 1055304" d="M22.95,27.4a1.949,1.949,0,0,0,1.95-1.95,17.549,17.549,0,0,1,35.1,0,1.95,1.95,0,1,0,3.9,0,21.449,21.449,0,1,0-42.9,0,1.949,1.949,0,0,0,1.95,1.95Z" transform="translate(18.048)"/>
      <path id="Trazado_1055305" data-name="Trazado 1055305" d="M48.4,21.649a1.95,1.95,0,0,0,3.9,0,13.649,13.649,0,0,0-27.3,0,1.95,1.95,0,1,0,3.9,0,9.749,9.749,0,0,1,19.5,0Z" transform="translate(21.847 3.8)"/>
      <path id="Trazado_1055306" data-name="Trazado 1055306" d="M29,17.849A5.85,5.85,0,1,0,34.85,12,5.85,5.85,0,0,0,29,17.849Zm7.8,0a1.95,1.95,0,1,1-1.95-1.95,1.95,1.95,0,0,1,1.95,1.95Z" transform="translate(25.647 7.599)"/>
    </g>
    <g id="user_758638" transform="translate(9781.566 4306.443)">
      <g id="Grupo_1210588" data-name="Grupo 1210588" transform="translate(18.303 3.674)">
        <path id="Trazado_1055307" data-name="Trazado 1055307" d="M147.129,15.673c11.389,0,20.7,8.695,20.7,21.186,0,12.613-9.307,22.778-20.7,22.778s-20.7-10.164-20.7-22.778S135.74,15.673,147.129,15.673Z" transform="translate(-103.9 -15.673)" fill="#74efd5"/>
        <path id="Trazado_1055308" data-name="Trazado 1055308" d="M116.759,294.184H30.3c0-30,23.267-36.616,43.228-36.616S116.759,264.181,116.759,294.184Z" transform="translate(-30.302 -200.868)" fill="#5ff5d5"/>
      </g>
      <g id="Grupo_1210589" data-name="Grupo 1210589" transform="translate(14.629)">
        <path id="Trazado_1055309" data-name="Trazado 1055309" d="M104.76,285.857H18.3a3.608,3.608,0,0,1-3.674-3.674c0-25.962,16.655-40.29,46.9-40.29s46.9,14.328,46.9,40.29A3.608,3.608,0,0,1,104.76,285.857ZM22.1,278.51h78.865c-1.469-19.471-14.7-29.268-39.432-29.268S23.568,259.039,22.1,278.51Z" transform="translate(-14.629 -185.195)"/>
        <path id="Trazado_1055310" data-name="Trazado 1055310" d="M135.13,51.311c-13.471,0-24.37-11.879-24.37-26.451C110.76,10.654,121.291,0,135.13,0S159.5,10.654,159.5,24.859C159.5,39.432,148.6,51.311,135.13,51.311Zm0-43.963c-9.919,0-17.022,7.348-17.022,17.512,0,10.532,7.593,19.1,17.022,19.1s17.022-8.572,17.022-19.1C152.152,14.818,144.8,7.348,135.13,7.348Z" transform="translate(-88.227)"/>
      </g>
    </g>
  </g>
</svg>
