<svg xmlns="http://www.w3.org/2000/svg" width="295" height="255.045" viewBox="0 0 295 255.045">
  <g id="Grupo_1210593" data-name="Grupo 1210593" transform="translate(-9971 -4185.252)">
    <path id="Rectángulo_420790" data-name="Rectángulo 420790" d="M8,0H287a8,8,0,0,1,8,8V255.045a0,0,0,0,1,0,0H0a0,0,0,0,1,0,0V8A8,8,0,0,1,8,0Z" transform="translate(9971 4185.252)" fill="#684fbc"/>
    <g id="plane_10762809" transform="translate(10000 4257.774) rotate(-45)">
      <g id="Grupo_1210591" data-name="Grupo 1210591" transform="translate(1.168 1.167)">
        <path id="Trazado_1055313" data-name="Trazado 1055313" d="M6.192,21.052,0,7.431,7.431,0l3.388,14.679a2.628,2.628,0,0,1-.7,2.449Z" transform="translate(17.958 56.37)" fill="#838fff"/>
        <path id="Trazado_1055314" data-name="Trazado 1055314" d="M0,0H8.756V14.01H0Z" transform="translate(64.949 47.999) rotate(45)" fill="#5ff5d5"/>
        <path id="Trazado_1055315" data-name="Trazado 1055315" d="M22.29,44.578,0,12.383,12.383,0,28.94,35.481a2.623,2.623,0,0,1-.523,2.968l-6.128,6.128Z" transform="translate(48.233 23.864)" fill="#838fff"/>
        <path id="Trazado_1055316" data-name="Trazado 1055316" d="M8.105,0,0,8.105l3.039,4.39L9.167,6.367A2.627,2.627,0,0,0,9.691,3.4Z" transform="translate(67.484 55.946)" fill="#084963"/>
        <path id="Trazado_1055317" data-name="Trazado 1055317" d="M0,4.694l13.621,6.192,7.431-7.431L6.373.067a2.628,2.628,0,0,0-2.449.7L0,4.694Z" transform="translate(0 48.577)" fill="#838fff"/>
        <path id="Trazado_1055318" data-name="Trazado 1055318" d="M0,0H8.756V14.01H0Z" transform="translate(19.505 22.38) rotate(-135)" fill="#5ff5d5"/>
        <path id="Trazado_1055319" data-name="Trazado 1055319" d="M0,6.9l32.2,22.29L44.578,16.806,9.1.247A2.623,2.623,0,0,0,6.13.77L0,6.9Z" transform="translate(8.979 0)" fill="#838fff"/>
        <path id="Trazado_1055320" data-name="Trazado 1055320" d="M12.495,1.832,4.39,9.937,0,6.9,6.127.77A2.627,2.627,0,0,1,9.094.246l3.4,1.586Z" transform="translate(8.98 0)" fill="#084963"/>
        <path id="Trazado_1055321" data-name="Trazado 1055321" d="M63.035,1.705A5.822,5.822,0,0,0,57.21.256L48.035,3.074a33.794,33.794,0,0,0-13.976,8.41L26.82,18.724a33.818,33.818,0,0,0-4.743,5.955L.4,59.277A2.628,2.628,0,0,0,.77,62.529L2.211,63.97a2.628,2.628,0,0,0,3.253.369l34.6-21.676a33.817,33.817,0,0,0,5.955-4.743l7.239-7.239A33.794,33.794,0,0,0,61.666,16.7L64.484,7.53a5.822,5.822,0,0,0-1.449-5.824Z" transform="translate(10.583 2.098)" fill="#5ff5d5"/>
        <path id="Trazado_1055322" data-name="Trazado 1055322" d="M5.2.147A28.582,28.582,0,0,0,0,2.336a29.871,29.871,0,0,1,10.08,10.08,28.533,28.533,0,0,0,2.189-5.2,3.342,3.342,0,0,0-.832-3.345L8.549.979A3.342,3.342,0,0,0,5.2.147Z" transform="translate(54.956 10.047)" fill="#f5eeec"/>
      </g>
      <g id="Grupo_1210592" data-name="Grupo 1210592" transform="translate(0 0)">
        <path id="Trazado_1055323" data-name="Trazado 1055323" d="M10.25,14.191a1.168,1.168,0,0,0,1,.564h.028a1.164,1.164,0,0,0,1-.612,29.776,29.776,0,0,0,2.279-5.418A4.5,4.5,0,0,0,13.433,4.21L10.545,1.322A4.5,4.5,0,0,0,6.03.2,29.668,29.668,0,0,0,.612,2.479a1.168,1.168,0,0,0-.05,2.027,28.819,28.819,0,0,1,9.686,9.686ZM6.716,2.433a2.171,2.171,0,0,1,2.176.541L11.78,5.861a2.171,2.171,0,0,1,.541,2.176,27.154,27.154,0,0,1-1.21,3.2A31.231,31.231,0,0,0,3.516,3.643a26.88,26.88,0,0,1,3.2-1.21Z" transform="translate(54.956 10.046)" fill="#053544"/>
        <path id="Trazado_1055324" data-name="Trazado 1055324" d="M10.248.342.342,10.248A1.168,1.168,0,1,0,1.994,11.9L11.9,2A1.169,1.169,0,1,0,10.247.342Z" transform="translate(17.028 50.486)" fill="#212529"/>
        <path id="Trazado_1055327" data-name="Trazado 1055327" d="M79.4,60.019,67.032,33.507a35.1,35.1,0,0,0,7.5-13.193l2.818-9.175a6.988,6.988,0,0,0-8.733-8.733L59.444,5.224a35.086,35.086,0,0,0-13.193,7.5L19.738.353a3.81,3.81,0,0,0-4.289.756L9.322,7.237a1.168,1.168,0,0,0,.16,1.787l6.9,4.776-2.725,2.725a1.169,1.169,0,0,0,0,1.653l6.192,6.192a1.166,1.166,0,0,0,1.651,0l4.151-4.151,8.158,5.647q-.5.717-.969,1.458l-14.85,23.7L7.8,48.675a3.775,3.775,0,0,0-3.536,1.014L.343,53.613A1.167,1.167,0,0,0,.686,55.5l11.286,5.13-.807,1.288a3.775,3.775,0,0,0,.533,4.7l1.441,1.441a3.776,3.776,0,0,0,4.7.533l1.288-.807,5.13,11.286a1.167,1.167,0,0,0,1.89.343l3.924-3.924a3.775,3.775,0,0,0,1.014-3.538L28.731,61.766l23.7-14.85q.741-.465,1.458-.969l5.647,8.158-4.151,4.151a1.169,1.169,0,0,0,0,1.653L61.58,66.1a1.166,1.166,0,0,0,1.651,0l2.725-2.725,4.776,6.9a1.169,1.169,0,0,0,.855.5c.036,0,.07,0,.1,0a1.162,1.162,0,0,0,.826-.343l6.128-6.128a3.805,3.805,0,0,0,.756-4.289ZM11.964,7.9,17.1,2.762a1.467,1.467,0,0,1,1.648-.291l1.886.88L14.4,9.586,11.964,7.9Zm8.709,13.99-4.539-4.539,2.2-2.2L23.7,18.866ZM16.353,10.94,22.89,4.4l21.556,10.06-6.7,6.7a35.232,35.232,0,0,0-2.536,2.83ZM3.187,54.073,5.92,51.342a1.447,1.447,0,0,1,1.36-.389l9.4,2.17-3.455,5.514L3.189,54.076ZM28.806,72.479a1.45,1.45,0,0,1-.389,1.36l-2.732,2.732L21.123,66.536l5.514-3.455,2.168,9.4ZM51.194,44.938,16.6,66.613a1.452,1.452,0,0,1-1.805-.2L13.35,64.968a1.45,1.45,0,0,1-.2-1.805l21.676-34.6a32.652,32.652,0,0,1,4.578-5.75l7.239-7.239A32.748,32.748,0,0,1,60.133,7.457l9.175-2.818a4.652,4.652,0,0,1,5.812,5.814L72.3,19.627a32.758,32.758,0,0,1-8.119,13.493L56.944,40.36a32.651,32.651,0,0,1-5.75,4.578ZM62.407,63.623l-4.539-4.539,3.025-3.025,3.714,5.365ZM55.765,44.547A35.253,35.253,0,0,0,58.6,42.011l6.7-6.7,10.06,21.555L68.82,63.4,55.766,44.547ZM77,62.654l-5.139,5.139-1.687-2.438,6.236-6.236.88,1.886A1.463,1.463,0,0,1,77,62.654Z" fill="#212529"/>
      </g>
    </g>
    <g id="plane_10762809-2" data-name="plane_10762809" transform="translate(10056.396 4311.379) rotate(45)">
      <g id="Grupo_1210591-2" data-name="Grupo 1210591" transform="translate(1.168 1.168)">
        <path id="Trazado_1055313-2" data-name="Trazado 1055313" d="M6.192,0,0,13.621l7.431,7.43L10.819,6.373a2.628,2.628,0,0,0-.7-2.449Z" transform="translate(17.958 0)" fill="#838fff"/>
        <path id="Trazado_1055314-2" data-name="Trazado 1055314" d="M0,14.008H8.755V0H0Z" transform="translate(55.043 19.517) rotate(-45)" fill="#ffa834"/>
        <path id="Trazado_1055315-2" data-name="Trazado 1055315" d="M22.29,0,0,32.2,12.383,44.578,28.94,9.1a2.623,2.623,0,0,0-.523-2.968L22.288,0Z" transform="translate(48.233 8.979)" fill="#838fff"/>
        <path id="Trazado_1055316-2" data-name="Trazado 1055316" d="M8.105,12.495,0,4.39,3.039,0,9.167,6.128A2.627,2.627,0,0,1,9.691,9.1Z" transform="translate(67.484 8.98)" fill="#084963"/>
        <path id="Trazado_1055317-2" data-name="Trazado 1055317" d="M0,6.192,13.621,0l7.431,7.431L6.373,10.819a2.628,2.628,0,0,1-2.449-.7L0,6.192Z" transform="translate(0 17.958)" fill="#838fff"/>
        <path id="Trazado_1055318-2" data-name="Trazado 1055318" d="M0,14.008H8.755V0H0Z" transform="translate(29.41 64.947) rotate(135)" fill="#ffa834"/>
        <path id="Trazado_1055319-2" data-name="Trazado 1055319" d="M0,22.29,32.2,0,44.578,12.383,9.1,28.942a2.623,2.623,0,0,1-2.968-.523L0,22.29Z" transform="translate(8.979 48.233)" fill="#838fff"/>
        <path id="Trazado_1055320-2" data-name="Trazado 1055320" d="M12.495,8.105,4.39,0,0,3.039,6.127,9.167a2.627,2.627,0,0,0,2.968.523l3.4-1.586Z" transform="translate(8.98 67.484)" fill="#084963"/>
        <path id="Trazado_1055321-2" data-name="Trazado 1055321" d="M63.035,63.035a5.822,5.822,0,0,1-5.824,1.449l-9.175-2.818a33.794,33.794,0,0,1-13.976-8.41L26.82,46.016a33.818,33.818,0,0,1-4.743-5.955L.4,5.463A2.628,2.628,0,0,1,.77,2.211L2.211.77A2.628,2.628,0,0,1,5.463.4l34.6,21.676a33.817,33.817,0,0,1,5.955,4.743l7.239,7.239a33.794,33.794,0,0,1,8.41,13.976l2.818,9.175a5.822,5.822,0,0,1-1.449,5.824Z" transform="translate(10.583 10.583)" fill="#ffa834"/>
        <path id="Trazado_1055322-2" data-name="Trazado 1055322" d="M5.2,12.269A28.582,28.582,0,0,1,0,10.08,29.871,29.871,0,0,0,10.08,0a28.533,28.533,0,0,1,2.189,5.2,3.342,3.342,0,0,1-.832,3.345L8.549,11.437A3.342,3.342,0,0,1,5.2,12.269Z" transform="translate(54.956 54.958)" fill="#f5eeec"/>
      </g>
      <g id="Grupo_1210592-2" data-name="Grupo 1210592" transform="translate(0 0)">
        <path id="Trazado_1055323-2" data-name="Trazado 1055323" d="M10.25.564a1.168,1.168,0,0,1,1-.564h.028a1.164,1.164,0,0,1,1,.612A29.776,29.776,0,0,1,14.554,6.03a4.5,4.5,0,0,1-1.122,4.514l-2.888,2.888A4.5,4.5,0,0,1,6.03,14.554,29.668,29.668,0,0,1,.612,12.275a1.168,1.168,0,0,1-.05-2.027A28.819,28.819,0,0,0,10.249.562ZM6.716,12.322a2.171,2.171,0,0,0,2.176-.541L11.78,8.893a2.171,2.171,0,0,0,.541-2.176,27.154,27.154,0,0,0-1.21-3.2,31.231,31.231,0,0,1-7.594,7.594,26.88,26.88,0,0,0,3.2,1.21Z" transform="translate(54.956 54.956)" fill="#053544"/>
        <path id="Trazado_1055324-2" data-name="Trazado 1055324" d="M10.248,11.9.342,2A1.168,1.168,0,1,1,1.994.343L11.9,10.248A1.169,1.169,0,0,1,10.247,11.9Z" transform="translate(17.028 17.028)" fill="#212529"/>
        <path id="Trazado_1055327-2" data-name="Trazado 1055327" d="M79.4,19.738,67.032,46.25a35.1,35.1,0,0,1,7.5,13.193l2.818,9.175a6.988,6.988,0,0,1-8.733,8.733l-9.175-2.818a35.086,35.086,0,0,1-13.193-7.5L19.738,79.4a3.81,3.81,0,0,1-4.289-.756L9.322,72.52a1.168,1.168,0,0,1,.16-1.787l6.9-4.776-2.725-2.725a1.169,1.169,0,0,1,0-1.653l6.192-6.192a1.166,1.166,0,0,1,1.651,0l4.151,4.151,8.158-5.647q-.5-.717-.969-1.458l-14.85-23.7L7.8,31.082a3.775,3.775,0,0,1-3.536-1.014L.343,26.144a1.167,1.167,0,0,1,.343-1.89l11.286-5.13-.807-1.288a3.775,3.775,0,0,1,.533-4.7L13.138,11.7a3.776,3.776,0,0,1,4.7-.533l1.288.807L24.254.685a1.167,1.167,0,0,1,1.89-.343l3.924,3.924A3.775,3.775,0,0,1,31.082,7.8L28.731,17.991l23.7,14.85q.741.465,1.458.969l5.647-8.158L55.388,21.5a1.169,1.169,0,0,1,0-1.653l6.192-6.192a1.166,1.166,0,0,1,1.651,0l2.725,2.725,4.776-6.9a1.169,1.169,0,0,1,.855-.5c.036,0,.07,0,.1,0a1.162,1.162,0,0,1,.826.343l6.128,6.128a3.805,3.805,0,0,1,.756,4.289ZM11.964,71.856,17.1,77a1.467,1.467,0,0,0,1.648.291l1.886-.88L14.4,70.171l-2.438,1.687Zm8.709-13.99-4.539,4.539,2.2,2.2L23.7,60.891Zm-4.32,10.951,6.536,6.536,21.556-10.06-6.7-6.7a35.232,35.232,0,0,1-2.536-2.83ZM3.187,25.684,5.92,28.415a1.447,1.447,0,0,0,1.36.389l9.4-2.17L13.224,21.12,3.189,25.681ZM28.806,7.278a1.45,1.45,0,0,0-.389-1.36L25.684,3.186,21.123,13.221l5.514,3.455,2.168-9.4ZM51.194,34.819,16.6,13.144a1.452,1.452,0,0,0-1.805.2L13.35,14.789a1.45,1.45,0,0,0-.2,1.805l21.676,34.6a32.652,32.652,0,0,0,4.578,5.75l7.239,7.239A32.748,32.748,0,0,0,60.133,72.3l9.175,2.818A4.652,4.652,0,0,0,75.12,69.3L72.3,60.129a32.758,32.758,0,0,0-8.119-13.493L56.944,39.4a32.651,32.651,0,0,0-5.75-4.578ZM62.407,16.134l-4.539,4.539L60.893,23.7l3.714-5.365ZM55.765,35.21A35.253,35.253,0,0,1,58.6,37.746l6.7,6.7,10.06-21.555L68.82,16.355,55.766,35.21ZM77,17.1l-5.139-5.139L70.171,14.4l6.236,6.236.88-1.886A1.463,1.463,0,0,0,77,17.1Z" fill="#212529"/>
      </g>
    </g>
    <g id="plane_10762809-3" data-name="plane_10762809" transform="translate(10122.024 4257.774) rotate(-45)">
      <g id="Grupo_1210591-3" data-name="Grupo 1210591" transform="translate(1.168 1.167)">
        <path id="Trazado_1055313-3" data-name="Trazado 1055313" d="M6.192,21.052,0,7.431,7.431,0l3.388,14.679a2.628,2.628,0,0,1-.7,2.449Z" transform="translate(17.958 56.37)" fill="#838fff"/>
        <path id="Trazado_1055314-3" data-name="Trazado 1055314" d="M0,0H8.756V14.01H0Z" transform="translate(64.949 47.999) rotate(45)" fill="#5ff5d5"/>
        <path id="Trazado_1055315-3" data-name="Trazado 1055315" d="M22.29,44.578,0,12.383,12.383,0,28.94,35.481a2.623,2.623,0,0,1-.523,2.968l-6.128,6.128Z" transform="translate(48.233 23.864)" fill="#838fff"/>
        <path id="Trazado_1055316-3" data-name="Trazado 1055316" d="M8.105,0,0,8.105l3.039,4.39L9.167,6.367A2.627,2.627,0,0,0,9.691,3.4Z" transform="translate(67.484 55.946)" fill="#084963"/>
        <path id="Trazado_1055317-3" data-name="Trazado 1055317" d="M0,4.694l13.621,6.192,7.431-7.431L6.373.067a2.628,2.628,0,0,0-2.449.7L0,4.694Z" transform="translate(0 48.577)" fill="#838fff"/>
        <path id="Trazado_1055318-3" data-name="Trazado 1055318" d="M0,0H8.756V14.01H0Z" transform="translate(19.505 22.38) rotate(-135)" fill="#5ff5d5"/>
        <path id="Trazado_1055319-3" data-name="Trazado 1055319" d="M0,6.9l32.2,22.29L44.578,16.806,9.1.247A2.623,2.623,0,0,0,6.13.77L0,6.9Z" transform="translate(8.979 0)" fill="#838fff"/>
        <path id="Trazado_1055320-3" data-name="Trazado 1055320" d="M12.495,1.832,4.39,9.937,0,6.9,6.127.77A2.627,2.627,0,0,1,9.094.246l3.4,1.586Z" transform="translate(8.98 0)" fill="#084963"/>
        <path id="Trazado_1055321-3" data-name="Trazado 1055321" d="M63.035,1.705A5.822,5.822,0,0,0,57.21.256L48.035,3.074a33.794,33.794,0,0,0-13.976,8.41L26.82,18.724a33.818,33.818,0,0,0-4.743,5.955L.4,59.277A2.628,2.628,0,0,0,.77,62.529L2.211,63.97a2.628,2.628,0,0,0,3.253.369l34.6-21.676a33.817,33.817,0,0,0,5.955-4.743l7.239-7.239A33.794,33.794,0,0,0,61.666,16.7L64.484,7.53a5.822,5.822,0,0,0-1.449-5.824Z" transform="translate(10.583 2.098)" fill="#5ff5d5"/>
        <path id="Trazado_1055322-3" data-name="Trazado 1055322" d="M5.2.147A28.582,28.582,0,0,0,0,2.336a29.871,29.871,0,0,1,10.08,10.08,28.533,28.533,0,0,0,2.189-5.2,3.342,3.342,0,0,0-.832-3.345L8.549.979A3.342,3.342,0,0,0,5.2.147Z" transform="translate(54.956 10.047)" fill="#f5eeec"/>
      </g>
      <g id="Grupo_1210592-3" data-name="Grupo 1210592" transform="translate(0 0)">
        <path id="Trazado_1055323-3" data-name="Trazado 1055323" d="M10.25,14.191a1.168,1.168,0,0,0,1,.564h.028a1.164,1.164,0,0,0,1-.612,29.776,29.776,0,0,0,2.279-5.418A4.5,4.5,0,0,0,13.433,4.21L10.545,1.322A4.5,4.5,0,0,0,6.03.2,29.668,29.668,0,0,0,.612,2.479a1.168,1.168,0,0,0-.05,2.027,28.819,28.819,0,0,1,9.686,9.686ZM6.716,2.433a2.171,2.171,0,0,1,2.176.541L11.78,5.861a2.171,2.171,0,0,1,.541,2.176,27.154,27.154,0,0,1-1.21,3.2A31.231,31.231,0,0,0,3.516,3.643a26.88,26.88,0,0,1,3.2-1.21Z" transform="translate(54.956 10.046)" fill="#053544"/>
        <path id="Trazado_1055324-3" data-name="Trazado 1055324" d="M10.248.342.342,10.248A1.168,1.168,0,1,0,1.994,11.9L11.9,2A1.169,1.169,0,1,0,10.247.342Z" transform="translate(17.028 50.486)" fill="#212529"/>
        <path id="Trazado_1055327-3" data-name="Trazado 1055327" d="M79.4,60.019,67.032,33.507a35.1,35.1,0,0,0,7.5-13.193l2.818-9.175a6.988,6.988,0,0,0-8.733-8.733L59.444,5.224a35.086,35.086,0,0,0-13.193,7.5L19.738.353a3.81,3.81,0,0,0-4.289.756L9.322,7.237a1.168,1.168,0,0,0,.16,1.787l6.9,4.776-2.725,2.725a1.169,1.169,0,0,0,0,1.653l6.192,6.192a1.166,1.166,0,0,0,1.651,0l4.151-4.151,8.158,5.647q-.5.717-.969,1.458l-14.85,23.7L7.8,48.675a3.775,3.775,0,0,0-3.536,1.014L.343,53.613A1.167,1.167,0,0,0,.686,55.5l11.286,5.13-.807,1.288a3.775,3.775,0,0,0,.533,4.7l1.441,1.441a3.776,3.776,0,0,0,4.7.533l1.288-.807,5.13,11.286a1.167,1.167,0,0,0,1.89.343l3.924-3.924a3.775,3.775,0,0,0,1.014-3.538L28.731,61.766l23.7-14.85q.741-.465,1.458-.969l5.647,8.158-4.151,4.151a1.169,1.169,0,0,0,0,1.653L61.58,66.1a1.166,1.166,0,0,0,1.651,0l2.725-2.725,4.776,6.9a1.169,1.169,0,0,0,.855.5c.036,0,.07,0,.1,0a1.162,1.162,0,0,0,.826-.343l6.128-6.128a3.805,3.805,0,0,0,.756-4.289ZM11.964,7.9,17.1,2.762a1.467,1.467,0,0,1,1.648-.291l1.886.88L14.4,9.586,11.964,7.9Zm8.709,13.99-4.539-4.539,2.2-2.2L23.7,18.866ZM16.353,10.94,22.89,4.4l21.556,10.06-6.7,6.7a35.232,35.232,0,0,0-2.536,2.83ZM3.187,54.073,5.92,51.342a1.447,1.447,0,0,1,1.36-.389l9.4,2.17-3.455,5.514L3.189,54.076ZM28.806,72.479a1.45,1.45,0,0,1-.389,1.36l-2.732,2.732L21.123,66.536l5.514-3.455,2.168,9.4ZM51.194,44.938,16.6,66.613a1.452,1.452,0,0,1-1.805-.2L13.35,64.968a1.45,1.45,0,0,1-.2-1.805l21.676-34.6a32.652,32.652,0,0,1,4.578-5.75l7.239-7.239A32.748,32.748,0,0,1,60.133,7.457l9.175-2.818a4.652,4.652,0,0,1,5.812,5.814L72.3,19.627a32.758,32.758,0,0,1-8.119,13.493L56.944,40.36a32.651,32.651,0,0,1-5.75,4.578ZM62.407,63.623l-4.539-4.539,3.025-3.025,3.714,5.365ZM55.765,44.547A35.253,35.253,0,0,0,58.6,42.011l6.7-6.7,10.06,21.555L68.82,63.4,55.766,44.547ZM77,62.654l-5.139,5.139-1.687-2.438,6.236-6.236.88,1.886A1.463,1.463,0,0,1,77,62.654Z" fill="#212529"/>
      </g>
    </g>
    <g id="plane_10762809-4" data-name="plane_10762809" transform="translate(10122.024 4367.774) rotate(-45)">
      <g id="Grupo_1210591-4" data-name="Grupo 1210591" transform="translate(1.168 1.167)">
        <path id="Trazado_1055313-4" data-name="Trazado 1055313" d="M6.192,21.052,0,7.431,7.431,0l3.388,14.679a2.628,2.628,0,0,1-.7,2.449Z" transform="translate(17.958 56.37)" fill="#838fff"/>
        <path id="Trazado_1055314-4" data-name="Trazado 1055314" d="M0,0H8.756V14.01H0Z" transform="translate(64.949 47.999) rotate(45)" fill="#5ff5d5"/>
        <path id="Trazado_1055315-4" data-name="Trazado 1055315" d="M22.29,44.578,0,12.383,12.383,0,28.94,35.481a2.623,2.623,0,0,1-.523,2.968l-6.128,6.128Z" transform="translate(48.233 23.864)" fill="#838fff"/>
        <path id="Trazado_1055316-4" data-name="Trazado 1055316" d="M8.105,0,0,8.105l3.039,4.39L9.167,6.367A2.627,2.627,0,0,0,9.691,3.4Z" transform="translate(67.484 55.946)" fill="#084963"/>
        <path id="Trazado_1055317-4" data-name="Trazado 1055317" d="M0,4.694l13.621,6.192,7.431-7.431L6.373.067a2.628,2.628,0,0,0-2.449.7L0,4.694Z" transform="translate(0 48.577)" fill="#838fff"/>
        <path id="Trazado_1055318-4" data-name="Trazado 1055318" d="M0,0H8.756V14.01H0Z" transform="translate(19.505 22.38) rotate(-135)" fill="#5ff5d5"/>
        <path id="Trazado_1055319-4" data-name="Trazado 1055319" d="M0,6.9l32.2,22.29L44.578,16.806,9.1.247A2.623,2.623,0,0,0,6.13.77L0,6.9Z" transform="translate(8.979 0)" fill="#838fff"/>
        <path id="Trazado_1055320-4" data-name="Trazado 1055320" d="M12.495,1.832,4.39,9.937,0,6.9,6.127.77A2.627,2.627,0,0,1,9.094.246l3.4,1.586Z" transform="translate(8.98 0)" fill="#084963"/>
        <path id="Trazado_1055321-4" data-name="Trazado 1055321" d="M63.035,1.705A5.822,5.822,0,0,0,57.21.256L48.035,3.074a33.794,33.794,0,0,0-13.976,8.41L26.82,18.724a33.818,33.818,0,0,0-4.743,5.955L.4,59.277A2.628,2.628,0,0,0,.77,62.529L2.211,63.97a2.628,2.628,0,0,0,3.253.369l34.6-21.676a33.817,33.817,0,0,0,5.955-4.743l7.239-7.239A33.794,33.794,0,0,0,61.666,16.7L64.484,7.53a5.822,5.822,0,0,0-1.449-5.824Z" transform="translate(10.583 2.098)" fill="#5ff5d5"/>
        <path id="Trazado_1055322-4" data-name="Trazado 1055322" d="M5.2.147A28.582,28.582,0,0,0,0,2.336a29.871,29.871,0,0,1,10.08,10.08,28.533,28.533,0,0,0,2.189-5.2,3.342,3.342,0,0,0-.832-3.345L8.549.979A3.342,3.342,0,0,0,5.2.147Z" transform="translate(54.956 10.047)" fill="#f5eeec"/>
      </g>
      <g id="Grupo_1210592-4" data-name="Grupo 1210592" transform="translate(0 0)">
        <path id="Trazado_1055323-4" data-name="Trazado 1055323" d="M10.25,14.191a1.168,1.168,0,0,0,1,.564h.028a1.164,1.164,0,0,0,1-.612,29.776,29.776,0,0,0,2.279-5.418A4.5,4.5,0,0,0,13.433,4.21L10.545,1.322A4.5,4.5,0,0,0,6.03.2,29.668,29.668,0,0,0,.612,2.479a1.168,1.168,0,0,0-.05,2.027,28.819,28.819,0,0,1,9.686,9.686ZM6.716,2.433a2.171,2.171,0,0,1,2.176.541L11.78,5.861a2.171,2.171,0,0,1,.541,2.176,27.154,27.154,0,0,1-1.21,3.2A31.231,31.231,0,0,0,3.516,3.643a26.88,26.88,0,0,1,3.2-1.21Z" transform="translate(54.956 10.046)" fill="#053544"/>
        <path id="Trazado_1055324-4" data-name="Trazado 1055324" d="M10.248.342.342,10.248A1.168,1.168,0,1,0,1.994,11.9L11.9,2A1.169,1.169,0,1,0,10.247.342Z" transform="translate(17.028 50.486)" fill="#212529"/>
        <path id="Trazado_1055327-4" data-name="Trazado 1055327" d="M79.4,60.019,67.032,33.507a35.1,35.1,0,0,0,7.5-13.193l2.818-9.175a6.988,6.988,0,0,0-8.733-8.733L59.444,5.224a35.086,35.086,0,0,0-13.193,7.5L19.738.353a3.81,3.81,0,0,0-4.289.756L9.322,7.237a1.168,1.168,0,0,0,.16,1.787l6.9,4.776-2.725,2.725a1.169,1.169,0,0,0,0,1.653l6.192,6.192a1.166,1.166,0,0,0,1.651,0l4.151-4.151,8.158,5.647q-.5.717-.969,1.458l-14.85,23.7L7.8,48.675a3.775,3.775,0,0,0-3.536,1.014L.343,53.613A1.167,1.167,0,0,0,.686,55.5l11.286,5.13-.807,1.288a3.775,3.775,0,0,0,.533,4.7l1.441,1.441a3.776,3.776,0,0,0,4.7.533l1.288-.807,5.13,11.286a1.167,1.167,0,0,0,1.89.343l3.924-3.924a3.775,3.775,0,0,0,1.014-3.538L28.731,61.766l23.7-14.85q.741-.465,1.458-.969l5.647,8.158-4.151,4.151a1.169,1.169,0,0,0,0,1.653L61.58,66.1a1.166,1.166,0,0,0,1.651,0l2.725-2.725,4.776,6.9a1.169,1.169,0,0,0,.855.5c.036,0,.07,0,.1,0a1.162,1.162,0,0,0,.826-.343l6.128-6.128a3.805,3.805,0,0,0,.756-4.289ZM11.964,7.9,17.1,2.762a1.467,1.467,0,0,1,1.648-.291l1.886.88L14.4,9.586,11.964,7.9Zm8.709,13.99-4.539-4.539,2.2-2.2L23.7,18.866ZM16.353,10.94,22.89,4.4l21.556,10.06-6.7,6.7a35.232,35.232,0,0,0-2.536,2.83ZM3.187,54.073,5.92,51.342a1.447,1.447,0,0,1,1.36-.389l9.4,2.17-3.455,5.514L3.189,54.076ZM28.806,72.479a1.45,1.45,0,0,1-.389,1.36l-2.732,2.732L21.123,66.536l5.514-3.455,2.168,9.4ZM51.194,44.938,16.6,66.613a1.452,1.452,0,0,1-1.805-.2L13.35,64.968a1.45,1.45,0,0,1-.2-1.805l21.676-34.6a32.652,32.652,0,0,1,4.578-5.75l7.239-7.239A32.748,32.748,0,0,1,60.133,7.457l9.175-2.818a4.652,4.652,0,0,1,5.812,5.814L72.3,19.627a32.758,32.758,0,0,1-8.119,13.493L56.944,40.36a32.651,32.651,0,0,1-5.75,4.578ZM62.407,63.623l-4.539-4.539,3.025-3.025,3.714,5.365ZM55.765,44.547A35.253,35.253,0,0,0,58.6,42.011l6.7-6.7,10.06,21.555L68.82,63.4,55.766,44.547ZM77,62.654l-5.139,5.139-1.687-2.438,6.236-6.236.88,1.886A1.463,1.463,0,0,1,77,62.654Z" fill="#212529"/>
      </g>
    </g>
  </g>
</svg>
