<svg xmlns="http://www.w3.org/2000/svg" xmlns:xlink="http://www.w3.org/1999/xlink" width="295" height="255.045" viewBox="0 0 295 255.045">
  <defs>
    <clipPath id="clip-path">
      <path id="path1851" d="M0-682.665H127.5v127.5H0Z" transform="translate(0 682.665)"/>
    </clipPath>
  </defs>
  <g id="Grupo_1210594" data-name="Grupo 1210594" transform="translate(-9624 -4571.252)">
    <path id="Rectángulo_420792" data-name="Rectángulo 420792" d="M8,0H287a8,8,0,0,1,8,8V255.045a0,0,0,0,1,0,0H0a0,0,0,0,1,0,0V8A8,8,0,0,1,8,0Z" transform="translate(9624 4571.252)" fill="#684fbc"/>
    <g id="g1845" transform="translate(9676.396 4645.916)">
      <g id="g1847" transform="translate(0 0)">
        <g id="g1849" clip-path="url(#clip-path)">
          <g id="g1855" transform="translate(14.12 106.357)">
            <path id="path1857" d="M-421.466-83.88h-94.326a2.465,2.465,0,0,1-2.465-2.465v-7.822a8.977,8.977,0,0,1,8.977-8.977h81.3A8.977,8.977,0,0,1-419-94.167v7.822a2.465,2.465,0,0,1-2.465,2.465" transform="translate(518.257 103.144)" fill="#fe860a"/>
          </g>
          <g id="g1859" transform="translate(14.12 106.357)">
            <path id="path1861" d="M-109.326-83.88h-22.643a2.465,2.465,0,0,1-2.465-2.465v-7.822a8.977,8.977,0,0,1,8.977-8.977h81.3a8.977,8.977,0,0,1,8.977,8.977v7.822a2.465,2.465,0,0,1-2.465,2.465h-63.225" transform="translate(134.433 103.144)" fill="none" stroke="#000" stroke-linecap="round" stroke-linejoin="round" stroke-miterlimit="10" stroke-width="3"/>
          </g>
          <g id="g1863" transform="translate(27.781 1.909)">
            <path id="path1865" d="M-156.614,0h0a9,9,0,0,0-8.668,6.581l-27.3,97.865h71.934l-27.3-97.865A9,9,0,0,0-156.614,0" transform="translate(192.581)" fill="#fea95c"/>
          </g>
          <g id="g1867" transform="translate(27.78 1.915)">
            <path id="path1869" d="M-313.237-454.783h-71.936l1.947-6.972h57.8a2.828,2.828,0,0,0,2.724-3.588l-26.189-93.881a9,9,0,0,1,8.357,6.577Z" transform="translate(385.172 559.225)" fill="#fe9738"/>
          </g>
          <g id="g1871" transform="translate(54.169 1.909)">
            <path id="path1873" d="M-174.118-368.027l-21.74-77.937a9,9,0,0,0-8.668-6.581,9,9,0,0,0-8.668,6.581l-.91,3.263" transform="translate(214.105 452.546)" fill="none" stroke="#000" stroke-linecap="round" stroke-linejoin="round" stroke-miterlimit="10" stroke-width="3"/>
          </g>
          <g id="g1875" transform="translate(27.781 20.16)">
            <path id="path1877" d="M-104.695,0l-24.043,86.2H-56.8L-60.048,74.57" transform="translate(128.738)" fill="none" stroke="#000" stroke-linecap="round" stroke-linejoin="round" stroke-miterlimit="10" stroke-width="3"/>
          </g>
          <g id="g1879" transform="translate(34.918 42.602)">
            <path id="path1881" d="M-251.074-166.2h-57.66l10.645-38.168h36.369Z" transform="translate(308.734 204.366)" fill="#f3f0f3"/>
          </g>
          <g id="g1883" transform="translate(75.39 42.602)">
            <path id="path1885" d="M-74.849-166.194h-6.543l-10.646-38.167H-85.5Z" transform="translate(92.038 204.361)" fill="#e2dee2"/>
          </g>
          <g id="g1887" transform="translate(34.918 42.602)">
            <path id="path1889" d="M-251.074-166.2h-57.66l10.645-38.168h36.369Z" transform="translate(308.734 204.366)" fill="none" stroke="#000" stroke-linecap="round" stroke-linejoin="round" stroke-miterlimit="10" stroke-width="3"/>
          </g>
        </g>
      </g>
    </g>
    <g id="browser_675607" transform="translate(9779.667 4641.144)">
      <path id="Trazado_1055328" data-name="Trazado 1055328" d="M77.947,115.565H12.924A5.066,5.066,0,0,1,7.858,110.5V58.86a5.066,5.066,0,0,1,5.066-5.066H77.947a5.066,5.066,0,0,1,5.066,5.066V110.5A5.066,5.066,0,0,1,77.947,115.565Z" transform="translate(-6.524 -52.46)" fill="#e9ebf2"/>
      <path id="Trazado_1055329" data-name="Trazado 1055329" d="M83.013,65.977V58.86a5.066,5.066,0,0,0-5.066-5.066H12.924A5.066,5.066,0,0,0,7.858,58.86v7.116H83.013Z" transform="translate(-6.524 -52.46)" fill="#00aaf0"/>
      <path id="Trazado_1055330" data-name="Trazado 1055330" d="M37.846,245.194l-2.333-.294a19.031,19.031,0,0,0-1.7-4.107l1.445-1.858a2.338,2.338,0,0,0-.192-3.089l-3.707-3.707a2.338,2.338,0,0,0-3.087-.194l-1.863,1.446a19.044,19.044,0,0,0-4.084-1.7l-.292-2.336a2.338,2.338,0,0,0-2.32-2.048H14.468a2.338,2.338,0,0,0-2.32,2.046l-.294,2.333a19.033,19.033,0,0,0-4,1.644v10.08A11.406,11.406,0,1,1,23.4,259.619H33.94l-.129-.166a19.038,19.038,0,0,0,1.7-4.084l2.336-.292a2.338,2.338,0,0,0,2.048-2.32v-5.243A2.338,2.338,0,0,0,37.846,245.194Z" transform="translate(-6.522 -196.513)" fill="#c7cad3"/>
      <path id="Trazado_1055331" data-name="Trazado 1055331" d="M23.4,296.217h5.044A15.177,15.177,0,0,0,7.857,274.255v5.756A11.406,11.406,0,1,1,23.4,296.217Z" transform="translate(-6.523 -233.112)" fill="#b0b6c1"/>
      <path id="Trazado_1055332" data-name="Trazado 1055332" d="M214.55,156.336A6.661,6.661,0,0,0,207.889,163v37.7h36.124a5.066,5.066,0,0,0,5.066-5.066V156.336Z" transform="translate(-172.59 -137.59)" fill="#dfe2ea"/>
      <path id="Trazado_1055333" data-name="Trazado 1055333" d="M270.086,225.591H234.933a5.769,5.769,0,0,1-5.769-5.769V183.784a5.769,5.769,0,0,1,5.769-5.769h35.154a5.769,5.769,0,0,1,5.769,5.769v36.039A5.769,5.769,0,0,1,270.086,225.591Z" transform="translate(-190.252 -155.588)" fill="#ffdc64"/>
      <path id="Trazado_1055334" data-name="Trazado 1055334" d="M270.086,178.015h-3.379V191.53A25.169,25.169,0,0,1,241.538,216.7H229.164v3.124a5.769,5.769,0,0,0,5.769,5.769h35.153a5.769,5.769,0,0,0,5.769-5.769V183.784A5.768,5.768,0,0,0,270.086,178.015Z" transform="translate(-190.252 -155.588)" fill="#ffc850"/>
      <path id="Trazado_1055335" data-name="Trazado 1055335" d="M291.781,268.386h24.461a1.339,1.339,0,0,0,1.168-1.995L305.056,244.4a1.339,1.339,0,0,0-2.341.01L290.608,266.4A1.339,1.339,0,0,0,291.781,268.386Z" transform="translate(-241.124 -210.133)" fill="#ff6b5c"/>
      <path id="Trazado_1055336" data-name="Trazado 1055336" d="M317.409,266.391,305.055,244.4a1.339,1.339,0,0,0-2.341.01l-.619,1.124,1.54,2.742a11.987,11.987,0,0,1-10.451,17.858h-2.43l-.148.268a1.339,1.339,0,0,0,1.173,1.985h24.461A1.339,1.339,0,0,0,317.409,266.391Z" transform="translate(-241.124 -210.133)" fill="#ff5450"/>
      <path id="Trazado_1055337" data-name="Trazado 1055337" d="M149.882,84.984h22.306a1.334,1.334,0,0,0,0-2.668H149.882a1.334,1.334,0,1,0,0,2.668Z" transform="translate(-123.325 -76.139)"/>
      <ellipse id="Elipse_12513" data-name="Elipse 12513" cx="1.603" cy="1.603" rx="1.603" ry="1.603" transform="translate(6.423 5.908)"/>
      <ellipse id="Elipse_12514" data-name="Elipse 12514" cx="1.603" cy="1.603" rx="1.603" ry="1.603" transform="translate(12.601 5.908)"/>
      <ellipse id="Elipse_12515" data-name="Elipse 12515" cx="1.603" cy="1.603" rx="1.603" ry="1.603" transform="translate(18.433 5.908)"/>
      <ellipse id="Elipse_12516" data-name="Elipse 12516" cx="1.603" cy="1.603" rx="1.603" ry="1.603" transform="translate(68.366 5.908)"/>
      <path id="Trazado_1055338" data-name="Trazado 1055338" d="M79.834,67.03H77.823V52.337a6.408,6.408,0,0,0-6.4-6.4H6.4a6.408,6.408,0,0,0-6.4,6.4v51.639a6.408,6.408,0,0,0,6.4,6.4H37.583a7.11,7.11,0,0,0,7.1,6.9H79.834a7.111,7.111,0,0,0,7.1-7.1V74.132A7.111,7.111,0,0,0,79.834,67.03ZM2.668,103.976V93.292a10.068,10.068,0,1,1,13.784,14.416H6.4A3.736,3.736,0,0,1,2.668,103.976Zm17.673,3.732A12.738,12.738,0,0,0,2.668,89.549V83.564A17.656,17.656,0,0,1,5.7,82.4a1.334,1.334,0,0,0,.961-1.117l.294-2.333a1.006,1.006,0,0,1,1-.878h5.243a1,1,0,0,1,1,.88l.292,2.336a1.335,1.335,0,0,0,.959,1.118,17.73,17.73,0,0,1,3.8,1.577,1.334,1.334,0,0,0,1.469-.111l1.863-1.446a1.006,1.006,0,0,1,1.326.083L27.6,86.213a1.006,1.006,0,0,1,.083,1.326L26.235,89.4a1.334,1.334,0,0,0-.112,1.47,17.734,17.734,0,0,1,1.584,3.819,1.334,1.334,0,0,0,1.117.961l2.333.294a1.006,1.006,0,0,1,.879,1v5.243a1.006,1.006,0,0,1-.88,1l-2.336.292a1.334,1.334,0,0,0-1.118.959,17.692,17.692,0,0,1-1.3,3.28H20.341Zm63.927,2.463a4.44,4.44,0,0,1-4.435,4.435H44.681a4.44,4.44,0,0,1-4.435-4.435V104.75a1.334,1.334,0,1,0-2.668,0v2.958H29.352c.243-.557.463-1.124.654-1.7l1.481-.185A3.678,3.678,0,0,0,34.7,102.18V96.938a3.679,3.679,0,0,0-3.213-3.644h0l-1.478-.186a20.4,20.4,0,0,0-1.142-2.754l.915-1.177a3.678,3.678,0,0,0-.3-4.851l-3.707-3.707a3.679,3.679,0,0,0-4.848-.3l-1.182.917a20.411,20.411,0,0,0-2.73-1.134l-.185-1.481A3.678,3.678,0,0,0,13.189,75.4H7.946A3.679,3.679,0,0,0,4.3,78.612l-.186,1.478q-.733.243-1.448.544V60.788H9.629a1.334,1.334,0,1,0,0-2.668H2.668V52.337A3.736,3.736,0,0,1,6.4,48.605H71.423a3.736,3.736,0,0,1,3.732,3.732V58.12h-57.8a1.334,1.334,0,1,0,0,2.668h57.8v6.242H44.681a7.111,7.111,0,0,0-7.1,7.1V97.279a1.334,1.334,0,1,0,2.668,0V74.132A4.44,4.44,0,0,1,44.681,69.7H79.834a4.44,4.44,0,0,1,4.435,4.435Z" transform="translate(0 -45.937)"/>
      <path id="Trazado_1055339" data-name="Trazado 1055339" d="M299.408,237.536a2.675,2.675,0,0,0-2.33-1.364h-.012a2.674,2.674,0,0,0-2.331,1.384l-12.107,21.992a2.673,2.673,0,0,0,2.342,3.962h24.461a2.673,2.673,0,0,0,2.331-3.982ZM284.97,260.842l0-.007,12.115-21.992,12.35,22H284.97Z" transform="translate(-234.36 -203.87)"/>
      <path id="Trazado_1055340" data-name="Trazado 1055340" d="M363.6,350.169a1.473,1.473,0,0,0-1.061.407,1.336,1.336,0,0,0,.01,1.962,1.463,1.463,0,0,0,1.051.416,1.229,1.229,0,0,0,.928-.416,1.417,1.417,0,0,0,0-1.953A1.231,1.231,0,0,0,363.6,350.169Z" transform="translate(-300.626 -298.511)"/>
      <path id="Trazado_1055341" data-name="Trazado 1055341" d="M362.432,289.179q0,1.085.127,3.707t.127,3.689q0,.8,1.158.8a1.536,1.536,0,0,0,.775-.208.647.647,0,0,0,.363-.588q0-1.067.054-3.689t.054-3.707a1,1,0,0,0-.355-.8,1.339,1.339,0,0,0-.892-.3,1.643,1.643,0,0,0-1.015.3A.955.955,0,0,0,362.432,289.179Z" transform="translate(-300.891 -246.961)"/>
    </g>
  </g>
</svg>
