<svg xmlns="http://www.w3.org/2000/svg" width="295" height="255.045" viewBox="0 0 295 255.045">
  <g id="Grupo_1210595" data-name="Grupo 1210595" transform="translate(-9971 -4571.252)">
    <path id="Rectángulo_420794" data-name="Rectángulo 420794" d="M8,0H287a8,8,0,0,1,8,8V255.045a0,0,0,0,1,0,0H0a0,0,0,0,1,0,0V8A8,8,0,0,1,8,0Z" transform="translate(9971 4571.252)" fill="#684fbc"/>
    <g id="left-arrow_1783372" transform="translate(10128.985 4620.985)">
      <path id="Trazado_1055342" data-name="Trazado 1055342" d="M121.624,84.812A36.812,36.812,0,1,1,84.812,48,36.812,36.812,0,0,1,121.624,84.812Zm0,0" transform="translate(-38.797 -38.797)" fill="#fff"/>
      <path id="Trazado_1055343" data-name="Trazado 1055343" d="M46.015,0A46.015,46.015,0,1,0,92.03,46.015,46.015,46.015,0,0,0,46.015,0Zm0,88.963A42.947,42.947,0,1,1,88.963,46.015,42.948,42.948,0,0,1,46.015,88.963Zm0,0"/>
      <path id="Trazado_1055344" data-name="Trazado 1055344" d="M164.481,154.525H124.808l13.242-15.89a1.534,1.534,0,0,0-2.356-1.964l-15.338,18.406c-.037.045-.047.1-.079.146a1.662,1.662,0,0,0-.123.189c-.02.043-.032.085-.049.13a1.25,1.25,0,0,0-.053.228,1.3,1.3,0,0,0-.037.221c0,.023-.013.043-.013.067s.012.044.013.067a1.3,1.3,0,0,0,.037.221,1.25,1.25,0,0,0,.053.228c.017.045.029.088.049.13a1.661,1.661,0,0,0,.123.189c.032.046.043.1.079.146l15.338,18.406a1.534,1.534,0,1,0,2.356-1.964l-13.242-15.89h39.673a1.534,1.534,0,0,0,0-3.068Zm0,0" transform="translate(-96.992 -110.044)"/>
    </g>
    <path id="Título-Tarjeta" d="M-30.944,0V-19.74h8.652a7.891,7.891,0,0,1,4.956,1.358A4.514,4.514,0,0,1-15.6-14.616a4.465,4.465,0,0,1-1.064,3.024A5.271,5.271,0,0,1-19.6-9.94v-.42a5.547,5.547,0,0,1,3.346,1.554,4.565,4.565,0,0,1,1.19,3.29,4.9,4.9,0,0,1-1.82,4.074A7.967,7.967,0,0,1-21.956,0Zm3.472-2.744h5.1a4.987,4.987,0,0,0,2.828-.686A2.528,2.528,0,0,0-18.54-5.684a2.559,2.559,0,0,0-1.008-2.282,4.987,4.987,0,0,0-2.828-.686h-5.1Zm0-8.624h4.564a4.725,4.725,0,0,0,2.87-.714A2.491,2.491,0,0,0-19.1-14.2a2.491,2.491,0,0,0-.938-2.114,4.725,4.725,0,0,0-2.87-.714h-4.564ZM-6.441.28A5.964,5.964,0,0,1-9.689-.6a5.89,5.89,0,0,1-2.184-2.534,9.137,9.137,0,0,1-.784-3.948,9.044,9.044,0,0,1,.784-3.934,5.9,5.9,0,0,1,2.184-2.52,5.964,5.964,0,0,1,3.248-.882,5.653,5.653,0,0,1,3.15.882,4.2,4.2,0,0,1,1.806,2.366h-.308l.308-2.968h3.36q-.084.868-.154,1.764t-.07,1.764V0H-1.821l-.028-2.912h.336A4.132,4.132,0,0,1-3.333-.588,5.69,5.69,0,0,1-6.441.28Zm.98-2.688A3.349,3.349,0,0,0-2.8-3.57,5.246,5.246,0,0,0-1.793-7.084a5.188,5.188,0,0,0-1.008-3.5,3.368,3.368,0,0,0-2.66-1.148,3.368,3.368,0,0,0-2.66,1.148,5.188,5.188,0,0,0-1.008,3.5A5.3,5.3,0,0,0-8.135-3.57,3.339,3.339,0,0,0-5.461-2.408ZM11.957.28a7.84,7.84,0,0,1-3.822-.9A6.207,6.207,0,0,1,5.6-3.178a8.251,8.251,0,0,1-.9-3.962,7.9,7.9,0,0,1,.91-3.92,6.2,6.2,0,0,1,2.534-2.492,7.963,7.963,0,0,1,3.808-.868,8.746,8.746,0,0,1,2.73.434,5.535,5.535,0,0,1,2.17,1.246L15.793-10.3a5.1,5.1,0,0,0-1.694-1.05,5.227,5.227,0,0,0-1.834-.35,3.72,3.72,0,0,0-2.926,1.176,4.971,4.971,0,0,0-1.05,3.416,5.083,5.083,0,0,0,1.05,3.444,3.677,3.677,0,0,0,2.926,1.2A5.347,5.347,0,0,0,14.071-2.8a5.208,5.208,0,0,0,1.722-1.036l1.064,2.408a5.94,5.94,0,0,1-2.2,1.26A8.412,8.412,0,0,1,11.957.28ZM19.576,0V-20.608h3.5V-8.12h.056l5.74-6.02H33.1L25.96-6.664l.028-1.4L33.6,0h-4.34L23.132-6.328h-.056V0Z" transform="translate(10175 4759)" fill="#fff"/>
    <path id="Título-Tarjeta-2" data-name="Título-Tarjeta" d="M-30.944,0V-19.74h8.652a7.891,7.891,0,0,1,4.956,1.358A4.514,4.514,0,0,1-15.6-14.616a4.465,4.465,0,0,1-1.064,3.024A5.271,5.271,0,0,1-19.6-9.94v-.42a5.547,5.547,0,0,1,3.346,1.554,4.565,4.565,0,0,1,1.19,3.29,4.9,4.9,0,0,1-1.82,4.074A7.967,7.967,0,0,1-21.956,0Zm3.472-2.744h5.1a4.987,4.987,0,0,0,2.828-.686A2.528,2.528,0,0,0-18.54-5.684a2.559,2.559,0,0,0-1.008-2.282,4.987,4.987,0,0,0-2.828-.686h-5.1Zm0-8.624h4.564a4.725,4.725,0,0,0,2.87-.714A2.491,2.491,0,0,0-19.1-14.2a2.491,2.491,0,0,0-.938-2.114,4.725,4.725,0,0,0-2.87-.714h-4.564ZM-6.441.28A5.964,5.964,0,0,1-9.689-.6a5.89,5.89,0,0,1-2.184-2.534,9.137,9.137,0,0,1-.784-3.948,9.044,9.044,0,0,1,.784-3.934,5.9,5.9,0,0,1,2.184-2.52,5.964,5.964,0,0,1,3.248-.882,5.653,5.653,0,0,1,3.15.882,4.2,4.2,0,0,1,1.806,2.366h-.308l.308-2.968h3.36q-.084.868-.154,1.764t-.07,1.764V0H-1.821l-.028-2.912h.336A4.132,4.132,0,0,1-3.333-.588,5.69,5.69,0,0,1-6.441.28Zm.98-2.688A3.349,3.349,0,0,0-2.8-3.57,5.246,5.246,0,0,0-1.793-7.084a5.188,5.188,0,0,0-1.008-3.5,3.368,3.368,0,0,0-2.66-1.148,3.368,3.368,0,0,0-2.66,1.148,5.188,5.188,0,0,0-1.008,3.5A5.3,5.3,0,0,0-8.135-3.57,3.339,3.339,0,0,0-5.461-2.408ZM11.957.28a7.84,7.84,0,0,1-3.822-.9A6.207,6.207,0,0,1,5.6-3.178a8.251,8.251,0,0,1-.9-3.962,7.9,7.9,0,0,1,.91-3.92,6.2,6.2,0,0,1,2.534-2.492,7.963,7.963,0,0,1,3.808-.868,8.746,8.746,0,0,1,2.73.434,5.535,5.535,0,0,1,2.17,1.246L15.793-10.3a5.1,5.1,0,0,0-1.694-1.05,5.227,5.227,0,0,0-1.834-.35,3.72,3.72,0,0,0-2.926,1.176,4.971,4.971,0,0,0-1.05,3.416,5.083,5.083,0,0,0,1.05,3.444,3.677,3.677,0,0,0,2.926,1.2A5.347,5.347,0,0,0,14.071-2.8a5.208,5.208,0,0,0,1.722-1.036l1.064,2.408a5.94,5.94,0,0,1-2.2,1.26A8.412,8.412,0,0,1,11.957.28ZM19.576,0V-20.608h3.5V-8.12h.056l5.74-6.02H33.1L25.96-6.664l.028-1.4L33.6,0h-4.34L23.132-6.328h-.056V0Z" transform="translate(10063 4759)" fill="#fff"/>
  </g>
</svg>
