<svg xmlns="http://www.w3.org/2000/svg" width="295" height="255.045" viewBox="0 0 295 255.045">
  <g id="Grupo_1210615" data-name="Grupo 1210615" transform="translate(-9624 -4957.252)">
    <path id="Rectángulo_420796" data-name="Rectángulo 420796" d="M8,0H287a8,8,0,0,1,8,8V255.045a0,0,0,0,1,0,0H0a0,0,0,0,1,0,0V8A8,8,0,0,1,8,0Z" transform="translate(9624 4957.252)" fill="#684fbc"/>
    <g id="annuities_17283170" transform="translate(9665.42 5002.124)">
      <g id="Grupo_1210597" data-name="Grupo 1210597" transform="translate(1.67 1.668)">
        <path id="Trazado_1055345" data-name="Trazado 1055345" d="M197.48,33.08h7.649v16.8H197.48Z" transform="translate(-158.794 -27.846)" fill="#056bb8" fill-rule="evenodd"/>
        <path id="Trazado_1055346" data-name="Trazado 1055346" d="M295.3,76.81l4.84,2.8a1.026,1.026,0,0,1,.378,1.4l-7.371,12.76a1.026,1.026,0,0,1-1.4.378l-4.846-2.8a1.031,1.031,0,0,1-.374-1.4l7.365-12.76A1.039,1.039,0,0,1,295.3,76.81Z" transform="translate(-229.143 -62.34)" fill="#2f5274" fill-rule="evenodd"/>
        <path id="Trazado_1055347" data-name="Trazado 1055347" d="M77.384,79.608l4.846-2.8a1.029,1.029,0,0,1,1.4.378L91,89.948a1.032,1.032,0,0,1-.378,1.4l-4.846,2.8a1.029,1.029,0,0,1-1.4-.378l-7.371-12.76a1.03,1.03,0,0,1,.378-1.4Z" transform="translate(-63.357 -62.34)" fill="#2f5274" fill-rule="evenodd"/>
        <path id="Trazado_1055348" data-name="Trazado 1055348" d="M54.633,181.651A42.51,42.51,0,1,0,12.12,139.143a42.591,42.591,0,0,0,42.513,42.507Z" transform="translate(-12.12 -78.132)" fill="#ff4646" fill-rule="evenodd"/>
        <path id="Trazado_1055349" data-name="Trazado 1055349" d="M83.753,203.106A34.833,34.833,0,1,0,48.92,168.273,34.9,34.9,0,0,0,83.753,203.106Z" transform="translate(-41.24 -107.26)" fill="#ebf5fc" fill-rule="evenodd"/>
        <path id="Trazado_1055350" data-name="Trazado 1055350" d="M158.051,8h22.1a1.28,1.28,0,0,1,1.277,1.277v5.846a1.28,1.28,0,0,1-1.277,1.277h-22.1a1.279,1.279,0,0,1-1.271-1.277V9.277A1.276,1.276,0,0,1,158.051,8Z" transform="translate(-126.589 -8)" fill="#0593fc" fill-rule="evenodd"/>
        <path id="Trazado_1055351" data-name="Trazado 1055351" d="M324.327,147.35A20.454,20.454,0,1,1,303.87,167.8,20.453,20.453,0,0,1,324.327,147.35Z" transform="translate(-242.98 -118.267)" fill="#ffd400" fill-rule="evenodd"/>
        <path id="Trazado_1055352" data-name="Trazado 1055352" d="M344.624,173a15.1,15.1,0,1,1-15.1,15.1A15.1,15.1,0,0,1,344.624,173Z" transform="translate(-263.277 -138.563)" fill="#fea832" fill-rule="evenodd"/>
        <path id="Trazado_1055353" data-name="Trazado 1055353" d="M308.291,354.544h32.047a4.443,4.443,0,0,0,4.431-4.431V347.8a4.443,4.443,0,0,0-4.431-4.431H308.291a4.443,4.443,0,0,0-4.431,4.431v2.312A4.444,4.444,0,0,0,308.291,354.544Z" transform="translate(-242.972 -273.376)" fill="#ffd400" fill-rule="evenodd"/>
        <path id="Trazado_1055354" data-name="Trazado 1055354" d="M195.745,285.553a5.292,5.292,0,1,0-5.295-5.289A5.3,5.3,0,0,0,195.745,285.553Z" transform="translate(-153.232 -219.252)" fill="#0593fc" fill-rule="evenodd"/>
        <path id="Trazado_1055355" data-name="Trazado 1055355" d="M308.291,408.094h32.047a4.443,4.443,0,0,0,4.431-4.431v-2.312a4.443,4.443,0,0,0-4.431-4.431H308.291a4.443,4.443,0,0,0-4.431,4.431v2.313A4.446,4.446,0,0,0,308.291,408.094Z" transform="translate(-242.972 -315.75)" fill="#ffd400" fill-rule="evenodd"/>
        <path id="Trazado_1055356" data-name="Trazado 1055356" d="M308.291,461.634h32.047a4.442,4.442,0,0,0,4.431-4.425v-2.319a4.443,4.443,0,0,0-4.431-4.431H308.291a4.443,4.443,0,0,0-4.431,4.431v2.319A4.443,4.443,0,0,0,308.291,461.634Z" transform="translate(-242.972 -358.116)" fill="#ffd400" fill-rule="evenodd"/>
        <g id="Grupo_1210596" data-name="Grupo 1210596" transform="translate(60.888 69.994)">
          <path id="Trazado_1055357" data-name="Trazado 1055357" d="M308.291,354.544h3.076a4.443,4.443,0,0,1-4.431-4.431V347.8a4.443,4.443,0,0,1,4.431-4.431h-3.076a4.443,4.443,0,0,0-4.431,4.431v2.312A4.444,4.444,0,0,0,308.291,354.544Z" transform="translate(-303.86 -343.37)" fill="#e6bf00" fill-rule="evenodd"/>
          <path id="Trazado_1055358" data-name="Trazado 1055358" d="M308.291,408.094h3.076a4.443,4.443,0,0,1-4.431-4.431v-2.312a4.443,4.443,0,0,1,4.431-4.431h-3.076a4.443,4.443,0,0,0-4.431,4.431v2.313A4.446,4.446,0,0,0,308.291,408.094Z" transform="translate(-303.86 -385.744)" fill="#e6bf00" fill-rule="evenodd"/>
          <path id="Trazado_1055359" data-name="Trazado 1055359" d="M308.291,461.634h3.076a4.442,4.442,0,0,1-4.431-4.425v-2.319a4.443,4.443,0,0,1,4.431-4.431h-3.076a4.443,4.443,0,0,0-4.431,4.431v2.319A4.443,4.443,0,0,0,308.291,461.634Z" transform="translate(-303.86 -428.11)" fill="#e6bf00" fill-rule="evenodd"/>
        </g>
        <path id="Trazado_1055360" data-name="Trazado 1055360" d="M332.6,188.09a15.1,15.1,0,0,1,13.566-15.023,14.515,14.515,0,0,0-1.538-.077,15.1,15.1,0,1,0,0,30.2,14.515,14.515,0,0,0,1.538-.077A15.089,15.089,0,0,1,332.6,188.09Z" transform="translate(-263.277 -138.556)" fill="#e5972d" fill-rule="evenodd"/>
        <path id="Trazado_1055361" data-name="Trazado 1055361" d="M85.571,133.63c.094,0,.19.006.284.013-.094.006-.19.013-.284.017Zm-3.335.4a34.79,34.79,0,0,0-19.819,10.542l-1.935-1.941a34.661,34.661,0,0,1,21.753-9ZM60.244,147.125a34.608,34.608,0,0,0-7.23,19.625h-3.9A34.642,34.642,0,0,1,58.12,145Zm-7.23,22.966a34.589,34.589,0,0,0,7.23,19.629l-2.125,2.125a34.673,34.673,0,0,1-9.01-21.753Zm9.4,22.173a34.754,34.754,0,0,0,19.819,10.542v.409A34.713,34.713,0,0,1,60.48,194.2Zm23.156,10.915c.094.006.19.013.284.017-.094.006-.19.013-.284.017Z" transform="translate(-41.39 -107.41)" fill="#d4dde3" fill-rule="evenodd"/>
        <path id="Trazado_1055362" data-name="Trazado 1055362" d="M200.012,58.366V48.25H197.48V58.52C198.319,58.443,199.166,58.4,200.012,58.366Z" transform="translate(-158.794 -39.85)" fill="#0560a6" fill-rule="evenodd"/>
        <path id="Trazado_1055363" data-name="Trazado 1055363" d="M159.312,15.123V9.277A1.279,1.279,0,0,1,160.583,8h-2.532a1.279,1.279,0,0,0-1.271,1.277v5.846a1.279,1.279,0,0,0,1.271,1.277h2.532A1.279,1.279,0,0,1,159.312,15.123Z" transform="translate(-126.589 -8)" fill="#0584e3" fill-rule="evenodd"/>
      </g>
      <path id="Trazado_1055364" data-name="Trazado 1055364" d="M55.263,62.687a6.972,6.972,0,0,0-5.289-6.756V41.49a1.672,1.672,0,1,0-3.343,0v14.44a6.982,6.982,0,0,0-5.084,5.084H29.426a1.672,1.672,0,0,0,0,3.343H41.547a6.96,6.96,0,0,0,13.716-1.672ZM48.3,66.3a3.617,3.617,0,1,1,3.617-3.617A3.621,3.621,0,0,1,48.3,66.3Zm38.834,1.68a16.773,16.773,0,1,0-16.776-16.77A16.789,16.789,0,0,0,87.137,67.983Zm0-30.2A13.429,13.429,0,1,1,73.7,51.216,13.444,13.444,0,0,1,87.137,37.784ZM103.163,70H98.816A22.122,22.122,0,0,0,78.8,30.717a44.543,44.543,0,0,0-3.817-3.254l3.625-6.282a2.707,2.707,0,0,0-.983-3.686L72.78,14.7a2.7,2.7,0,0,0-3.686.989l-3.621,6.267a43.767,43.767,0,0,0-11.679-3.116V11.746h5.552A2.953,2.953,0,0,0,62.295,8.8V2.953A2.949,2.949,0,0,0,59.346.01H37.258a2.95,2.95,0,0,0-2.949,2.943V8.8a2.953,2.953,0,0,0,2.949,2.949H42.81v7.092a43.821,43.821,0,0,0-11.679,3.114l-3.619-6.267a2.7,2.7,0,0,0-3.684-.989L18.98,17.5A2.7,2.7,0,0,0,18,21.179l3.625,6.28a44.8,44.8,0,0,0-4.562,3.982,44.191,44.191,0,0,0,48.524,71.912,6.112,6.112,0,0,0,5.524,3.513h32.053a6.1,6.1,0,0,0,6.1-6.1V98.45a6.088,6.088,0,0,0-1.922-4.441,6.084,6.084,0,0,0,1.905-4.42V87.276a6.082,6.082,0,0,0-1.9-4.42,6.082,6.082,0,0,0,1.922-4.437V76.1a6.108,6.108,0,0,0-6.1-6.1Zm0,3.343a2.76,2.76,0,0,1,2.755,2.759v2.319a2.758,2.758,0,0,1-2.755,2.755h-2.855V79a1.672,1.672,0,1,0-3.343,0v2.175H92.641V79A1.672,1.672,0,1,0,89.3,79v2.175H84.973V79a1.672,1.672,0,0,0-3.343,0v2.175H77.3V79a1.672,1.672,0,0,0-3.343,0v2.175H71.106a2.76,2.76,0,0,1-2.759-2.755V76.1a2.762,2.762,0,0,1,2.759-2.759ZM48.3,90.991a1.671,1.671,0,0,0-1.672,1.672v3.143a33.026,33.026,0,0,1-20.555-8.53l2.21-2.21A1.671,1.671,0,1,0,25.924,82.7l-2.21,2.21a33.026,33.026,0,0,1-8.53-20.555h3.143a1.672,1.672,0,0,0,0-3.343H15.181a33.046,33.046,0,0,1,8.532-20.558l2.208,2.212a1.671,1.671,0,1,0,2.367-2.36l-2.21-2.214a33.035,33.035,0,0,1,20.553-8.528V32.71a1.672,1.672,0,1,0,3.343,0V29.567a32.982,32.982,0,0,1,19.846,7.887A22.1,22.1,0,0,0,75.454,70H71.108a6.11,6.11,0,0,0-6.1,6.1v2.319a6.078,6.078,0,0,0,1.922,4.435,6.084,6.084,0,0,0-1.905,4.42v2.312A6.126,6.126,0,0,0,65.24,91.2,33.051,33.051,0,0,1,49.971,95.8V92.665A1.667,1.667,0,0,0,48.3,90.991Zm51.993,1.35V90.173a1.672,1.672,0,1,0-3.343,0v2.168H92.634V90.173a1.672,1.672,0,1,0-3.343,0v2.168H84.977V90.173a1.672,1.672,0,0,0-3.343,0v2.168H77.315V90.173a1.672,1.672,0,1,0-3.343,0v2.168H71.117a2.753,2.753,0,0,1-2.331-1.294c-.019-.033-.035-.065-.056-.1a.181.181,0,0,1-.015-.021,2.74,2.74,0,0,1-.353-1.344V87.274a2.758,2.758,0,0,1,2.755-2.755h32.024a2.758,2.758,0,0,1,2.755,2.755v2.312a2.758,2.758,0,0,1-2.755,2.755Zm5.62-41.126A18.784,18.784,0,1,1,87.135,32.43a18.8,18.8,0,0,1,18.781,18.786Zm-34.249-33.3,3.725,2.152-3.156,5.468q-1.813-1.174-3.723-2.158ZM37.651,3.351h21.3V8.4h-21.3Zm8.5,8.394h4.3v6.808c-.714-.033-1.432-.052-2.15-.052s-1.436.017-2.15.052V11.746Zm-24.94,8.321,3.725-2.152,3.154,5.46q-1.91.983-3.723,2.158ZM7.461,62.687A40.9,40.9,0,0,1,44.553,22.018,1.352,1.352,0,0,0,44.713,22q1.775-.157,3.59-.159c1.2,0,2.386.054,3.563.154a1.694,1.694,0,0,0,.253.021A40.5,40.5,0,0,1,65.3,25.531l.025.015a1.716,1.716,0,0,0,.317.142,40.617,40.617,0,0,1,6.086,3.535,1.486,1.486,0,0,0,.186.131,41.3,41.3,0,0,1,3.7,2.97A22.382,22.382,0,0,0,72.091,35,36.467,36.467,0,0,0,22.68,36.7a1.685,1.685,0,0,0-.19.161,1.962,1.962,0,0,0-.163.19,36.438,36.438,0,0,0,.019,51.271,1.624,1.624,0,0,0,.309.309,36.469,36.469,0,0,0,44.079,5.558A6.078,6.078,0,0,0,65,98.444v1.511A40.86,40.86,0,0,1,7.461,62.687Zm98.455,38.083a2.758,2.758,0,0,1-2.755,2.755h-2.853v-2.168a1.672,1.672,0,1,0-3.343,0v2.168H92.641v-2.168a1.672,1.672,0,1,0-3.343,0v2.168H84.973v-2.168a1.672,1.672,0,1,0-3.343,0v2.168H77.3v-2.168a1.672,1.672,0,0,0-3.343,0v2.168H71.106a2.758,2.758,0,0,1-2.749-2.55.554.554,0,0,0,0-.061c0-.048-.006-.094-.006-.142V98.452a2.762,2.762,0,0,1,2.759-2.759h32.053a2.76,2.76,0,0,1,2.755,2.759v2.317ZM82.466,48.037A4.853,4.853,0,0,1,85.7,43.467V42.02a1.672,1.672,0,0,1,3.343,0V43.3a4.839,4.839,0,0,1,2.2,1.1,1.671,1.671,0,1,1-2.212,2.5,1.48,1.48,0,0,0-.983-.374H87.31a1.5,1.5,0,0,0-.061,3.005,1.689,1.689,0,0,1,.273.035,4.845,4.845,0,0,1,1.517,9.191v1.645a1.672,1.672,0,1,1-3.343,0V59.2a4.822,4.822,0,0,1-2.665-1.173,1.671,1.671,0,1,1,2.212-2.5,1.481,1.481,0,0,0,.983.369h.735a1.5,1.5,0,0,0,.071-3.005,1.51,1.51,0,0,1-.24-.031,4.83,4.83,0,0,1-4.326-4.819Z" transform="translate(-4.12 -0.01)"/>
    </g>
    <g id="signature_3896535" transform="translate(9791.384 5081.229)">
      <g id="Grupo_1210613" data-name="Grupo 1210613" transform="translate(1.39 1.39)">
        <g id="Grupo_1210598" data-name="Grupo 1210598" transform="translate(41.708 5.561)">
          <path id="Trazado_1055365" data-name="Trazado 1055365" d="M42.122,10.561H31L33.085,5h6.951L41,7.558Z" transform="translate(-31 -5)" fill="#d3a06c"/>
        </g>
        <g id="Grupo_1210599" data-name="Grupo 1210599" transform="translate(43.793)">
          <path id="Trazado_1055366" data-name="Trazado 1055366" d="M34.1,2.307a2,2,0,0,1,3.754,0l1.6,4.254H32.5Z" transform="translate(-32.5 -1)" fill="#5b6570"/>
        </g>
        <g id="Grupo_1210600" data-name="Grupo 1210600">
          <path id="Trazado_1055367" data-name="Trazado 1055367" d="M3.781,1H48.269a2,2,0,0,0-1.877,1.307l-1.6,4.254-2.085,5.561H6.561V67.733H40.622a18.9,18.9,0,0,0,4.866,8.342H44.1a1.394,1.394,0,0,0-1.39,1.39v5.561a1.394,1.394,0,0,0,1.39,1.39H3.781A2.789,2.789,0,0,1,1,81.635V3.781A2.789,2.789,0,0,1,3.781,1ZM28.805,77.465V74.684a1.394,1.394,0,0,0-1.39-1.39H19.073a1.394,1.394,0,0,0-1.39,1.39v2.781a1.394,1.394,0,0,0,1.39,1.39h8.342A1.394,1.394,0,0,0,28.805,77.465Z" transform="translate(-1 -1)" fill="#969faa"/>
        </g>
        <g id="Grupo_1210601" data-name="Grupo 1210601" transform="translate(16.683 72.294)">
          <path id="Trazado_1055368" data-name="Trazado 1055368" d="M24.122,54.39v2.781a1.394,1.394,0,0,1-1.39,1.39H14.39A1.394,1.394,0,0,1,13,57.171V54.39A1.394,1.394,0,0,1,14.39,53h8.342A1.394,1.394,0,0,1,24.122,54.39Z" transform="translate(-13 -53)" fill="#656d78"/>
        </g>
        <g id="Grupo_1210602" data-name="Grupo 1210602" transform="translate(5.561 11.122)">
          <path id="Trazado_1055369" data-name="Trazado 1055369" d="M41.147,14.561V9H5V64.611H39.061a18.883,18.883,0,0,1-.7-5.088V46.537a4.126,4.126,0,0,1,2.781-3.921V25.683H10.561V14.561Z" transform="translate(-5 -9)" fill="#e6e9ed"/>
        </g>
        <g id="Grupo_1210603" data-name="Grupo 1210603" transform="translate(11.122 16.683)">
          <path id="Trazado_1055370" data-name="Trazado 1055370" d="M9,13H39.586V24.122H9Z" transform="translate(-9 -13)" fill="#ff4646"/>
        </g>
        <g id="Grupo_1210604" data-name="Grupo 1210604" transform="translate(41.708 75.074)">
          <path id="Trazado_1055371" data-name="Trazado 1055371" d="M58.805,56.39v5.561a1.394,1.394,0,0,1-1.39,1.39H32.39A1.394,1.394,0,0,1,31,61.951V56.39A1.394,1.394,0,0,1,32.39,55H57.415A1.394,1.394,0,0,1,58.805,56.39Z" transform="translate(-31 -55)" fill="#ff4646"/>
        </g>
        <g id="Grupo_1210605" data-name="Grupo 1210605" transform="translate(58.391 44.488)">
          <path id="Trazado_1055372" data-name="Trazado 1055372" d="M48.561,38.561v5.561A2.789,2.789,0,0,1,45.781,46.9,2.8,2.8,0,0,1,43,44.122V35.781A2.789,2.789,0,0,1,45.781,33a2.8,2.8,0,0,1,2.781,2.781Z" transform="translate(-43 -33)" fill="#f5e0cd"/>
        </g>
        <g id="Grupo_1210606" data-name="Grupo 1210606" transform="translate(63.952 47.269)">
          <path id="Trazado_1055373" data-name="Trazado 1055373" d="M52.561,37.781v5.561a2.789,2.789,0,0,1-2.781,2.781A2.8,2.8,0,0,1,47,43.342V37.781A2.789,2.789,0,0,1,49.781,35a2.8,2.8,0,0,1,2.781,2.781Z" transform="translate(-47 -35)" fill="#f5e0cd"/>
        </g>
        <g id="Grupo_1210607" data-name="Grupo 1210607" transform="translate(52.83 44.488)">
          <path id="Trazado_1055374" data-name="Trazado 1055374" d="M44.561,35.781v8.342A2.8,2.8,0,0,1,41.781,46.9,2.789,2.789,0,0,1,39,44.122V35.781A2.8,2.8,0,0,1,41.781,33,2.789,2.789,0,0,1,44.561,35.781Z" transform="translate(-39 -33)" fill="#f5e0cd"/>
        </g>
        <g id="Grupo_1210608" data-name="Grupo 1210608" transform="translate(38.927 44.488)">
          <path id="Trazado_1055375" data-name="Trazado 1055375" d="M56.805,63.586H34.561A19.01,19.01,0,0,1,29,50.156V37.171a4.126,4.126,0,0,1,2.781-3.921,3.854,3.854,0,0,1,1.39-.25h8.342a1.394,1.394,0,0,1,1.39,1.39v9.732A2.789,2.789,0,0,0,45.683,46.9a2.8,2.8,0,0,0,2.781-2.781A2.8,2.8,0,0,0,51.244,46.9a2.789,2.789,0,0,0,2.781-2.781A2.8,2.8,0,0,0,56.805,46.9a2.789,2.789,0,0,0,2.781-2.781V54.4A16.6,16.6,0,0,1,56.805,63.586Z" transform="translate(-29 -33)" fill="#f5e0cd"/>
        </g>
        <g id="Grupo_1210609" data-name="Grupo 1210609" transform="translate(47.269 11.122)">
          <path id="Trazado_1055376" data-name="Trazado 1055376" d="M39.171,42.366H35V9h5.561V43.757A1.394,1.394,0,0,0,39.171,42.366Z" transform="translate(-35 -9)" fill="#ff4646"/>
        </g>
        <g id="Grupo_1210610" data-name="Grupo 1210610" transform="translate(41.708 11.122)">
          <path id="Trazado_1055377" data-name="Trazado 1055377" d="M36.561,9V42.366H32.39a3.854,3.854,0,0,0-1.39.25V9Z" transform="translate(-31 -9)" fill="#ffd400"/>
        </g>
        <g id="Grupo_1210611" data-name="Grupo 1210611" transform="translate(58.391 8.342)">
          <path id="Trazado_1055378" data-name="Trazado 1055378" d="M51.342,7A8.342,8.342,0,1,1,43,15.342,8.348,8.348,0,0,1,51.342,7Zm2.781,8.342a2.781,2.781,0,1,0-2.781,2.781A2.789,2.789,0,0,0,54.122,15.342Z" transform="translate(-43 -7)" fill="#ffeaa7"/>
        </g>
        <g id="Grupo_1210612" data-name="Grupo 1210612" transform="translate(51.704 0)">
          <path id="Trazado_1055379" data-name="Trazado 1055379" d="M69.9,14.9v5.561h-.083a4.043,4.043,0,0,0-3.74,2.5c-.014.014-.014.028-.028.056a4.071,4.071,0,0,0,.876,4.435l.056.056-3.934,3.934-.056-.056a4.071,4.071,0,0,0-4.435-.876c-.028.014-.042.014-.056.028a4.043,4.043,0,0,0-2.5,3.74v.083H50.438v-.083a4.043,4.043,0,0,0-2.5-3.74c-.014-.014-.028-.014-.056-.028a4.071,4.071,0,0,0-4.435.876l-.056.056-4.073-4.073V12.122l-1.126-3,5.2-5.2.056.056a4.071,4.071,0,0,0,4.435.876c.028-.014.042-.014.056-.028a4.043,4.043,0,0,0,2.5-3.74V1H56v.083a4.043,4.043,0,0,0,2.5,3.74c.014.014.028.014.056.028a4.071,4.071,0,0,0,4.435-.876l.056-.056,3.934,3.934-.056.056a4.071,4.071,0,0,0-.876,4.435c.014.028.014.042.028.056a4.043,4.043,0,0,0,3.74,2.5ZM61.56,17.683a8.342,8.342,0,1,0-8.342,8.342A8.348,8.348,0,0,0,61.56,17.683Z" transform="translate(-38.19 -1)" fill="#ffd400"/>
        </g>
      </g>
      <g id="Grupo_1210614" data-name="Grupo 1210614" transform="translate(0 0)">
        <path id="Trazado_1055380" data-name="Trazado 1055380" d="M42.781,54.342a5.567,5.567,0,0,1,5.561-5.561h2.781V46H48.342A8.35,8.35,0,0,0,40,54.342Z" transform="translate(15.61 17.952)"/>
        <path id="Trazado_1055381" data-name="Trazado 1055381" d="M51.732,6a9.732,9.732,0,1,0,9.732,9.732A9.743,9.743,0,0,0,51.732,6Zm0,16.683a6.951,6.951,0,1,1,6.951-6.951A6.959,6.959,0,0,1,51.732,22.683Z" transform="translate(16.391 2.342)"/>
        <path id="Trazado_1055382" data-name="Trazado 1055382" d="M50.171,10a4.171,4.171,0,1,0,4.171,4.171A4.176,4.176,0,0,0,50.171,10Zm0,5.561a1.39,1.39,0,1,1,1.39-1.39A1.393,1.393,0,0,1,50.171,15.561Z" transform="translate(17.952 3.903)"/>
        <path id="Trazado_1055383" data-name="Trazado 1055383" d="M86.117,13.9h-1.39A2.725,2.725,0,0,1,82.874,9.22l.972-.983-4.91-4.909L77.9,2.4l-.983.983a2.723,2.723,0,0,1-4.62-1.994V0H65.342l-1.39.079V1.47A2.725,2.725,0,0,1,59.27,3.323l-.984-.973L53.636,7,51.839,2.2A3.408,3.408,0,0,0,48.659,0H4.171A4.176,4.176,0,0,0,0,4.171V82.026A4.176,4.176,0,0,0,4.171,86.2H69.513a2.783,2.783,0,0,0,2.781-2.781V77.855a2.777,2.777,0,0,0-1.87-2.615,17.871,17.871,0,0,0,1.87-7.958V51.44a4.157,4.157,0,0,0-5.722-3.865,4.134,4.134,0,0,0-6.79-2A4.137,4.137,0,0,0,57,44.488a4.183,4.183,0,0,0-1.39.238V31.121l1.7,1.7,1.04.927.983-.983a2.723,2.723,0,0,1,4.62,1.992v1.39H70.9l1.39-.079v-1.39a2.724,2.724,0,0,1,4.677-1.859l.983.983,4.916-4.916.927-1.039-.983-.983a2.723,2.723,0,0,1,1.992-4.62H86.2V15.293ZM59.781,60.087a4.107,4.107,0,0,0,5.561,0,4.043,4.043,0,0,0,4.171.829v6.366a15.1,15.1,0,0,1-2.166,7.792H46.492a17.463,17.463,0,0,1-4.784-12.036V50.05a2.783,2.783,0,0,1,2.781-2.781H52.83a4.749,4.749,0,0,1-3,4.429L44.8,53.711l1.727,1.731a11.956,11.956,0,0,1,3.524,8.51H52.83a14.7,14.7,0,0,0-3.186-9.183l1.221-.489a7.619,7.619,0,0,0,1.967-1.154V57a4.152,4.152,0,0,0,6.95,3.086ZM38.927,50.05V63.039a20.606,20.606,0,0,0,.345,3.694H8.342V13.9H41.708v2.781H11.122v13.9H41.708V45.261a5.543,5.543,0,0,0-2.781,4.788Zm7.22-41.708h5.024l1.043,2.781H45.1ZM47.269,13.9V44.488H44.488V13.9Zm-5.561,13.9H13.9V19.464H41.708Zm8.342,16.683V13.9H52.83V44.488ZM49.236,3.181l.893,2.38H47.19l.893-2.382a.643.643,0,0,1,1.154,0ZM41.708,77.855v5.561H4.171a1.392,1.392,0,0,1-1.39-1.39V4.171a1.393,1.393,0,0,1,1.39-1.39H45.263l-3.128,8.342H5.561V69.513H39.994a20.127,20.127,0,0,0,3.159,5.918A2.774,2.774,0,0,0,41.708,77.855Zm27.805,5.561H44.488V77.855H69.513ZM68.123,50.05a1.392,1.392,0,0,1,1.39,1.39V57a1.39,1.39,0,1,1-2.781,0V51.44A1.392,1.392,0,0,1,68.123,50.05Zm-5.561-2.781a1.392,1.392,0,0,1,1.39,1.39V57a1.39,1.39,0,1,1-2.781,0V48.659A1.392,1.392,0,0,1,62.562,47.269Zm-5.561,0a1.392,1.392,0,0,1,1.39,1.39V57a1.39,1.39,0,1,1-2.781,0V48.659A1.392,1.392,0,0,1,57,47.269ZM83.416,19.622a5.516,5.516,0,0,0-3.377,8.161l-2.2,2.2a5.478,5.478,0,0,0-4.963-.335,5.4,5.4,0,0,0-3.195,3.719H66.574a5.517,5.517,0,0,0-8.162-3.377l-2.8-2.8V12.261l-.9-2.4,3.7-3.7A5.484,5.484,0,0,0,63.37,6.5a5.4,5.4,0,0,0,3.195-3.719h3.107a5.465,5.465,0,0,0,3.249,3.737,5.428,5.428,0,0,0,4.912-.36l2.2,2.2a5.482,5.482,0,0,0-.335,4.963,5.4,5.4,0,0,0,3.719,3.195Z" transform="translate(0 0)"/>
        <path id="Trazado_1055384" data-name="Trazado 1055384" d="M44,28h2.781v2.781H44Z" transform="translate(17.172 10.927)"/>
        <path id="Trazado_1055385" data-name="Trazado 1055385" d="M48,28h2.781v2.781H48Z" transform="translate(18.733 10.927)"/>
        <path id="Trazado_1055386" data-name="Trazado 1055386" d="M52,28h2.781v2.781H52Z" transform="translate(20.294 10.927)"/>
        <path id="Trazado_1055387" data-name="Trazado 1055387" d="M23.122,52H14.781A2.783,2.783,0,0,0,12,54.781v2.781a2.783,2.783,0,0,0,2.781,2.781h8.342A2.783,2.783,0,0,0,25.9,57.561V54.781A2.783,2.783,0,0,0,23.122,52Zm-8.342,5.561V54.781h8.342v2.781Z" transform="translate(4.683 20.294)"/>
        <path id="Trazado_1055388" data-name="Trazado 1055388" d="M12,4H23.122V6.781H12Z" transform="translate(4.683 1.561)"/>
        <path id="Trazado_1055389" data-name="Trazado 1055389" d="M22,4h2.781V6.781H22Z" transform="translate(8.586 1.561)"/>
        <path id="Trazado_1055390" data-name="Trazado 1055390" d="M8,24h8.342v2.781H8Z" transform="translate(3.122 9.366)"/>
        <path id="Trazado_1055391" data-name="Trazado 1055391" d="M16,24H32.683v2.781H16Z" transform="translate(6.244 9.366)"/>
        <path id="Trazado_1055392" data-name="Trazado 1055392" d="M8,28H24.683v2.781H8Z" transform="translate(3.122 10.927)"/>
        <path id="Trazado_1055393" data-name="Trazado 1055393" d="M27.464,44.794a.339.339,0,0,1-.621.146L23.7,38.648a3.378,3.378,0,0,0-6.3.692l-.663,2.651a.479.479,0,0,1-.886.033l-1.989-5.97A3.007,3.007,0,0,0,8,37.006V47.9h2.781v-10.9a.233.233,0,0,1,.439-.071l1.989,5.97a3.243,3.243,0,0,0,6.223-.239l.663-2.653a.621.621,0,0,1,1.114-.122l3.146,6.292a3.109,3.109,0,0,0,5.889-1.389V34H27.464Z" transform="translate(3.122 13.269)"/>
      </g>
    </g>
  </g>
</svg>
