<svg xmlns="http://www.w3.org/2000/svg" xmlns:xlink="http://www.w3.org/1999/xlink" width="295" height="255.045" viewBox="0 0 295 255.045">
  <defs>
    <clipPath id="clip-path">
      <path id="path2046" d="M0-682.665H98.075v98.075H0Z" transform="translate(0 682.665)"/>
    </clipPath>
  </defs>
  <g id="Grupo_1210664" data-name="Grupo 1210664" transform="translate(-9971 -4957.252)">
    <path id="Rectángulo_420798" data-name="Rectángulo 420798" d="M8,0H287a8,8,0,0,1,8,8V255.045a0,0,0,0,1,0,0H0a0,0,0,0,1,0,0V8A8,8,0,0,1,8,0Z" transform="translate(9971 4957.252)" fill="#684fbc"/>
    <g id="g2040" transform="translate(10013.686 5680.106)">
      <g id="g2042" transform="translate(0 -682.665)">
        <g id="g2044" clip-path="url(#clip-path)">
          <g id="g2050" transform="translate(1.437 1.437)">
            <path id="path2052" d="M-279.351-567.463h-43.035a3.831,3.831,0,0,1-3.831-3.831v-87.54a3.831,3.831,0,0,1,3.831-3.831h43.035a3.831,3.831,0,0,1,3.831,3.831v87.54a3.831,3.831,0,0,1-3.831,3.831" transform="translate(326.217 662.665)" fill="#e4f6ff"/>
          </g>
          <path id="path2054" d="M53.1-513.164H91.413v-32.9H53.1Z" transform="translate(-45.471 565.684)" fill="#a2f4c1"/>
          <g id="g2056" transform="translate(44.781 1.437)">
            <path id="path2058" d="M-20.761,0h-3.483a3.87,3.87,0,0,1,3.87,3.87V91.332a3.87,3.87,0,0,1-3.87,3.87h3.483a3.87,3.87,0,0,0,3.87-3.87V3.87A3.87,3.87,0,0,0-20.761,0" transform="translate(24.244)" fill="#d3effb"/>
          </g>
          <g id="g2060" transform="translate(1.437 1.437)">
            <path id="path2062" d="M-302.186-69.2h-50.7v-7.779a3.831,3.831,0,0,1,3.831-3.831h43.035a3.831,3.831,0,0,1,3.831,3.831Z" transform="translate(352.883 80.813)" fill="#90d8f9"/>
          </g>
          <g id="g2064" transform="translate(44.781 1.437)">
            <path id="path2066" d="M-20.761,0h-3.483a3.87,3.87,0,0,1,3.87,3.87v7.74h3.483V3.87A3.87,3.87,0,0,0-20.761,0" transform="translate(24.244)" fill="#75cef9"/>
          </g>
          <g id="g2068" transform="translate(26.601 34.138)">
            <path id="path2070" d="M-262.971-81.8v-8.093a5.589,5.589,0,0,0-5.36-5.627A5.515,5.515,0,0,0-274-90v12.868h-23.782a5.589,5.589,0,0,0-5.627,5.36,5.515,5.515,0,0,0,5.513,5.67h-3.562a5.589,5.589,0,0,0-5.627,5.36,5.515,5.515,0,0,0,5.513,5.67h3.677a5.515,5.515,0,0,0-5.513,5.67,5.589,5.589,0,0,0,5.627,5.36h3.562a5.515,5.515,0,0,0-5.513,5.67,5.59,5.59,0,0,0,5.627,5.36h25.988a18.384,18.384,0,0,0,8.651-2.163l9.732-5.191v-23.9l-9.894-9.619a11.029,11.029,0,0,1-3.341-7.908" transform="translate(307.089 95.519)" fill="#f1d0a5"/>
          </g>
          <g id="g2072" transform="translate(63.56 34.138)">
            <path id="path2074" d="M-121.554-186.261l-9.891-9.616a11.035,11.035,0,0,1-3.343-7.912v-8.085a5.594,5.594,0,0,0-5.249-5.629,5.525,5.525,0,0,0-1.907.244.006.006,0,0,0,0,.011,5.642,5.642,0,0,1,3.856,5.369v10.042a11.035,11.035,0,0,0,3.343,7.912l8.72,8.478a3.87,3.87,0,0,1,1.172,2.775v22.061a.006.006,0,0,0,.008.005l3.288-1.753a.006.006,0,0,0,0,0v-23.891a.006.006,0,0,0,0,0" transform="translate(141.946 217.509)" fill="#f1b986"/>
          </g>
          <path id="path2076" d="M584.377-235.717h12.684v-37.868H584.377Z" transform="translate(-500.422 332.355)" fill="#f76c82"/>
          <g id="g2078" transform="translate(83.955 58.771)">
            <path id="path2080" d="M-57.151,0V32.837a1.935,1.935,0,0,1-1.935,1.935h-7.653v3.1h12.684V0Z" transform="translate(66.738)" fill="#eb5463"/>
          </g>
          <g id="g2082" transform="translate(1.437 13.047)">
            <path id="path2084" d="M-302.186,0h-50.7" transform="translate(352.883)" fill="none" stroke="#000" stroke-linecap="round" stroke-linejoin="round" stroke-miterlimit="10" stroke-width="2"/>
          </g>
          <g id="g2086" transform="translate(1.437 29.403)">
            <path id="path2088" d="M0,0V63.4a3.83,3.83,0,0,0,3.831,3.831H38.148" fill="none" stroke="#000" stroke-linecap="round" stroke-linejoin="round" stroke-miterlimit="10" stroke-width="2"/>
          </g>
          <g id="g2090" transform="translate(1.437 1.437)">
            <path id="path2092" d="M-302.183-304.489v-47.252a3.83,3.83,0,0,0-3.831-3.831h-43.034a3.83,3.83,0,0,0-3.831,3.831v17.431" transform="translate(352.879 355.572)" fill="none" stroke="#000" stroke-linecap="round" stroke-linejoin="round" stroke-miterlimit="10" stroke-width="2"/>
          </g>
          <g id="g2094" transform="translate(7.629 19.626)">
            <path id="path2096" d="M-124.083,0H-144.9V32.9h38.313V0h-10.786" transform="translate(144.9)" fill="none" stroke="#000" stroke-linecap="round" stroke-linejoin="round" stroke-miterlimit="10" stroke-width="2"/>
          </g>
          <g id="g2098" transform="translate(7.629 58.713)">
            <path id="path2100" d="M0,0H14.319" fill="none" stroke="#000" stroke-linecap="round" stroke-linejoin="round" stroke-miterlimit="10" stroke-width="2"/>
          </g>
          <g id="g2102" transform="translate(7.629 66.453)">
            <path id="path2104" d="M0,0H14.319" fill="none" stroke="#000" stroke-linecap="round" stroke-linejoin="round" stroke-miterlimit="10" stroke-width="2"/>
          </g>
          <g id="g2106" transform="translate(7.629 74.193)">
            <path id="path2108" d="M0,0H14.319" fill="none" stroke="#000" stroke-linecap="round" stroke-linejoin="round" stroke-miterlimit="10" stroke-width="2"/>
          </g>
          <g id="g2110" transform="translate(7.629 7.242)">
            <path id="path2112" d="M0,0H3.87" fill="none" stroke="#000" stroke-linecap="round" stroke-linejoin="round" stroke-miterlimit="10" stroke-width="2"/>
          </g>
          <g id="g2114" transform="translate(7.629 19.626)">
            <path id="path2116" d="M0,0,38.313,32.9" fill="none" stroke="#000" stroke-linecap="round" stroke-linejoin="round" stroke-miterlimit="10" stroke-width="2"/>
          </g>
          <g id="g2118" transform="translate(7.629 19.626)">
            <path id="path2120" d="M-228.369,0l-38.313,32.9" transform="translate(266.682)" fill="none" stroke="#000" stroke-linecap="round" stroke-linejoin="round" stroke-miterlimit="10" stroke-width="2"/>
          </g>
          <g id="g2122" transform="translate(26.601 34.138)">
            <path id="path2124" d="M-188.04-372.541h7.424a18.381,18.381,0,0,0,8.651-2.163l9.732-5.19v-23.9l-9.894-9.62a11.029,11.029,0,0,1-3.341-7.908v-8.093a5.589,5.589,0,0,0-5.36-5.627,5.515,5.515,0,0,0-5.67,5.513v12.868h-23.782a5.59,5.59,0,0,0-5.627,5.36,5.515,5.515,0,0,0,5.513,5.67h-3.562a5.59,5.59,0,0,0-5.627,5.36,5.515,5.515,0,0,0,5.513,5.67h3.676a5.515,5.515,0,0,0-5.513,5.67,5.59,5.59,0,0,0,5.627,5.36h3.562a5.515,5.515,0,0,0-5.513,5.67,5.59,5.59,0,0,0,5.627,5.36h11.848" transform="translate(219.588 435.042)" fill="none" stroke="#000" stroke-linecap="round" stroke-linejoin="round" stroke-miterlimit="10" stroke-width="2"/>
          </g>
          <g id="g2126" transform="translate(35.793 63.55)">
            <path id="path2128" d="M0,0H4.412" fill="none" stroke="#000" stroke-linecap="round" stroke-linejoin="round" stroke-miterlimit="10" stroke-width="2"/>
          </g>
          <g id="g2130" transform="translate(35.793 74.58)">
            <path id="path2132" d="M0,0H4.412" fill="none" stroke="#000" stroke-linecap="round" stroke-linejoin="round" stroke-miterlimit="10" stroke-width="2"/>
          </g>
          <path id="path2134" d="M584.377-235.717h12.684v-37.868H584.377Z" transform="translate(-500.422 332.355)" fill="none" stroke="#000" stroke-linecap="round" stroke-linejoin="round" stroke-miterlimit="10" stroke-width="2"/>
        </g>
      </g>
    </g>
    <g id="web-design_18075365" transform="translate(10125.969 5074.746)">
      <g id="Grupo_1210616" data-name="Grupo 1210616" transform="translate(2.279 9.485)">
        <path id="Trazado_1055394" data-name="Trazado 1055394" d="M79.808,87.294,18.54,93.843a8.844,8.844,0,0,1-9.732-7.858L2.732,29.24,2.077,23.1a8.867,8.867,0,0,1,7.858-9.747L71.2,6.807a8.843,8.843,0,0,1,9.732,7.858L81.59,20.8l6.076,56.744A8.858,8.858,0,0,1,79.808,87.294Z" transform="translate(-2.027 -6.757)" fill="#fdcd56"/>
      </g>
      <g id="Grupo_1210617" data-name="Grupo 1210617" transform="translate(1.544 8.749)">
        <path id="Trazado_1055395" data-name="Trazado 1055395" d="M17.849,94.888a9.582,9.582,0,0,1-9.5-8.574L1.6,23.432a9.6,9.6,0,0,1,8.513-10.554L71.38,6.329a9.569,9.569,0,0,1,10.539,8.513L88.65,77.724a9.6,9.6,0,0,1-8.513,10.554L18.869,94.827A7.646,7.646,0,0,1,17.849,94.888ZM72.4,7.745a8.286,8.286,0,0,0-.868.046L10.264,14.34a8.133,8.133,0,0,0-7.2,8.94L9.792,86.161a8.1,8.1,0,0,0,8.924,7.2l61.252-6.549a8.1,8.1,0,0,0,7.2-8.924l-6.716-62.9A8.1,8.1,0,0,0,72.4,7.745Z" transform="translate(-1.544 -6.273)"/>
      </g>
      <g id="Grupo_1210618" data-name="Grupo 1210618" transform="translate(17.316 71.427)">
        <path id="Trazado_1055396" data-name="Trazado 1055396" d="M91.2,47.43v2.954a8.846,8.846,0,0,1-8.848,8.848h-61.6A8.846,8.846,0,0,1,11.9,50.384V47.43a8.846,8.846,0,0,0,8.848,8.848H82.366A8.862,8.862,0,0,0,91.2,47.43Z" transform="translate(-11.9 -47.43)" fill="#d7dadf"/>
      </g>
      <g id="Grupo_1210619" data-name="Grupo 1210619" transform="translate(60.186 8.226)">
        <path id="Trazado_1055397" data-name="Trazado 1055397" d="M40.05,5.93H69.108v9.412H40.05Z" transform="translate(-40.05 -5.93)" fill="#fff"/>
      </g>
      <g id="Grupo_1210620" data-name="Grupo 1210620" transform="translate(17.316 2.286)">
        <path id="Trazado_1055398" data-name="Trazado 1055398" d="M91.2,10.863v6.183H83.828L80.8,11.487a2.955,2.955,0,0,0-2.589-1.538H60.847A2.943,2.943,0,0,0,58.03,12.02l-1.569,5.041H11.9V10.878A8.846,8.846,0,0,1,20.748,2.03h61.6A8.717,8.717,0,0,1,86.569,3.1a6.958,6.958,0,0,1,.716.442l.685.5a7.819,7.819,0,0,1,.64.579,5.351,5.351,0,0,1,.563.624,7.18,7.18,0,0,1,.5.685c.076.122.168.244.228.366a9.485,9.485,0,0,1,.731,1.538,8.37,8.37,0,0,1,.563,3.031Z" transform="translate(-11.9 -2.03)" fill="#f76c82"/>
      </g>
      <g id="Grupo_1210621" data-name="Grupo 1210621" transform="translate(17.316 14.348)">
        <path id="Trazado_1055399" data-name="Trazado 1055399" d="M11.9,9.95H57.375L56.461,12.9H11.9Z" transform="translate(-11.9 -9.95)" fill="#eb5463"/>
      </g>
      <g id="Grupo_1210622" data-name="Grupo 1210622" transform="translate(87.645 14.348)">
        <path id="Trazado_1055400" data-name="Trazado 1055400" d="M67.05,9.95V12.9H59.679L58.08,9.95Z" transform="translate(-58.08 -9.95)" fill="#eb5463"/>
      </g>
      <g id="Grupo_1210623" data-name="Grupo 1210623" transform="translate(16.585 1.54)">
        <path id="Trazado_1055401" data-name="Trazado 1055401" d="M91.45,18.033H84.079a.725.725,0,0,1-.64-.381l-3.031-5.559a2.23,2.23,0,0,0-1.949-1.157H61.1a2.207,2.207,0,0,0-2.117,1.553l-1.569,5.041a.736.736,0,0,1-.7.518H12.151a.731.731,0,0,1-.731-.731V11.134A9.6,9.6,0,0,1,21.014,1.54h61.6A9.471,9.471,0,0,1,87.186,2.7a7.809,7.809,0,0,1,.792.487,7.025,7.025,0,0,1,.731.548,8.768,8.768,0,0,1,.67.624,7.906,7.906,0,0,1,.609.685,7.935,7.935,0,0,1,.563.746c.076.122.168.244.244.381A8.881,8.881,0,0,1,91.6,7.845a9.652,9.652,0,0,1,.579,3.29v6.183A.728.728,0,0,1,91.45,18.033Zm-6.929-1.477h6.2V11.119a8.258,8.258,0,0,0-.487-2.787,7.5,7.5,0,0,0-.67-1.416l-.228-.32a7.045,7.045,0,0,0-.457-.609c-.168-.2-.335-.4-.518-.579q-.3-.3-.594-.548c-.183-.152-.4-.3-.609-.457a4.927,4.927,0,0,0-.67-.411A8,8,0,0,0,82.6,3H21a8.124,8.124,0,0,0-8.117,8.117v5.437H56.164l1.4-4.523a3.66,3.66,0,0,1,3.518-2.589H78.459a3.65,3.65,0,0,1,3.229,1.919Z" transform="translate(-11.42 -1.54)"/>
      </g>
      <g id="Grupo_1210624" data-name="Grupo 1210624" transform="translate(17.316 17.287)">
        <path id="Trazado_1055402" data-name="Trazado 1055402" d="M11.9,11.88V68.959a8.846,8.846,0,0,0,8.848,8.848h61.6A8.846,8.846,0,0,0,91.2,68.959V11.88Z" transform="translate(-11.9 -11.88)" fill="#f4f6f8"/>
      </g>
      <g id="Grupo_1210625" data-name="Grupo 1210625" transform="translate(16.585 16.556)">
        <path id="Trazado_1055403" data-name="Trazado 1055403" d="M82.6,78.79H21A9.587,9.587,0,0,1,11.42,69.21V12.131a.731.731,0,0,1,.731-.731h79.3a.731.731,0,0,1,.731.731V69.21A9.577,9.577,0,0,1,82.6,78.79ZM12.882,12.877V69.21A8.124,8.124,0,0,0,21,77.328H82.6a8.124,8.124,0,0,0,8.117-8.117V12.877Z" transform="translate(-11.42 -11.4)"/>
      </g>
      <g id="Grupo_1210626" data-name="Grupo 1210626" transform="translate(24.671 24.658)">
        <path id="Trazado_1055404" data-name="Trazado 1055404" d="M81.3,32.7V19.674a2.957,2.957,0,0,0-2.954-2.954H19.684a2.957,2.957,0,0,0-2.954,2.954V32.7a2.957,2.957,0,0,0,2.954,2.954H78.363A2.944,2.944,0,0,0,81.3,32.7Z" transform="translate(-16.73 -16.72)" fill="#656d78"/>
      </g>
      <g id="Grupo_1210627" data-name="Grupo 1210627" transform="translate(24.687 37.694)">
        <path id="Trazado_1055405" data-name="Trazado 1055405" d="M81.3,25.28v2.954a2.957,2.957,0,0,1-2.954,2.954H19.694a2.957,2.957,0,0,1-2.954-2.954V25.28a2.957,2.957,0,0,0,2.954,2.954H78.358A2.954,2.954,0,0,0,81.3,25.28Z" transform="translate(-16.74 -25.28)" fill="#545c66"/>
      </g>
      <g id="Grupo_1210628" data-name="Grupo 1210628" transform="translate(23.94 23.927)">
        <path id="Trazado_1055406" data-name="Trazado 1055406" d="M78.614,36.632H19.935a3.7,3.7,0,0,1-3.685-3.685V19.925a3.7,3.7,0,0,1,3.685-3.685H78.614A3.7,3.7,0,0,1,82.3,19.925V32.947a3.688,3.688,0,0,1-3.685,3.685ZM19.935,17.717a2.21,2.21,0,0,0-2.208,2.208V32.947a2.21,2.21,0,0,0,2.208,2.208H78.614a2.21,2.21,0,0,0,2.208-2.208V19.925a2.21,2.21,0,0,0-2.208-2.208Z" transform="translate(-16.25 -16.24)"/>
      </g>
      <g id="Grupo_1210633" data-name="Grupo 1210633" transform="translate(24.732 6.413)">
        <g id="Grupo_1210632" data-name="Grupo 1210632" transform="translate(0 0)">
          <g id="Grupo_1210629" data-name="Grupo 1210629">
            <circle id="Elipse_12517" data-name="Elipse 12517" cx="2.65" cy="2.65" r="2.65" transform="translate(0.731 0.716)" fill="#fff"/>
            <path id="Trazado_1055407" data-name="Trazado 1055407" d="M20.151,11.5a3.381,3.381,0,1,1,3.381-3.381A3.383,3.383,0,0,1,20.151,11.5Zm0-5.3a1.9,1.9,0,1,0,1.9,1.9,1.9,1.9,0,0,0-1.9-1.9Z" transform="translate(-16.77 -4.74)"/>
          </g>
          <g id="Grupo_1210630" data-name="Grupo 1210630" transform="translate(9.762)">
            <circle id="Elipse_12518" data-name="Elipse 12518" cx="2.65" cy="2.65" r="2.65" transform="translate(0.731 0.716)" fill="#fff"/>
            <path id="Trazado_1055408" data-name="Trazado 1055408" d="M26.561,11.5a3.381,3.381,0,1,1,3.381-3.381A3.383,3.383,0,0,1,26.561,11.5Zm0-5.3a1.9,1.9,0,1,0,1.9,1.9,1.9,1.9,0,0,0-1.9-1.9Z" transform="translate(-23.18 -4.74)"/>
          </g>
          <g id="Grupo_1210631" data-name="Grupo 1210631" transform="translate(19.509)">
            <circle id="Elipse_12519" data-name="Elipse 12519" cx="2.65" cy="2.65" r="2.65" transform="translate(0.731 0.716)" fill="#fff"/>
            <path id="Trazado_1055409" data-name="Trazado 1055409" d="M32.961,11.5a3.381,3.381,0,1,1,3.381-3.381A3.383,3.383,0,0,1,32.961,11.5Zm0-5.3a1.9,1.9,0,1,0,1.9,1.9,1.9,1.9,0,0,0-1.9-1.9Z" transform="translate(-29.58 -4.74)"/>
          </g>
        </g>
      </g>
      <g id="Grupo_1210660" data-name="Grupo 1210660" transform="translate(23.94 49.497)">
        <g id="Grupo_1210634" data-name="Grupo 1210634" transform="translate(0.746 0.761)">
          <path id="Trazado_1055410" data-name="Trazado 1055410" d="M18.948,33.53H31.132a2.21,2.21,0,0,1,2.208,2.208v14.5a2.21,2.21,0,0,1-2.208,2.208H18.948a2.21,2.21,0,0,1-2.208-2.208v-14.5A2.21,2.21,0,0,1,18.948,33.53Z" transform="translate(-16.74 -33.53)" fill="#8c9ffa"/>
        </g>
        <g id="Grupo_1210635" data-name="Grupo 1210635" transform="translate(0.746 14.514)">
          <path id="Trazado_1055411" data-name="Trazado 1055411" d="M33.34,42.56v2.954a2.21,2.21,0,0,1-2.208,2.208H18.948a2.21,2.21,0,0,1-2.208-2.208V42.56a2.21,2.21,0,0,0,2.208,2.208H31.132A2.191,2.191,0,0,0,33.34,42.56Z" transform="translate(-16.74 -42.56)" fill="#6e7fed"/>
        </g>
        <g id="Grupo_1210636" data-name="Grupo 1210636">
          <path id="Trazado_1055412" data-name="Trazado 1055412" d="M31.388,53.437H19.2a2.957,2.957,0,0,1-2.954-2.954v-14.5A2.957,2.957,0,0,1,19.2,33.03H31.388a2.957,2.957,0,0,1,2.954,2.954v14.5A2.948,2.948,0,0,1,31.388,53.437ZM19.2,34.522A1.479,1.479,0,0,0,17.727,36V50.5A1.479,1.479,0,0,0,19.2,51.975H31.388A1.479,1.479,0,0,0,32.865,50.5V36a1.479,1.479,0,0,0-1.477-1.477Z" transform="translate(-16.25 -33.03)"/>
        </g>
        <g id="Grupo_1210637" data-name="Grupo 1210637" transform="translate(24.732 0.761)">
          <path id="Trazado_1055413" data-name="Trazado 1055413" d="M34.7,33.53H46.882a2.21,2.21,0,0,1,2.208,2.208v14.5a2.21,2.21,0,0,1-2.208,2.208H34.7a2.21,2.21,0,0,1-2.208-2.208v-14.5A2.191,2.191,0,0,1,34.7,33.53Z" transform="translate(-32.49 -33.53)" fill="#f76c82"/>
        </g>
        <g id="Grupo_1210638" data-name="Grupo 1210638" transform="translate(24.732 14.514)">
          <path id="Trazado_1055414" data-name="Trazado 1055414" d="M49.09,42.56v2.954a2.21,2.21,0,0,1-2.208,2.208H34.7a2.21,2.21,0,0,1-2.208-2.208V42.56A2.21,2.21,0,0,0,34.7,44.768H46.882A2.2,2.2,0,0,0,49.09,42.56Z" transform="translate(-32.49 -42.56)" fill="#eb5463"/>
        </g>
        <g id="Grupo_1210639" data-name="Grupo 1210639" transform="translate(23.986)">
          <path id="Trazado_1055415" data-name="Trazado 1055415" d="M47.138,53.437H34.954A2.957,2.957,0,0,1,32,50.483v-14.5a2.957,2.957,0,0,1,2.954-2.954H47.138a2.957,2.957,0,0,1,2.954,2.954v14.5A2.967,2.967,0,0,1,47.138,53.437Zm-12.2-18.915A1.479,1.479,0,0,0,33.462,36V50.5a1.479,1.479,0,0,0,1.477,1.477H47.123A1.479,1.479,0,0,0,48.6,50.5V36a1.479,1.479,0,0,0-1.477-1.477Z" transform="translate(-32 -33.03)"/>
        </g>
        <g id="Grupo_1210640" data-name="Grupo 1210640" transform="translate(48.703 0.761)">
          <path id="Trazado_1055416" data-name="Trazado 1055416" d="M50.438,33.53H62.622a2.21,2.21,0,0,1,2.208,2.208v14.5a2.21,2.21,0,0,1-2.208,2.208H50.438a2.21,2.21,0,0,1-2.208-2.208v-14.5A2.21,2.21,0,0,1,50.438,33.53Z" transform="translate(-48.23 -33.53)" fill="#fdcd56"/>
        </g>
        <g id="Grupo_1210641" data-name="Grupo 1210641" transform="translate(48.703 14.514)">
          <path id="Trazado_1055417" data-name="Trazado 1055417" d="M64.83,42.56v2.954a2.21,2.21,0,0,1-2.208,2.208H50.438a2.21,2.21,0,0,1-2.208-2.208V42.56a2.21,2.21,0,0,0,2.208,2.208H62.622A2.2,2.2,0,0,0,64.83,42.56Z" transform="translate(-48.23 -42.56)" fill="#e3b84d"/>
        </g>
        <g id="Grupo_1210642" data-name="Grupo 1210642" transform="translate(47.957)">
          <path id="Trazado_1055418" data-name="Trazado 1055418" d="M62.878,53.437H50.694a2.957,2.957,0,0,1-2.954-2.954v-14.5a2.957,2.957,0,0,1,2.954-2.954H62.878a2.957,2.957,0,0,1,2.954,2.954v14.5A2.948,2.948,0,0,1,62.878,53.437ZM50.694,34.522A1.479,1.479,0,0,0,49.217,36V50.5a1.479,1.479,0,0,0,1.477,1.477H62.878A1.479,1.479,0,0,0,64.355,50.5V36a1.479,1.479,0,0,0-1.477-1.477Z" transform="translate(-47.74 -33.03)"/>
        </g>
        <g id="Grupo_1210643" data-name="Grupo 1210643" transform="translate(48.166 1.367)">
          <path id="Trazado_1055419" data-name="Trazado 1055419" d="M48.612,51.613a.752.752,0,0,1-.518-.213.726.726,0,0,1,0-1.036L64.314,34.145a.726.726,0,0,1,1.036,0,.74.74,0,0,1,0,1.036L49.13,51.4a.725.725,0,0,1-.518.213Z" transform="translate(-47.877 -33.928)"/>
        </g>
        <g id="Grupo_1210644" data-name="Grupo 1210644" transform="translate(48.136 1.372)">
          <path id="Trazado_1055420" data-name="Trazado 1055420" d="M64.933,51.717a.752.752,0,0,1-.518-.213L48.075,35.178a.726.726,0,0,1,0-1.036.74.74,0,0,1,1.036,0L65.436,50.468a.726.726,0,0,1,0,1.036A.717.717,0,0,1,64.933,51.717Z" transform="translate(-47.858 -33.931)"/>
        </g>
        <g id="Grupo_1210645" data-name="Grupo 1210645" transform="translate(48.166 1.367)">
          <path id="Trazado_1055421" data-name="Trazado 1055421" d="M48.612,51.613a.752.752,0,0,1-.518-.213.726.726,0,0,1,0-1.036L64.314,34.145a.726.726,0,0,1,1.036,0,.74.74,0,0,1,0,1.036L49.13,51.4a.725.725,0,0,1-.518.213Z" transform="translate(-47.877 -33.928)"/>
        </g>
        <g id="Grupo_1210646" data-name="Grupo 1210646" transform="translate(48.136 1.372)">
          <path id="Trazado_1055422" data-name="Trazado 1055422" d="M64.933,51.717a.752.752,0,0,1-.518-.213L48.075,35.178a.726.726,0,0,1,0-1.036.74.74,0,0,1,1.036,0L65.436,50.468a.726.726,0,0,1,0,1.036A.717.717,0,0,1,64.933,51.717Z" transform="translate(-47.858 -33.931)"/>
        </g>
        <g id="Grupo_1210647" data-name="Grupo 1210647" transform="translate(24.15 1.352)">
          <path id="Trazado_1055423" data-name="Trazado 1055423" d="M32.842,51.618a.752.752,0,0,1-.518-.213.726.726,0,0,1,0-1.036L48.544,34.135a.732.732,0,0,1,1.036,1.036L33.36,51.4A.752.752,0,0,1,32.842,51.618Z" transform="translate(-32.107 -33.918)"/>
        </g>
        <g id="Grupo_1210648" data-name="Grupo 1210648" transform="translate(24.119 1.372)">
          <path id="Trazado_1055424" data-name="Trazado 1055424" d="M49.163,51.717a.752.752,0,0,1-.518-.213L32.3,35.178a.726.726,0,0,1,0-1.036.74.74,0,0,1,1.036,0L49.666,50.468a.726.726,0,0,1,0,1.036A.717.717,0,0,1,49.163,51.717Z" transform="translate(-32.088 -33.931)"/>
        </g>
        <g id="Grupo_1210649" data-name="Grupo 1210649" transform="translate(0.133 1.367)">
          <path id="Trazado_1055425" data-name="Trazado 1055425" d="M17.072,51.613a.752.752,0,0,1-.518-.213.726.726,0,0,1,0-1.036L32.774,34.145a.732.732,0,0,1,1.036,1.036L17.59,51.4A.752.752,0,0,1,17.072,51.613Z" transform="translate(-16.337 -33.928)"/>
        </g>
        <g id="Grupo_1210650" data-name="Grupo 1210650" transform="translate(0.103 1.367)">
          <path id="Trazado_1055426" data-name="Trazado 1055426" d="M33.378,51.719a.752.752,0,0,1-.518-.213L16.535,35.18a.732.732,0,0,1,1.036-1.036L33.9,50.47a.731.731,0,0,1-.518,1.249Z" transform="translate(-16.317 -33.928)"/>
        </g>
        <g id="Grupo_1210653" data-name="Grupo 1210653" transform="translate(0.015 23.331)">
          <g id="Grupo_1210651" data-name="Grupo 1210651">
            <path id="Trazado_1055427" data-name="Trazado 1055427" d="M33.591,49.812h-16.6a.731.731,0,0,1-.731-.731.741.741,0,0,1,.731-.731h16.6a.731.731,0,0,1,0,1.462Z" transform="translate(-16.26 -48.35)"/>
          </g>
          <g id="Grupo_1210652" data-name="Grupo 1210652" transform="translate(0 4.036)">
            <path id="Trazado_1055428" data-name="Trazado 1055428" d="M33.591,52.477h-16.6a.731.731,0,0,1-.731-.731A.744.744,0,0,1,16.991,51h16.6a.731.731,0,0,1,.731.731A.744.744,0,0,1,33.591,52.477Z" transform="translate(-16.26 -51)"/>
          </g>
        </g>
        <g id="Grupo_1210656" data-name="Grupo 1210656" transform="translate(24.093 23.331)">
          <g id="Grupo_1210654" data-name="Grupo 1210654">
            <path id="Trazado_1055429" data-name="Trazado 1055429" d="M49.416,49.812H32.8a.731.731,0,0,1-.731-.731.741.741,0,0,1,.731-.731H49.416a.731.731,0,0,1,.731.731A.741.741,0,0,1,49.416,49.812Z" transform="translate(-32.07 -48.35)"/>
          </g>
          <g id="Grupo_1210655" data-name="Grupo 1210655" transform="translate(0 4.036)">
            <path id="Trazado_1055430" data-name="Trazado 1055430" d="M49.416,52.477H32.8a.731.731,0,0,1-.731-.731A.744.744,0,0,1,32.8,51H49.416a.731.731,0,0,1,.731.731A.755.755,0,0,1,49.416,52.477Z" transform="translate(-32.07 -51)"/>
          </g>
        </g>
        <g id="Grupo_1210659" data-name="Grupo 1210659" transform="translate(48.17 23.331)">
          <g id="Grupo_1210657" data-name="Grupo 1210657">
            <path id="Trazado_1055431" data-name="Trazado 1055431" d="M65.226,49.812H48.611a.731.731,0,0,1-.731-.731.741.741,0,0,1,.731-.731H65.226a.731.731,0,0,1,.731.731A.741.741,0,0,1,65.226,49.812Z" transform="translate(-47.88 -48.35)"/>
          </g>
          <g id="Grupo_1210658" data-name="Grupo 1210658" transform="translate(0 4.036)">
            <path id="Trazado_1055432" data-name="Trazado 1055432" d="M65.226,52.477H48.611a.731.731,0,0,1-.731-.731A.744.744,0,0,1,48.611,51H65.226a.731.731,0,0,1,.731.731A.755.755,0,0,1,65.226,52.477Z" transform="translate(-47.88 -51)"/>
          </g>
        </g>
      </g>
      <g id="Grupo_1210663" data-name="Grupo 1210663" transform="translate(31.829 30.552)">
        <g id="Grupo_1210661" data-name="Grupo 1210661">
          <path id="Trazado_1055433" data-name="Trazado 1055433" d="M70.971,22.052H22.161a.731.731,0,0,1-.731-.731.741.741,0,0,1,.731-.731H70.986a.731.731,0,0,1,.731.731A.744.744,0,0,1,70.971,22.052Z" transform="translate(-21.43 -20.59)"/>
        </g>
        <g id="Grupo_1210662" data-name="Grupo 1210662" transform="translate(0 5.696)">
          <path id="Trazado_1055434" data-name="Trazado 1055434" d="M57.95,25.792H22.161a.731.731,0,0,1-.731-.731.741.741,0,0,1,.731-.731h35.8a.731.731,0,0,1,.731.731A.744.744,0,0,1,57.95,25.792Z" transform="translate(-21.43 -24.33)"/>
        </g>
      </g>
    </g>
  </g>
</svg>
