<svg xmlns="http://www.w3.org/2000/svg" width="295" height="255.045" viewBox="0 0 295 255.045">
  <g id="Grupo_1210671" data-name="Grupo 1210671" transform="translate(-9624 -5344.252)">
    <path id="Rectángulo_420800" data-name="Rectángulo 420800" d="M8,0H287a8,8,0,0,1,8,8V255.045a0,0,0,0,1,0,0H0a0,0,0,0,1,0,0V8A8,8,0,0,1,8,0Z" transform="translate(9624 5344.252)" fill="#684fbc"/>
    <g id="Grupo_1210670" data-name="Grupo 1210670">
      <g id="air-traffic-controller_10623726" transform="translate(9660.875 5378.696)">
        <g id="Grupo_1210667" data-name="Grupo 1210667" transform="translate(10.692 7.5)">
          <path id="Trazado_1055435" data-name="Trazado 1055435" d="M117.566,382.048H94.249L64.558,375.2l-30.549,6.848H10.692l6.861-24.3a14.718,14.718,0,0,1,10.932-10.379l.054-.012,21.132-4.728H78.587l21.132,4.728.054.012A14.718,14.718,0,0,1,110.7,357.744Z" transform="translate(-10.692 -261.011)" fill="#8795de"/>
          <g id="Grupo_1210665" data-name="Grupo 1210665" transform="translate(61.072 81.615)">
            <path id="Trazado_1055436" data-name="Trazado 1055436" d="M300.4,357.744a14.718,14.718,0,0,0-10.932-10.379l-.054-.012-21.132-4.728h-6.823l21.132,4.728.054.012a14.718,14.718,0,0,1,10.932,10.379l6.861,24.3h6.823Z" transform="translate(-261.464 -342.626)" fill="#6c7fd8"/>
          </g>
          <path id="Trazado_1055437" data-name="Trazado 1055437" d="M105.625,42.05H166.26V25.861A18.361,18.361,0,0,0,147.9,7.5H123.986a18.361,18.361,0,0,0-18.361,18.361Z" transform="translate(-82.505 -7.5)" fill="#baafb9"/>
          <path id="Trazado_1055438" data-name="Trazado 1055438" d="M258.274,7.5h-6.74A18.361,18.361,0,0,1,269.9,25.861V42.05h6.74V25.861A18.361,18.361,0,0,0,258.274,7.5Z" transform="translate(-192.88 -7.5)" fill="#aa9ea9"/>
          <path id="Trazado_1055439" data-name="Trazado 1055439" d="M155.154,347.354l-5.471,34.694H89.444l-5.471-34.694,21.132-4.728h28.917Z" transform="translate(-66.126 -261.011)" fill="#8795de"/>
          <path id="Trazado_1055440" data-name="Trazado 1055440" d="M268.288,342.626h-6.823l18.878,4.223a2.462,2.462,0,0,1,1.894,2.786l-5.111,32.413h6.823l5.471-34.694Z" transform="translate(-200.393 -261.011)" fill="#6c7fd8"/>
          <path id="Trazado_1055441" data-name="Trazado 1055441" d="M208.742,274.934h-20.3v16.485l10.148,7.22,10.148-7.22Z" transform="translate(-145.157 -209.804)" fill="#ffe5c2"/>
          <path id="Trazado_1055442" data-name="Trazado 1055442" d="M222.841,274.934v15.228a2.436,2.436,0,0,1-1.024,1.985l-5.712,4.064,3.412,2.427,10.148-7.22V274.934Z" transform="translate(-166.08 -209.804)" fill="#fed2a4"/>
          <path id="Trazado_1055443" data-name="Trazado 1055443" d="M161.713,149.481h-9.67a18.47,18.47,0,0,1-18.743-18.42V102.837h47.156v28.225A18.47,18.47,0,0,1,161.713,149.481Z" transform="translate(-103.441 -79.619)" fill="#fff3de"/>
          <path id="Trazado_1055444" data-name="Trazado 1055444" d="M273.818,102.841v28.223a18.417,18.417,0,0,1-17.1,18.351A18.241,18.241,0,0,0,267,132.946V102.841Z" transform="translate(-196.803 -79.622)" fill="#ffe5c2"/>
          <path id="Trazado_1055445" data-name="Trazado 1055445" d="M326.93,166.352h8.2a3.812,3.812,0,0,0,3.812-3.812v-9.362a3.812,3.812,0,0,0-3.812-3.812h-8.2Z" transform="translate(-249.915 -114.817)" fill="#918291"/>
          <path id="Trazado_1055446" data-name="Trazado 1055446" d="M341.513,149.368h-6.146a3.811,3.811,0,0,1,3.811,3.812v9.362a3.811,3.811,0,0,1-3.811,3.812h6.146a3.812,3.812,0,0,0,3.812-3.812V153.18A3.812,3.812,0,0,0,341.513,149.368Z" transform="translate(-256.297 -114.818)" fill="#7a6d79"/>
          <path id="Trazado_1055447" data-name="Trazado 1055447" d="M180.455,63.782V47.435a11.207,11.207,0,0,0-11.207-11.207H144.506A11.207,11.207,0,0,0,133.3,47.435V63.782h0l10.2-11.331c13.192,1.121,25.65,4.47,36.955,11.331Z" transform="translate(-103.44 -29.232)" fill="#dc8758"/>
          <g id="Grupo_1210666" data-name="Grupo 1210666" transform="translate(58.989 6.996)">
            <path id="Trazado_1055448" data-name="Trazado 1055448" d="M259.732,36.228h-6.819A11.207,11.207,0,0,1,264.12,47.435v12.69a73.186,73.186,0,0,1,6.819,3.657h0V47.435A11.207,11.207,0,0,0,259.732,36.228Z" transform="translate(-252.913 -36.228)" fill="#d77f4a"/>
          </g>
          <path id="Trazado_1055449" data-name="Trazado 1055449" d="M95.986,166.352h-8.2a3.812,3.812,0,0,1-3.812-3.812v-9.362a3.812,3.812,0,0,1,3.812-3.812h8.2v16.985Z" transform="translate(-66.126 -114.817)" fill="#918291"/>
          <path id="Trazado_1055450" data-name="Trazado 1055450" d="M138.572,336.4l-10.148-7.22v-4.328L109.1,332.542l13.721,1.168h0a11.622,11.622,0,0,0,10.945,3.652Z" transform="translate(-85.135 -247.567)" fill="#8ac9fe"/>
          <path id="Trazado_1055451" data-name="Trazado 1055451" d="M230.114,336.4l10.148-7.22v-4.328l19.323,7.688-13.721,1.168h0a11.622,11.622,0,0,1-10.945,3.652Z" transform="translate(-176.677 -247.567)" fill="#60b7ff"/>
          <circle id="Elipse_12520" data-name="Elipse 12520" cx="23.765" cy="23.765" r="23.765" transform="translate(71.952 65.069)" fill="#eaf6ff"/>
          <path id="Trazado_1055452" data-name="Trazado 1055452" d="M386.469,274.685a23.819,23.819,0,0,0-5.555.654,23.77,23.77,0,0,1,0,46.222,23.767,23.767,0,1,0,5.555-46.876Z" transform="translate(-290.752 -209.616)" fill="#d8ecfe"/>
          <circle id="Elipse_12521" data-name="Elipse 12521" cx="17.189" cy="17.189" r="17.189" transform="translate(78.528 71.645)" fill="#bbec6c"/>
          <path id="Trazado_1055453" data-name="Trazado 1055453" d="M430.693,307.055a23.761,23.761,0,0,1,0,31.764,17.185,17.185,0,0,0,0-31.764Z" transform="translate(-328.408 -234.103)" fill="#a2e62e"/>
        </g>
        <g id="Grupo_1210668" data-name="Grupo 1210668" transform="translate(10.692 7.5)">
          <path id="Trazado_1055454" data-name="Trazado 1055454" d="M10.692,396.733l6.861-24.3a14.718,14.718,0,0,1,10.932-10.379l.054-.012" transform="translate(-10.692 -275.696)" fill="none" stroke="#000" stroke-linecap="round" stroke-linejoin="round" stroke-miterlimit="10" stroke-width="3"/>
          <line id="Línea_2221" data-name="Línea 2221" x1="2.808" y1="9.947" transform="translate(104.065 111.09)" fill="none" stroke="#000" stroke-linecap="round" stroke-linejoin="round" stroke-miterlimit="10" stroke-width="3"/>
          <path id="Trazado_1055455" data-name="Trazado 1055455" d="M180.456,149.368V166.26a18.471,18.471,0,0,1-18.743,18.421h-9.67A18.471,18.471,0,0,1,133.3,166.26V149.368" transform="translate(-103.441 -114.818)" fill="none" stroke="#000" stroke-linecap="round" stroke-linejoin="round" stroke-miterlimit="10" stroke-width="3"/>
          <path id="Trazado_1055456" data-name="Trazado 1055456" d="M188.448,324.854v4.328L198.6,336.4l8.623-6.136" transform="translate(-145.158 -247.567)" fill="none" stroke="#000" stroke-linecap="round" stroke-linejoin="round" stroke-miterlimit="10" stroke-width="3"/>
          <line id="Línea_2222" data-name="Línea 2222" y2="3.292" transform="translate(53.437 43.352)" fill="none" stroke="#000" stroke-linecap="round" stroke-linejoin="round" stroke-miterlimit="10" stroke-width="3"/>
          <path id="Trazado_1055457" data-name="Trazado 1055457" d="M215.1,223.227a8.6,8.6,0,0,0,7.314,0" transform="translate(-165.318 -170.69)" fill="none" stroke="#000" stroke-linecap="round" stroke-linejoin="round" stroke-miterlimit="10" stroke-width="3"/>
          <path id="Trazado_1055458" data-name="Trazado 1055458" d="M326.93,166.352h8.2a3.812,3.812,0,0,0,3.812-3.812v-9.362a3.812,3.812,0,0,0-3.812-3.812h-8.2Z" transform="translate(-249.915 -114.817)" fill="none" stroke="#000" stroke-linecap="round" stroke-linejoin="round" stroke-miterlimit="10" stroke-width="3"/>
          <path id="Trazado_1055459" data-name="Trazado 1055459" d="M180.455,63.782V47.435a11.207,11.207,0,0,0-11.207-11.207H144.506A11.207,11.207,0,0,0,133.3,47.435V63.782h0l10.2-11.331c13.192,1.121,25.65,4.47,36.955,11.331Z" transform="translate(-103.44 -29.232)" fill="none" stroke="#000" stroke-linecap="round" stroke-linejoin="round" stroke-miterlimit="10" stroke-width="3"/>
          <path id="Trazado_1055460" data-name="Trazado 1055460" d="M138.572,336.4l-10.148-7.22v-4.328L109.1,332.542l13.721,1.168h0a11.622,11.622,0,0,0,10.945,3.652Z" transform="translate(-85.135 -247.567)" fill="none" stroke="#000" stroke-linecap="round" stroke-linejoin="round" stroke-miterlimit="10" stroke-width="3"/>
          <path id="Trazado_1055461" data-name="Trazado 1055461" d="M85.448,367.138l-1.475-9.351,6.119-1.369" transform="translate(-66.126 -271.444)" fill="none" stroke="#000" stroke-linecap="round" stroke-linejoin="round" stroke-miterlimit="10" stroke-width="3"/>
          <line id="Línea_2223" data-name="Línea 2223" x1="2.664" y1="16.892" transform="translate(20.654 104.145)" fill="none" stroke="#000" stroke-linecap="round" stroke-linejoin="round" stroke-miterlimit="10" stroke-width="3"/>
          <line id="Línea_2224" data-name="Línea 2224" x1="1.712" y2="10.853" transform="translate(83.557 110.184)" fill="none" stroke="#000" stroke-linecap="round" stroke-linejoin="round" stroke-miterlimit="10" stroke-width="3"/>
          <line id="Línea_2225" data-name="Línea 2225" x2="5.657" transform="translate(65.983 108.095)" fill="none" stroke="#000" stroke-linecap="round" stroke-linejoin="round" stroke-miterlimit="10" stroke-width="3"/>
          <path id="Trazado_1055462" data-name="Trazado 1055462" d="M249.906,328.69l-9.645-3.836v4.328L230.113,336.4l4.806.96a11.617,11.617,0,0,0,10.946-3.651l2.942-.251" transform="translate(-176.676 -247.567)" fill="none" stroke="#000" stroke-linecap="round" stroke-linejoin="round" stroke-miterlimit="10" stroke-width="3"/>
          <line id="Línea_2226" data-name="Línea 2226" y1="8.162" transform="translate(63.585 69.125)" fill="none" stroke="#000" stroke-linecap="round" stroke-linejoin="round" stroke-miterlimit="10" stroke-width="3"/>
          <line id="Línea_2227" data-name="Línea 2227" y1="8.162" transform="translate(43.289 69.125)" fill="none" stroke="#000" stroke-linecap="round" stroke-linejoin="round" stroke-miterlimit="10" stroke-width="3"/>
          <path id="Trazado_1055463" data-name="Trazado 1055463" d="M95.986,166.352h-8.2a3.812,3.812,0,0,1-3.812-3.812v-9.362a3.812,3.812,0,0,1,3.812-3.812h8.2v16.985Z" transform="translate(-66.126 -114.817)" fill="none" stroke="#000" stroke-linecap="round" stroke-linejoin="round" stroke-miterlimit="10" stroke-width="3"/>
          <path id="Trazado_1055464" data-name="Trazado 1055464" d="M166.259,42.05V25.861A18.361,18.361,0,0,0,147.9,7.5H123.985a18.361,18.361,0,0,0-18.361,18.361V42.05" transform="translate(-82.505 -7.5)" fill="none" stroke="#000" stroke-linecap="round" stroke-linejoin="round" stroke-miterlimit="10" stroke-width="3"/>
          <path id="Trazado_1055465" data-name="Trazado 1055465" d="M298.218,219.111v7.137a3.188,3.188,0,0,1-3.188,3.188H279.777" transform="translate(-214.245 -167.576)" fill="none" stroke="#000" stroke-linecap="round" stroke-linejoin="round" stroke-miterlimit="10" stroke-width="3"/>
          <line id="Línea_2228" data-name="Línea 2228" y2="11.36" transform="translate(53.437 88.834)" fill="none" stroke="#000" stroke-linecap="round" stroke-linejoin="round" stroke-miterlimit="10" stroke-width="3"/>
          <circle id="Elipse_12522" data-name="Elipse 12522" cx="23.765" cy="23.765" r="23.765" transform="translate(71.952 65.069)" fill="none" stroke="#000" stroke-linecap="round" stroke-linejoin="round" stroke-miterlimit="10" stroke-width="3"/>
          <circle id="Elipse_12523" data-name="Elipse 12523" cx="17.189" cy="17.189" r="17.189" transform="translate(78.528 71.645)" fill="none" stroke="#000" stroke-linecap="round" stroke-linejoin="round" stroke-miterlimit="10" stroke-width="3"/>
          <line id="Línea_2229" data-name="Línea 2229" y1="12.138" x2="12.138" transform="translate(95.717 76.697)" fill="none" stroke="#000" stroke-linecap="round" stroke-linejoin="round" stroke-miterlimit="10" stroke-width="3"/>
          <line id="Línea_2230" data-name="Línea 2230" transform="translate(90.801 81.615)" fill="none" stroke="#000" stroke-linecap="round" stroke-linejoin="round" stroke-miterlimit="10" stroke-width="3"/>
          <line id="Línea_2231" data-name="Línea 2231" transform="translate(95.717 97.814)" fill="none" stroke="#000" stroke-linecap="round" stroke-linejoin="round" stroke-miterlimit="10" stroke-width="3"/>
        </g>
      </g>
      <g id="Page-1" transform="translate(9803 5480)">
        <g id="_014---Touch-Interaction" data-name="014---Touch-Interaction">
          <path id="Shape" d="M75.533,9V41.967a4.3,4.3,0,0,0-8.6,0v-4.3a4.3,4.3,0,1,0-8.6,0v-17.2a4.3,4.3,0,1,0-8.6,0v21.5L43.9,48.976a5.718,5.718,0,0,0-1.333,3.669V60.3a5.779,5.779,0,0,0,.946,3.168H3.867A2.875,2.875,0,0,1,1,60.6V9Z" transform="translate(0.433 3.9)" fill="#f5f5f5"/>
          <path id="Shape-2" data-name="Shape" d="M38.467,14a4.3,4.3,0,0,0-4.3,4.3V39.8l-5.834,7.009A5.718,5.718,0,0,0,27,50.478v7.654a5.779,5.779,0,0,0,.946,3.168h4.3a5.779,5.779,0,0,1-.946-3.168V50.478a5.718,5.718,0,0,1,1.333-3.669L38.467,39.8V18.3a4.29,4.29,0,0,1,1.261-3.039,4.347,4.347,0,0,1,.893-.665,4.261,4.261,0,0,0-2.154-.6Z" transform="translate(11.7 6.067)" fill="#cfd8dc"/>
          <path id="Shape-3" data-name="Shape" d="M50,9V37.667a4.3,4.3,0,0,1,4.3,4.3V9Z" transform="translate(21.667 3.9)" fill="#cfd8dc"/>
          <path id="Shape-4" data-name="Shape" d="M75.533,3.867v8.6H1v-8.6A2.875,2.875,0,0,1,3.867,1h68.8A2.875,2.875,0,0,1,75.533,3.867Z" transform="translate(0.433 0.433)" fill="#607d8b"/>
          <path id="Shape-5" data-name="Shape" d="M52.3,1H48a2.875,2.875,0,0,1,2.867,2.867v8.6h4.3v-8.6A2.875,2.875,0,0,0,52.3,1Z" transform="translate(20.8 0.433)" fill="#37474f"/>
          <rect id="Rectangle-path" width="31" height="26" rx="2" transform="translate(9 20)" fill="#e91e63"/>
          <path id="Shape-6" data-name="Shape" d="M27.3,14H23a2.867,2.867,0,0,1,2.867,2.867V36.933A2.867,2.867,0,0,1,23,39.8h4.3a2.867,2.867,0,0,0,2.867-2.867V16.867A2.867,2.867,0,0,0,27.3,14Z" transform="translate(9.967 6.067)" fill="#ad1457"/>
          <path id="Shape-7" data-name="Shape" d="M71.567,44.1V58.376a5.794,5.794,0,0,1-.717,2.795L65.117,71.462a5.794,5.794,0,0,0-.717,2.795V78.5H38.6v-4a5.723,5.723,0,0,0-.96-3.182l-6.679-10a.014.014,0,0,0-.014-.014A5.779,5.779,0,0,1,30,58.132V50.478a5.718,5.718,0,0,1,1.333-3.669L37.167,39.8V18.3a4.3,4.3,0,1,1,8.6,0V35.5a4.3,4.3,0,0,1,8.6,0v4.3a4.3,4.3,0,1,1,8.6,0v4.3a4.3,4.3,0,1,1,8.6,0Z" transform="translate(13 6.067)" fill="#ffe0b2"/>
          <path id="Shape-8" data-name="Shape" d="M58.167,32a4.244,4.244,0,0,0-2.15.6,4.277,4.277,0,0,1,2.15,3.7V50.576a5.794,5.794,0,0,1-.717,2.795L51.717,63.662A5.793,5.793,0,0,0,51,66.457V70.7h4.3V66.457a5.794,5.794,0,0,1,.717-2.795L61.75,53.371a5.794,5.794,0,0,0,.717-2.795V36.3A4.3,4.3,0,0,0,58.167,32Z" transform="translate(22.1 13.867)" fill="#dfc49c"/>
          <circle id="Oval" cx="1.5" cy="1.5" r="1.5" transform="translate(6 6)" fill="#f44335"/>
          <circle id="Oval-2" data-name="Oval" cx="1.5" cy="1.5" r="1.5" transform="translate(11 6)" fill="#ffdc00"/>
          <circle id="Oval-3" data-name="Oval" cx="1.5" cy="1.5" r="1.5" transform="translate(17 6)" fill="#60a917"/>
          <path id="Shape-9" data-name="Shape" d="M22.934,25.6l8.4-6a1.433,1.433,0,0,0-1.666-2.333l-9.2,6.572-9.2-6.572A1.433,1.433,0,1,0,9.6,19.6l8.4,6-8.4,6a1.433,1.433,0,0,0,1.666,2.333l9.2-6.572,9.2,6.572A1.433,1.433,0,1,0,31.333,31.6Z" transform="translate(3.9 7.367)" fill="#f5f5f5"/>
          <g id="Grupo_1210669" data-name="Grupo 1210669">
            <path id="Shape-10" data-name="Shape" d="M4.3,68.8H37.267a1.433,1.433,0,1,0,0-2.867H4.3A1.433,1.433,0,0,1,2.867,64.5V14.333H74.533v21.5a1.433,1.433,0,1,0,2.867,0V4.3A4.3,4.3,0,0,0,73.1,0H4.3A4.3,4.3,0,0,0,0,4.3V64.5A4.3,4.3,0,0,0,4.3,68.8Zm0-65.933H73.1A1.433,1.433,0,0,1,74.533,4.3v7.167H2.867V4.3A1.433,1.433,0,0,1,4.3,2.867Z"/>
            <path id="Shape-11" data-name="Shape" d="M42.433,6.867H52.467a1.433,1.433,0,1,0,0-2.867H42.433a1.433,1.433,0,1,0,0,2.867Z" transform="translate(17.767 1.733)"/>
            <path id="Shape-12" data-name="Shape" d="M39.4,37.367V17.3A4.3,4.3,0,0,0,35.1,13H9.3A4.3,4.3,0,0,0,5,17.3V37.367a4.3,4.3,0,0,0,4.3,4.3H35.1A4.3,4.3,0,0,0,39.4,37.367Zm-31.533,0V17.3A1.433,1.433,0,0,1,9.3,15.867H35.1A1.433,1.433,0,0,1,36.533,17.3V37.367A1.433,1.433,0,0,1,35.1,38.8H9.3A1.433,1.433,0,0,1,7.867,37.367Z" transform="translate(2.167 5.633)"/>
            <path id="Shape-13" data-name="Shape" d="M67.7,38.8a5.67,5.67,0,0,0-2.928.831,5.67,5.67,0,0,0-8.6-4.3A5.666,5.666,0,0,0,47.633,31V18.733a5.733,5.733,0,0,0-11.467,0V39.714l-5.505,6.608A7.178,7.178,0,0,0,29,50.909v7.655a7.155,7.155,0,0,0,1.2,3.976l6.679,10.01a4.284,4.284,0,0,1,.717,2.385v4a1.433,1.433,0,0,0,1.433,1.433h25.8a1.433,1.433,0,0,0,1.433-1.433V74.686a4.3,4.3,0,0,1,.54-2.088l5.725-10.3a7.2,7.2,0,0,0,.9-3.482V44.533A5.733,5.733,0,0,0,67.7,38.8Zm2.867,20.014a4.3,4.3,0,0,1-.54,2.088L64.3,71.2a7.2,7.2,0,0,0-.9,3.482V77.5H40.467V74.936a7.148,7.148,0,0,0-1.2-3.975L32.583,60.949a4.284,4.284,0,0,1-.717-2.385V50.909a4.31,4.31,0,0,1,1-2.752l3.3-3.965v8.941a1.433,1.433,0,1,0,2.867,0v-34.4a2.867,2.867,0,1,1,5.733,0V47.4a1.433,1.433,0,1,0,2.867,0V35.933a2.867,2.867,0,0,1,5.733,0V47.4a1.433,1.433,0,1,0,2.867,0V40.233a2.867,2.867,0,0,1,5.733,0V47.4a1.433,1.433,0,1,0,2.867,0V44.533a2.867,2.867,0,0,1,5.733,0Z" transform="translate(12.567 5.633)"/>
            <path id="Shape-14" data-name="Shape" d="M6.433,37.867h8.6a1.433,1.433,0,1,0,0-2.867h-8.6a1.433,1.433,0,0,0,0,2.867Z" transform="translate(2.167 15.167)"/>
            <path id="Shape-15" data-name="Shape" d="M28.9,35H17.433a1.433,1.433,0,0,0,0,2.867H28.9A1.433,1.433,0,0,0,28.9,35Z" transform="translate(6.933 15.167)"/>
            <path id="Shape-16" data-name="Shape" d="M6.433,41.867H33.667a1.433,1.433,0,1,0,0-2.867H6.433a1.433,1.433,0,1,0,0,2.867Z" transform="translate(2.167 16.9)"/>
          </g>
        </g>
      </g>
    </g>
  </g>
</svg>
