<svg xmlns="http://www.w3.org/2000/svg" width="295" height="255.045" viewBox="0 0 295 255.045">
  <g id="Grupo_1210673" data-name="Grupo 1210673" transform="translate(-9971 -5344.252)">
    <path id="Rectángulo_420802" data-name="Rectángulo 420802" d="M8,0H287a8,8,0,0,1,8,8V255.045a0,0,0,0,1,0,0H0a0,0,0,0,1,0,0V8A8,8,0,0,1,8,0Z" transform="translate(9971 5344.252)" fill="#684fbc"/>
    <g id="book-call-setting-help-support" transform="translate(10015.287 5387.288)">
      <path id="Trazado_1055466" data-name="Trazado 1055466" d="M3,7H110.711V77.569H3Z" transform="translate(0.857 4.285)" fill="#004fac"/>
      <path id="Trazado_1055467" data-name="Trazado 1055467" d="M7,3H53.427V73.569H7Z" transform="translate(4.285 0.857)" fill="#9bc9ff"/>
      <path id="Trazado_1055468" data-name="Trazado 1055468" d="M32,3H78.427V73.569H32Z" transform="translate(25.712 0.857)" fill="#bddbff"/>
      <path id="Trazado_1055469" data-name="Trazado 1055469" d="M51.57,37.317H7v7.428H59V36.63A40.963,40.963,0,0,1,51.57,37.317Z" transform="translate(4.285 29.681)" fill="#57a4ff"/>
      <path id="Trazado_1055470" data-name="Trazado 1055470" d="M68.427,3V25.285A40.854,40.854,0,0,1,35.006,65.452L35,73.569H75.856V3Z" transform="translate(28.284 0.857)" fill="#9bc9ff"/>
      <path id="Trazado_1055471" data-name="Trazado 1055471" d="M36,53H69.427V67.857H36Z" transform="translate(29.141 43.711)" fill="#006df0"/>
      <path id="Trazado_1055472" data-name="Trazado 1055472" d="M41.713,25.571H35.826l4.16,4.16-5.256,5.256-4.16-4.16v5.887H23.142V30.826l-4.16,4.16-5.256-5.256,4.16-4.16H12V18.142h5.887l-4.16-4.16,5.256-5.256,4.16,4.16V7h7.428v5.887l4.16-4.16,5.256,5.256-4.16,4.16h5.887Z" transform="translate(8.571 4.285)" fill="#ed1c24"/>
      <circle id="Elipse_12524" data-name="Elipse 12524" cx="3.5" cy="3.5" r="3.5" transform="translate(31.713 22.713)" fill="#ffcd00"/>
      <path id="Trazado_1055473" data-name="Trazado 1055473" d="M36,7H67.57V34.856H36Z" transform="translate(29.141 4.285)" fill="#ffcd00"/>
      <path id="Trazado_1055474" data-name="Trazado 1055474" d="M74.561,43.571V65.094A6.266,6.266,0,0,1,72.7,69.551a6.3,6.3,0,0,0-1.857,4.457V77h-26V73.785a7.311,7.311,0,0,0-1.244-4.1l-5.014-7.54L30.01,49.253l.91-.929a5.571,5.571,0,0,1,8.505.669l5.423,7.577V28.714a3.714,3.714,0,1,1,7.428,0V43.571a3.714,3.714,0,1,1,7.428,0,3.714,3.714,0,0,1,7.428,0,3.714,3.714,0,0,1,7.428,0Z" transform="translate(24.007 19.713)" fill="#ffbcab"/>
      <g id="Grupo_1210672" data-name="Grupo 1210672" transform="translate(2 2)">
        <path id="Trazado_1055475" data-name="Trazado 1055475" d="M52.714,56H50.857a1.857,1.857,0,0,0,0,3.714h1.857a1.857,1.857,0,1,0,0-3.714Z" transform="translate(38.283 44.282)" fill="#231f20"/>
        <path id="Trazado_1055476" data-name="Trazado 1055476" d="M111.568,9.428H106V3.857A1.857,1.857,0,0,0,104.139,2H11.285A1.857,1.857,0,0,0,9.428,3.857V9.428H3.857A1.857,1.857,0,0,0,2,11.285V81.854a1.857,1.857,0,0,0,1.857,1.857H61.594l4.476,6.7A5.516,5.516,0,0,1,67,93.5v1.356H65.141a1.857,1.857,0,0,0-1.857,1.857v14.857a1.857,1.857,0,0,0,1.857,1.857H98.568a1.857,1.857,0,0,0,1.857-1.857V96.711a1.857,1.857,0,0,0-1.857-1.857H96.711V93.721a4.416,4.416,0,0,1,1.281-3.1c0-.019.019-.019.037-.037a8.182,8.182,0,0,0,2.4-5.776v-1.1h11.142a1.857,1.857,0,0,0,1.857-1.857V11.285A1.857,1.857,0,0,0,111.568,9.428ZM13.142,5.714H55.855V65.141c0,.019.019.037.019.056a7.3,7.3,0,0,0-2.284,1.541l-.91.929a1.857,1.857,0,0,0-.2,2.321l1.709,2.581H13.142ZM5.714,80V13.142H9.428V74.426a1.857,1.857,0,0,0,1.857,1.857h44.57a1.857,1.857,0,0,0,.706-.149L59.124,80Zm91,29.713H67V98.568H96.711Zm0-24.9a4.427,4.427,0,0,1-1.281,3.12.065.065,0,0,1-.037.019A8.214,8.214,0,0,0,93,93.721v1.133H70.712V93.5a9.209,9.209,0,0,0-1.56-5.144L56.394,69.189a3.714,3.714,0,0,1,2.8-.947,3.638,3.638,0,0,1,2.73,1.541l5.423,7.577a1.846,1.846,0,0,0,2.581.427,1.779,1.779,0,0,0,.743-1.281c.019-.074.037-28.079.037-28.079a1.857,1.857,0,1,1,3.714,0V67a1.857,1.857,0,1,0,3.714,0V63.284a1.857,1.857,0,1,1,3.714,0V67a1.857,1.857,0,1,0,3.714,0V63.284a1.857,1.857,0,0,1,3.714,0V67A1.857,1.857,0,1,0,93,67V63.284a1.857,1.857,0,0,1,3.714,0ZM94.854,57.712a5.523,5.523,0,0,0-3.714,1.449,5.486,5.486,0,0,0-7.428,0,5.435,5.435,0,0,0-5.571-1.114v-9.62a5.571,5.571,0,1,0-11.142,0V70.489l-2.043-2.878a7.46,7.46,0,0,0-5.386-3.064V5.714h42.713V72.55l-1.857-.019V63.284a5.588,5.588,0,0,0-5.571-5.571ZM109.711,80h-9.285V76.246l3.7.037h.019a1.8,1.8,0,0,0,1.3-.539A1.857,1.857,0,0,0,106,74.426V13.142h3.714Z" transform="translate(-2 -2)" fill="#231f20"/>
        <path id="Trazado_1055477" data-name="Trazado 1055477" d="M11.857,31.714h31.57a1.857,1.857,0,1,0,0-3.714H11.857a1.857,1.857,0,1,0,0,3.714Z" transform="translate(4.857 20.284)" fill="#231f20"/>
        <path id="Trazado_1055478" data-name="Trazado 1055478" d="M59.857,28h-13a1.857,1.857,0,0,0,0,3.714h13a1.857,1.857,0,0,0,0-3.714Z" transform="translate(34.854 20.284)" fill="#231f20"/>
        <path id="Trazado_1055479" data-name="Trazado 1055479" d="M11.857,35.714h31.57a1.857,1.857,0,1,0,0-3.714H11.857a1.857,1.857,0,1,0,0,3.714Z" transform="translate(4.857 23.712)" fill="#231f20"/>
        <path id="Trazado_1055480" data-name="Trazado 1055480" d="M11.857,39.714H39.713a1.857,1.857,0,0,0,0-3.714H11.857a1.857,1.857,0,0,0,0,3.714Z" transform="translate(4.857 27.141)" fill="#231f20"/>
        <path id="Trazado_1055481" data-name="Trazado 1055481" d="M42.57,17.142H41.159l1-.984A1.954,1.954,0,0,0,42.7,14.84a1.918,1.918,0,0,0-.539-1.319L36.906,8.266a1.872,1.872,0,0,0-2.637,0l-.984,1V7.857A1.857,1.857,0,0,0,31.428,6H24a1.857,1.857,0,0,0-1.857,1.857V9.268l-.984-1a1.872,1.872,0,0,0-2.637,0l-5.256,5.256a1.918,1.918,0,0,0-.539,1.319,1.954,1.954,0,0,0,.539,1.319l1,.984H12.857A1.857,1.857,0,0,0,11,19v7.428a1.857,1.857,0,0,0,1.857,1.857h1.411l-1,.984a1.954,1.954,0,0,0-.539,1.319,1.918,1.918,0,0,0,.539,1.319l5.256,5.256a1.872,1.872,0,0,0,2.637,0l.984-1V37.57A1.857,1.857,0,0,0,24,39.427h7.428a1.857,1.857,0,0,0,1.857-1.857V36.159l.984,1a1.872,1.872,0,0,0,2.637,0l5.256-5.256a1.918,1.918,0,0,0,.539-1.319,1.954,1.954,0,0,0-.539-1.319l-1-.984H42.57a1.857,1.857,0,0,0,1.857-1.857V19A1.857,1.857,0,0,0,42.57,17.142Zm-1.857,7.428h-4.03a1.833,1.833,0,0,0-1.709,1.151,1.857,1.857,0,0,0,.39,2.024l2.86,2.841-2.637,2.637-2.841-2.86a1.857,1.857,0,0,0-2.024-.39,1.833,1.833,0,0,0-1.151,1.709v4.03H25.857v-4.03a1.833,1.833,0,0,0-1.151-1.709,1.857,1.857,0,0,0-2.024.39l-2.841,2.86L17.2,30.588l2.86-2.841a1.857,1.857,0,0,0,.39-2.024,1.833,1.833,0,0,0-1.709-1.151h-4.03V20.857h4.03a1.833,1.833,0,0,0,1.709-1.151,1.857,1.857,0,0,0-.39-2.024L17.2,14.84,19.84,12.2l2.841,2.86a1.857,1.857,0,0,0,2.024.39,1.833,1.833,0,0,0,1.151-1.709V9.714h3.714v4.03a1.833,1.833,0,0,0,1.151,1.709,1.857,1.857,0,0,0,2.024-.39l2.841-2.86,2.637,2.637-2.86,2.841a1.857,1.857,0,0,0-.39,2.024,1.833,1.833,0,0,0,1.709,1.151h4.03Z" transform="translate(5.714 1.428)" fill="#231f20"/>
        <path id="Trazado_1055482" data-name="Trazado 1055482" d="M22.571,23.142A5.571,5.571,0,1,0,17,17.571,5.571,5.571,0,0,0,22.571,23.142Zm0-7.428a1.857,1.857,0,1,1-1.857,1.857A1.857,1.857,0,0,1,22.571,15.714Z" transform="translate(10.856 6.571)" fill="#231f20"/>
        <path id="Trazado_1055483" data-name="Trazado 1055483" d="M36.857,37.57h31.57a1.857,1.857,0,0,0,1.857-1.857V7.857A1.857,1.857,0,0,0,68.427,6H36.857A1.857,1.857,0,0,0,35,7.857V35.713A1.857,1.857,0,0,0,36.857,37.57ZM38.714,9.714H66.57V33.856H38.714Z" transform="translate(26.284 1.428)" fill="#231f20"/>
        <path id="Trazado_1055484" data-name="Trazado 1055484" d="M46.571,9A5.571,5.571,0,0,0,41,14.571a1.857,1.857,0,0,0,3.714,0,1.857,1.857,0,1,1,2.448,1.762,3.681,3.681,0,0,0-2.448,3.54V22a1.857,1.857,0,1,0,3.714,0l-.087-2.145A5.571,5.571,0,0,0,46.571,9Z" transform="translate(31.426 4)" fill="#231f20"/>
        <circle id="Elipse_12525" data-name="Elipse 12525" cx="2" cy="2" r="2" transform="translate(75.713 29.713)" fill="#231f20"/>
      </g>
    </g>
    <g id="user_758638" transform="translate(10126.083 5457.443)">
      <g id="Grupo_1210588" data-name="Grupo 1210588" transform="translate(18.303 3.674)">
        <path id="Trazado_1055307" data-name="Trazado 1055307" d="M147.129,15.673c11.389,0,20.7,8.695,20.7,21.186,0,12.613-9.307,22.778-20.7,22.778s-20.7-10.164-20.7-22.778S135.74,15.673,147.129,15.673Z" transform="translate(-103.9 -15.673)" fill="#74efd5"/>
        <path id="Trazado_1055308" data-name="Trazado 1055308" d="M116.759,294.184H30.3c0-30,23.267-36.616,43.228-36.616S116.759,264.181,116.759,294.184Z" transform="translate(-30.302 -200.868)" fill="#5ff5d5"/>
      </g>
      <g id="Grupo_1210589" data-name="Grupo 1210589" transform="translate(14.629)">
        <path id="Trazado_1055309" data-name="Trazado 1055309" d="M104.76,285.857H18.3a3.608,3.608,0,0,1-3.674-3.674c0-25.962,16.655-40.29,46.9-40.29s46.9,14.328,46.9,40.29A3.608,3.608,0,0,1,104.76,285.857ZM22.1,278.51h78.865c-1.469-19.471-14.7-29.268-39.432-29.268S23.568,259.039,22.1,278.51Z" transform="translate(-14.629 -185.195)"/>
        <path id="Trazado_1055310" data-name="Trazado 1055310" d="M135.13,51.311c-13.471,0-24.37-11.879-24.37-26.451C110.76,10.654,121.291,0,135.13,0S159.5,10.654,159.5,24.859C159.5,39.432,148.6,51.311,135.13,51.311Zm0-43.963c-9.919,0-17.022,7.348-17.022,17.512,0,10.532,7.593,19.1,17.022,19.1s17.022-8.572,17.022-19.1C152.152,14.818,144.8,7.348,135.13,7.348Z" transform="translate(-88.227)"/>
      </g>
    </g>
  </g>
</svg>
