<svg xmlns="http://www.w3.org/2000/svg" xmlns:xlink="http://www.w3.org/1999/xlink" width="295" height="196" viewBox="0 0 295 196">
  <defs>
    <clipPath id="clip-path">
      <rect id="Rect치ngulo_420839" data-name="Rect치ngulo 420839" width="295" height="196" transform="translate(705 4813)" fill="#fff" stroke="#707070" stroke-width="1"/>
    </clipPath>
  </defs>
  <g id="Enmascarar_grupo_1159109" data-name="Enmascarar grupo 1159109" transform="translate(-705 -4813)" clip-path="url(#clip-path)">
    <g id="Fill_Outline" data-name="Fill Outline" transform="translate(788 4844.4)">
      <g id="Color" transform="translate(4.153 4.153)">
        <ellipse id="Elipse_12526" data-name="Elipse 12526" cx="15" cy="15.5" rx="15" ry="15.5" transform="translate(0.293 68.447)" fill="#84d2f4"/>
        <path id="Trazado_1055485" data-name="Trazado 1055485" d="M32.412,54.332A15.073,15.073,0,1,1,13.42,35.34,15.073,15.073,0,0,0,32.412,54.332Z" transform="translate(-2.998 34.299)" fill="#57b7eb"/>
        <path id="Trazado_1055486" data-name="Trazado 1055486" d="M40.227,47H83.293A17.227,17.227,0,0,1,100.52,64.227v12.92H23V64.227A17.227,17.227,0,0,1,40.227,47Z" transform="translate(20.067 47.747)" fill="#57b7eb"/>
        <g id="Grupo_1210674" data-name="Grupo 1210674" transform="translate(43.067 30.147)">
          <path id="Trazado_1055487" data-name="Trazado 1055487" d="M39,52h4.307V71.38H39Z" transform="translate(-4.547 23.367)" fill="#4891d3"/>
          <path id="Trazado_1055488" data-name="Trazado 1055488" d="M100.52,68.245v8.613H23V63.938A17.239,17.239,0,0,1,35.919,47.25v3.768A17.227,17.227,0,0,0,53.147,68.245Z" transform="translate(-23 17.889)" fill="#4891d3"/>
          <path id="Trazado_1055489" data-name="Trazado 1055489" d="M49.533,17h12.92A21.533,21.533,0,0,1,83.987,38.533,17.227,17.227,0,0,1,66.76,55.76H45.227A17.227,17.227,0,0,1,28,38.533,21.533,21.533,0,0,1,49.533,17Z" transform="translate(-17.233 -17)" fill="#4891d3"/>
        </g>
        <path id="Trazado_1055490" data-name="Trazado 1055490" d="M83.6,41.444A17.207,17.207,0,0,1,66.76,55.01H45.227A17.227,17.227,0,0,1,28,37.784,21.467,21.467,0,0,1,34.309,22.56a21.719,21.719,0,0,1,7.58-4.91,9.115,9.115,0,0,0,8.161,5.06,9.143,9.143,0,0,1,6.46,2.67l2.132,2.132a13.038,13.038,0,0,0,9.216,3.811h.129a13.03,13.03,0,0,1,11.176,6.331,9.259,9.259,0,0,0,4.436,3.79Z" transform="translate(25.833 13.896)" fill="#2d72bc"/>
        <path id="Trazado_1055491" data-name="Trazado 1055491" d="M57.533,53.767,46.767,62.38,36,53.767V43H57.533Z" transform="translate(35.06 43.133)" fill="#fcbc04"/>
        <path id="Trazado_1055492" data-name="Trazado 1055492" d="M57.533,47.587a21.374,21.374,0,0,1-10.4,5.663,21.413,21.413,0,0,0,7.9,2.519L46.767,62.38,36,53.767V43H57.533Z" transform="translate(35.06 43.133)" fill="#e59730"/>
        <path id="Trazado_1055493" data-name="Trazado 1055493" d="M52.533,72.527A21.533,21.533,0,0,1,31,50.993V38.073A14.9,14.9,0,0,1,43.79,23.325L46.073,23A22.179,22.179,0,0,0,65.089,33.767h8.977V50.993A21.533,21.533,0,0,1,52.533,72.527Z" transform="translate(29.293 20.067)" fill="#f9e109"/>
        <path id="Trazado_1055494" data-name="Trazado 1055494" d="M60.38,47,47.46,70.687,41,57.767l10.767-8.613V47Z" transform="translate(40.827 47.747)" fill="#4891d3"/>
        <path id="Trazado_1055495" data-name="Trazado 1055495" d="M32,47l4.307,23.687L51.38,57.767,40.613,49.153V47Z" transform="translate(30.447 47.747)" fill="#4891d3"/>
        <path id="Trazado_1055496" data-name="Trazado 1055496" d="M37.46,31.613v12.92A21.533,21.533,0,0,0,58.993,66.067,21.118,21.118,0,0,0,70.643,62.6,21.516,21.516,0,0,1,31,50.993V38.073a14.836,14.836,0,0,1,3.639-9.755,15,15,0,0,1,9.152-5L46.073,23A22.24,22.24,0,0,0,65.087,33.767h8.979v4.307H65.087A22.178,22.178,0,0,1,46.075,27.31l-2.284.32a14.914,14.914,0,0,0-6.245,2.412c-.043.517-.086,1.034-.086,1.572Z" transform="translate(29.293 20.067)" fill="#fcbc04"/>
        <path id="Trazado_1055497" data-name="Trazado 1055497" d="M60.38,47,51.767,66.38,41,57.767l10.767-8.613V47Z" transform="translate(40.827 47.747)" fill="#84d2f4"/>
        <path id="Trazado_1055498" data-name="Trazado 1055498" d="M32,47l8.613,19.38L51.38,57.767,40.613,49.153V47Z" transform="translate(30.447 47.747)" fill="#84d2f4"/>
        <path id="Trazado_1055499" data-name="Trazado 1055499" d="M63.293,42.607H43.543a14.7,14.7,0,0,1-10.4-4.308,14.7,14.7,0,0,1-10.4,4.308H3V6H63.293Z" transform="translate(-3 0.46)" fill="#7ab92d"/>
        <path id="Trazado_1055500" data-name="Trazado 1055500" d="M41.977,38.3h-.741a14.7,14.7,0,0,1-10.4-4.308,14.7,14.7,0,0,1-10.4,4.308H5V6H52.373V33.993a14.7,14.7,0,0,1-10.4,4.307Z" transform="translate(-0.693 0.46)" fill="#5ba006"/>
        <path id="Trazado_1055501" data-name="Trazado 1055501" d="M25.613,3h12.92V37.453H17V11.613A8.613,8.613,0,0,1,25.613,3Z" transform="translate(13.147 -3)" fill="#84d2f4"/>
        <path id="Trazado_1055502" data-name="Trazado 1055502" d="M7,3H19.92a8.613,8.613,0,0,1,8.613,8.613v25.84H7Z" transform="translate(1.613 -3)" fill="#84d2f4"/>
        <path id="Trazado_1055503" data-name="Trazado 1055503" d="M38.533,30.843V37.3H17V11.463A8.6,8.6,0,0,1,23.46,3.13V15.77A15.073,15.073,0,0,0,38.533,30.843Z" transform="translate(13.147 -2.85)" fill="#57b7eb"/>
        <path id="Trazado_1055504" data-name="Trazado 1055504" d="M28.533,11.613v25.84H7V3h6.46V15.92A15.073,15.073,0,0,0,24.227,30.369V4.163a8.57,8.57,0,0,1,4.307,7.451Z" transform="translate(1.613 -3)" fill="#57b7eb"/>
        <circle id="Elipse_12527" data-name="Elipse 12527" cx="11" cy="11" r="11" transform="translate(90.293 8.447)" fill="#f9e109"/>
        <path id="Trazado_1055505" data-name="Trazado 1055505" d="M65.891,21.081A10.767,10.767,0,1,1,52.11,7.3a10.31,10.31,0,0,0-.646,3.661A10.767,10.767,0,0,0,62.231,21.727a10.31,10.31,0,0,0,3.661-.646Z" transform="translate(45.436 1.959)" fill="#fcbc04"/>
        <rect id="Rect치ngulo_420838" data-name="Rect치ngulo 420838" width="22" height="8" rx="2" transform="translate(90.293 28.447)" fill="#84d2f4"/>
        <path id="Trazado_1055506" data-name="Trazado 1055506" d="M47,20H59.92v2.153a6.46,6.46,0,1,1-12.92,0Z" transform="translate(47.747 16.607)" fill="#84d2f4"/>
        <path id="Trazado_1055507" data-name="Trazado 1055507" d="M66.533,20.307a4.339,4.339,0,0,1-4.307,4.307H49.307a4.307,4.307,0,1,1,0-8.613,4.32,4.32,0,0,0,4.307,4.307Z" transform="translate(45.44 11.993)" fill="#57b7eb"/>
        <path id="Trazado_1055508" data-name="Trazado 1055508" d="M59.92,20v2.153c-4.587,0-8.333,2.67-8.592,6.072A6.41,6.41,0,0,1,47,22.153V20Z" transform="translate(47.747 16.607)" fill="#57b7eb"/>
        <path id="Trazado_1055509" data-name="Trazado 1055509" d="M8,51.92V39l10.767,6.46Z" transform="translate(2.767 38.52)" fill="#f9e109"/>
        <path id="Trazado_1055510" data-name="Trazado 1055510" d="M13.814,47.174,8,50.663V40.09a14.912,14.912,0,0,0,5.814,7.084Z" transform="translate(2.767 39.777)" fill="#fcbc04"/>
      </g>
      <g id="Outline" transform="translate(2 2)">
        <path id="Trazado_1055511" data-name="Trazado 1055511" d="M31.153,55A2.153,2.153,0,0,0,29,57.153V67.92a2.153,2.153,0,0,0,4.307,0V57.153A2.153,2.153,0,0,0,31.153,55Z" transform="translate(29.14 59.127)" fill="#323232"/>
        <path id="Trazado_1055512" data-name="Trazado 1055512" d="M53.153,55A2.153,2.153,0,0,0,51,57.153V67.92a2.153,2.153,0,0,0,4.307,0V57.153A2.153,2.153,0,0,0,53.153,55Z" transform="translate(54.513 59.127)" fill="#323232"/>
        <path id="Trazado_1055513" data-name="Trazado 1055513" d="M34.631,33.585a2.153,2.153,0,1,0,3.045,3.045,3.943,3.943,0,0,1,5.568,0,2.153,2.153,0,1,0,3.045-3.045A8.252,8.252,0,0,0,34.631,33.585Z" transform="translate(34.907 31.646)" fill="#323232"/>
        <path id="Trazado_1055514" data-name="Trazado 1055514" d="M42.631,33.585a2.153,2.153,0,1,0,3.045,3.045,3.943,3.943,0,0,1,5.568,0,2.153,2.153,0,1,0,3.045-3.045A8.252,8.252,0,0,0,42.631,33.585Z" transform="translate(44.133 31.646)" fill="#323232"/>
        <path id="Trazado_1055515" data-name="Trazado 1055515" d="M107.513,96.747H98.9V95.041a23.687,23.687,0,0,0,10.767-19.828V70.226a19.262,19.262,0,0,0,6.46-14.393A23.687,23.687,0,0,0,113.6,45.282a8.463,8.463,0,0,0,.375-2.369v-.4a6.415,6.415,0,0,0,1.675-11.238,12.692,12.692,0,0,0,2.631-7.746,12.92,12.92,0,1,0-25.84,0,12.692,12.692,0,0,0,2.631,7.752,6.415,6.415,0,0,0,1.675,11.232v.4a8.613,8.613,0,0,0,8.613,8.613,8.523,8.523,0,0,0,5.383-1.938,19.341,19.341,0,0,1,1.077,6.245,14.985,14.985,0,0,1-2.153,7.739V57.987a2.153,2.153,0,1,0-4.307,0V75.213a19.38,19.38,0,1,1-38.76,0V62.293A12.806,12.806,0,0,1,77.541,49.677l.915-.129A24.466,24.466,0,0,0,98.536,60.14a2.153,2.153,0,0,0,0-4.307,20.125,20.125,0,0,1-17.171-9.722,2.153,2.153,0,0,0-2.153-1.023l-2.285.327A17.13,17.13,0,0,0,62.293,62.293v1.279a14.985,14.985,0,0,1-2.153-7.739,19.218,19.218,0,0,1,1.135-6.46h3.172A2.153,2.153,0,0,0,66.6,47.22V41.43a19.238,19.238,0,0,1,12.92-4.976h6.46a2.153,2.153,0,0,0,0-4.307H79.52A23.42,23.42,0,0,0,66.6,36.038V10.613A2.153,2.153,0,0,0,64.447,8.46h-6.46V4.153A2.153,2.153,0,0,0,55.833,2H42.913A10.728,10.728,0,0,0,34.3,6.373,10.728,10.728,0,0,0,25.687,2H12.767a2.153,2.153,0,0,0-2.153,2.153V8.46H4.153A2.153,2.153,0,0,0,2,10.613v12.92a2.153,2.153,0,0,0,4.307,0V12.767h4.307v25.84a2.153,2.153,0,0,0,2.153,2.153H55.833a2.153,2.153,0,0,0,2.153-2.153V29.993a2.153,2.153,0,1,0-4.307,0v6.46H36.453V12.767a6.46,6.46,0,0,1,6.46-6.46H53.68V21.38a2.153,2.153,0,0,0,4.307,0V12.767h4.307v32.3H44.7a12.466,12.466,0,0,1-8.876-3.676,2.153,2.153,0,0,0-3.045,0A12.466,12.466,0,0,1,23.9,45.067H6.307V32.147a2.153,2.153,0,0,0-4.307,0V47.22a2.153,2.153,0,0,0,2.153,2.153H23.9a16.725,16.725,0,0,0,10.4-3.585,16.725,16.725,0,0,0,10.4,3.585H56.757a23.471,23.471,0,0,0-.924,6.46,19.262,19.262,0,0,0,6.461,14.394v4.987A23.687,23.687,0,0,0,73.06,95.041v1.705H64.447a19.4,19.4,0,0,0-19.38,19.38v12.92a2.153,2.153,0,0,0,4.307,0v-12.92a15.091,15.091,0,0,1,15.073-15.073H73.06a2.153,2.153,0,0,0,.808,1.682l8.667,6.932-6.488,5.19-3.46-7.786a2.153,2.153,0,0,0-3.934,1.749l4.593,10.336a2.153,2.153,0,0,0,3.314.808l7.268-5.816v12.748a2.153,2.153,0,0,0,4.307,0V114.146L95.4,119.96a2.153,2.153,0,0,0,3.314-.808l8.045-18.1h.754a15.091,15.091,0,0,1,15.073,15.073v12.92a2.153,2.153,0,1,0,4.307,0v-12.92a19.4,19.4,0,0,0-19.38-19.38Zm4.307-58.14H98.9a2.153,2.153,0,0,1,0-4.307h12.92a2.153,2.153,0,0,1,0,4.307ZM105.36,14.92a8.613,8.613,0,0,1,8.613,8.613,8.476,8.476,0,0,1-3.045,6.46h-3.415V24.425l1.522-1.522a2.153,2.153,0,1,0-3.045-3.045l-.631.631-.631-.631a2.153,2.153,0,1,0-3.045,3.045l1.523,1.522v5.569H99.792a8.475,8.475,0,0,1-3.045-6.46,8.613,8.613,0,0,1,8.613-8.613Zm0,32.3a4.307,4.307,0,0,1-4.307-4.307h8.613A4.307,4.307,0,0,1,105.36,47.22ZM14.92,6.307H25.687a6.46,6.46,0,0,1,6.46,6.46V36.453H14.92ZM77.367,97.255a23.37,23.37,0,0,0,17.227,0v2.765l-8.613,6.891-8.613-6.891Zm18.547,17.6-6.488-5.19,8.667-6.932a2.153,2.153,0,0,0,.808-1.682h3.146Z" transform="translate(-2 -2)" fill="#323232"/>
        <path id="Trazado_1055516" data-name="Trazado 1055516" d="M26.46,6H22.153a2.153,2.153,0,0,0,0,4.307H26.46A2.153,2.153,0,0,0,26.46,6Z" transform="translate(18.76 2.613)" fill="#323232"/>
        <path id="Trazado_1055517" data-name="Trazado 1055517" d="M26.46,10H22.153a2.153,2.153,0,0,0,0,4.307H26.46a2.153,2.153,0,0,0,0-4.307Z" transform="translate(18.76 7.227)" fill="#323232"/>
        <path id="Trazado_1055518" data-name="Trazado 1055518" d="M26.46,14H22.153a2.153,2.153,0,0,0,0,4.307H26.46a2.153,2.153,0,0,0,0-4.307Z" transform="translate(18.76 11.84)" fill="#323232"/>
        <path id="Trazado_1055519" data-name="Trazado 1055519" d="M16.46,6H12.153a2.153,2.153,0,1,0,0,4.307H16.46A2.153,2.153,0,0,0,16.46,6Z" transform="translate(7.227 2.613)" fill="#323232"/>
        <path id="Trazado_1055520" data-name="Trazado 1055520" d="M16.46,10H12.153a2.153,2.153,0,1,0,0,4.307H16.46a2.153,2.153,0,0,0,0-4.307Z" transform="translate(7.227 7.227)" fill="#323232"/>
        <path id="Trazado_1055521" data-name="Trazado 1055521" d="M16.46,14H12.153a2.153,2.153,0,1,0,0,4.307H16.46a2.153,2.153,0,0,0,0-4.307Z" transform="translate(7.227 11.84)" fill="#323232"/>
        <ellipse id="Elipse_12528" data-name="Elipse 12528" cx="2.5" cy="2" rx="2.5" ry="2" transform="translate(81.447 19.6)" fill="#323232"/>
        <circle id="Elipse_12529" data-name="Elipse 12529" cx="2" cy="2" r="2" transform="translate(120.447 19.6)" fill="#323232"/>
        <ellipse id="Elipse_12530" data-name="Elipse 12530" cx="2" cy="2.5" rx="2" ry="2.5" transform="translate(101.447 -0.4)" fill="#323232"/>
        <path id="Trazado_1055522" data-name="Trazado 1055522" d="M60.024,10.518a2.153,2.153,0,1,0-2.941-.788A2.153,2.153,0,0,0,60.024,10.518Z" transform="translate(61.196 3.19)" fill="#323232"/>
        <path id="Trazado_1055523" data-name="Trazado 1055523" d="M47.73,7.224a2.153,2.153,0,1,0-2.941-.788A2.153,2.153,0,0,0,47.73,7.224Z" transform="translate(47.017 -0.609)" fill="#323232"/>
        <path id="Trazado_1055524" data-name="Trazado 1055524" d="M42.283,10.518a2.153,2.153,0,1,0-.788-2.941,2.153,2.153,0,0,0,.788,2.941Z" transform="translate(43.218 3.19)" fill="#323232"/>
        <path id="Trazado_1055525" data-name="Trazado 1055525" d="M57.871,19.518a2.153,2.153,0,1,0-.788-2.941A2.153,2.153,0,0,0,57.871,19.518Z" transform="translate(61.196 13.57)" fill="#323232"/>
        <path id="Trazado_1055526" data-name="Trazado 1055526" d="M54.577,7.224a2.153,2.153,0,1,0-.788-2.941,2.153,2.153,0,0,0,.788,2.941Z" transform="translate(57.397 -0.609)" fill="#323232"/>
        <path id="Trazado_1055527" data-name="Trazado 1055527" d="M31.457,42.165a2.153,2.153,0,0,0-.861,2.918,12.92,12.92,0,1,1-5.222-5.222,2.154,2.154,0,1,0,2.052-3.788,17.227,17.227,0,1,0,6.957,6.957,2.153,2.153,0,0,0-2.926-.866Z" transform="translate(-1.995 34.905)" fill="#323232"/>
        <path id="Trazado_1055528" data-name="Trazado 1055528" d="M21.029,44.768l-10.767-6.46A2.153,2.153,0,0,0,7,40.153v12.92a2.153,2.153,0,0,0,3.262,1.845l10.767-6.46a2.153,2.153,0,0,0,0-3.691Zm-9.722,4.5V43.956l4.427,2.657Z" transform="translate(3.767 39.52)" fill="#323232"/>
        <path id="Trazado_1055529" data-name="Trazado 1055529" d="M12.307,36.767V28.153a2.153,2.153,0,1,0-4.307,0v8.613a2.153,2.153,0,0,0,4.307,0Z" transform="translate(4.92 25.68)" fill="#323232"/>
        <path id="Trazado_1055530" data-name="Trazado 1055530" d="M39.38,44.153A2.153,2.153,0,0,0,37.227,42H22.153a2.153,2.153,0,0,0,0,4.307H37.227A2.153,2.153,0,0,0,39.38,44.153Z" transform="translate(18.76 44.133)" fill="#323232"/>
      </g>
    </g>
  </g>
</svg>
