<svg xmlns="http://www.w3.org/2000/svg" xmlns:xlink="http://www.w3.org/1999/xlink" width="113" height="113" viewBox="0 0 113 113">
  <defs>
    <filter id="Trazado_982547" x="0" y="0" width="113" height="113" filterUnits="userSpaceOnUse">
      <feOffset dy="3" input="SourceAlpha"/>
      <feGaussianBlur stdDeviation="3" result="blur"/>
      <feFlood flood-opacity="0.161"/>
      <feComposite operator="in" in2="blur"/>
      <feComposite in="SourceGraphic"/>
    </filter>
  </defs>
  <g id="Grupo_1210550" data-name="Grupo 1210550" transform="translate(-272 -905.626)">
    <g id="Grupo_1210537" data-name="Grupo 1210537" transform="translate(0 -2278.044)">
      <g id="Grupo_1164202" data-name="Grupo 1164202" transform="translate(281 3189.67)">
        <g id="Grupo_1158168" data-name="Grupo 1158168" transform="translate(0)">
          <g id="Grupo_1152576" data-name="Grupo 1152576">
            <g id="Grupo_1148633" data-name="Grupo 1148633">
              <g id="Grupo_1148525" data-name="Grupo 1148525">
                <g transform="matrix(1, 0, 0, 1, -9, -6)" filter="url(#Trazado_982547)">
                  <g id="Trazado_982547-2" data-name="Trazado 982547" transform="translate(9 6)" fill="#fdf6e4">
                    <path d="M 47.5 93.5 C 41.28937149047852 93.5 35.26533508300781 92.28397369384766 29.59518623352051 89.88570404052734 C 24.11771965026855 87.56893157958984 19.19813346862793 84.25196075439453 14.97309303283691 80.02691650390625 C 10.74804019927979 75.80186462402344 7.431066513061523 70.88229370117188 5.114293098449707 65.40481567382812 C 2.716026782989502 59.73468017578125 1.5 53.71062850952148 1.5 47.5 C 1.5 41.28937149047852 2.716026782989502 35.26533508300781 5.114293098449707 29.59518623352051 C 7.431066513061523 24.11771965026855 10.74804019927979 19.19813346862793 14.97309303283691 14.97309303283691 C 19.19813346862793 10.74804019927979 24.11771965026855 7.431066513061523 29.59518623352051 5.114293098449707 C 35.26533508300781 2.716026782989502 41.28937149047852 1.5 47.5 1.5 C 53.71062850952148 1.5 59.73468017578125 2.716026782989502 65.40481567382812 5.114293098449707 C 70.88229370117188 7.431066513061523 75.80186462402344 10.74804019927979 80.02691650390625 14.97309303283691 C 84.25196075439453 19.19813346862793 87.56893157958984 24.11771965026855 89.88570404052734 29.59518623352051 C 92.28397369384766 35.26533508300781 93.5 41.28937149047852 93.5 47.5 C 93.5 53.71062850952148 92.28397369384766 59.73468017578125 89.88570404052734 65.40481567382812 C 87.56893157958984 70.88229370117188 84.25196075439453 75.80186462402344 80.02691650390625 80.02691650390625 C 75.80186462402344 84.25196075439453 70.88229370117188 87.56893157958984 65.40481567382812 89.88570404052734 C 59.73468017578125 92.28397369384766 53.71062850952148 93.5 47.5 93.5 Z" stroke="none"/>
                    <path d="M 47.5 3 C 41.49121475219727 3 35.66376876831055 4.176155090332031 30.17950439453125 6.495796203613281 C 24.88084411621094 8.736953735351562 20.12152099609375 11.94598388671875 16.03375244140625 16.03375244140625 C 11.94598388671875 20.12152099609375 8.736953735351562 24.88084411621094 6.495796203613281 30.17950439453125 C 4.176155090332031 35.66376876831055 3 41.49121475219727 3 47.5 C 3 53.50878524780273 4.176155090332031 59.33623123168945 6.495796203613281 64.82049560546875 C 8.736953735351562 70.11915588378906 11.94598388671875 74.87847900390625 16.03375244140625 78.96624755859375 C 20.12152099609375 83.05401611328125 24.88084411621094 86.26304626464844 30.17950439453125 88.50419616699219 C 35.66376876831055 90.82384490966797 41.49121475219727 92 47.5 92 C 53.50878524780273 92 59.33623123168945 90.82384490966797 64.82049560546875 88.50419616699219 C 70.11915588378906 86.26304626464844 74.87847900390625 83.05401611328125 78.96624755859375 78.96624755859375 C 83.05401611328125 74.87847900390625 86.26304626464844 70.11915588378906 88.50419616699219 64.82049560546875 C 90.82384490966797 59.33623123168945 92 53.50878524780273 92 47.5 C 92 41.49121475219727 90.82384490966797 35.66376876831055 88.50419616699219 30.17950439453125 C 86.26304626464844 24.88084411621094 83.05401611328125 20.12152099609375 78.96624755859375 16.03375244140625 C 74.87847900390625 11.94598388671875 70.11915588378906 8.736953735351562 64.82049560546875 6.495796203613281 C 59.33623123168945 4.176155090332031 53.50878524780273 3 47.5 3 M 47.5 0 C 73.7335205078125 0 95 21.2664794921875 95 47.5 C 95 73.7335205078125 73.7335205078125 95 47.5 95 C 21.2664794921875 95 0 73.7335205078125 0 47.5 C 0 21.2664794921875 21.2664794921875 0 47.5 0 Z" stroke="none" fill="#f5b104"/>
                  </g>
                </g>
              </g>
            </g>
          </g>
        </g>
      </g>
    </g>
    <g id="show-password_6207966" transform="translate(300.733 933.234)">
      <g id="Grupo_1210549" data-name="Grupo 1210549" transform="translate(0.813 0.814)">
        <path id="Trazado_1055142" data-name="Trazado 1055142" d="M303.883,105.943c-2.982,4.013-12.41,15.47-23.893,17.04,9.042-1.266,14.951-9.032,14.951-18.423S289.032,87.4,279.99,86.137c11.483,1.571,20.911,13.027,23.893,17.04A2.317,2.317,0,0,1,303.883,105.943Z" transform="translate(-250.436 -77.608)" fill="#fff8e6"/>
        <path id="Trazado_1055143" data-name="Trazado 1055143" d="M31.581,123.267c-11.36-1.711-20.665-13.02-23.624-17a2.317,2.317,0,0,1,0-2.766c2.959-3.982,12.264-15.291,23.624-17C22.67,87.88,17.23,95.584,17.23,104.882S22.67,121.885,31.581,123.267Z" transform="translate(-7.499 -77.93)" fill="#ffeab7"/>
        <path id="Trazado_1055144" data-name="Trazado 1055144" d="M188.986,107.458a18.611,18.611,0,0,1-14.165,18.071c-8.607-1.21-14.854-9.326-14.854-18.071s6.713-16.7,14.854-18.071A18.611,18.611,0,0,1,188.986,107.458Z" transform="translate(-143.43 -80.506)" fill="#83deff"/>
        <circle id="Elipse_12498" data-name="Elipse 12498" cx="7.888" cy="7.888" r="7.888" transform="translate(19.064 19.064)" fill="#7b849b"/>
        <path id="Trazado_1055145" data-name="Trazado 1055145" d="M107.523,121.151l-.013,0a18.6,18.6,0,1,1,0-36.148l.013,0a18.608,18.608,0,0,0,0,36.142Z" transform="translate(-76.132 -76.128)" fill="#5ad6ff"/>
        <path id="Trazado_1055146" data-name="Trazado 1055146" d="M59.233,61.405a2.169,2.169,0,0,1-1.539-.637L8.143,11.216a2.176,2.176,0,1,1,3.078-3.078L60.772,57.69a2.176,2.176,0,0,1-1.539,3.715Z" transform="translate(-7.505 -7.5)" fill="#ff8a98"/>
      </g>
      <path id="Trazado_1055147" data-name="Trazado 1055147" d="M44.6,40.375A58.932,58.932,0,0,0,54.909,29.634a3.114,3.114,0,0,0,0-3.737,59.558,59.558,0,0,0-9.847-10.373c-5.868-4.761-11.688-7.175-17.3-7.175a24.061,24.061,0,0,0-11.792,3.4L5.108.876A2.989,2.989,0,1,0,.88,5.1L10.931,15.157A58.933,58.933,0,0,0,.623,25.9a3.114,3.114,0,0,0,0,3.737c.722.971,1.508,1.961,2.337,2.941A.813.813,0,1,0,4.2,31.525c-.807-.954-1.572-1.917-2.273-2.861a1.5,1.5,0,0,1,0-1.8A57.1,57.1,0,0,1,12.084,16.319a19.4,19.4,0,0,0,.028,22.918A51.5,51.5,0,0,1,6.706,34.31a.813.813,0,1,0-1.175,1.125c5.131,5.359,13.154,11.747,22.234,11.747a24.062,24.062,0,0,0,11.792-3.4L50.424,54.656a2.989,2.989,0,1,0,4.227-4.228ZM35.346,23.493a.813.813,0,1,0-1.416.8,7.081,7.081,0,0,1,.483,5.893l-9.066-9.068a7.075,7.075,0,0,1,6.246.7.813.813,0,0,0,.882-1.367,8.7,8.7,0,0,0-8.372-.574l-6.622-6.623A17.584,17.584,0,0,1,27.766,9.976a17.809,17.809,0,0,1,17.787,17.79,17.591,17.591,0,0,1-3.274,10.287L35.656,31.43a8.7,8.7,0,0,0-.31-7.937ZM53.6,26.868a1.5,1.5,0,0,1,0,1.8A57.109,57.109,0,0,1,43.448,39.213a19.4,19.4,0,0,0-.006-22.887A57.649,57.649,0,0,1,53.6,26.868Zm-40.35-9.389L19.875,24.1A8.7,8.7,0,0,0,31.429,35.658l6.622,6.623a17.584,17.584,0,0,1-10.285,3.275A17.809,17.809,0,0,1,9.979,27.766a17.59,17.59,0,0,1,3.274-10.287Zm7.866,7.867,9.066,9.068a7.075,7.075,0,0,1-9.066-9.068ZM53.5,53.506a1.362,1.362,0,0,1-1.927,0L2.03,3.953A1.363,1.363,0,1,1,3.957,2.026L53.5,51.578a1.364,1.364,0,0,1,0,1.927Z" transform="translate(0 0)"/>
    </g>
  </g>
</svg>
