<svg xmlns="http://www.w3.org/2000/svg" xmlns:xlink="http://www.w3.org/1999/xlink" width="113" height="113" viewBox="0 0 113 113">
  <defs>
    <filter id="Trazado_982547" x="0" y="0" width="113" height="113" filterUnits="userSpaceOnUse">
      <feOffset dy="3" input="SourceAlpha"/>
      <feGaussianBlur stdDeviation="3" result="blur"/>
      <feFlood flood-opacity="0.161"/>
      <feComposite operator="in" in2="blur"/>
      <feComposite in="SourceGraphic"/>
    </filter>
  </defs>
  <g id="Grupo_1210555" data-name="Grupo 1210555" transform="translate(-587 -906)">
    <g id="Grupo_1210538" data-name="Grupo 1210538" transform="translate(315 -2277.67)">
      <g id="Grupo_1164202" data-name="Grupo 1164202" transform="translate(281 3189.67)">
        <g id="Grupo_1158168" data-name="Grupo 1158168" transform="translate(0)">
          <g id="Grupo_1152576" data-name="Grupo 1152576">
            <g id="Grupo_1148633" data-name="Grupo 1148633">
              <g id="Grupo_1148525" data-name="Grupo 1148525">
                <g transform="matrix(1, 0, 0, 1, -9, -6)" filter="url(#Trazado_982547)">
                  <g id="Trazado_982547-2" data-name="Trazado 982547" transform="translate(9 6)" fill="#fdf6e4">
                    <path d="M 47.5 93.5 C 41.28937149047852 93.5 35.26533508300781 92.28397369384766 29.59518623352051 89.88570404052734 C 24.11771965026855 87.56893157958984 19.19813346862793 84.25196075439453 14.97309303283691 80.02691650390625 C 10.74804019927979 75.80186462402344 7.431066513061523 70.88229370117188 5.114293098449707 65.40481567382812 C 2.716026782989502 59.73468017578125 1.5 53.71062850952148 1.5 47.5 C 1.5 41.28937149047852 2.716026782989502 35.26533508300781 5.114293098449707 29.59518623352051 C 7.431066513061523 24.11771965026855 10.74804019927979 19.19813346862793 14.97309303283691 14.97309303283691 C 19.19813346862793 10.74804019927979 24.11771965026855 7.431066513061523 29.59518623352051 5.114293098449707 C 35.26533508300781 2.716026782989502 41.28937149047852 1.5 47.5 1.5 C 53.71062850952148 1.5 59.73468017578125 2.716026782989502 65.40481567382812 5.114293098449707 C 70.88229370117188 7.431066513061523 75.80186462402344 10.74804019927979 80.02691650390625 14.97309303283691 C 84.25196075439453 19.19813346862793 87.56893157958984 24.11771965026855 89.88570404052734 29.59518623352051 C 92.28397369384766 35.26533508300781 93.5 41.28937149047852 93.5 47.5 C 93.5 53.71062850952148 92.28397369384766 59.73468017578125 89.88570404052734 65.40481567382812 C 87.56893157958984 70.88229370117188 84.25196075439453 75.80186462402344 80.02691650390625 80.02691650390625 C 75.80186462402344 84.25196075439453 70.88229370117188 87.56893157958984 65.40481567382812 89.88570404052734 C 59.73468017578125 92.28397369384766 53.71062850952148 93.5 47.5 93.5 Z" stroke="none"/>
                    <path d="M 47.5 3 C 41.49121475219727 3 35.66376876831055 4.176155090332031 30.17950439453125 6.495796203613281 C 24.88084411621094 8.736953735351562 20.12152099609375 11.94598388671875 16.03375244140625 16.03375244140625 C 11.94598388671875 20.12152099609375 8.736953735351562 24.88084411621094 6.495796203613281 30.17950439453125 C 4.176155090332031 35.66376876831055 3 41.49121475219727 3 47.5 C 3 53.50878524780273 4.176155090332031 59.33623123168945 6.495796203613281 64.82049560546875 C 8.736953735351562 70.11915588378906 11.94598388671875 74.87847900390625 16.03375244140625 78.96624755859375 C 20.12152099609375 83.05401611328125 24.88084411621094 86.26304626464844 30.17950439453125 88.50419616699219 C 35.66376876831055 90.82384490966797 41.49121475219727 92 47.5 92 C 53.50878524780273 92 59.33623123168945 90.82384490966797 64.82049560546875 88.50419616699219 C 70.11915588378906 86.26304626464844 74.87847900390625 83.05401611328125 78.96624755859375 78.96624755859375 C 83.05401611328125 74.87847900390625 86.26304626464844 70.11915588378906 88.50419616699219 64.82049560546875 C 90.82384490966797 59.33623123168945 92 53.50878524780273 92 47.5 C 92 41.49121475219727 90.82384490966797 35.66376876831055 88.50419616699219 30.17950439453125 C 86.26304626464844 24.88084411621094 83.05401611328125 20.12152099609375 78.96624755859375 16.03375244140625 C 74.87847900390625 11.94598388671875 70.11915588378906 8.736953735351562 64.82049560546875 6.495796203613281 C 59.33623123168945 4.176155090332031 53.50878524780273 3 47.5 3 M 47.5 0 C 73.7335205078125 0 95 21.2664794921875 95 47.5 C 95 73.7335205078125 73.7335205078125 95 47.5 95 C 21.2664794921875 95 0 73.7335205078125 0 47.5 C 0 21.2664794921875 21.2664794921875 0 47.5 0 Z" stroke="none" fill="#f5b104"/>
                  </g>
                </g>
              </g>
            </g>
          </g>
        </g>
      </g>
    </g>
    <g id="deaf_5759977" transform="translate(595.759 926)">
      <g id="Grupo_1210553" data-name="Grupo 1210553" transform="translate(18.2 0.964)">
        <path id="Trazado_1055148" data-name="Trazado 1055148" d="M46.667,7.5A22.515,22.515,0,0,1,69.182,30.015V55.669A15.74,15.74,0,0,1,39.5,62.981L27.247,39.617A21.929,21.929,0,0,1,46.667,7.5Z" transform="translate(-24.708 -7.5)" fill="#fff3de"/>
        <path id="Trazado_1055149" data-name="Trazado 1055149" d="M56.018,71.2A15.781,15.781,0,0,1,45.3,69.137,15.717,15.717,0,0,1,39.5,62.981L27.247,39.617A21.93,21.93,0,0,1,46.667,7.5a22.856,22.856,0,0,1,2.567.144A21.937,21.937,0,0,0,32.379,39.617L44.636,62.981A15.738,15.738,0,0,0,56.018,71.2Z" transform="translate(-24.708 -7.5)" fill="#ffe5c2"/>
        <path id="Trazado_1055150" data-name="Trazado 1055150" d="M121.115,91.153v.336a4.535,4.535,0,0,1-.163,1.211,4.376,4.376,0,0,1-2.344,2.823,5.9,5.9,0,0,0-1.207,9.93,4.065,4.065,0,0,1,1.485,3.558,3.969,3.969,0,0,1-2.253,3.251,3.084,3.084,0,0,1-1.333.323,17.66,17.66,0,0,1-15.638-9.455l-3.509-6.689a12.928,12.928,0,0,1,11.585-18.933A13.6,13.6,0,0,1,121.115,91.153Z" transform="translate(-85.641 -68.503)" fill="#fed2a4"/>
        <path id="Trazado_1055151" data-name="Trazado 1055151" d="M224.729,197.17a5.889,5.889,0,0,0,2.186,4.585,4.065,4.065,0,0,1,1.485,3.558,6.677,6.677,0,0,1-8.092-6.518V194.69A6.672,6.672,0,0,1,230.466,189a4.376,4.376,0,0,1-2.344,2.823,5.9,5.9,0,0,0-3.393,5.344Z" transform="translate(-195.156 -164.807)" fill="#ffbd86"/>
        <g id="Grupo_1210552" data-name="Grupo 1210552" transform="translate(37.79 21.184)">
          <path id="Trazado_1055152" data-name="Trazado 1055152" d="M334.087,183.09l5.578-5.578a2.1,2.1,0,0,0,0-2.972l-1.68-1.68a2.1,2.1,0,0,0-2.972,0l-5.578,5.578-5.578-5.578a2.1,2.1,0,0,0-2.972,0l-1.68,1.68a2.1,2.1,0,0,0,0,2.972l5.578,5.578-5.578,5.578a2.1,2.1,0,0,0,0,2.972l1.68,1.68a2.1,2.1,0,0,0,2.972,0l5.578-5.578,5.578,5.578a2.1,2.1,0,0,0,2.972,0l1.68-1.68a2.1,2.1,0,0,0,0-2.972Z" transform="translate(-318.59 -172.245)" fill="#fe646f"/>
          <g id="Grupo_1210551" data-name="Grupo 1210551">
            <path id="Trazado_1055153" data-name="Trazado 1055153" d="M404.442,179.954l7.063-7.063-.03-.03a2.1,2.1,0,0,0-2.972,0l-5.578,5.578Z" transform="translate(-392.081 -172.245)" fill="#fd4755"/>
            <path id="Trazado_1055154" data-name="Trazado 1055154" d="M404.442,280.966l-1.516,1.516,5.578,5.577a2.1,2.1,0,0,0,2.972,0l.03-.03Z" transform="translate(-392.081 -266.986)" fill="#fd4755"/>
            <path id="Trazado_1055155" data-name="Trazado 1055155" d="M322.238,191.639a2.1,2.1,0,0,1,0-2.972l5.578-5.578-5.578-5.578a2.1,2.1,0,0,1,0-2.972l1.65-1.65-.03-.03a2.1,2.1,0,0,0-2.972,0l-1.68,1.68a2.1,2.1,0,0,0,0,2.972l5.578,5.578-5.578,5.578a2.1,2.1,0,0,0,0,2.972l1.68,1.68a2.1,2.1,0,0,0,2.972,0l.03-.03Z" transform="translate(-318.59 -172.245)" fill="#fd4755"/>
          </g>
        </g>
      </g>
      <g id="Grupo_1210554" data-name="Grupo 1210554" transform="translate(17.24 0)">
        <path id="Trazado_1055156" data-name="Trazado 1055156" d="M112.462,89.856a5.417,5.417,0,0,0,3.061-4.907v-.336A14.589,14.589,0,0,0,101.189,70h-.147a13.893,13.893,0,0,0-12.3,20.347l3.51,6.69a.964.964,0,0,0,1.708-.9l-3.51-6.69a11.965,11.965,0,0,1,10.721-17.522,12.654,12.654,0,0,1,12.423,12.683v.336a3.619,3.619,0,0,1-.077.741A12.569,12.569,0,0,0,110.01,81a12.281,12.281,0,0,0-7.689-2.817,11.909,11.909,0,0,0-4.853.95.964.964,0,0,0,.76,1.773,10.012,10.012,0,0,1,4.074-.794,10.208,10.208,0,0,1,6.478,2.374,10.631,10.631,0,0,1,3.433,5.274,3.259,3.259,0,0,1-.572.347,6.867,6.867,0,0,0-1.348,11.6,2.974,2.974,0,0,1,1.12,2.573,3.016,3.016,0,0,1-1.485,2.428,2.36,2.36,0,0,1-1.186.371.964.964,0,0,0,0,1.929,4.249,4.249,0,0,0,2.167-.639,4.99,4.99,0,0,0,.583-8.173,4.938,4.938,0,0,1,.969-8.34Z" transform="translate(-78.125 -60.999)"/>
        <path id="Trazado_1055157" data-name="Trazado 1055157" d="M77.746,37.889l-4.9-4.9,4.9-4.9a3.073,3.073,0,0,0,0-4.336l-1.679-1.679a3.07,3.07,0,0,0-4.336,0l-4.9,4.9-3.2-3.2v-.3A23.506,23.506,0,0,0,40.16,0,22.893,22.893,0,0,0,19.887,33.53L21.3,36.224a.964.964,0,0,0,1.708-.9L21.6,32.634A20.965,20.965,0,0,1,40.16,1.929a21.579,21.579,0,0,1,21.487,19.9,3.07,3.07,0,0,0-4.043.253l-1.681,1.68a3.073,3.073,0,0,0,0,4.336l4.9,4.895-4.9,4.9a3.066,3.066,0,0,0,0,4.336L57.6,43.9a3.071,3.071,0,0,0,4.106.207v5.022A14.774,14.774,0,0,1,33.852,56l-8.793-16.76a.964.964,0,1,0-1.708.9l8.793,16.76a16.7,16.7,0,0,0,31.5-7.759V42.2l3.2-3.2,1.183,1.182a.964.964,0,1,0,1.363-1.364l-1.865-1.863a.964.964,0,0,0-1.364,0L60.576,42.54a1.139,1.139,0,0,1-1.609,0l-1.68-1.679a1.137,1.137,0,0,1,0-1.608l5.578-5.578a.964.964,0,0,0,0-1.364l-5.578-5.576a1.141,1.141,0,0,1,0-1.609l1.681-1.68a1.139,1.139,0,0,1,1.608,0l5.577,5.578a.964.964,0,0,0,1.364,0l5.578-5.578a1.138,1.138,0,0,1,1.608,0l1.679,1.679a1.141,1.141,0,0,1,0,1.61l-5.577,5.577a.964.964,0,0,0,0,1.364l5.577,5.578a1.138,1.138,0,0,1,0,1.608L74.7,42.54a1.138,1.138,0,0,1-1.608,0L72.556,42a.964.964,0,1,0-1.364,1.364l.539.539a3.069,3.069,0,0,0,4.335,0l1.679-1.679a3.065,3.065,0,0,0,0-4.335Z" transform="translate(-17.24 0)"/>
      </g>
    </g>
  </g>
</svg>
