<svg xmlns="http://www.w3.org/2000/svg" xmlns:xlink="http://www.w3.org/1999/xlink" width="113" height="113" viewBox="0 0 113 113">
  <defs>
    <filter id="Trazado_982547" x="0" y="0" width="113" height="113" filterUnits="userSpaceOnUse">
      <feOffset dy="3" input="SourceAlpha"/>
      <feGaussianBlur stdDeviation="3" result="blur"/>
      <feFlood flood-opacity="0.161"/>
      <feComposite operator="in" in2="blur"/>
      <feComposite in="SourceGraphic"/>
    </filter>
  </defs>
  <g id="Grupo_1211548" data-name="Grupo 1211548" transform="translate(-900.25 -905.626)">
    <g id="Grupo_1210539" data-name="Grupo 1210539" transform="translate(628.25 -2278.044)">
      <g id="Grupo_1164202" data-name="Grupo 1164202" transform="translate(281 3189.67)">
        <g id="Grupo_1158168" data-name="Grupo 1158168" transform="translate(0)">
          <g id="Grupo_1152576" data-name="Grupo 1152576">
            <g id="Grupo_1148633" data-name="Grupo 1148633">
              <g id="Grupo_1148525" data-name="Grupo 1148525">
                <g transform="matrix(1, 0, 0, 1, -9, -6)" filter="url(#Trazado_982547)">
                  <g id="Trazado_982547-2" data-name="Trazado 982547" transform="translate(9 6)" fill="#fdf6e4">
                    <path d="M 47.5 93.5 C 41.28937149047852 93.5 35.26533508300781 92.28397369384766 29.59518623352051 89.88570404052734 C 24.11771965026855 87.56893157958984 19.19813346862793 84.25196075439453 14.97309303283691 80.02691650390625 C 10.74804019927979 75.80186462402344 7.431066513061523 70.88229370117188 5.114293098449707 65.40481567382812 C 2.716026782989502 59.73468017578125 1.5 53.71062850952148 1.5 47.5 C 1.5 41.28937149047852 2.716026782989502 35.26533508300781 5.114293098449707 29.59518623352051 C 7.431066513061523 24.11771965026855 10.74804019927979 19.19813346862793 14.97309303283691 14.97309303283691 C 19.19813346862793 10.74804019927979 24.11771965026855 7.431066513061523 29.59518623352051 5.114293098449707 C 35.26533508300781 2.716026782989502 41.28937149047852 1.5 47.5 1.5 C 53.71062850952148 1.5 59.73468017578125 2.716026782989502 65.40481567382812 5.114293098449707 C 70.88229370117188 7.431066513061523 75.80186462402344 10.74804019927979 80.02691650390625 14.97309303283691 C 84.25196075439453 19.19813346862793 87.56893157958984 24.11771965026855 89.88570404052734 29.59518623352051 C 92.28397369384766 35.26533508300781 93.5 41.28937149047852 93.5 47.5 C 93.5 53.71062850952148 92.28397369384766 59.73468017578125 89.88570404052734 65.40481567382812 C 87.56893157958984 70.88229370117188 84.25196075439453 75.80186462402344 80.02691650390625 80.02691650390625 C 75.80186462402344 84.25196075439453 70.88229370117188 87.56893157958984 65.40481567382812 89.88570404052734 C 59.73468017578125 92.28397369384766 53.71062850952148 93.5 47.5 93.5 Z" stroke="none"/>
                    <path d="M 47.5 3 C 41.49121475219727 3 35.66376876831055 4.176155090332031 30.17950439453125 6.495796203613281 C 24.88084411621094 8.736953735351562 20.12152099609375 11.94598388671875 16.03375244140625 16.03375244140625 C 11.94598388671875 20.12152099609375 8.736953735351562 24.88084411621094 6.495796203613281 30.17950439453125 C 4.176155090332031 35.66376876831055 3 41.49121475219727 3 47.5 C 3 53.50878524780273 4.176155090332031 59.33623123168945 6.495796203613281 64.82049560546875 C 8.736953735351562 70.11915588378906 11.94598388671875 74.87847900390625 16.03375244140625 78.96624755859375 C 20.12152099609375 83.05401611328125 24.88084411621094 86.26304626464844 30.17950439453125 88.50419616699219 C 35.66376876831055 90.82384490966797 41.49121475219727 92 47.5 92 C 53.50878524780273 92 59.33623123168945 90.82384490966797 64.82049560546875 88.50419616699219 C 70.11915588378906 86.26304626464844 74.87847900390625 83.05401611328125 78.96624755859375 78.96624755859375 C 83.05401611328125 74.87847900390625 86.26304626464844 70.11915588378906 88.50419616699219 64.82049560546875 C 90.82384490966797 59.33623123168945 92 53.50878524780273 92 47.5 C 92 41.49121475219727 90.82384490966797 35.66376876831055 88.50419616699219 30.17950439453125 C 86.26304626464844 24.88084411621094 83.05401611328125 20.12152099609375 78.96624755859375 16.03375244140625 C 74.87847900390625 11.94598388671875 70.11915588378906 8.736953735351562 64.82049560546875 6.495796203613281 C 59.33623123168945 4.176155090332031 53.50878524780273 3 47.5 3 M 47.5 0 C 73.7335205078125 0 95 21.2664794921875 95 47.5 C 95 73.7335205078125 73.7335205078125 95 47.5 95 C 21.2664794921875 95 0 73.7335205078125 0 47.5 C 0 21.2664794921875 21.2664794921875 0 47.5 0 Z" stroke="none" fill="#f5b104"/>
                  </g>
                </g>
              </g>
            </g>
          </g>
        </g>
      </g>
    </g>
    <g id="Typewriter" transform="translate(923.733 922.923)">
      <rect id="Rectángulo_420813" data-name="Rectángulo 420813" width="60" height="21" rx="1" transform="translate(3.267 12.077)" fill="#3d9ae2"/>
      <path id="Trazado_1055158" data-name="Trazado 1055158" d="M41,53H55.591v8.338H41Z" transform="translate(1.647 1.773)" fill="#5aaae7"/>
      <path id="Trazado_1055159" data-name="Trazado 1055159" d="M56.676,47v6.253H40V47H56.676Z" transform="translate(1.604 1.52)" fill="#3d9ae2"/>
      <path id="Trazado_1055160" data-name="Trazado 1055160" d="M59.844,30.3V32.38H39V31.338a2.084,2.084,0,0,1,4.169,0V26.127a2.084,2.084,0,0,1,4.169,0V25.084a2.084,2.084,0,0,1,4.169,0v1.042a2.084,2.084,0,0,1,4.169,0V30.3a2.084,2.084,0,0,1,4.169,0Z" transform="translate(1.562 0.507)" fill="#1e81ce"/>
      <path id="Trazado_1055161" data-name="Trazado 1055161" d="M24.676,47v6.253H8V47H24.676Z" transform="translate(0.253 1.52)" fill="#3d9ae2"/>
      <path id="Trazado_1055162" data-name="Trazado 1055162" d="M9,53H23.591v8.338H9Z" transform="translate(0.296 1.773)" fill="#5aaae7"/>
      <path id="Trazado_1055163" data-name="Trazado 1055163" d="M29.844,31.338V32.38H9V30.3a2.084,2.084,0,0,1,4.169,0V26.127a2.084,2.084,0,1,1,4.169,0V25.084a2.084,2.084,0,0,1,4.169,0v1.042a2.084,2.084,0,0,1,4.169,0v5.211a2.084,2.084,0,0,1,4.169,0Z" transform="translate(0.296 0.507)" fill="#1e81ce"/>
      <path id="Trazado_1055164" data-name="Trazado 1055164" d="M25.76,29.253a2.1,2.1,0,0,0-2.084,2.084V26.127a2.084,2.084,0,1,0-4.169,0V25.084a2.084,2.084,0,0,0-4.169,0v1.042a2.084,2.084,0,0,0-4.169,0V30.3A2.084,2.084,0,0,0,7,30.3V40.718l3.127,5.211v2.084H23.676V45.929l4.169-4.169V31.338A2.091,2.091,0,0,0,25.76,29.253Z" transform="translate(0.211 0.507)" fill="#ffc477"/>
      <path id="Trazado_1055165" data-name="Trazado 1055165" d="M57.229,28.826a2.038,2.038,0,0,0-1.47-.615A2.091,2.091,0,0,0,53.676,30.3V26.127a2.084,2.084,0,1,0-4.169,0V25.084a2.084,2.084,0,1,0-4.169,0v1.042a2.084,2.084,0,1,0-4.169,0v5.211a2.084,2.084,0,0,0-4.169,0V41.76l4.169,4.169v2.084H54.718V45.929l3.127-5.211V30.3A2.038,2.038,0,0,0,57.229,28.826Z" transform="translate(1.478 0.507)" fill="#ffc477"/>
      <path id="Trazado_1055166" data-name="Trazado 1055166" d="M62.449,11H4.084A2.084,2.084,0,0,0,2,13.084v18.76a2.084,2.084,0,0,0,2.084,2.084H6.169v7.3a1.042,1.042,0,0,0,.149.537L9.3,46.724v.754H8.253A1.042,1.042,0,0,0,7.211,48.52v6.253a1.042,1.042,0,0,0,1.042,1.042v7.3A1.042,1.042,0,0,0,9.3,64.153H23.887a1.042,1.042,0,0,0,1.042-1.042v-7.3a1.042,1.042,0,0,0,1.042-1.042V48.52a1.042,1.042,0,0,0-1.042-1.042v-.611L28.792,43a1.042,1.042,0,0,0,.305-.737V33.929h8.338v8.338a1.042,1.042,0,0,0,.305.737L41.6,46.867v.611a1.042,1.042,0,0,0-1.042,1.042v6.253A1.042,1.042,0,0,0,41.6,55.815v7.3a1.042,1.042,0,0,0,1.042,1.042H57.238a1.042,1.042,0,0,0,1.042-1.042v-7.3a1.042,1.042,0,0,0,1.042-1.042V48.52a1.042,1.042,0,0,0-1.042-1.042H57.238v-.754l2.978-4.963a1.042,1.042,0,0,0,.149-.537v-7.3h2.084a2.084,2.084,0,0,0,2.084-2.084V13.084A2.084,2.084,0,0,0,62.449,11ZM9.3,49.562H23.887v4.169H9.3ZM22.844,62.069H10.338V55.815H22.844Zm4.169-20.234L23.15,45.7a1.042,1.042,0,0,0-.305.737v1.042H11.38V46.435a1.042,1.042,0,0,0-.149-.537L8.253,40.936V30.8a1.042,1.042,0,0,1,2.084,0v3.127a1.042,1.042,0,0,0,2.084,0v-7.3a1.042,1.042,0,0,1,2.084,0v7.3a1.042,1.042,0,0,0,2.084,0V25.591a1.042,1.042,0,1,1,2.084,0v8.338a1.042,1.042,0,0,0,2.084,0v-7.3a1.042,1.042,0,0,1,2.084,0V38.1a1.042,1.042,0,0,0,2.084,0V31.844a1.042,1.042,0,0,1,2.084,0ZM29.1,31.844a3.107,3.107,0,0,0-.813-2.084h9.964a3.107,3.107,0,0,0-.813,2.084Zm28.14,17.718v4.169H42.647V49.562ZM56.2,62.069H43.689V55.815H56.2ZM58.28,40.936,55.3,45.9a1.042,1.042,0,0,0-.149.537v1.042H43.689V46.435a1.042,1.042,0,0,0-.305-.737L39.52,41.835V31.844a1.042,1.042,0,1,1,2.084,0V38.1a1.042,1.042,0,0,0,2.084,0V26.633a1.042,1.042,0,0,1,2.084,0v7.3a1.042,1.042,0,0,0,2.084,0V25.591a1.042,1.042,0,1,1,2.084,0v8.338a1.042,1.042,0,0,0,2.084,0v-7.3a1.042,1.042,0,1,1,2.084,0v7.3a1.042,1.042,0,0,0,2.084,0V30.8a1.042,1.042,0,1,1,2.084,0Zm4.169-9.091H60.364V30.8A3.127,3.127,0,0,0,56.2,27.854v-1.22a3.127,3.127,0,0,0-4.661-2.724,3.127,3.127,0,0,0-5.269,0A3.127,3.127,0,0,0,41.6,26.633v1.042H24.929V26.633a3.127,3.127,0,0,0-4.661-2.724,3.127,3.127,0,0,0-5.269,0,3.127,3.127,0,0,0-4.661,2.724v1.22A3.127,3.127,0,0,0,6.169,30.8v1.042H4.084V13.084H62.449Z" transform="translate(0)"/>
      <path id="Trazado_1055167" data-name="Trazado 1055167" d="M25,23h2.084v2.084H25Z" transform="translate(0.971 0.507)"/>
      <path id="Trazado_1055168" data-name="Trazado 1055168" d="M29,23h2.084v2.084H29Z" transform="translate(1.14 0.507)"/>
      <path id="Trazado_1055169" data-name="Trazado 1055169" d="M33,23h2.084v2.084H33Z" transform="translate(1.309 0.507)"/>
      <path id="Trazado_1055170" data-name="Trazado 1055170" d="M37,23h2.084v2.084H37Z" transform="translate(1.478 0.507)"/>
      <path id="Trazado_1055171" data-name="Trazado 1055171" d="M17,19h2.084v2.084H17Z" transform="translate(0.633 0.338)"/>
      <path id="Trazado_1055172" data-name="Trazado 1055172" d="M13,19h2.084v2.084H13Z" transform="translate(0.464 0.338)"/>
      <path id="Trazado_1055173" data-name="Trazado 1055173" d="M21,19h2.084v2.084H21Z" transform="translate(0.802 0.338)"/>
      <path id="Trazado_1055174" data-name="Trazado 1055174" d="M25,19h2.084v2.084H25Z" transform="translate(0.971 0.338)"/>
      <path id="Trazado_1055175" data-name="Trazado 1055175" d="M29,19h2.084v2.084H29Z" transform="translate(1.14 0.338)"/>
      <path id="Trazado_1055176" data-name="Trazado 1055176" d="M33,19h2.084v2.084H33Z" transform="translate(1.309 0.338)"/>
      <path id="Trazado_1055177" data-name="Trazado 1055177" d="M37,19h2.084v2.084H37Z" transform="translate(1.478 0.338)"/>
      <path id="Trazado_1055178" data-name="Trazado 1055178" d="M41,19h2.084v2.084H41Z" transform="translate(1.647 0.338)"/>
      <path id="Trazado_1055179" data-name="Trazado 1055179" d="M45,19h2.084v2.084H45Z" transform="translate(1.815 0.338)"/>
      <path id="Trazado_1055180" data-name="Trazado 1055180" d="M49,19h2.084v2.084H49Z" transform="translate(1.984 0.338)"/>
      <path id="Trazado_1055181" data-name="Trazado 1055181" d="M17,15h2.084v2.084H17Z" transform="translate(0.633 0.169)"/>
      <path id="Trazado_1055182" data-name="Trazado 1055182" d="M13,15h2.084v2.084H13Z" transform="translate(0.464 0.169)"/>
      <path id="Trazado_1055183" data-name="Trazado 1055183" d="M9,19h2.084v2.084H9Z" transform="translate(0.296 0.338)"/>
      <path id="Trazado_1055184" data-name="Trazado 1055184" d="M9,15h2.084v2.084H9Z" transform="translate(0.296 0.169)"/>
      <path id="Trazado_1055185" data-name="Trazado 1055185" d="M21,15h2.084v2.084H21Z" transform="translate(0.802 0.169)"/>
      <path id="Trazado_1055186" data-name="Trazado 1055186" d="M25,15h2.084v2.084H25Z" transform="translate(0.971 0.169)"/>
      <path id="Trazado_1055187" data-name="Trazado 1055187" d="M29,15h2.084v2.084H29Z" transform="translate(1.14 0.169)"/>
      <path id="Trazado_1055188" data-name="Trazado 1055188" d="M33,15h2.084v2.084H33Z" transform="translate(1.309 0.169)"/>
      <path id="Trazado_1055189" data-name="Trazado 1055189" d="M37,15h2.084v2.084H37Z" transform="translate(1.478 0.169)"/>
      <path id="Trazado_1055190" data-name="Trazado 1055190" d="M41,15h2.084v2.084H41Z" transform="translate(1.647 0.169)"/>
      <path id="Trazado_1055191" data-name="Trazado 1055191" d="M45,15h2.084v2.084H45Z" transform="translate(1.815 0.169)"/>
      <path id="Trazado_1055192" data-name="Trazado 1055192" d="M49,15h2.084v2.084H49Z" transform="translate(1.984 0.169)"/>
      <path id="Trazado_1055193" data-name="Trazado 1055193" d="M53,19h2.084v2.084H53Z" transform="translate(2.153 0.338)"/>
      <path id="Trazado_1055194" data-name="Trazado 1055194" d="M53,15h2.084v2.084H53Z" transform="translate(2.153 0.169)"/>
      <path id="Trazado_1055195" data-name="Trazado 1055195" d="M50,56h2.084v2.084H50Z" transform="translate(2.027 1.9)"/>
      <path id="Trazado_1055196" data-name="Trazado 1055196" d="M12,56h2.084v2.084H12Z" transform="translate(0.422 1.9)"/>
    </g>
  </g>
</svg>
