<svg xmlns="http://www.w3.org/2000/svg" xmlns:xlink="http://www.w3.org/1999/xlink" width="113" height="113" viewBox="0 0 113 113">
  <defs>
    <filter id="Trazado_982547" x="0" y="0" width="113" height="113" filterUnits="userSpaceOnUse">
      <feOffset dy="3" input="SourceAlpha"/>
      <feGaussianBlur stdDeviation="3" result="blur"/>
      <feFlood flood-opacity="0.161"/>
      <feComposite operator="in" in2="blur"/>
      <feComposite in="SourceGraphic"/>
    </filter>
  </defs>
  <g id="Grupo_1210557" data-name="Grupo 1210557" transform="translate(-1215.25 -905.626)">
    <g id="Grupo_1210540" data-name="Grupo 1210540" transform="translate(943.25 -2278.044)">
      <g id="Grupo_1164202" data-name="Grupo 1164202" transform="translate(281 3189.67)">
        <g id="Grupo_1158168" data-name="Grupo 1158168" transform="translate(0)">
          <g id="Grupo_1152576" data-name="Grupo 1152576">
            <g id="Grupo_1148633" data-name="Grupo 1148633">
              <g id="Grupo_1148525" data-name="Grupo 1148525">
                <g transform="matrix(1, 0, 0, 1, -9, -6)" filter="url(#Trazado_982547)">
                  <g id="Trazado_982547-2" data-name="Trazado 982547" transform="translate(9 6)" fill="#fdf6e4">
                    <path d="M 47.5 93.5 C 41.28937149047852 93.5 35.26533508300781 92.28397369384766 29.59518623352051 89.88570404052734 C 24.11771965026855 87.56893157958984 19.19813346862793 84.25196075439453 14.97309303283691 80.02691650390625 C 10.74804019927979 75.80186462402344 7.431066513061523 70.88229370117188 5.114293098449707 65.40481567382812 C 2.716026782989502 59.73468017578125 1.5 53.71062850952148 1.5 47.5 C 1.5 41.28937149047852 2.716026782989502 35.26533508300781 5.114293098449707 29.59518623352051 C 7.431066513061523 24.11771965026855 10.74804019927979 19.19813346862793 14.97309303283691 14.97309303283691 C 19.19813346862793 10.74804019927979 24.11771965026855 7.431066513061523 29.59518623352051 5.114293098449707 C 35.26533508300781 2.716026782989502 41.28937149047852 1.5 47.5 1.5 C 53.71062850952148 1.5 59.73468017578125 2.716026782989502 65.40481567382812 5.114293098449707 C 70.88229370117188 7.431066513061523 75.80186462402344 10.74804019927979 80.02691650390625 14.97309303283691 C 84.25196075439453 19.19813346862793 87.56893157958984 24.11771965026855 89.88570404052734 29.59518623352051 C 92.28397369384766 35.26533508300781 93.5 41.28937149047852 93.5 47.5 C 93.5 53.71062850952148 92.28397369384766 59.73468017578125 89.88570404052734 65.40481567382812 C 87.56893157958984 70.88229370117188 84.25196075439453 75.80186462402344 80.02691650390625 80.02691650390625 C 75.80186462402344 84.25196075439453 70.88229370117188 87.56893157958984 65.40481567382812 89.88570404052734 C 59.73468017578125 92.28397369384766 53.71062850952148 93.5 47.5 93.5 Z" stroke="none"/>
                    <path d="M 47.5 3 C 41.49121475219727 3 35.66376876831055 4.176155090332031 30.17950439453125 6.495796203613281 C 24.88084411621094 8.736953735351562 20.12152099609375 11.94598388671875 16.03375244140625 16.03375244140625 C 11.94598388671875 20.12152099609375 8.736953735351562 24.88084411621094 6.495796203613281 30.17950439453125 C 4.176155090332031 35.66376876831055 3 41.49121475219727 3 47.5 C 3 53.50878524780273 4.176155090332031 59.33623123168945 6.495796203613281 64.82049560546875 C 8.736953735351562 70.11915588378906 11.94598388671875 74.87847900390625 16.03375244140625 78.96624755859375 C 20.12152099609375 83.05401611328125 24.88084411621094 86.26304626464844 30.17950439453125 88.50419616699219 C 35.66376876831055 90.82384490966797 41.49121475219727 92 47.5 92 C 53.50878524780273 92 59.33623123168945 90.82384490966797 64.82049560546875 88.50419616699219 C 70.11915588378906 86.26304626464844 74.87847900390625 83.05401611328125 78.96624755859375 78.96624755859375 C 83.05401611328125 74.87847900390625 86.26304626464844 70.11915588378906 88.50419616699219 64.82049560546875 C 90.82384490966797 59.33623123168945 92 53.50878524780273 92 47.5 C 92 41.49121475219727 90.82384490966797 35.66376876831055 88.50419616699219 30.17950439453125 C 86.26304626464844 24.88084411621094 83.05401611328125 20.12152099609375 78.96624755859375 16.03375244140625 C 74.87847900390625 11.94598388671875 70.11915588378906 8.736953735351562 64.82049560546875 6.495796203613281 C 59.33623123168945 4.176155090332031 53.50878524780273 3 47.5 3 M 47.5 0 C 73.7335205078125 0 95 21.2664794921875 95 47.5 C 95 73.7335205078125 73.7335205078125 95 47.5 95 C 21.2664794921875 95 0 73.7335205078125 0 47.5 C 0 21.2664794921875 21.2664794921875 0 47.5 0 Z" stroke="none" fill="#f5b104"/>
                  </g>
                </g>
              </g>
            </g>
          </g>
        </g>
      </g>
    </g>
    <g id="language-learning_3221596" transform="translate(1174.452 922.706)">
      <path id="Trazado_1055197" data-name="Trazado 1055197" d="M220.055,148.467l-3.147-4.251a3.668,3.668,0,0,1-.72-2.183v-7.764h-29.71V175.09h16.91V163.979h2.678a10.122,10.122,0,0,0,10.122-10.122,2.963,2.963,0,0,1,1.629-2.646l1.8-.909A1.233,1.233,0,0,0,220.055,148.467Z" transform="translate(-100.048 -115.167)" fill="#f1d0a5"/>
      <path id="Trazado_1055198" data-name="Trazado 1055198" d="M220.056,148.467l-3.147-4.251a3.668,3.668,0,0,1-.72-2.183v-7.764h-29.71l5.25,6.755a1.49,1.49,0,0,1,1.49-1.49h16.952a2.5,2.5,0,0,1,2.5,2.5,3.669,3.669,0,0,0,.72,2.183l1.946,2.629a2.934,2.934,0,0,1-1.037,4.366,2.963,2.963,0,0,0-1.629,2.646,10.122,10.122,0,0,1-10.122,10.122H199.87V175.09h3.519V163.979h2.678a10.122,10.122,0,0,0,10.122-10.122,2.963,2.963,0,0,1,1.629-2.646l1.8-.909A1.233,1.233,0,0,0,220.056,148.467Z" transform="translate(-100.049 -115.167)" fill="#f1b986"/>
      <path id="Trazado_1055199" data-name="Trazado 1055199" d="M191.028,429.815,180.7,432.975a1.88,1.88,0,0,1-1.1,0l-10.332-3.159a1.879,1.879,0,0,1-1.329-1.8v-5.9a.911.911,0,0,1,.911-.911h22.6a.911.911,0,0,1,.911.911v5.9A1.879,1.879,0,0,1,191.028,429.815Z" transform="translate(-84.144 -361.284)" fill="#dd636e"/>
      <path id="Trazado_1055200" data-name="Trazado 1055200" d="M256.112,428.019v-5.9a.911.911,0,0,0-.911-.911H249.58c-1.081,3.422-3.225,8.167-7.315,11.435l1.087.332a1.88,1.88,0,0,0,1.1,0l10.332-3.159A1.879,1.879,0,0,0,256.112,428.019Z" transform="translate(-147.898 -361.284)" fill="#c63d4f"/>
      <path id="Trazado_1055201" data-name="Trazado 1055201" d="M171.812,65.81H146.549a9.461,9.461,0,0,0-9.461,9.461V89.459a9.474,9.474,0,0,0,9.474,9.474,2.8,2.8,0,0,0,2.8-2.8V79.577a1.49,1.49,0,0,1,1.49-1.49h23.9a4.666,4.666,0,0,0,4.666-4.666A7.611,7.611,0,0,0,171.812,65.81Z" transform="translate(-57.684 -56.448)" fill="#365e7d"/>
      <path id="Trazado_1055202" data-name="Trazado 1055202" d="M183.874,153.6v16.552a2.8,2.8,0,0,1-1.227,2.318,9.457,9.457,0,0,0,2.992.485,2.8,2.8,0,0,0,2.8-2.8V153.6a1.49,1.49,0,0,1,1.49-1.49h-4.568a1.49,1.49,0,0,0-1.49,1.49Z" transform="translate(-96.762 -130.468)" fill="#2b4d66"/>
      <path id="Trazado_1055203" data-name="Trazado 1055203" d="M353.625,65.81h-4.568a7.611,7.611,0,0,1,7.611,7.611A4.666,4.666,0,0,1,352,78.087h4.568a4.666,4.666,0,0,0,4.666-4.666A7.611,7.611,0,0,0,353.625,65.81Z" transform="translate(-239.498 -56.448)" fill="#2b4d66"/>
      <circle id="Elipse_12499" data-name="Elipse 12499" cx="8.501" cy="8.501" r="8.501" transform="translate(87.185 1.067)" fill="#f6e266"/>
      <path id="Trazado_1055204" data-name="Trazado 1055204" d="M238.121,7.5a8.506,8.506,0,0,0-2.225.3,8.5,8.5,0,0,1,.617,16.551A8.5,8.5,0,1,0,238.121,7.5Z" transform="translate(-142.435 -6.433)" fill="#ecbe6b"/>
      <circle id="Elipse_12500" data-name="Elipse 12500" cx="8.501" cy="8.501" r="8.501" transform="translate(70.903 19.768)" fill="#9dc6fb"/>
      <path id="Trazado_1055205" data-name="Trazado 1055205" d="M123.67,138.954a8.506,8.506,0,0,0-2.225.3,8.5,8.5,0,0,1,.617,16.551,8.5,8.5,0,1,0,1.609-16.847Z" transform="translate(-44.267 -119.186)" fill="#8993da"/>
      <g id="Grupo_1210556" data-name="Grupo 1210556" transform="translate(69.836 0)">
        <path id="Trazado_1055206" data-name="Trazado 1055206" d="M328.756,184.762a1.067,1.067,0,0,0-1.067,1.067v1.834a1.067,1.067,0,1,0,2.134,0v-1.834A1.067,1.067,0,0,0,328.756,184.762Z" transform="translate(-291.006 -158.477)"/>
        <path id="Trazado_1055207" data-name="Trazado 1055207" d="M117.718,28.413a2.619,2.619,0,0,1-.511-1.548V22.7a5.739,5.739,0,0,0,5.6-5.729A8.688,8.688,0,0,0,114.127,8.3h-8.961a9.564,9.564,0,0,0-15.5-6.159,1.067,1.067,0,1,0,1.345,1.657,7.348,7.348,0,0,1,4.68-1.659,7.435,7.435,0,1,1-6.913,4.7,1.067,1.067,0,0,0-1.984-.785,9.517,9.517,0,0,0-.625,2.6,10.577,10.577,0,0,0-7.825,10.115A9.567,9.567,0,0,0,79.4,37.837l.1,0a10.58,10.58,0,0,0,5.859,5.11V58.856H84.7a1.98,1.98,0,0,0-1.978,1.978v5.9a2.93,2.93,0,0,0,2.084,2.817l10.332,3.159a2.938,2.938,0,0,0,1.723,0l4.728-1.446a1.067,1.067,0,1,0-.624-2.041L96.241,70.67a.811.811,0,0,1-.475,0L85.434,67.511a.807.807,0,0,1-.574-.776V60.99h22.288v5.745a.807.807,0,0,1-.574.776l-1.493.457a1.067,1.067,0,1,0,.624,2.041l1.493-.457a2.93,2.93,0,0,0,2.084-2.817v-5.9a1.98,1.98,0,0,0-1.978-1.978h-2.9V49.879h1.611a11.2,11.2,0,0,0,9.805-5.806,1.076,1.076,0,0,0,.1-.191,11.117,11.117,0,0,0,1.282-5.193A1.887,1.887,0,0,1,118.249,37l1.8-.909a2.3,2.3,0,0,0,.813-3.423ZM71.97,28.269A7.434,7.434,0,1,1,79.4,35.7,7.442,7.442,0,0,1,71.97,28.269Zm47.121,5.913-1.8.909a4.01,4.01,0,0,0-2.216,3.6,9,9,0,0,1-.852,3.828,11.957,11.957,0,0,1-7.891-1.843,1.067,1.067,0,1,0-1.114,1.82,14.6,14.6,0,0,0,7.515,2.264,9.034,9.034,0,0,1-6.713,2.985H96.3a1.067,1.067,0,1,0,0,2.134h5.971v8.977H87.5v-15.4a10.453,10.453,0,0,0,1.38.093,3.875,3.875,0,0,0,3.87-3.87V23.129a.423.423,0,0,1,.423-.423h14.256a1.067,1.067,0,0,0,0-2.134H93.17a2.56,2.56,0,0,0-2.557,2.557V39.682a1.738,1.738,0,0,1-1.736,1.736,8.438,8.438,0,0,1-7.086-3.883,9.567,9.567,0,0,0-1.319-18.772,8.436,8.436,0,0,1,5.736-7.9,9.566,9.566,0,0,0,19-.431h8.914a6.552,6.552,0,0,1,6.544,6.544,3.6,3.6,0,0,1-3.6,3.6h-5.38a1.067,1.067,0,1,0,0,2.134h3.381v4.159A4.769,4.769,0,0,0,116,29.683l3.147,4.251a.166.166,0,0,1-.059.247Z" transform="translate(-69.836 0)"/>
        <path id="Trazado_1055208" data-name="Trazado 1055208" d="M223.961,455.354a1.067,1.067,0,1,0,0,2.134h6.651a1.067,1.067,0,1,0,0-2.134Z" transform="translate(-201.119 -390.573)"/>
        <path id="Trazado_1055209" data-name="Trazado 1055209" d="M226.689,43.608l.393-1.031h2.748l.388,1.028a1.067,1.067,0,1,0,2-.754l-2.6-6.9-.011-.029a1.221,1.221,0,0,0-1.133-.76h0a1.221,1.221,0,0,0-1.133.762l-.009.024-2.627,6.9a1.067,1.067,0,0,0,1.994.76Zm2.335-3.165h-1.129l.567-1.49Z" transform="translate(-202.604 -30.163)"/>
        <path id="Trazado_1055210" data-name="Trazado 1055210" d="M110.661,174.167a1.067,1.067,0,1,0,1.383-1.626l-.22-.187a6.644,6.644,0,0,0,1.455-4.072,1.067,1.067,0,0,0-.015-2.133h-2.52v-.355a1.067,1.067,0,0,0-2.134,0v.355h-2.52a1.067,1.067,0,0,0,0,2.134h5.064a4.439,4.439,0,0,1-.96,2.686l-1.264-1.075a1.067,1.067,0,0,0-1.383,1.626l.909.773a7.065,7.065,0,0,1-1.011.385,1.067,1.067,0,1,0,.609,2.045,8.674,8.674,0,0,0,2.143-.949Z" transform="translate(-100.018 -141.292)"/>
        <path id="Trazado_1055211" data-name="Trazado 1055211" d="M92.093,40.776a1.067,1.067,0,0,0,1.556.531l2.334-1.434a1.067,1.067,0,0,0-1.117-1.818l-.113.069a8.34,8.34,0,0,1,3.858-5.033,1.067,1.067,0,0,0,2.011.671l1.036-2.233a1.067,1.067,0,0,0-.476-1.4l-2.2-1.141A1.067,1.067,0,1,0,98,30.886l.1.053a10.465,10.465,0,0,0-5.258,6.114,1.066,1.066,0,0,0-1.725,1.158Z" transform="translate(-88.033 -24.765)"/>
      </g>
    </g>
  </g>
</svg>
