<svg xmlns="http://www.w3.org/2000/svg" xmlns:xlink="http://www.w3.org/1999/xlink" width="113" height="113" viewBox="0 0 113 113">
  <defs>
    <filter id="Trazado_982547" x="0" y="0" width="113" height="113" filterUnits="userSpaceOnUse">
      <feOffset dy="3" input="SourceAlpha"/>
      <feGaussianBlur stdDeviation="3" result="blur"/>
      <feFlood flood-opacity="0.161"/>
      <feComposite operator="in" in2="blur"/>
      <feComposite in="SourceGraphic"/>
    </filter>
  </defs>
  <g id="Grupo_1211414" data-name="Grupo 1211414" transform="translate(-1162.896 -2980.695)">
    <g id="Grupo_1211205" data-name="Grupo 1211205" transform="translate(1171.896 2986.695)">
      <g id="Grupo_1210937" data-name="Grupo 1210937" transform="translate(0 0)">
        <g id="Grupo_1174742" data-name="Grupo 1174742">
          <g id="Grupo_1163948" data-name="Grupo 1163948">
            <g id="Grupo_1158168" data-name="Grupo 1158168" transform="translate(0)">
              <g id="Grupo_1152576" data-name="Grupo 1152576">
                <g id="Grupo_1148633" data-name="Grupo 1148633">
                  <g id="Grupo_1148525" data-name="Grupo 1148525">
                    <g transform="matrix(1, 0, 0, 1, -9, -6)" filter="url(#Trazado_982547)">
                      <g id="Trazado_982547-2" data-name="Trazado 982547" transform="translate(9 6)" fill="#fdf6e4">
                        <path d="M 47.5 93.5 C 41.28937149047852 93.5 35.26533508300781 92.28397369384766 29.59518623352051 89.88570404052734 C 24.11771965026855 87.56893157958984 19.19813346862793 84.25196075439453 14.97309303283691 80.02691650390625 C 10.74804019927979 75.80186462402344 7.431066513061523 70.88229370117188 5.114293098449707 65.40481567382812 C 2.716026782989502 59.73468017578125 1.5 53.71062850952148 1.5 47.5 C 1.5 41.28937149047852 2.716026782989502 35.26533508300781 5.114293098449707 29.59518623352051 C 7.431066513061523 24.11771965026855 10.74804019927979 19.19813346862793 14.97309303283691 14.97309303283691 C 19.19813346862793 10.74804019927979 24.11771965026855 7.431066513061523 29.59518623352051 5.114293098449707 C 35.26533508300781 2.716026782989502 41.28937149047852 1.5 47.5 1.5 C 53.71062850952148 1.5 59.73468017578125 2.716026782989502 65.40481567382812 5.114293098449707 C 70.88229370117188 7.431066513061523 75.80186462402344 10.74804019927979 80.02691650390625 14.97309303283691 C 84.25196075439453 19.19813346862793 87.56893157958984 24.11771965026855 89.88570404052734 29.59518623352051 C 92.28397369384766 35.26533508300781 93.5 41.28937149047852 93.5 47.5 C 93.5 53.71062850952148 92.28397369384766 59.73468017578125 89.88570404052734 65.40481567382812 C 87.56893157958984 70.88229370117188 84.25196075439453 75.80186462402344 80.02691650390625 80.02691650390625 C 75.80186462402344 84.25196075439453 70.88229370117188 87.56893157958984 65.40481567382812 89.88570404052734 C 59.73468017578125 92.28397369384766 53.71062850952148 93.5 47.5 93.5 Z" stroke="none"/>
                        <path d="M 47.5 3 C 41.49121475219727 3 35.66376876831055 4.176155090332031 30.17950439453125 6.495796203613281 C 24.88084411621094 8.736953735351562 20.12152099609375 11.94598388671875 16.03375244140625 16.03375244140625 C 11.94598388671875 20.12152099609375 8.736953735351562 24.88084411621094 6.495796203613281 30.17950439453125 C 4.176155090332031 35.66376876831055 3 41.49121475219727 3 47.5 C 3 53.50878524780273 4.176155090332031 59.33623123168945 6.495796203613281 64.82049560546875 C 8.736953735351562 70.11915588378906 11.94598388671875 74.87847900390625 16.03375244140625 78.96624755859375 C 20.12152099609375 83.05401611328125 24.88084411621094 86.26304626464844 30.17950439453125 88.50419616699219 C 35.66376876831055 90.82384490966797 41.49121475219727 92 47.5 92 C 53.50878524780273 92 59.33623123168945 90.82384490966797 64.82049560546875 88.50419616699219 C 70.11915588378906 86.26304626464844 74.87847900390625 83.05401611328125 78.96624755859375 78.96624755859375 C 83.05401611328125 74.87847900390625 86.26304626464844 70.11915588378906 88.50419616699219 64.82049560546875 C 90.82384490966797 59.33623123168945 92 53.50878524780273 92 47.5 C 92 41.49121475219727 90.82384490966797 35.66376876831055 88.50419616699219 30.17950439453125 C 86.26304626464844 24.88084411621094 83.05401611328125 20.12152099609375 78.96624755859375 16.03375244140625 C 74.87847900390625 11.94598388671875 70.11915588378906 8.736953735351562 64.82049560546875 6.495796203613281 C 59.33623123168945 4.176155090332031 53.50878524780273 3 47.5 3 M 47.5 0 C 73.7335205078125 0 95 21.2664794921875 95 47.5 C 95 73.7335205078125 73.7335205078125 95 47.5 95 C 21.2664794921875 95 0 73.7335205078125 0 47.5 C 0 21.2664794921875 21.2664794921875 0 47.5 0 Z" stroke="none" fill="#f5b104"/>
                      </g>
                    </g>
                  </g>
                </g>
              </g>
            </g>
          </g>
        </g>
      </g>
    </g>
    <g id="big-data_1651538" transform="translate(1186.106 3000.51)">
      <path id="Trazado_1057150" data-name="Trazado 1057150" d="M39.93,125.128l.032-.041a6.366,6.366,0,1,0-3.883,8.025l1.693.09,3.662-7.274Zm0,0" transform="translate(-23.91 -104.763)" fill="#fee063"/>
      <path id="Trazado_1057151" data-name="Trazado 1057151" d="M32.931,127.119a6.367,6.367,0,0,1,3.683-5.774,6.368,6.368,0,1,0-.536,11.768l1.269.068a6.37,6.37,0,0,1-4.416-6.062Zm0,0" transform="translate(-23.91 -104.764)" fill="#f9d021"/>
      <path id="Trazado_1057152" data-name="Trazado 1057152" d="M386.972,120.75a6.369,6.369,0,0,0-6.035,4.337l-1.508.951,3.377,7.34,2.014-.266a6.368,6.368,0,1,0,2.152-12.362Zm0,0" transform="translate(-329.195 -104.763)" fill="#fee063"/>
      <path id="Trazado_1057153" data-name="Trazado 1057153" d="M215.3,7.516a6.367,6.367,0,0,0-4.472,10.9v1.228H219.7l.027-1.183A6.367,6.367,0,0,0,215.3,7.516Zm0,0" transform="translate(-181.271 -6.521)" fill="#fee063"/>
      <path id="Trazado_1057154" data-name="Trazado 1057154" d="M214.3,13.884a6.367,6.367,0,0,1,3.683-5.774,6.368,6.368,0,0,0-7.158,10.307v1.228h5.37V18.416a6.354,6.354,0,0,1-1.9-4.532Zm0,0" transform="translate(-181.268 -6.521)" fill="#f9d021"/>
      <path id="Trazado_1057155" data-name="Trazado 1057155" d="M132.522,109.1A22.421,22.421,0,1,1,110.1,86.679,22.421,22.421,0,0,1,132.522,109.1Zm0,0" transform="translate(-76.071 -75.203)" fill="#76b1cb"/>
      <path id="Trazado_1057156" data-name="Trazado 1057156" d="M102.414,109.1a22.43,22.43,0,0,1,15.054-21.182,22.421,22.421,0,1,0,0,42.363A22.429,22.429,0,0,1,102.414,109.1Zm0,0" transform="translate(-76.071 -75.204)" fill="#5ba1ba"/>
      <path id="Trazado_1057157" data-name="Trazado 1057157" d="M383.32,129.465a6.384,6.384,0,0,0-2.382,3.183l-1.508.951,3.377,7.34,2.014-.266a6.391,6.391,0,0,0,4.046.087A22.35,22.35,0,0,0,383.32,129.465Zm0,0" transform="translate(-329.195 -112.324)" fill="#f9d021"/>
      <path id="Trazado_1057158" data-name="Trazado 1057158" d="M325.263,273.264a12.883,12.883,0,1,1-2.254-.2,12.872,12.872,0,0,1,2.254.2Zm0,0" transform="translate(-269.079 -236.914)" fill="#fee063"/>
      <g id="Grupo_1211413" data-name="Grupo 1211413" transform="translate(33.897 11.476)">
        <path id="Trazado_1057159" data-name="Trazado 1057159" d="M344.909,166.857c0,.043,0,.112,0,.156l-11.144-.023v-.132a40.591,40.591,0,0,0-1.288-10.356,34.317,34.317,0,0,0,7.833-3.251,25.093,25.093,0,0,1,4.6,13.608Zm0,0" transform="translate(-322.356 -144.436)" fill="#418ba5"/>
        <path id="Trazado_1057160" data-name="Trazado 1057160" d="M256.031,257.031H267.44a42.752,42.752,0,0,1-.409,5.826,12.866,12.866,0,0,0-2.838,4.187,38.8,38.8,0,0,0-8.163-.859Zm0,0" transform="translate(-256.031 -234.477)" fill="#418ba5"/>
        <path id="Trazado_1057161" data-name="Trazado 1057161" d="M256.178,86.681c4.339.109,8.093,4.974,9.974,12.063a38.408,38.408,0,0,1-10.121,1.335V86.68c.049,0,.1,0,.147,0Zm0,0" transform="translate(-256.032 -86.68)" fill="#418ba5"/>
      </g>
      <path id="Trazado_1057162" data-name="Trazado 1057162" d="M256.031,92.319a22.431,22.431,0,0,1,5.014-3.362,7.314,7.314,0,0,0-4.868-2.276c-.049,0-.1,0-.147,0Zm0,0" transform="translate(-222.134 -75.203)" fill="#2a7f96"/>
      <path id="Trazado_1057163" data-name="Trazado 1057163" d="M202.534,339.31c-2.79,0-5.347-1.97-7.329-5.237a12.924,12.924,0,0,0-.835-7.038,38.8,38.8,0,0,1,8.163-.859Zm0,0" transform="translate(-168.637 -282.992)" fill="#418ba5"/>
      <path id="Trazado_1057164" data-name="Trazado 1057164" d="M202.534,336.087a22.5,22.5,0,0,1-5.374-7.126q-1.419.2-2.79.49a12.924,12.924,0,0,1,.835,7.038c1.939,3.2,4.43,5.151,7.15,5.234l.179,0Zm0,0" transform="translate(-168.637 -285.408)" fill="#2a7f96"/>
      <path id="Trazado_1057165" data-name="Trazado 1057165" d="M181.261,179.144V188.3h-11.41v-.132a40.612,40.612,0,0,1,1.288-10.356A38.409,38.409,0,0,0,181.261,179.144Zm0,0" transform="translate(-147.364 -154.268)" fill="#418ba5"/>
      <path id="Trazado_1057166" data-name="Trazado 1057166" d="M171.14,177.809a40.612,40.612,0,0,0-1.288,10.356v.132h3.856c0-.044,0-.088,0-.132a22.33,22.33,0,0,1,2.062-9.405A37.323,37.323,0,0,1,171.14,177.809Zm0,0" transform="translate(-147.364 -154.268)" fill="#2a7f96"/>
      <path id="Trazado_1057167" data-name="Trazado 1057167" d="M20.385,273.066a12.86,12.86,0,1,1-2.254.2,12.827,12.827,0,0,1,2.254-.2Zm0,0" transform="translate(-6.521 -236.913)" fill="#fee063"/>
      <path id="Trazado_1057168" data-name="Trazado 1057168" d="M320.427,283.554a12.819,12.819,0,0,1,2.977-10.479c-.131,0-.262-.009-.394-.009a12.869,12.869,0,1,0,9.732,21.289A12.872,12.872,0,0,1,320.427,283.554Zm0,0" transform="translate(-269.079 -236.914)" fill="#f9d021"/>
      <path id="Trazado_1057169" data-name="Trazado 1057169" d="M17.637,281.495a12.812,12.812,0,0,1,3.142-8.422c-.131,0-.263-.007-.4-.007a12.869,12.869,0,1,0,9.726,21.291,12.869,12.869,0,0,1-12.473-12.862Zm0,0" transform="translate(-6.52 -236.913)" fill="#f9d021"/>
      <path id="Trazado_1057170" data-name="Trazado 1057170" d="M98.573,257.031H87.7a22.821,22.821,0,0,0,.13,2.3,12.856,12.856,0,0,1,11.156,3.526A42.926,42.926,0,0,1,98.573,257.031Zm0,0" transform="translate(-76.085 -223.001)" fill="#2a7f96"/>
      <path id="Trazado_1057171" data-name="Trazado 1057171" d="M121.707,95.647a33.586,33.586,0,0,0,7.662,3.125c1.874-7.064,5.609-11.918,9.927-12.061a22.385,22.385,0,0,0-17.589,8.936Zm0,0" transform="translate(-105.593 -75.231)" fill="#2a7f96"/>
      <path id="Trazado_1057172" data-name="Trazado 1057172" d="M58.1,150.547a.624.624,0,0,1,.366,1.129l-.318.231a.625.625,0,0,0-.225.7l.121.374a.624.624,0,0,1-.96.7l-.319-.231a.621.621,0,0,0-.732,0l-.319.231a.624.624,0,0,1-.96-.7l.12-.374a.625.625,0,0,0-.225-.7l-.318-.231a.624.624,0,0,1,.366-1.129h.394a.624.624,0,0,0,.593-.431l.122-.374a.624.624,0,0,1,1.186,0l.122.374a.624.624,0,0,0,.593.431Zm0,0" transform="translate(-46.912 -129.543)" fill="#ea9f3b"/>
      <path id="Trazado_1057173" data-name="Trazado 1057173" d="M426.862,150.547a.624.624,0,0,1,.366,1.129l-.319.231a.625.625,0,0,0-.225.7l.12.374a.624.624,0,0,1-.96.7l-.319-.231a.621.621,0,0,0-.732,0l-.318.231a.624.624,0,0,1-.961-.7l.121-.374a.627.627,0,0,0-.225-.7l-.319-.231a.624.624,0,0,1,.366-1.129h.394a.624.624,0,0,0,.593-.431l.122-.374a.623.623,0,0,1,1.186,0l.122.374a.624.624,0,0,0,.593.431Zm0,0" transform="translate(-366.852 -129.543)" fill="#ea9f3b"/>
      <path id="Trazado_1057174" data-name="Trazado 1057174" d="M242.482,34.488a.624.624,0,0,1,.366,1.129l-.319.231a.626.626,0,0,0-.225.7l.121.374a.624.624,0,0,1-.961.7l-.318-.231a.621.621,0,0,0-.732,0l-.319.231a.624.624,0,0,1-.96-.7l.12-.374a.625.625,0,0,0-.225-.7l-.319-.231a.624.624,0,0,1,.366-1.129h.394a.624.624,0,0,0,.593-.431l.122-.374a.624.624,0,0,1,1.186,0l.122.374a.624.624,0,0,0,.593.431Zm0,0" transform="translate(-206.882 -28.849)" fill="#ea9f3b"/>
      <path id="Trazado_1057175" data-name="Trazado 1057175" d="M67.909,315.176a1.62,1.62,0,0,1-1.145,2.765H63.4l-1.1,2.832a2.515,2.515,0,0,1-2.367,1.665H56.881l-5.1-.016V314.7H55.07a.479.479,0,0,0,.479-.479v-4.215a1.367,1.367,0,0,1,1.366-1.367h.576a1.417,1.417,0,0,1,1.411,1.291l.472,4.343a.479.479,0,0,0,.476.427h6.912a1.62,1.62,0,0,1,1.145.474Zm0,0" transform="translate(-44.922 -267.778)" fill="#f9cc9b"/>
      <path id="Trazado_1057176" data-name="Trazado 1057176" d="M119.595,355.256a.479.479,0,0,0,.476.427h6.912c.04,0,.08,0,.119.006a1.614,1.614,0,0,0-1.579-1.267H119.5Zm0,0" transform="translate(-103.682 -307.498)" fill="#efb77f"/>
      <path id="Trazado_1057177" data-name="Trazado 1057177" d="M56.53,315.962a.479.479,0,0,0,.479-.479v-4.215a1.368,1.368,0,0,1,1.368-1.367H58.9a1.417,1.417,0,0,0-1.407-1.26h-.576a1.366,1.366,0,0,0-1.366,1.366v4.216a.478.478,0,0,1-.479.479H51.777v7.72l1.459,0v-3.171a3.292,3.292,0,0,1,3.293-3.293Zm0,0" transform="translate(-44.922 -267.778)" fill="#efb77f"/>
      <path id="Trazado_1057178" data-name="Trazado 1057178" d="M45.085,353.59a1,1,0,0,1-1-1v-8.889a1,1,0,0,1,1.99,0v8.889A1,1,0,0,1,45.085,353.59Zm0,0" transform="translate(-38.252 -297.338)" fill="#ea9f3b"/>
      <path id="Trazado_1057179" data-name="Trazado 1057179" d="M370.75,327.783a1.053,1.053,0,0,1,.618,1.905l-2.065,1.5a1.054,1.054,0,0,0-.383,1.178l.789,2.427a1.053,1.053,0,0,1-1.621,1.178l-2.065-1.5a1.056,1.056,0,0,0-1.239,0l-2.065,1.5a1.054,1.054,0,0,1-1.621-1.178l.79-2.427a1.054,1.054,0,0,0-.384-1.178l-2.064-1.5a1.053,1.053,0,0,1,.618-1.905h2.553a1.052,1.052,0,0,0,1-.728l.789-2.427a1.053,1.053,0,0,1,2,0l.789,2.427a1.052,1.052,0,0,0,1,.728Zm0,0" transform="translate(-311.474 -281.017)" fill="#ea9f3b"/>
      <path id="Trazado_1057180" data-name="Trazado 1057180" d="M65.8,48.623a1,1,0,0,0,1.989-.066,13.791,13.791,0,0,0-4.207-9.491,13.975,13.975,0,0,0-1.737-1.432,28.386,28.386,0,0,0-.242-8.989,7.363,7.363,0,0,0-6.387-13.194A28.393,28.393,0,0,0,41.362,6.708,7.362,7.362,0,0,0,26.7,6.634,28.361,28.361,0,0,0,12.58,15.451,7.363,7.363,0,0,0,6.2,28.646a28.369,28.369,0,0,0-.242,9,13.858,13.858,0,1,0,16.685,22.1,28.232,28.232,0,0,0,22.518,0,13.857,13.857,0,0,0,22.1-6.9.995.995,0,0,0-1.913-.548,11.9,11.9,0,1,1,.45-3.673ZM60.1,33.9c0,.879-.045,1.762-.133,2.639a13.728,13.728,0,0,0-2.715-.979c.035-.494.055-.987.059-1.477,0-.017,0-.033,0-.05s0-.019,0-.028c0-.035,0-.069,0-.1a23.46,23.46,0,0,0-.383-4.229,7.294,7.294,0,0,0,2.792-.212A26.446,26.446,0,0,1,60.1,33.9Zm-13.807-.863a41.93,41.93,0,0,0-1.072-8.8,34.538,34.538,0,0,0,6.256-2.572A21.3,21.3,0,0,1,55.3,33.035ZM43.954,39.4a13.923,13.923,0,0,0-2.467,3.507,39.815,39.815,0,0,0-6.595-.71V35.025h9.4a41.785,41.785,0,0,1-.341,4.38ZM26.916,23.24q-.968-.181-1.91-.411a26.2,26.2,0,0,1,1.71-4.335c1.728-3.4,3.895-5.458,6.186-5.923V23.866c-.7-.018-1.411-.054-2.11-.11a1,1,0,0,0-.159,1.984c.751.06,1.511.1,2.269.117v7.178h-9.41a39.9,39.9,0,0,1,1-8.281q1.015.247,2.057.443a1.011,1.011,0,0,0,.184.017,1,1,0,0,0,.182-1.974Zm15.937-5.649a17.489,17.489,0,0,0-2.95-4.263,21.475,21.475,0,0,1,10.343,6.735,32.61,32.61,0,0,1-5.536,2.248,28.112,28.112,0,0,0-1.857-4.72Zm-.062,5.243a37.422,37.422,0,0,1-7.9,1.032V12.572c2.291.464,4.457,2.526,6.186,5.922a26.179,26.179,0,0,1,1.712,4.341ZM24.943,17.592a28.125,28.125,0,0,0-1.856,4.715,32.446,32.446,0,0,1-5.537-2.243,21.475,21.475,0,0,1,10.342-6.734,17.478,17.478,0,0,0-2.949,4.263Zm-8.625,4.071a34.369,34.369,0,0,0,6.257,2.567,41.906,41.906,0,0,0-1.073,8.8H12.49a21.3,21.3,0,0,1,3.828-11.371Zm-3.8,13.56c0-.066-.009-.132-.012-.2h9.006q.032,1.271.133,2.526a13.784,13.784,0,0,0-7.778-2.393c-.455,0-.906.023-1.35.066ZM23.84,39.4a42.066,42.066,0,0,1-.341-4.38h9.4V42.2a39.821,39.821,0,0,0-6.6.71A13.91,13.91,0,0,0,23.84,39.4Zm16.226,9.617a13.888,13.888,0,0,0,.123,1.843c-1.556,2.451-3.4,3.96-5.3,4.355V44.192a37.9,37.9,0,0,1,5.834.6,13.809,13.809,0,0,0-.66,4.228Zm-13-4.228a37.963,37.963,0,0,1,5.835-.6V55.218c-1.9-.394-3.741-1.9-5.3-4.355a13.974,13.974,0,0,0,.123-1.842,13.81,13.81,0,0,0-.66-4.229ZM27,53.445q.444.553.911,1.031-.581-.169-1.153-.37C26.849,53.888,26.929,53.667,27,53.445Zm13.786,0q.112.334.242.661-.572.2-1.153.37Q40.346,54,40.79,53.445Zm-5.9-20.41V25.857a39.391,39.391,0,0,0,8.409-1.1,39.932,39.932,0,0,1,1,8.276Zm28.258-10.68a5.374,5.374,0,0,1-6.71,5.2,23.339,23.339,0,0,0-3.577-7.377,5.372,5.372,0,0,1,10.286,2.173Zm-9.734-5.933a7.35,7.35,0,0,0-1.9,2.066,23.461,23.461,0,0,0-11.292-7.138,7.249,7.249,0,0,0,1.042-2.6,26.412,26.412,0,0,1,12.154,7.674ZM34.03,1.99A5.379,5.379,0,0,1,39.4,7.363c0,.025,0,.05,0,.075,0,.007,0,.014,0,.021a5.314,5.314,0,0,1-1.294,3.4,23.5,23.5,0,0,0-8.188-.04A5.325,5.325,0,0,1,28.658,7.4c0-.007,0-.014,0-.022s0-.012,0-.019A5.379,5.379,0,0,1,34.03,1.99ZM26.784,8.674A7.262,7.262,0,0,0,27.8,11.288a23.453,23.453,0,0,0-11.517,7.2,7.35,7.35,0,0,0-1.906-2.066A26.374,26.374,0,0,1,26.784,8.674ZM4.644,22.355A5.372,5.372,0,0,1,14.93,20.182a23.341,23.341,0,0,0-3.577,7.377,5.374,5.374,0,0,1-6.709-5.2ZM7.7,33.9a26.448,26.448,0,0,1,.379-4.441,7.289,7.289,0,0,0,2.791.212,23.46,23.46,0,0,0-.384,4.229c0,.035,0,.069,0,.1,0,.01,0,.019,0,.028s0,.034,0,.05c0,.491.024.985.059,1.481a13.758,13.758,0,0,0-2.714.982A26.444,26.444,0,0,1,7.7,33.9ZM1.99,49.021A11.874,11.874,0,1,1,13.864,60.9,11.887,11.887,0,0,1,1.99,49.021ZM24.2,58.246a13.916,13.916,0,0,0,1.691-2.34,23.468,23.468,0,0,0,16.006,0,13.917,13.917,0,0,0,1.691,2.34,26.281,26.281,0,0,1-19.387,0Zm21.949-20.7q.1-1.253.133-2.526h9.006c0,.066-.008.132-.012.2q-.669-.064-1.35-.065a13.784,13.784,0,0,0-7.778,2.393Zm0,0"/>
      <path id="Trazado_1057181" data-name="Trazado 1057181" d="M47.226,145.959l.1.073-.038.118a1.619,1.619,0,0,0,2.491,1.81l.1-.073.1.073a1.619,1.619,0,0,0,2.492-1.81l-.039-.118.1-.073a1.619,1.619,0,0,0-.952-2.929h-.124l-.038-.118a1.619,1.619,0,0,0-3.08,0l-.038.118h-.124a1.619,1.619,0,0,0-.952,2.929Zm2.654-1.6a1.618,1.618,0,0,0,.805.585,1.611,1.611,0,0,0-.308.946,1.619,1.619,0,0,0-1,0,1.616,1.616,0,0,0-.308-.946A1.614,1.614,0,0,0,49.88,144.356Zm0,0" transform="translate(-40.394 -123.02)"/>
      <path id="Trazado_1057182" data-name="Trazado 1057182" d="M415.991,145.959l.1.073-.038.118a1.619,1.619,0,0,0,2.491,1.81l.1-.073.1.073a1.619,1.619,0,0,0,2.491-1.81l-.038-.118.1-.073a1.619,1.619,0,0,0-.952-2.929h-.124l-.038-.118a1.619,1.619,0,0,0-3.08,0l-.038.118h-.124a1.619,1.619,0,0,0-.952,2.929Zm2.654-1.6a1.618,1.618,0,0,0,.805.585,1.615,1.615,0,0,0-.308.946,1.619,1.619,0,0,0-1,0,1.612,1.612,0,0,0-.307-.946A1.61,1.61,0,0,0,418.645,144.356Zm0,0" transform="translate(-360.336 -123.02)"/>
      <path id="Trazado_1057183" data-name="Trazado 1057183" d="M231.608,29.9l.1.073-.038.118a1.619,1.619,0,0,0,2.492,1.81l.1-.073.1.073a1.619,1.619,0,0,0,2.491-1.81l-.038-.118.1-.073a1.619,1.619,0,0,0-.952-2.929h-.124l-.038-.118a1.619,1.619,0,0,0-3.08,0l-.038.118h-.124a1.619,1.619,0,0,0-.952,2.929Zm2.654-1.6a1.613,1.613,0,0,0,.805.585,1.612,1.612,0,0,0-.308.946,1.611,1.611,0,0,0-1,0,1.615,1.615,0,0,0-.308-.946A1.618,1.618,0,0,0,234.262,28.293Zm0,0" transform="translate(-200.365 -22.324)"/>
      <path id="Trazado_1057184" data-name="Trazado 1057184" d="M62.707,309.8a2.617,2.617,0,0,0-2.614-2.614H53.645l-.421-3.876a2.4,2.4,0,0,0-2.4-2.186h-.575a2.365,2.365,0,0,0-2.363,2.362v3.7h-1.8v-.623a1,1,0,0,0-1.99,0v10.614a1,1,0,0,0,1.99,0V316.9l4.129.013h3.05a3.521,3.521,0,0,0,3.3-2.31l.852-2.188h2.683A2.617,2.617,0,0,0,62.707,309.8Zm-2.614.624H56.73a1,1,0,0,0-.927.634l-1.1,2.833-.009.024a1.524,1.524,0,0,1-1.432,1.007H50.214l-4.111-.013v-5.732h2.3a1.475,1.475,0,0,0,1.473-1.474v-4.215a.373.373,0,0,1,.372-.372h.575a.421.421,0,0,1,.421.385l0,.018.473,4.344a1.471,1.471,0,0,0,1.465,1.315h6.912a.624.624,0,1,1,0,1.247Zm0,0" transform="translate(-38.252 -261.257)"/>
      <path id="Trazado_1057185" data-name="Trazado 1057185" d="M365.419,323.975a2.048,2.048,0,0,0-1.2-3.705h-2.552a.058.058,0,0,1-.055-.04l-.789-2.428a2.048,2.048,0,0,0-3.9,0l-.789,2.428a.058.058,0,0,1-.055.04h-2.552a2.048,2.048,0,0,0-1.2,3.7l2.065,1.5a.057.057,0,0,1,.021.065l-.789,2.428a2.048,2.048,0,0,0,3.152,2.29l2.065-1.5a.057.057,0,0,1,.068,0l2.065,1.5a2.017,2.017,0,0,0,2.408,0,2.018,2.018,0,0,0,.744-2.29l-.789-2.428a.058.058,0,0,1,.021-.065Zm-3.979,2.18.789,2.428c.009.027.013.04-.021.065s-.045.017-.068,0l-2.065-1.5a2.043,2.043,0,0,0-2.408,0l-2.065,1.5c-.023.017-.034.025-.068,0s-.031-.038-.021-.065l.789-2.428a2.043,2.043,0,0,0-.744-2.29l-2.065-1.5c-.023-.017-.034-.025-.021-.065s.026-.04.055-.04h2.553a2.043,2.043,0,0,0,1.948-1.415l.789-2.428c.009-.028.013-.04.055-.04s.046.012.055.04l.789,2.428a2.043,2.043,0,0,0,1.948,1.415h2.553c.029,0,.042,0,.055.04s0,.048-.021.065l-2.065,1.5A2.043,2.043,0,0,0,361.441,326.155Zm0,0" transform="translate(-304.94 -274.499)"/>
    </g>
  </g>
</svg>
