<svg xmlns="http://www.w3.org/2000/svg" xmlns:xlink="http://www.w3.org/1999/xlink" width="113" height="113" viewBox="0 0 113 113">
  <defs>
    <filter id="Trazado_982547" x="0" y="0" width="113" height="113" filterUnits="userSpaceOnUse">
      <feOffset dy="3" input="SourceAlpha"/>
      <feGaussianBlur stdDeviation="3" result="blur"/>
      <feFlood flood-opacity="0.161"/>
      <feComposite operator="in" in2="blur"/>
      <feComposite in="SourceGraphic"/>
    </filter>
  </defs>
  <g id="Grupo_1211527" data-name="Grupo 1211527" transform="translate(-374.02 -1592.846)">
    <g id="Grupo_1211208" data-name="Grupo 1211208" transform="translate(383.02 1598.846)">
      <g id="Grupo_1210736" data-name="Grupo 1210736" transform="translate(0)">
        <g id="Grupo_1210537" data-name="Grupo 1210537">
          <g id="Grupo_1164202" data-name="Grupo 1164202">
            <g id="Grupo_1158168" data-name="Grupo 1158168">
              <g id="Grupo_1152576" data-name="Grupo 1152576">
                <g id="Grupo_1148633" data-name="Grupo 1148633">
                  <g id="Grupo_1148525" data-name="Grupo 1148525">
                    <g transform="matrix(1, 0, 0, 1, -9, -6)" filter="url(#Trazado_982547)">
                      <g id="Trazado_982547-2" data-name="Trazado 982547" transform="translate(9 6)" fill="#fdf6e4">
                        <path d="M 47.5 93.5 C 41.28937149047852 93.5 35.26533508300781 92.28397369384766 29.59518623352051 89.88570404052734 C 24.11771965026855 87.56893157958984 19.19813346862793 84.25196075439453 14.97309303283691 80.02691650390625 C 10.74804019927979 75.80186462402344 7.431066513061523 70.88229370117188 5.114293098449707 65.40481567382812 C 2.716026782989502 59.73468017578125 1.5 53.71062850952148 1.5 47.5 C 1.5 41.28937149047852 2.716026782989502 35.26533508300781 5.114293098449707 29.59518623352051 C 7.431066513061523 24.11771965026855 10.74804019927979 19.19813346862793 14.97309303283691 14.97309303283691 C 19.19813346862793 10.74804019927979 24.11771965026855 7.431066513061523 29.59518623352051 5.114293098449707 C 35.26533508300781 2.716026782989502 41.28937149047852 1.5 47.5 1.5 C 53.71062850952148 1.5 59.73468017578125 2.716026782989502 65.40481567382812 5.114293098449707 C 70.88229370117188 7.431066513061523 75.80186462402344 10.74804019927979 80.02691650390625 14.97309303283691 C 84.25196075439453 19.19813346862793 87.56893157958984 24.11771965026855 89.88570404052734 29.59518623352051 C 92.28397369384766 35.26533508300781 93.5 41.28937149047852 93.5 47.5 C 93.5 53.71062850952148 92.28397369384766 59.73468017578125 89.88570404052734 65.40481567382812 C 87.56893157958984 70.88229370117188 84.25196075439453 75.80186462402344 80.02691650390625 80.02691650390625 C 75.80186462402344 84.25196075439453 70.88229370117188 87.56893157958984 65.40481567382812 89.88570404052734 C 59.73468017578125 92.28397369384766 53.71062850952148 93.5 47.5 93.5 Z" stroke="none"/>
                        <path d="M 47.5 3 C 41.49121475219727 3 35.66376876831055 4.176155090332031 30.17950439453125 6.495796203613281 C 24.88084411621094 8.736953735351562 20.12152099609375 11.94598388671875 16.03375244140625 16.03375244140625 C 11.94598388671875 20.12152099609375 8.736953735351562 24.88084411621094 6.495796203613281 30.17950439453125 C 4.176155090332031 35.66376876831055 3 41.49121475219727 3 47.5 C 3 53.50878524780273 4.176155090332031 59.33623123168945 6.495796203613281 64.82049560546875 C 8.736953735351562 70.11915588378906 11.94598388671875 74.87847900390625 16.03375244140625 78.96624755859375 C 20.12152099609375 83.05401611328125 24.88084411621094 86.26304626464844 30.17950439453125 88.50419616699219 C 35.66376876831055 90.82384490966797 41.49121475219727 92 47.5 92 C 53.50878524780273 92 59.33623123168945 90.82384490966797 64.82049560546875 88.50419616699219 C 70.11915588378906 86.26304626464844 74.87847900390625 83.05401611328125 78.96624755859375 78.96624755859375 C 83.05401611328125 74.87847900390625 86.26304626464844 70.11915588378906 88.50419616699219 64.82049560546875 C 90.82384490966797 59.33623123168945 92 53.50878524780273 92 47.5 C 92 41.49121475219727 90.82384490966797 35.66376876831055 88.50419616699219 30.17950439453125 C 86.26304626464844 24.88084411621094 83.05401611328125 20.12152099609375 78.96624755859375 16.03375244140625 C 74.87847900390625 11.94598388671875 70.11915588378906 8.736953735351562 64.82049560546875 6.495796203613281 C 59.33623123168945 4.176155090332031 53.50878524780273 3 47.5 3 M 47.5 0 C 73.7335205078125 0 95 21.2664794921875 95 47.5 C 95 73.7335205078125 73.7335205078125 95 47.5 95 C 21.2664794921875 95 0 73.7335205078125 0 47.5 C 0 21.2664794921875 21.2664794921875 0 47.5 0 Z" stroke="none" fill="#f5b104"/>
                      </g>
                    </g>
                  </g>
                </g>
              </g>
            </g>
          </g>
        </g>
      </g>
    </g>
    <g id="folder_1583419" transform="translate(399.188 1621.231)">
      <path id="Trazado_1057387" data-name="Trazado 1057387" d="M81.728,79.689V45.248a4.119,4.119,0,0,0-4.119-4.119H28.185a4.119,4.119,0,0,0-4.119,4.119V79.689Zm0,0" transform="translate(-21.075 -35.579)" fill="#3f5959"/>
      <path id="Trazado_1057388" data-name="Trazado 1057388" d="M436.411,41.129H433.8a4.119,4.119,0,0,1,4.119,4.119V79.689h2.61V45.247A4.119,4.119,0,0,0,436.411,41.129Zm0,0" transform="translate(-379.878 -35.579)" fill="#2a3939"/>
      <path id="Trazado_1057389" data-name="Trazado 1057389" d="M57.2,106.466V75.008a.746.746,0,0,1,.746-.746h47.933a.746.746,0,0,1,.746.746v31.458a.746.746,0,0,1-.746.746H57.945A.746.746,0,0,1,57.2,106.466Zm0,0" transform="translate(-50.09 -64.593)" fill="#36d9f6"/>
      <path id="Trazado_1057390" data-name="Trazado 1057390" d="M430.412,74.262H427.8a.746.746,0,0,1,.746.746v31.458a.746.746,0,0,1-.746.746h2.611a.746.746,0,0,0,.746-.746V75.008A.746.746,0,0,0,430.412,74.262Zm0,0" transform="translate(-374.624 -64.593)" fill="#1fc1ef"/>
      <path id="Trazado_1057391" data-name="Trazado 1057391" d="M69.28,341.391a4.118,4.118,0,0,1-4.119,4.118H11.619A4.118,4.118,0,0,1,7.5,341.391v-1.314a.746.746,0,0,1,.746-.746H68.534a.746.746,0,0,1,.746.746Zm0,0" transform="translate(-6.569 -296.713)" fill="#deecf1"/>
      <path id="Trazado_1057392" data-name="Trazado 1057392" d="M456.35,339.332h-2.61a.746.746,0,0,1,.746.746v1.314a4.118,4.118,0,0,1-4.119,4.118h2.61a4.118,4.118,0,0,0,4.119-4.118v-1.314A.745.745,0,0,0,456.35,339.332Zm0,0" transform="translate(-394.385 -296.714)" fill="#c5d3dd"/>
      <path id="Trazado_1057393" data-name="Trazado 1057393" d="M193.76,31.4V9.03A1.03,1.03,0,0,0,192.731,8H174.2a1.03,1.03,0,0,0-1.029,1.03V31.4Zm0,0" transform="translate(-151.643 -6.568)" fill="#fc652c"/>
      <path id="Trazado_1057394" data-name="Trazado 1057394" d="M312.014,8h-2.631a1.03,1.03,0,0,1,1.029,1.029V31.4h2.631V9.03A1.03,1.03,0,0,0,312.014,8Zm0,0" transform="translate(-270.926 -6.568)" fill="#ed3a1b"/>
      <path id="Trazado_1057395" data-name="Trazado 1057395" d="M174.057,150.781H149.346a1.029,1.029,0,0,1-1.03-1.029V133.276a1.03,1.03,0,0,1,1.03-1.03h6.808a.745.745,0,0,1,.621.333L158.391,135a.747.747,0,0,0,.621.332h15.046a1.03,1.03,0,0,1,1.03,1.03v13.385a1.03,1.03,0,0,1-1.03,1.03Zm0,0" transform="translate(-129.88 -115.37)" fill="#fed943"/>
      <path id="Trazado_1057396" data-name="Trazado 1057396" d="M190.991,132.579,192.608,135a.747.747,0,0,0,.621.332h2.61a.747.747,0,0,1-.621-.332l-1.616-2.424a.745.745,0,0,0-.621-.333h-2.61A.745.745,0,0,1,190.991,132.579Zm0,0" transform="translate(-166.707 -115.37)" fill="#fd9127"/>
      <path id="Trazado_1057397" data-name="Trazado 1057397" d="M337.008,157.1H334.4a1.03,1.03,0,0,1,1.03,1.03v13.385a1.03,1.03,0,0,1-1.03,1.03h2.61a1.03,1.03,0,0,0,1.03-1.03V158.128A1.03,1.03,0,0,0,337.008,157.1Zm0,0" transform="translate(-292.831 -137.132)" fill="#fd9127"/>
      <path id="Trazado_1057398" data-name="Trazado 1057398" d="M225.676,46.449v-7.4a.772.772,0,0,1,1.181-.655l5.995,3.747a.772.772,0,0,1-.008,1.314l-5.994,3.653A.772.772,0,0,1,225.676,46.449Zm0,0" transform="translate(-197.624 -33.08)" fill="#deecf1"/>
      <path id="Trazado_1057399" data-name="Trazado 1057399" d="M63.371,41.959a.933.933,0,0,0-.659-.273H61.584V9.669a5.056,5.056,0,0,0-5.051-5.051H43.05V2.462A1.964,1.964,0,0,0,41.089.5H22.554a1.964,1.964,0,0,0-1.962,1.962V4.618h-6.92a.932.932,0,1,0,0,1.865h6.92V8.737H7.109a.933.933,0,0,0-.932.932V41.686H3.923V9.669A3.19,3.19,0,0,1,7.109,6.483H9.944a.932.932,0,0,0,0-1.865H7.109A5.057,5.057,0,0,0,2.059,9.669V41.686H.932A.932.932,0,0,0,0,42.618v2.06a5.057,5.057,0,0,0,5.05,5.051H58.593a5.057,5.057,0,0,0,5.05-5.051v-2.06a.933.933,0,0,0-.273-.659ZM56.534,6.483A3.19,3.19,0,0,1,59.72,9.669V41.686H57.466V9.669a.933.933,0,0,0-.932-.932H43.05V6.483ZM26.174,17.809l1.783,2.674a.932.932,0,0,0,.775.415H44.177a.1.1,0,0,1,.1.1V34.381a.1.1,0,0,1-.1.1H19.466a.1.1,0,0,1-.1-.1V17.907a.1.1,0,0,1,.1-.1ZM22.457,2.462a.1.1,0,0,1,.1-.1H41.089a.1.1,0,0,1,.1.1V19.034H29.232L27.449,16.36a.932.932,0,0,0-.775-.416H22.457ZM8.042,10.6H20.593v5.343H19.466A1.965,1.965,0,0,0,17.5,17.907V34.381a1.965,1.965,0,0,0,1.962,1.962H44.177a1.965,1.965,0,0,0,1.962-1.962V21a1.965,1.965,0,0,0-1.962-1.962H43.05V10.6H55.6V41.686H8.042Zm27.635,32.95-.408,1.224H28.375l-.408-1.224Zm26.1,1.127a3.19,3.19,0,0,1-3.186,3.187H5.05a3.19,3.19,0,0,1-3.186-3.186V43.551H26L26.818,46a.933.933,0,0,0,.885.638H35.94A.932.932,0,0,0,36.824,46l.817-2.451H61.779Zm0,0"/>
      <path id="Trazado_1057400" data-name="Trazado 1057400" d="M87.887,356.68H83.768a.932.932,0,0,0,0,1.865h4.119a.932.932,0,0,0,0-1.865Zm0,0" transform="translate(-72.54 -311.905)"/>
      <path id="Trazado_1057401" data-name="Trazado 1057401" d="M424.411,356.68h-1.03a.932.932,0,0,0,0,1.865h1.03a.932.932,0,0,0,0-1.865Zm0,0" transform="translate(-369.937 -311.905)"/>
      <path id="Trazado_1057402" data-name="Trazado 1057402" d="M391.279,356.68h-1.03a.932.932,0,0,0,0,1.865h1.03a.932.932,0,0,0,0-1.865Zm0,0" transform="translate(-340.923 -311.905)"/>
      <path id="Trazado_1057403" data-name="Trazado 1057403" d="M87.887,99.895H83.768a.932.932,0,0,0-.932.932v4.119a.932.932,0,0,0,1.865,0v-3.186h3.186a.932.932,0,1,0,0-1.865Zm0,0" transform="translate(-72.54 -87.039)"/>
      <path id="Trazado_1057404" data-name="Trazado 1057404" d="M381.963,101.76h3.186v3.186a.932.932,0,0,0,1.865,0v-4.119a.932.932,0,0,0-.932-.932h-4.119a.932.932,0,0,0,0,1.865Zm0,0" transform="translate(-333.667 -87.04)"/>
      <path id="Trazado_1057405" data-name="Trazado 1057405" d="M381.963,271.545h4.119a.932.932,0,0,0,.932-.932v-4.119a.932.932,0,1,0-1.865,0v3.186h-3.186a.932.932,0,0,0,0,1.865Zm0,0" transform="translate(-333.667 -232.114)"/>
      <path id="Trazado_1057406" data-name="Trazado 1057406" d="M87.887,269.681H84.7v-3.186a.932.932,0,1,0-1.865,0v4.119a.932.932,0,0,0,.932.932h4.119a.932.932,0,0,0,0-1.865Zm0,0" transform="translate(-72.54 -232.114)"/>
      <path id="Trazado_1057407" data-name="Trazado 1057407" d="M174.881,234.295h3.089a.932.932,0,1,0,0-1.865h-3.089a.932.932,0,1,0,0,1.865Zm0,0" transform="translate(-152.327 -203.1)"/>
      <path id="Trazado_1057408" data-name="Trazado 1057408" d="M219.046,41.377a1.707,1.707,0,0,0,1.722-.031l5.994-3.653a1.7,1.7,0,0,0,.017-2.9l-5.995-3.747a1.7,1.7,0,0,0-2.608,1.446v7.4a1.707,1.707,0,0,0,.87,1.486Zm.995-8.6,5.53,3.457-5.53,3.369Zm0,0" transform="translate(-191.056 -26.522)"/>
    </g>
  </g>
</svg>
