<svg xmlns="http://www.w3.org/2000/svg" xmlns:xlink="http://www.w3.org/1999/xlink" width="113" height="113" viewBox="0 0 113 113">
  <defs>
    <filter id="Trazado_982547" x="0" y="0" width="113" height="113" filterUnits="userSpaceOnUse">
      <feOffset dy="3" input="SourceAlpha"/>
      <feGaussianBlur stdDeviation="3" result="blur"/>
      <feFlood flood-opacity="0.161"/>
      <feComposite operator="in" in2="blur"/>
      <feComposite in="SourceGraphic"/>
    </filter>
  </defs>
  <g id="Grupo_1211529" data-name="Grupo 1211529" transform="translate(-692.529 -1592.846)">
    <g id="Grupo_1211209" data-name="Grupo 1211209" transform="translate(701.529 1598.846)">
      <g id="Grupo_1210737" data-name="Grupo 1210737" transform="translate(0)">
        <g id="Grupo_1210537" data-name="Grupo 1210537">
          <g id="Grupo_1164202" data-name="Grupo 1164202">
            <g id="Grupo_1158168" data-name="Grupo 1158168">
              <g id="Grupo_1152576" data-name="Grupo 1152576">
                <g id="Grupo_1148633" data-name="Grupo 1148633">
                  <g id="Grupo_1148525" data-name="Grupo 1148525">
                    <g transform="matrix(1, 0, 0, 1, -9, -6)" filter="url(#Trazado_982547)">
                      <g id="Trazado_982547-2" data-name="Trazado 982547" transform="translate(9 6)" fill="#fdf6e4">
                        <path d="M 47.5 93.5 C 41.28937149047852 93.5 35.26533508300781 92.28397369384766 29.59518623352051 89.88570404052734 C 24.11771965026855 87.56893157958984 19.19813346862793 84.25196075439453 14.97309303283691 80.02691650390625 C 10.74804019927979 75.80186462402344 7.431066513061523 70.88229370117188 5.114293098449707 65.40481567382812 C 2.716026782989502 59.73468017578125 1.5 53.71062850952148 1.5 47.5 C 1.5 41.28937149047852 2.716026782989502 35.26533508300781 5.114293098449707 29.59518623352051 C 7.431066513061523 24.11771965026855 10.74804019927979 19.19813346862793 14.97309303283691 14.97309303283691 C 19.19813346862793 10.74804019927979 24.11771965026855 7.431066513061523 29.59518623352051 5.114293098449707 C 35.26533508300781 2.716026782989502 41.28937149047852 1.5 47.5 1.5 C 53.71062850952148 1.5 59.73468017578125 2.716026782989502 65.40481567382812 5.114293098449707 C 70.88229370117188 7.431066513061523 75.80186462402344 10.74804019927979 80.02691650390625 14.97309303283691 C 84.25196075439453 19.19813346862793 87.56893157958984 24.11771965026855 89.88570404052734 29.59518623352051 C 92.28397369384766 35.26533508300781 93.5 41.28937149047852 93.5 47.5 C 93.5 53.71062850952148 92.28397369384766 59.73468017578125 89.88570404052734 65.40481567382812 C 87.56893157958984 70.88229370117188 84.25196075439453 75.80186462402344 80.02691650390625 80.02691650390625 C 75.80186462402344 84.25196075439453 70.88229370117188 87.56893157958984 65.40481567382812 89.88570404052734 C 59.73468017578125 92.28397369384766 53.71062850952148 93.5 47.5 93.5 Z" stroke="none"/>
                        <path d="M 47.5 3 C 41.49121475219727 3 35.66376876831055 4.176155090332031 30.17950439453125 6.495796203613281 C 24.88084411621094 8.736953735351562 20.12152099609375 11.94598388671875 16.03375244140625 16.03375244140625 C 11.94598388671875 20.12152099609375 8.736953735351562 24.88084411621094 6.495796203613281 30.17950439453125 C 4.176155090332031 35.66376876831055 3 41.49121475219727 3 47.5 C 3 53.50878524780273 4.176155090332031 59.33623123168945 6.495796203613281 64.82049560546875 C 8.736953735351562 70.11915588378906 11.94598388671875 74.87847900390625 16.03375244140625 78.96624755859375 C 20.12152099609375 83.05401611328125 24.88084411621094 86.26304626464844 30.17950439453125 88.50419616699219 C 35.66376876831055 90.82384490966797 41.49121475219727 92 47.5 92 C 53.50878524780273 92 59.33623123168945 90.82384490966797 64.82049560546875 88.50419616699219 C 70.11915588378906 86.26304626464844 74.87847900390625 83.05401611328125 78.96624755859375 78.96624755859375 C 83.05401611328125 74.87847900390625 86.26304626464844 70.11915588378906 88.50419616699219 64.82049560546875 C 90.82384490966797 59.33623123168945 92 53.50878524780273 92 47.5 C 92 41.49121475219727 90.82384490966797 35.66376876831055 88.50419616699219 30.17950439453125 C 86.26304626464844 24.88084411621094 83.05401611328125 20.12152099609375 78.96624755859375 16.03375244140625 C 74.87847900390625 11.94598388671875 70.11915588378906 8.736953735351562 64.82049560546875 6.495796203613281 C 59.33623123168945 4.176155090332031 53.50878524780273 3 47.5 3 M 47.5 0 C 73.7335205078125 0 95 21.2664794921875 95 47.5 C 95 73.7335205078125 73.7335205078125 95 47.5 95 C 21.2664794921875 95 0 73.7335205078125 0 47.5 C 0 21.2664794921875 21.2664794921875 0 47.5 0 Z" stroke="none" fill="#f5b104"/>
                      </g>
                    </g>
                  </g>
                </g>
              </g>
            </g>
          </g>
        </g>
      </g>
    </g>
    <g id="Page-1" transform="translate(719.521 1616.346)">
      <g id="_016---Online-Education" data-name="016---Online-Education" transform="translate(-1)">
        <g id="Icons_copy" transform="translate(2 1)">
          <path id="Shape" d="M55,12V41.36l-25.65-8.3a1.051,1.051,0,0,0-.7,0L3,41.36V12Z" fill="#f5f5f5"/>
          <path id="Shape-2" data-name="Shape" d="M26.35,33.06a1.051,1.051,0,0,0-.7,0L3,40.389v.971l24.5-7.928Z" fill="#cfd8dc"/>
          <path id="Shape-3" data-name="Shape" d="M52,12V40.389l3,.971V12Z" fill="#cfd8dc"/>
          <path id="Shape-4" data-name="Shape" d="M39.25,36.26a12,12,0,1,0-20.5,0Z" fill="#ef314c"/>
          <path id="Shape-5" data-name="Shape" d="M29,18a11.968,11.968,0,0,0-1.5.1,12.009,12.009,0,0,1,8.75,18.16h3A12.016,12.016,0,0,0,29,18Z" fill="#bb193b"/>
          <path id="Shape-6" data-name="Shape" d="M55,5v7H3V5A5,5,0,0,1,8,0H50a5,5,0,0,1,5,5Z" fill="#9e9e9e"/>
          <path id="Shape-7" data-name="Shape" d="M50,0H47a5,5,0,0,1,5,5v7h3V5a5,5,0,0,0-5-5Z" fill="#707070"/>
          <circle id="Oval" cx="2" cy="2" r="2" transform="translate(7 4)" fill="#ef314c"/>
          <circle id="Oval-2" data-name="Oval" cx="2" cy="2" r="2" transform="translate(15 4)" fill="#ffdc00"/>
          <circle id="Oval-3" data-name="Oval" cx="2" cy="2" r="2" transform="translate(23 4)" fill="#60a917"/>
          <path id="Shape-8" data-name="Shape" d="M49,8a2,2,0,0,0,0-4H39a2,2,0,0,0,0,4Z" fill="#545c60"/>
          <path id="Shape-9" data-name="Shape" d="M42,46.6V57a1,1,0,0,1-1,1H17a1,1,0,0,1-1-1V46.6A2.5,2.5,0,0,1,18.36,44H39.64A2.5,2.5,0,0,1,42,46.6Z" fill="#37474f"/>
          <path id="Shape-10" data-name="Shape" d="M57.25,44.48,42,51V46.6A2.5,2.5,0,0,0,39.64,44H18.36A2.5,2.5,0,0,0,16,46.6V51L.75,44.48a1.322,1.322,0,0,1,.11-2.43L3,41.36l25.65-8.3a1.051,1.051,0,0,1,.7,0L55,41.36l2.14.69a1.322,1.322,0,0,1,.11,2.43Z" fill="#607d8b"/>
          <path id="Shape-11" data-name="Shape" d="M30.87,33.55l4.54-2.57a1.107,1.107,0,0,0,0-1.96l-8.57-4.86a1.223,1.223,0,0,0-1.84.99v9.09" fill="#f5f5f5"/>
        </g>
        <g id="Icons">
          <g id="Grupo_1211528" data-name="Grupo 1211528">
            <path id="Shape-12" data-name="Shape" d="M58,6a6.006,6.006,0,0,0-6-6H10A6.006,6.006,0,0,0,4,6V41.633l-1.45.47a2.319,2.319,0,0,0-.191,4.3L17,52.659V58a2,2,0,0,0,2,2H43a2,2,0,0,0,2-2V52.66l14-5.983V57.636a1,1,0,0,0,2,0V44.091a.983.983,0,0,0-.1-.423A2.212,2.212,0,0,0,59.45,42.1L58,41.633ZM10,2H52a4,4,0,0,1,4,4v6H6V6A4,4,0,0,1,10,2Zm9,56V47.6A1.5,1.5,0,0,1,20.362,46H41.637A1.5,1.5,0,0,1,43,47.6V58ZM59,44.265v.012a.285.285,0,0,1-.144.286L45,50.485V47.6A3.494,3.494,0,0,0,41.637,44H20.362A3.494,3.494,0,0,0,17,47.6v2.881L3.151,44.566A.3.3,0,0,1,3,44.27a.28.28,0,0,1,.165-.265l27.878-9,27.792,9a.274.274,0,0,1,.165.26ZM20,31a11,11,0,1,1,20.754,5.049L35.345,34.3,37.9,32.854a2.106,2.106,0,0,0,.007-3.7L29.33,24.29a2.286,2.286,0,0,0-2.26.029A2.118,2.118,0,0,0,26,26.15v8.36l-4.754,1.539A11,11,0,0,1,20,31Zm11.659,2.1a2.125,2.125,0,0,0-1.317,0L28,33.863V26.15c0-.016,0-.064.08-.111a.27.27,0,0,1,.267-.009l8.577,4.864A.124.124,0,0,1,37,31c0,.042-.026.077-.085.11L32.76,33.462ZM42.7,36.678a13,13,0,1,0-23.392,0L6,40.985V14H56V40.986Z"/>
            <path id="Shape-13" data-name="Shape" d="M11,10A3,3,0,1,0,8,7,3,3,0,0,0,11,10Zm0-4a1,1,0,1,1-1,1A1,1,0,0,1,11,6Z"/>
            <path id="Shape-14" data-name="Shape" d="M19,10a3,3,0,1,0-3-3A3,3,0,0,0,19,10Zm0-4a1,1,0,1,1-1,1A1,1,0,0,1,19,6Z"/>
            <path id="Shape-15" data-name="Shape" d="M27,10a3,3,0,1,0-3-3A3,3,0,0,0,27,10Zm0-4a1,1,0,1,1-1,1A1,1,0,0,1,27,6Z"/>
            <path id="Shape-16" data-name="Shape" d="M41,10H51a3,3,0,0,0,0-6H41a3,3,0,0,0,0,6Zm0-4H51a1,1,0,0,1,0,2H41a1,1,0,0,1,0-2Z"/>
          </g>
          <path id="Shape-17" data-name="Shape" d="M22,48a1,1,0,0,0-1,1v6a1,1,0,0,0,2,0V49A1,1,0,0,0,22,48Z" fill="#fff"/>
        </g>
      </g>
    </g>
  </g>
</svg>
