<svg xmlns="http://www.w3.org/2000/svg" xmlns:xlink="http://www.w3.org/1999/xlink" width="113" height="113" viewBox="0 0 113 113">
  <defs>
    <filter id="Trazado_982547" x="0" y="0" width="113" height="113" filterUnits="userSpaceOnUse">
      <feOffset dy="3" input="SourceAlpha"/>
      <feGaussianBlur stdDeviation="3" result="blur"/>
      <feFlood flood-opacity="0.161"/>
      <feComposite operator="in" in2="blur"/>
      <feComposite in="SourceGraphic"/>
    </filter>
  </defs>
  <g id="Grupo_1211538" data-name="Grupo 1211538" transform="translate(-13649.02 -1592.846)">
    <g id="Grupo_1211211" data-name="Grupo 1211211" transform="translate(13658.02 1598.846)">
      <g id="Grupo_1210736" data-name="Grupo 1210736" transform="translate(0)">
        <g id="Grupo_1210537" data-name="Grupo 1210537">
          <g id="Grupo_1164202" data-name="Grupo 1164202">
            <g id="Grupo_1158168" data-name="Grupo 1158168">
              <g id="Grupo_1152576" data-name="Grupo 1152576">
                <g id="Grupo_1148633" data-name="Grupo 1148633">
                  <g id="Grupo_1148525" data-name="Grupo 1148525">
                    <g transform="matrix(1, 0, 0, 1, -9, -6)" filter="url(#Trazado_982547)">
                      <g id="Trazado_982547-2" data-name="Trazado 982547" transform="translate(9 6)" fill="#fdf6e4">
                        <path d="M 47.5 93.5 C 41.28937149047852 93.5 35.26533508300781 92.28397369384766 29.59518623352051 89.88570404052734 C 24.11771965026855 87.56893157958984 19.19813346862793 84.25196075439453 14.97309303283691 80.02691650390625 C 10.74804019927979 75.80186462402344 7.431066513061523 70.88229370117188 5.114293098449707 65.40481567382812 C 2.716026782989502 59.73468017578125 1.5 53.71062850952148 1.5 47.5 C 1.5 41.28937149047852 2.716026782989502 35.26533508300781 5.114293098449707 29.59518623352051 C 7.431066513061523 24.11771965026855 10.74804019927979 19.19813346862793 14.97309303283691 14.97309303283691 C 19.19813346862793 10.74804019927979 24.11771965026855 7.431066513061523 29.59518623352051 5.114293098449707 C 35.26533508300781 2.716026782989502 41.28937149047852 1.5 47.5 1.5 C 53.71062850952148 1.5 59.73468017578125 2.716026782989502 65.40481567382812 5.114293098449707 C 70.88229370117188 7.431066513061523 75.80186462402344 10.74804019927979 80.02691650390625 14.97309303283691 C 84.25196075439453 19.19813346862793 87.56893157958984 24.11771965026855 89.88570404052734 29.59518623352051 C 92.28397369384766 35.26533508300781 93.5 41.28937149047852 93.5 47.5 C 93.5 53.71062850952148 92.28397369384766 59.73468017578125 89.88570404052734 65.40481567382812 C 87.56893157958984 70.88229370117188 84.25196075439453 75.80186462402344 80.02691650390625 80.02691650390625 C 75.80186462402344 84.25196075439453 70.88229370117188 87.56893157958984 65.40481567382812 89.88570404052734 C 59.73468017578125 92.28397369384766 53.71062850952148 93.5 47.5 93.5 Z" stroke="none"/>
                        <path d="M 47.5 3 C 41.49121475219727 3 35.66376876831055 4.176155090332031 30.17950439453125 6.495796203613281 C 24.88084411621094 8.736953735351562 20.12152099609375 11.94598388671875 16.03375244140625 16.03375244140625 C 11.94598388671875 20.12152099609375 8.736953735351562 24.88084411621094 6.495796203613281 30.17950439453125 C 4.176155090332031 35.66376876831055 3 41.49121475219727 3 47.5 C 3 53.50878524780273 4.176155090332031 59.33623123168945 6.495796203613281 64.82049560546875 C 8.736953735351562 70.11915588378906 11.94598388671875 74.87847900390625 16.03375244140625 78.96624755859375 C 20.12152099609375 83.05401611328125 24.88084411621094 86.26304626464844 30.17950439453125 88.50419616699219 C 35.66376876831055 90.82384490966797 41.49121475219727 92 47.5 92 C 53.50878524780273 92 59.33623123168945 90.82384490966797 64.82049560546875 88.50419616699219 C 70.11915588378906 86.26304626464844 74.87847900390625 83.05401611328125 78.96624755859375 78.96624755859375 C 83.05401611328125 74.87847900390625 86.26304626464844 70.11915588378906 88.50419616699219 64.82049560546875 C 90.82384490966797 59.33623123168945 92 53.50878524780273 92 47.5 C 92 41.49121475219727 90.82384490966797 35.66376876831055 88.50419616699219 30.17950439453125 C 86.26304626464844 24.88084411621094 83.05401611328125 20.12152099609375 78.96624755859375 16.03375244140625 C 74.87847900390625 11.94598388671875 70.11915588378906 8.736953735351562 64.82049560546875 6.495796203613281 C 59.33623123168945 4.176155090332031 53.50878524780273 3 47.5 3 M 47.5 0 C 73.7335205078125 0 95 21.2664794921875 95 47.5 C 95 73.7335205078125 73.7335205078125 95 47.5 95 C 21.2664794921875 95 0 73.7335205078125 0 47.5 C 0 21.2664794921875 21.2664794921875 0 47.5 0 Z" stroke="none" fill="#f5b104"/>
                      </g>
                    </g>
                  </g>
                </g>
              </g>
            </g>
          </g>
        </g>
      </g>
    </g>
    <g id="laptop_5507213" transform="translate(13676 1616)">
      <path id="Trazado_1057424" data-name="Trazado 1057424" d="M58,49a1,1,0,0,1,1,1v3a6,6,0,0,1-6,6H7a6,6,0,0,1-6-6V50a1,1,0,0,1,1-1Z" fill="#9e9e9e"/>
      <path id="Trazado_1057425" data-name="Trazado 1057425" d="M58,49H55a1,1,0,0,1,1,1v3a6,6,0,0,1-6,6h3a6,6,0,0,0,6-6V50A1,1,0,0,0,58,49Z" fill="#707070"/>
      <path id="Trazado_1057426" data-name="Trazado 1057426" d="M36,49h4v2a3,3,0,0,1-3,3H23a3,3,0,0,1-3-3V49Z" fill="#7f8e94"/>
      <path id="Trazado_1057427" data-name="Trazado 1057427" d="M52,8h1a4,4,0,0,1,4,4V49H3V12A4,4,0,0,1,7,8Z" fill="#02a9f4"/>
      <path id="Trazado_1057428" data-name="Trazado 1057428" d="M53,8H50a4,4,0,0,1,4,4V49h3V12A4,4,0,0,0,53,8Z" fill="#0377bc"/>
      <path id="Trazado_1057429" data-name="Trazado 1057429" d="M21,1H46a6,6,0,0,1,6,6V44H8V14Z" fill="#f5f5f5"/>
      <path id="Trazado_1057430" data-name="Trazado 1057430" d="M46,1H43a6,6,0,0,1,6,6V44h3V7A6,6,0,0,0,46,1Z" fill="#cfd8dc"/>
      <path id="Trazado_1057431" data-name="Trazado 1057431" d="M8,14h7a6,6,0,0,0,6-6V1Z" fill="#9e9e9e"/>
      <path id="Trazado_1057432" data-name="Trazado 1057432" d="M24,32.59V49.3a1,1,0,0,0,1.76.65l3.48-4.06a1,1,0,0,1,1.52,0L33,48.5l1.24,1.45A1,1,0,0,0,36,49.3V32.59Z" fill="#ff9801"/>
      <path id="Trazado_1057433" data-name="Trazado 1057433" d="M33,32.59V48.5l1.24,1.45A1,1,0,0,0,36,49.3V32.59Z" fill="#f57c00"/>
      <path id="Trazado_1057434" data-name="Trazado 1057434" d="M31.1,13.454l.2-.132a2.036,2.036,0,0,1,2.907.779l.112.216a2.034,2.034,0,0,0,1.9,1.1l.242-.011A2.035,2.035,0,0,1,38.6,17.533l-.011.242a2.034,2.034,0,0,0,1.1,1.9l.216.112a2.036,2.036,0,0,1,.779,2.907l-.132.2a2.038,2.038,0,0,0,0,2.2l.132.2A2.036,2.036,0,0,1,39.9,28.21l-.216.112a2.034,2.034,0,0,0-1.1,1.9l.011.242A2.035,2.035,0,0,1,36.467,32.6l-.242-.011a2.034,2.034,0,0,0-1.9,1.1l-.112.216a2.036,2.036,0,0,1-2.907.779l-.2-.132a2.038,2.038,0,0,0-2.2,0l-.2.132A2.036,2.036,0,0,1,25.79,33.9l-.112-.216a2.034,2.034,0,0,0-1.9-1.1l-.242.011a2.035,2.035,0,0,1-2.128-2.128l.011-.242a2.034,2.034,0,0,0-1.1-1.9L20.1,28.21a2.036,2.036,0,0,1-.779-2.907l.132-.2a2.038,2.038,0,0,0,0-2.2l-.132-.2A2.036,2.036,0,0,1,20.1,19.79l.216-.112a2.034,2.034,0,0,0,1.1-1.9l-.011-.242a2.035,2.035,0,0,1,2.128-2.128l.242.011a2.034,2.034,0,0,0,1.9-1.1l.112-.216a2.036,2.036,0,0,1,2.907-.779l.2.132a2.038,2.038,0,0,0,2.206,0Z" fill="#f44335"/>
      <path id="Trazado_1057435" data-name="Trazado 1057435" d="M40.546,25.1a2.038,2.038,0,0,1,0-2.2l.132-.2a2.036,2.036,0,0,0-.778-2.91l-.216-.112a2.034,2.034,0,0,1-1.1-1.9l.011-.242a2.035,2.035,0,0,0-2.128-2.128l-.242.011a2.034,2.034,0,0,1-1.9-1.1L34.21,14.1a2.036,2.036,0,0,0-2.907-.779l-.2.132a2.036,2.036,0,0,1-.286.129,2.026,2.026,0,0,1,.4.518l.112.216a2.034,2.034,0,0,0,1.9,1.1l.242-.011A2.035,2.035,0,0,1,35.6,17.533l-.011.242a2.034,2.034,0,0,0,1.1,1.9l.216.112a2.036,2.036,0,0,1,.779,2.907l-.132.2a2.038,2.038,0,0,0,0,2.2l.132.2A2.036,2.036,0,0,1,36.9,28.21l-.216.112a2.034,2.034,0,0,0-1.1,1.9l.011.242A2.035,2.035,0,0,1,33.467,32.6l-.242-.011a2.034,2.034,0,0,0-1.9,1.1l-.112.216a2.026,2.026,0,0,1-.4.518,2.036,2.036,0,0,1,.286.129l.2.132A2.036,2.036,0,0,0,34.21,33.9l.112-.216a2.034,2.034,0,0,1,1.9-1.1l.242.011A2.035,2.035,0,0,0,38.6,30.467l-.011-.242a2.034,2.034,0,0,1,1.1-1.9l.216-.112a2.036,2.036,0,0,0,.779-2.907Z" fill="#c81e1e"/>
      <circle id="Elipse_12575" data-name="Elipse 12575" cx="6" cy="6" r="6" transform="translate(24 18)" fill="#ffdf00"/>
      <path id="Trazado_1057436" data-name="Trazado 1057436" d="M30,18a5.983,5.983,0,0,0-1.5.2,5.992,5.992,0,0,1,0,11.606A6,6,0,1,0,30,18Z" fill="#fec108"/>
      <path id="Trazado_1057437" data-name="Trazado 1057437" d="M58,48V12a5.006,5.006,0,0,0-5-5,7.008,7.008,0,0,0-7-7H21a1,1,0,0,0-.707.293L13.586,7H7a5.006,5.006,0,0,0-5,5V48a2,2,0,0,0-2,2v3a7.008,7.008,0,0,0,7,7H53a7.008,7.008,0,0,0,7-7V50A2,2,0,0,0,58,48Zm-5-4V9a3,3,0,0,1,3,3V48H37V45H52A1,1,0,0,0,53,44ZM20.776,27.434l-.216-.112a1.037,1.037,0,0,1-.4-1.479l.131-.2a3.041,3.041,0,0,0,0-3.277l-.131-.2a1.037,1.037,0,0,1,.4-1.479l.216-.112a3.045,3.045,0,0,0,1.639-2.839l-.012-.241a1.024,1.024,0,0,1,.3-.78,1,1,0,0,1,.778-.3l.245.012a3.044,3.044,0,0,0,2.837-1.639l.112-.216a1.037,1.037,0,0,1,1.479-.4l.2.131a3.043,3.043,0,0,0,3.276,0l.2-.131a1.037,1.037,0,0,1,1.479.4l.112.216a3.047,3.047,0,0,0,2.839,1.639l.241-.012a1.038,1.038,0,0,1,1.1,1.069l-.012.245a3.044,3.044,0,0,0,1.639,2.837l.216.112a1.037,1.037,0,0,1,.4,1.479l-.131.2a3.041,3.041,0,0,0,0,3.277l.131.2a1.037,1.037,0,0,1-.4,1.479l-.216.112a3.045,3.045,0,0,0-1.639,2.839l.012.241a1.024,1.024,0,0,1-.3.78,1,1,0,0,1-.778.3l-.245-.012a3.044,3.044,0,0,0-2.837,1.639l-.112.216a1.037,1.037,0,0,1-1.479.4l-.2-.131a3.042,3.042,0,0,0-3.277,0l-.2.131a1.037,1.037,0,0,1-1.479-.4l-.112-.216a3.051,3.051,0,0,0-2.839-1.639l-.241.012a1.01,1.01,0,0,1-.78-.3,1.022,1.022,0,0,1-.3-.778l.012-.245a3.044,3.044,0,0,0-1.657-2.828Zm7.7,17.8-2.617,3.053L25,49.3V34.507a3.012,3.012,0,0,0,4.237,1.012l.2-.131a1.039,1.039,0,0,1,1.118,0l.2.132A3.013,3.013,0,0,0,35,34.507V49.3l-.86-1h-.005l-2.614-3.05a2.061,2.061,0,0,0-3.04-.011ZM31.251,48h-2.5L30,46.542Zm-6.946,3.173a2.024,2.024,0,0,0,.7.127,1.98,1.98,0,0,0,1.509-.7l.516-.6h5.931l.515.6a1.99,1.99,0,0,0,3.381-.6H39v1a2,2,0,0,1-2,2H23a2,2,0,0,1-2-2V50h2.138a1.969,1.969,0,0,0,1.167,1.173ZM22,8V2H46a5.006,5.006,0,0,1,5,5V43H37V33.561a3.029,3.029,0,0,0,2.6-3.142l-.012-.24a1.039,1.039,0,0,1,.559-.969l.216-.112a3.035,3.035,0,0,0,1.161-4.335l-.131-.2a1.037,1.037,0,0,1,0-1.118l.132-.2A3.035,3.035,0,0,0,40.358,18.9l-.216-.112a1.037,1.037,0,0,1-.559-.966l.012-.245A3.039,3.039,0,0,0,36.419,14.4l-.24.012a1.027,1.027,0,0,1-.969-.559L35.1,13.64a3.035,3.035,0,0,0-4.335-1.161l-.2.131a1.041,1.041,0,0,1-1.118,0l-.2-.132A3.035,3.035,0,0,0,24.9,13.642l-.112.216a1.02,1.02,0,0,1-.966.559l-.245-.012A3.039,3.039,0,0,0,20.4,17.581l.012.24a1.039,1.039,0,0,1-.559.969l-.216.112a3.035,3.035,0,0,0-1.161,4.335l.131.2a1.037,1.037,0,0,1,0,1.118l-.132.2A3.035,3.035,0,0,0,19.642,29.1l.216.112a1.037,1.037,0,0,1,.559.966l-.012.245A3.028,3.028,0,0,0,23,33.561V43H9V15h6a7.008,7.008,0,0,0,7-7ZM20,3.414V8a5.006,5.006,0,0,1-5,5H10.414ZM4,12A3,3,0,0,1,7,9h4.586L7.293,13.293A1,1,0,0,0,7,14V44a1,1,0,0,0,1,1H23v3H4ZM58,53a5.006,5.006,0,0,1-5,5H7a5.006,5.006,0,0,1-5-5V50H19v1a4,4,0,0,0,4,4H37a4,4,0,0,0,4-4V50H58Z"/>
      <path id="Trazado_1057438" data-name="Trazado 1057438" d="M15,52H12a1,1,0,0,0,0,2h3a1,1,0,0,0,0-2Z"/>
      <circle id="Elipse_12576" data-name="Elipse 12576" cx="1" cy="1" r="1" transform="translate(5 52)"/>
      <circle id="Elipse_12577" data-name="Elipse 12577" cx="1" cy="1" r="1" transform="translate(8 52)"/>
      <path id="Trazado_1057439" data-name="Trazado 1057439" d="M30,31a7,7,0,1,0-7-7,7,7,0,0,0,7,7Zm0-12a5,5,0,1,1-5,5,5,5,0,0,1,5-5Z"/>
    </g>
  </g>
</svg>
