<svg xmlns="http://www.w3.org/2000/svg" xmlns:xlink="http://www.w3.org/1999/xlink" width="113" height="113" viewBox="0 0 113 113">
  <defs>
    <filter id="Trazado_982547" x="0" y="0" width="113" height="113" filterUnits="userSpaceOnUse">
      <feOffset dy="3" input="SourceAlpha"/>
      <feGaussianBlur stdDeviation="3" result="blur"/>
      <feFlood flood-opacity="0.161"/>
      <feComposite operator="in" in2="blur"/>
      <feComposite in="SourceGraphic"/>
    </filter>
  </defs>
  <g id="Grupo_1211539" data-name="Grupo 1211539" transform="translate(-13307.02 -2026.846)">
    <g id="Grupo_1211212" data-name="Grupo 1211212" transform="translate(13316.02 2032.846)">
      <g id="Grupo_1210736" data-name="Grupo 1210736" transform="translate(0)">
        <g id="Grupo_1210537" data-name="Grupo 1210537">
          <g id="Grupo_1164202" data-name="Grupo 1164202">
            <g id="Grupo_1158168" data-name="Grupo 1158168">
              <g id="Grupo_1152576" data-name="Grupo 1152576">
                <g id="Grupo_1148633" data-name="Grupo 1148633">
                  <g id="Grupo_1148525" data-name="Grupo 1148525">
                    <g transform="matrix(1, 0, 0, 1, -9, -6)" filter="url(#Trazado_982547)">
                      <g id="Trazado_982547-2" data-name="Trazado 982547" transform="translate(9 6)" fill="#fdf6e4">
                        <path d="M 47.5 93.5 C 41.28937149047852 93.5 35.26533508300781 92.28397369384766 29.59518623352051 89.88570404052734 C 24.11771965026855 87.56893157958984 19.19813346862793 84.25196075439453 14.97309303283691 80.02691650390625 C 10.74804019927979 75.80186462402344 7.431066513061523 70.88229370117188 5.114293098449707 65.40481567382812 C 2.716026782989502 59.73468017578125 1.5 53.71062850952148 1.5 47.5 C 1.5 41.28937149047852 2.716026782989502 35.26533508300781 5.114293098449707 29.59518623352051 C 7.431066513061523 24.11771965026855 10.74804019927979 19.19813346862793 14.97309303283691 14.97309303283691 C 19.19813346862793 10.74804019927979 24.11771965026855 7.431066513061523 29.59518623352051 5.114293098449707 C 35.26533508300781 2.716026782989502 41.28937149047852 1.5 47.5 1.5 C 53.71062850952148 1.5 59.73468017578125 2.716026782989502 65.40481567382812 5.114293098449707 C 70.88229370117188 7.431066513061523 75.80186462402344 10.74804019927979 80.02691650390625 14.97309303283691 C 84.25196075439453 19.19813346862793 87.56893157958984 24.11771965026855 89.88570404052734 29.59518623352051 C 92.28397369384766 35.26533508300781 93.5 41.28937149047852 93.5 47.5 C 93.5 53.71062850952148 92.28397369384766 59.73468017578125 89.88570404052734 65.40481567382812 C 87.56893157958984 70.88229370117188 84.25196075439453 75.80186462402344 80.02691650390625 80.02691650390625 C 75.80186462402344 84.25196075439453 70.88229370117188 87.56893157958984 65.40481567382812 89.88570404052734 C 59.73468017578125 92.28397369384766 53.71062850952148 93.5 47.5 93.5 Z" stroke="none"/>
                        <path d="M 47.5 3 C 41.49121475219727 3 35.66376876831055 4.176155090332031 30.17950439453125 6.495796203613281 C 24.88084411621094 8.736953735351562 20.12152099609375 11.94598388671875 16.03375244140625 16.03375244140625 C 11.94598388671875 20.12152099609375 8.736953735351562 24.88084411621094 6.495796203613281 30.17950439453125 C 4.176155090332031 35.66376876831055 3 41.49121475219727 3 47.5 C 3 53.50878524780273 4.176155090332031 59.33623123168945 6.495796203613281 64.82049560546875 C 8.736953735351562 70.11915588378906 11.94598388671875 74.87847900390625 16.03375244140625 78.96624755859375 C 20.12152099609375 83.05401611328125 24.88084411621094 86.26304626464844 30.17950439453125 88.50419616699219 C 35.66376876831055 90.82384490966797 41.49121475219727 92 47.5 92 C 53.50878524780273 92 59.33623123168945 90.82384490966797 64.82049560546875 88.50419616699219 C 70.11915588378906 86.26304626464844 74.87847900390625 83.05401611328125 78.96624755859375 78.96624755859375 C 83.05401611328125 74.87847900390625 86.26304626464844 70.11915588378906 88.50419616699219 64.82049560546875 C 90.82384490966797 59.33623123168945 92 53.50878524780273 92 47.5 C 92 41.49121475219727 90.82384490966797 35.66376876831055 88.50419616699219 30.17950439453125 C 86.26304626464844 24.88084411621094 83.05401611328125 20.12152099609375 78.96624755859375 16.03375244140625 C 74.87847900390625 11.94598388671875 70.11915588378906 8.736953735351562 64.82049560546875 6.495796203613281 C 59.33623123168945 4.176155090332031 53.50878524780273 3 47.5 3 M 47.5 0 C 73.7335205078125 0 95 21.2664794921875 95 47.5 C 95 73.7335205078125 73.7335205078125 95 47.5 95 C 21.2664794921875 95 0 73.7335205078125 0 47.5 C 0 21.2664794921875 21.2664794921875 0 47.5 0 Z" stroke="none" fill="#f5b104"/>
                      </g>
                    </g>
                  </g>
                </g>
              </g>
            </g>
          </g>
        </g>
      </g>
    </g>
    <g id="Data" transform="translate(13331.48 2051.058)">
      <path id="Trazado_1057440" data-name="Trazado 1057440" d="M54.3,45.656V4.94H22.319L3.1,5.583V45.656Z" transform="translate(3.387 3.727)" fill="#eae2f9"/>
      <path id="Trazado_1057441" data-name="Trazado 1057441" d="M14.38,3.46a12.5,12.5,0,1,0,8.858,3.651A12.53,12.53,0,0,0,14.38,3.46Zm0,7.682h.146a4.761,4.761,0,1,1-.146,0" transform="translate(0.986 0.884)" fill="#f94060"/>
      <path id="Trazado_1057442" data-name="Trazado 1057442" d="M24.26,45.656V4.94H20.814l-2.074.643V45.656Z" transform="translate(33.428 3.727)" fill="#c0c3ee"/>
      <path id="Trazado_1057443" data-name="Trazado 1057443" d="M16.46,13h8.762a3.33,3.33,0,0,1,0,6.659H16.46a3.33,3.33,0,1,1,0-6.659" transform="translate(22.652 19.209)" fill="#96ccee"/>
      <path id="Trazado_1057444" data-name="Trazado 1057444" d="M1.86,17.1v6.1a3.943,3.943,0,0,0,3.972,3.943h50.5A3.914,3.914,0,0,0,60.276,23.2V17.1H41.145v3.826H20.991V17.1Z" transform="translate(1.005 27.084)" fill="#9293a5"/>
      <path id="Trazado_1057445" data-name="Trazado 1057445" d="M22.333,17.1v6.1a3.914,3.914,0,0,1-3.943,3.943h6.192A3.914,3.914,0,0,0,28.525,23.2V17.1Z" transform="translate(32.756 27.084)" fill="#6f7188"/>
      <path id="Trazado_1057446" data-name="Trazado 1057446" d="M7.581,3.46a13.844,13.844,0,0,0-2.191.175,12.5,12.5,0,0,1,0,24.681,12.764,12.764,0,0,0,2.1.175,12.53,12.53,0,0,0,0-25.031Z" transform="translate(7.785 0.884)" fill="#d62657"/>
      <path id="Trazado_1057447" data-name="Trazado 1057447" d="M6.837,55.575h50.5a5.4,5.4,0,0,0,5.4-5.4V44.184a1.46,1.46,0,0,0-1.46-1.46H59.12V8.667a1.46,1.46,0,0,0-1.46-1.46H25.5A13.9,13.9,0,0,0,15.4,3,13.9,13.9,0,0,0,5.056,26.367V42.723H2.865a1.49,1.49,0,0,0-1.46,1.46v6.1a5.4,5.4,0,0,0,5.433,5.287ZM56.2,10.01V42.723H42.15a1.49,1.49,0,0,0-1.46,1.46V46.55H23.457V44.184A1.46,1.46,0,0,0,22,42.723H7.947V28.645A13.845,13.845,0,0,0,15.4,30.836a14.341,14.341,0,0,0,4.352-.759l3.622,6.28a1.519,1.519,0,0,0,1.256.73h9.931a4.819,4.819,0,0,0,4.556,3.33h8.762a4.79,4.79,0,1,0,0-9.58H39.112a4.819,4.819,0,0,0-4.556,3.33H25.472L22.551,28.85a13.757,13.757,0,0,0,5.141-18.722ZM37.243,35.48a1.84,1.84,0,0,1,1.869-1.84h8.762a1.869,1.869,0,0,1,0,3.739H39.112a1.869,1.869,0,0,1-1.869-1.869ZM16.826,5.921a11.011,11.011,0,0,1,9.463,9.463H21.471a6.367,6.367,0,0,0-4.644-4.644Zm-1.46,7.536a3.359,3.359,0,1,1-3.359,3.359A3.359,3.359,0,0,1,15.366,13.457ZM4.325,16.845a11.011,11.011,0,0,1,9.58-10.924v4.819a6.28,6.28,0,1,0,7.565,7.565H26.29a11.041,11.041,0,0,1-21.964-1.46Zm0,28.8h16.21V48.01A1.49,1.49,0,0,0,22,49.47H42.15a1.46,1.46,0,0,0,1.46-1.46V45.644h16.21v4.644a2.483,2.483,0,0,1-2.483,2.483H6.837a2.483,2.483,0,0,1-2.512-2.483Z" transform="translate(0 0)"/>
      <path id="Trazado_1057448" data-name="Trazado 1057448" d="M25.366,10.31H14.5a1.46,1.46,0,1,0,0,2.921H25.366a1.46,1.46,0,0,0,1.46-1.46,1.49,1.49,0,0,0-1.46-1.46Z" transform="translate(22.48 14.042)"/>
      <path id="Trazado_1057449" data-name="Trazado 1057449" d="M14.5,11.681h6.718a1.46,1.46,0,1,0,0-2.921H14.5a1.46,1.46,0,1,0,0,2.921Z" transform="translate(22.48 11.064)"/>
      <path id="Trazado_1057450" data-name="Trazado 1057450" d="M14.5,10.131H25.366a1.46,1.46,0,1,0,0-2.921H14.5a1.46,1.46,0,1,0,0,2.921Z" transform="translate(22.48 8.087)"/>
    </g>
  </g>
</svg>
