<svg xmlns="http://www.w3.org/2000/svg" xmlns:xlink="http://www.w3.org/1999/xlink" width="113" height="113" viewBox="0 0 113 113">
  <defs>
    <filter id="Trazado_982547" x="0" y="0" width="113" height="113" filterUnits="userSpaceOnUse">
      <feOffset dy="3" input="SourceAlpha"/>
      <feGaussianBlur stdDeviation="3" result="blur"/>
      <feFlood flood-opacity="0.161"/>
      <feComposite operator="in" in2="blur"/>
      <feComposite in="SourceGraphic"/>
    </filter>
  </defs>
  <g id="Grupo_1211540" data-name="Grupo 1211540" transform="translate(-13649.51 -2026.846)">
    <g id="Grupo_1211213" data-name="Grupo 1211213" transform="translate(13658.51 2032.846)">
      <g id="Grupo_1210736" data-name="Grupo 1210736" transform="translate(0)">
        <g id="Grupo_1210537" data-name="Grupo 1210537">
          <g id="Grupo_1164202" data-name="Grupo 1164202">
            <g id="Grupo_1158168" data-name="Grupo 1158168">
              <g id="Grupo_1152576" data-name="Grupo 1152576">
                <g id="Grupo_1148633" data-name="Grupo 1148633">
                  <g id="Grupo_1148525" data-name="Grupo 1148525">
                    <g transform="matrix(1, 0, 0, 1, -9, -6)" filter="url(#Trazado_982547)">
                      <g id="Trazado_982547-2" data-name="Trazado 982547" transform="translate(9 6)" fill="#fdf6e4">
                        <path d="M 47.5 93.5 C 41.28937149047852 93.5 35.26533508300781 92.28397369384766 29.59518623352051 89.88570404052734 C 24.11771965026855 87.56893157958984 19.19813346862793 84.25196075439453 14.97309303283691 80.02691650390625 C 10.74804019927979 75.80186462402344 7.431066513061523 70.88229370117188 5.114293098449707 65.40481567382812 C 2.716026782989502 59.73468017578125 1.5 53.71062850952148 1.5 47.5 C 1.5 41.28937149047852 2.716026782989502 35.26533508300781 5.114293098449707 29.59518623352051 C 7.431066513061523 24.11771965026855 10.74804019927979 19.19813346862793 14.97309303283691 14.97309303283691 C 19.19813346862793 10.74804019927979 24.11771965026855 7.431066513061523 29.59518623352051 5.114293098449707 C 35.26533508300781 2.716026782989502 41.28937149047852 1.5 47.5 1.5 C 53.71062850952148 1.5 59.73468017578125 2.716026782989502 65.40481567382812 5.114293098449707 C 70.88229370117188 7.431066513061523 75.80186462402344 10.74804019927979 80.02691650390625 14.97309303283691 C 84.25196075439453 19.19813346862793 87.56893157958984 24.11771965026855 89.88570404052734 29.59518623352051 C 92.28397369384766 35.26533508300781 93.5 41.28937149047852 93.5 47.5 C 93.5 53.71062850952148 92.28397369384766 59.73468017578125 89.88570404052734 65.40481567382812 C 87.56893157958984 70.88229370117188 84.25196075439453 75.80186462402344 80.02691650390625 80.02691650390625 C 75.80186462402344 84.25196075439453 70.88229370117188 87.56893157958984 65.40481567382812 89.88570404052734 C 59.73468017578125 92.28397369384766 53.71062850952148 93.5 47.5 93.5 Z" stroke="none"/>
                        <path d="M 47.5 3 C 41.49121475219727 3 35.66376876831055 4.176155090332031 30.17950439453125 6.495796203613281 C 24.88084411621094 8.736953735351562 20.12152099609375 11.94598388671875 16.03375244140625 16.03375244140625 C 11.94598388671875 20.12152099609375 8.736953735351562 24.88084411621094 6.495796203613281 30.17950439453125 C 4.176155090332031 35.66376876831055 3 41.49121475219727 3 47.5 C 3 53.50878524780273 4.176155090332031 59.33623123168945 6.495796203613281 64.82049560546875 C 8.736953735351562 70.11915588378906 11.94598388671875 74.87847900390625 16.03375244140625 78.96624755859375 C 20.12152099609375 83.05401611328125 24.88084411621094 86.26304626464844 30.17950439453125 88.50419616699219 C 35.66376876831055 90.82384490966797 41.49121475219727 92 47.5 92 C 53.50878524780273 92 59.33623123168945 90.82384490966797 64.82049560546875 88.50419616699219 C 70.11915588378906 86.26304626464844 74.87847900390625 83.05401611328125 78.96624755859375 78.96624755859375 C 83.05401611328125 74.87847900390625 86.26304626464844 70.11915588378906 88.50419616699219 64.82049560546875 C 90.82384490966797 59.33623123168945 92 53.50878524780273 92 47.5 C 92 41.49121475219727 90.82384490966797 35.66376876831055 88.50419616699219 30.17950439453125 C 86.26304626464844 24.88084411621094 83.05401611328125 20.12152099609375 78.96624755859375 16.03375244140625 C 74.87847900390625 11.94598388671875 70.11915588378906 8.736953735351562 64.82049560546875 6.495796203613281 C 59.33623123168945 4.176155090332031 53.50878524780273 3 47.5 3 M 47.5 0 C 73.7335205078125 0 95 21.2664794921875 95 47.5 C 95 73.7335205078125 73.7335205078125 95 47.5 95 C 21.2664794921875 95 0 73.7335205078125 0 47.5 C 0 21.2664794921875 21.2664794921875 0 47.5 0 Z" stroke="none" fill="#f5b104"/>
                      </g>
                    </g>
                  </g>
                </g>
              </g>
            </g>
          </g>
        </g>
      </g>
    </g>
    <g id="development_11333246" transform="translate(13668.837 2039.624)">
      <g id="Grupo_1211535" data-name="Grupo 1211535" transform="translate(8 7.5)">
        <path id="Trazado_1057451" data-name="Trazado 1057451" d="M46,180.835V146.028a3.528,3.528,0,0,1,3.528-3.528H91.861a3.528,3.528,0,0,1,3.528,3.528v34.807Z" transform="translate(-41.531 -126.625)" fill="#fff"/>
        <path id="Trazado_1057452" data-name="Trazado 1057452" d="M52.468,142.5h-2.94A3.528,3.528,0,0,0,46,146.028v34.807h2.94V146.028A3.528,3.528,0,0,1,52.468,142.5Z" transform="translate(-41.531 -126.625)" fill="#e3e9ee"/>
        <rect id="Rectángulo_421142" data-name="Rectángulo 421142" width="39.981" height="27.046" transform="translate(9.172 20.394)" fill="#94b7f7"/>
        <path id="Trazado_1057453" data-name="Trazado 1057453" d="M45.512,448.5H66.326v3.057a3.528,3.528,0,0,1-3.528,3.528H11.528A3.528,3.528,0,0,1,8,451.557V448.5H28.814a1.646,1.646,0,0,0,1.646,1.646H43.866a1.646,1.646,0,0,0,1.646-1.646Z" transform="translate(-8 -396.642)" fill="#fff"/>
        <path id="Trazado_1057454" data-name="Trazado 1057454" d="M176,231.625a3.528,3.528,0,0,0,3.528,3.528h11.759a3.528,3.528,0,0,0,3.528-3.528v-3.448H176Z" transform="translate(-156.244 -202.227)" fill="#fff"/>
        <path id="Trazado_1057455" data-name="Trazado 1057455" d="M194.815,11.028A3.528,3.528,0,0,0,191.287,7.5H179.528A3.528,3.528,0,0,0,176,11.028v2.667h18.815Z" transform="translate(-156.244 -7.5)" fill="#fff"/>
        <rect id="Rectángulo_421143" data-name="Rectángulo 421143" width="18.815" height="19.756" transform="translate(19.756 6.194)" fill="#fee95d"/>
        <path id="Trazado_1057456" data-name="Trazado 1057456" d="M178.94,231.625v-3.448H176v3.448a3.528,3.528,0,0,0,3.528,3.528h2.94A3.528,3.528,0,0,1,178.94,231.625Z" transform="translate(-156.244 -202.227)" fill="#e3e9ee"/>
        <path id="Trazado_1057457" data-name="Trazado 1057457" d="M182.468,7.5h-2.94A3.528,3.528,0,0,0,176,11.028v2.667h2.94V11.028A3.528,3.528,0,0,1,182.468,7.5Z" transform="translate(-156.244 -7.5)" fill="#e3e9ee"/>
        <rect id="Rectángulo_421144" data-name="Rectángulo 421144" width="2.94" height="19.756" transform="translate(19.756 6.194)" fill="#e7c900"/>
        <rect id="Rectángulo_421145" data-name="Rectángulo 421145" width="2.94" height="27.046" transform="translate(9.172 20.394)" fill="#5b92f2"/>
        <path id="Trazado_1057458" data-name="Trazado 1057458" d="M10.94,451.557V448.5H8v3.057a3.528,3.528,0,0,0,3.528,3.528h2.94A3.528,3.528,0,0,1,10.94,451.557Z" transform="translate(-8 -396.642)" fill="#e3e9ee"/>
        <path id="Trazado_1057459" data-name="Trazado 1057459" d="M185.276,329.926,181,334.677l1.66,1.045v3.728h5.232v-3.728l1.66-1.045Z" transform="translate(-160.657 -292.011)" fill="#ffaa81"/>
        <path id="Trazado_1057460" data-name="Trazado 1057460" d="M256.769,269.685l3.888-4.319-1.509-.95v-6.49h-4.756v6.49l-1.509.95Z" transform="translate(-224.086 -228.478)" fill="#ffaa81"/>
      </g>
      <g id="Grupo_1211536" data-name="Grupo 1211536" transform="translate(8 7.5)">
        <path id="Trazado_1057461" data-name="Trazado 1057461" d="M336,142.5h11.759a3.528,3.528,0,0,1,3.528,3.528v32.456" transform="translate(-297.43 -126.625)" fill="none" stroke="#000" stroke-miterlimit="10" stroke-width="1"/>
        <path id="Trazado_1057462" data-name="Trazado 1057462" d="M46,178.483V146.028a3.528,3.528,0,0,1,3.528-3.528H61.287" transform="translate(-41.531 -126.625)" fill="none" stroke="#000" stroke-miterlimit="10" stroke-width="1"/>
        <path id="Trazado_1057463" data-name="Trazado 1057463" d="M115.4,180.93h10.583v27.046H86V180.93H96.583" transform="translate(-76.828 -160.536)" fill="none" stroke="#000" stroke-miterlimit="10" stroke-width="1"/>
        <path id="Trazado_1057464" data-name="Trazado 1057464" d="M57.154,455.085H62.8a3.528,3.528,0,0,0,3.528-3.528V448.5H45.512a1.647,1.647,0,0,1-1.646,1.646H30.46a1.646,1.646,0,0,1-1.646-1.646H8v3.057a3.528,3.528,0,0,0,3.528,3.528H55.39" transform="translate(-8 -396.642)" fill="none" stroke="#000" stroke-miterlimit="10" stroke-width="1"/>
        <path id="Trazado_1057465" data-name="Trazado 1057465" d="M238.5,7.5h7.937a3.528,3.528,0,0,1,3.528,3.528V36.9a3.528,3.528,0,0,1-3.508,3.528" transform="translate(-211.395 -7.5)" fill="none" stroke="#000" stroke-miterlimit="10" stroke-width="1"/>
        <path id="Trazado_1057466" data-name="Trazado 1057466" d="M181.586,7.5h-2.058A3.528,3.528,0,0,0,176,11.028V36.9a3.528,3.528,0,0,0,3.528,3.528h7.023" transform="translate(-156.244 -7.5)" fill="none" stroke="#000" stroke-miterlimit="10" stroke-width="1"/>
        <path id="Trazado_1057467" data-name="Trazado 1057467" d="M187.892,339.451v-3.728l1.66-1.045-4.276-4.751L181,334.677l1.66,1.045v3.728" transform="translate(-160.657 -292.011)" fill="none" stroke="#000" stroke-miterlimit="10" stroke-width="1"/>
        <path id="Trazado_1057468" data-name="Trazado 1057468" d="M256.769,269.685l3.888-4.319-1.509-.95v-6.49h-4.756v6.49l-1.509.95Z" transform="translate(-224.086 -228.478)" fill="none" stroke="#000" stroke-miterlimit="10" stroke-width="1"/>
        <line id="Línea_2614" data-name="Línea 2614" x2="18.815" transform="translate(19.756 6.194)" fill="none" stroke="#000" stroke-miterlimit="10" stroke-width="1"/>
        <line id="Línea_2615" data-name="Línea 2615" x2="18.815" transform="translate(19.756 25.95)" fill="none" stroke="#000" stroke-miterlimit="10" stroke-width="1"/>
      </g>
      <g id="Grupo_1211537" data-name="Grupo 1211537" transform="translate(34.517 23.572)">
        <line id="Línea_2616" data-name="Línea 2616" x2="1.764" fill="none" stroke="#fff" stroke-miterlimit="10" stroke-width="1"/>
        <line id="Línea_2617" data-name="Línea 2617" x2="1.764" transform="translate(3.528)" fill="none" stroke="#fff" stroke-miterlimit="10" stroke-width="1"/>
      </g>
    </g>
  </g>
</svg>
