<svg xmlns="http://www.w3.org/2000/svg" xmlns:xlink="http://www.w3.org/1999/xlink" width="113" height="113" viewBox="0 0 113 113">
  <defs>
    <filter id="Trazado_982547" x="0" y="0" width="113" height="113" filterUnits="userSpaceOnUse">
      <feOffset dy="3" input="SourceAlpha"/>
      <feGaussianBlur stdDeviation="3" result="blur"/>
      <feFlood flood-opacity="0.161"/>
      <feComposite operator="in" in2="blur"/>
      <feComposite in="SourceGraphic"/>
    </filter>
  </defs>
  <g id="Grupo_1211541" data-name="Grupo 1211541" transform="translate(-13307.02 -2442.846)">
    <g id="Grupo_1211214" data-name="Grupo 1211214" transform="translate(13316.02 2448.846)">
      <g id="Grupo_1210736" data-name="Grupo 1210736" transform="translate(0)">
        <g id="Grupo_1210537" data-name="Grupo 1210537">
          <g id="Grupo_1164202" data-name="Grupo 1164202">
            <g id="Grupo_1158168" data-name="Grupo 1158168">
              <g id="Grupo_1152576" data-name="Grupo 1152576">
                <g id="Grupo_1148633" data-name="Grupo 1148633">
                  <g id="Grupo_1148525" data-name="Grupo 1148525">
                    <g transform="matrix(1, 0, 0, 1, -9, -6)" filter="url(#Trazado_982547)">
                      <g id="Trazado_982547-2" data-name="Trazado 982547" transform="translate(9 6)" fill="#fdf6e4">
                        <path d="M 47.5 93.5 C 41.28937149047852 93.5 35.26533508300781 92.28397369384766 29.59518623352051 89.88570404052734 C 24.11771965026855 87.56893157958984 19.19813346862793 84.25196075439453 14.97309303283691 80.02691650390625 C 10.74804019927979 75.80186462402344 7.431066513061523 70.88229370117188 5.114293098449707 65.40481567382812 C 2.716026782989502 59.73468017578125 1.5 53.71062850952148 1.5 47.5 C 1.5 41.28937149047852 2.716026782989502 35.26533508300781 5.114293098449707 29.59518623352051 C 7.431066513061523 24.11771965026855 10.74804019927979 19.19813346862793 14.97309303283691 14.97309303283691 C 19.19813346862793 10.74804019927979 24.11771965026855 7.431066513061523 29.59518623352051 5.114293098449707 C 35.26533508300781 2.716026782989502 41.28937149047852 1.5 47.5 1.5 C 53.71062850952148 1.5 59.73468017578125 2.716026782989502 65.40481567382812 5.114293098449707 C 70.88229370117188 7.431066513061523 75.80186462402344 10.74804019927979 80.02691650390625 14.97309303283691 C 84.25196075439453 19.19813346862793 87.56893157958984 24.11771965026855 89.88570404052734 29.59518623352051 C 92.28397369384766 35.26533508300781 93.5 41.28937149047852 93.5 47.5 C 93.5 53.71062850952148 92.28397369384766 59.73468017578125 89.88570404052734 65.40481567382812 C 87.56893157958984 70.88229370117188 84.25196075439453 75.80186462402344 80.02691650390625 80.02691650390625 C 75.80186462402344 84.25196075439453 70.88229370117188 87.56893157958984 65.40481567382812 89.88570404052734 C 59.73468017578125 92.28397369384766 53.71062850952148 93.5 47.5 93.5 Z" stroke="none"/>
                        <path d="M 47.5 3 C 41.49121475219727 3 35.66376876831055 4.176155090332031 30.17950439453125 6.495796203613281 C 24.88084411621094 8.736953735351562 20.12152099609375 11.94598388671875 16.03375244140625 16.03375244140625 C 11.94598388671875 20.12152099609375 8.736953735351562 24.88084411621094 6.495796203613281 30.17950439453125 C 4.176155090332031 35.66376876831055 3 41.49121475219727 3 47.5 C 3 53.50878524780273 4.176155090332031 59.33623123168945 6.495796203613281 64.82049560546875 C 8.736953735351562 70.11915588378906 11.94598388671875 74.87847900390625 16.03375244140625 78.96624755859375 C 20.12152099609375 83.05401611328125 24.88084411621094 86.26304626464844 30.17950439453125 88.50419616699219 C 35.66376876831055 90.82384490966797 41.49121475219727 92 47.5 92 C 53.50878524780273 92 59.33623123168945 90.82384490966797 64.82049560546875 88.50419616699219 C 70.11915588378906 86.26304626464844 74.87847900390625 83.05401611328125 78.96624755859375 78.96624755859375 C 83.05401611328125 74.87847900390625 86.26304626464844 70.11915588378906 88.50419616699219 64.82049560546875 C 90.82384490966797 59.33623123168945 92 53.50878524780273 92 47.5 C 92 41.49121475219727 90.82384490966797 35.66376876831055 88.50419616699219 30.17950439453125 C 86.26304626464844 24.88084411621094 83.05401611328125 20.12152099609375 78.96624755859375 16.03375244140625 C 74.87847900390625 11.94598388671875 70.11915588378906 8.736953735351562 64.82049560546875 6.495796203613281 C 59.33623123168945 4.176155090332031 53.50878524780273 3 47.5 3 M 47.5 0 C 73.7335205078125 0 95 21.2664794921875 95 47.5 C 95 73.7335205078125 73.7335205078125 95 47.5 95 C 21.2664794921875 95 0 73.7335205078125 0 47.5 C 0 21.2664794921875 21.2664794921875 0 47.5 0 Z" stroke="none" fill="#f5b104"/>
                      </g>
                    </g>
                  </g>
                </g>
              </g>
            </g>
          </g>
        </g>
      </g>
    </g>
    <g id="_x32_4_x2C__dollar_x2C__pay_per_click_x2C__marketing_x2C__online_payment_x2C__computer" transform="translate(13309.433 2421.73)">
      <g id="Grupo_1211539" data-name="Grupo 1211539" transform="translate(21 41)">
        <path id="Trazado_1057469" data-name="Trazado 1057469" d="M90.763,406a8.447,8.447,0,0,1-8.447,8.447H34.447A8.447,8.447,0,0,1,26,406Z" transform="translate(-25.296 -354.612)" fill="#4b506d"/>
        <path id="Trazado_1057470" data-name="Trazado 1057470" d="M329.619,152.124v30.481h-5.632V151.632H308.91A11.259,11.259,0,0,0,312.369,146h11.125A6.125,6.125,0,0,1,329.619,152.124Z" transform="translate(-268.375 -131.217)" fill="#585e7c"/>
        <path id="Trazado_1057471" data-name="Trazado 1057471" d="M141.053,186v30.974H96V186h15.077a11.259,11.259,0,0,0,14.9,0Z" transform="translate(-85.441 -165.586)" fill="#e4e9f6"/>
        <path id="Trazado_1057472" data-name="Trazado 1057472" d="M243.112,53.039V46a11.263,11.263,0,1,1,0,22.526V61.487h2.112V57.263H241V53.039Z" transform="translate(-210.026 -45.296)" fill="#a8d432"/>
        <path id="Trazado_1057473" data-name="Trazado 1057473" d="M187.263,61.487v7.039a11.263,11.263,0,0,1,0-22.526v7.039h-2.112v4.224h4.224v4.224Z" transform="translate(-154.178 -45.296)" fill="#c1e04b"/>
        <path id="Trazado_1057474" data-name="Trazado 1057474" d="M76.709,151.632H61.632v30.974H56V152.124A6.125,6.125,0,0,1,62.124,146H73.249A11.259,11.259,0,0,0,76.709,151.632Z" transform="translate(-51.072 -131.217)" fill="#585e7c"/>
        <path id="Trazado_1057475" data-name="Trazado 1057475" d="M96,401h45.053v1.408H96Z" transform="translate(-85.441 -350.316)"/>
        <path id="Trazado_1057476" data-name="Trazado 1057476" d="M78.02,410.855H30.151A9.162,9.162,0,0,1,21,401.7V401h4.928v1.408H22.44a7.754,7.754,0,0,0,7.712,7.039H78.02a7.74,7.74,0,0,0,7.712-7.039H82.243V401h4.928a9.381,9.381,0,0,1-2.68,7.175A9.1,9.1,0,0,1,78.02,410.855Z" transform="translate(-21 -350.316)"/>
        <path id="Trazado_1057477" data-name="Trazado 1057477" d="M237.336,100.855H231V99.447h4.928V96.632H231.7V91h6.336v1.408h-4.928v2.816h4.224Z" transform="translate(-201.434 -83.961)"/>
        <path id="Trazado_1057478" data-name="Trazado 1057478" d="M330.3,179.013h-7.039V148.039H308.892l0-1.408h15.784v30.974H328.9V147.828a5.427,5.427,0,0,0-5.42-5.42H312.351V141h11.125a6.836,6.836,0,0,1,6.828,6.828Z" transform="translate(-268.357 -126.921)"/>
        <path id="Trazado_1057479" data-name="Trazado 1057479" d="M58.039,179.013H51V147.828A6.836,6.836,0,0,1,57.828,141H68.953v1.408H57.828a5.427,5.427,0,0,0-5.42,5.42v29.777h4.224V146.632H72.413l0,1.408H58.039Z" transform="translate(-46.776 -126.921)"/>
        <path id="Trazado_1057480" data-name="Trazado 1057480" d="M251,46h1.408v7.039H251Z" transform="translate(-218.618 -45.296)"/>
        <path id="Trazado_1057481" data-name="Trazado 1057481" d="M251,156h1.408v7.039H251Z" transform="translate(-218.618 -139.809)"/>
        <path id="Trazado_1057482" data-name="Trazado 1057482" d="M182.967,64.934a11.967,11.967,0,1,1,11.59-8.976A11.967,11.967,0,0,1,182.967,64.934Zm0-22.526a10.559,10.559,0,1,0,10.559,10.559A10.573,10.573,0,0,0,182.967,42.408Z" transform="translate(-149.882 -41)"/>
        <path id="Trazado_1057483" data-name="Trazado 1057483" d="M292.408,259.668H291V251h8.668v1.408h-7.26Z" transform="translate(-252.987 -221.434)"/>
        <path id="Trazado_1057484" data-name="Trazado 1057484" d="M0,0H1.408V11.263H0Z" transform="translate(38.211 30.769) rotate(-45)"/>
        <path id="Trazado_1057485" data-name="Trazado 1057485" d="M126,361h14.079v1.408H126Z" transform="translate(-111.217 -315.947)"/>
        <path id="Trazado_1057486" data-name="Trazado 1057486" d="M126,321h14.079v1.408H126Z" transform="translate(-111.217 -281.579)"/>
        <path id="Trazado_1057487" data-name="Trazado 1057487" d="M126,281h14.079v1.408H126Z" transform="translate(-111.217 -247.211)"/>
        <path id="Trazado_1057488" data-name="Trazado 1057488" d="M126,241h7.039v1.408H126Z" transform="translate(-111.217 -212.842)"/>
      </g>
    </g>
  </g>
</svg>
