<svg xmlns="http://www.w3.org/2000/svg" width="295" height="106" viewBox="0 0 295 106">
  <g id="Grupo_1211360" data-name="Grupo 1211360" transform="translate(-1125 -1667)">
    <g id="Grupo_1211222" data-name="Grupo 1211222" transform="translate(0 1350.589)">
      <g id="Grupo_1210675" data-name="Grupo 1210675" transform="translate(0 27.756)">
        <rect id="Rectángulo_420844" data-name="Rectángulo 420844" width="295" height="68" rx="3" transform="translate(1125 307.244)" fill="#f5b104"/>
        <rect id="Rectángulo_420843" data-name="Rectángulo 420843" width="263" height="90" rx="3" transform="translate(1141 296.244)" fill="#3b2a76"/>
      </g>
    </g>
    <g id="effective_11628389_1_" data-name="effective_11628389 (1)" transform="translate(1209.256 1660.5)">
      <g id="Grupo_1211379" data-name="Grupo 1211379" transform="translate(12.235 7.5)">
        <g id="Grupo_1211378" data-name="Grupo 1211378" transform="translate(0 0)">
          <g id="Grupo_1211369" data-name="Grupo 1211369">
            <g id="Grupo_1211362" data-name="Grupo 1211362" transform="translate(0 0)">
              <g id="Grupo_1211361" data-name="Grupo 1211361">
                <path id="Trazado_1057084" data-name="Trazado 1057084" d="M47.1,59.217H14.131a1.9,1.9,0,0,1-1.9-1.9V9.4a1.9,1.9,0,0,1,1.9-1.9H47.1A1.9,1.9,0,0,1,49,9.4V57.321A1.9,1.9,0,0,1,47.1,59.217Z" transform="translate(-12.235 -7.5)" fill="#edf3f4"/>
                <path id="Trazado_1057085" data-name="Trazado 1057085" d="M152.077,9.4V57.322a1.9,1.9,0,0,1-1.9,1.9h-7.588a1.9,1.9,0,0,0,1.9-1.9V9.4a1.9,1.9,0,0,0-1.9-1.9h7.588A1.9,1.9,0,0,1,152.077,9.4Z" transform="translate(-115.315 -7.5)" fill="#cbe5e7"/>
              </g>
            </g>
            <g id="Grupo_1211368" data-name="Grupo 1211368" transform="translate(49.774)">
              <circle id="Elipse_12561" data-name="Elipse 12561" cx="26.122" cy="26.122" r="26.122" transform="translate(0 0.001)" fill="#edf3f4"/>
              <path id="Trazado_1057086" data-name="Trazado 1057086" d="M386.08,33.622A26.136,26.136,0,0,1,356,59.444,26.125,26.125,0,0,0,356,7.8,26.136,26.136,0,0,1,386.08,33.622Z" transform="translate(-333.836 -7.5)" fill="#cbe5e7"/>
              <path id="Trazado_1057087" data-name="Trazado 1057087" d="M348.641,179.252v15.976c0,.067,0,.131,0,.2q-1.3.128-2.632.129a26.05,26.05,0,0,1-7.655-1.142V179.252Z" transform="translate(-319.883 -143.312)" fill="#f79e8d"/>
              <path id="Trazado_1057088" data-name="Trazado 1057088" d="M368.065,179.252v15.976c0,.067,0,.131,0,.2q-1.3.128-2.629.129c-.849,0-1.688-.039-2.514-.12,0-.069,0-.138,0-.208V179.252Z" transform="translate(-339.309 -143.312)" fill="#ea806f"/>
              <g id="Grupo_1211367" data-name="Grupo 1211367" transform="translate(9.056 10.29)">
                <g id="Grupo_1211366" data-name="Grupo 1211366">
                  <g id="Grupo_1211365" data-name="Grupo 1211365">
                    <g id="Grupo_1211364" data-name="Grupo 1211364">
                      <g id="Grupo_1211363" data-name="Grupo 1211363">
                        <path id="Trazado_1057089" data-name="Trazado 1057089" d="M333.56,138.776c7.792-1.465,2.176-21.026,2.176-21.026l-16.853-.293a5.18,5.18,0,0,0-5.3,4.875,5.113,5.113,0,0,0,3.64,5.13,1.949,1.949,0,0,1,1.368,1.768C318.791,132.823,320.616,141.209,333.56,138.776Z" transform="translate(-309.351 -104.737)" fill="#fdb0a0"/>
                        <path id="Trazado_1057090" data-name="Trazado 1057090" d="M391.56,139.535a22.992,22.992,0,0,1-4.634.433c6.519-2.563,2.056-19.579,1.514-21.552l5.3.092S399.352,138.069,391.56,139.535Z" transform="translate(-367.35 -105.496)" fill="#f79e8d"/>
                        <path id="Trazado_1057091" data-name="Trazado 1057091" d="M304.788,59.323c6.424-6.763,13.921,1.528,15.557,1.749a2.086,2.086,0,0,0,2.018-1.306,1,1,0,0,1,1.258-.433c4.161,1.693,6.108,10.314.013,13.015a19.692,19.692,0,0,1-13.112.642s-1.012,2.821-3.152,3.581a.988.988,0,0,1-1.294-.739c-.4-1.941-1.689-6.205-5.339-5.544-2.576.467-3.121,5.434,1.284,8.881a2.02,2.02,0,0,1,.749,1.2l1.107,5.753s-10.739-2.82-10.5-16.594C293.589,57.528,304.788,59.323,304.788,59.323Z" transform="translate(-293.376 -56.673)" fill="#fca62f"/>
                        <path id="Trazado_1057092" data-name="Trazado 1057092" d="M411.389,82.112a17.914,17.914,0,0,1-7.035,1.479,16.7,16.7,0,0,0,1.976-.729c5.426-2.4,4.48-9.5,1.272-12.221a1.58,1.58,0,0,0,.5.2,2.089,2.089,0,0,0,2.018-1.306,1,1,0,0,1,1.257-.434C415.537,70.79,417.483,79.412,411.389,82.112Z" transform="translate(-381.131 -66.438)" fill="#f98824"/>
                      </g>
                    </g>
                  </g>
                </g>
              </g>
            </g>
          </g>
          <g id="Grupo_1211375" data-name="Grupo 1211375" transform="translate(61.375 67.161)">
            <g id="Grupo_1211374" data-name="Grupo 1211374">
              <g id="Grupo_1211370" data-name="Grupo 1211370">
                <path id="Trazado_1057093" data-name="Trazado 1057093" d="M330.014,365.292H310.1a4.566,4.566,0,0,1-4.566-4.566V333.019a4.566,4.566,0,0,1,4.566-4.566h19.909a4.566,4.566,0,0,1,4.566,4.566v27.706A4.566,4.566,0,0,1,330.014,365.292Z" transform="translate(-305.538 -328.453)" fill="#23f1a8"/>
                <path id="Trazado_1057094" data-name="Trazado 1057094" d="M404.66,333.021v27.706a4.565,4.565,0,0,1-4.566,4.566h-5.929a4.565,4.565,0,0,0,4.566-4.566V333.021a4.565,4.565,0,0,0-4.566-4.566h5.929A4.565,4.565,0,0,1,404.66,333.021Z" transform="translate(-375.619 -328.455)" fill="#26d192"/>
              </g>
              <g id="Grupo_1211373" data-name="Grupo 1211373" transform="translate(5.072 12.723)">
                <g id="Grupo_1211371" data-name="Grupo 1211371" transform="translate(4.552)">
                  <path id="Trazado_1057095" data-name="Trazado 1057095" d="M351.525,394.012c0,1.577.371,4.741,2.116,5.906a6.351,6.351,0,0,0,5.563,0c1.745-1.166,2.116-4.33,2.116-5.906C361.321,387.669,351.525,387.669,351.525,394.012Z" transform="translate(-351.525 -389.255)" fill="#fdb0a0"/>
                </g>
                <g id="Grupo_1211372" data-name="Grupo 1211372" transform="translate(0 11.206)">
                  <path id="Trazado_1057096" data-name="Trazado 1057096" d="M340.928,442.91h-3.408c-4.225-.281-7.064-.867-7.745,12.806h18.9C347.992,442.043,345.153,442.629,340.928,442.91Z" transform="translate(-329.774 -442.811)" fill="#fb4a59"/>
                  <path id="Trazado_1057097" data-name="Trazado 1057097" d="M384.171,455.713h-4.9c-.5-9.934-2.128-12.34-4.607-12.806h1.76C380.65,442.626,383.491,442.042,384.171,455.713Z" transform="translate(-365.272 -442.808)" fill="#e22334"/>
                </g>
              </g>
            </g>
          </g>
          <g id="Grupo_1211377" data-name="Grupo 1211377" transform="translate(22.542 41.86)">
            <g id="Grupo_1211376" data-name="Grupo 1211376">
              <circle id="Elipse_12562" data-name="Elipse 12562" cx="14.22" cy="14.22" r="14.22" transform="translate(0 0.001)" fill="#23f1a8"/>
              <path id="Trazado_1057098" data-name="Trazado 1057098" d="M190.966,221.763a14.222,14.222,0,0,1-17.175,13.912,14.221,14.221,0,0,0,0-27.821,14.222,14.222,0,0,1,17.175,13.909Z" transform="translate(-162.527 -207.544)" fill="#26d192"/>
            </g>
          </g>
        </g>
      </g>
      <g id="Grupo_1211404" data-name="Grupo 1211404" transform="translate(12.235 7.5)">
        <g id="Grupo_1211403" data-name="Grupo 1211403" transform="translate(0 0)">
          <g id="Grupo_1211390" data-name="Grupo 1211390">
            <g id="Grupo_1211382" data-name="Grupo 1211382">
              <g id="Grupo_1211380" data-name="Grupo 1211380">
                <line id="Línea_2598" data-name="Línea 2598" y1="24.952" transform="translate(36.762 16.148)" fill="none" stroke="#000" stroke-linecap="round" stroke-linejoin="round" stroke-width="2"/>
                <path id="Trazado_1057099" data-name="Trazado 1057099" d="M49,16.847V9.4a1.9,1.9,0,0,0-1.9-1.9H14.131a1.9,1.9,0,0,0-1.9,1.9V57.321a1.9,1.9,0,0,0,1.9,1.9H35.055" transform="translate(-12.235 -7.5)" fill="none" stroke="#000" stroke-linecap="round" stroke-linejoin="round" stroke-width="2"/>
              </g>
              <line id="Línea_2599" data-name="Línea 2599" x2="3.643" transform="translate(8.944 8.54)" fill="none" stroke="#000" stroke-linecap="round" stroke-linejoin="round" stroke-width="2"/>
              <line id="Línea_2600" data-name="Línea 2600" x2="10.429" transform="translate(8.944 43.731)" fill="none" stroke="#000" stroke-linecap="round" stroke-linejoin="round" stroke-width="2"/>
              <g id="Grupo_1211381" data-name="Grupo 1211381" transform="translate(8.944 17.241)">
                <line id="Línea_2601" data-name="Línea 2601" x2="18.875" fill="none" stroke="#000" stroke-linecap="round" stroke-linejoin="round" stroke-width="2"/>
                <line id="Línea_2602" data-name="Línea 2602" x2="18.875" transform="translate(0 5.929)" fill="none" stroke="#000" stroke-linecap="round" stroke-linejoin="round" stroke-width="2"/>
                <line id="Línea_2603" data-name="Línea 2603" x2="18.875" transform="translate(0 11.859)" fill="none" stroke="#000" stroke-linecap="round" stroke-linejoin="round" stroke-width="2"/>
                <line id="Línea_2604" data-name="Línea 2604" x2="18.875" transform="translate(0 17.789)" fill="none" stroke="#000" stroke-linecap="round" stroke-linejoin="round" stroke-width="2"/>
              </g>
            </g>
            <g id="Grupo_1211389" data-name="Grupo 1211389" transform="translate(49.774 0.001)">
              <g id="Grupo_1211388" data-name="Grupo 1211388">
                <g id="Grupo_1211383" data-name="Grupo 1211383" transform="translate(18.467 39.52)">
                  <line id="Línea_2605" data-name="Línea 2605" y2="6.885" transform="translate(10.291 5.509)" fill="none" stroke="#000" stroke-linecap="round" stroke-linejoin="round" stroke-miterlimit="10" stroke-width="2"/>
                  <line id="Línea_2606" data-name="Línea 2606" y1="11.126" fill="none" stroke="#000" stroke-linecap="round" stroke-linejoin="round" stroke-miterlimit="10" stroke-width="2"/>
                </g>
                <path id="Trazado_1057100" data-name="Trazado 1057100" d="M295.771,50.948a26.094,26.094,0,1,0-5.123,4.456" transform="translate(-250.098 -7.504)" fill="none" stroke="#000" stroke-linecap="round" stroke-linejoin="round" stroke-miterlimit="10" stroke-width="2"/>
                <g id="Grupo_1211387" data-name="Grupo 1211387" transform="translate(9.056 10.289)">
                  <g id="Grupo_1211386" data-name="Grupo 1211386">
                    <g id="Grupo_1211385" data-name="Grupo 1211385">
                      <g id="Grupo_1211384" data-name="Grupo 1211384">
                        <path id="Trazado_1057101" data-name="Trazado 1057101" d="M343.57,150.268c1.65,3.235,5.375,6.151,13.706,4.585,5.55-1.043,4.3-11.268,3.118-17.065" transform="translate(-333.067 -120.815)" fill="none" stroke="#000" stroke-linecap="round" stroke-linejoin="round" stroke-miterlimit="10" stroke-width="2"/>
                        <path id="Trazado_1057102" data-name="Trazado 1057102" d="M304.788,59.323c6.424-6.763,13.921,1.528,15.557,1.749a2.086,2.086,0,0,0,2.018-1.306,1,1,0,0,1,1.258-.433c4.161,1.693,6.108,10.314.013,13.015a19.692,19.692,0,0,1-13.112.642s-1.012,2.821-3.152,3.581a.988.988,0,0,1-1.294-.739c-.4-1.941-1.689-6.205-5.339-5.544-2.576.467-3.121,5.434,1.284,8.881a2.02,2.02,0,0,1,.749,1.2l1.107,5.753s-10.739-2.82-10.5-16.594C293.589,57.528,304.788,59.323,304.788,59.323Z" transform="translate(-293.376 -56.673)" fill="none" stroke="#000" stroke-linecap="round" stroke-linejoin="round" stroke-miterlimit="10" stroke-width="2"/>
                      </g>
                    </g>
                  </g>
                </g>
              </g>
            </g>
          </g>
          <g id="Grupo_1211397" data-name="Grupo 1211397" transform="translate(61.375 67.161)">
            <g id="Grupo_1211396" data-name="Grupo 1211396">
              <g id="Grupo_1211391" data-name="Grupo 1211391">
                <path id="Trazado_1057103" data-name="Trazado 1057103" d="M334.581,333.019a4.566,4.566,0,0,0-4.566-4.566H310.105a4.566,4.566,0,0,0-4.566,4.566v27.706a4.566,4.566,0,0,0,4.566,4.566h19.909a4.566,4.566,0,0,0,4.566-4.566Z" transform="translate(-305.539 -328.453)" fill="none" stroke="#000" stroke-linecap="round" stroke-linejoin="round" stroke-miterlimit="10" stroke-width="2"/>
              </g>
              <g id="Grupo_1211394" data-name="Grupo 1211394" transform="translate(5.071 12.723)">
                <g id="Grupo_1211392" data-name="Grupo 1211392" transform="translate(4.552)">
                  <path id="Trazado_1057104" data-name="Trazado 1057104" d="M351.525,394.012c0,1.577.371,4.741,2.116,5.906a6.351,6.351,0,0,0,5.563,0c1.745-1.166,2.116-4.33,2.116-5.906C361.321,387.669,351.525,387.669,351.525,394.012Z" transform="translate(-351.525 -389.255)" fill="none" stroke="#000" stroke-linecap="round" stroke-linejoin="round" stroke-miterlimit="10" stroke-width="2"/>
                </g>
                <g id="Grupo_1211393" data-name="Grupo 1211393" transform="translate(0 11.207)">
                  <path id="Trazado_1057105" data-name="Trazado 1057105" d="M340.928,442.91h-3.408c-4.225-.281-7.064-.867-7.745,12.806h18.9C347.992,442.043,345.153,442.629,340.928,442.91Z" transform="translate(-329.774 -442.811)" fill="none" stroke="#000" stroke-linecap="round" stroke-linejoin="round" stroke-miterlimit="10" stroke-width="2"/>
                </g>
              </g>
              <g id="Grupo_1211395" data-name="Grupo 1211395" transform="translate(9.518 6.161)">
                <line id="Línea_2607" data-name="Línea 2607" y2="0.086" fill="none" stroke="#000" stroke-linecap="round" stroke-linejoin="round" stroke-miterlimit="10" stroke-width="2"/>
                <line id="Línea_2608" data-name="Línea 2608" y2="0.086" transform="translate(5.003)" fill="none" stroke="#000" stroke-linecap="round" stroke-linejoin="round" stroke-miterlimit="10" stroke-width="2"/>
                <line id="Línea_2609" data-name="Línea 2609" y2="0.086" transform="translate(10.006)" fill="none" stroke="#000" stroke-linecap="round" stroke-linejoin="round" stroke-miterlimit="10" stroke-width="2"/>
              </g>
            </g>
          </g>
          <line id="Línea_2610" data-name="Línea 2610" x2="12.14" transform="translate(37.198 26.123)" fill="none" stroke="#000" stroke-linecap="round" stroke-linejoin="round" stroke-miterlimit="10" stroke-width="2"/>
          <line id="Línea_2611" data-name="Línea 2611" y2="14.916" transform="translate(75.896 52.245)" fill="none" stroke="#000" stroke-linecap="round" stroke-linejoin="round" stroke-miterlimit="10" stroke-width="2"/>
          <g id="Grupo_1211402" data-name="Grupo 1211402" transform="translate(22.542 41.861)">
            <g id="Grupo_1211401" data-name="Grupo 1211401">
              <g id="Grupo_1211400" data-name="Grupo 1211400">
                <g id="Grupo_1211399" data-name="Grupo 1211399" transform="translate(7.847 12.726)">
                  <g id="Grupo_1211398" data-name="Grupo 1211398">
                    <line id="Línea_2612" data-name="Línea 2612" y2="0.528" fill="none" stroke="#000" stroke-linecap="round" stroke-linejoin="round" stroke-miterlimit="10" stroke-width="2"/>
                    <line id="Línea_2613" data-name="Línea 2613" y2="0.528" transform="translate(12.744)" fill="none" stroke="#000" stroke-linecap="round" stroke-linejoin="round" stroke-miterlimit="10" stroke-width="2"/>
                  </g>
                  <path id="Trazado_1057106" data-name="Trazado 1057106" d="M173.885,290.225a3.589,3.589,0,0,0,5.872,0" transform="translate(-170.449 -285.65)" fill="none" stroke="#000" stroke-linecap="round" stroke-linejoin="round" stroke-miterlimit="10" stroke-width="2"/>
                </g>
                <path id="Trazado_1057107" data-name="Trazado 1057107" d="M137.548,235.582a14.217,14.217,0,1,0-6.8-.016" transform="translate(-119.962 -207.547)" fill="none" stroke="#000" stroke-linecap="round" stroke-linejoin="round" stroke-miterlimit="10" stroke-width="2"/>
              </g>
            </g>
          </g>
        </g>
        <path id="Trazado_1057108" data-name="Trazado 1057108" d="M143.07,355.483H105.865a5.789,5.789,0,0,1-5.789-5.789V339.4" transform="translate(-81.695 -269.947)" fill="none" stroke="#000" stroke-linecap="round" stroke-linejoin="round" stroke-miterlimit="10" stroke-width="2"/>
        <path id="Trazado_1057109" data-name="Trazado 1057109" d="M86.825,339.6l2.773-2.773,2.773,2.773" transform="translate(-71.217 -267.914)" fill="none" stroke="#000" stroke-linecap="round" stroke-linejoin="round" stroke-miterlimit="10" stroke-width="2"/>
      </g>
    </g>
  </g>
</svg>
