<svg xmlns="http://www.w3.org/2000/svg" xmlns:xlink="http://www.w3.org/1999/xlink" width="113" height="113" viewBox="0 0 113 113">
  <defs>
    <filter id="Trazado_982547" x="0" y="0" width="113" height="113" filterUnits="userSpaceOnUse">
      <feOffset dy="3" input="SourceAlpha"/>
      <feGaussianBlur stdDeviation="3" result="blur"/>
      <feFlood flood-opacity="0.161"/>
      <feComposite operator="in" in2="blur"/>
      <feComposite in="SourceGraphic"/>
    </filter>
  </defs>
  <g id="Grupo_1211415" data-name="Grupo 1211415" transform="translate(-374.02 -4300.867)">
    <g id="Grupo_1211217" data-name="Grupo 1211217" transform="translate(383.02 4306.867)">
      <g id="Grupo_1210736" data-name="Grupo 1210736" transform="translate(0)">
        <g id="Grupo_1210537" data-name="Grupo 1210537">
          <g id="Grupo_1164202" data-name="Grupo 1164202">
            <g id="Grupo_1158168" data-name="Grupo 1158168">
              <g id="Grupo_1152576" data-name="Grupo 1152576">
                <g id="Grupo_1148633" data-name="Grupo 1148633">
                  <g id="Grupo_1148525" data-name="Grupo 1148525">
                    <g transform="matrix(1, 0, 0, 1, -9, -6)" filter="url(#Trazado_982547)">
                      <g id="Trazado_982547-2" data-name="Trazado 982547" transform="translate(9 6)" fill="#fdf6e4">
                        <path d="M 47.5 93.5 C 41.28937149047852 93.5 35.26533508300781 92.28397369384766 29.59518623352051 89.88570404052734 C 24.11771965026855 87.56893157958984 19.19813346862793 84.25196075439453 14.97309303283691 80.02691650390625 C 10.74804019927979 75.80186462402344 7.431066513061523 70.88229370117188 5.114293098449707 65.40481567382812 C 2.716026782989502 59.73468017578125 1.5 53.71062850952148 1.5 47.5 C 1.5 41.28937149047852 2.716026782989502 35.26533508300781 5.114293098449707 29.59518623352051 C 7.431066513061523 24.11771965026855 10.74804019927979 19.19813346862793 14.97309303283691 14.97309303283691 C 19.19813346862793 10.74804019927979 24.11771965026855 7.431066513061523 29.59518623352051 5.114293098449707 C 35.26533508300781 2.716026782989502 41.28937149047852 1.5 47.5 1.5 C 53.71062850952148 1.5 59.73468017578125 2.716026782989502 65.40481567382812 5.114293098449707 C 70.88229370117188 7.431066513061523 75.80186462402344 10.74804019927979 80.02691650390625 14.97309303283691 C 84.25196075439453 19.19813346862793 87.56893157958984 24.11771965026855 89.88570404052734 29.59518623352051 C 92.28397369384766 35.26533508300781 93.5 41.28937149047852 93.5 47.5 C 93.5 53.71062850952148 92.28397369384766 59.73468017578125 89.88570404052734 65.40481567382812 C 87.56893157958984 70.88229370117188 84.25196075439453 75.80186462402344 80.02691650390625 80.02691650390625 C 75.80186462402344 84.25196075439453 70.88229370117188 87.56893157958984 65.40481567382812 89.88570404052734 C 59.73468017578125 92.28397369384766 53.71062850952148 93.5 47.5 93.5 Z" stroke="none"/>
                        <path d="M 47.5 3 C 41.49121475219727 3 35.66376876831055 4.176155090332031 30.17950439453125 6.495796203613281 C 24.88084411621094 8.736953735351562 20.12152099609375 11.94598388671875 16.03375244140625 16.03375244140625 C 11.94598388671875 20.12152099609375 8.736953735351562 24.88084411621094 6.495796203613281 30.17950439453125 C 4.176155090332031 35.66376876831055 3 41.49121475219727 3 47.5 C 3 53.50878524780273 4.176155090332031 59.33623123168945 6.495796203613281 64.82049560546875 C 8.736953735351562 70.11915588378906 11.94598388671875 74.87847900390625 16.03375244140625 78.96624755859375 C 20.12152099609375 83.05401611328125 24.88084411621094 86.26304626464844 30.17950439453125 88.50419616699219 C 35.66376876831055 90.82384490966797 41.49121475219727 92 47.5 92 C 53.50878524780273 92 59.33623123168945 90.82384490966797 64.82049560546875 88.50419616699219 C 70.11915588378906 86.26304626464844 74.87847900390625 83.05401611328125 78.96624755859375 78.96624755859375 C 83.05401611328125 74.87847900390625 86.26304626464844 70.11915588378906 88.50419616699219 64.82049560546875 C 90.82384490966797 59.33623123168945 92 53.50878524780273 92 47.5 C 92 41.49121475219727 90.82384490966797 35.66376876831055 88.50419616699219 30.17950439453125 C 86.26304626464844 24.88084411621094 83.05401611328125 20.12152099609375 78.96624755859375 16.03375244140625 C 74.87847900390625 11.94598388671875 70.11915588378906 8.736953735351562 64.82049560546875 6.495796203613281 C 59.33623123168945 4.176155090332031 53.50878524780273 3 47.5 3 M 47.5 0 C 73.7335205078125 0 95 21.2664794921875 95 47.5 C 95 73.7335205078125 73.7335205078125 95 47.5 95 C 21.2664794921875 95 0 73.7335205078125 0 47.5 C 0 21.2664794921875 21.2664794921875 0 47.5 0 Z" stroke="none" fill="#f5b104"/>
                      </g>
                    </g>
                  </g>
                </g>
              </g>
            </g>
          </g>
        </g>
      </g>
    </g>
    <g id="Layer_5" data-name="Layer 5" transform="translate(402.463 4325.463)">
      <path id="Trazado_1057186" data-name="Trazado 1057186" d="M9.553,16H48.637a3.553,3.553,0,0,1,3.553,3.553V46.2H6V19.553A3.553,3.553,0,0,1,9.553,16Z" transform="translate(-0.559 -1.676)" fill="#8b909f"/>
      <path id="Trazado_1057187" data-name="Trazado 1057187" d="M10,20H49.084V43.1H10Z" transform="translate(-1.005 -2.123)" fill="#93cffb"/>
      <rect id="Rect치ngulo_421090" data-name="Rect치ngulo 421090" width="43" height="36" rx="4" transform="translate(1.537 1.537)" fill="#e7ebf2"/>
      <path id="Trazado_1057188" data-name="Trazado 1057188" d="M14,18H24.659V32.212H14Z" transform="translate(-1.452 -1.899)" fill="#a4acb3"/>
      <rect id="Rect치ngulo_421091" data-name="Rect치ngulo 421091" width="8" height="7" rx="3.5" transform="translate(32.537 21.537)" fill="#8f6af4"/>
      <path id="Trazado_1057189" data-name="Trazado 1057189" d="M37,37.106,40.553,30l3.553,7.106L40.553,35.33Z" transform="translate(-4.022 -3.24)" fill="#fff"/>
      <path id="Trazado_1057190" data-name="Trazado 1057190" d="M2,57.106V53.553L5.553,50h46.19L55.3,53.553v3.553a3.553,3.553,0,0,1-3.553,3.553H5.553A3.553,3.553,0,0,1,2,57.106Z" transform="translate(-0.112 -5.474)" fill="#8b909f"/>
      <path id="Trazado_1057191" data-name="Trazado 1057191" d="M5.553,50,2,53.553H55.3L51.744,50Z" transform="translate(-0.112 -5.474)" fill="#a2a6b2"/>
      <path id="Trazado_1057192" data-name="Trazado 1057192" d="M44.637,5.553A3.553,3.553,0,0,0,41.084,2H5.553A3.553,3.553,0,0,0,2,5.553V9.106H44.637Z" transform="translate(-0.112 -0.112)" fill="#8f6af4"/>
      <path id="Trazado_1057193" data-name="Trazado 1057193" d="M2,13.553H35.755a1.777,1.777,0,0,0,1.777-1.777V10H2Z" transform="translate(-0.112 -1.005)" fill="#8b909f"/>
      <path id="Trazado_1057194" data-name="Trazado 1057194" d="M10,22H20.659V36.212H10Z" transform="translate(-1.005 -2.346)" fill="#fff"/>
      <path id="Trazado_1057195" data-name="Trazado 1057195" d="M15.777,26,14,29.553l1.777,3.553,1.777-3.553Z" transform="translate(-1.452 -2.793)" fill="#a5746c"/>
      <path id="Trazado_1057196" data-name="Trazado 1057196" d="M55.813,47.451,52.52,44.158V17.877a4.447,4.447,0,0,0-4.441-4.441H45.414V5.441A4.447,4.447,0,0,0,40.973,1H5.441A4.447,4.447,0,0,0,1,5.441V33.866a4.449,4.449,0,0,0,3.553,4.353v5.94L1.26,47.451a.888.888,0,0,0-.26.628v3.553a4.447,4.447,0,0,0,4.441,4.441h46.19a4.447,4.447,0,0,0,4.441-4.441V48.079a.888.888,0,0,0-.26-.628Zm-4.549-2.037,1.777,1.777H4.033l1.777-1.777Zm-3.185-30.2a2.665,2.665,0,0,1,2.665,2.665v25.76H6.33v-5.33H8.106v2.665a.888.888,0,0,0,.888.888H48.079a.888.888,0,0,0,.888-.888v-23.1a.888.888,0,0,0-.888-.888H45.414V15.212ZM45.414,33.866v-15.1H47.19V40.084H9.883V38.308h31.09a4.447,4.447,0,0,0,4.441-4.441ZM5.441,2.777H40.973a2.665,2.665,0,0,1,2.665,2.665V8.106H2.777V5.441A2.665,2.665,0,0,1,5.441,2.777ZM2.777,11.659V9.883h5.33v1.777ZM9.883,9.883h5.33v1.777H9.883Zm7.106,0h5.33v1.777h-5.33Zm7.106,0h5.33v1.777H24.1Zm7.106,0h5.33v.888a.888.888,0,0,1-.888.888H31.2ZM2.777,33.866V13.436H35.643a2.665,2.665,0,0,0,2.665-2.665V9.883h5.33V33.866a2.665,2.665,0,0,1-2.665,2.665H5.441a2.665,2.665,0,0,1-2.665-2.665ZM51.632,54.3H5.441a2.665,2.665,0,0,1-2.665-2.665V48.967H54.3v2.665A2.665,2.665,0,0,1,51.632,54.3Z" transform="translate(0 0)"/>
      <path id="Trazado_1057197" data-name="Trazado 1057197" d="M43,5h1.777V6.777H43Z" transform="translate(-4.692 -0.447)"/>
      <path id="Trazado_1057198" data-name="Trazado 1057198" d="M39,5h1.777V6.777H39Z" transform="translate(-4.245 -0.447)"/>
      <path id="Trazado_1057199" data-name="Trazado 1057199" d="M35,5h1.777V6.777H35Z" transform="translate(-3.799 -0.447)"/>
      <path id="Trazado_1057200" data-name="Trazado 1057200" d="M38.116,31.711,35.984,35.98a.888.888,0,0,0,1.192,1.192l3.153-1.578,3.156,1.578a.888.888,0,0,0,1.2-1.192L42.55,31.712a4.428,4.428,0,0,0-1.332-8.658H39.441a4.428,4.428,0,0,0-1.325,8.657Zm2.611,2.1a.888.888,0,0,0-.794,0l-1.17.584,1.567-3.133L41.9,34.392Zm-1.285-8.976h1.777a2.665,2.665,0,0,1,.522,5.282l-.611-1.237a.926.926,0,0,0-1.59,0l-.62,1.237a2.665,2.665,0,0,1,.522-5.282Z" transform="translate(-3.799 -2.464)"/>
      <path id="Trazado_1057201" data-name="Trazado 1057201" d="M9.888,36.542H20.548a.888.888,0,0,0,.888-.888V32.989H24.1a.888.888,0,0,0,.888-.888V17.888A.888.888,0,0,0,24.1,17H13.441a.888.888,0,0,0-.888.888v2.665H9.888A.888.888,0,0,0,9,21.441V35.654A.888.888,0,0,0,9.888,36.542ZM14.33,18.777h8.883V31.212H21.436V21.441a.888.888,0,0,0-.888-.888H14.33ZM10.777,22.33h8.883V34.766H10.777Z" transform="translate(-0.894 -1.788)"/>
      <path id="Trazado_1057202" data-name="Trazado 1057202" d="M16.465,25.5a.926.926,0,0,0-1.59,0L13.1,29.049a.888.888,0,0,0,0,.794L14.875,33.4a.888.888,0,0,0,1.59,0l1.777-3.553a.888.888,0,0,0,0-.794Zm-.8,5.517-.783-1.567.783-1.567.783,1.567Z" transform="translate(-1.341 -2.686)"/>
    </g>
  </g>
</svg>
