<svg xmlns="http://www.w3.org/2000/svg" xmlns:xlink="http://www.w3.org/1999/xlink" width="113" height="113" viewBox="0 0 113 113">
  <defs>
    <filter id="Trazado_982547" x="0" y="0" width="113" height="113" filterUnits="userSpaceOnUse">
      <feOffset dy="3" input="SourceAlpha"/>
      <feGaussianBlur stdDeviation="3" result="blur"/>
      <feFlood flood-opacity="0.161"/>
      <feComposite operator="in" in2="blur"/>
      <feComposite in="SourceGraphic"/>
    </filter>
  </defs>
  <g id="Grupo_1211543" data-name="Grupo 1211543" transform="translate(-13672.529 -4300.867)">
    <g id="Grupo_1211219" data-name="Grupo 1211219" transform="translate(13681.529 4306.867)">
      <g id="Grupo_1210737" data-name="Grupo 1210737" transform="translate(0)">
        <g id="Grupo_1210537" data-name="Grupo 1210537">
          <g id="Grupo_1164202" data-name="Grupo 1164202">
            <g id="Grupo_1158168" data-name="Grupo 1158168">
              <g id="Grupo_1152576" data-name="Grupo 1152576">
                <g id="Grupo_1148633" data-name="Grupo 1148633">
                  <g id="Grupo_1148525" data-name="Grupo 1148525">
                    <g transform="matrix(1, 0, 0, 1, -9, -6)" filter="url(#Trazado_982547)">
                      <g id="Trazado_982547-2" data-name="Trazado 982547" transform="translate(9 6)" fill="#fdf6e4">
                        <path d="M 47.5 93.5 C 41.28937149047852 93.5 35.26533508300781 92.28397369384766 29.59518623352051 89.88570404052734 C 24.11771965026855 87.56893157958984 19.19813346862793 84.25196075439453 14.97309303283691 80.02691650390625 C 10.74804019927979 75.80186462402344 7.431066513061523 70.88229370117188 5.114293098449707 65.40481567382812 C 2.716026782989502 59.73468017578125 1.5 53.71062850952148 1.5 47.5 C 1.5 41.28937149047852 2.716026782989502 35.26533508300781 5.114293098449707 29.59518623352051 C 7.431066513061523 24.11771965026855 10.74804019927979 19.19813346862793 14.97309303283691 14.97309303283691 C 19.19813346862793 10.74804019927979 24.11771965026855 7.431066513061523 29.59518623352051 5.114293098449707 C 35.26533508300781 2.716026782989502 41.28937149047852 1.5 47.5 1.5 C 53.71062850952148 1.5 59.73468017578125 2.716026782989502 65.40481567382812 5.114293098449707 C 70.88229370117188 7.431066513061523 75.80186462402344 10.74804019927979 80.02691650390625 14.97309303283691 C 84.25196075439453 19.19813346862793 87.56893157958984 24.11771965026855 89.88570404052734 29.59518623352051 C 92.28397369384766 35.26533508300781 93.5 41.28937149047852 93.5 47.5 C 93.5 53.71062850952148 92.28397369384766 59.73468017578125 89.88570404052734 65.40481567382812 C 87.56893157958984 70.88229370117188 84.25196075439453 75.80186462402344 80.02691650390625 80.02691650390625 C 75.80186462402344 84.25196075439453 70.88229370117188 87.56893157958984 65.40481567382812 89.88570404052734 C 59.73468017578125 92.28397369384766 53.71062850952148 93.5 47.5 93.5 Z" stroke="none"/>
                        <path d="M 47.5 3 C 41.49121475219727 3 35.66376876831055 4.176155090332031 30.17950439453125 6.495796203613281 C 24.88084411621094 8.736953735351562 20.12152099609375 11.94598388671875 16.03375244140625 16.03375244140625 C 11.94598388671875 20.12152099609375 8.736953735351562 24.88084411621094 6.495796203613281 30.17950439453125 C 4.176155090332031 35.66376876831055 3 41.49121475219727 3 47.5 C 3 53.50878524780273 4.176155090332031 59.33623123168945 6.495796203613281 64.82049560546875 C 8.736953735351562 70.11915588378906 11.94598388671875 74.87847900390625 16.03375244140625 78.96624755859375 C 20.12152099609375 83.05401611328125 24.88084411621094 86.26304626464844 30.17950439453125 88.50419616699219 C 35.66376876831055 90.82384490966797 41.49121475219727 92 47.5 92 C 53.50878524780273 92 59.33623123168945 90.82384490966797 64.82049560546875 88.50419616699219 C 70.11915588378906 86.26304626464844 74.87847900390625 83.05401611328125 78.96624755859375 78.96624755859375 C 83.05401611328125 74.87847900390625 86.26304626464844 70.11915588378906 88.50419616699219 64.82049560546875 C 90.82384490966797 59.33623123168945 92 53.50878524780273 92 47.5 C 92 41.49121475219727 90.82384490966797 35.66376876831055 88.50419616699219 30.17950439453125 C 86.26304626464844 24.88084411621094 83.05401611328125 20.12152099609375 78.96624755859375 16.03375244140625 C 74.87847900390625 11.94598388671875 70.11915588378906 8.736953735351562 64.82049560546875 6.495796203613281 C 59.33623123168945 4.176155090332031 53.50878524780273 3 47.5 3 M 47.5 0 C 73.7335205078125 0 95 21.2664794921875 95 47.5 C 95 73.7335205078125 73.7335205078125 95 47.5 95 C 21.2664794921875 95 0 73.7335205078125 0 47.5 C 0 21.2664794921875 21.2664794921875 0 47.5 0 Z" stroke="none" fill="#f5b104"/>
                      </g>
                    </g>
                  </g>
                </g>
              </g>
            </g>
          </g>
        </g>
      </g>
    </g>
    <g id="Layer_x0020_1" transform="translate(13695.618 3803.677)">
      <path id="Trazado_1057248" data-name="Trazado 1057248" d="M447.355,1049v27.434a1.071,1.071,0,0,1-.985.985H418.764a.981.981,0,0,1-.985-.985v-27.371H406.986a2.01,2.01,0,0,0-1.986,1.986v29.467h55.071v-29.53A2.039,2.039,0,0,0,458.1,1049Zm9.744,23.2a.981.981,0,0,1-.985-.985v-12.888a.993.993,0,0,1,1.986,0v12.888A1,1,0,0,1,457.1,1072.2Zm-48.126-.985a.993.993,0,0,1-1.986,0v-12.888a.993.993,0,0,1,1.986,0Z" transform="translate(-398.666 -515.804)" fill="#ff4500" fill-rule="evenodd"/>
      <path id="Trazado_1057249" data-name="Trazado 1057249" d="M164.26,3187v3.848a1.082,1.082,0,0,1-1.048,1H146.68a.985.985,0,0,1-.985-1V3187H123v3.848a3.922,3.922,0,0,0,3.91,3.91h56.134a3.869,3.869,0,0,0,3.848-3.91V3187Z" transform="translate(-121.076 -2620.365)" fill="#ffd300" fill-rule="evenodd"/>
      <path id="Trazado_1057250" data-name="Trazado 1057250" d="M1701,3189.862h14.593V3187H1701Z" transform="translate(-1674.395 -2620.365)" fill="#ff4500" fill-rule="evenodd"/>
      <g id="Grupo_1211422" data-name="Grupo 1211422" transform="translate(25.428 534.811)">
        <path id="Trazado_1057251" data-name="Trazado 1057251" d="M1949.387,1632.971a3.755,3.755,0,0,0,6.319,1.7l-6.334-3.676A3.83,3.83,0,0,0,1949.387,1632.971Z" transform="translate(-1944.191 -1623.512)" fill="#ffd300" fill-rule="evenodd"/>
        <path id="Trazado_1057252" data-name="Trazado 1057252" d="M1628.229,1477.478a8.432,8.432,0,0,0,12.857-1.079l-2.1-1.2a5.692,5.692,0,0,1-9.7-5.6l-2.753-1.6A8.515,8.515,0,0,0,1628.229,1477.478Z" transform="translate(-1625.786 -1463.062)" fill="#ffd300" fill-rule="evenodd"/>
        <path id="Trazado_1057253" data-name="Trazado 1057253" d="M1741.395,1158.086l10.1,5.85a8.789,8.789,0,0,0,.626-3.253c0-8.18-10.385-11.371-15.125-5.13l2.722,1.58a5.654,5.654,0,0,1,6.96-1.455c1.142.563.235,2.252-.938,1.7A3.78,3.78,0,0,0,1741.395,1158.086Z" transform="translate(-1735.26 -1152.272)" fill="#ffd300" fill-rule="evenodd"/>
      </g>
      <path id="Trazado_1057254" data-name="Trazado 1057254" d="M1365.223,657.025a10.424,10.424,0,0,1-14.765,14.718,10.424,10.424,0,1,1,14.765-14.718ZM1345,680.767h25.666V648H1345Z" transform="translate(-1323.963 -121.076)" fill="#ff4500" fill-rule="evenodd"/>
      <path id="Trazado_1057255" data-name="Trazado 1057255" d="M42.136,571.484H25.6a.985.985,0,0,1-.985-1v-3.848H1.924v3.848a3.922,3.922,0,0,0,3.91,3.91H61.968a3.869,3.869,0,0,0,3.848-3.91v-3.848H43.184v3.848A1.082,1.082,0,0,1,42.136,571.484Zm-7.82-22.476a5.732,5.732,0,0,1-5.38-7.664l-2.753-1.6a8.434,8.434,0,0,0,14.546,8.4l-2.1-1.2A5.47,5.47,0,0,1,34.316,549.008Zm-4.426-9.337a5.654,5.654,0,0,1,6.96-1.455c1.142.563.235,2.252-.938,1.7a3.781,3.781,0,0,0-4.348.7l10.1,5.85a8.789,8.789,0,0,0,.626-3.253c0-8.18-10.385-11.371-15.125-5.13Zm.719,2.628a3.794,3.794,0,0,0,6.334,3.676ZM26.5,550.666a10.489,10.489,0,0,1,0-14.718c6.4-6.444,17.783-1.986,17.783,7.336A10.447,10.447,0,0,1,26.5,550.666Zm31.938,5.724a.981.981,0,0,1-.985-.985V542.518a.993.993,0,0,1,1.986,0v12.888A1,1,0,0,1,58.434,556.391Zm-49.127,0a.981.981,0,0,1-.985-.985V542.518a.993.993,0,0,1,1.986,0v12.888A1,1,0,0,1,9.306,556.391Zm17.3,10.245V569.5H41.2v-2.862Zm35.364,9.744H5.834A5.875,5.875,0,0,1,0,570.546V565.7a.981.981,0,0,1,.985-.985H4.348v-29.53a3.932,3.932,0,0,1,3.91-3.91H19.113v-5.333A.933.933,0,0,1,20.1,525H47.7a.972.972,0,0,1,.985.938v5.286H59.544a3.952,3.952,0,0,1,3.91,3.91v29.577h3.363a.981.981,0,0,1,.985.985v4.849A5.916,5.916,0,0,1,61.968,576.38ZM6.334,564.712H61.405v-29.53a2.039,2.039,0,0,0-1.971-1.986H48.689V560.63a1.071,1.071,0,0,1-.985.985H20.1a.981.981,0,0,1-.985-.985V533.258H8.321a2.009,2.009,0,0,0-1.986,1.986Zm14.7-5.021H46.7V526.924H21.037Z" fill="#52050d" fill-rule="evenodd"/>
    </g>
  </g>
</svg>
