<svg xmlns="http://www.w3.org/2000/svg" xmlns:xlink="http://www.w3.org/1999/xlink" width="113" height="113" viewBox="0 0 113 113">
  <defs>
    <filter id="Trazado_982547" x="0" y="0" width="113" height="113" filterUnits="userSpaceOnUse">
      <feOffset dy="3" input="SourceAlpha"/>
      <feGaussianBlur stdDeviation="3" result="blur"/>
      <feFlood flood-opacity="0.161"/>
      <feComposite operator="in" in2="blur"/>
      <feComposite in="SourceGraphic"/>
    </filter>
  </defs>
  <g id="Grupo_1211410" data-name="Grupo 1211410" transform="translate(-324.77 -2980.695)">
    <g id="Grupo_1211203" data-name="Grupo 1211203" transform="translate(333.771 2986.695)">
      <g id="Grupo_1210937" data-name="Grupo 1210937" transform="translate(0 0)">
        <g id="Grupo_1174742" data-name="Grupo 1174742">
          <g id="Grupo_1163948" data-name="Grupo 1163948">
            <g id="Grupo_1158168" data-name="Grupo 1158168" transform="translate(0)">
              <g id="Grupo_1152576" data-name="Grupo 1152576">
                <g id="Grupo_1148633" data-name="Grupo 1148633">
                  <g id="Grupo_1148525" data-name="Grupo 1148525">
                    <g transform="matrix(1, 0, 0, 1, -9, -6)" filter="url(#Trazado_982547)">
                      <g id="Trazado_982547-2" data-name="Trazado 982547" transform="translate(9 6)" fill="#fdf6e4">
                        <path d="M 47.5 93.5 C 41.28937149047852 93.5 35.26533508300781 92.28397369384766 29.59518623352051 89.88570404052734 C 24.11771965026855 87.56893157958984 19.19813346862793 84.25196075439453 14.97309303283691 80.02691650390625 C 10.74804019927979 75.80186462402344 7.431066513061523 70.88229370117188 5.114293098449707 65.40481567382812 C 2.716026782989502 59.73468017578125 1.5 53.71062850952148 1.5 47.5 C 1.5 41.28937149047852 2.716026782989502 35.26533508300781 5.114293098449707 29.59518623352051 C 7.431066513061523 24.11771965026855 10.74804019927979 19.19813346862793 14.97309303283691 14.97309303283691 C 19.19813346862793 10.74804019927979 24.11771965026855 7.431066513061523 29.59518623352051 5.114293098449707 C 35.26533508300781 2.716026782989502 41.28937149047852 1.5 47.5 1.5 C 53.71062850952148 1.5 59.73468017578125 2.716026782989502 65.40481567382812 5.114293098449707 C 70.88229370117188 7.431066513061523 75.80186462402344 10.74804019927979 80.02691650390625 14.97309303283691 C 84.25196075439453 19.19813346862793 87.56893157958984 24.11771965026855 89.88570404052734 29.59518623352051 C 92.28397369384766 35.26533508300781 93.5 41.28937149047852 93.5 47.5 C 93.5 53.71062850952148 92.28397369384766 59.73468017578125 89.88570404052734 65.40481567382812 C 87.56893157958984 70.88229370117188 84.25196075439453 75.80186462402344 80.02691650390625 80.02691650390625 C 75.80186462402344 84.25196075439453 70.88229370117188 87.56893157958984 65.40481567382812 89.88570404052734 C 59.73468017578125 92.28397369384766 53.71062850952148 93.5 47.5 93.5 Z" stroke="none"/>
                        <path d="M 47.5 3 C 41.49121475219727 3 35.66376876831055 4.176155090332031 30.17950439453125 6.495796203613281 C 24.88084411621094 8.736953735351562 20.12152099609375 11.94598388671875 16.03375244140625 16.03375244140625 C 11.94598388671875 20.12152099609375 8.736953735351562 24.88084411621094 6.495796203613281 30.17950439453125 C 4.176155090332031 35.66376876831055 3 41.49121475219727 3 47.5 C 3 53.50878524780273 4.176155090332031 59.33623123168945 6.495796203613281 64.82049560546875 C 8.736953735351562 70.11915588378906 11.94598388671875 74.87847900390625 16.03375244140625 78.96624755859375 C 20.12152099609375 83.05401611328125 24.88084411621094 86.26304626464844 30.17950439453125 88.50419616699219 C 35.66376876831055 90.82384490966797 41.49121475219727 92 47.5 92 C 53.50878524780273 92 59.33623123168945 90.82384490966797 64.82049560546875 88.50419616699219 C 70.11915588378906 86.26304626464844 74.87847900390625 83.05401611328125 78.96624755859375 78.96624755859375 C 83.05401611328125 74.87847900390625 86.26304626464844 70.11915588378906 88.50419616699219 64.82049560546875 C 90.82384490966797 59.33623123168945 92 53.50878524780273 92 47.5 C 92 41.49121475219727 90.82384490966797 35.66376876831055 88.50419616699219 30.17950439453125 C 86.26304626464844 24.88084411621094 83.05401611328125 20.12152099609375 78.96624755859375 16.03375244140625 C 74.87847900390625 11.94598388671875 70.11915588378906 8.736953735351562 64.82049560546875 6.495796203613281 C 59.33623123168945 4.176155090332031 53.50878524780273 3 47.5 3 M 47.5 0 C 73.7335205078125 0 95 21.2664794921875 95 47.5 C 95 73.7335205078125 73.7335205078125 95 47.5 95 C 21.2664794921875 95 0 73.7335205078125 0 47.5 C 0 21.2664794921875 21.2664794921875 0 47.5 0 Z" stroke="none" fill="#f5b104"/>
                      </g>
                    </g>
                  </g>
                </g>
              </g>
            </g>
          </g>
        </g>
      </g>
    </g>
    <g id="objectives_18725074" transform="translate(348.45 2998.075)">
      <g id="Grupo_1211409" data-name="Grupo 1211409" transform="translate(1.901 7.263)">
        <g id="Grupo_1211405" data-name="Grupo 1211405" transform="translate(37.517 26.064)">
          <path id="Trazado_1057110" data-name="Trazado 1057110" d="M341.824,348.267h-20.9a.57.57,0,0,1-.568-.568v-4.711a9.4,9.4,0,0,1,9.372-9.372h3.287a9.4,9.4,0,0,1,9.372,9.372V347.7A.57.57,0,0,1,341.824,348.267Z" transform="translate(-320.36 -321.485)" fill="#2891fa" fill-rule="evenodd"/>
          <path id="Trazado_1057111" data-name="Trazado 1057111" d="M364.5,334.546a9.287,9.287,0,0,1,4.062-.932h3.287a9.4,9.4,0,0,1,9.372,9.372v3.741A17.634,17.634,0,0,1,364.5,334.546Z" transform="translate(-359.189 -321.483)" fill="#43a2ff" fill-rule="evenodd"/>
          <ellipse id="Elipse_12563" data-name="Elipse 12563" cx="6.634" cy="6.553" rx="6.634" ry="6.553" transform="translate(4.382)" fill="#fecbaa"/>
          <path id="Trazado_1057112" data-name="Trazado 1057112" d="M381.944,232.778a6.678,6.678,0,0,0-2.7.565,6.473,6.473,0,0,0-1.4,4.03,6.594,6.594,0,0,0,6.634,6.553,6.679,6.679,0,0,0,2.7-.565,6.474,6.474,0,0,0,1.4-4.03,6.594,6.594,0,0,0-6.634-6.553h0Z" transform="translate(-370.929 -232.778)" fill="#fedfc5" fill-rule="evenodd"/>
        </g>
        <g id="Grupo_1211406" data-name="Grupo 1211406" transform="translate(0 26.064)">
          <path id="Trazado_1057113" data-name="Trazado 1057113" d="M29.966,348.267H9.07A.57.57,0,0,1,8.5,347.7v-4.711a9.4,9.4,0,0,1,9.372-9.372h3.287a9.4,9.4,0,0,1,9.372,9.372V347.7A.57.57,0,0,1,29.966,348.267Z" transform="translate(-8.502 -321.485)" fill="#2891fa" fill-rule="evenodd"/>
          <path id="Trazado_1057114" data-name="Trazado 1057114" d="M52.64,334.546a9.286,9.286,0,0,1,4.062-.932H59.99a9.4,9.4,0,0,1,9.372,9.372v3.741A17.634,17.634,0,0,1,52.64,334.546Z" transform="translate(-47.33 -321.483)" fill="#43a2ff" fill-rule="evenodd"/>
          <ellipse id="Elipse_12564" data-name="Elipse 12564" cx="6.634" cy="6.553" rx="6.634" ry="6.553" transform="translate(4.382)" fill="#fecbaa"/>
          <path id="Trazado_1057115" data-name="Trazado 1057115" d="M70.086,232.778a6.678,6.678,0,0,0-2.7.565,6.473,6.473,0,0,0-1.4,4.03,6.594,6.594,0,0,0,6.634,6.553,6.679,6.679,0,0,0,2.7-.565,6.474,6.474,0,0,0,1.4-4.03,6.594,6.594,0,0,0-6.634-6.553h0Z" transform="translate(-59.071 -232.778)" fill="#fedfc5" fill-rule="evenodd"/>
        </g>
        <g id="Grupo_1211407" data-name="Grupo 1211407" transform="translate(18.758 31.241)">
          <path id="Trazado_1057116" data-name="Trazado 1057116" d="M185.9,391.3H165a.57.57,0,0,1-.568-.568v-4.711a9.4,9.4,0,0,1,9.372-9.372h3.287a9.4,9.4,0,0,1,9.372,9.372v4.711A.57.57,0,0,1,185.9,391.3Z" transform="translate(-164.432 -364.522)" fill="#ffc328" fill-rule="evenodd"/>
          <path id="Trazado_1057117" data-name="Trazado 1057117" d="M208.57,377.584a9.286,9.286,0,0,1,4.062-.932h3.287a9.4,9.4,0,0,1,9.372,9.372v3.741a17.634,17.634,0,0,1-16.722-12.181Z" transform="translate(-203.26 -364.521)" fill="#ffd54f" fill-rule="evenodd"/>
          <ellipse id="Elipse_12565" data-name="Elipse 12565" cx="6.634" cy="6.553" rx="6.634" ry="6.553" transform="translate(4.382)" fill="#fecbaa"/>
          <path id="Trazado_1057118" data-name="Trazado 1057118" d="M226.016,275.815a6.679,6.679,0,0,0-2.7.565,6.473,6.473,0,0,0-1.4,4.03,6.594,6.594,0,0,0,6.634,6.553,6.679,6.679,0,0,0,2.7-.565,6.474,6.474,0,0,0,1.4-4.03,6.594,6.594,0,0,0-6.634-6.553h0Z" transform="translate(-215.001 -275.815)" fill="#fedfc5" fill-rule="evenodd"/>
        </g>
        <g id="Grupo_1211408" data-name="Grupo 1211408" transform="translate(21.725)">
          <circle id="Elipse_12566" data-name="Elipse 12566" cx="7.219" cy="7.219" r="7.219" transform="translate(0 14.336) rotate(-82.996)" fill="#eb4e5c"/>
          <path id="Trazado_1057119" data-name="Trazado 1057119" d="M244.126,23.221a7.222,7.222,0,0,1,8.106,7.164,7.188,7.188,0,0,1-1.545,4.463,8.554,8.554,0,0,1-6.562-11.627Z" transform="translate(-236.964 -22.32)" fill="#ff6372" fill-rule="evenodd"/>
          <path id="Trazado_1057120" data-name="Trazado 1057120" d="M258.5,23.222a7.205,7.205,0,0,1,1.8.306v3.264a.9.9,0,1,1-1.8,0Zm6.912,7.513a7.2,7.2,0,0,1-.306,1.8h-.858a.9.9,0,0,1,0-1.8Z" transform="translate(-250.15 -22.368)" fill="#eb4e5c" fill-rule="evenodd"/>
          <path id="Trazado_1057121" data-name="Trazado 1057121" d="M196.358,32.539a7.2,7.2,0,0,1-.306-1.8h3.569a.9.9,0,0,1,0,1.8Zm7.207-9.317a7.205,7.205,0,0,1,1.8.306v3.264a.9.9,0,1,1-1.8,0Zm6.911,7.513a7.2,7.2,0,0,1-.306,1.8h-.858a.9.9,0,0,1,0-1.8Zm-5.107,6.606a7.2,7.2,0,0,1-1.8.306V36.482a.9.9,0,0,1,1.8,0Z" transform="translate(-195.215 -22.368)" fill="#d83946" fill-rule="evenodd"/>
          <path id="Trazado_1057122" data-name="Trazado 1057122" d="M253.694,87.9a7.247,7.247,0,0,1-1.4,1.15l-4.606-4.606a.9.9,0,1,1,1.276-1.276Z" transform="translate(-240.405 -74.87)" fill="#d83946" fill-rule="evenodd"/>
          <path id="Trazado_1057123" data-name="Trazado 1057123" d="M307.059,134.229l4.272.122,4.328,4.328-4.272-.122.122,4.272L307.18,138.5Z" transform="translate(-292.867 -120.021)" fill="#ffd54f" fill-rule="evenodd"/>
        </g>
      </g>
      <path id="Trazado_1057124" data-name="Trazado 1057124" d="M30.773,36.1V30.111l-.414.431a.9.9,0,0,1-1.3-1.253l1.966-2.042a.9.9,0,0,1,.633-.275.886.886,0,0,1,.642.251l2.042,1.966a.9.9,0,0,1-1.253,1.3L32.577,30v6.1a.9.9,0,0,1-1.8,0Zm-19.3-5.6V18.06A3.637,3.637,0,0,1,15.1,14.426h1.769l-.495-.513a.9.9,0,0,1,1.3-1.252L19.644,14.7a.9.9,0,0,1-.024,1.276l-2.041,1.966a.9.9,0,0,1-1.251-1.3l.429-.414H15.1a1.83,1.83,0,0,0-1.829,1.83V30.493a.9.9,0,1,1-1.8,0ZM43.184,15.979A.9.9,0,0,1,43.16,14.7l1.967-2.041a.9.9,0,1,1,1.3,1.252l-.494.513H47.7a3.638,3.638,0,0,1,3.634,3.634V30.493a.9.9,0,1,1-1.8,0V18.06a1.831,1.831,0,0,0-1.829-1.83H46.049l.429.414a.9.9,0,1,1-1.253,1.3ZM60.548,59.207H43.559a10.273,10.273,0,0,0-2.417-5.843c-.179-.211-.368-.413-.563-.607a8.533,8.533,0,0,1,6.476-6.216,7.579,7.579,0,0,0,6.754,0,8.46,8.46,0,0,1,6.738,8.29ZM41.789,64.385V60.007a8.455,8.455,0,0,0-6.737-8.289,7.578,7.578,0,0,1-6.754,0,8.455,8.455,0,0,0-6.737,8.289v4.378Zm-22-5.178H2.8V54.83a8.457,8.457,0,0,1,6.737-8.29,7.58,7.58,0,0,0,6.755,0,8.531,8.531,0,0,1,6.476,6.216c-.195.195-.384.4-.563.607a10.284,10.284,0,0,0-2.417,5.843ZM7.184,39.879a5.733,5.733,0,1,1,5.732,5.651A5.7,5.7,0,0,1,7.184,39.879Zm18.759,5.178a5.733,5.733,0,1,1,5.732,5.651A5.7,5.7,0,0,1,25.943,45.057ZM44.7,39.879a5.734,5.734,0,1,1,5.732,5.651A5.7,5.7,0,0,1,44.7,39.879Zm15.2,8.307a10.368,10.368,0,0,0-4.215-2.969,7.4,7.4,0,0,0,2.286-5.338,7.538,7.538,0,0,0-15.076,0,7.4,7.4,0,0,0,2.281,5.337,10.369,10.369,0,0,0-6.106,6.292,10.362,10.362,0,0,0-2.143-1.114,7.387,7.387,0,0,0,2.283-5.337,7.537,7.537,0,0,0-15.074,0,7.387,7.387,0,0,0,2.283,5.337,10.355,10.355,0,0,0-2.143,1.114,10.37,10.37,0,0,0-6.108-6.292,7.4,7.4,0,0,0,2.282-5.337,7.537,7.537,0,0,0-15.074,0,7.4,7.4,0,0,0,2.283,5.338A10.3,10.3,0,0,0,1,54.83v4.731a1.451,1.451,0,0,0,1.45,1.45H19.757v3.728a1.451,1.451,0,0,0,1.45,1.45H42.144a1.451,1.451,0,0,0,1.45-1.45V61.011H60.9a1.454,1.454,0,0,0,1.452-1.45V54.83A10.283,10.283,0,0,0,59.9,48.186ZM30.773,10.005V11.1a.9.9,0,0,0,1.8,0V10.005A5.413,5.413,0,0,1,37,14.426H35.906a.9.9,0,0,0,0,1.8H37a5.366,5.366,0,0,1-.924,2.223l-3.763-3.763a.9.9,0,1,0-1.275,1.276L34.8,19.73a5.384,5.384,0,0,1-2.223.923V19.56a.9.9,0,0,0-1.8,0v1.092a5.412,5.412,0,0,1-4.422-4.422h1.093a.9.9,0,1,0,0-1.8H26.351a5.412,5.412,0,0,1,4.422-4.421Zm10.933,12.48L38.746,22.4l.084,2.958,2.47,2.47-.057-2a.9.9,0,0,1,.264-.663.888.888,0,0,1,.664-.265l2,.058ZM23.3,16.231h1.228a7.217,7.217,0,0,0,6.245,6.245V23.7a.9.9,0,0,0,1.8,0V22.475a7.153,7.153,0,0,0,3.511-1.457l.838.837.111,3.913a.9.9,0,0,0,.264.613l4.327,4.328a.9.9,0,0,0,1.54-.664l-.094-3.318,3.316.1a.9.9,0,0,0,.664-1.54l-4.329-4.328a.9.9,0,0,0-.613-.263L38.2,20.579l-.837-.837a7.167,7.167,0,0,0,1.457-3.511H40.05a.9.9,0,0,0,0-1.8H38.822a7.217,7.217,0,0,0-6.244-6.244V6.953a.9.9,0,0,0-1.8,0V8.182a7.217,7.217,0,0,0-6.245,6.244H23.3a.9.9,0,1,0,0,1.8Z" transform="translate(0)" fill-rule="evenodd"/>
    </g>
  </g>
</svg>
