<svg xmlns="http://www.w3.org/2000/svg" xmlns:xlink="http://www.w3.org/1999/xlink" width="108" height="108" viewBox="0 0 108 108">
  <defs>
    <filter id="Trazado_904820" x="0" y="0" width="108" height="108" filterUnits="userSpaceOnUse">
      <feOffset dy="3" input="SourceAlpha"/>
      <feGaussianBlur stdDeviation="3" result="blur"/>
      <feFlood flood-opacity="0.161"/>
      <feComposite operator="in" in2="blur"/>
      <feComposite in="SourceGraphic"/>
    </filter>
  </defs>
  <g id="Grupo_1210893" data-name="Grupo 1210893" transform="translate(9 6)">
    <g id="Grupo_1202199" data-name="Grupo 1202199" transform="translate(0 0)">
      <g id="Grupo_1173585" data-name="Grupo 1173585">
        <g id="Grupo_1173428" data-name="Grupo 1173428">
          <g id="Grupo_1171958" data-name="Grupo 1171958">
            <g id="Grupo_1167341" data-name="Grupo 1167341">
              <g id="Grupo_1166792" data-name="Grupo 1166792">
                <g transform="matrix(1, 0, 0, 1, -9, -6)" filter="url(#Trazado_904820)">
                  <g id="Trazado_904820-2" data-name="Trazado 904820" transform="translate(9 6)" fill="#ebfefd">
                    <path d="M 44.99996948242188 88.50003051757812 C 39.12684631347656 88.50003051757812 33.43020629882812 87.35010528564453 28.06828117370605 85.08219146728516 C 22.88851928710938 82.89134216308594 18.23629379272461 79.75461578369141 14.2408447265625 75.75917053222656 C 10.24540710449219 71.76371765136719 7.108694553375244 67.11149597167969 4.917831897735596 61.93172073364258 C 2.649931907653809 56.56979370117188 1.500007033348083 50.87314224243164 1.500007033348083 45.00001907348633 C 1.500007033348083 39.12689590454102 2.649931907653809 33.43024444580078 4.917831897735596 28.06831932067871 C 7.108694553375244 22.8885440826416 10.24540710449219 18.23631858825684 14.2408447265625 14.24086952209473 C 18.23629379272461 10.2454195022583 22.88851928710938 7.108694076538086 28.06828117370605 4.917844295501709 C 33.43020629882812 2.649931669235229 39.12684631347656 1.500006556510925 44.99996948242188 1.500006556510925 C 50.87309265136719 1.500006556510925 56.56973266601562 2.649931669235229 61.93165588378906 4.917844295501709 C 67.11143493652344 7.108694076538086 71.76364135742188 10.2454195022583 75.75909423828125 14.24086952209473 C 79.75454711914062 18.23631858825684 82.89125823974609 22.8885440826416 85.08212280273438 28.06831932067871 C 87.35002136230469 33.43024444580078 88.49994659423828 39.12689590454102 88.49994659423828 45.00001907348633 C 88.49994659423828 50.87314224243164 87.35002136230469 56.56979370117188 85.08212280273438 61.93172073364258 C 82.89125823974609 67.11149597167969 79.75454711914062 71.76371765136719 75.75909423828125 75.75917053222656 C 71.76364135742188 79.75461578369141 67.11143493652344 82.89134216308594 61.93165588378906 85.08219146728516 C 56.56973266601562 87.35010528564453 50.87309265136719 88.50003051757812 44.99996948242188 88.50003051757812 Z" stroke="none"/>
                    <path d="M 44.99996948242188 3.000007629394531 C 39.32868194580078 3.000007629394531 33.82863998413086 4.110061645507812 28.65261077880859 6.299346923828125 C 23.65164184570312 8.414573669433594 19.15968322753906 11.44334411621094 15.301513671875 15.30152130126953 C 11.44332885742188 19.15970611572266 8.414566040039062 23.65166473388672 6.299324035644531 28.65264892578125 C 4.110054016113281 33.82867431640625 3 39.32873153686523 3 45.00001907348633 C 3 50.67130661010742 4.110054016113281 56.17136383056641 6.299324035644531 61.34738922119141 C 8.414566040039062 66.34837341308594 11.44332885742188 70.84033203125 15.301513671875 74.69851684570312 C 19.15968322753906 78.55668640136719 23.65164184570312 81.58546447753906 28.65261077880859 83.70069122314453 C 33.82863998413086 85.88997650146484 39.32868194580078 87.00003051757812 44.99996948242188 87.00003051757812 C 50.67125701904297 87.00003051757812 56.17129898071289 85.88997650146484 61.34732818603516 83.70069122314453 C 66.34829711914062 81.58546447753906 70.84025573730469 78.55668640136719 74.69842529296875 74.69851684570312 C 78.55661010742188 70.84033203125 81.58537292480469 66.34837341308594 83.70061492919922 61.34738922119141 C 85.88988494873047 56.17136383056641 86.99993896484375 50.67130661010742 86.99993896484375 45.00001907348633 C 86.99993896484375 39.32873153686523 85.88988494873047 33.82867431640625 83.70061492919922 28.65264892578125 C 81.58537292480469 23.65166473388672 78.55661010742188 19.15970611572266 74.69842529296875 15.30152130126953 C 70.84025573730469 11.44334411621094 66.34829711914062 8.414573669433594 61.34732818603516 6.299346923828125 C 56.17129898071289 4.110061645507812 50.67125701904297 3.000007629394531 44.99996948242188 3.000007629394531 M 44.99996948242188 7.62939453125e-06 C 69.85276794433594 7.62939453125e-06 89.99993896484375 20.14720153808594 89.99993896484375 45.00001907348633 C 89.99993896484375 69.85282897949219 69.85276794433594 90.00003051757812 44.99996948242188 90.00003051757812 C 20.14717102050781 90.00003051757812 0 69.85282897949219 0 45.00001907348633 C 0 20.14720153808594 20.14717102050781 7.62939453125e-06 44.99996948242188 7.62939453125e-06 Z" stroke="none" fill="#00dcfd"/>
                  </g>
                </g>
              </g>
            </g>
          </g>
        </g>
      </g>
    </g>
    <g id="vr-glasses_8100273" transform="translate(21.136 13.676)">
      <g id="Grupo_1210891" data-name="Grupo 1210891">
        <path id="Trazado_1056480" data-name="Trazado 1056480" d="M105.683,141.724h1.989v-5.966h-1.989a1.989,1.989,0,0,0-1.989,1.989v1.989A1.989,1.989,0,0,0,105.683,141.724Z" transform="translate(-98.722 -119.849)" fill="#dbd8db"/>
        <path id="Trazado_1056481" data-name="Trazado 1056481" d="M105.682,162.79h1.989v-2.983h-3.977v.994A1.989,1.989,0,0,0,105.682,162.79Z" transform="translate(-98.722 -140.915)" fill="#c9c5c9"/>
        <path id="Trazado_1056482" data-name="Trazado 1056482" d="M378.23,141.724h-1.989v-5.966h1.989a1.989,1.989,0,0,1,1.989,1.989v1.989A1.989,1.989,0,0,1,378.23,141.724Z" transform="translate(-337.464 -119.849)" fill="#dbd8db"/>
        <path id="Trazado_1056483" data-name="Trazado 1056483" d="M378.23,162.79h-1.989v-2.983h3.977v.994A1.989,1.989,0,0,1,378.23,162.79Z" transform="translate(-337.464 -140.915)" fill="#c9c5c9"/>
        <path id="Trazado_1056484" data-name="Trazado 1056484" d="M155.454,23.532H140.816a7.954,7.954,0,0,0-7.931,8.565l.336,4.361H163.05l.336-4.361A7.955,7.955,0,0,0,155.454,23.532Z" transform="translate(-124.272 -21.543)" fill="#d48c64"/>
        <path id="Trazado_1056485" data-name="Trazado 1056485" d="M263.319,23.532H256v2.983h7.319a4.971,4.971,0,0,1,4.957,5.353l-.227,2.959,2.865,1.632.335-4.361A7.954,7.954,0,0,0,263.319,23.532Z" transform="translate(-232.137 -21.543)" fill="#c6805d"/>
        <path id="Trazado_1056486" data-name="Trazado 1056486" d="M235.929,7.5h-1.989a1.989,1.989,0,0,0-1.989,1.989V21.42h5.966V9.489A1.989,1.989,0,0,0,235.929,7.5Z" transform="translate(-211.071 -7.5)" fill="#dbd8db"/>
        <path id="Trazado_1056487" data-name="Trazado 1056487" d="M235.929,7.5h-.994v5.966a2.983,2.983,0,0,1-2.983,2.983h0V21.42h5.966V9.489A1.989,1.989,0,0,0,235.929,7.5Z" transform="translate(-211.071 -7.5)" fill="#c9c5c9"/>
        <path id="Trazado_1056488" data-name="Trazado 1056488" d="M107.057,284.693l-10.48-3.082a2.983,2.983,0,0,1-2.141-2.862v-6.717H80.516v6.717a2.983,2.983,0,0,1-2.141,2.862L67.9,284.693a5.966,5.966,0,0,0-4.282,5.723v1.5H111.34v-1.5A5.966,5.966,0,0,0,107.057,284.693Z" transform="translate(-63.613 -239.22)" fill="#ffd18d"/>
        <path id="Trazado_1056489" data-name="Trazado 1056489" d="M213.807,278.749v-6.717h-13.92v5.331a15.908,15.908,0,0,0,8.832,1.511,2.179,2.179,0,0,1,1.473.361h0a2.2,2.2,0,0,1,.877,1.2,6,6,0,0,0,4.037,4.041l.688.2v-3.123A2.977,2.977,0,0,1,213.807,278.749Z" transform="translate(-182.984 -239.22)" fill="#fbbd80"/>
        <path id="Trazado_1056490" data-name="Trazado 1056490" d="M164.716,177.7h0a12.926,12.926,0,0,1-12.926-12.926v-4.972h25.852v4.972A12.926,12.926,0,0,1,164.716,177.7Z" transform="translate(-140.853 -140.914)" fill="#ffe09c"/>
        <rect id="Rectángulo_420934" data-name="Rectángulo 420934" width="9.943" height="2.983" transform="translate(18.892 21.875)" fill="#ffd18d"/>
        <path id="Trazado_1056491" data-name="Trazado 1056491" d="M241.9,159.805v4.972a12.921,12.921,0,0,1-9.943,12.566,12.885,12.885,0,0,0,15.909-12.566V159.8H241.9Z" transform="translate(-211.071 -140.913)" fill="#ffd18d"/>
        <path id="Trazado_1056492" data-name="Trazado 1056492" d="M162.6,103.694H138.741a2.983,2.983,0,0,0-2.983,2.983v7.954a2.983,2.983,0,0,0,2.983,2.983h4.972a3.977,3.977,0,0,0,3.182-1.591l1.79-2.386h3.977l1.79,2.386a3.977,3.977,0,0,0,3.182,1.591H162.6a2.983,2.983,0,0,0,2.983-2.983v-7.954A2.983,2.983,0,0,0,162.6,103.694Z" transform="translate(-126.809 -91.762)" fill="#eceaec"/>
        <rect id="Rectángulo_420935" data-name="Rectángulo 420935" width="21.875" height="5.966" transform="translate(12.926 15.909)" fill="#98db7c"/>
        <path id="Trazado_1056493" data-name="Trazado 1056493" d="M107.058,355.868l-8.779-2.582-10.8,10.8-10.8-10.8L67.9,355.868a5.966,5.966,0,0,0-4.282,5.723v10.451h44.744l2.983-10.451A5.966,5.966,0,0,0,107.058,355.868Z" transform="translate(-63.614 -310.395)" fill="#98db7c"/>
        <path id="Trazado_1056494" data-name="Trazado 1056494" d="M334.895,355.868l-8.779-2.582-2.4,2.4,10.34,3.041a3,3,0,0,1,2.141,2.862v10.451h2.983V361.592A5.966,5.966,0,0,0,334.895,355.868Z" transform="translate(-291.451 -310.395)" fill="#77cc7d"/>
        <path id="Trazado_1056495" data-name="Trazado 1056495" d="M162.992,360.747a1.988,1.988,0,0,0,2.812,0l11.565-11.565-3.87-1.138a3,3,0,0,1-.445-.171l-8.656,8.656-8.656-8.656a3,3,0,0,1-.445.171l-3.87,1.138Z" transform="translate(-140.535 -305.653)" fill="#b8eb7c"/>
        <path id="Trazado_1056496" data-name="Trazado 1056496" d="M189.7,135.758h-2.983a2.983,2.983,0,0,1-2.983,2.983H167.823v2.983H189.7v-5.966Z" transform="translate(-154.897 -119.849)" fill="#77cc7d"/>
        <g id="Grupo_1210890" data-name="Grupo 1210890" transform="translate(8.949 11.932)">
          <path id="Trazado_1056497" data-name="Trazado 1056497" d="M138.74,194.854h4.972a3.977,3.977,0,0,0,3.182-1.591l1.044-1.392h-12.18A2.983,2.983,0,0,0,138.74,194.854Z" transform="translate(-135.757 -180.934)" fill="#dbd8db"/>
          <path id="Trazado_1056498" data-name="Trazado 1056498" d="M278.044,114.631l1.044,1.392a3.977,3.977,0,0,0,3.182,1.591h4.972a2.983,2.983,0,0,0,2.983-2.983v-7.954a2.983,2.983,0,0,0-2.983-2.983v9.943a.994.994,0,0,1-.994.994Z" transform="translate(-260.395 -103.694)" fill="#dbd8db"/>
        </g>
        <path id="Trazado_1056499" data-name="Trazado 1056499" d="M310.926,348.044a2.988,2.988,0,0,1-.445-.171l-2.168,2.167.169.112a5.946,5.946,0,0,0,1.6.754l2.308.679,2.4-2.4Z" transform="translate(-277.961 -305.654)" fill="#98db7c"/>
      </g>
      <g id="Grupo_1210892" data-name="Grupo 1210892" transform="translate(0)">
        <path id="Trazado_1056500" data-name="Trazado 1056500" d="M235.2,234.907a5.615,5.615,0,0,0,5.16,0" transform="translate(-213.918 -206.7)" fill="none" stroke="#000" stroke-linecap="round" stroke-linejoin="round" stroke-miterlimit="10" stroke-width="1"/>
        <path id="Trazado_1056501" data-name="Trazado 1056501" d="M63.613,314.911V304.461a5.966,5.966,0,0,1,4.282-5.723l10.48-3.082a2.983,2.983,0,0,0,2.141-2.862v-4.728" transform="translate(-63.613 -253.264)" fill="none" stroke="#000" stroke-linecap="round" stroke-linejoin="round" stroke-miterlimit="10" stroke-width="1"/>
        <path id="Trazado_1056502" data-name="Trazado 1056502" d="M329.016,314.911V304.461a5.966,5.966,0,0,0-4.282-5.723l-10.48-3.082a2.983,2.983,0,0,1-2.141-2.862v-4.728" transform="translate(-281.289 -253.264)" fill="none" stroke="#000" stroke-linecap="round" stroke-linejoin="round" stroke-miterlimit="10" stroke-width="1"/>
        <path id="Trazado_1056503" data-name="Trazado 1056503" d="M178.563,215.919a12.928,12.928,0,0,1-25.547,0" transform="translate(-141.927 -190.067)" fill="none" stroke="#000" stroke-linecap="round" stroke-linejoin="round" stroke-miterlimit="10" stroke-width="1"/>
        <path id="Trazado_1056504" data-name="Trazado 1056504" d="M133.22,36.458l-.336-4.361a7.954,7.954,0,0,1,7.931-8.565h4.336" transform="translate(-124.271 -21.543)" fill="none" stroke="#000" stroke-linecap="round" stroke-linejoin="round" stroke-miterlimit="10" stroke-width="1"/>
        <path id="Trazado_1056505" data-name="Trazado 1056505" d="M291.981,36.458l.336-4.361a7.954,7.954,0,0,0-7.931-8.565h-4.336" transform="translate(-253.203 -21.543)" fill="none" stroke="#000" stroke-linecap="round" stroke-linejoin="round" stroke-miterlimit="10" stroke-width="1"/>
        <path id="Trazado_1056506" data-name="Trazado 1056506" d="M107.671,141.724h-1.989a1.989,1.989,0,0,1-1.989-1.989v-1.989a1.989,1.989,0,0,1,1.989-1.989h1.989" transform="translate(-98.722 -119.849)" fill="none" stroke="#000" stroke-linecap="round" stroke-linejoin="round" stroke-miterlimit="10" stroke-width="1"/>
        <path id="Trazado_1056507" data-name="Trazado 1056507" d="M376.242,135.758h1.989a1.989,1.989,0,0,1,1.989,1.989v1.989a1.989,1.989,0,0,1-1.989,1.989h-1.989" transform="translate(-337.464 -119.849)" fill="none" stroke="#000" stroke-linecap="round" stroke-linejoin="round" stroke-miterlimit="10" stroke-width="1"/>
        <path id="Trazado_1056508" data-name="Trazado 1056508" d="M231.952,19.432V9.489A1.989,1.989,0,0,1,233.941,7.5h1.989a1.989,1.989,0,0,1,1.989,1.989v9.943" transform="translate(-211.071 -7.5)" fill="none" stroke="#000" stroke-linecap="round" stroke-linejoin="round" stroke-miterlimit="10" stroke-width="1"/>
        <path id="Trazado_1056509" data-name="Trazado 1056509" d="M187.709,135.758H189.7v5.966H167.823v-5.966h15.909" transform="translate(-154.897 -119.849)" fill="none" stroke="#000" stroke-linecap="round" stroke-linejoin="round" stroke-miterlimit="10" stroke-width="1"/>
        <path id="Trazado_1056510" data-name="Trazado 1056510" d="M152.661,113.638l1.79,2.386a3.977,3.977,0,0,0,3.182,1.591H162.6a2.983,2.983,0,0,0,2.983-2.983v-7.954a2.983,2.983,0,0,0-2.983-2.983H138.741a2.983,2.983,0,0,0-2.983,2.983v7.954a2.983,2.983,0,0,0,2.983,2.983h4.972a3.977,3.977,0,0,0,3.182-1.591l1.79-2.386" transform="translate(-126.809 -91.763)" fill="none" stroke="#000" stroke-linecap="round" stroke-linejoin="round" stroke-miterlimit="10" stroke-width="1"/>
        <path id="Trazado_1056511" data-name="Trazado 1056511" d="M222.828,353.455l4.115,4.114,8.515-8.514" transform="translate(-203.079 -306.689)" fill="none" stroke="#000" stroke-linecap="round" stroke-linejoin="round" stroke-miterlimit="10" stroke-width="1"/>
        <line id="Línea_2407" data-name="Línea 2407" x2="1.498" y2="1.498" transform="translate(15.349 42.366)" fill="none" stroke="#000" stroke-linecap="round" stroke-linejoin="round" stroke-miterlimit="10" stroke-width="1"/>
        <path id="Trazado_1056512" data-name="Trazado 1056512" d="M179.057,360.807,167.79,372.074a2.016,2.016,0,0,1-2.852,0l-11.267-11.267" transform="translate(-142.501 -316.983)" fill="none" stroke="#000" stroke-linecap="round" stroke-linejoin="round" stroke-miterlimit="10" stroke-width="1"/>
      </g>
    </g>
  </g>
</svg>
