<svg xmlns="http://www.w3.org/2000/svg" xmlns:xlink="http://www.w3.org/1999/xlink" width="400" height="513" viewBox="0 0 400 513">
  <defs>
    <clipPath id="clip-path">
      <rect id="Rectángulo_420913" data-name="Rectángulo 420913" width="400" height="513" transform="translate(1018.67 1620)" fill="#fff" stroke="#707070" stroke-width="1"/>
    </clipPath>
    <clipPath id="clip-path-2">
      <rect id="Rectángulo_420948" data-name="Rectángulo 420948" width="373.609" height="397" fill="none"/>
    </clipPath>
    <clipPath id="clip-path-4">
      <rect id="Rectángulo_420936" data-name="Rectángulo 420936" width="176.197" height="63.247" fill="none"/>
    </clipPath>
    <clipPath id="clip-path-5">
      <rect id="Rectángulo_420937" data-name="Rectángulo 420937" width="102.199" height="36.684" fill="none"/>
    </clipPath>
    <clipPath id="clip-path-6">
      <rect id="Rectángulo_420938" data-name="Rectángulo 420938" width="57.372" height="60.155" fill="none"/>
    </clipPath>
    <clipPath id="clip-path-7">
      <rect id="Rectángulo_420939" data-name="Rectángulo 420939" width="57.012" height="42.101" fill="none"/>
    </clipPath>
    <clipPath id="clip-path-8">
      <rect id="Rectángulo_420940" data-name="Rectángulo 420940" width="23.188" height="83.134" fill="none"/>
    </clipPath>
    <clipPath id="clip-path-9">
      <rect id="Rectángulo_420941" data-name="Rectángulo 420941" width="16.419" height="18.758" fill="none"/>
    </clipPath>
    <clipPath id="clip-path-10">
      <rect id="Rectángulo_420942" data-name="Rectángulo 420942" width="24.964" height="28.023" fill="none"/>
    </clipPath>
    <clipPath id="clip-path-11">
      <rect id="Rectángulo_420943" data-name="Rectángulo 420943" width="129.126" height="120.359" fill="none"/>
    </clipPath>
    <clipPath id="clip-path-12">
      <rect id="Rectángulo_420944" data-name="Rectángulo 420944" width="57.371" height="60.156" fill="none"/>
    </clipPath>
    <clipPath id="clip-path-13">
      <rect id="Rectángulo_420945" data-name="Rectángulo 420945" width="122.585" height="207.496" fill="none"/>
    </clipPath>
    <clipPath id="clip-path-14">
      <rect id="Rectángulo_420946" data-name="Rectángulo 420946" width="122.586" height="202.07" fill="none"/>
    </clipPath>
  </defs>
  <g id="Enmascarar_grupo_1159115" data-name="Enmascarar grupo 1159115" transform="translate(-1018.67 -1620)" clip-path="url(#clip-path)">
    <rect id="Rectángulo_420901" data-name="Rectángulo 420901" width="400" height="292" rx="17" transform="translate(1017.67 1728)" fill="#f5b104"/>
    <rect id="Rectángulo_420949" data-name="Rectángulo 420949" width="230" height="513" transform="translate(1110.67 1620)" fill="#132fa9"/>
    <g id="Grupo_1210930" data-name="Grupo 1210930" transform="translate(1030.865 1678)">
      <g id="Grupo_1210929" data-name="Grupo 1210929" clip-path="url(#clip-path-2)">
        <g id="Grupo_1210928" data-name="Grupo 1210928">
          <g id="Grupo_1210927" data-name="Grupo 1210927" clip-path="url(#clip-path-2)">
            <path id="Trazado_1056513" data-name="Trazado 1056513" d="M156.872,221.605a29.278,29.278,0,0,1,35.218-23.232,29.329,29.329,0,0,1,58.415-2.052,14.071,14.071,0,0,1,23.317,10.624,14.6,14.6,0,0,1-.133,1.849c.441-.021.872-.068,1.317-.068a29.321,29.321,0,0,1,24.3,12.88Z" transform="translate(-20.977 -22.797)" fill="#00a8ff"/>
            <g id="Grupo_1210896" data-name="Grupo 1210896" transform="translate(94.216 316.281)" opacity="0.4" style="mix-blend-mode: multiply;isolation: isolate">
              <g id="Grupo_1210895" data-name="Grupo 1210895">
                <g id="Grupo_1210894" data-name="Grupo 1210894" clip-path="url(#clip-path-4)">
                  <path id="Trazado_1056514" data-name="Trazado 1056514" d="M108.76,428.35a36.217,36.217,0,0,1,43.567-28.74,36.282,36.282,0,0,1,72.263-2.539,17.407,17.407,0,0,1,28.844,13.142,17.749,17.749,0,0,1-.165,2.287c.545-.024,1.079-.085,1.629-.085a36.274,36.274,0,0,1,30.057,15.934Z" transform="translate(-108.76 -365.103)" fill="#132fa9"/>
                </g>
              </g>
            </g>
            <g id="Grupo_1210899" data-name="Grupo 1210899" transform="translate(25.853)" opacity="0.4" style="mix-blend-mode: multiply;isolation: isolate">
              <g id="Grupo_1210898" data-name="Grupo 1210898">
                <g id="Grupo_1210897" data-name="Grupo 1210897" clip-path="url(#clip-path-5)">
                  <path id="Trazado_1056515" data-name="Trazado 1056515" d="M29.844,36.684a21.008,21.008,0,0,1,25.27-16.67,21.045,21.045,0,0,1,41.915-1.473,10.1,10.1,0,0,1,16.73,7.623,10.444,10.444,0,0,1-.1,1.326c.315-.015.625-.049.945-.049a21.041,21.041,0,0,1,17.434,9.242Z" transform="translate(-29.844 0)" fill="#132fa9"/>
                </g>
              </g>
            </g>
            <path id="Trazado_1056516" data-name="Trazado 1056516" d="M349.072,91.236c6.93-5.523,19.217-4.375,25.23,2.093,6.714,7.22,7.255,17.507,5.847,34.291s-.541,34.435,2.6,44.722,1.733,28.677-6.605,35.508-31.58,9.026-34.144-4.9,1.767-29.847,3.608-40.784,3.465-70.927,3.465-70.927" transform="translate(-45.627 -11.728)" fill="#aa7b72"/>
            <path id="Trazado_1056517" data-name="Trazado 1056517" d="M112.712,193.538a22.7,22.7,0,0,0,10.381,2.51s-8.129-13.532-9.271-15.573-11.552-12.868-13.2-14.969-3.541,1.217-2.819,4.595,5.543,9.413,7.147,11.459a31.911,31.911,0,0,1,3.067,4.382c.436.777,1.306,2.813,1.972,4.413-1.279-1.5-2.3-2.7-2.688-3.186-1.47-1.817-13.567-10.721-15.548-12.513s-3.281,1.8-2,5.006,7.06,8.336,8.987,10.081a31.846,31.846,0,0,1,3.767,3.8,32.277,32.277,0,0,1,2.522,5.7c-1.724-1.642-4.279-4.043-4.9-4.436-.951-.606-6.851-2.9-8.656-3.906s-2.531.69-2.21,2.614a7.411,7.411,0,0,0,3.961,5.313c2.243,1.02,3.579,1.794,3.579,1.794l3.374,8.663c.49,3.8.986,12.756,1.349,15.549s.669,5.83,4.455,8.9l13.5-1.742,2.168-33.408-4.094.608c-1.238-1.439-3.067-3.564-4.851-5.646" transform="translate(-11.927 -22.044)" fill="#e98f80"/>
            <path id="Trazado_1056518" data-name="Trazado 1056518" d="M127.606,202.084s-.072-15.786-.01-18.123S124.245,167,123.9,164.347s-3.667-.763-4.773,2.51-.046,10.924.287,13.5a31.9,31.9,0,0,1,.4,5.335c-.037,1.556-.9,7.1-.9,7.1a23.538,23.538,0,0,0,8.7,9.287" transform="translate(-15.864 -21.809)" fill="#e98f80"/>
            <path id="Trazado_1056519" data-name="Trazado 1056519" d="M127.787,227.9a10.1,10.1,0,0,1-1.765-6.906c.337-3.028.267-14.3.349-15.913a23.229,23.229,0,0,0-2.415-8.349,52.856,52.856,0,0,0-4.52-5.349,28.215,28.215,0,0,1-3.992-3.016c-.818-.986-1.636-1.681-2.475-1.136s-2.051,3.286-1.357,5.562,2.949,4.24,3.709,5.054a13.193,13.193,0,0,1,1.522,2.206l-.166,2.659c-.546,1.272-4.079,7.732-6.113,11.434s-7.728,16.7-2.834,22.039c3.614,3.942,6.35,5.639,8.771,8.6S159.186,298.5,159.186,298.5l17.6-26.151s-41.986-36.329-49-44.45" transform="translate(-14.147 -25.011)" fill="#ffcfbb"/>
            <path id="Trazado_1056520" data-name="Trazado 1056520" d="M195.554,288.446s-11.208-6.714-12.344-7.093a3.559,3.559,0,0,0-2.544,0c-.887.246-11.262,9.638-18.463,24.094-.961,1.93-.379,2.382,0,2.924s11.911,11.586,11.911,11.586Z" transform="translate(-21.62 -37.591)" fill="#20364f"/>
            <path id="Trazado_1056521" data-name="Trazado 1056521" d="M315.1,231.258c-6-6.857-25.772-9.312-35.734-2.382s-29.345,33.677-29.345,33.677c-11.587,6.822-33.135,19.924-33.135,19.924s-2.166-1.516-3.682-1.083a3.713,3.713,0,0,0-2.166,1.949s-.8-1.3-1.7-.972a18.989,18.989,0,0,0-2.844,1.73s-1.733-4.765-3.9-4.873a49.383,49.383,0,0,0-6.93.65,100.292,100.292,0,0,0-21.44,32.7c.325,6.064.65,7.8,2.166,8.338s6.93,0,6.93,0,10.828,8.771,16.784,10.828,7.58,2.166,10.937,1.191,30.1-11.476,44.18-17.325a161.587,161.587,0,0,1,23.173-8.014c4.656-1.408,17.217-4.007,21.44-7.255s16.459-11.586,19.708-35.517-.65-29.237-4.44-33.568" transform="translate(-23.297 -30.053)" fill="#dbe2eb"/>
            <g id="Grupo_1210902" data-name="Grupo 1210902" transform="translate(74.876 178.033)" opacity="0.6">
              <g id="Grupo_1210901" data-name="Grupo 1210901">
                <g id="Grupo_1210900" data-name="Grupo 1210900" clip-path="url(#clip-path-6)">
                  <path id="Trazado_1056522" data-name="Trazado 1056522" d="M142.164,206.15c-3.119-2-10.14.845-18.443,6.862-.018,2.2-.043,4.665-.1,6.731,3.291-1.786,5.975-2.412,7.419-1.484,3.319,2.129-1.125,11.641-9.9,21.2s-18.622,15.6-21.941,13.471c-2.609-1.675-.4-7.923,4.927-15.164a10.1,10.1,0,0,1-2.323-4.04C89.376,248.4,83.269,261.95,88.075,265.035c5.272,3.383,21.694-7.074,36.6-23.307s22.756-32.2,17.485-35.578" transform="translate(-86.434 -205.515)" fill="#fff"/>
                </g>
              </g>
            </g>
            <path id="Trazado_1056523" data-name="Trazado 1056523" d="M256.588,105.083c.074,2.572-8.989,12.906-10.107,14.349s-1.082,2.526-.469,3.573,2.165,2.092,2.743,2.887a2.714,2.714,0,0,1,.6,2.322,14.534,14.534,0,0,1-.948,2.437,10.11,10.11,0,0,0,2.112,2.274c-.487.934-.907,3.045-.541,3.682s1.949,1.935,1.922,3.424-.243,8.283-.406,10.828.7,5.279,6.659,5.063,10.18-.433,13.7,4.44,3.537,11.26,0,18.48v16.243h47.357V170.542s-6.5-14.726-2.31-19.347,23.245-19.347,22.09-41-15.376-39.055-39.415-41.365c-20.546-1.975-43.819,7.363-42.99,36.257" transform="translate(-32.84 -9.17)" fill="#ffcfbb"/>
            <g id="Grupo_1210905" data-name="Grupo 1210905" transform="translate(215.969 74.604)" opacity="0.7">
              <g id="Grupo_1210904" data-name="Grupo 1210904">
                <g id="Grupo_1210903" data-name="Grupo 1210903" clip-path="url(#clip-path-7)">
                  <path id="Trazado_1056524" data-name="Trazado 1056524" d="M280.444,126.29c2.179.634,4.861,1.407,6.03,1.707a8.245,8.245,0,0,0,5.646-.729c1.516-.734,6.038-2.646,6.887-3.221a6.387,6.387,0,0,0,2.186-3.21c.4-1.342,4.15-10.787,4.66-12.409s1-3.895-.866-4.863c-1.258-.65-8.49-3.018-13.092-4.5a6.006,6.006,0,0,0-2.184-4.542c-2.087-1.731-15.493-6.207-27.347-8.405-3.511,5.422-5.534,12.441-5.279,21.309.055,1.875-4.739,7.865-7.779,11.539a5.087,5.087,0,0,1,3.408,0c2.525.934,17.966,6.349,21.6,7.6,2.454.845,4.591.791,6.127-.279" transform="translate(-249.306 -86.12)" fill="#e98f80"/>
                </g>
              </g>
            </g>
            <g id="Grupo_1210908" data-name="Grupo 1210908" transform="translate(298.161 76.949)" opacity="0.5" style="mix-blend-mode: multiply;isolation: isolate">
              <g id="Grupo_1210907" data-name="Grupo 1210907">
                <g id="Grupo_1210906" data-name="Grupo 1210906" clip-path="url(#clip-path-8)">
                  <path id="Trazado_1056525" data-name="Trazado 1056525" d="M365.686,143.19c-5.368-8.348-6.458-8.757-5.93-14.546s3.327-14.283,2.375-22.9c-.472-4.285-3.039-10.794-7.8-16.913a15.553,15.553,0,0,0-4.866,2.559s-1.624,59.99-3.465,70.927c-.489,2.906-1.154,6.171-1.818,9.649a30.169,30.169,0,0,0,7.481-1.429c11.2-3.561,19.386-18.995,14.018-27.341" transform="translate(-344.186 -88.827)" fill="#aa7b72"/>
                </g>
              </g>
            </g>
            <path id="Trazado_1056526" data-name="Trazado 1056526" d="M280.454,65.491c-13.1-.325-17.921,1.028-21.711,9.529s.108,16.513,6.226,18.3c0,0,5.739,1.679,7.742,2.112-.162-1.462-.487-5.09-.487-5.09a15.668,15.668,0,0,0,6.5,6.065,106.722,106.722,0,0,0,17.6,6.172s2.707,10.557,5.631,14.727c-5.36,0-16.4,7.255-8.608,17.542.975-6.064,5.793-15.431,12.236-15.539l-1.263,17s-1.228,12.994,1.733,19.275,10.467,10.828,22.09,9.1,22.164-15.666,18.193-24.762-4.982-9.673-3.538-15.3,5.559-13.572,5.992-22.235S342.719,74.8,325.1,66.574s-43.1-7.943-44.651-1.084" transform="translate(-34.399 -8.073)" fill="#aa7b72"/>
            <path id="Trazado_1056527" data-name="Trazado 1056527" d="M354.529,116.239a208.662,208.662,0,0,0-43.843-14.4l-5.346,17.775a208.645,208.645,0,0,1,43.843,14.4c.956-.044,1.265-.119,1.536-.823s3.735-11.857,4.115-13.264.884-2.257-.3-3.688" transform="translate(-40.83 -13.618)" fill="#20364f"/>
            <g id="Grupo_1210911" data-name="Grupo 1210911" transform="translate(264.51 88.221)" opacity="0.4" style="mix-blend-mode: multiply;isolation: isolate">
              <g id="Grupo_1210910" data-name="Grupo 1210910">
                <g id="Grupo_1210909" data-name="Grupo 1210909" clip-path="url(#clip-path-9)">
                  <path id="Trazado_1056528" data-name="Trazado 1056528" d="M309.866,120.6l11.892-16.124c-6.752-1.818-11.074-2.633-11.074-2.633l-5.346,17.774s1.661.314,4.527.983" transform="translate(-305.34 -101.839)" fill="#20364f"/>
                </g>
              </g>
            </g>
            <path id="Trazado_1056529" data-name="Trazado 1056529" d="M282.994,122.568s7.292,1.457,9.457,1.811a8.243,8.243,0,0,0,5.558-1.234c1.444-.866,5.776-3.177,6.57-3.826a6.385,6.385,0,0,0,1.888-3.392c.277-1.372,3.165-11.117,3.526-12.778s.65-3.97-1.3-4.765S291.3,94.2,291.3,94.2Z" transform="translate(-37.842 -12.596)" fill="#20364f"/>
            <path id="Trazado_1056530" data-name="Trazado 1056530" d="M253.876,82.969a3.8,3.8,0,0,0-3.573,2.274c-.541,1.3-5.2,24.31-5.523,26.693s1.608,4.745,4.486,5.919c0,0,1.037-1.642,3.636-.938s18.463,4.71,22.2,5.631,6.605-.055,7.634-3.249,6.767-21.983,7.255-23.606a6.038,6.038,0,0,0-2.437-6.443c-2.6-1.787-20.791-5.9-33.677-6.281" transform="translate(-32.728 -11.094)" fill="#fff"/>
            <path id="Trazado_1056531" data-name="Trazado 1056531" d="M311.69,128.492c2.707-3.249,7.652-6.1,11.478-4.259s3.429,9.927,0,14.618-6.569,6.208-8.951,6.677a47.783,47.783,0,0,1-5.306.65Z" transform="translate(-41.308 -16.535)" fill="#ffcfbb"/>
            <path id="Trazado_1056532" data-name="Trazado 1056532" d="M251.953,142.149a5.956,5.956,0,0,1,2.2-.685c1.119-.073,8.591-.9,10.215-1.228s1.66-1.084,2.021-1.444,2.418-.216,2.562.289-1.444,2.2-4.981,2.6-12.02.469-12.02.469" transform="translate(-33.691 -18.533)" fill="#e98f80"/>
            <g id="Grupo_1210914" data-name="Grupo 1210914" transform="translate(227.749 140.635)" opacity="0.7">
              <g id="Grupo_1210913" data-name="Grupo 1210913">
                <g id="Grupo_1210912" data-name="Grupo 1210912" clip-path="url(#clip-path-10)">
                  <path id="Trazado_1056533" data-name="Trazado 1056533" d="M287.816,162.614c-.65-1.733-20.791,5.414-24.911,5.77h0c4.707-.1,8.248.335,11.267,4.516,3.353,4.642,3.519,10.664.469,17.466,8.892-7.812,13.8-26.083,13.175-27.753" transform="translate(-262.905 -162.344)" fill="#e98f80"/>
                </g>
              </g>
            </g>
            <path id="Trazado_1056534" data-name="Trazado 1056534" d="M345.968,433.948H228.01a171.977,171.977,0,0,0-2.6,21.08H350.155a100.077,100.077,0,0,0-4.187-21.08" transform="translate(-30.142 -58.028)" fill="#20364f"/>
            <path id="Trazado_1056535" data-name="Trazado 1056535" d="M263.318,197.974s-22.378,13.656-25.049,15.533-3.825,2.816-4.765,6.57-5.342,24.184-5.342,24.184-10.973,23.1-11.695,25.7.578,22.379,5.631,36.528c.722,10.54,1.551,72.225,1.335,76.232s-2.057,5.414-1.949,7.255,2.274,4.765,2.274,4.765v18.733c0,1.516,1.733,2.815,3.573,2.924s17.8,5.451,117.417-2.2c2.769-.213,3.465-1.877,3.465-3.465s-.794-17.181-.794-17.181,4.981-6.642,3.754-8.591-10.613-16.1-16.387-23.028c3.9-21.946,15.882-74.211,19.347-91.1s7.075-40.138-3.32-51.255S320.853,197.7,320.853,197.7l-51.7,13.931Z" transform="translate(-28.921 -26.437)" fill="#ffb10a"/>
            <path id="Trazado_1056536" data-name="Trazado 1056536" d="M341.558,226.3c-12.868-15.274-26.2-22.607-26.337-22.679l2.062-3.809c.572.309,14.158,7.758,27.588,23.7Z" transform="translate(-42.152 -26.719)" fill="#20364f"/>
            <path id="Trazado_1056537" data-name="Trazado 1056537" d="M352.609,222.306c-12.869-15.274-26.2-22.607-26.337-22.679l2.061-3.809c.573.309,14.159,7.758,27.589,23.7Z" transform="translate(-43.629 -26.185)" fill="#20364f"/>
            <g id="Grupo_1210917" data-name="Grupo 1210917" transform="translate(192.257 193.013)" opacity="0.5">
              <g id="Grupo_1210916" data-name="Grupo 1210916">
                <g id="Grupo_1210915" data-name="Grupo 1210915" clip-path="url(#clip-path-11)">
                  <path id="Trazado_1056538" data-name="Trazado 1056538" d="M316.948,306.553c4.385-2.105,16.4-6.6,20.073-10.459s14.488-13.974,14.024-38.121-5.128-28.791-9.537-32.49c-6.982-5.855-21.945-1.453-30.726,6.924S282,266.393,282,266.393c-10.4,8.519-29.685,24.773-29.685,24.773s-2.374-1.165-3.806-.505a3.715,3.715,0,0,0-1.841,2.258s-.991-1.165-1.833-.7a18.949,18.949,0,0,0-2.545,2.146s-2.443-4.442-4.6-4.217a49.336,49.336,0,0,0-6.748,1.706,94.622,94.622,0,0,0-9.011,15.229c.292.94.6,1.863.919,2.763.249,3.647.513,13.419.74,24.805.85-.194,1.45-.349,1.45-.349s12.046,7.006,18.247,8.125,7.822.976,10.99-.5,27.987-15.96,41-23.9a161.662,161.662,0,0,1,21.668-11.475" transform="translate(-221.934 -222.807)" fill="#ff7c0a"/>
                </g>
              </g>
            </g>
            <path id="Trazado_1056539" data-name="Trazado 1056539" d="M348.532,396.1c-.015-.3-.023-.468-.023-.468s.1-.139.265-.366l-.209-.074-.093.008c-29.423,2.458-90.36,4.148-103.7,3.765V384.661c0-.729.086-74.536,1.154-94.69.992-18.725,2.233-27.026,8.059-42.462,4.44-11.764,13.216-27.5,16.932-33.975l-.675.182-.183-.427c-3.786,6.6-12.467,22.2-16.886,33.914-5.866,15.545-7.116,23.894-8.113,42.723-1.07,20.175-1.156,94.006-1.156,94.735v14.275c-11.927-.463-18.864-2.5-18.915-2.519l-.563-.2c.248.37.42.606.42.606v.45a87.124,87.124,0,0,0,18.693,2.51,7.219,7.219,0,0,0-.935,3.644v13.716a8.866,8.866,0,0,0,.483,2.877l.936.046a7.991,7.991,0,0,1-.553-2.923V403.43a6.156,6.156,0,0,1,1.074-3.6c1.3.041,3.073.061,5.261.061,6.171,0,15.569-.158,26.38-.442a6.98,6.98,0,0,0-.951,3.984v14.149a8.678,8.678,0,0,0,.368,2.6l.895-.023a7.632,7.632,0,0,1-.4-2.581V403.43c0-2.919,1-3.824,1.276-4.016,23.437-.631,53.092-1.843,71.074-3.341Z" transform="translate(-30.01 -28.521)" fill="#ff7c0a"/>
            <path id="Trazado_1056540" data-name="Trazado 1056540" d="M328.852,194.93s-3.97-14.728-5.053-16.316a3.744,3.744,0,0,0-4.115-1.516c-1.444.289-20.358,8.591-28.587,13.572s-12.224,9.194-14.943,21.44c-.288,1.3.577,1.515,1.8,1.155s36.094-13.426,50.894-18.336" transform="translate(-36.92 -23.667)" fill="#20364f"/>
            <path id="Trazado_1056541" data-name="Trazado 1056541" d="M277.615,184.276s1.621,10.757,1.621,15.738-3.472,14.816-3.781,14.223-4.088-4.622-6.542-17.472c0,0,5.63-9.962,6.786-11.406s1.917-1.083,1.917-1.083" transform="translate(-35.959 -24.636)" fill="#20364f"/>
            <path id="Trazado_1056542" data-name="Trazado 1056542" d="M237.606,218.234a9.07,9.07,0,0,0-2.267,4.59c-.918,3.669-5.143,23.258-5.333,24.141,1.129-2.545,8.4-18.946,8.8-20.244.242-.787-.5-4.961-1.2-8.487" transform="translate(-30.757 -29.182)" fill="#ff7c0a"/>
            <path id="Trazado_1056543" data-name="Trazado 1056543" d="M319.569,407.576a2.588,2.588,0,0,1-1.66-.6c-23.029-19.145-29.876-43.386-30.157-44.409a2.6,2.6,0,0,1,5.013-1.377,93.1,93.1,0,0,0,28.467,41.788,2.6,2.6,0,0,1-1.663,4.6" transform="translate(-38.466 -48.044)" fill="#fff"/>
            <path id="Trazado_1056544" data-name="Trazado 1056544" d="M143.529,205.386l2.762-13.265c-1.842-5.468-5.09-13.427-5.957-14.51s-3.681-5.414-3.573-7.58,1.68-5.306,3.14-3.3,5.685,8.067,7.039,9.962a34.766,34.766,0,0,1,3.248,5.739c.542,1.3,4.169,11.586,4.169,11.586l7.255,5.956-4.061,24.851-9.366-3.086Z" transform="translate(-18.287 -22.209)" fill="#e98f80"/>
            <path id="Trazado_1056545" data-name="Trazado 1056545" d="M161.157,196.591s-2.274-12.236-2.762-13.752-5.45-6.714-5.7-7.255-5.451-4.765-6.1-5.468-3.14,1.028-2.653,4.06,4.981,6.552,5.9,7.8,3.79,9.746,3.79,9.746a12.824,12.824,0,0,0,7.526,4.873" transform="translate(-19.239 -22.727)" fill="#e98f80"/>
            <path id="Trazado_1056546" data-name="Trazado 1056546" d="M157.942,176.5c-1.733-2.491-2.545-3.9-3.087-4.44s-2.869.921-2.761,3.573a18.684,18.684,0,0,0,2.6,8.176,11.546,11.546,0,0,1,1.787,4.818c.217,1.246,1.461,7.634,1.461,7.634l7.25,4.765s-1.457-11.838-1.674-13.31a15.4,15.4,0,0,0-1.624-4.609c-.433-.545-3.952-6.609-3.952-6.609" transform="translate(-20.338 -22.993)" fill="#e98f80"/>
            <path id="Trazado_1056547" data-name="Trazado 1056547" d="M154.432,225.958c.65-6.714-1.589-17.4-10.757-21.729-.866-4.981-.848-7.6-3.61-10.631-2.011-2.207-5.251-2.977-6.281-2.6s-.6,1.733-.379,2.491a106.306,106.306,0,0,1,2.328,14.943c.325,4.332.758,14.24,3.087,17.976s15,17.921,15,17.921Z" transform="translate(-17.802 -25.528)" fill="#e98f80"/>
            <path id="Trazado_1056548" data-name="Trazado 1056548" d="M158.468,192.136a37.566,37.566,0,0,1-6.786-4.8c-1.319-1.282-1.824-.824-2.166.506-.325,1.263-.4,3.608,2.31,6.171,2.349,2.225,3.465,3,3.682,3.43s1.083,6.136,1.083,6.136-1.78,9.024-2.3,9.674a53.585,53.585,0,0,0-4.825,11.334c-1.4,4.836-2.7,9.818,2.141,14.51s41.315,52.262,48.605,57.1l15.738-26.855s-42.159-34.951-49.183-42.082c-1.477-1.5-2.886-3.177-2.743-5.126s.666-17.6.666-18.625a6.829,6.829,0,0,0-.812-3.195c-.541-.974-3.573-6.19-3.934-6.732a5.434,5.434,0,0,0-1.48-1.443" transform="translate(-19.816 -24.949)" fill="#ffcfbb"/>
            <path id="Trazado_1056549" data-name="Trazado 1056549" d="M231.12,283.838s-11.208-6.714-12.344-7.093a3.561,3.561,0,0,0-2.545,0c-.886.246-11.262,9.638-18.462,24.094-.961,1.93-.379,2.382,0,2.924s11.911,11.586,11.911,11.586Z" transform="translate(-26.376 -36.975)" fill="#20364f"/>
            <path id="Trazado_1056550" data-name="Trazado 1056550" d="M350.665,226.65c-6-6.857-25.772-9.312-35.734-2.382s-29.345,33.677-29.345,33.677C274,264.766,252.45,277.869,252.45,277.869s-2.166-1.516-3.682-1.083a3.713,3.713,0,0,0-2.166,1.949s-.8-1.3-1.7-.972a18.988,18.988,0,0,0-2.844,1.73s-1.733-4.765-3.9-4.873a49.38,49.38,0,0,0-6.93.65,100.292,100.292,0,0,0-21.44,32.7c.325,6.064.65,7.8,2.166,8.338s6.93,0,6.93,0,10.828,8.771,16.784,10.828,7.58,2.166,10.937,1.191,30.1-11.476,44.18-17.325a161.589,161.589,0,0,1,23.173-8.014c4.656-1.408,17.217-4.007,21.44-7.255s16.459-11.586,19.708-35.517-.65-29.237-4.44-33.568" transform="translate(-28.053 -29.436)" fill="#fff"/>
            <path id="Trazado_1056551" data-name="Trazado 1056551" d="M357.267,263.5a16.385,16.385,0,1,1-16.385-16.385A16.385,16.385,0,0,1,357.267,263.5" transform="translate(-43.392 -33.045)" fill="#20364f"/>
            <path id="Trazado_1056552" data-name="Trazado 1056552" d="M349.835,270.571c1.787-.193,2.354-1.515,1.258-2.941l-2.886-3.754.971-4.635c.369-1.759-.715-2.705-2.407-2.1l-4.464,1.584-4.107-2.355c-1.558-.9-2.795-.156-2.747,1.64l.129,4.734-3.514,3.182c-1.329,1.2-1.007,2.606.714,3.114l1.409.416,3.134.926,1.939,4.323c.734,1.636,2.166,1.767,3.182.289l2.681-3.909Z" transform="translate(-44.295 -34.23)" fill="#cf4731"/>
            <path id="Trazado_1056553" data-name="Trazado 1056553" d="M342.7,264.476a1.018,1.018,0,1,1,.039-1.566,1.116,1.116,0,0,1-.039,1.566" transform="translate(-45.58 -35.128)" fill="#20364f"/>
            <path id="Trazado_1056554" data-name="Trazado 1056554" d="M346.858,268.106a1.018,1.018,0,1,1,.04-1.566,1.116,1.116,0,0,1-.04,1.566" transform="translate(-46.135 -35.613)" fill="#20364f"/>
            <path id="Trazado_1056555" data-name="Trazado 1056555" d="M340.568,269.43a2.693,2.693,0,0,1-.92-1.856.49.49,0,1,1,.977-.065,1.729,1.729,0,0,0,1.838,1.605.49.49,0,0,1,.066.978,2.7,2.7,0,0,1-1.961-.663" transform="translate(-45.418 -35.71)" fill="#20364f"/>
            <path id="Trazado_1056556" data-name="Trazado 1056556" d="M252.578,288.281s3.754,6.569,3.97,8.518,3.392,16.821,4.4,22.668,1.949-8.23,1.444-10.973-3.249-7.074-3.682-8.518-2.526-5.919-2.021-5.847a25.039,25.039,0,0,1,4.836,4.475c.433.794,5.631,12.562,6.5,14.8s1.8-.939,1.516-4.837-2.165-8.446-2.454-8.446.722,7.147,0,6.642-3.394-8.374-4.621-9.746a94.918,94.918,0,0,0-7.4-6.28,26.789,26.789,0,0,1-2.491-2.454" transform="translate(-33.775 -38.549)" fill="#dbe2eb"/>
            <path id="Trazado_1056557" data-name="Trazado 1056557" d="M297.286,261.421s21.007-14.835,20.791-15.268-14.139,6.449-14.139,6.449-3.078,3.73-6.651,8.82" transform="translate(-39.753 -32.913)" fill="#dbe2eb"/>
            <path id="Trazado_1056558" data-name="Trazado 1056558" d="M311.411,316.87h0a156.985,156.985,0,0,1,16.134-5.2c4.656-1.408,17.217-4.007,21.44-7.255a43.925,43.925,0,0,0,15.444-19.35c-4.964,11.119-36.478,24.344-53.019,31.8" transform="translate(-41.642 -38.12)" fill="#dbe2eb"/>
            <g id="Grupo_1210920" data-name="Grupo 1210920" transform="translate(113.138 177.242)" opacity="0.6">
              <g id="Grupo_1210919" data-name="Grupo 1210919">
                <g id="Grupo_1210918" data-name="Grupo 1210918" clip-path="url(#clip-path-12)">
                  <path id="Trazado_1056559" data-name="Trazado 1056559" d="M186.331,205.238c-3.835-2.461-13.573,2.408-24.336,11.493-.085,2.391-.171,4.654-.237,6.161,5.911-4.652,11.192-6.994,13.45-5.545,3.319,2.13-1.124,11.641-9.9,21.2s-18.622,15.6-21.941,13.471c-2.382-1.529-.75-6.865,3.6-13.287-1-1.153-2.012-2.342-2.99-3.5-11.069,13.724-16.274,25.984-11.733,28.9,5.272,3.383,21.694-7.074,36.6-23.307s22.755-32.2,17.485-35.578" transform="translate(-130.602 -204.602)" fill="#fff"/>
                </g>
              </g>
            </g>
            <path id="Trazado_1056560" data-name="Trazado 1056560" d="M392.72,362.57a18.438,18.438,0,0,0-22.176-14.629,18.468,18.468,0,0,0-36.782-1.292,8.861,8.861,0,0,0-14.682,6.69,9.024,9.024,0,0,0,.084,1.163c-.277-.012-.549-.042-.829-.042a18.464,18.464,0,0,0-15.3,8.11Z" transform="translate(-40.522 -44.178)" fill="#ff638d"/>
            <path id="Trazado_1056561" data-name="Trazado 1056561" d="M368.395,38.344a13.384,13.384,0,0,0-16.1-10.622,13.411,13.411,0,0,0-26.71-.939,6.433,6.433,0,0,0-10.66,4.859,6.614,6.614,0,0,0,.06.845c-.2-.009-.4-.031-.6-.031a13.408,13.408,0,0,0-11.111,5.889Z" transform="translate(-40.553 -2.001)" fill="#fff"/>
            <g id="Grupo_1210923" data-name="Grupo 1210923" transform="translate(1.617 24.653)" opacity="0.3">
              <g id="Grupo_1210922" data-name="Grupo 1210922">
                <g id="Grupo_1210921" data-name="Grupo 1210921" clip-path="url(#clip-path-13)">
                  <path id="Trazado_1056562" data-name="Trazado 1056562" d="M124.2,220.944c1.381,10.919-3.141,17.259-9.74,14.274l-98.911-44.73c-1.947-.88-3.917-6.065-4.457-11.6L2.005,85.771c-.511-5.242.425-10.2,2.138-11.115L89.033,29.261c5.521-2.95,11.232,2.472,12.474,12.322Z" transform="translate(-1.866 -28.459)" fill="#ff638d"/>
                </g>
              </g>
            </g>
            <path id="Trazado_1056563" data-name="Trazado 1056563" d="M124.2,220.944c1.381,10.919-3.141,17.259-9.74,14.274l-98.911-44.73c-1.947-.88-3.917-6.065-4.457-11.6L2.005,85.771c-.511-5.242.425-10.2,2.138-11.115L89.033,29.261c5.521-2.95,11.232,2.472,12.474,12.322Z" transform="translate(-0.25 -3.806)" fill="none" stroke="#ff638d" stroke-miterlimit="10" stroke-width="1"/>
            <g id="Grupo_1210926" data-name="Grupo 1210926" transform="translate(1.616 30.08)" opacity="0.2" style="mix-blend-mode: overlay;isolation: isolate">
              <g id="Grupo_1210925" data-name="Grupo 1210925">
                <g id="Grupo_1210924" data-name="Grupo 1210924" clip-path="url(#clip-path-14)">
                  <path id="Trazado_1056564" data-name="Trazado 1056564" d="M80.386,34.723l25.772,44.451L124.2,221.782c1.381,10.919-3.141,17.259-9.74,14.273l-8.482-3.834L32.73,60.207ZM48.157,206.07,3.722,75.825c-1.437,1.446-2.185,5.988-1.715,10.783L8.02,148.219l13.77,45.926Z" transform="translate(-1.866 -34.723)" fill="#fff"/>
                </g>
              </g>
            </g>
            <path id="Trazado_1056565" data-name="Trazado 1056565" d="M59.787,402.79l-4.649-4.65,4.649-4.651a2.95,2.95,0,0,0-4.172-4.171l-4.651,4.65-4.649-4.65a2.95,2.95,0,0,0-4.172,4.171l4.648,4.651-4.648,4.65a2.949,2.949,0,0,0,4.17,4.171l4.651-4.649,4.651,4.649a2.95,2.95,0,0,0,4.172-4.171" transform="translate(-5.52 -51.944)" fill="#ffa821"/>
            <path id="Trazado_1056566" data-name="Trazado 1056566" d="M413.706,285.415s0-.009,0-.013,0-.008,0-.012c22.729-.3,9.453-23.288-2.172-3.731a.219.219,0,0,0-.023-.014c11.128-19.85-15.438-19.85-4.311,0a.215.215,0,0,1-.019.011c-11.625-19.555-24.9,3.433-2.173,3.734v.025c-22.726.3-9.451,23.287,2.17,3.734a.09.09,0,0,1,.023.013c-11.124,19.849,15.439,19.849,4.311,0a.121.121,0,0,0,.023-.013c11.625,19.555,24.9-3.431,2.172-3.734" transform="translate(-52.5 -35.671)" fill="#fff"/>
            <path id="Trazado_1056567" data-name="Trazado 1056567" d="M258.711,395.728a2.913,2.913,0,0,0-4.031-.862l-8.7,5.637-8.7-5.637a2.913,2.913,0,0,0-3.171,0l-8.695,5.636-8.7-5.636a2.915,2.915,0,0,0-3.171,0l-8.695,5.636-8.691-5.636a2.912,2.912,0,0,0-3.171,0l-8.695,5.636-8.695-5.636a2.915,2.915,0,1,0-3.171,4.893l10.279,6.663a2.917,2.917,0,0,0,3.171,0l8.695-5.636,8.692,5.635a2.912,2.912,0,0,0,3.17,0l8.7-5.636,8.7,5.636a2.917,2.917,0,0,0,3.171,0l8.695-5.636,8.7,5.636a2.913,2.913,0,0,0,3.169,0l10.285-6.663a2.915,2.915,0,0,0,.863-4.031" transform="translate(-22.879 -52.739)" fill="#00a8ff"/>
            <path id="Trazado_1056568" data-name="Trazado 1056568" d="M415.712,153.863a2.913,2.913,0,0,0-4.031-.862l-8.7,5.637-8.7-5.637a2.913,2.913,0,0,0-3.171,0l-8.695,5.636-8.7-5.636a2.915,2.915,0,0,0-3.171,0l-8.695,5.636L353.155,153a2.912,2.912,0,0,0-3.171,0l-8.695,5.636L332.6,153a2.915,2.915,0,1,0-3.171,4.893l10.279,6.663a2.917,2.917,0,0,0,3.171,0l8.695-5.636,8.692,5.635a2.912,2.912,0,0,0,3.17,0l8.7-5.636,8.7,5.636a2.917,2.917,0,0,0,3.171,0l8.695-5.636,8.7,5.636a2.913,2.913,0,0,0,3.169,0l10.285-6.663a2.915,2.915,0,0,0,.863-4.031" transform="translate(-43.873 -20.397)" fill="#75c038"/>
            <path id="Trazado_1056569" data-name="Trazado 1056569" d="M31.11,197.82a1.518,1.518,0,1,1,1.518,1.518,1.518,1.518,0,0,1-1.518-1.518" transform="translate(-4.16 -26.25)" fill="#fff"/>
            <path id="Trazado_1056570" data-name="Trazado 1056570" d="M31.11,213.613a1.518,1.518,0,1,1,1.518,1.517,1.521,1.521,0,0,1-1.518-1.517" transform="translate(-4.16 -28.362)" fill="#fff"/>
            <path id="Trazado_1056571" data-name="Trazado 1056571" d="M31.11,229.4a1.518,1.518,0,1,1,1.518,1.518A1.521,1.521,0,0,1,31.11,229.4" transform="translate(-4.16 -30.473)" fill="#fff"/>
            <path id="Trazado_1056572" data-name="Trazado 1056572" d="M31.11,245.2a1.518,1.518,0,1,1,1.518,1.516A1.519,1.519,0,0,1,31.11,245.2" transform="translate(-4.16 -32.585)" fill="#fff"/>
            <path id="Trazado_1056573" data-name="Trazado 1056573" d="M15.555,197.82a1.517,1.517,0,1,1,1.517,1.518,1.517,1.517,0,0,1-1.517-1.518" transform="translate(-2.08 -26.25)" fill="#fff"/>
            <path id="Trazado_1056574" data-name="Trazado 1056574" d="M15.555,213.613a1.517,1.517,0,1,1,1.517,1.517,1.52,1.52,0,0,1-1.517-1.517" transform="translate(-2.08 -28.362)" fill="#fff"/>
            <path id="Trazado_1056575" data-name="Trazado 1056575" d="M15.555,229.4a1.517,1.517,0,1,1,1.517,1.518,1.52,1.52,0,0,1-1.517-1.518" transform="translate(-2.08 -30.473)" fill="#fff"/>
            <path id="Trazado_1056576" data-name="Trazado 1056576" d="M15.555,245.2a1.517,1.517,0,1,1,1.517,1.516,1.518,1.518,0,0,1-1.517-1.516" transform="translate(-2.08 -32.585)" fill="#fff"/>
            <path id="Trazado_1056577" data-name="Trazado 1056577" d="M0,197.82a1.517,1.517,0,1,1,1.516,1.518A1.518,1.518,0,0,1,0,197.82" transform="translate(0 -26.25)" fill="#fff"/>
            <path id="Trazado_1056578" data-name="Trazado 1056578" d="M0,213.613a1.517,1.517,0,1,1,1.516,1.517A1.521,1.521,0,0,1,0,213.613" transform="translate(0 -28.362)" fill="#fff"/>
            <path id="Trazado_1056579" data-name="Trazado 1056579" d="M0,229.4a1.517,1.517,0,1,1,1.516,1.518A1.52,1.52,0,0,1,0,229.4" transform="translate(0 -30.473)" fill="#fff"/>
            <path id="Trazado_1056580" data-name="Trazado 1056580" d="M0,245.2a1.517,1.517,0,1,1,1.516,1.516A1.518,1.518,0,0,1,0,245.2" transform="translate(0 -32.585)" fill="#fff"/>
            <path id="Trazado_1056581" data-name="Trazado 1056581" d="M245.929,42.785c1.564-.047,2.144-1.156,1.29-2.468l-2.249-3.453,1.156-3.958c.438-1.5-.437-2.4-1.947-1.988L240.2,31.989l-3.406-2.322c-1.292-.881-2.414-.324-2.494,1.238l-.209,4.118-3.265,2.523c-1.234.957-1.051,2.193.409,2.752l1.195.456,2.656,1.015,1.391,3.883c.526,1.471,1.759,1.681,2.743.466l2.59-3.21Z" transform="translate(-30.757 -3.911)" fill="#ff638d"/>
            <path id="Trazado_1056582" data-name="Trazado 1056582" d="M96.35,348.054l2.725,15.887,23.313,9.212,2.914-1.223L111.3,357.11Z" transform="translate(-12.884 -46.542)" fill="#ff638d"/>
            <path id="Trazado_1056583" data-name="Trazado 1056583" d="M113.567,330.836l15.887,2.727,9.212,23.312-1.222,2.913-14.82-14.005Z" transform="translate(-15.186 -44.24)" fill="#ff638d"/>
            <path id="Trazado_1056584" data-name="Trazado 1056584" d="M72.62,325.664a31.325,31.325,0,0,0,4.577,7.293c7.785,9.261,18.493,15.59,26.1,19.271l14.446-14.446c-3.681-7.606-10.011-18.312-19.272-26.1a31.225,31.225,0,0,0-7.293-4.577A38.239,38.239,0,0,1,72.62,325.664" transform="translate(-9.711 -41.067)" fill="#fff"/>
            <path id="Trazado_1056585" data-name="Trazado 1056585" d="M117.386,360.9l4.512-4.512,4.512-4.512a85.541,85.541,0,0,0-3.933-9.355l-14.446,14.446a85.413,85.413,0,0,0,9.354,3.934" transform="translate(-14.446 -45.802)" fill="#cf4731"/>
            <path id="Trazado_1056586" data-name="Trazado 1056586" d="M69.559,304.045a37.7,37.7,0,0,0,2.583,21.141A38.23,38.23,0,0,0,90.7,306.629a37.71,37.71,0,0,0-21.141-2.584" transform="translate(-9.233 -40.589)" fill="#00a8ff"/>
            <path id="Trazado_1056587" data-name="Trazado 1056587" d="M101.641,321.618a10.259,10.259,0,1,1-14.508,0,10.259,10.259,0,0,1,14.508,0" transform="translate(-11.25 -42.605)" fill="#ffa821"/>
            <path id="Trazado_1056588" data-name="Trazado 1056588" d="M100.6,323.24a8.375,8.375,0,1,1-11.845,0,8.376,8.376,0,0,1,11.845,0" transform="translate(-11.54 -42.896)" fill="#20364f"/>
            <path id="Trazado_1056589" data-name="Trazado 1056589" d="M96.915,323.5a2.592,2.592,0,1,1-3.665,0,2.593,2.593,0,0,1,3.665,0" transform="translate(-12.368 -43.158)" fill="#fff"/>
            <path id="Trazado_1056590" data-name="Trazado 1056590" d="M200.713,104.52l-4.227-3.437q-.025-2.726-.051-5.45a2.687,2.687,0,0,0-1.955-2.453l-5.3-1.263-.881-1.786h0l-1.53-3.1a2.685,2.685,0,0,0-2.825-1.361q-2.664.58-5.326,1.163l-4.3-3.359a2.69,2.69,0,0,0-3.138,0l-4.292,3.357-5.325-1.163a2.686,2.686,0,0,0-2.826,1.36q-1.206,2.444-2.411,4.889l-5.3,1.262a2.686,2.686,0,0,0-1.957,2.454q-.026,2.726-.052,5.45l-4.227,3.437a2.686,2.686,0,0,0-.7,3.061q1.156,2.466,2.316,4.931-1.158,2.466-2.316,4.932a2.684,2.684,0,0,0,.7,3.061l4.227,3.437q.027,2.725.052,5.45a2.684,2.684,0,0,0,1.957,2.453l5.3,1.263q1.2,2.445,2.411,4.889a2.686,2.686,0,0,0,2.826,1.36l5.325-1.163,4.292,3.357a2.69,2.69,0,0,0,3.138,0l4.3-3.359,5.326,1.163A2.685,2.685,0,0,0,186.766,138l1.53-3.1h0l.881-1.786,5.3-1.263a2.687,2.687,0,0,0,1.955-2.453q.026-2.726.051-5.45,2.114-1.718,4.227-3.437a2.685,2.685,0,0,0,.7-3.06l-2.316-4.933,2.316-4.932a2.686,2.686,0,0,0-.7-3.061" transform="translate(-19.239 -11.095)" fill="#ff7c0a"/>
            <path id="Trazado_1056591" data-name="Trazado 1056591" d="M196.257,113.6a22.523,22.523,0,1,1-22.523-22.523A22.524,22.524,0,0,1,196.257,113.6" transform="translate(-20.22 -12.178)" fill="#ffb10a"/>
          </g>
        </g>
      </g>
    </g>
  </g>
</svg>
