<svg xmlns="http://www.w3.org/2000/svg" xmlns:xlink="http://www.w3.org/1999/xlink" width="108" height="108" viewBox="0 0 108 108">
  <defs>
    <filter id="Trazado_904820" x="0" y="0" width="108" height="108" filterUnits="userSpaceOnUse">
      <feOffset dy="3" input="SourceAlpha"/>
      <feGaussianBlur stdDeviation="3" result="blur"/>
      <feFlood flood-opacity="0.161"/>
      <feComposite operator="in" in2="blur"/>
      <feComposite in="SourceGraphic"/>
    </filter>
  </defs>
  <g id="Grupo_1210875" data-name="Grupo 1210875" transform="translate(-200 -538)">
    <g id="Grupo_1202199" data-name="Grupo 1202199" transform="translate(209 544)">
      <g id="Grupo_1173585" data-name="Grupo 1173585" transform="translate(0 0)">
        <g id="Grupo_1173428" data-name="Grupo 1173428">
          <g id="Grupo_1171958" data-name="Grupo 1171958">
            <g id="Grupo_1167341" data-name="Grupo 1167341">
              <g id="Grupo_1166792" data-name="Grupo 1166792">
                <g transform="matrix(1, 0, 0, 1, -9, -6)" filter="url(#Trazado_904820)">
                  <g id="Trazado_904820-2" data-name="Trazado 904820" transform="translate(9 6)" fill="#fceefb">
                    <path d="M 44.99999618530273 88.50003814697266 C 39.12687301635742 88.50003814697266 33.43022155761719 87.35011291503906 28.06829643249512 85.08219909667969 C 22.88852119445801 82.89134979248047 18.23629570007324 79.75462341308594 14.24084663391113 75.75917053222656 C 10.24540901184082 71.76372528076172 7.108683586120605 67.11149597167969 4.917821407318115 61.93172454833984 C 2.649921178817749 56.56979751586914 1.499996185302734 50.87314605712891 1.499996185302734 45.00002288818359 C 1.499996185302734 39.12689971923828 2.649921178817749 33.43024826049805 4.917821407318115 28.06830978393555 C 7.108683586120605 22.88853454589844 10.24540901184082 18.2363224029541 14.24084663391113 14.24087333679199 C 18.23629570007324 10.24542331695557 22.88852119445801 7.108697891235352 28.06829643249512 4.917835235595703 C 33.43022155761719 2.649935483932495 39.12687301635742 1.500010371208191 44.99999618530273 1.500010371208191 C 50.87311935424805 1.500010371208191 56.56977081298828 2.649935483932495 61.93169784545898 4.917835235595703 C 67.11147308349609 7.108697891235352 71.76369476318359 10.24542331695557 75.75914764404297 14.24087333679199 C 79.75458526611328 18.2363224029541 82.89131164550781 22.88853454589844 85.08216857910156 28.06830978393555 C 87.35007476806641 33.43024826049805 88.5 39.12689971923828 88.5 45.00002288818359 C 88.5 50.87314605712891 87.35007476806641 56.56979751586914 85.08216857910156 61.93172454833984 C 82.89131164550781 67.11149597167969 79.75458526611328 71.76372528076172 75.75914764404297 75.75917053222656 C 71.76369476318359 79.75462341308594 67.11147308349609 82.89134979248047 61.93169784545898 85.08219909667969 C 56.56977081298828 87.35011291503906 50.87311935424805 88.50003814697266 44.99999618530273 88.50003814697266 Z" stroke="none"/>
                    <path d="M 44.99999618530273 3.000007629394531 C 39.32870864868164 3.000007629394531 33.82865142822266 4.110069274902344 28.65262603759766 6.299354553222656 C 23.65165710449219 8.414581298828125 19.15968322753906 11.44335174560547 15.301513671875 15.30152130126953 C 11.44333648681641 19.15969085693359 8.414566040039062 23.65166473388672 6.299339294433594 28.65263748168945 C 4.110054016113281 33.82867813110352 2.999992370605469 39.3287353515625 2.999992370605469 45.00002288818359 C 2.999992370605469 50.67131042480469 4.110054016113281 56.17136764526367 6.299339294433594 61.34739685058594 C 8.414566040039062 66.34838104248047 11.44333648681641 70.84033966064453 15.301513671875 74.69850921630859 C 19.15968322753906 78.55669403076172 23.65165710449219 81.58546447753906 28.65262603759766 83.70069122314453 C 33.82865142822266 85.88997650146484 39.32870864868164 87.00003814697266 44.99999618530273 87.00003814697266 C 50.67128372192383 87.00003814697266 56.17134094238281 85.88997650146484 61.34736633300781 83.70069122314453 C 66.34834289550781 81.58546447753906 70.84030914306641 78.55669403076172 74.69847869873047 74.69850921630859 C 78.55665588378906 70.84033966064453 81.58542633056641 66.34838104248047 83.70065307617188 61.34739685058594 C 85.88993835449219 56.17136764526367 87 50.67131042480469 87 45.00002288818359 C 87 39.3287353515625 85.88993835449219 33.82867813110352 83.70065307617188 28.65263748168945 C 81.58542633056641 23.65166473388672 78.55665588378906 19.15969085693359 74.69847869873047 15.30152130126953 C 70.84030914306641 11.44335174560547 66.34834289550781 8.414581298828125 61.34736633300781 6.299354553222656 C 56.17134094238281 4.110069274902344 50.67128372192383 3.000007629394531 44.99999618530273 3.000007629394531 M 44.99999618530273 7.62939453125e-06 C 69.85281372070312 7.62939453125e-06 90 20.14719390869141 90 45.00002288818359 C 90 69.85283660888672 69.85281372070312 90.00003814697266 44.99999618530273 90.00003814697266 C 20.14717864990234 90.00003814697266 -7.62939453125e-06 69.85283660888672 -7.62939453125e-06 45.00002288818359 C -7.62939453125e-06 20.14719390869141 20.14717864990234 7.62939453125e-06 44.99999618530273 7.62939453125e-06 Z" stroke="none" fill="#e761e1"/>
                  </g>
                </g>
              </g>
            </g>
          </g>
        </g>
      </g>
    </g>
    <g id="research_2974642" transform="translate(227.147 562.148)">
      <g id="Grupo_1210873" data-name="Grupo 1210873" transform="translate(1.834 1.834)">
        <g id="Grupo_1210857" data-name="Grupo 1210857" transform="translate(0 40.029)">
          <path id="Trazado_1056428" data-name="Trazado 1056428" d="M52.036,51.668v1.668a6.67,6.67,0,0,1-6.671,6.671H8.671A6.67,6.67,0,0,1,2,53.336V51.668A1.673,1.673,0,0,1,3.668,50h46.7A1.673,1.673,0,0,1,52.036,51.668Z" transform="translate(-2 -50)" fill="#969faa"/>
        </g>
        <g id="Grupo_1210858" data-name="Grupo 1210858" transform="translate(1.668 8.339)">
          <path id="Trazado_1056429" data-name="Trazado 1056429" d="M15.675,12v5H9.838A.836.836,0,0,0,9,17.838v9.173H4V13.668A1.673,1.673,0,0,1,5.668,12Z" transform="translate(-4 -12)" fill="#ccd1d9"/>
        </g>
        <g id="Grupo_1210859" data-name="Grupo 1210859" transform="translate(1.668 8.339)">
          <path id="Trazado_1056430" data-name="Trazado 1056430" d="M50.7,13.668V43.69H4V35.35H9v2.5a.836.836,0,0,0,.834.834H44.863a.836.836,0,0,0,.834-.834V17.838A.836.836,0,0,0,44.863,17H39.025V12H49.033A1.673,1.673,0,0,1,50.7,13.668Z" transform="translate(-4 -12)" fill="#ccd1d9"/>
        </g>
        <g id="Grupo_1210860" data-name="Grupo 1210860" transform="translate(34.708 13.343)">
          <path id="Trazado_1056431" data-name="Trazado 1056431" d="M52.276,18.834V38.848a.836.836,0,0,1-.834.834h-4.4a13.683,13.683,0,0,0,.234-2.5,13.269,13.269,0,0,0-3.161-8.623,6.109,6.109,0,0,0-.492-.55h1.151a.836.836,0,0,0,.834-.834V18h5.838A.836.836,0,0,1,52.276,18.834Z" transform="translate(-43.62 -18)" fill="#69d6f4"/>
        </g>
        <g id="Grupo_1210861" data-name="Grupo 1210861" transform="translate(6.671 31.69)">
          <path id="Trazado_1056432" data-name="Trazado 1056432" d="M15.237,43.336h-4.4A.836.836,0,0,1,10,42.5V40h5.029c-.017.275-.025.55-.025.834A13.683,13.683,0,0,0,15.237,43.336Z" transform="translate(-10 -40)" fill="#69d6f4"/>
        </g>
        <g id="Grupo_1210862" data-name="Grupo 1210862" transform="translate(6.671 13.343)">
          <path id="Trazado_1056433" data-name="Trazado 1056433" d="M17.505,28.007H10V18.834A.836.836,0,0,1,10.834,18h5.838v9.173A.836.836,0,0,0,17.505,28.007Z" transform="translate(-10 -18)" fill="#69d6f4"/>
        </g>
        <g id="Grupo_1210863" data-name="Grupo 1210863" transform="translate(25.018 23.901)">
          <path id="Trazado_1056434" data-name="Trazado 1056434" d="M45.343,39.283a13.683,13.683,0,0,1-.234,2.5H32v-2.5L42.182,30.66A13.269,13.269,0,0,1,45.343,39.283Z" transform="translate(-32 -30.66)" fill="#b4dd7f"/>
        </g>
        <g id="Grupo_1210864" data-name="Grupo 1210864" transform="translate(13.343)">
          <path id="Trazado_1056435" data-name="Trazado 1056435" d="M40.516,2H18.834A.836.836,0,0,0,18,2.834V24.516a.836.836,0,0,0,.834.834h1.151a13.325,13.325,0,0,1,5.037-3.336l2.985-.834a.406.406,0,0,1-.008.1v.008a12.305,12.305,0,0,1,1.676-.108,13.29,13.29,0,0,1,9.69,4.17h1.151a.836.836,0,0,0,.834-.834V2.834A.836.836,0,0,0,40.516,2Z" transform="translate(-18 -2)" fill="#ffeaa7"/>
        </g>
        <g id="Grupo_1210865" data-name="Grupo 1210865" transform="translate(15.328 19.181)">
          <path id="Trazado_1056436" data-name="Trazado 1056436" d="M40.253,29.72,30.07,38.343l-2.435-2.435,4.1-2.569-4.12-2.577L25.475,29.42a1.748,1.748,0,0,0-.884-.25H20.38a13.325,13.325,0,0,1,5.037-3.336,13.06,13.06,0,0,1,2.977-.726A12.305,12.305,0,0,1,30.07,25a13.29,13.29,0,0,1,9.69,4.17A6.109,6.109,0,0,1,40.253,29.72Z" transform="translate(-20.38 -25)" fill="#ef7385"/>
        </g>
        <g id="Grupo_1210866" data-name="Grupo 1210866" transform="translate(11.675 30.088)">
          <path id="Trazado_1056437" data-name="Trazado 1056437" d="M29.343,40.515v2.5H16.234a13.683,13.683,0,0,1-.234-2.5c0-.284.008-.559.025-.834h7.839a1.748,1.748,0,0,0,.884-.25l2.16-1.351Z" transform="translate(-16 -38.08)" fill="#fcd770"/>
        </g>
        <g id="Grupo_1210867" data-name="Grupo 1210867" transform="translate(16.679 13.343)">
          <path id="Trazado_1056438" data-name="Trazado 1056438" d="M28.671,18.834v5a.406.406,0,0,1-.008.1v.008a13.059,13.059,0,0,0-2.977.726H22.834A.836.836,0,0,1,22,23.838v-5A.836.836,0,0,1,22.834,18h5a.836.836,0,0,1,.834.834Z" transform="translate(-22 -18)" fill="#e6e9ed"/>
        </g>
        <g id="Grupo_1210868" data-name="Grupo 1210868" transform="translate(16.679 3.336)">
          <path id="Trazado_1056439" data-name="Trazado 1056439" d="M28.671,6.834v5a.836.836,0,0,1-.834.834h-5A.836.836,0,0,1,22,11.838v-5A.836.836,0,0,1,22.834,6h5A.836.836,0,0,1,28.671,6.834Z" transform="translate(-22 -6)" fill="#e6e9ed"/>
        </g>
        <g id="Grupo_1210869" data-name="Grupo 1210869" transform="translate(19.181 23.35)">
          <path id="Trazado_1056440" data-name="Trazado 1056440" d="M28.386,31.593,26.243,30.25a1.748,1.748,0,0,0-.884-.25H25v8.339h.359a1.748,1.748,0,0,0,.884-.25l2.16-1.351,4.1-2.569Z" transform="translate(-25 -30)" fill="#dfb28b"/>
        </g>
        <g id="Grupo_1210870" data-name="Grupo 1210870" transform="translate(8.339 23.35)">
          <path id="Trazado_1056441" data-name="Trazado 1056441" d="M22.841,30v8.339H12V30H22.841Z" transform="translate(-12 -30)" fill="#b4dd7f"/>
        </g>
        <g id="Grupo_1210871" data-name="Grupo 1210871" transform="translate(5.004 23.35)">
          <path id="Trazado_1056442" data-name="Trazado 1056442" d="M11.336,30v8.339H8V30h3.336Z" transform="translate(-8 -30)" fill="#ffeaa7"/>
        </g>
        <g id="Grupo_1210872" data-name="Grupo 1210872" transform="translate(0 23.35)">
          <path id="Trazado_1056443" data-name="Trazado 1056443" d="M7,30v8.339H3.668A1.673,1.673,0,0,1,2,36.671v-5A1.673,1.673,0,0,1,3.668,30Z" transform="translate(-2 -30)" fill="#dfb28b"/>
        </g>
      </g>
      <g id="Grupo_1210874" data-name="Grupo 1210874" transform="translate(1 1)">
        <path id="Trazado_1056444" data-name="Trazado 1056444" d="M22.668,13.222h5a1.67,1.67,0,0,0,1.668-1.668V6.9l1.424-1.424L29.584,4.293l-.922.922a1.656,1.656,0,0,0-.99-.333h-5A1.67,1.67,0,0,0,21,6.55v5A1.67,1.67,0,0,0,22.668,13.222Zm0-6.671h4.658L25.17,8.707,24.091,7.629,22.912,8.808l2.257,2.257,2.5-2.5v2.991h-5Z" transform="translate(-4.321 -1.547)"/>
        <path id="Trazado_1056445" data-name="Trazado 1056445" d="M35,5h6.671V6.668H35Z" transform="translate(-6.646 -1.664)"/>
        <path id="Trazado_1056446" data-name="Trazado 1056446" d="M35,9h6.671v1.668H35Z" transform="translate(-6.646 -2.329)"/>
        <path id="Trazado_1056447" data-name="Trazado 1056447" d="M35,17h6.671v1.668H35Z" transform="translate(-6.646 -3.657)"/>
        <path id="Trazado_1056448" data-name="Trazado 1056448" d="M35,21h6.671v1.668H35Z" transform="translate(-6.646 -4.321)"/>
        <path id="Trazado_1056449" data-name="Trazado 1056449" d="M51.036,41.182V11.841a2.5,2.5,0,0,0-2.5-2.5H39.361V2.668A1.67,1.67,0,0,0,37.693,1H16.011a1.67,1.67,0,0,0-1.668,1.668V9.339H5.17a2.5,2.5,0,0,0-2.5,2.5V24.5A2.5,2.5,0,0,0,1,26.852v5A2.5,2.5,0,0,0,2.668,34.2v6.979A2.5,2.5,0,0,0,1,43.531V45.2A7.514,7.514,0,0,0,8.505,52.7H45.2A7.514,7.514,0,0,0,52.7,45.2V43.531A2.5,2.5,0,0,0,51.036,41.182Zm-2.5-30.175a.835.835,0,0,1,.834.834V41.029H4.336V34.357H7.671v1.668a1.67,1.67,0,0,0,1.668,1.668H44.365a1.67,1.67,0,0,0,1.668-1.668V16.011a1.67,1.67,0,0,0-1.668-1.668h-5V11.007ZM19.347,21.014v-5H24l-2.157,2.157L20.77,17.089l-1.179,1.179,2.257,2.257,2.5-2.5v2.388a14.027,14.027,0,0,0-2.271.6Zm7.505.834a12.464,12.464,0,0,1,8.979,3.819L26.9,33.225l-1.153-1.153,4.348-2.718-7.4-4.623a2.506,2.506,0,0,0-1.327-.38H19.363A12.371,12.371,0,0,1,26.852,21.848Zm12.509,2.5V16.011h5V36.025H40.92a14.3,14.3,0,0,0,.109-1.668,14.081,14.081,0,0,0-2.808-8.433A1.665,1.665,0,0,0,39.361,24.35ZM9.339,34.357h3.336a14.3,14.3,0,0,0,.109,1.668H9.339Zm5.127,1.668a12.668,12.668,0,0,1-.123-1.668H21.37a2.5,2.5,0,0,0,1.326-.38l1.6-1L26.018,34.7v1.323Zm12.48-6.671-1.762,1.1v-2.2ZM23.516,31.5,21.848,32.54V26.168l1.668,1.042Zm4.17,3.247,9.218-7.8a12.431,12.431,0,0,1,2.457,7.414,12.668,12.668,0,0,1-.123,1.668H27.686ZM17.163,26.018h3.018V32.69H11.007V26.018h6.155Zm-2.82-1.668h-5V16.011h5Zm-5,1.668V32.69H7.671V26.018Zm6.671-23.35H37.693V24.35h-.81a14.131,14.131,0,0,0-10.031-4.17c-.281,0-.556.026-.834.042V16.356l1.424-1.424-1.179-1.179-.922.922a1.656,1.656,0,0,0-.99-.333h-5a1.67,1.67,0,0,0-1.668,1.668v5a1.665,1.665,0,0,0,1.23,1.6,14.387,14.387,0,0,0-2.078,1.734h-.82ZM5.17,11.007h9.173v3.336h-5a1.67,1.67,0,0,0-1.668,1.668V24.35H4.336V11.841A.835.835,0,0,1,5.17,11.007Zm-2.5,15.845a.835.835,0,0,1,.834-.834H6V32.69H3.5a.835.835,0,0,1-.834-.834ZM51.036,45.2A5.845,5.845,0,0,1,45.2,51.036H8.505A5.845,5.845,0,0,1,2.668,45.2V43.531A.835.835,0,0,1,3.5,42.7H50.2a.835.835,0,0,1,.834.834Z" transform="translate(-1 -1)"/>
        <path id="Trazado_1056450" data-name="Trazado 1056450" d="M51,55h1.668v1.668H51Z" transform="translate(-9.303 -9.967)"/>
        <path id="Trazado_1056451" data-name="Trazado 1056451" d="M47,55h1.668v1.668H47Z" transform="translate(-8.639 -9.967)"/>
        <path id="Trazado_1056452" data-name="Trazado 1056452" d="M55,55h1.668v1.668H55Z" transform="translate(-9.967 -9.967)"/>
      </g>
    </g>
  </g>
</svg>
