<svg xmlns="http://www.w3.org/2000/svg" xmlns:xlink="http://www.w3.org/1999/xlink" width="409" height="327" viewBox="0 0 409 327">
  <defs>
    <filter id="Trazado_1056453" x="0" y="0" width="409" height="327" filterUnits="userSpaceOnUse">
      <feOffset dy="1" input="SourceAlpha"/>
      <feGaussianBlur stdDeviation="4" result="blur"/>
      <feFlood flood-opacity="0.29"/>
      <feComposite operator="in" in2="blur"/>
      <feComposite in="SourceGraphic"/>
    </filter>
  </defs>
  <g id="Grupo_1210879" data-name="Grupo 1210879" transform="translate(-242 -1001)">
    <g transform="matrix(1, 0, 0, 1, 242, 1001)" filter="url(#Trazado_1056453)">
      <path id="Trazado_1056453-2" data-name="Trazado 1056453" d="M10,0H375a10,10,0,0,1,10,10V293a10,10,0,0,1-10,10H10A10,10,0,0,1,0,293V10A10,10,0,0,1,10,0Z" transform="translate(12 11)" fill="#f6f3ff"/>
    </g>
    <g id="Layer_1" transform="translate(91.868 717.579)">
      <path id="kahoot_logo" d="M273.025,481.032l.361-21.284c-11.544-1.7-11.75,13.76-11.75,13.76,1.134,10,11.389,7.524,11.389,7.524m-18.553-48.289s27.881-12.265,31.23,9.843l-.412,47.619H264.11s-9.276.361-12.162-9.895c0,0-7.163-26.128,21.078-31.179l.052-6.39s-5.308-5.669-14.791,0Zm254.79-21.129-11.132,70.809L480.4,406.152Zm-53.906-.155-.206,20,15.667,1.031v9.74l-15.254.825,1.288,29.53s.052,2.319,4.844,2.319a20.93,20.93,0,0,0,9.225-2.577v15.048c.206,4.587-6.339,6.545-6.339,6.545C443.659,497.008,445.2,483.3,445.2,483.3l-.67-38.188h-9.843l-2.319-16.027,12.162.412V406.925Zm36.435,76.324h9.431l3.607,10.359-8.452,5-8.606-5.927Zm-189.134-55.5c15.2-4.793,23.242-4.69,25.458,17.367l5.411,37.775H319.2l-.876-21.9-1.391-15.512c-.361-10.925-10.256-8.194-13.3-6.8l.773,44.114-13.708-.464-2.268-85.5,13.915-3.659Zm-44.733-8.864-20.047,22.005,13.3,47.876H236.8L226.18,456.6l-10.049,9.689.155,27L200,492.731v-77.1l16.285-4.174v32.828l27.571-26.335Zm151.462,51.432c7.215.825,13.451-5.772,13.038-14.069-.412-8.4-3.814-13.554-10.616-13.708s-10.977,7.627-10.152,16.7c.567,6.906,4.9,10.719,7.73,11.08m1.649-38.909c13.245.258,24.531,11.338,25.3,24.685.825,13.451-9.843,25.355-23.809,26.8s-25.3-9.637-25.3-24.685c-.051-15.048,23.809-26.8,23.809-26.8m-42.259,26.438c-.567,6.957-4.9,10.771-7.782,11.029-7.215.825-13.451-5.669-13.038-14.069s3.814-13.554,10.616-13.708c6.854-.1,10.977,7.679,10.2,16.749M359.347,434.6c-13.141.206-24.479,11.338-25.3,24.685-.773,13.451,9.895,25.355,23.809,26.8,13.966,1.443,25.3-9.689,25.3-24.685.052-15.048-10.668-27-23.809-26.8" fill="#46178f"/>
    </g>
  </g>
</svg>
