<svg xmlns="http://www.w3.org/2000/svg" xmlns:xlink="http://www.w3.org/1999/xlink" width="409" height="327" viewBox="0 0 409 327">
  <defs>
    <filter id="Trazado_1056465" x="0" y="0" width="409" height="327" filterUnits="userSpaceOnUse">
      <feOffset dy="1" input="SourceAlpha"/>
      <feGaussianBlur stdDeviation="4" result="blur"/>
      <feFlood flood-opacity="0.29"/>
      <feComposite operator="in" in2="blur"/>
      <feComposite in="SourceGraphic"/>
    </filter>
    <clipPath id="clip-path">
      <rect id="Rectángulo_420931" data-name="Rectángulo 420931" width="158.271" height="23.41" fill="none"/>
    </clipPath>
    <clipPath id="clip-path-2">
      <rect id="Rectángulo_420933" data-name="Rectángulo 420933" width="157.353" height="132.398" fill="none"/>
    </clipPath>
  </defs>
  <g id="Grupo_1210969" data-name="Grupo 1210969" transform="translate(-7899 -1583)">
    <g transform="matrix(1, 0, 0, 1, 7899, 1583)" filter="url(#Trazado_1056465)">
      <path id="Trazado_1056465-2" data-name="Trazado 1056465" d="M10,0H375a10,10,0,0,1,10,10V293a10,10,0,0,1-10,10H10A10,10,0,0,1,0,293V10A10,10,0,0,1,10,0Z" transform="translate(12 11)" fill="#f6f3ff"/>
    </g>
    <g id="Grupo_1210884" data-name="Grupo 1210884" transform="translate(8020 1809.501)">
      <path id="Trazado_1056466" data-name="Trazado 1056466" d="M18.035,0,12.529,21.7,7.023,0H0V23.081H3.627V2.011L8.968,23.081h7.023L21.365,2.011V23.081h3.627V0Z"/>
      <g id="Grupo_1210883" data-name="Grupo 1210883" transform="translate(0 0)">
        <g id="Grupo_1210882" data-name="Grupo 1210882" clip-path="url(#clip-path)">
          <path id="Trazado_1056467" data-name="Trazado 1056467" d="M77.656,23.619,64.467,25.531a5.189,5.189,0,0,0,9.5.2l3.2,1.088a8.587,8.587,0,0,1-7.979,5.11,8.441,8.441,0,1,1,0-16.881,8.254,8.254,0,0,1,8.473,8.572m-3.99-2.241a4.273,4.273,0,0,0-4.484-3.165A4.935,4.935,0,0,0,64.1,22.7Z" transform="translate(-34.33 -8.518)"/>
          <path id="Trazado_1056468" data-name="Trazado 1056468" d="M117.6,21.014V31.6h-3.5v-9.76c0-2.572-1.055-3.627-3.3-3.627a4.18,4.18,0,0,0-4.418,4.517V31.6h-3.5V15.376h3.5v2.341a5.8,5.8,0,0,1,5.21-2.671c3.462,0,6,2.077,6,5.968" transform="translate(-58.247 -8.518)"/>
          <path id="Trazado_1056469" data-name="Trazado 1056469" d="M144.9,7.116h5.045V9.952H144.9v8.54a1.926,1.926,0,0,0,2.176,2.044,5.329,5.329,0,0,0,2.44-.594v3.1a8.3,8.3,0,0,1-2.934.593c-3.5,0-5.177-1.648-5.177-5.143V9.952h-2.34V7.116h2.341V3.127L144.9.456Z" transform="translate(-78.725 -0.258)"/>
          <path id="Trazado_1056470" data-name="Trazado 1056470" d="M166.726,3.511a2.138,2.138,0,1,1,0,.011V3.511m.462,4.121h3.5V23.855h-3.5Z" transform="translate(-94.383 -0.775)"/>
          <path id="Trazado_1056471" data-name="Trazado 1056471" d="M203.463,20.816V31.6h-3.5V21.245c0-2.143-.989-3.034-2.77-3.034A3.706,3.706,0,0,0,193.6,22.2v9.4H190.11V21.245c0-2.143-.99-3.034-2.77-3.034a3.717,3.717,0,0,0-3.594,4.023V31.6h-3.5V15.376h3.5v2.209a4.988,4.988,0,0,1,4.516-2.539,4.7,4.7,0,0,1,4.649,2.934,5.914,5.914,0,0,1,5.209-2.934c3,0,5.342,2.012,5.342,5.77" transform="translate(-102.039 -8.518)"/>
          <path id="Trazado_1056472" data-name="Trazado 1056472" d="M253.8,23.619l-13.189,1.912a5.189,5.189,0,0,0,9.5.2l3.2,1.088a8.585,8.585,0,0,1-7.979,5.11,8.441,8.441,0,1,1,0-16.882,8.255,8.255,0,0,1,8.474,8.573m-3.99-2.241a4.273,4.273,0,0,0-4.484-3.165,4.935,4.935,0,0,0-5.078,4.484Z" transform="translate(-134.046 -8.518)"/>
          <path id="Trazado_1056473" data-name="Trazado 1056473" d="M281.914,7.116h5.045V9.952h-5.045v8.54a1.926,1.926,0,0,0,2.176,2.044,5.329,5.329,0,0,0,2.44-.594v3.1a8.309,8.309,0,0,1-2.935.593c-3.495,0-5.176-1.648-5.176-5.143V9.952h-2.341V7.116h2.341V3.127l3.5-2.671Z" transform="translate(-156.286 -0.258)"/>
          <path id="Trazado_1056474" data-name="Trazado 1056474" d="M318.851,23.619l-13.189,1.912a5.189,5.189,0,0,0,9.5.2l3.2,1.088a8.584,8.584,0,0,1-7.978,5.11,8.441,8.441,0,1,1,0-16.882,8.252,8.252,0,0,1,8.473,8.573m-3.99-2.241a4.273,4.273,0,0,0-4.484-3.165A4.934,4.934,0,0,0,305.3,22.7Z" transform="translate(-170.87 -8.518)"/>
          <path id="Trazado_1056475" data-name="Trazado 1056475" d="M353.058,15.112v3.2a7.923,7.923,0,0,0-1.22-.1c-2.572,0-4.254,1.715-4.254,4.682V31.6H344.09V15.376h3.429v2.44a4.817,4.817,0,0,1,4.551-2.77,6.19,6.19,0,0,1,.988.066" transform="translate(-194.788 -8.518)"/>
        </g>
      </g>
    </g>
    <g id="Grupo_1210887" data-name="Grupo 1210887" transform="translate(8021 1658.09)">
      <path id="Trazado_1056476" data-name="Trazado 1056476" d="M5.328,0V129.781h91.1L31.547,0Z" transform="translate(7.798)" fill="#ffb9d0"/>
      <path id="Trazado_1056477" data-name="Trazado 1056477" d="M79.056,0V26.219H52.836V52.441H26.615v77.34h78.661V0Z" transform="translate(38.951)" fill="#196cff"/>
      <g id="Grupo_1210886" data-name="Grupo 1210886" transform="translate(0 0.001)">
        <g id="Grupo_1210885" data-name="Grupo 1210885" transform="translate(0 0)" clip-path="url(#clip-path-2)">
          <path id="Trazado_1056478" data-name="Trazado 1056478" d="M5.328,21.287V98.625H83.976A78.661,78.661,0,0,0,5.328,21.287" transform="translate(7.798 31.154)" fill="#ff80ab"/>
          <path id="Trazado_1056479" data-name="Trazado 1056479" d="M5.328,37.251v37.99H44.634A39.33,39.33,0,0,0,5.328,37.251" transform="translate(7.798 54.518)" fill="#ff403d"/>
          <rect id="Rectángulo_420932" data-name="Rectángulo 420932" width="157.353" height="2.626" transform="translate(0 129.771)"/>
        </g>
      </g>
    </g>
  </g>
</svg>
