<svg xmlns="http://www.w3.org/2000/svg" width="198.739" height="67.759" viewBox="0 0 198.739 67.759">
  <g id="Layer_1" transform="translate(-200 -397.7)">
    <path id="kahoot_logo" d="M246.928,451.251l.232-13.678c-7.418-1.093-7.551,8.842-7.551,8.842.729,6.425,7.319,4.835,7.319,4.835M235.005,420.22s17.917-7.882,20.069,6.325l-.265,30.6H241.2a8.11,8.11,0,0,1-7.816-6.359s-4.6-16.791,13.545-20.036l.033-4.107s-3.411-3.643-9.5,0Zm163.734-13.578-7.153,45.5-11.392-49.014Zm-34.641-.1-.132,12.85,10.068.662v6.259l-9.8.53.828,18.976s.033,1.49,3.113,1.49a13.45,13.45,0,0,0,5.928-1.656v9.67c.132,2.947-4.073,4.206-4.073,4.206-13.446,1.987-12.452-6.822-12.452-6.822l-.431-24.54h-6.325l-1.49-10.3,7.816.265V403.628Zm23.414,49.047h6.061l2.318,6.657-5.431,3.212-5.531-3.809ZM265.97,419.922c9.77-3.08,14.936-3.014,16.36,11.161l3.477,24.275H276.6l-.563-14.075-.894-9.968c-.232-7.021-6.59-5.266-8.544-4.372l.5,28.349-8.809-.3-1.457-54.942,8.942-2.351Zm-28.746-5.7-12.883,14.141,8.544,30.766h-9.24l-6.822-23.58-6.458,6.226.1,17.354L200,458.769V409.225l10.465-2.683v21.1l17.718-16.923Zm97.333,33.051c4.637.53,8.644-3.709,8.379-9.041-.265-5.4-2.451-8.71-6.822-8.809s-7.054,4.9-6.524,10.73c.364,4.438,3.146,6.888,4.968,7.12m1.06-25a16.985,16.985,0,0,1,16.261,15.863c.53,8.644-6.325,16.294-15.3,17.221s-16.261-6.193-16.261-15.863c-.033-9.67,15.3-17.221,15.3-17.221M308.46,439.263c-.364,4.471-3.146,6.922-5,7.087-4.636.53-8.644-3.643-8.379-9.041s2.451-8.71,6.822-8.809c4.4-.066,7.054,4.935,6.557,10.763m-6.061-17.85c-8.445.132-15.731,7.286-16.261,15.863-.5,8.644,6.359,16.294,15.3,17.221,8.975.927,16.261-6.226,16.261-15.863.033-9.67-6.855-17.354-15.3-17.221" fill="#46178f"/>
  </g>
</svg>
