<svg xmlns="http://www.w3.org/2000/svg" xmlns:xlink="http://www.w3.org/1999/xlink" width="243.333" height="42.082" viewBox="0 0 243.333 42.082">
  <defs>
    <clipPath id="clip-path">
      <rect id="Rectángulo_420931" data-name="Rectángulo 420931" width="180.378" height="26.679" fill="none"/>
    </clipPath>
    <clipPath id="clip-path-2">
      <rect id="Rectángulo_420933" data-name="Rectángulo 420933" width="50.014" height="42.082" fill="none"/>
    </clipPath>
  </defs>
  <g id="Grupo_1210889" data-name="Grupo 1210889" transform="translate(-1123.048 -2133.372)">
    <g id="Grupo_1210884" data-name="Grupo 1210884" transform="translate(1186.003 2141.074)">
      <path id="Trazado_1056466" data-name="Trazado 1056466" d="M20.555,0,14.279,24.726,8,0H0V26.3H4.134V2.292L10.221,26.3h8L24.349,2.292V26.3h4.134V0Z" transform="translate(0 0)"/>
      <g id="Grupo_1210883" data-name="Grupo 1210883" transform="translate(0 0)">
        <g id="Grupo_1210882" data-name="Grupo 1210882" clip-path="url(#clip-path)">
          <path id="Trazado_1056467" data-name="Trazado 1056467" d="M80.032,24.817,65,27a5.913,5.913,0,0,0,10.822.226l3.646,1.24a9.787,9.787,0,0,1-9.094,5.823,9.62,9.62,0,1,1,0-19.239,9.407,9.407,0,0,1,9.657,9.77m-4.547-2.554a4.87,4.87,0,0,0-5.11-3.607,5.625,5.625,0,0,0-5.788,5.11Z" transform="translate(-30.654 -7.606)"/>
          <path id="Trazado_1056468" data-name="Trazado 1056468" d="M119.653,21.848V33.91h-3.983V22.787c0-2.931-1.2-4.134-3.758-4.134a4.764,4.764,0,0,0-5.035,5.147V33.91h-3.983V15.422h3.983V18.09a6.615,6.615,0,0,1,5.938-3.044c3.945,0,6.839,2.367,6.839,6.8" transform="translate(-52.011 -7.606)"/>
          <path id="Trazado_1056469" data-name="Trazado 1056469" d="M145.716,8.047h5.749v3.232h-5.749v9.733a2.2,2.2,0,0,0,2.48,2.33,6.073,6.073,0,0,0,2.781-.676V26.2a9.465,9.465,0,0,1-3.344.676c-3.983,0-5.9-1.879-5.9-5.861V11.278h-2.667V8.047h2.668V3.5L145.716.456Z" transform="translate(-70.296 -0.231)"/>
          <path id="Trazado_1056470" data-name="Trazado 1056470" d="M166.726,3.81a2.436,2.436,0,1,1,0,.012V3.81m.526,4.7h3.983V27h-3.983Z" transform="translate(-84.278 -0.692)"/>
          <path id="Trazado_1056471" data-name="Trazado 1056471" d="M206.705,21.622V33.91h-3.983v-11.8c0-2.442-1.127-3.458-3.156-3.458a4.224,4.224,0,0,0-4.1,4.547V33.91h-3.983v-11.8c0-2.442-1.128-3.458-3.157-3.458a4.236,4.236,0,0,0-4.1,4.585V33.91h-3.983V15.422h3.983v2.518a5.684,5.684,0,0,1,5.147-2.893,5.352,5.352,0,0,1,5.3,3.344,6.741,6.741,0,0,1,5.937-3.344c3.421,0,6.088,2.293,6.088,6.576" transform="translate(-91.115 -7.606)"/>
          <path id="Trazado_1056472" data-name="Trazado 1056472" d="M256.18,24.816,241.149,27a5.913,5.913,0,0,0,10.822.226l3.645,1.24a9.784,9.784,0,0,1-9.093,5.824,9.62,9.62,0,1,1,0-19.24,9.408,9.408,0,0,1,9.657,9.77m-4.547-2.554a4.87,4.87,0,0,0-5.11-3.607,5.624,5.624,0,0,0-5.787,5.11Z" transform="translate(-119.694 -7.606)"/>
          <path id="Trazado_1056473" data-name="Trazado 1056473" d="M282.729,8.047h5.749v3.232h-5.749v9.733a2.195,2.195,0,0,0,2.48,2.33,6.074,6.074,0,0,0,2.781-.676V26.2a9.469,9.469,0,0,1-3.345.676c-3.983,0-5.9-1.879-5.9-5.861V11.278h-2.668V8.047h2.668V3.5L282.729.456Z" transform="translate(-139.554 -0.231)"/>
          <path id="Trazado_1056474" data-name="Trazado 1056474" d="M321.227,24.816,306.2,27a5.913,5.913,0,0,0,10.822.226l3.645,1.24a9.783,9.783,0,0,1-9.093,5.823,9.62,9.62,0,1,1,0-19.24,9.4,9.4,0,0,1,9.656,9.77m-4.547-2.554a4.87,4.87,0,0,0-5.11-3.607,5.624,5.624,0,0,0-5.787,5.11Z" transform="translate(-152.576 -7.606)"/>
          <path id="Trazado_1056475" data-name="Trazado 1056475" d="M354.311,15.122v3.643a9.029,9.029,0,0,0-1.391-.113c-2.932,0-4.848,1.954-4.848,5.336V33.91H344.09V15.422H348V18.2a5.49,5.49,0,0,1,5.186-3.157,7.054,7.054,0,0,1,1.126.076" transform="translate(-173.933 -7.606)"/>
        </g>
      </g>
    </g>
    <g id="Grupo_1210887" data-name="Grupo 1210887" transform="translate(1123.048 2133.372)">
      <path id="Trazado_1056476" data-name="Trazado 1056476" d="M5.328,0V41.25H34.282L13.662,0Z" transform="translate(-1.156 0)" fill="#ffb9d0"/>
      <path id="Trazado_1056477" data-name="Trazado 1056477" d="M43.283,0V8.333H34.949v8.334H26.615V41.25h25V0Z" transform="translate(-5.775 0)" fill="#196cff"/>
      <g id="Grupo_1210886" data-name="Grupo 1210886" transform="translate(0 0)">
        <g id="Grupo_1210885" data-name="Grupo 1210885" transform="translate(0 0)" clip-path="url(#clip-path-2)">
          <path id="Trazado_1056478" data-name="Trazado 1056478" d="M5.328,21.287V45.868h25a25,25,0,0,0-25-24.581" transform="translate(-1.156 -4.619)" fill="#ff80ab"/>
          <path id="Trazado_1056479" data-name="Trazado 1056479" d="M5.328,37.251V49.326H17.821A12.5,12.5,0,0,0,5.328,37.251" transform="translate(-1.156 -8.083)" fill="#ff403d"/>
          <rect id="Rectángulo_420932" data-name="Rectángulo 420932" width="50.014" height="0.835" transform="translate(0 41.247)"/>
        </g>
      </g>
    </g>
  </g>
</svg>
