<svg xmlns="http://www.w3.org/2000/svg" xmlns:xlink="http://www.w3.org/1999/xlink" width="113" height="113" viewBox="0 0 113 113">
  <defs>
    <filter id="Trazado_982547" x="0" y="0" width="113" height="113" filterUnits="userSpaceOnUse">
      <feOffset dy="3" input="SourceAlpha"/>
      <feGaussianBlur stdDeviation="3" result="blur"/>
      <feFlood flood-opacity="0.161"/>
      <feComposite operator="in" in2="blur"/>
      <feComposite in="SourceGraphic"/>
    </filter>
  </defs>
  <g id="Grupo_1211412" data-name="Grupo 1211412" transform="translate(-743.021 -2980.695)">
    <g id="Grupo_1211204" data-name="Grupo 1211204" transform="translate(752.021 2986.695)">
      <g id="Grupo_1210937" data-name="Grupo 1210937" transform="translate(0 0)">
        <g id="Grupo_1174742" data-name="Grupo 1174742">
          <g id="Grupo_1163948" data-name="Grupo 1163948">
            <g id="Grupo_1158168" data-name="Grupo 1158168" transform="translate(0)">
              <g id="Grupo_1152576" data-name="Grupo 1152576">
                <g id="Grupo_1148633" data-name="Grupo 1148633">
                  <g id="Grupo_1148525" data-name="Grupo 1148525">
                    <g transform="matrix(1, 0, 0, 1, -9, -6)" filter="url(#Trazado_982547)">
                      <g id="Trazado_982547-2" data-name="Trazado 982547" transform="translate(9 6)" fill="#fdf6e4">
                        <path d="M 47.5 93.5 C 41.28937149047852 93.5 35.26533508300781 92.28397369384766 29.59518623352051 89.88570404052734 C 24.11771965026855 87.56893157958984 19.19813346862793 84.25196075439453 14.97309303283691 80.02691650390625 C 10.74804019927979 75.80186462402344 7.431066513061523 70.88229370117188 5.114293098449707 65.40481567382812 C 2.716026782989502 59.73468017578125 1.5 53.71062850952148 1.5 47.5 C 1.5 41.28937149047852 2.716026782989502 35.26533508300781 5.114293098449707 29.59518623352051 C 7.431066513061523 24.11771965026855 10.74804019927979 19.19813346862793 14.97309303283691 14.97309303283691 C 19.19813346862793 10.74804019927979 24.11771965026855 7.431066513061523 29.59518623352051 5.114293098449707 C 35.26533508300781 2.716026782989502 41.28937149047852 1.5 47.5 1.5 C 53.71062850952148 1.5 59.73468017578125 2.716026782989502 65.40481567382812 5.114293098449707 C 70.88229370117188 7.431066513061523 75.80186462402344 10.74804019927979 80.02691650390625 14.97309303283691 C 84.25196075439453 19.19813346862793 87.56893157958984 24.11771965026855 89.88570404052734 29.59518623352051 C 92.28397369384766 35.26533508300781 93.5 41.28937149047852 93.5 47.5 C 93.5 53.71062850952148 92.28397369384766 59.73468017578125 89.88570404052734 65.40481567382812 C 87.56893157958984 70.88229370117188 84.25196075439453 75.80186462402344 80.02691650390625 80.02691650390625 C 75.80186462402344 84.25196075439453 70.88229370117188 87.56893157958984 65.40481567382812 89.88570404052734 C 59.73468017578125 92.28397369384766 53.71062850952148 93.5 47.5 93.5 Z" stroke="none"/>
                        <path d="M 47.5 3 C 41.49121475219727 3 35.66376876831055 4.176155090332031 30.17950439453125 6.495796203613281 C 24.88084411621094 8.736953735351562 20.12152099609375 11.94598388671875 16.03375244140625 16.03375244140625 C 11.94598388671875 20.12152099609375 8.736953735351562 24.88084411621094 6.495796203613281 30.17950439453125 C 4.176155090332031 35.66376876831055 3 41.49121475219727 3 47.5 C 3 53.50878524780273 4.176155090332031 59.33623123168945 6.495796203613281 64.82049560546875 C 8.736953735351562 70.11915588378906 11.94598388671875 74.87847900390625 16.03375244140625 78.96624755859375 C 20.12152099609375 83.05401611328125 24.88084411621094 86.26304626464844 30.17950439453125 88.50419616699219 C 35.66376876831055 90.82384490966797 41.49121475219727 92 47.5 92 C 53.50878524780273 92 59.33623123168945 90.82384490966797 64.82049560546875 88.50419616699219 C 70.11915588378906 86.26304626464844 74.87847900390625 83.05401611328125 78.96624755859375 78.96624755859375 C 83.05401611328125 74.87847900390625 86.26304626464844 70.11915588378906 88.50419616699219 64.82049560546875 C 90.82384490966797 59.33623123168945 92 53.50878524780273 92 47.5 C 92 41.49121475219727 90.82384490966797 35.66376876831055 88.50419616699219 30.17950439453125 C 86.26304626464844 24.88084411621094 83.05401611328125 20.12152099609375 78.96624755859375 16.03375244140625 C 74.87847900390625 11.94598388671875 70.11915588378906 8.736953735351562 64.82049560546875 6.495796203613281 C 59.33623123168945 4.176155090332031 53.50878524780273 3 47.5 3 M 47.5 0 C 73.7335205078125 0 95 21.2664794921875 95 47.5 C 95 73.7335205078125 73.7335205078125 95 47.5 95 C 21.2664794921875 95 0 73.7335205078125 0 47.5 C 0 21.2664794921875 21.2664794921875 0 47.5 0 Z" stroke="none" fill="#f5b104"/>
                      </g>
                    </g>
                  </g>
                </g>
              </g>
            </g>
          </g>
        </g>
      </g>
    </g>
    <g id="required_7784199" transform="translate(769 3003)">
      <circle id="Elipse_12567" data-name="Elipse 12567" cx="12" cy="12" r="12" transform="translate(3 5.02)" fill="#fad55c"/>
      <path id="Trazado_1057125" data-name="Trazado 1057125" d="M3,33H14v1a3,3,0,0,0,6,0V33H31V44h1a3,3,0,0,1,0,6H31V61H5a2,2,0,0,1-2-2V33H14v1a3,3,0,0,0,6,0V33H31V44h1a3,3,0,0,1,0,6H31V61" fill="#4a8cdd"/>
      <g id="Grupo_1211411" data-name="Grupo 1211411">
        <path id="Trazado_1057126" data-name="Trazado 1057126" fill="#356baa"/>
        <path id="Trazado_1057127" data-name="Trazado 1057127" d="M35,47v0Z" fill="#356baa"/>
        <path id="Trazado_1057128" data-name="Trazado 1057128" d="M9,57a2,2,0,0,1-2-2V33H3V59a2,2,0,0,0,2,2H31V57Z" fill="#356baa"/>
      </g>
      <path id="Trazado_1057129" data-name="Trazado 1057129" d="M61,31H50V30a3,3,0,1,0-6,0v1H33V20H32a3,3,0,0,1,0-6h1V3H59a2,2,0,0,1,2,2V31H50V30a3,3,0,1,0-6,0v1H33V20H32a3,3,0,0,1,0-6h1V3" fill="#4a8cdd"/>
      <path id="Trazado_1057130" data-name="Trazado 1057130" fill="#3eb5a7"/>
      <path id="Trazado_1057131" data-name="Trazado 1057131" d="M29,17v0Z" fill="#3eb5a7"/>
      <path id="Trazado_1057132" data-name="Trazado 1057132" d="M55,7a2,2,0,0,1,2,2V31h4V5a2,2,0,0,0-2-2H33V7Z" fill="#356baa"/>
      <path id="Trazado_1057133" data-name="Trazado 1057133" d="M45,21.01h4l-2,4Z" fill="#f7f7f7"/>
      <path id="Trazado_1057134" data-name="Trazado 1057134" d="M19,43.01H15l2-4Z" fill="#f7f7f7"/>
      <circle id="Elipse_12568" data-name="Elipse 12568" cx="4" cy="4" r="4" transform="translate(37 29.01)" fill="#f4f4f2"/>
      <path id="Trazado_1057135" data-name="Trazado 1057135" d="M47,39.01H35V51h2.17L38,61h6l.83-10H47Z" fill="#f4f4f2"/>
      <path id="Trazado_1057136" data-name="Trazado 1057136" d="M41,39.01V61h3l.83-10H47V39.01Z" fill="#dbdbdb"/>
      <path id="Trazado_1057137" data-name="Trazado 1057137" d="M45,33a4,4,0,0,0-4-4v8A4,4,0,0,0,45,33Z" fill="#dbdbdb"/>
      <circle id="Elipse_12569" data-name="Elipse 12569" cx="4" cy="4" r="4" transform="translate(49 29.01)" fill="#a9aaaa"/>
      <path id="Trazado_1057138" data-name="Trazado 1057138" d="M59,39.01H47V51h2.17L50,61h6l.83-10H59Z" fill="#a9aaaa"/>
      <path id="Trazado_1057139" data-name="Trazado 1057139" d="M53,39.01V61h3l.83-10H59V39.01Z" fill="#848484"/>
      <path id="Trazado_1057140" data-name="Trazado 1057140" d="M57,33a4,4,0,0,0-4-4v8A4,4,0,0,0,57,33Z" fill="#848484"/>
      <path id="Trazado_1057141" data-name="Trazado 1057141" d="M9,17A12,12,0,0,1,18,5.41,11.86,11.86,0,0,0,15,5a12,12,0,0,0,0,24,11.86,11.86,0,0,0,3-.39A12,12,0,0,1,9,17Z" fill="#edc045"/>
      <path id="Trazado_1057142" data-name="Trazado 1057142" d="M41,38H35a1,1,0,0,0-1,1v4.55A4,4,0,0,0,32,43V33a1.007,1.007,0,0,0-1-1H20a1,1,0,0,0-1,1v1a2,2,0,0,1-4,0V33a1,1,0,0,0-.29-.71A1.05,1.05,0,0,0,14,32H3a1,1,0,0,0-1,1V59a3,3,0,0,0,3,3H31a1,1,0,0,0,.71-.29A1.05,1.05,0,0,0,32,61V51a4,4,0,0,0,2-.55V51a1,1,0,0,0,1,1h1.25L37,61.08A1,1,0,0,0,38,62h6a1,1,0,0,0,1-.92L45.75,52h2.5L49,61.08A1,1,0,0,0,50,62h6a1,1,0,0,0,1-.92L57.75,52H59a1,1,0,0,0,1-1V39a1,1,0,0,0-1-1ZM32,49H31a1.007,1.007,0,0,0-1,1V60H5a1,1,0,0,1-1-1V34h9a4,4,0,0,0,8,0h9V44a1,1,0,0,0,1,1h1a2,2,0,0,1,0,4Zm12.83,1a1,1,0,0,0-1,.92L43.08,60H38.92l-.76-9.08a1,1,0,0,0-1-.92H36V40H46V50ZM58,40V50H56.83a1,1,0,0,0-1,.92L55.08,60H50.92l-.76-9.08a1,1,0,0,0-1-.92H48V40Z"/>
      <path id="Trazado_1057143" data-name="Trazado 1057143" d="M13,13h4v3H15a1,1,0,0,0-1,1v3h2V18h2a1,1,0,0,0,1-1V12a1,1,0,0,0-1-1H12a1,1,0,0,0-1,1v3h2Z"/>
      <path id="Trazado_1057144" data-name="Trazado 1057144" d="M14,22.01h2v2H14Z"/>
      <path id="Trazado_1057145" data-name="Trazado 1057145" d="M59,2H33a1,1,0,0,0-.71.29A1.05,1.05,0,0,0,32,3V13a4,4,0,0,0,0,8V31a1,1,0,0,0,1,1h3.1a5.47,5.47,0,0,0-.1,1,5,5,0,0,0,10,0,4.94,4.94,0,0,0-1-3,2,2,0,0,1,4,0,4.94,4.94,0,0,0-1,3,5,5,0,0,0,10,0,4.9,4.9,0,0,0-.11-1H61a1,1,0,0,0,1-1V5a3,3,0,0,0-3-3ZM41,36a3,3,0,1,1,3-3A3,3,0,0,1,41,36Zm6.38-14-.38.77L46.62,22ZM53,36a3,3,0,1,1,3-3,3,3,0,0,1-3,3Zm7-6H57a4.9,4.9,0,0,0-6.23-1.41,3.9,3.9,0,0,0-.9-1.42A4,4,0,0,0,47.08,26a1,1,0,0,0,.81-.54l2-4A1,1,0,0,0,49,20H48V17a1,1,0,0,0-1-1H38v2h8v2H45a1,1,0,0,0-.89,1.45l2,4a1,1,0,0,0,.81.54,4,4,0,0,0-3.65,2.58A4.9,4.9,0,0,0,37,30H34V20a1,1,0,0,0-1-1H32a2,2,0,0,1,0-4h1a1.007,1.007,0,0,0,1-1V4H59a1,1,0,0,1,1,1Z"/>
      <path id="Trazado_1057146" data-name="Trazado 1057146" d="M15,30A13,13,0,1,0,2,17,13,13,0,0,0,15,30ZM15,6A11,11,0,1,1,4,17,11,11,0,0,1,15,6Z"/>
      <path id="Trazado_1057147" data-name="Trazado 1057147" d="M34,16.02h2v2H34Z"/>
      <path id="Trazado_1057148" data-name="Trazado 1057148" d="M28,46.01h2v2H28Z"/>
      <path id="Trazado_1057149" data-name="Trazado 1057149" d="M18,44h1a1,1,0,0,0,.89-1.45l-2-4a1,1,0,0,0-1.78,0l-2,4A1,1,0,0,0,15,44h1v3a1,1,0,0,0,1,1h9V46H18Zm-1-2.77.38.77h-.76Z"/>
      <ellipse id="Elipse_12570" data-name="Elipse 12570" cx="2.41" cy="1.19" rx="2.41" ry="1.19" transform="translate(4.657 13.05) rotate(-54.196)" fill="#f7f7f7"/>
      <circle id="Elipse_12571" data-name="Elipse 12571" cx="0.95" cy="0.95" r="0.95" transform="translate(4.987 14.423) rotate(-4.245)" fill="#f7f7f7"/>
    </g>
  </g>
</svg>
