<svg xmlns="http://www.w3.org/2000/svg" xmlns:xlink="http://www.w3.org/1999/xlink" width="108" height="108" viewBox="0 0 108 108">
  <defs>
    <filter id="Trazado_904820" x="0" y="0" width="108" height="108" filterUnits="userSpaceOnUse">
      <feOffset dy="3" input="SourceAlpha"/>
      <feGaussianBlur stdDeviation="3" result="blur"/>
      <feFlood flood-opacity="0.161"/>
      <feComposite operator="in" in2="blur"/>
      <feComposite in="SourceGraphic"/>
    </filter>
  </defs>
  <g id="Grupo_1211320" data-name="Grupo 1211320" transform="translate(9 6)">
    <g id="Grupo_1173585" data-name="Grupo 1173585" transform="translate(0 0)">
      <g id="Grupo_1173428" data-name="Grupo 1173428">
        <g id="Grupo_1171958" data-name="Grupo 1171958">
          <g id="Grupo_1167341" data-name="Grupo 1167341">
            <g id="Grupo_1166792" data-name="Grupo 1166792">
              <g transform="matrix(1, 0, 0, 1, -9, -6)" filter="url(#Trazado_904820)">
                <g id="Trazado_904820-2" data-name="Trazado 904820" transform="translate(9 6)" fill="#ebfefd">
                  <path d="M 44.99999618530273 88.50003814697266 C 39.12687301635742 88.50003814697266 33.43022155761719 87.35011291503906 28.06829643249512 85.08219909667969 C 22.88852119445801 82.89134979248047 18.23629570007324 79.75462341308594 14.24084663391113 75.75917053222656 C 10.24540901184082 71.76372528076172 7.108683586120605 67.11149597167969 4.917821407318115 61.93172454833984 C 2.649921178817749 56.56979751586914 1.499996185302734 50.87314605712891 1.499996185302734 45.00002288818359 C 1.499996185302734 39.12689971923828 2.649921178817749 33.43024826049805 4.917821407318115 28.06832313537598 C 7.108683586120605 22.88854789733887 10.24540901184082 18.2363224029541 14.24084663391113 14.24087333679199 C 18.23629570007324 10.24543571472168 22.88852119445801 7.108710289001465 28.06829643249512 4.917848110198975 C 33.43022155761719 2.649947881698608 39.12687301635742 1.500022888183594 44.99999618530273 1.500022888183594 C 50.87311935424805 1.500022888183594 56.56977081298828 2.649947881698608 61.93169784545898 4.917848110198975 C 67.11147308349609 7.108710289001465 71.76369476318359 10.24543571472168 75.75914764404297 14.24087333679199 C 79.75458526611328 18.2363224029541 82.89131164550781 22.88854789733887 85.08216857910156 28.06832313537598 C 87.35007476806641 33.43024826049805 88.5 39.12689971923828 88.5 45.00002288818359 C 88.5 50.87314605712891 87.35007476806641 56.56979751586914 85.08216857910156 61.93172454833984 C 82.89131164550781 67.11149597167969 79.75458526611328 71.76372528076172 75.75914764404297 75.75917053222656 C 71.76369476318359 79.75462341308594 67.11147308349609 82.89134979248047 61.93169784545898 85.08219909667969 C 56.56977081298828 87.35011291503906 50.87311935424805 88.50003814697266 44.99999618530273 88.50003814697266 Z" stroke="none"/>
                  <path d="M 44.99999618530273 3.000007629394531 C 39.32870864868164 3.000007629394531 33.82865142822266 4.110069274902344 28.65262603759766 6.299354553222656 C 23.65165710449219 8.414581298828125 19.15968322753906 11.44335174560547 15.301513671875 15.30153656005859 C 11.44333648681641 19.15970611572266 8.414566040039062 23.65166473388672 6.299339294433594 28.65265274047852 C 4.110054016113281 33.82867813110352 2.999992370605469 39.3287353515625 2.999992370605469 45.00002288818359 C 2.999992370605469 50.67131042480469 4.110054016113281 56.17135238647461 6.299339294433594 61.34739685058594 C 8.414566040039062 66.34836578369141 11.44333648681641 70.84032440185547 15.301513671875 74.69850921630859 C 19.15968322753906 78.55667877197266 23.65165710449219 81.58544921875 28.65262603759766 83.70068359375 C 33.82865142822266 85.88996887207031 39.32870864868164 87.00002288818359 44.99999618530273 87.00002288818359 C 50.67128372192383 87.00002288818359 56.17134094238281 85.88996887207031 61.34736633300781 83.70068359375 C 66.34834289550781 81.58544921875 70.84030914306641 78.55667877197266 74.69847869873047 74.69850921630859 C 78.55665588378906 70.84032440185547 81.58542633056641 66.34836578369141 83.70065307617188 61.34739685058594 C 85.88993835449219 56.17135238647461 87 50.67131042480469 87 45.00002288818359 C 87 39.3287353515625 85.88993835449219 33.82867813110352 83.70065307617188 28.65265274047852 C 81.58542633056641 23.65166473388672 78.55665588378906 19.15970611572266 74.69847869873047 15.30153656005859 C 70.84030914306641 11.44335174560547 66.34834289550781 8.414581298828125 61.34736633300781 6.299354553222656 C 56.17134094238281 4.110069274902344 50.67128372192383 3.000007629394531 44.99999618530273 3.000007629394531 M 44.99999618530273 7.62939453125e-06 C 69.85281372070312 7.62939453125e-06 90 20.14720916748047 90 45.00002288818359 C 90 69.85282135009766 69.85281372070312 90.00002288818359 44.99999618530273 90.00002288818359 C 20.14717864990234 90.00002288818359 -7.62939453125e-06 69.85282135009766 -7.62939453125e-06 45.00002288818359 C -7.62939453125e-06 20.14720916748047 20.14717864990234 7.62939453125e-06 44.99999618530273 7.62939453125e-06 Z" stroke="none" fill="#268985"/>
                </g>
              </g>
            </g>
          </g>
        </g>
      </g>
    </g>
    <g id="research_2974642_1_" data-name="research_2974642 (1)" transform="translate(15.915 15.749)">
      <g id="Grupo_1211336" data-name="Grupo 1211336" transform="translate(1.906 1.906)">
        <g id="Grupo_1211320-2" data-name="Grupo 1211320" transform="translate(0 43.487)">
          <path id="Trazado_1057030" data-name="Trazado 1057030" d="M56.359,51.812v1.812a7.246,7.246,0,0,1-7.248,7.248H9.248A7.246,7.246,0,0,1,2,53.624V51.812A1.817,1.817,0,0,1,3.812,50H54.547A1.817,1.817,0,0,1,56.359,51.812Z" transform="translate(-2 -50)" fill="#969faa"/>
        </g>
        <g id="Grupo_1211321" data-name="Grupo 1211321" transform="translate(1.812 9.06)">
          <path id="Trazado_1057031" data-name="Trazado 1057031" d="M16.684,12v5.436H10.342a.909.909,0,0,0-.906.906v9.966H4v-14.5A1.817,1.817,0,0,1,5.812,12Z" transform="translate(-4 -12)" fill="#ccd1d9"/>
        </g>
        <g id="Grupo_1211322" data-name="Grupo 1211322" transform="translate(1.812 9.06)">
          <path id="Trazado_1057032" data-name="Trazado 1057032" d="M54.735,13.812V46.427H4v-9.06H9.436v2.718a.909.909,0,0,0,.906.906H48.393a.909.909,0,0,0,.906-.906V18.342a.909.909,0,0,0-.906-.906H42.051V12H52.923A1.817,1.817,0,0,1,54.735,13.812Z" transform="translate(-4 -12)" fill="#ccd1d9"/>
        </g>
        <g id="Grupo_1211323" data-name="Grupo 1211323" transform="translate(37.707 14.496)">
          <path id="Trazado_1057033" data-name="Trazado 1057033" d="M53.024,18.906V40.649a.909.909,0,0,1-.906.906H47.335a14.865,14.865,0,0,0,.254-2.718,14.415,14.415,0,0,0-3.434-9.368,6.637,6.637,0,0,0-.535-.6h1.25a.909.909,0,0,0,.906-.906V18h6.342A.909.909,0,0,1,53.024,18.906Z" transform="translate(-43.62 -18)" fill="#69d6f4"/>
        </g>
        <g id="Grupo_1211324" data-name="Grupo 1211324" transform="translate(7.248 34.427)">
          <path id="Trazado_1057034" data-name="Trazado 1057034" d="M15.69,43.624H10.906A.909.909,0,0,1,10,42.718V40h5.463c-.018.3-.027.6-.027.906A14.866,14.866,0,0,0,15.69,43.624Z" transform="translate(-10 -40)" fill="#69d6f4"/>
        </g>
        <g id="Grupo_1211325" data-name="Grupo 1211325" transform="translate(7.248 14.496)">
          <path id="Trazado_1057035" data-name="Trazado 1057035" d="M18.154,28.872H10V18.906A.909.909,0,0,1,10.906,18h6.342v9.966A.909.909,0,0,0,18.154,28.872Z" transform="translate(-10 -18)" fill="#69d6f4"/>
        </g>
        <g id="Grupo_1211326" data-name="Grupo 1211326" transform="translate(27.179 25.965)">
          <path id="Trazado_1057036" data-name="Trazado 1057036" d="M46.5,40.028a14.866,14.866,0,0,1-.254,2.718H32V40.028L43.062,30.66A14.415,14.415,0,0,1,46.5,40.028Z" transform="translate(-32 -30.66)" fill="#b4dd7f"/>
        </g>
        <g id="Grupo_1211327" data-name="Grupo 1211327" transform="translate(14.496)">
          <path id="Trazado_1057037" data-name="Trazado 1057037" d="M42.461,2H18.906A.909.909,0,0,0,18,2.906V26.461a.909.909,0,0,0,.906.906h1.25a14.476,14.476,0,0,1,5.472-3.624l3.243-.906a.441.441,0,0,1-.009.109v.009a13.368,13.368,0,0,1,1.821-.118,14.438,14.438,0,0,1,10.527,4.53h1.25a.909.909,0,0,0,.906-.906V2.906A.909.909,0,0,0,42.461,2Z" transform="translate(-18 -2)" fill="#ffeaa7"/>
        </g>
        <g id="Grupo_1211328" data-name="Grupo 1211328" transform="translate(16.652 20.837)">
          <path id="Trazado_1057038" data-name="Trazado 1057038" d="M41.969,30.128,30.907,39.5,28.262,36.85l4.457-2.79-4.476-2.8L25.916,29.8a1.9,1.9,0,0,0-.96-.272H20.38a14.476,14.476,0,0,1,5.472-3.624,14.188,14.188,0,0,1,3.234-.788A13.368,13.368,0,0,1,30.907,25a14.438,14.438,0,0,1,10.527,4.53A6.637,6.637,0,0,1,41.969,30.128Z" transform="translate(-20.38 -25)" fill="#ef7385"/>
        </g>
        <g id="Grupo_1211329" data-name="Grupo 1211329" transform="translate(12.684 32.688)">
          <path id="Trazado_1057039" data-name="Trazado 1057039" d="M30.5,40.725v2.718H16.254A14.865,14.865,0,0,1,16,40.725c0-.308.009-.607.027-.906h8.516a1.9,1.9,0,0,0,.96-.272L27.85,38.08Z" transform="translate(-16 -38.08)" fill="#fcd770"/>
        </g>
        <g id="Grupo_1211330" data-name="Grupo 1211330" transform="translate(18.12 14.496)">
          <path id="Trazado_1057040" data-name="Trazado 1057040" d="M29.248,18.906v5.436a.441.441,0,0,1-.009.109v.009A14.188,14.188,0,0,0,26,25.248h-3.1A.909.909,0,0,1,22,24.342V18.906A.909.909,0,0,1,22.906,18h5.436a.909.909,0,0,1,.906.906Z" transform="translate(-22 -18)" fill="#e6e9ed"/>
        </g>
        <g id="Grupo_1211331" data-name="Grupo 1211331" transform="translate(18.12 3.624)">
          <path id="Trazado_1057041" data-name="Trazado 1057041" d="M29.248,6.906v5.436a.909.909,0,0,1-.906.906H22.906A.909.909,0,0,1,22,12.342V6.906A.909.909,0,0,1,22.906,6h5.436A.909.909,0,0,1,29.248,6.906Z" transform="translate(-22 -6)" fill="#e6e9ed"/>
        </g>
        <g id="Grupo_1211332" data-name="Grupo 1211332" transform="translate(20.837 25.367)">
          <path id="Trazado_1057042" data-name="Trazado 1057042" d="M28.678,31.73,26.35,30.272A1.9,1.9,0,0,0,25.39,30H25v9.06h.39a1.9,1.9,0,0,0,.96-.272L28.7,37.32l4.457-2.79Z" transform="translate(-25 -30)" fill="#dfb28b"/>
        </g>
        <g id="Grupo_1211333" data-name="Grupo 1211333" transform="translate(9.06 25.367)">
          <path id="Trazado_1057043" data-name="Trazado 1057043" d="M23.778,30v9.06H12V30H23.778Z" transform="translate(-12 -30)" fill="#b4dd7f"/>
        </g>
        <g id="Grupo_1211334" data-name="Grupo 1211334" transform="translate(5.436 25.367)">
          <path id="Trazado_1057044" data-name="Trazado 1057044" d="M11.624,30v9.06H8V30h3.624Z" transform="translate(-8 -30)" fill="#ffeaa7"/>
        </g>
        <g id="Grupo_1211335" data-name="Grupo 1211335" transform="translate(0 25.367)">
          <path id="Trazado_1057045" data-name="Trazado 1057045" d="M7.436,30v9.06H3.812A1.817,1.817,0,0,1,2,37.248V31.812A1.817,1.817,0,0,1,3.812,30Z" transform="translate(-2 -30)" fill="#dfb28b"/>
        </g>
      </g>
      <g id="Grupo_1211337" data-name="Grupo 1211337" transform="translate(1 1)">
        <path id="Trazado_1057046" data-name="Trazado 1057046" d="M22.812,13.993h5.436a1.814,1.814,0,0,0,1.812-1.812V7.121l1.547-1.547L30.325,4.293l-1,1a1.8,1.8,0,0,0-1.075-.361H22.812A1.814,1.814,0,0,0,21,6.745v5.436A1.814,1.814,0,0,0,22.812,13.993Zm0-7.248h5.061L25.53,9.088,24.358,7.917,23.077,9.2,25.53,11.65l2.719-2.719v3.25H22.812Z" transform="translate(-2.88 -1.31)"/>
        <path id="Trazado_1057047" data-name="Trazado 1057047" d="M35,5h7.248V6.812H35Z" transform="translate(-4.197 -1.376)"/>
        <path id="Trazado_1057048" data-name="Trazado 1057048" d="M35,9h7.248v1.812H35Z" transform="translate(-4.197 -1.752)"/>
        <path id="Trazado_1057049" data-name="Trazado 1057049" d="M35,17h7.248v1.812H35Z" transform="translate(-4.197 -2.504)"/>
        <path id="Trazado_1057050" data-name="Trazado 1057050" d="M35,21h7.248v1.812H35Z" transform="translate(-4.197 -2.88)"/>
        <path id="Trazado_1057051" data-name="Trazado 1057051" d="M55.359,44.654V12.778a2.721,2.721,0,0,0-2.718-2.718H42.675V2.812A1.814,1.814,0,0,0,40.863,1H17.308A1.814,1.814,0,0,0,15.5,2.812V10.06H5.53a2.721,2.721,0,0,0-2.718,2.718V26.534A2.714,2.714,0,0,0,1,29.085v5.436a2.714,2.714,0,0,0,1.812,2.551v7.582A2.712,2.712,0,0,0,1,47.2v1.812a8.163,8.163,0,0,0,8.154,8.154H49.017a8.163,8.163,0,0,0,8.154-8.154V47.2A2.714,2.714,0,0,0,55.359,44.654ZM52.641,11.872a.907.907,0,0,1,.906.906V44.487H4.624V37.239H8.248v1.812a1.814,1.814,0,0,0,1.812,1.812H48.111a1.814,1.814,0,0,0,1.812-1.812V17.308A1.814,1.814,0,0,0,48.111,15.5H42.675V11.872ZM20.931,22.743V17.308h5.061L23.649,19.65l-1.171-1.171L21.2,19.76l2.452,2.452,2.718-2.718v2.595a15.238,15.238,0,0,0-2.467.654Zm8.154.906A13.541,13.541,0,0,1,38.84,27.8l-9.7,8.21-1.253-1.253L32.607,31.8,24.571,26.78a2.722,2.722,0,0,0-1.441-.413H20.95A13.44,13.44,0,0,1,29.085,23.649Zm13.59,2.718v-9.06h5.436V39.051H44.368a15.535,15.535,0,0,0,.119-1.812,15.3,15.3,0,0,0-3.05-9.161A1.809,1.809,0,0,0,42.675,26.367ZM10.06,37.239h3.624a15.535,15.535,0,0,0,.119,1.812H10.06Zm5.57,1.812a13.762,13.762,0,0,1-.134-1.812h7.634a2.713,2.713,0,0,0,1.441-.413l1.736-1.085,1.874,1.874v1.437ZM29.188,31.8,27.273,33V30.607Zm-3.726,2.329-1.812,1.132V28.342l1.812,1.132Zm4.53,3.527,10.015-8.475a13.5,13.5,0,0,1,2.669,8.054,13.763,13.763,0,0,1-.134,1.812H29.991Zm-11.433-9.48h3.279v7.248H11.872V28.179h6.687ZM15.5,26.367H10.06v-9.06H15.5ZM10.06,28.179v7.248H8.248V28.179ZM17.308,2.812H40.863V26.367h-.88a15.352,15.352,0,0,0-10.9-4.53c-.305,0-.6.028-.906.045v-4.2l1.547-1.547-1.281-1.281-1,1a1.8,1.8,0,0,0-1.075-.361H20.931a1.814,1.814,0,0,0-1.812,1.812v5.436a1.809,1.809,0,0,0,1.336,1.74A15.629,15.629,0,0,0,18.2,26.367h-.891ZM5.53,11.872H15.5V15.5H10.06a1.814,1.814,0,0,0-1.812,1.812v9.06H4.624V12.778A.907.907,0,0,1,5.53,11.872ZM2.812,29.085a.907.907,0,0,1,.906-.906H6.436v7.248H3.718a.907.907,0,0,1-.906-.906ZM55.359,49.017a6.349,6.349,0,0,1-6.342,6.342H9.154a6.349,6.349,0,0,1-6.342-6.342V47.2a.907.907,0,0,1,.906-.906H54.453a.907.907,0,0,1,.906.906Z" transform="translate(-1 -1)"/>
        <path id="Trazado_1057052" data-name="Trazado 1057052" d="M51,55h1.812v1.812H51Z" transform="translate(-5.701 -6.077)"/>
        <path id="Trazado_1057053" data-name="Trazado 1057053" d="M47,55h1.812v1.812H47Z" transform="translate(-5.325 -6.077)"/>
        <path id="Trazado_1057054" data-name="Trazado 1057054" d="M55,55h1.812v1.812H55Z" transform="translate(-6.077 -6.077)"/>
      </g>
    </g>
  </g>
</svg>
