<svg xmlns="http://www.w3.org/2000/svg" xmlns:xlink="http://www.w3.org/1999/xlink" width="1073.029" height="416.87" viewBox="0 0 1073.029 416.87">
  <defs>
    <clipPath id="clip-path">
      <rect id="Rectángulo_421036" data-name="Rectángulo 421036" width="109.525" height="106.913" fill="none"/>
    </clipPath>
    <clipPath id="clip-path-3">
      <rect id="Rectángulo_421019" data-name="Rectángulo 421019" width="42.652" height="91.853" fill="none"/>
    </clipPath>
    <clipPath id="clip-path-4">
      <path id="Trazado_1056774" data-name="Trazado 1056774" d="M41.13,97.2a11.348,11.348,0,0,1-15.492,4.156A50.764,50.764,0,0,1,0,56.948,50.745,50.745,0,0,1,25.638,12.542,11.344,11.344,0,0,1,36.982,32.19a28.588,28.588,0,0,0,0,49.515A11.337,11.337,0,0,1,41.13,97.2" transform="translate(0 -11.016)" fill="none"/>
    </clipPath>
    <radialGradient id="radial-gradient" cx="0.817" cy="0.921" r="0.351" gradientTransform="matrix(2.112, 0, 0, -1, 0, 2.182)" gradientUnits="objectBoundingBox">
      <stop offset="0" stop-color="#eaa814"/>
      <stop offset="0.029" stop-color="#eaa814"/>
      <stop offset="0.214" stop-color="#efbe51"/>
      <stop offset="0.421" stop-color="#f4d58e"/>
      <stop offset="0.61" stop-color="#f9e7be"/>
      <stop offset="0.776" stop-color="#fcf4e1"/>
      <stop offset="0.911" stop-color="#fefcf7"/>
      <stop offset="1" stop-color="#fff"/>
    </radialGradient>
    <clipPath id="clip-path-5">
      <rect id="Rectángulo_421021" data-name="Rectángulo 421021" width="82.587" height="62.702" fill="none"/>
    </clipPath>
    <clipPath id="clip-path-6">
      <rect id="Rectángulo_421023" data-name="Rectángulo 421023" width="76.914" height="62.707" fill="none"/>
    </clipPath>
    <clipPath id="clip-path-7">
      <path id="Trazado_1056794" data-name="Trazado 1056794" d="M36.091,67.918a29.8,29.8,0,1,0,29.795-29.8,29.8,29.8,0,0,0-29.795,29.8" transform="translate(-36.091 -38.122)" fill="none"/>
    </clipPath>
    <linearGradient id="linear-gradient" x1="-0.114" y1="1.151" x2="-0.107" y2="1.151" gradientUnits="objectBoundingBox">
      <stop offset="0" stop-color="#f2f2f2"/>
      <stop offset="0.309" stop-color="#f7f7f7"/>
      <stop offset="1" stop-color="#fff"/>
    </linearGradient>
    <clipPath id="clip-path-8">
      <path id="Trazado_1056795" data-name="Trazado 1056795" d="M36.979,62.863A23.853,23.853,0,1,0,60.832,39.01,23.853,23.853,0,0,0,36.979,62.863" transform="translate(-36.979 -39.01)" fill="none"/>
    </clipPath>
    <linearGradient id="linear-gradient-2" x1="-0.125" y1="1.163" x2="-0.118" y2="1.163" xlink:href="#linear-gradient"/>
  </defs>
  <g id="Grupo_1211147" data-name="Grupo 1211147" transform="translate(-263.485 -918.13)">
    <g id="Grupo_1211114" data-name="Grupo 1211114" transform="translate(-267.186 -488.258)">
      <g id="Grupo_1211108" data-name="Grupo 1211108" transform="translate(732.139 1396.349)">
        <g id="Grupo_1211064" data-name="Grupo 1211064" transform="translate(276.46 10.038)">
          <g id="Grupo_1211056" data-name="Grupo 1211056" transform="translate(0 0.059)">
            <rect id="Rectángulo_420991" data-name="Rectángulo 420991" width="270.966" height="167.457" fill="#00beb9"/>
            <rect id="Rectángulo_420992" data-name="Rectángulo 420992" width="248.262" height="147.027" transform="translate(11.337 10.215)" fill="#fff"/>
            <rect id="Rectángulo_420993" data-name="Rectángulo 420993" width="77.233" height="4.665" transform="translate(25.036 33.598)" fill="#00beb9"/>
            <rect id="Rectángulo_420994" data-name="Rectángulo 420994" width="77.233" height="4.665" transform="translate(25.036 46.972)" fill="#00beb9"/>
            <rect id="Rectángulo_420995" data-name="Rectángulo 420995" width="37.938" height="4.665" transform="translate(25.036 60.316)" fill="#00beb9"/>
            <g id="Grupo_1211049" data-name="Grupo 1211049" transform="translate(54.766 118.595)">
              <path id="Trazado_1056664" data-name="Trazado 1056664" d="M339.465,229.76v13.374l-6.909,6.79H319.33V229.76Z" transform="translate(-319.33 -229.76)" fill="#00beb9"/>
              <path id="Trazado_1056665" data-name="Trazado 1056665" d="M330.719,234.29l-6.909,6.79v-6.79Z" transform="translate(-310.583 -220.916)" fill="#00a49f"/>
            </g>
            <rect id="Rectángulo_420996" data-name="Rectángulo 420996" width="20.164" height="20.164" transform="translate(25.803 118.595)" fill="#f065a6"/>
            <g id="Grupo_1211050" data-name="Grupo 1211050" transform="translate(25.036 78.946)">
              <path id="Trazado_1056667" data-name="Trazado 1056667" d="M336.835,230.117a13.787,13.787,0,1,1-13.787-13.787A13.784,13.784,0,0,1,336.835,230.117Z" transform="translate(-309.26 -216.33)" fill="#5202b5"/>
              <path id="Trazado_1056668" data-name="Trazado 1056668" d="M320.334,217.71a9.684,9.684,0,1,0,9.684,9.684A9.689,9.689,0,0,0,320.334,217.71Zm-1.742,1.417a7.35,7.35,0,0,0-2.155,3.543,8.073,8.073,0,0,1-2.185-1.151A8.53,8.53,0,0,1,318.592,219.127Zm-4.93,3.07a9.459,9.459,0,0,0,2.539,1.358,16.959,16.959,0,0,0-.413,3.4h-3.9a8.272,8.272,0,0,1,1.771-4.724Zm-1.771,5.668h3.9a16.053,16.053,0,0,0,.443,3.484,9.863,9.863,0,0,0-2.539,1.329,8.512,8.512,0,0,1-1.83-4.783Zm2.421,5.491a9.282,9.282,0,0,1,2.155-1.122,7.3,7.3,0,0,0,2.126,3.454A8.6,8.6,0,0,1,314.311,233.357Zm5.55,1.978c-1-.3-1.89-1.565-2.48-3.366a10.92,10.92,0,0,1,2.48-.354Zm0-4.665a13.381,13.381,0,0,0-2.716.384,15.42,15.42,0,0,1-.413-3.189h3.129v2.8Zm0-3.72h-3.129a14.594,14.594,0,0,1,.384-3.1,13.36,13.36,0,0,0,2.746.413Zm0-3.661a11.433,11.433,0,0,1-2.51-.354c.561-1.83,1.476-3.13,2.51-3.454Zm8.916,3.661h-3.9a17.226,17.226,0,0,0-.413-3.4,9.032,9.032,0,0,0,2.539-1.358,8.35,8.35,0,0,1,1.771,4.724Zm-2.362-5.432a8.074,8.074,0,0,1-2.185,1.151,7.135,7.135,0,0,0-2.155-3.543A8.531,8.531,0,0,1,326.416,221.519Zm-5.609-2.037c1.033.3,1.948,1.624,2.509,3.454a11.429,11.429,0,0,1-2.509.354Zm0,4.753a11.614,11.614,0,0,0,2.746-.413,16.792,16.792,0,0,1,.384,3.1h-3.129Zm0,3.631h3.129a15.152,15.152,0,0,1-.413,3.189,11.6,11.6,0,0,0-2.716-.384v-2.8Zm0,7.469v-3.72a11.167,11.167,0,0,1,2.48.354C322.7,233.741,321.81,235.011,320.806,235.335Zm1.269.354a7.152,7.152,0,0,0,2.126-3.454,8.23,8.23,0,0,1,2.155,1.122A8.6,8.6,0,0,1,322.076,235.69Zm4.9-3.011a9.809,9.809,0,0,0-2.539-1.329,15.811,15.811,0,0,0,.443-3.484h3.9a8.3,8.3,0,0,1-1.83,4.783Z" transform="translate(-306.546 -213.636)" fill="#fff"/>
            </g>
            <g id="Grupo_1211051" data-name="Grupo 1211051" transform="translate(58.634 79.152)">
              <circle id="Elipse_12557" data-name="Elipse 12557" cx="13.581" cy="13.581" r="13.581" fill="#e34932"/>
              <path id="Trazado_1056669" data-name="Trazado 1056669" d="M339.1,225h-1.683a8.914,8.914,0,0,0-.531-1.329l1.181-1.181a.838.838,0,0,0,0-1.181l-1.417-1.417a.837.837,0,0,0-1.181,0l-1.181,1.181a5.215,5.215,0,0,0-1.329-.531v-1.683A.857.857,0,0,0,332.1,218h-2.008a.857.857,0,0,0-.856.856v1.683a8.908,8.908,0,0,0-1.328.531l-1.181-1.181a.837.837,0,0,0-1.181,0l-1.417,1.417a.837.837,0,0,0,0,1.181l1.181,1.181a5.212,5.212,0,0,0-.531,1.329H323.1a.857.857,0,0,0-.856.856v2.008a.857.857,0,0,0,.856.856h1.683a8.907,8.907,0,0,0,.531,1.329l-1.181,1.181a.837.837,0,0,0,0,1.181l1.417,1.417a.837.837,0,0,0,1.181,0l1.181-1.181a5.211,5.211,0,0,0,1.328.531v1.683a.857.857,0,0,0,.856.856H332.1a.857.857,0,0,0,.856-.856v-1.683a8.911,8.911,0,0,0,1.329-.531l1.181,1.181a.837.837,0,0,0,1.181,0l1.417-1.417a.837.837,0,0,0,0-1.181l-1.181-1.181a5.212,5.212,0,0,0,.531-1.329H339.1a.857.857,0,0,0,.856-.856v-2.008A.857.857,0,0,0,339.1,225Zm-8,5.373a3.513,3.513,0,1,1,3.513-3.513A3.528,3.528,0,0,1,331.1,230.37Z" transform="translate(-317.516 -213.276)" fill="#fff"/>
            </g>
            <g id="Grupo_1211055" data-name="Grupo 1211055" transform="translate(95.744 81.219)">
              <g id="Grupo_1211052" data-name="Grupo 1211052">
                <rect id="Rectángulo_420997" data-name="Rectángulo 420997" width="5.668" height="5.668" fill="#353537"/>
                <rect id="Rectángulo_420998" data-name="Rectángulo 420998" width="5.668" height="5.668" transform="translate(9.182)" fill="#353537"/>
              </g>
              <g id="Grupo_1211053" data-name="Grupo 1211053" transform="translate(0 8.68)">
                <rect id="Rectángulo_420999" data-name="Rectángulo 420999" width="5.668" height="5.668" fill="#353537"/>
                <rect id="Rectángulo_421000" data-name="Rectángulo 421000" width="5.668" height="5.668" transform="translate(9.182)" fill="#f065a6"/>
              </g>
              <g id="Grupo_1211054" data-name="Grupo 1211054" transform="translate(0 17.33)">
                <rect id="Rectángulo_421001" data-name="Rectángulo 421001" width="5.668" height="5.668" fill="#f065a6"/>
                <rect id="Rectángulo_421002" data-name="Rectángulo 421002" width="5.668" height="5.668" transform="translate(9.182)" fill="#f065a6"/>
              </g>
            </g>
          </g>
          <g id="Grupo_1211063" data-name="Grupo 1211063" transform="translate(300.371)">
            <path id="Trazado_1056685" data-name="Trazado 1056685" d="M467.353,189.57H408.336a5.809,5.809,0,0,0-5.816,5.816v42.159a5.809,5.809,0,0,0,5.816,5.816h3.188v14.585l14.585-14.585h41.244a5.809,5.809,0,0,0,5.816-5.816V195.386A5.809,5.809,0,0,0,467.353,189.57Z" transform="translate(-402.52 -189.57)" fill="#00beb9"/>
            <g id="Grupo_1211062" data-name="Grupo 1211062" transform="translate(8.178 8.296)">
              <rect id="Rectángulo_421003" data-name="Rectángulo 421003" width="54.264" height="4.812" fill="#fff"/>
              <rect id="Rectángulo_421004" data-name="Rectángulo 421004" width="54.264" height="4.812" transform="translate(0 10.776)" fill="#fff"/>
              <rect id="Rectángulo_421005" data-name="Rectángulo 421005" width="54.264" height="4.812" transform="translate(0 21.582)" fill="#fff"/>
              <rect id="Rectángulo_421006" data-name="Rectángulo 421006" width="29.169" height="4.812" transform="translate(0 32.358)" fill="#fff"/>
            </g>
          </g>
        </g>
        <g id="Grupo_1211072" data-name="Grupo 1211072" transform="translate(216.332 305.981)">
          <g id="Grupo_1211068" data-name="Grupo 1211068" transform="translate(28.685 26.66)">
            <path id="Trazado_1056686" data-name="Trazado 1056686" d="M362.315,308.346H294.883a4.75,4.75,0,0,1-4.753-4.753h0a4.75,4.75,0,0,1,4.753-4.753h67.431a4.75,4.75,0,0,1,4.753,4.753h0A4.75,4.75,0,0,1,362.315,308.346Z" transform="translate(-290.13 -298.84)" fill="#353537"/>
            <g id="Grupo_1211065" data-name="Grupo 1211065" transform="translate(31.442 9.506)">
              <rect id="Rectángulo_421007" data-name="Rectángulo 421007" width="9.152" height="46.293" transform="translate(2.362 7.44)" fill="#393351"/>
              <rect id="Rectángulo_421008" data-name="Rectángulo 421008" width="14.024" height="18.039" fill="#554d72"/>
            </g>
            <g id="Grupo_1211067" data-name="Grupo 1211067" transform="translate(8.916 61.084)">
              <rect id="Rectángulo_421009" data-name="Rectángulo 421009" width="55.327" height="5.816" transform="translate(1.89)" fill="#554d72"/>
              <g id="Grupo_1211066" data-name="Grupo 1211066" transform="translate(0 5.846)">
                <path id="Trazado_1056687" data-name="Trazado 1056687" d="M303.129,326.5a4.99,4.99,0,1,1-4.989-4.989A5,5,0,0,1,303.129,326.5Z" transform="translate(-293.15 -321.51)" fill="#393351"/>
                <path id="Trazado_1056688" data-name="Trazado 1056688" d="M319.759,326.5a4.989,4.989,0,1,1-4.99-4.989A5,5,0,0,1,319.759,326.5Z" transform="translate(-260.683 -321.51)" fill="#393351"/>
              </g>
            </g>
          </g>
          <g id="Grupo_1211071" data-name="Grupo 1211071">
            <path id="Trazado_1056689" data-name="Trazado 1056689" d="M411.663,307.17c-.679-14.024-36.727-17.36-36.727-17.36-1.594,0-16.769.089-28.9.177-12.1-.089-27.309-.177-28.874-.177,0,0-36.078,3.336-36.727,17.36-.679,14.024,18.364,87.094,18.364,87.094H314.5s1.329-73.07-2.657-75.757c0,0,19.367-.325,34.218-1.594,14.88,1.3,34.218,1.594,34.218,1.594-4.015,2.657-2.687,75.757-2.687,75.757H393.3S412.342,321.193,411.663,307.17Z" transform="translate(-280.414 -289.81)" fill="#5202b5"/>
            <g id="Grupo_1211069" data-name="Grupo 1211069" transform="translate(5.204 104.424)">
              <path id="Trazado_1056690" data-name="Trazado 1056690" d="M309.2,325.209l-.354,4.251-.089,1.27-.354,4.517H283.693a1.506,1.506,0,0,1-.974-2.657c.354-.3.738-.59,1.122-.886a34.921,34.921,0,0,1,4.429-2.569,77.349,77.349,0,0,1,10.392-3.956H309.2Z" transform="translate(-282.177 -325.18)" fill="#353537"/>
              <path id="Trazado_1056691" data-name="Trazado 1056691" d="M308.758,327.08,308.4,331.6H283.693a1.506,1.506,0,0,1-.974-2.657c.354-.3.738-.59,1.122-.886a140.816,140.816,0,0,0,24.918-1Z" transform="translate(-282.177 -321.529)" fill="#fff"/>
            </g>
            <g id="Grupo_1211070" data-name="Grupo 1211070" transform="translate(100.456 104.424)">
              <path id="Trazado_1056692" data-name="Trazado 1056692" d="M314.44,325.209l.354,4.251.089,1.27.354,4.517h24.711a1.506,1.506,0,0,0,.974-2.657c-.354-.3-.738-.59-1.122-.886a34.924,34.924,0,0,0-4.428-2.569,77.353,77.353,0,0,0-10.392-3.956H314.44Z" transform="translate(-314.44 -325.18)" fill="#353537"/>
              <path id="Trazado_1056693" data-name="Trazado 1056693" d="M314.59,327.08l.354,4.517h24.711a1.506,1.506,0,0,0,.974-2.657c-.354-.3-.738-.59-1.122-.886a140.816,140.816,0,0,1-24.918-1Z" transform="translate(-314.147 -321.529)" fill="#fff"/>
            </g>
          </g>
        </g>
        <g id="Grupo_1211078" data-name="Grupo 1211078" transform="translate(212.471 159.751)">
          <path id="Trazado_1056694" data-name="Trazado 1056694" d="M364.062,357.88l-.561.266a88.661,88.661,0,0,1-74.251,1.21s1.771-26.364,7.145-57.836a426.7,426.7,0,0,1,9.359-42.75h.03l.059-.03c.856-.325,1.712-.65,2.6-.945a54.862,54.862,0,0,1,34.277-.059c.945.325,1.86.65,2.8,1,12.843,45.85,18.541,99.11,18.541,99.11Z" transform="translate(-259.301 -211.503)" fill="#00beb9"/>
          <g id="Grupo_1211073" data-name="Grupo 1211073" transform="translate(0 47.237)">
            <path id="Trazado_1056695" data-name="Trazado 1056695" d="M325.588,256.28h-.03a430.342,430.342,0,0,0-9.359,42.75c-5.9,4.4-13.315,10.658-14.526,15.352-.679,2.6,2.1,4.753,6.141,6.5l-3.72,13.049H295.71s-17.566-5.373-16.563-19.869,28.52-45.761,32.446-51.253c1.949-2.716,8.148-4.96,13.965-6.525Z" transform="translate(-279.106 -256.28)" fill="#00a49f"/>
            <path id="Trazado_1056696" data-name="Trazado 1056696" d="M314.023,291.219v-7.5s-14.2-1.86-22.733-5.55l-3.72,13.049h26.423Z" transform="translate(-262.581 -213.543)" fill="#f4eed8"/>
          </g>
          <g id="Grupo_1211074" data-name="Grupo 1211074" transform="translate(80.936 47.237)">
            <path id="Trazado_1056697" data-name="Trazado 1056697" d="M308.2,256.28h.325c3.927,14.053,6.7,28.9,9.064,42.75,5.9,4.4,13.315,10.658,14.526,15.352.679,2.6-2.1,4.753-6.141,6.5l3.72,13.049h8.385s17.566-5.373,16.563-19.869S326.121,268.3,322.194,262.8c-1.949-2.716-8.148-4.96-13.965-6.525Z" transform="translate(-303.24 -256.28)" fill="#00a49f"/>
            <path id="Trazado_1056698" data-name="Trazado 1056698" d="M306.52,291.219v-7.5s14.2-1.86,22.733-5.55l3.72,13.049H306.55Z" transform="translate(-306.52 -213.543)" fill="#f4eed8"/>
          </g>
          <rect id="Rectángulo_421010" data-name="Rectángulo 421010" width="69.616" height="45.643" transform="translate(34.673 79.27)" fill="#353537"/>
          <g id="Grupo_1211077" data-name="Grupo 1211077" transform="translate(43.913)">
            <path id="Trazado_1056699" data-name="Trazado 1056699" d="M330.017,257.758c-.768,4.753-3.838,14.024-16.031,14.024s-16.71-9.211-18.245-13.994c1.063-.354,2.126-.679,3.218-.945a55.008,55.008,0,0,1,28.283.059c.945.236,1.86.531,2.775.827Z" transform="translate(-290.544 -211.495)" fill="#f4eed8"/>
            <g id="Grupo_1211076" data-name="Grupo 1211076">
              <path id="Trazado_1056700" data-name="Trazado 1056700" d="M325.114,256.922c-3.307,3.543-8.946,8.444-15.175,8.591-7.233.177-11.425-5.609-13.108-8.68a55.007,55.007,0,0,1,28.283.059Z" transform="translate(-288.416 -211.515)" fill="#ebe0be"/>
              <g id="Grupo_1211075" data-name="Grupo 1211075">
                <path id="Trazado_1056701" data-name="Trazado 1056701" d="M330.791,264.871c0,12.282-7.883,22.261-17.626,22.261s-17.625-9.979-17.625-22.261,7.883-22.261,17.625-22.261,17.626,9.949,17.626,22.261Z" transform="translate(-290.934 -235.731)" fill="#f4eed8"/>
                <path id="Trazado_1056702" data-name="Trazado 1056702" d="M304.49,255.045a5.255,5.255,0,1,1-5.255-5.255A5.267,5.267,0,0,1,304.49,255.045Z" transform="translate(-293.98 -221.713)" fill="#f4eed8"/>
                <path id="Trazado_1056703" data-name="Trazado 1056703" d="M316.21,255.045a5.255,5.255,0,1,1-5.255-5.255A5.267,5.267,0,0,1,316.21,255.045Z" transform="translate(-271.099 -221.713)" fill="#f4eed8"/>
                <path id="Trazado_1056704" data-name="Trazado 1056704" d="M335.189,268.711c-.236,1.683-3.07,1.8-2.657,3.425a11.539,11.539,0,0,0-2.391-4.281,8.911,8.911,0,0,0-6.82-8.414c-2.775-.59-5.639.177-8.473.059a13.022,13.022,0,0,1-8.8-4.133c-3.927,4.842-6.908,10.924-7,17.153a5.654,5.654,0,0,0-3.218-3.366s-4.31-14.348,1.447-17.271c0,0-2.421-7.086,7.086-8.444,9.507-1.329,26.128,3.1,28.874-3.159,0,0,3.838,10.186,0,12.607C333.241,252.887,337.286,252.8,335.189,268.711Z" transform="translate(-293.384 -240.28)" fill="#5202b5"/>
              </g>
            </g>
          </g>
        </g>
        <path id="Trazado_1056705" data-name="Trazado 1056705" d="M281.97,274.647c.325-6.968,4.576-13.551,3.631-20.43-1.653-12.4-19.544-20.224-30.586-16.681a15.652,15.652,0,0,0-8.8,7.735,30.166,30.166,0,0,0-6.938,12.429c-1.151,4.488-.443,8.975-.266,13.522a25.668,25.668,0,0,1-.207,4.547,19.482,19.482,0,0,1-2.6,3.9c-1.919,2.185-4.429,3.779-6.466,5.875a30.039,30.039,0,0,0-5.787,9.418c-2.067,4.871-3.631,10.363-1.978,15.411,1.624,4.989,6.111,8.5,10.747,10.924a48.134,48.134,0,0,0,28.726,4.989c6.052-.827,12.134-2.982,16.474-7.292,4.251-4.222,6.436-10.215,7-16.179s-.354-11.957-1.594-17.832c-.709-3.425-1.565-6.849-1.388-10.333Zm-41.658-2.391c0-2.1-.118-4.222-.266-6.377a25.642,25.642,0,0,1,4.4-16.445c-.118.354-.207.679-.325,1.033-2.037,7.056-1.624,14.968-3.808,21.818Z" transform="translate(-179.521 -87.557)" fill="#ff6748"/>
        <g id="Grupo_1211089" data-name="Grupo 1211089" transform="translate(0 194.116)">
          <g id="Grupo_1211079" data-name="Grupo 1211079" transform="translate(0 36.225)">
            <path id="Trazado_1056706" data-name="Trazado 1056706" d="M238.525,370.917c-14.5-1.653-24.091-7.469-28.579-17.33-12.9-28.461,22.763-80.363,24.3-82.577l4.1,2.864c-.354.5-35.576,51.754-23.825,77.646,3.69,8.119,11.957,12.99,24.563,14.407l-.561,4.989Z" transform="translate(-207.139 -250.875)" fill="#554d72"/>
            <path id="Trazado_1056707" data-name="Trazado 1056707" d="M224.434,264.19h39.945v52.758H224.434a12.789,12.789,0,0,1-12.784-12.784V277a12.789,12.789,0,0,1,12.784-12.784Z" transform="translate(-198.332 -264.19)" fill="#353537"/>
            <path id="Trazado_1056708" data-name="Trazado 1056708" d="M283.835,312.047H216.4a4.75,4.75,0,0,1-4.753-4.753h0a4.75,4.75,0,0,1,4.753-4.753h67.431a4.75,4.75,0,0,1,4.753,4.753h0A4.75,4.75,0,0,1,283.835,312.047Z" transform="translate(-198.332 -189.318)" fill="#353537"/>
          </g>
          <g id="Grupo_1211085" data-name="Grupo 1211085" transform="translate(27.902)">
            <g id="Grupo_1211081" data-name="Grupo 1211081" transform="translate(22.526 116.464)">
              <path id="Trazado_1056709" data-name="Trazado 1056709" d="M226.257,323.938s35.044,1.594,46.057,0L261.8,391.281h13.669s29.405-80.953,19.367-90.962c-10.008-10.009-41.569-8.916-41.569-8.916L224.22,306.342l2.037,17.626Z" transform="translate(-224.22 -291.368)" fill="#5202b5"/>
              <g id="Grupo_1211080" data-name="Grupo 1211080" transform="translate(39.827 99.854)">
                <path id="Trazado_1056710" data-name="Trazado 1056710" d="M237.71,325.19l.354,4.251.472,5.787h24.711a1.511,1.511,0,0,0,.974-2.657,27.782,27.782,0,0,0-5.55-3.425,75.751,75.751,0,0,0-10.392-3.956h-10.54Z" transform="translate(-237.71 -325.19)" fill="#353537"/>
                <path id="Trazado_1056711" data-name="Trazado 1056711" d="M237.71,325.19l.354,4.251a18.723,18.723,0,0,0,5.137,1.83,40.8,40.8,0,0,0,8.709.65c2.6,0,5.285-.679,6.731-2.775a75.754,75.754,0,0,0-10.392-3.956Z" transform="translate(-237.71 -325.19)" fill="#f4eed8"/>
              </g>
            </g>
            <path id="Trazado_1056712" data-name="Trazado 1056712" d="M245.177,251.92s7.469,3.159,10.806,17.832c3.336,14.7,6.023,50.1,6.023,50.1l24.682,8.089.354,11.278-50.1,2.48,1.329-43.547,6.879-46.234Z" transform="translate(-176.86 -251.92)" fill="#00a49f"/>
            <g id="Grupo_1211083" data-name="Grupo 1211083" transform="translate(3.115 103.548)">
              <g id="Grupo_1211082" data-name="Grupo 1211082" transform="translate(129.002 91.034)">
                <path id="Trazado_1056713" data-name="Trazado 1056713" d="M261.34,320.934l1.594,3.956,2.126,5.373L288.679,323a1.514,1.514,0,0,0,.148-2.834,27.44,27.44,0,0,0-6.318-1.624,74.659,74.659,0,0,0-11.1-.709l-10.068,3.1Z" transform="translate(-261.34 -317.828)" fill="#353537"/>
                <path id="Trazado_1056714" data-name="Trazado 1056714" d="M261.34,320.934l1.594,3.956a18.772,18.772,0,0,0,5.462.236,40.328,40.328,0,0,0,8.5-1.949c2.48-.8,4.842-2.214,5.639-4.635a74.66,74.66,0,0,0-11.1-.709l-10.068,3.1Z" transform="translate(-261.34 -317.828)" fill="#f4eed8"/>
              </g>
              <path id="Trazado_1056715" data-name="Trazado 1056715" d="M219.4,287.544s-8.709,36.993,12.666,43.813c21.375,6.849,81.868-19.426,81.868-19.426l30.38,69.882,14.7-4.015s-17.36-89.043-28.726-90.253c-11.367-1.24-47.415,0-47.415,0H219.431Z" transform="translate(-217.645 -286.993)" fill="#6d26d7"/>
            </g>
            <path id="Trazado_1056716" data-name="Trazado 1056716" d="M284.907,356l-5.55,1L263.5,359.868l-46.913,8.5s19.544-53.673,20.784-60.7,1.417-26.364.089-35.782,13.492-19.958,13.492-19.958h33.922s.177.207.266.325c17.566,20.607-.266,103.775-.266,103.775Z" transform="translate(-216.59 -251.9)" fill="#00beb9"/>
            <path id="Trazado_1056717" data-name="Trazado 1056717" d="M252.375,357.023l-15.854,2.864c10.3-69.2-6.111-107.967-6.111-107.967H257.9s.177.207.266.325c10.126,12.961-3.248,90.519-5.816,104.779Z" transform="translate(-189.609 -251.92)" fill="#5202b5"/>
            <path id="Trazado_1056718" data-name="Trazado 1056718" d="M230.41,251.92s9.861,15.175,20.548,11.809c10.687-3.336,6.968-11.809,6.968-11.809H230.44Z" transform="translate(-189.609 -251.92)" fill="#f4eed8"/>
            <g id="Grupo_1211084" data-name="Grupo 1211084" transform="translate(11.858)">
              <path id="Trazado_1056719" data-name="Trazado 1056719" d="M301.187,286.484c-2.48-2.185-7.469-8.326-11.367-8.8-1.889-.236-13.846,4.547-13.846,4.547s-20.607-.915-39.65-2.244l-.974,11.485c13.4-.207,28.726-.531,41.451-1,9.448,2.6,19.161.354,23.8-1.092a1.712,1.712,0,0,0,.62-2.923Z" transform="translate(-191.822 -201.633)" fill="#f4eed8"/>
              <path id="Trazado_1056720" data-name="Trazado 1056720" d="M243.143,251.92a33.223,33.223,0,0,0-20.7,25.538c-3.661,20.046-1.683,66.782,4.34,70.118s42.071-1.683,42.071-1.683V329.537l-24.121-1.329s13.787-64.1-1.594-76.288Z" transform="translate(-220.606 -251.92)" fill="#00a49f"/>
            </g>
          </g>
          <g id="Grupo_1211086" data-name="Grupo 1211086" transform="translate(44.79 158.954)">
            <rect id="Rectángulo_421011" data-name="Rectángulo 421011" width="9.152" height="46.293" transform="translate(2.332 7.44)" fill="#393351"/>
            <rect id="Rectángulo_421012" data-name="Rectángulo 421012" width="14.024" height="18.039" fill="#554d72"/>
          </g>
          <g id="Grupo_1211088" data-name="Grupo 1211088" transform="translate(22.263 210.531)">
            <rect id="Rectángulo_421013" data-name="Rectángulo 421013" width="55.327" height="5.816" transform="translate(1.86)" fill="#554d72"/>
            <g id="Grupo_1211087" data-name="Grupo 1211087" transform="translate(0 5.816)">
              <path id="Trazado_1056721" data-name="Trazado 1056721" d="M224.659,330.189a4.989,4.989,0,1,1-4.989-4.989A5,5,0,0,1,224.659,330.189Z" transform="translate(-214.68 -325.2)" fill="#393351"/>
              <path id="Trazado_1056722" data-name="Trazado 1056722" d="M241.289,330.189A4.989,4.989,0,1,1,236.3,325.2,5,5,0,0,1,241.289,330.189Z" transform="translate(-182.213 -325.2)" fill="#393351"/>
            </g>
          </g>
        </g>
        <g id="Grupo_1211090" data-name="Grupo 1211090" transform="translate(92.647 284.665)">
          <rect id="Rectángulo_421014" data-name="Rectángulo 421014" width="334.116" height="7.322" fill="#ff6748"/>
          <rect id="Rectángulo_421015" data-name="Rectángulo 421015" width="315.576" height="8.208" transform="translate(9.27 7.322)" fill="#e34932"/>
        </g>
        <g id="Grupo_1211091" data-name="Grupo 1211091" transform="translate(109.83 300.194)">
          <path id="Trazado_1056723" data-name="Trazado 1056723" d="M250.54,414.564,263.914,287.85H253.876L244.34,414.564Z" transform="translate(-244.34 -287.85)" fill="#353537"/>
          <path id="Trazado_1056724" data-name="Trazado 1056724" d="M358.824,414.564,349.288,287.85H339.25l13.345,126.714Z" transform="translate(-59.043 -287.85)" fill="#353537"/>
        </g>
        <g id="Grupo_1211092" data-name="Grupo 1211092" transform="translate(108.796 239.021)">
          <rect id="Rectángulo_421016" data-name="Rectángulo 421016" width="39.296" height="4.93" transform="translate(0 40.713)" fill="#353537"/>
          <path id="Trazado_1056725" data-name="Trazado 1056725" d="M315.743,312.773h-63l10.008-45.643h63.032Z" transform="translate(-226.907 -267.13)" fill="#353537"/>
        </g>
        <g id="Grupo_1211093" data-name="Grupo 1211093" transform="translate(67.139 154.779)">
          <path id="Trazado_1056726" data-name="Trazado 1056726" d="M258.95,250.117s3.838,24.327-9.418,23.8-17.98-10.186-16.917-15.884,2.067-17.064,13.463-18.216,12.872,10.333,12.872,10.333Z" transform="translate(-224.821 -236.376)" fill="#f4eed8"/>
          <path id="Trazado_1056727" data-name="Trazado 1056727" d="M239.42,251.207a4.384,4.384,0,1,1-3.513-5.108A4.369,4.369,0,0,1,239.42,251.207Z" transform="translate(-228.231 -224.092)" fill="#f4eed8"/>
          <path id="Trazado_1056728" data-name="Trazado 1056728" d="M234.486,261.194s3.4-1.329,5.757,1.063c0,0,16.533-3.838,16.356-12.725a9.179,9.179,0,0,1,6.554-.236s-2.923-14.673-21.729-9.654-8.975,24.5-8.975,24.5a3.932,3.932,0,0,1,2.008-2.923Z" transform="translate(-229.88 -238.596)" fill="#ff6748"/>
          <path id="Trazado_1056729" data-name="Trazado 1056729" d="M233.557,247.33l-.62,3.277s-.089.59-.177,1.565c-.118,1.269-.3,3.159-.325,5.078-.059,2.982.207,6.111,1.328,7.2,2.421,2.332,11.78,2.982,13.108,2.421.413-.177.679-1.86.856-4.045.089-1.181.148-2.509.177-3.838h0c.118-4.045.059-8.089.059-8.089l-14.378-3.513Z" transform="translate(-224.907 -221.543)" fill="#f4eed8"/>
          <path id="Trazado_1056730" data-name="Trazado 1056730" d="M232.755,248.96c-.118,1.269-.3,3.159-.325,5.078,3.661,1.8,11.1,5.2,15.264,5.55.089-1.181.148-2.51.177-3.838h0C247.457,255.662,234.32,252.65,232.755,248.96Z" transform="translate(-224.902 -218.361)" fill="#ebe0be"/>
        </g>
        <g id="Grupo_1211094" data-name="Grupo 1211094" transform="translate(98.286 78.326)">
          <path id="Trazado_1056731" data-name="Trazado 1056731" d="M305.263,212.7H246.246a5.809,5.809,0,0,0-5.816,5.816v42.159a5.809,5.809,0,0,0,5.816,5.816h3.188v14.585l14.585-14.585h41.244a5.809,5.809,0,0,0,5.816-5.816V218.516A5.809,5.809,0,0,0,305.263,212.7Z" transform="translate(-240.43 -212.7)" fill="#5202b5"/>
          <path id="Trazado_1056732" data-name="Trazado 1056732" d="M296.9,216.88l-15.382,4.34,4.31,4.163-8,8.208L261.854,221.9,243.49,241.237l2.923,2.775,15.913-16.8,15.943,11.662,10.422-10.687,4.281,4.192Z" transform="translate(-234.456 -204.539)" fill="#fff"/>
        </g>
        <g id="Grupo_1211095" data-name="Grupo 1211095" transform="translate(158.233 142.079)">
          <path id="Trazado_1056733" data-name="Trazado 1056733" d="M327.47,215.28a29.11,29.11,0,1,1-29.11-29.11A29.093,29.093,0,0,1,327.47,215.28Z" transform="translate(-269.25 -186.17)" fill="#fff"/>
          <path id="Trazado_1056734" data-name="Trazado 1056734" d="M295.715,237.583a24.889,24.889,0,0,1-2.982-.177l.236-1.978a24.919,24.919,0,0,0,5.55,0l.236,1.978a26.261,26.261,0,0,1-3.041.177Zm-8.887-1.594a24.281,24.281,0,0,1-5.344-2.8l1.122-1.653a22.38,22.38,0,0,0,4.93,2.569l-.709,1.86Zm17.8-.03-.709-1.86a22.5,22.5,0,0,0,4.93-2.6L310,233.155a24.284,24.284,0,0,1-5.344,2.8Zm-27.693-6.79a24.9,24.9,0,0,1-3.454-4.96l1.771-.945a22.169,22.169,0,0,0,3.159,4.576l-1.506,1.329Zm37.554-.029-1.506-1.329a22.167,22.167,0,0,0,3.159-4.576l1.771.945a26.238,26.238,0,0,1-3.425,4.989Zm-43.134-10.6a25.619,25.619,0,0,1-.738-5.993h2.008a23.165,23.165,0,0,0,.679,5.521Zm48.714-.03-1.948-.472a23.172,23.172,0,0,0,.679-5.521l2.008-.089v.089A23.971,23.971,0,0,1,320.072,218.511Zm-46.795-11.485-1.949-.472a24.815,24.815,0,0,1,2.126-5.668l1.771.915a22.092,22.092,0,0,0-1.949,5.2Zm44.817-.148a23.56,23.56,0,0,0-1.978-5.2l1.771-.945a24.685,24.685,0,0,1,2.155,5.639l-1.949.472Zm-39.709-9.654-1.506-1.329a25.429,25.429,0,0,1,4.517-4.015l1.151,1.653A23.594,23.594,0,0,0,278.385,197.225Zm34.542-.089a24.686,24.686,0,0,0-4.163-3.69l1.122-1.653a26.521,26.521,0,0,1,4.547,3.986l-1.506,1.329Zm-25.479-6.2-.709-1.86a25.157,25.157,0,0,1,5.875-1.447l.236,1.978a24.5,24.5,0,0,0-5.4,1.329Zm16.385-.059a22.549,22.549,0,0,0-5.4-1.3l.236-1.978a25.1,25.1,0,0,1,5.875,1.417l-.709,1.889Z" transform="translate(-266.575 -183.378)" fill="#5202b5"/>
          <path id="Trazado_1056735" data-name="Trazado 1056735" d="M286.776,219.5l-8.326-8.355V190.83h3.986v18.659l7.174,7.174Z" transform="translate(-251.289 -177.072)" fill="#5202b5"/>
        </g>
      </g>
      <g id="Grupo_1211109" data-name="Grupo 1211109" transform="translate(969.421 1518.34)">
        <path id="Trazado_1056736" data-name="Trazado 1056736" d="M307.674,227.49v13.374l-6.908,6.79H287.51V227.49Z" transform="translate(-287.51 -227.49)" fill="#554d72"/>
        <path id="Trazado_1056737" data-name="Trazado 1056737" d="M298.908,232.02,292,238.81v-6.79Z" transform="translate(-278.744 -218.646)" fill="#393351"/>
      </g>
      <rect id="Rectángulo_421017" data-name="Rectángulo 421017" width="20.164" height="20.164" transform="translate(940.488 1498.796)" fill="#fff"/>
      <g id="Grupo_1211110" data-name="Grupo 1211110" transform="translate(961.007 1570.538)">
        <path id="Trazado_1056742" data-name="Trazado 1056742" d="M291.486,259.607l.827,2.923.827-2.923a9.694,9.694,0,0,1,4.576-5.757h0a9.4,9.4,0,0,1-4.576-5.757l-.827-2.923-.827,2.923a9.694,9.694,0,0,1-4.576,5.757h0A9.484,9.484,0,0,1,291.486,259.607Z" transform="translate(-280.267 -245.17)" fill="#fff"/>
        <path id="Trazado_1056743" data-name="Trazado 1056743" d="M288.2,261.44l.65,2.244.649-2.244a7.43,7.43,0,0,1,3.543-4.458h0a7.248,7.248,0,0,1-3.543-4.458l-.649-2.244-.65,2.244a7.43,7.43,0,0,1-3.543,4.458h0A7.248,7.248,0,0,1,288.2,261.44Z" transform="translate(-284.66 -235.194)" fill="#fff"/>
      </g>
      <g id="Grupo_1211111" data-name="Grupo 1211111" transform="translate(1353.639 1494.603)">
        <path id="Trazado_1056744" data-name="Trazado 1056744" d="M424.466,233.887l.827,2.923.827-2.923a9.694,9.694,0,0,1,4.576-5.757h0a9.484,9.484,0,0,1-4.576-5.757l-.827-2.923-.827,2.923a9.694,9.694,0,0,1-4.576,5.757h0A9.4,9.4,0,0,1,424.466,233.887Z" transform="translate(-413.277 -219.45)" fill="#fff"/>
        <path id="Trazado_1056745" data-name="Trazado 1056745" d="M421.193,235.72l.65,2.244.65-2.244a7.43,7.43,0,0,1,3.543-4.458h0a7.248,7.248,0,0,1-3.543-4.458l-.65-2.244-.65,2.244a7.43,7.43,0,0,1-3.543,4.458h0A7.248,7.248,0,0,1,421.193,235.72Z" transform="translate(-417.65 -209.474)" fill="#fff"/>
      </g>
      <g id="Grupo_1211112" data-name="Grupo 1211112" transform="translate(1259.76 1586.703)">
        <path id="Trazado_1056746" data-name="Trazado 1056746" d="M389.14,273.28l-1.063,3.749-1.063-3.749a12.235,12.235,0,0,0-5.9-7.41h0a12.154,12.154,0,0,0,5.9-7.41l1.063-3.749,1.063,3.749a12.235,12.235,0,0,0,5.9,7.41h0A12.154,12.154,0,0,0,389.14,273.28Z" transform="translate(-381.11 -254.71)" fill="#fff"/>
        <path id="Trazado_1056747" data-name="Trazado 1056747" d="M391.289,275.628l-.827,2.893-.827-2.893a9.348,9.348,0,0,0-4.576-5.728h0a9.551,9.551,0,0,0,4.576-5.728l.827-2.893.827,2.893a9.349,9.349,0,0,0,4.576,5.728h0A9.551,9.551,0,0,0,391.289,275.628Z" transform="translate(-373.398 -241.883)" fill="#fff"/>
      </g>
      <g id="Grupo_1211113" data-name="Grupo 1211113" transform="translate(849.94 1572.516)">
        <path id="Trazado_1056748" data-name="Trazado 1056748" d="M253.269,260.277l-.827,2.923-.827-2.923a9.694,9.694,0,0,0-4.576-5.757h0a9.4,9.4,0,0,0,4.576-5.757l.827-2.923.827,2.923a9.694,9.694,0,0,0,4.576,5.757h0A9.485,9.485,0,0,0,253.269,260.277Z" transform="translate(-247.04 -245.84)" fill="#d5498f"/>
        <path id="Trazado_1056749" data-name="Trazado 1056749" d="M254.952,262.11l-.649,2.244-.65-2.244a7.43,7.43,0,0,0-3.543-4.458h0a7.248,7.248,0,0,0,3.543-4.458l.65-2.244.649,2.244a7.43,7.43,0,0,0,3.543,4.458h0A7.247,7.247,0,0,0,254.952,262.11Z" transform="translate(-241.046 -235.863)" fill="#d5498f"/>
      </g>
    </g>
    <g id="Grupo_1211116" data-name="Grupo 1211116" transform="translate(-31.736 30)">
      <g id="Grupo_1210518" data-name="Grupo 1210518" transform="translate(318.222 1037.777)">
        <path id="Trazado_1055030" data-name="Trazado 1055030" d="M31.718,11264.623l-30.667-32.694H-178.276" transform="translate(200.655 -11201.998)" fill="none" stroke="#3b2a76" stroke-width="2"/>
        <g id="Grupo_1210513" data-name="Grupo 1210513" transform="translate(226.303 56.851)">
          <path id="Trazado_1043527" data-name="Trazado 1043527" d="M6.361,0A6.361,6.361,0,1,1,0,6.361,6.361,6.361,0,0,1,6.361,0Z" transform="translate(0)" fill="#e1daf7"/>
          <g id="Grupo_1181473" data-name="Grupo 1181473" transform="matrix(0.998, -0.07, 0.07, 0.998, 0.885, 1.601)">
            <g id="Elipse_12494" data-name="Elipse 12494" transform="translate(0.131 0.131)" fill="#efecfa" stroke="#48396f" stroke-width="1">
              <ellipse cx="5" cy="5" rx="5" ry="5" stroke="none"/>
              <ellipse cx="5" cy="5" rx="4.5" ry="4.5" fill="none"/>
            </g>
            <g id="Trazado_1043525" data-name="Trazado 1043525" transform="translate(0)" fill="#efecfa">
              <path d="M 5.130859851837158 9.761719703674316 C 2.577399969100952 9.761719703674316 0.4999998509883881 7.684319496154785 0.4999998509883881 5.130859375 C 0.4999998509883881 2.577399492263794 2.577399969100952 0.4999993741512299 5.130859851837158 0.4999993741512299 C 7.684319972991943 0.4999993741512299 9.761719703674316 2.577399492263794 9.761719703674316 5.130859375 C 9.761719703674316 7.684319496154785 7.684319972991943 9.761719703674316 5.130859851837158 9.761719703674316 Z" stroke="none"/>
              <path d="M 5.130859851837158 0.9999990463256836 C 2.853099822998047 0.9999990463256836 1 2.853099346160889 1 5.130859375 C 1 7.408619403839111 2.853099822998047 9.261719703674316 5.130859851837158 9.261719703674316 C 7.40861988067627 9.261719703674316 9.261719703674316 7.408619403839111 9.261719703674316 5.130859375 C 9.261719703674316 2.853099346160889 7.40861988067627 0.9999990463256836 5.130859851837158 0.9999990463256836 M 5.130859851837158 -9.5367431640625e-07 C 7.964550018310547 -9.5367431640625e-07 10.26171970367432 2.297159194946289 10.26171970367432 5.130859375 C 10.26171970367432 7.964559555053711 7.964550018310547 10.26171970367432 5.130859851837158 10.26171970367432 C 2.297159671783447 10.26171970367432 0 7.964559555053711 0 5.130859375 C 0 2.297159194946289 2.297159671783447 -9.5367431640625e-07 5.130859851837158 -9.5367431640625e-07 Z" stroke="none" fill="#48396f"/>
            </g>
            <g id="Trazado_1043526" data-name="Trazado 1043526" transform="translate(0)" fill="#efecfa">
              <path d="M 5.130859851837158 9.761719703674316 C 2.577399969100952 9.761719703674316 0.4999998509883881 7.684319496154785 0.4999998509883881 5.130859375 C 0.4999998509883881 2.577399492263794 2.577399969100952 0.4999993741512299 5.130859851837158 0.4999993741512299 C 7.684319972991943 0.4999993741512299 9.761719703674316 2.577399492263794 9.761719703674316 5.130859375 C 9.761719703674316 7.684319496154785 7.684319972991943 9.761719703674316 5.130859851837158 9.761719703674316 Z" stroke="none"/>
              <path d="M 5.130859851837158 0.9999990463256836 C 2.853099822998047 0.9999990463256836 1 2.853099346160889 1 5.130859375 C 1 7.408619403839111 2.853099822998047 9.261719703674316 5.130859851837158 9.261719703674316 C 7.40861988067627 9.261719703674316 9.261719703674316 7.408619403839111 9.261719703674316 5.130859375 C 9.261719703674316 2.853099346160889 7.40861988067627 0.9999990463256836 5.130859851837158 0.9999990463256836 M 5.130859851837158 -9.5367431640625e-07 C 7.964550018310547 -9.5367431640625e-07 10.26171970367432 2.297159194946289 10.26171970367432 5.130859375 C 10.26171970367432 7.964559555053711 7.964550018310547 10.26171970367432 5.130859851837158 10.26171970367432 C 2.297159671783447 10.26171970367432 0 7.964559555053711 0 5.130859375 C 0 2.297159194946289 2.297159671783447 -9.5367431640625e-07 5.130859851837158 -9.5367431640625e-07 Z" stroke="none" fill="#3b2a76"/>
            </g>
          </g>
        </g>
        <g id="Rectángulo_420773" data-name="Rectángulo 420773" transform="translate(-23 10)" fill="#fff" stroke="#3b2a76" stroke-width="2">
          <rect width="189" height="40" rx="20" stroke="none"/>
          <rect x="1" y="1" width="187" height="38" rx="19" fill="none"/>
        </g>
        <path id="Trazado_1057515" data-name="Trazado 1057515" d="M11.408,0H9.773L8.438-3.533H3.094L1.837,0H.193L5.027-12.6H6.557ZM7.954-4.86,5.977-10.23a5.142,5.142,0,0,1-.193-.844H5.748a4.708,4.708,0,0,1-.2.844L3.586-4.86ZM19.206-.413a4.684,4.684,0,0,1-2.461.624,4.074,4.074,0,0,1-3.107-1.252,4.539,4.539,0,0,1-1.182-3.248A4.99,4.99,0,0,1,13.73-7.862a4.458,4.458,0,0,1,3.4-1.349,4.735,4.735,0,0,1,2.092.439v1.477A3.665,3.665,0,0,0,17.079-8a2.9,2.9,0,0,0-2.263.989,3.752,3.752,0,0,0-.883,2.6,3.573,3.573,0,0,0,.831,2.5A2.863,2.863,0,0,0,16.991-1a3.613,3.613,0,0,0,2.215-.782Zm6.356.325a2.779,2.779,0,0,1-1.345.281q-2.364,0-2.364-2.637V-7.77H20.306V-9h1.547v-2.2l1.441-.466V-9h2.268v1.23H23.295V-2.7A2.1,2.1,0,0,0,23.6-1.406a1.228,1.228,0,0,0,1.02.387,1.515,1.515,0,0,0,.94-.3Zm9.2.088H33.325V-1.424H33.29A2.96,2.96,0,0,1,30.512.211Q27.3.211,27.3-3.621V-9h1.433v5.15Q28.728-1,30.908-1a2.205,2.205,0,0,0,1.736-.778,2.976,2.976,0,0,0,.681-2.035V-9h1.441ZM44.12,0H42.678V-1.406h-.035A3.018,3.018,0,0,1,39.874.211a2.959,2.959,0,0,1-2.1-.712,2.466,2.466,0,0,1-.76-1.89q0-2.522,2.971-2.936l2.7-.378Q42.678-8,40.824-8a4.431,4.431,0,0,0-2.936,1.107V-8.367a5.577,5.577,0,0,1,3.059-.844q3.173,0,3.173,3.357ZM42.678-4.553l-2.171.3a3.525,3.525,0,0,0-1.512.5,1.432,1.432,0,0,0-.51,1.261,1.374,1.374,0,0,0,.47,1.077A1.817,1.817,0,0,0,40.208-1a2.314,2.314,0,0,0,1.771-.751,2.685,2.685,0,0,0,.7-1.9ZM51.53-7.541a1.763,1.763,0,0,0-1.09-.29,1.839,1.839,0,0,0-1.542.87,4.023,4.023,0,0,0-.62,2.373V0H46.837V-9h1.441v1.854h.035a3.143,3.143,0,0,1,.94-1.481,2.144,2.144,0,0,1,1.415-.532,2.353,2.353,0,0,1,.861.123ZM61.808,2.865H60.525A11.232,11.232,0,0,1,57.8-4.808a11.658,11.658,0,0,1,2.725-7.8h1.3a11.845,11.845,0,0,0-2.76,7.778A11.638,11.638,0,0,0,61.808,2.865ZM73.412,0H71.777L70.441-3.533H65.1L63.841,0H62.2l4.834-12.6H68.56ZM69.958-4.86,67.98-10.23a5.14,5.14,0,0,1-.193-.844h-.035a4.708,4.708,0,0,1-.2.844L65.59-4.86ZM81.21-.413a4.684,4.684,0,0,1-2.461.624,4.074,4.074,0,0,1-3.107-1.252A4.539,4.539,0,0,1,74.46-4.289a4.99,4.99,0,0,1,1.274-3.573,4.458,4.458,0,0,1,3.4-1.349,4.735,4.735,0,0,1,2.092.439v1.477A3.665,3.665,0,0,0,79.083-8a2.9,2.9,0,0,0-2.263.989,3.752,3.752,0,0,0-.883,2.6,3.573,3.573,0,0,0,.831,2.5A2.863,2.863,0,0,0,78.995-1a3.613,3.613,0,0,0,2.215-.782Zm6.356.325a2.779,2.779,0,0,1-1.345.281q-2.364,0-2.364-2.637V-7.77H82.31V-9h1.547v-2.2l1.441-.466V-9h2.268v1.23H85.3V-2.7a2.1,2.1,0,0,0,.308,1.292,1.228,1.228,0,0,0,1.02.387,1.515,1.515,0,0,0,.94-.3Zm1.962,2.953H88.244a11.638,11.638,0,0,0,2.742-7.69,11.845,11.845,0,0,0-2.76-7.778h1.3a11.611,11.611,0,0,1,2.742,7.8A11.188,11.188,0,0,1,89.528,2.865Z" transform="translate(46.5 36.431)" fill="#212429"/>
        <g id="Elipse_12300" data-name="Elipse 12300" transform="translate(-23)" fill="#fff" stroke="#3b2a76" stroke-width="2">
          <circle cx="30" cy="30" r="30" stroke="none"/>
          <circle cx="30" cy="30" r="29" fill="none"/>
        </g>
      </g>
    </g>
    <g id="Grupo_1211120" data-name="Grupo 1211120" transform="translate(144.264 -114.564)">
      <g id="Grupo_1210518-2" data-name="Grupo 1210518" transform="translate(318.222 1037.777)">
        <path id="Trazado_1055030-2" data-name="Trazado 1055030" d="M96.372,11231.929H-178.276" transform="translate(200.655 -11201.998)" fill="none" stroke="#3b2a76" stroke-width="2"/>
        <g id="Grupo_1210513-2" data-name="Grupo 1210513" transform="translate(290.666 23.569)">
          <path id="Trazado_1043527-2" data-name="Trazado 1043527" d="M6.361,0A6.361,6.361,0,1,1,0,6.361,6.361,6.361,0,0,1,6.361,0Z" transform="translate(0)" fill="#e1daf7"/>
          <g id="Grupo_1181473-2" data-name="Grupo 1181473" transform="matrix(0.998, -0.07, 0.07, 0.998, 0.885, 1.601)">
            <g id="Elipse_12494-2" data-name="Elipse 12494" transform="translate(0.131 0.131)" fill="#efecfa" stroke="#48396f" stroke-width="1">
              <ellipse cx="5" cy="5" rx="5" ry="5" stroke="none"/>
              <ellipse cx="5" cy="5" rx="4.5" ry="4.5" fill="none"/>
            </g>
            <g id="Trazado_1043525-2" data-name="Trazado 1043525" transform="translate(0)" fill="#efecfa">
              <path d="M 5.130859851837158 9.761719703674316 C 2.577399969100952 9.761719703674316 0.4999998509883881 7.684319496154785 0.4999998509883881 5.130859375 C 0.4999998509883881 2.577399492263794 2.577399969100952 0.4999993741512299 5.130859851837158 0.4999993741512299 C 7.684319972991943 0.4999993741512299 9.761719703674316 2.577399492263794 9.761719703674316 5.130859375 C 9.761719703674316 7.684319496154785 7.684319972991943 9.761719703674316 5.130859851837158 9.761719703674316 Z" stroke="none"/>
              <path d="M 5.130859851837158 0.9999990463256836 C 2.853099822998047 0.9999990463256836 1 2.853099346160889 1 5.130859375 C 1 7.408619403839111 2.853099822998047 9.261719703674316 5.130859851837158 9.261719703674316 C 7.40861988067627 9.261719703674316 9.261719703674316 7.408619403839111 9.261719703674316 5.130859375 C 9.261719703674316 2.853099346160889 7.40861988067627 0.9999990463256836 5.130859851837158 0.9999990463256836 M 5.130859851837158 -9.5367431640625e-07 C 7.964550018310547 -9.5367431640625e-07 10.26171970367432 2.297159194946289 10.26171970367432 5.130859375 C 10.26171970367432 7.964559555053711 7.964550018310547 10.26171970367432 5.130859851837158 10.26171970367432 C 2.297159671783447 10.26171970367432 0 7.964559555053711 0 5.130859375 C 0 2.297159194946289 2.297159671783447 -9.5367431640625e-07 5.130859851837158 -9.5367431640625e-07 Z" stroke="none" fill="#48396f"/>
            </g>
            <g id="Trazado_1043526-2" data-name="Trazado 1043526" transform="translate(0)" fill="#efecfa">
              <path d="M 5.130859851837158 9.761719703674316 C 2.577399969100952 9.761719703674316 0.4999998509883881 7.684319496154785 0.4999998509883881 5.130859375 C 0.4999998509883881 2.577399492263794 2.577399969100952 0.4999993741512299 5.130859851837158 0.4999993741512299 C 7.684319972991943 0.4999993741512299 9.761719703674316 2.577399492263794 9.761719703674316 5.130859375 C 9.761719703674316 7.684319496154785 7.684319972991943 9.761719703674316 5.130859851837158 9.761719703674316 Z" stroke="none"/>
              <path d="M 5.130859851837158 0.9999990463256836 C 2.853099822998047 0.9999990463256836 1 2.853099346160889 1 5.130859375 C 1 7.408619403839111 2.853099822998047 9.261719703674316 5.130859851837158 9.261719703674316 C 7.40861988067627 9.261719703674316 9.261719703674316 7.408619403839111 9.261719703674316 5.130859375 C 9.261719703674316 2.853099346160889 7.40861988067627 0.9999990463256836 5.130859851837158 0.9999990463256836 M 5.130859851837158 -9.5367431640625e-07 C 7.964550018310547 -9.5367431640625e-07 10.26171970367432 2.297159194946289 10.26171970367432 5.130859375 C 10.26171970367432 7.964559555053711 7.964550018310547 10.26171970367432 5.130859851837158 10.26171970367432 C 2.297159671783447 10.26171970367432 0 7.964559555053711 0 5.130859375 C 0 2.297159194946289 2.297159671783447 -9.5367431640625e-07 5.130859851837158 -9.5367431640625e-07 Z" stroke="none" fill="#3b2a76"/>
            </g>
          </g>
        </g>
        <g id="Rectángulo_420773-2" data-name="Rectángulo 420773" transform="translate(-23 10)" fill="#fff" stroke="#3b2a76" stroke-width="2">
          <rect width="189" height="40" rx="20" stroke="none"/>
          <rect x="1" y="1" width="187" height="38" rx="19" fill="none"/>
        </g>
        <path id="Trazado_1057514" data-name="Trazado 1057514" d="M3.129-4.764V0H1.652V-12.6H5.115a4.571,4.571,0,0,1,3.133.984A3.515,3.515,0,0,1,9.36-8.842,3.82,3.82,0,0,1,8.125-5.906,4.718,4.718,0,0,1,4.79-4.764Zm0-6.5V-6.1H4.676a3.458,3.458,0,0,0,2.333-.7,2.474,2.474,0,0,0,.8-1.973q0-2.5-2.953-2.5ZM12.983,0H11.542V-13.324h1.441Zm9.362,0H20.9V-1.406h-.035A3.018,3.018,0,0,1,18.1.211,2.959,2.959,0,0,1,16-.5a2.466,2.466,0,0,1-.76-1.89q0-2.522,2.971-2.936L20.9-5.7Q20.9-8,19.049-8a4.431,4.431,0,0,0-2.936,1.107V-8.367a5.577,5.577,0,0,1,3.059-.844q3.173,0,3.173,3.357ZM20.9-4.553l-2.171.3a3.525,3.525,0,0,0-1.512.5,1.432,1.432,0,0,0-.51,1.261,1.374,1.374,0,0,0,.47,1.077A1.817,1.817,0,0,0,18.434-1a2.314,2.314,0,0,0,1.771-.751,2.685,2.685,0,0,0,.7-1.9ZM32.534,0H31.092V-5.133Q31.092-8,29-8a2.269,2.269,0,0,0-1.789.813A3.013,3.013,0,0,0,26.5-5.133V0H25.063V-9H26.5v1.494h.035a3.248,3.248,0,0,1,2.953-1.705,2.753,2.753,0,0,1,2.259.954A4.248,4.248,0,0,1,32.534-5.5ZM35.99-11.285a.913.913,0,0,1-.659-.264.89.89,0,0,1-.272-.668.9.9,0,0,1,.272-.672.905.905,0,0,1,.659-.268.931.931,0,0,1,.672.268.9.9,0,0,1,.277.672.891.891,0,0,1-.277.659A.923.923,0,0,1,35.99-11.285ZM36.693,0H35.251V-9h1.441ZM44.06-12.059A1.92,1.92,0,0,0,43.1-12.3q-1.512,0-1.512,1.907V-9H43.7v1.23H41.59V0H40.157V-7.77H38.619V-9h1.538v-1.459a3.032,3.032,0,0,1,.817-2.237,2.759,2.759,0,0,1,2.039-.822,2.824,2.824,0,0,1,1.046.158Zm1.927.773a.913.913,0,0,1-.659-.264.89.89,0,0,1-.272-.668.9.9,0,0,1,.272-.672.905.905,0,0,1,.659-.268.931.931,0,0,1,.672.268.9.9,0,0,1,.277.672.891.891,0,0,1-.277.659A.923.923,0,0,1,45.986-11.285ZM46.69,0H45.248V-9H46.69Zm9.055-.413a4.684,4.684,0,0,1-2.461.624,4.074,4.074,0,0,1-3.107-1.252,4.539,4.539,0,0,1-1.182-3.248,4.99,4.99,0,0,1,1.274-3.573,4.458,4.458,0,0,1,3.4-1.349,4.735,4.735,0,0,1,2.092.439v1.477A3.665,3.665,0,0,0,53.617-8a2.9,2.9,0,0,0-2.263.989,3.752,3.752,0,0,0-.883,2.6,3.573,3.573,0,0,0,.831,2.5A2.863,2.863,0,0,0,53.529-1a3.613,3.613,0,0,0,2.215-.782ZM64.368,0H62.927V-1.406h-.035A3.018,3.018,0,0,1,60.123.211a2.959,2.959,0,0,1-2.1-.712,2.466,2.466,0,0,1-.76-1.89q0-2.522,2.971-2.936l2.7-.378Q62.927-8,61.072-8a4.431,4.431,0,0,0-2.936,1.107V-8.367A5.577,5.577,0,0,1,61.2-9.211q3.173,0,3.173,3.357ZM62.927-4.553l-2.171.3a3.525,3.525,0,0,0-1.512.5,1.432,1.432,0,0,0-.51,1.261,1.374,1.374,0,0,0,.47,1.077A1.817,1.817,0,0,0,60.457-1a2.314,2.314,0,0,0,1.771-.751,2.685,2.685,0,0,0,.7-1.9Zm8.852-2.988a1.763,1.763,0,0,0-1.09-.29,1.839,1.839,0,0,0-1.542.87,4.023,4.023,0,0,0-.62,2.373V0H67.086V-9h1.441v1.854h.035a3.143,3.143,0,0,1,.94-1.481,2.144,2.144,0,0,1,1.415-.532,2.353,2.353,0,0,1,.861.123ZM82.057,2.865H80.774a11.232,11.232,0,0,1-2.725-7.673,11.658,11.658,0,0,1,2.725-7.8h1.3a11.845,11.845,0,0,0-2.76,7.778A11.638,11.638,0,0,0,82.057,2.865Zm3.324-7.629V0H83.9V-12.6h3.463a4.571,4.571,0,0,1,3.133.984,3.515,3.515,0,0,1,1.112,2.777,3.82,3.82,0,0,1-1.235,2.936,4.718,4.718,0,0,1-3.335,1.143Zm0-6.5V-6.1h1.547a3.458,3.458,0,0,0,2.333-.7,2.474,2.474,0,0,0,.8-1.973q0-2.5-2.953-2.5ZM95.235,0H93.794V-13.324h1.441ZM104.6,0h-1.441V-1.406h-.035A3.018,3.018,0,0,1,100.352.211a2.959,2.959,0,0,1-2.1-.712,2.466,2.466,0,0,1-.76-1.89q0-2.522,2.971-2.936l2.7-.378Q103.156-8,101.3-8a4.431,4.431,0,0,0-2.936,1.107V-8.367a5.577,5.577,0,0,1,3.059-.844q3.173,0,3.173,3.357Zm-1.441-4.553-2.171.3a3.525,3.525,0,0,0-1.512.5,1.432,1.432,0,0,0-.51,1.261,1.374,1.374,0,0,0,.47,1.077A1.817,1.817,0,0,0,100.686-1a2.314,2.314,0,0,0,1.771-.751,2.685,2.685,0,0,0,.7-1.9ZM114.786,0h-1.441V-5.133Q113.344-8,111.253-8a2.269,2.269,0,0,0-1.789.813,3.013,3.013,0,0,0-.708,2.052V0h-1.441V-9h1.441v1.494h.035a3.248,3.248,0,0,1,2.953-1.705A2.753,2.753,0,0,1,114-8.257a4.248,4.248,0,0,1,.782,2.755Zm2.753,2.865h-1.283A11.638,11.638,0,0,0,119-4.825a11.845,11.845,0,0,0-2.76-7.778h1.3a11.611,11.611,0,0,1,2.742,7.8A11.188,11.188,0,0,1,117.539,2.865Z" transform="translate(22.5 36.431)" fill="#212429"/>
        <g id="Elipse_12300-2" data-name="Elipse 12300" transform="translate(-43)" fill="#fff" stroke="#3b2a76" stroke-width="2">
          <circle cx="30" cy="30" r="30" stroke="none"/>
          <circle cx="30" cy="30" r="29" fill="none"/>
        </g>
      </g>
    </g>
    <g id="Grupo_1210515" data-name="Grupo 1210515" transform="translate(-205.035 -40.116)">
      <path id="Trazado_1055030-3" data-name="Trazado 1055030" d="M-118.276,11232l50.1-.071h28.522" transform="translate(1072.816 -10044.885)" fill="none" stroke="#3b2a76" stroke-width="2"/>
      <g id="Grupo_1210513-3" data-name="Grupo 1210513" transform="translate(948.178 1180.754)">
        <path id="Trazado_1043527-3" data-name="Trazado 1043527" d="M6.361,0a6.361,6.361,0,1,0,6.361,6.361A6.361,6.361,0,0,0,6.361,0Z" transform="translate(0)" fill="#7c6ea2"/>
        <g id="Grupo_1181473-3" data-name="Grupo 1181473" transform="matrix(-0.998, -0.07, 0.07, -0.998, 11.122, 11.838)">
          <g id="Elipse_12494-3" data-name="Elipse 12494" transform="translate(0.131 0.131)" fill="#ebd5ff" stroke="#48396f" stroke-width="1">
            <circle cx="5" cy="5" r="5" stroke="none"/>
            <circle cx="5" cy="5" r="4.5" fill="none"/>
          </g>
          <g id="Trazado_1043525-3" data-name="Trazado 1043525" transform="translate(0 0)" fill="#ebd5ff">
            <path d="M 5.130859375 9.761719703674316 C 2.577399492263794 9.761719703674316 0.4999993741512299 7.684319496154785 0.4999993741512299 5.130859375 C 0.4999993741512299 2.577399492263794 2.577399492263794 0.4999993741512299 5.130859375 0.4999993741512299 C 7.684319496154785 0.4999993741512299 9.761719703674316 2.577399492263794 9.761719703674316 5.130859375 C 9.761719703674316 7.684319496154785 7.684319496154785 9.761719703674316 5.130859375 9.761719703674316 Z" stroke="none"/>
            <path d="M 5.130859375 9.261719703674316 C 7.408619403839111 9.261719703674316 9.261719703674316 7.408619403839111 9.261719703674316 5.130859375 C 9.261719703674316 2.853099346160889 7.408619403839111 0.9999994039535522 5.130859375 0.9999994039535522 C 2.853099346160889 0.9999994039535522 0.9999994039535522 2.853099346160889 0.9999994039535522 5.130859375 C 0.9999994039535522 7.408619403839111 2.853099346160889 9.261719703674316 5.130859375 9.261719703674316 M 5.130859375 10.26171970367432 C 2.297159433364868 10.26171970367432 -6.24999984211172e-07 7.964559555053711 -6.24999984211172e-07 5.130859375 C -6.24999984211172e-07 2.297159433364868 2.297159433364868 -6.24999984211172e-07 5.130859375 -6.24999984211172e-07 C 7.964559555053711 -6.24999984211172e-07 10.26171970367432 2.297159433364868 10.26171970367432 5.130859375 C 10.26171970367432 7.964559555053711 7.964559555053711 10.26171970367432 5.130859375 10.26171970367432 Z" stroke="none" fill="#48396f"/>
          </g>
          <g id="Trazado_1043526-3" data-name="Trazado 1043526" transform="translate(0 0)" fill="#ebd5ff">
            <path d="M 5.130859375 9.761719703674316 C 2.577399492263794 9.761719703674316 0.4999993741512299 7.684319496154785 0.4999993741512299 5.130859375 C 0.4999993741512299 2.577399492263794 2.577399492263794 0.4999993741512299 5.130859375 0.4999993741512299 C 7.684319496154785 0.4999993741512299 9.761719703674316 2.577399492263794 9.761719703674316 5.130859375 C 9.761719703674316 7.684319496154785 7.684319496154785 9.761719703674316 5.130859375 9.761719703674316 Z" stroke="none"/>
            <path d="M 5.130859375 9.261719703674316 C 7.408619403839111 9.261719703674316 9.261719703674316 7.408619403839111 9.261719703674316 5.130859375 C 9.261719703674316 2.853099346160889 7.408619403839111 0.9999994039535522 5.130859375 0.9999994039535522 C 2.853099346160889 0.9999994039535522 0.9999994039535522 2.853099346160889 0.9999994039535522 5.130859375 C 0.9999994039535522 7.408619403839111 2.853099346160889 9.261719703674316 5.130859375 9.261719703674316 M 5.130859375 10.26171970367432 C 2.297159433364868 10.26171970367432 -6.24999984211172e-07 7.964559555053711 -6.24999984211172e-07 5.130859375 C -6.24999984211172e-07 2.297159433364868 2.297159433364868 -6.24999984211172e-07 5.130859375 -6.24999984211172e-07 C 7.964559555053711 -6.24999984211172e-07 10.26171970367432 2.297159433364868 10.26171970367432 5.130859375 C 10.26171970367432 7.964559555053711 7.964559555053711 10.26171970367432 5.130859375 10.26171970367432 Z" stroke="none" fill="#48396f"/>
          </g>
        </g>
      </g>
      <g id="Rectángulo_420773-3" data-name="Rectángulo 420773" transform="translate(1029.362 1167.116)" fill="#fff" stroke="#3b2a76" stroke-width="2">
        <rect width="155" height="40" rx="20" stroke="none"/>
        <rect x="1" y="1" width="153" height="38" rx="19" fill="none"/>
      </g>
      <path id="Trazado_1057516" data-name="Trazado 1057516" d="M11.127,0H9.65V-5.748H3.129V0H1.652V-12.6H3.129v5.528H9.65V-12.6h1.477Zm9.556,0H19.241V-1.406h-.035A3.018,3.018,0,0,1,16.437.211a2.959,2.959,0,0,1-2.1-.712,2.466,2.466,0,0,1-.76-1.89q0-2.522,2.971-2.936l2.7-.378Q19.241-8,17.387-8a4.431,4.431,0,0,0-2.936,1.107V-8.367a5.577,5.577,0,0,1,3.059-.844q3.173,0,3.173,3.357ZM19.241-4.553l-2.171.3a3.525,3.525,0,0,0-1.512.5,1.432,1.432,0,0,0-.51,1.261,1.374,1.374,0,0,0,.47,1.077A1.817,1.817,0,0,0,16.771-1a2.314,2.314,0,0,0,1.771-.751,2.685,2.685,0,0,0,.7-1.9ZM29.535-.413a4.684,4.684,0,0,1-2.461.624,4.074,4.074,0,0,1-3.107-1.252,4.539,4.539,0,0,1-1.182-3.248,4.99,4.99,0,0,1,1.274-3.573,4.458,4.458,0,0,1,3.4-1.349,4.735,4.735,0,0,1,2.092.439v1.477A3.665,3.665,0,0,0,27.408-8a2.9,2.9,0,0,0-2.263.989,3.752,3.752,0,0,0-.883,2.6,3.573,3.573,0,0,0,.831,2.5A2.863,2.863,0,0,0,27.32-1a3.613,3.613,0,0,0,2.215-.782ZM38.95-4.14H32.6a3.366,3.366,0,0,0,.809,2.32A2.788,2.788,0,0,0,35.531-1a4.422,4.422,0,0,0,2.795-1V-.65a5.224,5.224,0,0,1-3.138.861,3.8,3.8,0,0,1-3-1.226,5.018,5.018,0,0,1-1.09-3.45,4.921,4.921,0,0,1,1.191-3.423A3.819,3.819,0,0,1,35.25-9.211a3.384,3.384,0,0,1,2.733,1.143A4.764,4.764,0,0,1,38.95-4.9ZM37.473-5.361a2.933,2.933,0,0,0-.6-1.942A2.051,2.051,0,0,0,35.223-8a2.328,2.328,0,0,0-1.731.729,3.311,3.311,0,0,0-.879,1.907Zm8.351-2.18a1.763,1.763,0,0,0-1.09-.29,1.839,1.839,0,0,0-1.542.87,4.023,4.023,0,0,0-.62,2.373V0H41.131V-9h1.441v1.854h.035a3.143,3.143,0,0,1,.94-1.481,2.144,2.144,0,0,1,1.415-.532,2.353,2.353,0,0,1,.861.123ZM56.1,2.865H54.819a11.232,11.232,0,0,1-2.725-7.673,11.658,11.658,0,0,1,2.725-7.8h1.3a11.845,11.845,0,0,0-2.76,7.778A11.638,11.638,0,0,0,56.1,2.865ZM57.95,0V-12.6h3.48q6.662,0,6.662,6.144a6.191,6.191,0,0,1-1.85,4.689A6.863,6.863,0,0,1,61.29,0Zm1.477-11.268v9.932h1.881a5.338,5.338,0,0,0,3.858-1.327,4.975,4.975,0,0,0,1.38-3.762q0-4.843-5.15-4.843ZM74.141.211A4.175,4.175,0,0,1,70.955-1.05a4.672,4.672,0,0,1-1.191-3.344A4.867,4.867,0,0,1,71-7.937a4.455,4.455,0,0,1,3.349-1.274,4.037,4.037,0,0,1,3.142,1.239,4.914,4.914,0,0,1,1.129,3.437,4.835,4.835,0,0,1-1.217,3.45A4.265,4.265,0,0,1,74.141.211ZM74.247-8a2.742,2.742,0,0,0-2.2.945,3.88,3.88,0,0,0-.809,2.606,3.67,3.67,0,0,0,.817,2.522A2.778,2.778,0,0,0,74.247-1,2.635,2.635,0,0,0,76.4-1.907a3.928,3.928,0,0,0,.751-2.575,4,4,0,0,0-.751-2.6A2.623,2.623,0,0,0,74.247-8ZM80.963,2.865H79.68a11.638,11.638,0,0,0,2.742-7.69,11.845,11.845,0,0,0-2.76-7.778h1.3a11.611,11.611,0,0,1,2.742,7.8A11.188,11.188,0,0,1,80.963,2.865Z" transform="translate(1045.362 1193.616)" fill="#212429"/>
      <g id="Elipse_12300-3" data-name="Elipse 12300" transform="translate(1144.362 1157.116)" fill="#fff" stroke="#3b2a76" stroke-width="2">
        <circle cx="30" cy="30" r="30" stroke="none"/>
        <circle cx="30" cy="30" r="29" fill="none"/>
      </g>
    </g>
    <g id="Grupo_1211145" data-name="Grupo 1211145" transform="translate(874.802 945.651)">
      <g id="Grupo_1211144" data-name="Grupo 1211144" clip-path="url(#clip-path)">
        <g id="Grupo_1211137" data-name="Grupo 1211137">
          <g id="Grupo_1211136" data-name="Grupo 1211136" clip-path="url(#clip-path)">
            <path id="Trazado_1056773" data-name="Trazado 1056773" d="M41.13,97.2a11.349,11.349,0,0,1-15.492,4.156A50.764,50.764,0,0,1,0,56.948,50.744,50.744,0,0,1,25.637,12.543,11.344,11.344,0,0,1,36.982,32.19a28.588,28.588,0,0,0,0,49.515A11.338,11.338,0,0,1,41.13,97.2" transform="translate(0 -4.46)" fill="#f4c716"/>
            <g id="Grupo_1211125" data-name="Grupo 1211125" transform="translate(0 6.556)" style="mix-blend-mode: multiply;isolation: isolate">
              <g id="Grupo_1211124" data-name="Grupo 1211124">
                <g id="Grupo_1211123" data-name="Grupo 1211123" clip-path="url(#clip-path-3)">
                  <g id="Grupo_1211122" data-name="Grupo 1211122" transform="translate(0 0)">
                    <g id="Grupo_1211121" data-name="Grupo 1211121" clip-path="url(#clip-path-4)">
                      <rect id="Rectángulo_421018" data-name="Rectángulo 421018" width="44.261" height="93.465" transform="translate(0 -1.613)" fill="url(#radial-gradient)"/>
                    </g>
                  </g>
                </g>
              </g>
            </g>
            <path id="Trazado_1056775" data-name="Trazado 1056775" d="M64.85,131.827a51.163,51.163,0,0,1-25.638-6.952,11.344,11.344,0,0,1,11.344-19.648A28.587,28.587,0,0,0,93.437,80.468a11.344,11.344,0,1,1,22.688,0A51.471,51.471,0,0,1,64.85,131.827" transform="translate(-13.577 -27.984)" fill="#00beb9"/>
            <path id="Trazado_1056777" data-name="Trazado 1056777" d="M119.99,53.255a11.344,11.344,0,1,1-22.688,0A28.587,28.587,0,0,0,54.421,28.5,11.344,11.344,0,0,0,43.077,8.849,51.276,51.276,0,0,1,119.99,53.255" transform="translate(-17.439 -0.766)" fill="#5202b5"/>
          </g>
        </g>
        <g id="Grupo_1211139" data-name="Grupo 1211139" transform="translate(21.48 22.689)">
          <g id="Grupo_1211138" data-name="Grupo 1211138" clip-path="url(#clip-path-7)">
            <rect id="Rectángulo_421029" data-name="Rectángulo 421029" width="83.545" height="83.545" transform="translate(-28.769 37.552) rotate(-52.544)" fill="url(#linear-gradient)"/>
          </g>
        </g>
        <g id="Grupo_1211141" data-name="Grupo 1211141" transform="translate(27.422 28.631)">
          <g id="Grupo_1211140" data-name="Grupo 1211140" transform="translate(0)" clip-path="url(#clip-path-8)">
            <rect id="Rectángulo_421030" data-name="Rectángulo 421030" width="66.883" height="66.883" transform="translate(-23.031 30.062) rotate(-52.544)" fill="url(#linear-gradient-2)"/>
          </g>
        </g>
        <g id="Grupo_1211143" data-name="Grupo 1211143">
          <g id="Grupo_1211142" data-name="Grupo 1211142" clip-path="url(#clip-path)">
            <path id="Trazado_1056826" data-name="Trazado 1056826" d="M39.258,38.475l6.523-24.382L21.4,7.584,34.512,0,58.886,6.517,52.371,30.892Z" transform="translate(-8.662 0)" fill="#f4c716"/>
            <path id="Trazado_1056827" data-name="Trazado 1056827" d="M123.737,67.034l17.182,18.487L159.4,68.33l-.549,15.14-18.478,17.179L123.188,82.172Z" transform="translate(-49.871 -27.138)" fill="#5202b5"/>
            <path id="Trazado_1056828" data-name="Trazado 1056828" d="M53.015,124.763,28.134,129l4.249,24.878-12.362-8.76-4.238-24.872,24.873-4.239Z" transform="translate(-6.39 -46.963)" fill="#00beb9"/>
          </g>
        </g>
      </g>
    </g>
    <g id="Grupo_1211146" data-name="Grupo 1211146" transform="translate(952.89 986.302)">
      <g id="Grupo_1211057" data-name="Grupo 1211057" transform="translate(1.416)">
        <path id="Trazado_1056670" data-name="Trazado 1056670" d="M465.476,269.251s-24.918,19.987-46.263,12.872-29.642-47.356-29.642-47.356,4.783-8.207,0-11.042c0,0,.945-6.79-3.809-7.381-4.783-.561-23.589,5.108-4.458,19.84,0,0,5.4,72.569,46.529,75.108,41.1,2.539,40.595-7.824,40.595-7.824l-2.952-34.247Z" transform="translate(-372.89 -205.542)" fill="#5202b5"/>
        <path id="Trazado_1056671" data-name="Trazado 1056671" d="M389.585,241.886a19.212,19.212,0,0,0,1.653-3.956h0c4.4-1.358,2.1-12.607.177-14.5-1.447-1.388-3.454-.443-4.4.148-.974-1.889-6.17-11.75-9.034-10.865-2.126.679,0,7.41,1.653,11.809-6.17,2.244-12.134,8.178,1.683,18.806a154.536,154.536,0,0,0,2.864,18.57,59.878,59.878,0,0,0,10.481-3.277,116.985,116.985,0,0,1-5.048-16.71Z" transform="translate(-372.873 -212.661)" fill="#f4eed8"/>
      </g>
      <path id="Trazado_1056672" data-name="Trazado 1056672" d="M432.44,259.54l-17.95,22.792,3.9,4.487,23.648-18.895Z" transform="translate(-290.255 -121.137)" fill="#f4eed8"/>
      <path id="Trazado_1056673" data-name="Trazado 1056673" d="M408.48,232.31s28.962,2.982,35.487,12.488,30.025,35.074,27.545,54.589c-2.48,19.545-13.522,25.3-13.522,25.3L444.2,312.673s9-7.263,7.5-14.526-21.552-26.542-21.552-26.542l-15.766-31.56-5.934-7.735Z" transform="translate(-302.048 -174.3)" fill="#5202b5"/>
      <g id="Grupo_1211060" data-name="Grupo 1211060" transform="translate(0 6.049)">
        <g id="Grupo_1211058" data-name="Grupo 1211058" transform="translate(0 147.351)">
          <path id="Trazado_1056674" data-name="Trazado 1056674" d="M542.051,330.633a671.621,671.621,0,0,1-84.821,5.4,671.623,671.623,0,0,1-84.821-5.4,668.522,668.522,0,0,1,169.641,0Z" transform="translate(-372.41 -146.289)" fill="#5202b5"/>
          <path id="Trazado_1056675" data-name="Trazado 1056675" d="M430.852,322.69l.738,4.606,1.033,6.259-26.217,6.525a1.643,1.643,0,0,1-1.742-2.539,31.084,31.084,0,0,1,4.99-5.108,80.316,80.316,0,0,1,9.979-6.938l11.189-2.775Z" transform="translate(-310.042 -151.248)" fill="#fff"/>
          <path id="Trazado_1056676" data-name="Trazado 1056676" d="M417.4,322.69l-.3,4.635-.384,6.318-27.014.472a1.637,1.637,0,0,1-1.122-2.864,30.177,30.177,0,0,1,6.023-3.838,82.8,82.8,0,0,1,11.278-4.517l11.514-.207Z" transform="translate(-341.935 -151.248)" fill="#fff"/>
          <path id="Trazado_1056677" data-name="Trazado 1056677" d="M461.89,273.949s-3.307,41.3-12.37,78.06l9.211,85.943-14.466,1.476s-14.939-56.419-19.279-69.675c-4.871-14.88,0-51.666,0-51.666S412.2,346.311,412.2,359.892s1.506,76.466,1.506,76.466-9.654,2.687-14.466,0-8.562-83.787-8.562-83.787l18.747-87.95a374.365,374.365,0,0,0,52.463,9.359Z" transform="translate(-336.741 -264.62)" fill="#0e0e15"/>
        </g>
        <path id="Trazado_1056678" data-name="Trazado 1056678" d="M460.422,340.072c.738-8.709,3.425-66.6-.177-79.6-8.03-29.021-25.272-28.165-25.272-28.165-5.285,12.252-16.326,3.956-16.326,3.956s-19.426,11.78-12.99,43.931c4.163,20.755-4.281,39.768-10.776,50.633a74.764,74.764,0,0,0,65.542,9.241Z" transform="translate(-328.541 -180.351)" fill="#5202b5"/>
        <path id="Trazado_1056679" data-name="Trazado 1056679" d="M407.137,239.972s-6.968,4.163-7,7.883,4.635,9.566,4.635,9.566l6.849-7.853,6.613,9.506s21.316-16.356,7.292-25.331S407.137,240,407.137,240Z" transform="translate(-318.272 -183.08)" fill="#fff"/>
        <g id="Grupo_1211059" data-name="Grupo 1211059" transform="translate(75.229)">
          <path id="Trazado_1056680" data-name="Trazado 1056680" d="M398.714,230.768s-5.226,28.962,10.658,28.667c15.854-.3,21.759-11.691,20.637-18.541s-2.037-20.46-15.618-22.113c-13.61-1.653-15.647,11.987-15.647,11.987Z" transform="translate(-397.891 -207.032)" fill="#f4eed8"/>
          <path id="Trazado_1056681" data-name="Trazado 1056681" d="M442.793,232.04a13.46,13.46,0,0,0-4.96-4.753v-.059a8.571,8.571,0,0,0-.738-3.838,13.414,13.414,0,0,0-2.3-3.425,14.331,14.331,0,0,1,0,5.019,13.144,13.144,0,0,0-2.657-4.517,10.742,10.742,0,0,0-3.07-1.978,30.625,30.625,0,0,0-16.208-2.716,23.287,23.287,0,0,1-3.779.3,5.076,5.076,0,0,1-3.454-1.358,11.1,11.1,0,0,0,3.011,4.694c-11.78,4.045-10.068,15.411-10.068,15.411,3.838-1.476,7.824.443,7.824.443-.443,10.6,19.22,15.647,19.22,15.647,2.923-2.775,6.908-1.122,6.908-1.122a4.777,4.777,0,0,1,2.332,3.572c4.458-3.218,5.521-19.4,5.521-19.4a5.423,5.423,0,0,1,3.484.236,15.277,15.277,0,0,1-1.181-2.155Z" transform="translate(-396.741 -214.71)" fill="#0e0e15"/>
          <path id="Trazado_1056682" data-name="Trazado 1056682" d="M407.372,232.395a5.249,5.249,0,1,0,4.34-6.023A5.267,5.267,0,0,0,407.372,232.395Z" transform="translate(-379.506 -192.066)" fill="#f4eed8"/>
          <path id="Trazado_1056683" data-name="Trazado 1056683" d="M419.882,227.85l.65,3.927s.089.709.177,1.86c.118,1.506.266,3.779.266,6.082,0,3.572-.413,7.292-1.771,8.562-2.952,2.746-14.142,3.277-15.707,2.539-.5-.236-.768-2.244-.886-4.871-.059-1.417-.118-2.982-.118-4.576h0c-.03-4.842.148-9.684.148-9.684l17.271-3.838Z" transform="translate(-388.915 -189.056)" fill="#f4eed8"/>
          <path id="Trazado_1056684" data-name="Trazado 1056684" d="M420.715,229.81c.118,1.506.266,3.779.266,6.082-4.428,2.037-13.374,5.9-18.393,6.259-.059-1.417-.118-2.982-.118-4.576h0c.5-.118,16.267-3.336,18.245-7.735Z" transform="translate(-388.952 -185.23)" fill="#ebe0be"/>
        </g>
      </g>
    </g>
    <g id="Grupo_1211118" data-name="Grupo 1211118" transform="translate(1054.489 1017.777)">
      <g id="Grupo_1210518-3" data-name="Grupo 1210518">
        <path id="Trazado_1055030-4" data-name="Trazado 1055030" d="M-178.276,11264.623l30.667-32.694H31.718" transform="translate(184.929 -11201.998)" fill="none" stroke="#3b2a76" stroke-width="2"/>
        <g id="Grupo_1210513-4" data-name="Grupo 1210513" transform="translate(0 56.851)">
          <path id="Trazado_1043527-4" data-name="Trazado 1043527" d="M6.361,0a6.361,6.361,0,1,0,6.361,6.361A6.361,6.361,0,0,0,6.361,0Z" fill="#e1daf7"/>
          <g id="Grupo_1181473-4" data-name="Grupo 1181473" transform="matrix(-0.998, -0.07, 0.07, -0.998, 11.122, 11.838)">
            <g id="Elipse_12494-4" data-name="Elipse 12494" transform="translate(0.131 0.131)" fill="#efecfa" stroke="#48396f" stroke-width="1">
              <ellipse cx="5" cy="5" rx="5" ry="5" stroke="none"/>
              <ellipse cx="5" cy="5" rx="4.5" ry="4.5" fill="none"/>
            </g>
            <g id="Trazado_1043525-4" data-name="Trazado 1043525" transform="translate(0)" fill="#efecfa">
              <path d="M 5.130859851837158 9.761719703674316 C 2.577399969100952 9.761719703674316 0.4999998509883881 7.684319496154785 0.4999998509883881 5.130859375 C 0.4999998509883881 2.577399492263794 2.577399969100952 0.4999993741512299 5.130859851837158 0.4999993741512299 C 7.684319972991943 0.4999993741512299 9.761719703674316 2.577399492263794 9.761719703674316 5.130859375 C 9.761719703674316 7.684319496154785 7.684319972991943 9.761719703674316 5.130859851837158 9.761719703674316 Z" stroke="none"/>
              <path d="M 5.130859851837158 9.261719703674316 C 7.40861988067627 9.261719703674316 9.261719703674316 7.408619403839111 9.261719703674316 5.130859375 C 9.261719703674316 2.853099346160889 7.40861988067627 0.9999994039535522 5.130859851837158 0.9999994039535522 C 2.853099822998047 0.9999994039535522 0.9999998807907104 2.853099346160889 0.9999998807907104 5.130859375 C 0.9999998807907104 7.408619403839111 2.853099822998047 9.261719703674316 5.130859851837158 9.261719703674316 M 5.130859851837158 10.26171970367432 C 2.297159910202026 10.26171970367432 -1.481628402189017e-07 7.964559555053711 -1.481628402189017e-07 5.130859375 C -1.481628402189017e-07 2.297159433364868 2.297159910202026 -6.24999984211172e-07 5.130859851837158 -6.24999984211172e-07 C 7.964560031890869 -6.24999984211172e-07 10.26171970367432 2.297159433364868 10.26171970367432 5.130859375 C 10.26171970367432 7.964559555053711 7.964560031890869 10.26171970367432 5.130859851837158 10.26171970367432 Z" stroke="none" fill="#48396f"/>
            </g>
            <g id="Trazado_1043526-4" data-name="Trazado 1043526" transform="translate(0)" fill="#efecfa">
              <path d="M 5.130859851837158 9.761719703674316 C 2.577399969100952 9.761719703674316 0.4999998509883881 7.684319496154785 0.4999998509883881 5.130859375 C 0.4999998509883881 2.577399492263794 2.577399969100952 0.4999993741512299 5.130859851837158 0.4999993741512299 C 7.684319972991943 0.4999993741512299 9.761719703674316 2.577399492263794 9.761719703674316 5.130859375 C 9.761719703674316 7.684319496154785 7.684319972991943 9.761719703674316 5.130859851837158 9.761719703674316 Z" stroke="none"/>
              <path d="M 5.130859851837158 9.261719703674316 C 7.40861988067627 9.261719703674316 9.261719703674316 7.408619403839111 9.261719703674316 5.130859375 C 9.261719703674316 2.853099346160889 7.40861988067627 0.9999994039535522 5.130859851837158 0.9999994039535522 C 2.853099822998047 0.9999994039535522 0.9999998807907104 2.853099346160889 0.9999998807907104 5.130859375 C 0.9999998807907104 7.408619403839111 2.853099822998047 9.261719703674316 5.130859851837158 9.261719703674316 M 5.130859851837158 10.26171970367432 C 2.297159910202026 10.26171970367432 -1.481628402189017e-07 7.964559555053711 -1.481628402189017e-07 5.130859375 C -1.481628402189017e-07 2.297159433364868 2.297159910202026 -6.24999984211172e-07 5.130859851837158 -6.24999984211172e-07 C 7.964560031890869 -6.24999984211172e-07 10.26171970367432 2.297159433364868 10.26171970367432 5.130859375 C 10.26171970367432 7.964559555053711 7.964560031890869 10.26171970367432 5.130859851837158 10.26171970367432 Z" stroke="none" fill="#3b2a76"/>
            </g>
          </g>
        </g>
        <g id="Rectángulo_420773-4" data-name="Rectángulo 420773" transform="translate(73.025 10)" fill="#fff" stroke="#3b2a76" stroke-width="2">
          <rect width="189" height="40" rx="20" stroke="none"/>
          <rect x="1" y="1" width="187" height="38" rx="19" fill="none"/>
        </g>
        <path id="Trazado_1057517" data-name="Trazado 1057517" d="M11.021-12.6,6.354,0H4.729L.158-12.6H1.8L5.291-2.61a5.934,5.934,0,0,1,.255,1.116h.035a5.475,5.475,0,0,1,.29-1.134L9.431-12.6Zm7.71,8.464H12.377a3.366,3.366,0,0,0,.809,2.32A2.788,2.788,0,0,0,15.312-1a4.422,4.422,0,0,0,2.795-1V-.65A5.224,5.224,0,0,1,14.97.211a3.8,3.8,0,0,1-3-1.226,5.018,5.018,0,0,1-1.09-3.45,4.921,4.921,0,0,1,1.191-3.423,3.819,3.819,0,0,1,2.958-1.323,3.384,3.384,0,0,1,2.733,1.143A4.764,4.764,0,0,1,18.731-4.9ZM17.255-5.361a2.933,2.933,0,0,0-.6-1.942A2.051,2.051,0,0,0,15-8a2.328,2.328,0,0,0-1.731.729,3.311,3.311,0,0,0-.879,1.907Zm8.351-2.18a1.763,1.763,0,0,0-1.09-.29,1.839,1.839,0,0,0-1.542.87,4.023,4.023,0,0,0-.62,2.373V0H20.913V-9h1.441v1.854h.035a3.143,3.143,0,0,1,.94-1.481,2.144,2.144,0,0,1,1.415-.532,2.353,2.353,0,0,1,.861.123Zm2.3-3.744a.913.913,0,0,1-.659-.264.89.89,0,0,1-.272-.668.9.9,0,0,1,.272-.672.905.905,0,0,1,.659-.268.931.931,0,0,1,.672.268.9.9,0,0,1,.277.672.891.891,0,0,1-.277.659A.923.923,0,0,1,27.911-11.285ZM28.614,0H27.172V-9h1.441Zm7.367-12.059a1.92,1.92,0,0,0-.958-.237q-1.512,0-1.512,1.907V-9H35.62v1.23H33.511V0H32.078V-7.77H30.54V-9h1.538v-1.459A3.032,3.032,0,0,1,32.9-12.7a2.759,2.759,0,0,1,2.039-.822,2.824,2.824,0,0,1,1.046.158Zm1.927.773a.913.913,0,0,1-.659-.264.89.89,0,0,1-.272-.668.9.9,0,0,1,.272-.672.905.905,0,0,1,.659-.268.931.931,0,0,1,.672.268.9.9,0,0,1,.277.672.891.891,0,0,1-.277.659A.923.923,0,0,1,37.907-11.285ZM38.611,0H37.169V-9h1.441Zm9.055-.413A4.684,4.684,0,0,1,45.2.211,4.074,4.074,0,0,1,42.1-1.042a4.539,4.539,0,0,1-1.182-3.248A4.99,4.99,0,0,1,42.19-7.862a4.458,4.458,0,0,1,3.4-1.349,4.735,4.735,0,0,1,2.092.439v1.477A3.665,3.665,0,0,0,45.538-8a2.9,2.9,0,0,0-2.263.989,3.752,3.752,0,0,0-.883,2.6,3.573,3.573,0,0,0,.831,2.5A2.863,2.863,0,0,0,45.45-1a3.613,3.613,0,0,0,2.215-.782ZM56.289,0H54.848V-1.406h-.035A3.018,3.018,0,0,1,52.044.211a2.959,2.959,0,0,1-2.1-.712,2.466,2.466,0,0,1-.76-1.89q0-2.522,2.971-2.936l2.7-.378Q54.848-8,52.993-8a4.431,4.431,0,0,0-2.936,1.107V-8.367a5.577,5.577,0,0,1,3.059-.844q3.173,0,3.173,3.357ZM54.848-4.553l-2.171.3a3.525,3.525,0,0,0-1.512.5,1.432,1.432,0,0,0-.51,1.261,1.374,1.374,0,0,0,.47,1.077A1.817,1.817,0,0,0,52.378-1a2.314,2.314,0,0,0,1.771-.751,2.685,2.685,0,0,0,.7-1.9ZM63.7-7.541a1.763,1.763,0,0,0-1.09-.29,1.839,1.839,0,0,0-1.542.87,4.023,4.023,0,0,0-.62,2.373V0H59.007V-9h1.441v1.854h.035a3.143,3.143,0,0,1,.94-1.481,2.144,2.144,0,0,1,1.415-.532,2.353,2.353,0,0,1,.861.123ZM73.978,2.865H72.695A11.232,11.232,0,0,1,69.97-4.808a11.658,11.658,0,0,1,2.725-7.8H74a11.845,11.845,0,0,0-2.76,7.778A11.638,11.638,0,0,0,73.978,2.865ZM84.4-.527a7.392,7.392,0,0,1-3.48.738,5.613,5.613,0,0,1-4.307-1.731A6.389,6.389,0,0,1,75-6.064a6.7,6.7,0,0,1,1.819-4.887,6.175,6.175,0,0,1,4.614-1.863A7.4,7.4,0,0,1,84.4-12.3v1.573a6.024,6.024,0,0,0-2.988-.756,4.585,4.585,0,0,0-3.52,1.45,5.463,5.463,0,0,0-1.349,3.876,5.2,5.2,0,0,0,1.261,3.669,4.292,4.292,0,0,0,3.309,1.367A6.208,6.208,0,0,0,84.4-1.96ZM94.249,0H92.808V-5.186Q92.808-8,90.716-8a2.28,2.28,0,0,0-1.775.813A3.03,3.03,0,0,0,88.22-5.1V0H86.778V-13.324H88.22v5.818h.035a3.273,3.273,0,0,1,2.953-1.705q3.041,0,3.041,3.665ZM104.2-4.14H97.846a3.366,3.366,0,0,0,.809,2.32A2.788,2.788,0,0,0,100.781-1a4.422,4.422,0,0,0,2.795-1V-.65a5.224,5.224,0,0,1-3.138.861,3.8,3.8,0,0,1-3-1.226,5.018,5.018,0,0,1-1.09-3.45,4.921,4.921,0,0,1,1.191-3.423A3.819,3.819,0,0,1,100.5-9.211a3.384,3.384,0,0,1,2.733,1.143A4.764,4.764,0,0,1,104.2-4.9Zm-1.477-1.222a2.933,2.933,0,0,0-.6-1.942A2.051,2.051,0,0,0,100.474-8a2.328,2.328,0,0,0-1.731.729,3.311,3.311,0,0,0-.879,1.907Zm9.793,4.948a4.684,4.684,0,0,1-2.461.624,4.074,4.074,0,0,1-3.107-1.252,4.539,4.539,0,0,1-1.182-3.248,4.99,4.99,0,0,1,1.274-3.573,4.458,4.458,0,0,1,3.4-1.349,4.735,4.735,0,0,1,2.092.439v1.477a3.665,3.665,0,0,0-2.145-.7,2.9,2.9,0,0,0-2.263.989,3.752,3.752,0,0,0-.883,2.6,3.573,3.573,0,0,0,.831,2.5A2.863,2.863,0,0,0,110.3-1a3.613,3.613,0,0,0,2.215-.782ZM122.169,0h-2.021l-3.973-4.324h-.035V0H114.7V-13.324h1.441v8.446h.035L119.954-9h1.89l-4.175,4.342Zm1.514,2.865H122.4a11.638,11.638,0,0,0,2.742-7.69,11.845,11.845,0,0,0-2.76-7.778h1.3a11.611,11.611,0,0,1,2.742,7.8A11.188,11.188,0,0,1,123.682,2.865Z" transform="translate(81.647 36.431)" fill="#212429"/>
        <g id="Elipse_12300-4" data-name="Elipse 12300" transform="translate(222.025)" fill="#fff" stroke="#3b2a76" stroke-width="2">
          <circle cx="30" cy="30" r="30" stroke="none"/>
          <circle cx="30" cy="30" r="29" fill="none"/>
        </g>
      </g>
    </g>
  </g>
</svg>
