<svg xmlns="http://www.w3.org/2000/svg" xmlns:xlink="http://www.w3.org/1999/xlink" width="113" height="113" viewBox="0 0 113 113">
  <defs>
    <filter id="Trazado_982547" x="0" y="0" width="113" height="113" filterUnits="userSpaceOnUse">
      <feOffset dy="3" input="SourceAlpha"/>
      <feGaussianBlur stdDeviation="3" result="blur"/>
      <feFlood flood-opacity="0.161"/>
      <feComposite operator="in" in2="blur"/>
      <feComposite in="SourceGraphic"/>
    </filter>
  </defs>
  <g id="Grupo_1211321" data-name="Grupo 1211321" transform="translate(-271.75 -1279.984)">
    <g id="Grupo_1211033" data-name="Grupo 1211033" transform="translate(0 -167.853)">
      <g id="Grupo_1210937" data-name="Grupo 1210937" transform="translate(15.75 621.587)">
        <g id="Grupo_1174742" data-name="Grupo 1174742" transform="translate(-16 -280.75)">
          <g id="Grupo_1163948" data-name="Grupo 1163948" transform="translate(0 -1371)">
            <g id="Grupo_1158168" data-name="Grupo 1158168" transform="translate(281 2484)">
              <g id="Grupo_1152576" data-name="Grupo 1152576" transform="translate(0)">
                <g id="Grupo_1148633" data-name="Grupo 1148633">
                  <g id="Grupo_1148525" data-name="Grupo 1148525">
                    <g transform="matrix(1, 0, 0, 1, -9, -6)" filter="url(#Trazado_982547)">
                      <g id="Trazado_982547-2" data-name="Trazado 982547" transform="translate(9 6)" fill="#fdf6e4">
                        <path d="M 47.5 93.5 C 41.28937149047852 93.5 35.26533508300781 92.28397369384766 29.59518623352051 89.88570404052734 C 24.11771965026855 87.56893157958984 19.19813346862793 84.25196075439453 14.97309303283691 80.02691650390625 C 10.74804019927979 75.80186462402344 7.431066513061523 70.88229370117188 5.114293098449707 65.40481567382812 C 2.716026782989502 59.73468017578125 1.5 53.71062850952148 1.5 47.5 C 1.5 41.28937149047852 2.716026782989502 35.26533508300781 5.114293098449707 29.59518623352051 C 7.431066513061523 24.11771965026855 10.74804019927979 19.19813346862793 14.97309303283691 14.97309303283691 C 19.19813346862793 10.74804019927979 24.11771965026855 7.431066513061523 29.59518623352051 5.114293098449707 C 35.26533508300781 2.716026782989502 41.28937149047852 1.5 47.5 1.5 C 53.71062850952148 1.5 59.73468017578125 2.716026782989502 65.40481567382812 5.114293098449707 C 70.88229370117188 7.431066513061523 75.80186462402344 10.74804019927979 80.02691650390625 14.97309303283691 C 84.25196075439453 19.19813346862793 87.56893157958984 24.11771965026855 89.88570404052734 29.59518623352051 C 92.28397369384766 35.26533508300781 93.5 41.28937149047852 93.5 47.5 C 93.5 53.71062850952148 92.28397369384766 59.73468017578125 89.88570404052734 65.40481567382812 C 87.56893157958984 70.88229370117188 84.25196075439453 75.80186462402344 80.02691650390625 80.02691650390625 C 75.80186462402344 84.25196075439453 70.88229370117188 87.56893157958984 65.40481567382812 89.88570404052734 C 59.73468017578125 92.28397369384766 53.71062850952148 93.5 47.5 93.5 Z" stroke="none"/>
                        <path d="M 47.5 3 C 41.49121475219727 3 35.66376876831055 4.176155090332031 30.17950439453125 6.495796203613281 C 24.88084411621094 8.736953735351562 20.12152099609375 11.94598388671875 16.03375244140625 16.03375244140625 C 11.94598388671875 20.12152099609375 8.736953735351562 24.88084411621094 6.495796203613281 30.17950439453125 C 4.176155090332031 35.66376876831055 3 41.49121475219727 3 47.5 C 3 53.50878524780273 4.176155090332031 59.33623123168945 6.495796203613281 64.82049560546875 C 8.736953735351562 70.11915588378906 11.94598388671875 74.87847900390625 16.03375244140625 78.96624755859375 C 20.12152099609375 83.05401611328125 24.88084411621094 86.26304626464844 30.17950439453125 88.50419616699219 C 35.66376876831055 90.82384490966797 41.49121475219727 92 47.5 92 C 53.50878524780273 92 59.33623123168945 90.82384490966797 64.82049560546875 88.50419616699219 C 70.11915588378906 86.26304626464844 74.87847900390625 83.05401611328125 78.96624755859375 78.96624755859375 C 83.05401611328125 74.87847900390625 86.26304626464844 70.11915588378906 88.50419616699219 64.82049560546875 C 90.82384490966797 59.33623123168945 92 53.50878524780273 92 47.5 C 92 41.49121475219727 90.82384490966797 35.66376876831055 88.50419616699219 30.17950439453125 C 86.26304626464844 24.88084411621094 83.05401611328125 20.12152099609375 78.96624755859375 16.03375244140625 C 74.87847900390625 11.94598388671875 70.11915588378906 8.736953735351562 64.82049560546875 6.495796203613281 C 59.33623123168945 4.176155090332031 53.50878524780273 3 47.5 3 M 47.5 0 C 73.7335205078125 0 95 21.2664794921875 95 47.5 C 95 73.7335205078125 73.7335205078125 95 47.5 95 C 21.2664794921875 95 0 73.7335205078125 0 47.5 C 0 21.2664794921875 21.2664794921875 0 47.5 0 Z" stroke="none" fill="#f5b104"/>
                      </g>
                    </g>
                  </g>
                </g>
              </g>
            </g>
          </g>
        </g>
      </g>
    </g>
    <g id="consultant_12886604" transform="translate(293.615 1302.62)">
      <g id="Grupo_1211352" data-name="Grupo 1211352" transform="translate(6.789 1.374)">
        <g id="Grupo_1211338" data-name="Grupo 1211338" transform="translate(35.174 16.342)">
          <path id="Trazado_1057055" data-name="Trazado 1057055" d="M312.778,140.206a12.413,12.413,0,0,1,7.29,19.875l.978,4.319-4.374-1.358a12.407,12.407,0,1,1-3.893-22.836Z" transform="translate(-297.93 -139.962)" fill="#ff5ba8" fill-rule="evenodd"/>
        </g>
        <g id="Grupo_1211339" data-name="Grupo 1211339" transform="translate(35.174 16.342)">
          <path id="Trazado_1057056" data-name="Trazado 1057056" d="M312.778,140.206a12.377,12.377,0,0,1,8.3,5.939,12.638,12.638,0,0,0-21.761,11.915,12.408,12.408,0,0,1,13.465-17.854Z" transform="translate(-297.93 -139.962)" fill="#ed4593" fill-rule="evenodd"/>
        </g>
        <g id="Grupo_1211340" data-name="Grupo 1211340" transform="translate(12.568 8.537)">
          <path id="Trazado_1057057" data-name="Trazado 1057057" d="M142.161,94.354h-27.35V89.718c0-13.944,22.839-15.815,22.839-9.6v1.522h1.2a3.322,3.322,0,0,1,3.313,3.31Z" transform="translate(-114.811 -76.735)" fill="#4a4d71" fill-rule="evenodd"/>
        </g>
        <g id="Grupo_1211341" data-name="Grupo 1211341" transform="translate(12.568 8.537)">
          <path id="Trazado_1057058" data-name="Trazado 1057058" d="M116.111,94.352h-1.3V89.716c0-12.45,18.2-15.274,22.106-11.315-5.6-2.535-20.808.8-20.808,12.184Z" transform="translate(-114.812 -76.733)" fill="#3f4266" fill-rule="evenodd"/>
        </g>
        <g id="Grupo_1211342" data-name="Grupo 1211342" transform="translate(7.824 42.467)">
          <path id="Trazado_1057059" data-name="Trazado 1057059" d="M113.331,370.456H76.377V358.512a6.945,6.945,0,0,1,6.926-6.923h23.1a6.945,6.945,0,0,1,6.926,6.923v11.943Z" transform="translate(-76.377 -351.589)" fill="#8399fe" fill-rule="evenodd"/>
        </g>
        <g id="Grupo_1211343" data-name="Grupo 1211343" transform="translate(21.003 42.467)">
          <path id="Trazado_1057060" data-name="Trazado 1057060" d="M183.138,351.589H193.73c0,.255,0,.649,0,1.232,0,3.093-2.21,11.207-5.3,13.061-3.09-1.854-5.3-9.967-5.3-13.061Z" transform="translate(-183.138 -351.589)" fill="#deddff" fill-rule="evenodd"/>
        </g>
        <g id="Grupo_1211344" data-name="Grupo 1211344" transform="translate(27.884 42.467)">
          <path id="Trazado_1057061" data-name="Trazado 1057061" d="M242.594,351.589l5.181,5.551-8.9,7.185c2.234-3.072,3.715-8.972,3.715-11.5v-1.232Z" transform="translate(-238.879 -351.589)" fill="#6a85f2" fill-rule="evenodd"/>
        </g>
        <g id="Grupo_1211345" data-name="Grupo 1211345" transform="translate(15.822 42.467)">
          <path id="Trazado_1057062" data-name="Trazado 1057062" d="M146.35,351.589l-5.181,5.551,8.9,7.185c-2.234-3.072-3.715-8.972-3.715-11.5v-1.232Z" transform="translate(-141.169 -351.589)" fill="#6a85f2" fill-rule="evenodd"/>
        </g>
        <g id="Grupo_1211346" data-name="Grupo 1211346" transform="translate(7.824 42.467)">
          <path id="Trazado_1057063" data-name="Trazado 1057063" d="M78.112,370.456V358.512a6.945,6.945,0,0,1,6.926-6.923H83.3a6.945,6.945,0,0,0-6.926,6.923v11.943Z" transform="translate(-76.377 -351.589)" fill="#728bf1" fill-rule="evenodd"/>
        </g>
        <g id="Grupo_1211347" data-name="Grupo 1211347" transform="translate(21.003 42.467)">
          <path id="Trazado_1057064" data-name="Trazado 1057064" d="M183.138,351.589h1.3v.824c0,2.95,2,10.46,4.867,12.764a4.327,4.327,0,0,1-.873.705c-3.09-1.854-5.3-9.967-5.3-13.061C183.138,352.238,183.138,351.844,183.138,351.589Z" transform="translate(-183.138 -351.589)" fill="#c6c6f7" fill-rule="evenodd"/>
        </g>
        <g id="Grupo_1211348" data-name="Grupo 1211348" transform="translate(21.003 33.868)">
          <path id="Trazado_1057065" data-name="Trazado 1057065" d="M193.734,281.934h-10.6v8.6a5.3,5.3,0,0,0,10.6,0Z" transform="translate(-183.138 -281.934)" fill="#f7a081" fill-rule="evenodd"/>
        </g>
        <g id="Grupo_1211349" data-name="Grupo 1211349" transform="translate(11.5 17.502)">
          <path id="Trazado_1057066" data-name="Trazado 1057066" d="M108.708,161.895c1.009,6.389,6.106,11.249,12.247,11.249s11.242-4.86,12.251-11.249a3.075,3.075,0,0,0,2.552-3.114,3.036,3.036,0,0,0-2.929-3.135,2.765,2.765,0,0,0-1.693.58l-1.114-4.507a3.091,3.091,0,0,0-3.46-2.322l-6.085.894-5.485.157a4.338,4.338,0,0,0-4.214,4.336v1.442a2.776,2.776,0,0,0-1.7-.58,3.035,3.035,0,0,0-2.926,3.135A3.072,3.072,0,0,0,108.708,161.895Z" transform="translate(-106.156 -149.362)" fill="#ffaf93" fill-rule="evenodd"/>
        </g>
        <g id="Grupo_1211350" data-name="Grupo 1211350" transform="translate(0)">
          <path id="Trazado_1057067" data-name="Trazado 1057067" d="M33.361,19.528H30.582V25.3l-4.643-5.774H14.1a1.1,1.1,0,0,1-1.1-1.1V8.681a1.1,1.1,0,0,1,1.1-1.1H33.361a1.1,1.1,0,0,1,1.1,1.1v9.747A1.1,1.1,0,0,1,33.361,19.528Z" transform="translate(-13 -7.581)" fill="#fdd835" fill-rule="evenodd"/>
        </g>
        <g id="Grupo_1211351" data-name="Grupo 1211351">
          <path id="Trazado_1057068" data-name="Trazado 1057068" d="M15.9,19.528a1.1,1.1,0,0,1-1.1-1.1V8.681a1.1,1.1,0,0,1,1.1-1.1H14.1a1.1,1.1,0,0,0-1.1,1.1v9.747a1.1,1.1,0,0,0,1.1,1.1Z" transform="translate(-13 -7.581)" fill="#fbc02d" fill-rule="evenodd"/>
        </g>
      </g>
      <path id="Trazado_1057069" data-name="Trazado 1057069" d="M23.736,18.85a.863.863,0,0,0,1.491-.591V14.177h1.917a1.967,1.967,0,0,0,1.963-1.966V2.463A1.965,1.965,0,0,0,27.145.5H7.877A1.965,1.965,0,0,0,5.914,2.463V12.21a1.967,1.967,0,0,0,1.963,1.966h11.47Zm-16.1-6.64V2.463a.241.241,0,0,1,.238-.237H27.145a.241.241,0,0,1,.238.237V12.21a.239.239,0,0,1-.238.241h-2.78a.863.863,0,0,0-.863.863v2.767l-3.154-3.358a.863.863,0,0,0-.629-.272H7.877a.242.242,0,0,1-.238-.241ZM35.726,29.5a2.75,2.75,0,0,1,5.5,0,.863.863,0,1,1-1.725,0,1.025,1.025,0,0,0-2.05,0,.863.863,0,1,1-1.725,0ZM18.232,7.338a.863.863,0,0,1-.863.863H16.262a.863.863,0,0,1,0-1.725h1.107A.863.863,0,0,1,18.232,7.338Zm-5.019,0a.863.863,0,0,1-.863.863H11.24a.863.863,0,0,1,0-1.725h1.111A.863.863,0,0,1,13.213,7.338Zm7.209,0a.863.863,0,0,1,.863-.863h1.107a.863.863,0,0,1,0,1.725H21.285a.863.863,0,0,1-.863-.863Zm9.164,23.026a.863.863,0,0,1-.863-.863,1.025,1.025,0,0,0-2.05,0,.863.863,0,0,1-1.725,0,2.75,2.75,0,0,1,5.5,0A.863.863,0,0,1,29.586,30.364Zm27.044.075a3.616,3.616,0,0,1-.951.224c0,.084,0,.173,0,.264v1.663a.863.863,0,1,1-1.725,0V30.926c0-1,0-1.377.371-1.722a1.139,1.139,0,0,1,.921-.264,1.6,1.6,0,0,0,.783-.118,2.136,2.136,0,0,0-.744-4.137A2.12,2.12,0,0,0,53.465,25.7.863.863,0,0,1,52,24.792a3.862,3.862,0,0,1,7.147,2.028,3.88,3.88,0,0,1-2.513,3.62ZM67.4,32.734a13.365,13.365,0,0,1-2.356,5.309l.889,3.926a.863.863,0,0,1-1.1,1.014l-4.017-1.247a13.267,13.267,0,0,1-16.379-2.813.863.863,0,0,1,1.293-1.142A11.541,11.541,0,0,0,60.27,40.058a.862.862,0,0,1,.7-.082l2.949.916-.648-2.863a.863.863,0,0,1,.166-.727,11.555,11.555,0,0,0-13.359-17.9.863.863,0,0,1-.645-1.6A13.278,13.278,0,0,1,67.4,32.734ZM33.086,37.915a4.616,4.616,0,0,1-3.56-1.875.863.863,0,1,1,1.331-1.1,3.03,3.03,0,0,0,2.23,1.248,3.03,3.03,0,0,0,2.23-1.248.863.863,0,0,1,1.331,1.1A4.617,4.617,0,0,1,33.086,37.915Zm21.73-3.664a1.521,1.521,0,1,1-1.523,1.523A1.523,1.523,0,0,1,54.816,34.251ZM44.642,42.983H39.25v-1.1a13.251,13.251,0,0,0,2.475-1.816,14.743,14.743,0,0,0,4.366-7.947,4,4,0,0,0,2.665-3.823,4.092,4.092,0,0,0-1.184-2.9V18.123A4.18,4.18,0,0,0,43.4,13.95H43.06v-.66a3.346,3.346,0,0,0-1.371-2.672c-2.071-1.639-6.42-2.041-10.82-1a.863.863,0,0,0,.4,1.679c3.854-.911,7.7-.634,9.353.674a1.64,1.64,0,0,1,.716,1.319v1.523a.863.863,0,0,0,.863.863h1.2a2.453,2.453,0,0,1,2.452,2.448V24.4a3.611,3.611,0,0,0-2,.066l-.852-3.45a3.946,3.946,0,0,0-4.423-2.969l-6.038.883-5.436.159a5.175,5.175,0,0,0-5.054,5.2v.1a3.638,3.638,0,0,0-.835-.1,3.6,3.6,0,0,0-1,.141V22.89a10.332,10.332,0,0,1,.955-4.432.863.863,0,1,0-1.561-.734,12.041,12.041,0,0,0-1.119,5.166v2.623a4.1,4.1,0,0,0-1.069,2.779,4,4,0,0,0,2.665,3.824,14.746,14.746,0,0,0,4.364,7.947,13.241,13.241,0,0,0,2.477,1.818v1.1h-5.4a7.8,7.8,0,0,0-7.788,7.788V62.719a.863.863,0,0,0,1.725,0V50.771a6.07,6.07,0,0,1,6.063-6.063H25.8l-3.828,4.1a.863.863,0,0,0,.089,1.26L30.9,57.207a6.331,6.331,0,0,0,1.743,1.677.862.862,0,0,0,.888,0,6.334,6.334,0,0,0,1.739-1.671l8.844-7.143a.863.863,0,0,0,.089-1.26l-3.828-4.1h4.27a6.07,6.07,0,0,1,6.063,6.063V62.719a.863.863,0,1,0,1.725,0V50.771a7.8,7.8,0,0,0-7.788-7.788ZM21.686,31.274a.863.863,0,0,0-.734-.72,2.217,2.217,0,0,1-1.808-2.261,2.179,2.179,0,0,1,2.064-2.274,1.914,1.914,0,0,1,1.173.4.863.863,0,0,0,1.387-.685V24.294a3.459,3.459,0,0,1,3.378-3.475l5.487-.161a.9.9,0,0,0,.1-.009l6.088-.891a2.229,2.229,0,0,1,2.5,1.676l1.114,4.509a.863.863,0,0,0,1.362.478,1.909,1.909,0,0,1,1.169-.4,2.18,2.18,0,0,1,2.068,2.274,2.218,2.218,0,0,1-1.808,2.261.863.863,0,0,0-.734.72c-.963,6.1-5.759,10.525-11.4,10.525s-10.437-4.426-11.4-10.525ZM37.525,42.7v1.15a4.437,4.437,0,0,1-8.874,0V42.7a12.306,12.306,0,0,0,8.874,0ZM23.868,49.31l3.106-3.328a29.392,29.392,0,0,0,1.864,7.342Zm9.218,7.768c-1.694-1.469-3.183-5.311-3.929-8.491a6.151,6.151,0,0,0,7.861,0C36.272,51.766,34.781,55.609,33.086,57.078Zm9.221-7.768-4.972,4.016A29.373,29.373,0,0,0,39.2,45.982Z"/>
    </g>
  </g>
</svg>
