<svg xmlns="http://www.w3.org/2000/svg" xmlns:xlink="http://www.w3.org/1999/xlink" width="113" height="113" viewBox="0 0 113 113">
  <defs>
    <filter id="Trazado_982547" x="0" y="0" width="113" height="113" filterUnits="userSpaceOnUse">
      <feOffset dy="3" input="SourceAlpha"/>
      <feGaussianBlur stdDeviation="3" result="blur"/>
      <feFlood flood-opacity="0.161"/>
      <feComposite operator="in" in2="blur"/>
      <feComposite in="SourceGraphic"/>
    </filter>
  </defs>
  <g id="Grupo_1211537" data-name="Grupo 1211537" transform="translate(-13307.02 -1592.846)">
    <g id="Grupo_1211210" data-name="Grupo 1211210" transform="translate(13316.02 1598.846)">
      <g id="Grupo_1210736" data-name="Grupo 1210736" transform="translate(0)">
        <g id="Grupo_1210537" data-name="Grupo 1210537">
          <g id="Grupo_1164202" data-name="Grupo 1164202">
            <g id="Grupo_1158168" data-name="Grupo 1158168">
              <g id="Grupo_1152576" data-name="Grupo 1152576">
                <g id="Grupo_1148633" data-name="Grupo 1148633">
                  <g id="Grupo_1148525" data-name="Grupo 1148525">
                    <g transform="matrix(1, 0, 0, 1, -9, -6)" filter="url(#Trazado_982547)">
                      <g id="Trazado_982547-2" data-name="Trazado 982547" transform="translate(9 6)" fill="#fdf6e4">
                        <path d="M 47.5 93.5 C 41.28937149047852 93.5 35.26533508300781 92.28397369384766 29.59518623352051 89.88570404052734 C 24.11771965026855 87.56893157958984 19.19813346862793 84.25196075439453 14.97309303283691 80.02691650390625 C 10.74804019927979 75.80186462402344 7.431066513061523 70.88229370117188 5.114293098449707 65.40481567382812 C 2.716026782989502 59.73468017578125 1.5 53.71062850952148 1.5 47.5 C 1.5 41.28937149047852 2.716026782989502 35.26533508300781 5.114293098449707 29.59518623352051 C 7.431066513061523 24.11771965026855 10.74804019927979 19.19813346862793 14.97309303283691 14.97309303283691 C 19.19813346862793 10.74804019927979 24.11771965026855 7.431066513061523 29.59518623352051 5.114293098449707 C 35.26533508300781 2.716026782989502 41.28937149047852 1.5 47.5 1.5 C 53.71062850952148 1.5 59.73468017578125 2.716026782989502 65.40481567382812 5.114293098449707 C 70.88229370117188 7.431066513061523 75.80186462402344 10.74804019927979 80.02691650390625 14.97309303283691 C 84.25196075439453 19.19813346862793 87.56893157958984 24.11771965026855 89.88570404052734 29.59518623352051 C 92.28397369384766 35.26533508300781 93.5 41.28937149047852 93.5 47.5 C 93.5 53.71062850952148 92.28397369384766 59.73468017578125 89.88570404052734 65.40481567382812 C 87.56893157958984 70.88229370117188 84.25196075439453 75.80186462402344 80.02691650390625 80.02691650390625 C 75.80186462402344 84.25196075439453 70.88229370117188 87.56893157958984 65.40481567382812 89.88570404052734 C 59.73468017578125 92.28397369384766 53.71062850952148 93.5 47.5 93.5 Z" stroke="none"/>
                        <path d="M 47.5 3 C 41.49121475219727 3 35.66376876831055 4.176155090332031 30.17950439453125 6.495796203613281 C 24.88084411621094 8.736953735351562 20.12152099609375 11.94598388671875 16.03375244140625 16.03375244140625 C 11.94598388671875 20.12152099609375 8.736953735351562 24.88084411621094 6.495796203613281 30.17950439453125 C 4.176155090332031 35.66376876831055 3 41.49121475219727 3 47.5 C 3 53.50878524780273 4.176155090332031 59.33623123168945 6.495796203613281 64.82049560546875 C 8.736953735351562 70.11915588378906 11.94598388671875 74.87847900390625 16.03375244140625 78.96624755859375 C 20.12152099609375 83.05401611328125 24.88084411621094 86.26304626464844 30.17950439453125 88.50419616699219 C 35.66376876831055 90.82384490966797 41.49121475219727 92 47.5 92 C 53.50878524780273 92 59.33623123168945 90.82384490966797 64.82049560546875 88.50419616699219 C 70.11915588378906 86.26304626464844 74.87847900390625 83.05401611328125 78.96624755859375 78.96624755859375 C 83.05401611328125 74.87847900390625 86.26304626464844 70.11915588378906 88.50419616699219 64.82049560546875 C 90.82384490966797 59.33623123168945 92 53.50878524780273 92 47.5 C 92 41.49121475219727 90.82384490966797 35.66376876831055 88.50419616699219 30.17950439453125 C 86.26304626464844 24.88084411621094 83.05401611328125 20.12152099609375 78.96624755859375 16.03375244140625 C 74.87847900390625 11.94598388671875 70.11915588378906 8.736953735351562 64.82049560546875 6.495796203613281 C 59.33623123168945 4.176155090332031 53.50878524780273 3 47.5 3 M 47.5 0 C 73.7335205078125 0 95 21.2664794921875 95 47.5 C 95 73.7335205078125 73.7335205078125 95 47.5 95 C 21.2664794921875 95 0 73.7335205078125 0 47.5 C 0 21.2664794921875 21.2664794921875 0 47.5 0 Z" stroke="none" fill="#f5b104"/>
                      </g>
                    </g>
                  </g>
                </g>
              </g>
            </g>
          </g>
        </g>
      </g>
    </g>
    <g id="feedback-loop_12984525" transform="translate(13299.808 1603.006)">
      <g id="Grupo_1211530" data-name="Grupo 1211530" transform="translate(31.878 7.5)">
        <path id="Trazado_1057409" data-name="Trazado 1057409" d="M168.15,168.249H153.655a2.078,2.078,0,0,0-2.078,2.078v18.581a2.078,2.078,0,0,0,2.078,2.078H179.62a2.078,2.078,0,0,0,2.078-2.078V166.44a1.809,1.809,0,0,0-1.809-1.809h-8.121a1.809,1.809,0,0,0-1.809,1.809h0A1.809,1.809,0,0,1,168.15,168.249Z" transform="translate(-134.313 -141.969)" fill="#f9d75a"/>
        <path id="Trazado_1057410" data-name="Trazado 1057410" d="M179.889,164.631h-2.518v19.951a2.078,2.078,0,0,1-2.078,2.078H151.577v2.249a2.078,2.078,0,0,0,2.078,2.078H179.62a2.078,2.078,0,0,0,2.078-2.078V166.44A1.809,1.809,0,0,0,179.889,164.631Z" transform="translate(-134.313 -141.969)" fill="#f8cb3c"/>
        <circle id="Elipse_12573" data-name="Elipse 12573" cx="6.816" cy="6.816" r="6.816" transform="translate(25.743 31.105)" fill="#72fbac"/>
        <path id="Trazado_1057411" data-name="Trazado 1057411" d="M278.842,258.633a32.115,32.115,0,0,0,9.468-22.858l-3.364-2.885-4.038,2.885A24.953,24.953,0,0,1,255.984,260.7v7.4A32.115,32.115,0,0,0,278.842,258.633Z" transform="translate(-223.662 -200.383)" fill="#a0cfff"/>
        <path id="Trazado_1057412" data-name="Trazado 1057412" d="M269.286,398.976a24.776,24.776,0,0,1-13.3,3.855v7.4a32.236,32.236,0,0,0,13.3-2.847Z" transform="translate(-223.662 -342.515)" fill="#7fc5ff"/>
        <path id="Trazado_1057413" data-name="Trazado 1057413" d="M41.346,44.439A32.339,32.339,0,0,0,57.421,98.913v2.525a1.249,1.249,0,0,0,1.874,1.082L70.364,96.13a1.249,1.249,0,0,0,0-2.164L59.295,87.575a1.249,1.249,0,0,0-1.874,1.082v2.627A24.926,24.926,0,0,1,64.2,42.373v-7.4A32.116,32.116,0,0,0,41.346,44.439Z" transform="translate(-31.878 -31.009)" fill="#f68157"/>
        <path id="Trazado_1057414" data-name="Trazado 1057414" d="M163.772,46.231a24.776,24.776,0,0,1,13.3-3.857v-7.4a32.234,32.234,0,0,0-13.3,2.848Z" transform="translate(-144.749 -31.011)" fill="#f26b38"/>
        <path id="Trazado_1057415" data-name="Trazado 1057415" d="M248.059,42.891a32.349,32.349,0,0,0-25.543-31.615V8.751a1.249,1.249,0,0,0-1.874-1.082l-11.069,6.391a1.249,1.249,0,0,0,0,2.164l11.069,6.391a1.249,1.249,0,0,0,1.874-1.082V18.9a24.97,24.97,0,0,1,18.141,23.986h7.4Z" transform="translate(-183.41 -7.5)" fill="#a0cfff"/>
      </g>
      <g id="Grupo_1211531" data-name="Grupo 1211531" transform="translate(31.878 7.5)">
        <circle id="Elipse_12574" data-name="Elipse 12574" cx="6.816" cy="6.816" r="6.816" transform="translate(25.743 31.105)" fill="none" stroke="#000" stroke-linecap="round" stroke-linejoin="round" stroke-miterlimit="10" stroke-width="1"/>
        <path id="Trazado_1057416" data-name="Trazado 1057416" d="M246.76,257.706l-3.438,3.438-1.138-1.138" transform="translate(-211.852 -221.62)" fill="none" stroke="#000" stroke-linecap="round" stroke-linejoin="round" stroke-miterlimit="10" stroke-width="1"/>
        <path id="Trazado_1057417" data-name="Trazado 1057417" d="M168.15,168.249H153.655a2.078,2.078,0,0,0-2.078,2.078v18.581a2.078,2.078,0,0,0,2.078,2.078H179.62a2.078,2.078,0,0,0,2.078-2.078V166.44a1.809,1.809,0,0,0-1.809-1.809h-8.121a1.809,1.809,0,0,0-1.809,1.809h0A1.809,1.809,0,0,1,168.15,168.249Z" transform="translate(-134.313 -141.969)" fill="none" stroke="#000" stroke-linecap="round" stroke-linejoin="round" stroke-miterlimit="10" stroke-width="1"/>
        <path id="Trazado_1057418" data-name="Trazado 1057418" d="M35.816,95.989a32.357,32.357,0,0,0,21.6,47.11v2.525a1.249,1.249,0,0,0,1.874,1.082l11.069-6.391a1.249,1.249,0,0,0,0-2.164l-11.069-6.391a1.249,1.249,0,0,0-1.874,1.082v2.627A24.927,24.927,0,0,1,62.695,86.6" transform="translate(-31.878 -75.195)" fill="none" stroke="#000" stroke-linecap="round" stroke-linejoin="round" stroke-miterlimit="10" stroke-width="1"/>
        <path id="Trazado_1057419" data-name="Trazado 1057419" d="M100.86,35.291a32.091,32.091,0,0,0-21.114,9.422,32.8,32.8,0,0,0-3,3.444" transform="translate(-70.278 -31.283)" fill="none" stroke="#000" stroke-linecap="round" stroke-linejoin="round" stroke-miterlimit="10" stroke-width="1"/>
        <path id="Trazado_1057420" data-name="Trazado 1057420" d="M283.875,372.807a24.864,24.864,0,0,1-16.253,7.574" transform="translate(-233.622 -320.12)" fill="none" stroke="#000" stroke-linecap="round" stroke-linejoin="round" stroke-miterlimit="10" stroke-width="1"/>
        <path id="Trazado_1057421" data-name="Trazado 1057421" d="M405.676,252.89a24.778,24.778,0,0,1-3.9,13.37" transform="translate(-348.429 -217.498)" fill="none" stroke="#000" stroke-linecap="round" stroke-linejoin="round" stroke-miterlimit="10" stroke-width="1"/>
        <path id="Trazado_1057422" data-name="Trazado 1057422" d="M270.325,285.151a32.33,32.33,0,0,0,30.258-32.262" transform="translate(-235.935 -217.497)" fill="none" stroke="#000" stroke-linecap="round" stroke-linejoin="round" stroke-miterlimit="10" stroke-width="1"/>
        <path id="Trazado_1057423" data-name="Trazado 1057423" d="M248.059,42.891h0a32.349,32.349,0,0,0-25.543-31.616V8.751a1.249,1.249,0,0,0-1.874-1.082l-11.069,6.391a1.249,1.249,0,0,0,0,2.164l11.069,6.391a1.249,1.249,0,0,0,1.874-1.082V18.9a24.97,24.97,0,0,1,18.141,23.986h0" transform="translate(-183.41 -7.5)" fill="none" stroke="#000" stroke-linecap="round" stroke-linejoin="round" stroke-miterlimit="10" stroke-width="1"/>
      </g>
    </g>
  </g>
</svg>
