<svg xmlns="http://www.w3.org/2000/svg" xmlns:xlink="http://www.w3.org/1999/xlink" width="113" height="113" viewBox="0 0 113 113">
  <defs>
    <filter id="Trazado_982547" x="0" y="0" width="113" height="113" filterUnits="userSpaceOnUse">
      <feOffset dy="3" input="SourceAlpha"/>
      <feGaussianBlur stdDeviation="3" result="blur"/>
      <feFlood flood-opacity="0.161"/>
      <feComposite operator="in" in2="blur"/>
      <feComposite in="SourceGraphic"/>
    </filter>
  </defs>
  <g id="Grupo_1211416" data-name="Grupo 1211416" transform="translate(-692.529 -4300.867)">
    <g id="Grupo_1211216" data-name="Grupo 1211216" transform="translate(701.529 4306.867)">
      <g id="Grupo_1210737" data-name="Grupo 1210737" transform="translate(0)">
        <g id="Grupo_1210537" data-name="Grupo 1210537">
          <g id="Grupo_1164202" data-name="Grupo 1164202">
            <g id="Grupo_1158168" data-name="Grupo 1158168">
              <g id="Grupo_1152576" data-name="Grupo 1152576">
                <g id="Grupo_1148633" data-name="Grupo 1148633">
                  <g id="Grupo_1148525" data-name="Grupo 1148525">
                    <g transform="matrix(1, 0, 0, 1, -9, -6)" filter="url(#Trazado_982547)">
                      <g id="Trazado_982547-2" data-name="Trazado 982547" transform="translate(9 6)" fill="#fdf6e4">
                        <path d="M 47.5 93.5 C 41.28937149047852 93.5 35.26533508300781 92.28397369384766 29.59518623352051 89.88570404052734 C 24.11771965026855 87.56893157958984 19.19813346862793 84.25196075439453 14.97309303283691 80.02691650390625 C 10.74804019927979 75.80186462402344 7.431066513061523 70.88229370117188 5.114293098449707 65.40481567382812 C 2.716026782989502 59.73468017578125 1.5 53.71062850952148 1.5 47.5 C 1.5 41.28937149047852 2.716026782989502 35.26533508300781 5.114293098449707 29.59518623352051 C 7.431066513061523 24.11771965026855 10.74804019927979 19.19813346862793 14.97309303283691 14.97309303283691 C 19.19813346862793 10.74804019927979 24.11771965026855 7.431066513061523 29.59518623352051 5.114293098449707 C 35.26533508300781 2.716026782989502 41.28937149047852 1.5 47.5 1.5 C 53.71062850952148 1.5 59.73468017578125 2.716026782989502 65.40481567382812 5.114293098449707 C 70.88229370117188 7.431066513061523 75.80186462402344 10.74804019927979 80.02691650390625 14.97309303283691 C 84.25196075439453 19.19813346862793 87.56893157958984 24.11771965026855 89.88570404052734 29.59518623352051 C 92.28397369384766 35.26533508300781 93.5 41.28937149047852 93.5 47.5 C 93.5 53.71062850952148 92.28397369384766 59.73468017578125 89.88570404052734 65.40481567382812 C 87.56893157958984 70.88229370117188 84.25196075439453 75.80186462402344 80.02691650390625 80.02691650390625 C 75.80186462402344 84.25196075439453 70.88229370117188 87.56893157958984 65.40481567382812 89.88570404052734 C 59.73468017578125 92.28397369384766 53.71062850952148 93.5 47.5 93.5 Z" stroke="none"/>
                        <path d="M 47.5 3 C 41.49121475219727 3 35.66376876831055 4.176155090332031 30.17950439453125 6.495796203613281 C 24.88084411621094 8.736953735351562 20.12152099609375 11.94598388671875 16.03375244140625 16.03375244140625 C 11.94598388671875 20.12152099609375 8.736953735351562 24.88084411621094 6.495796203613281 30.17950439453125 C 4.176155090332031 35.66376876831055 3 41.49121475219727 3 47.5 C 3 53.50878524780273 4.176155090332031 59.33623123168945 6.495796203613281 64.82049560546875 C 8.736953735351562 70.11915588378906 11.94598388671875 74.87847900390625 16.03375244140625 78.96624755859375 C 20.12152099609375 83.05401611328125 24.88084411621094 86.26304626464844 30.17950439453125 88.50419616699219 C 35.66376876831055 90.82384490966797 41.49121475219727 92 47.5 92 C 53.50878524780273 92 59.33623123168945 90.82384490966797 64.82049560546875 88.50419616699219 C 70.11915588378906 86.26304626464844 74.87847900390625 83.05401611328125 78.96624755859375 78.96624755859375 C 83.05401611328125 74.87847900390625 86.26304626464844 70.11915588378906 88.50419616699219 64.82049560546875 C 90.82384490966797 59.33623123168945 92 53.50878524780273 92 47.5 C 92 41.49121475219727 90.82384490966797 35.66376876831055 88.50419616699219 30.17950439453125 C 86.26304626464844 24.88084411621094 83.05401611328125 20.12152099609375 78.96624755859375 16.03375244140625 C 74.87847900390625 11.94598388671875 70.11915588378906 8.736953735351562 64.82049560546875 6.495796203613281 C 59.33623123168945 4.176155090332031 53.50878524780273 3 47.5 3 M 47.5 0 C 73.7335205078125 0 95 21.2664794921875 95 47.5 C 95 73.7335205078125 73.7335205078125 95 47.5 95 C 21.2664794921875 95 0 73.7335205078125 0 47.5 C 0 21.2664794921875 21.2664794921875 0 47.5 0 Z" stroke="none" fill="#f5b104"/>
                      </g>
                    </g>
                  </g>
                </g>
              </g>
            </g>
          </g>
        </g>
      </g>
    </g>
    <g id="Credit_Card-Payment-Quality-Badges-Seo" data-name="Credit Card-Payment-Quality-Badges-Seo" transform="translate(718.266 4323.364)">
      <path id="Trazado_1057203" data-name="Trazado 1057203" d="M58.775,10.835V51.1A3.835,3.835,0,0,1,54.94,54.94h-44.1a3.823,3.823,0,0,1-3.49-2.262A3.769,3.769,0,0,1,7,51.1V10.835A3.835,3.835,0,0,1,10.835,7h44.1a3.769,3.769,0,0,1,1.572.345,3.824,3.824,0,0,1,2.263,3.49Z" transform="translate(-0.206 -0.206)" fill="#e6e7e8"/>
      <path id="Trazado_1057204" data-name="Trazado 1057204" d="M56.857,8.918V49.187a3.835,3.835,0,0,1-3.835,3.835H8.918a3.769,3.769,0,0,1-1.572-.345A3.769,3.769,0,0,1,7,51.1V10.835A3.835,3.835,0,0,1,10.835,7h44.1a3.769,3.769,0,0,1,1.572.345,3.769,3.769,0,0,1,.345,1.572Z" transform="translate(-0.206 -0.206)" fill="#d8d7da"/>
      <path id="Trazado_1057205" data-name="Trazado 1057205" d="M54.775,6.835V10.67H3V6.835A3.835,3.835,0,0,1,6.835,3h44.1A3.835,3.835,0,0,1,54.775,6.835Z" transform="translate(-0.041 -0.041)" fill="#ff6243"/>
      <path id="Trazado_1057206" data-name="Trazado 1057206" d="M54.775,11V47.434a3.835,3.835,0,0,1-3.835,3.835H6.835A3.835,3.835,0,0,1,3,47.434V11Z" transform="translate(-0.041 -0.371)" fill="#e6e7e8"/>
      <path id="Trazado_1057207" data-name="Trazado 1057207" d="M44.846,55.5l.805,1.4H41.318a1.942,1.942,0,0,1,.633-1.918,2.854,2.854,0,0,1,.278-.192,1.912,1.912,0,0,1,2.618.71Z" transform="translate(-1.618 -2.165)" fill="#d8d7da"/>
      <path id="Trazado_1057208" data-name="Trazado 1057208" d="M60.423,52.67a3.835,3.835,0,0,1-3.835,3.835H47V46.918a1.918,1.918,0,0,1,3.835,0V52.67a1.989,1.989,0,0,1,1.918-1.918A1.932,1.932,0,0,1,54.67,52.67v.959a1.923,1.923,0,0,1,1.918-1.918,1.874,1.874,0,0,1,1.352.566,1.474,1.474,0,0,1,.163.182,1.86,1.86,0,0,1,.4,1.17v.959A1.923,1.923,0,0,1,60.423,52.67Z" transform="translate(-1.854 -1.772)" fill="#d8d7da"/>
      <path id="Trazado_1057209" data-name="Trazado 1057209" d="M60.1,52.588v8.629h-17l-2.771-4.794-.805-1.4a1.918,1.918,0,0,1,.422-2.435,2.853,2.853,0,0,1,.278-.192,1.912,1.912,0,0,1,2.617.71l1.918,3.317V44.918a1.918,1.918,0,1,1,3.835,0V50.67a1.989,1.989,0,0,1,1.918-1.918,1.932,1.932,0,0,1,1.918,1.918v.959a1.923,1.923,0,0,1,1.918-1.918,1.874,1.874,0,0,1,1.352.566,1.474,1.474,0,0,1,.163.182,1.86,1.86,0,0,1,.4,1.17v.959a1.918,1.918,0,1,1,3.835,0Z" transform="translate(-1.536 -1.69)" fill="#ffc477"/>
      <path id="Trazado_1057210" data-name="Trazado 1057210" d="M51.929,21H28.918A1.923,1.923,0,0,0,27,22.918V38.258a1.923,1.923,0,0,0,1.918,1.918H51.929a1.923,1.923,0,0,0,1.918-1.918V22.918A1.923,1.923,0,0,0,51.929,21Z" transform="translate(-1.03 -0.783)" fill="#d8d7da"/>
      <path id="Trazado_1057211" data-name="Trazado 1057211" d="M15.712,21a6.712,6.712,0,0,0-3.835,12.215v8.878l3.835-2.876,3.835,2.876V33.215A6.712,6.712,0,0,0,15.712,21Z" transform="translate(-0.289 -0.783)" fill="#d8d7da"/>
      <rect id="Rectángulo_421092" data-name="Rectángulo 421092" width="26.846" height="19.176" rx="2" transform="translate(24.052 18.299)" fill="#5aaae7"/>
      <path id="Trazado_1057212" data-name="Trazado 1057212" d="M25,23H51.846v3.835H25Z" transform="translate(-0.948 -0.865)" fill="#1e81ce"/>
      <path id="Trazado_1057213" data-name="Trazado 1057213" d="M46.753,31a1.918,1.918,0,1,1,0,3.835H42.918a1.918,1.918,0,0,1,0-3.835Z" transform="translate(-1.607 -1.195)" fill="#ff9811"/>
      <path id="Trazado_1057214" data-name="Trazado 1057214" d="M20.423,25.712a6.67,6.67,0,1,1-1.954-4.758A6.712,6.712,0,0,1,20.423,25.712Z" transform="translate(-0.206 -0.701)" fill="#ff6243"/>
      <path id="Trazado_1057215" data-name="Trazado 1057215" d="M17.67,31.74v8.878l-3.835-2.876L10,40.618V31.74a6.691,6.691,0,0,0,7.67,0Z" transform="translate(-0.33 -1.226)" fill="#ff9811"/>
      <circle id="Elipse_12572" data-name="Elipse 12572" cx="2.876" cy="2.876" r="2.876" transform="translate(10.629 22.135)" fill="#ff9811"/>
      <path id="Trazado_1057216" data-name="Trazado 1057216" d="M46.712,30H42.876a2.876,2.876,0,0,0,0,5.753h3.835a2.876,2.876,0,1,0,0-5.753Zm0,3.835H42.876a.959.959,0,1,1,0-1.918h3.835a.959.959,0,1,1,0,1.918Z" transform="translate(-1.566 -1.154)"/>
      <path id="Trazado_1057217" data-name="Trazado 1057217" d="M28,34h1.918v1.918H28Z" transform="translate(-1.071 -1.319)"/>
      <path id="Trazado_1057218" data-name="Trazado 1057218" d="M28,30h9.588v1.918H28Z" transform="translate(-1.071 -1.154)"/>
      <path id="Trazado_1057219" data-name="Trazado 1057219" d="M32,34h1.918v1.918H32Z" transform="translate(-1.236 -1.319)"/>
      <path id="Trazado_1057220" data-name="Trazado 1057220" d="M36,34h1.918v1.918H36Z" transform="translate(-1.401 -1.319)"/>
      <path id="Trazado_1057221" data-name="Trazado 1057221" d="M13.67,18A7.664,7.664,0,0,0,8.876,31.648v8.4a.959.959,0,0,0,1.534.767l3.26-2.445,3.26,2.445a.959.959,0,0,0,1.534-.767v-8.4A7.664,7.664,0,0,0,13.67,18Zm2.876,20.135-2.3-1.726a.959.959,0,0,0-1.151,0l-2.3,1.726V32.776a7.608,7.608,0,0,0,5.753,0ZM13.67,31.423a5.753,5.753,0,1,1,5.753-5.753,5.753,5.753,0,0,1-5.753,5.753Z" transform="translate(-0.165 -0.659)"/>
      <path id="Trazado_1057222" data-name="Trazado 1057222" d="M13.835,22a3.835,3.835,0,1,0,3.835,3.835A3.835,3.835,0,0,0,13.835,22Zm0,5.753a1.918,1.918,0,1,1,1.918-1.918A1.918,1.918,0,0,1,13.835,27.753Z" transform="translate(-0.33 -0.824)"/>
      <path id="Trazado_1057223" data-name="Trazado 1057223" d="M55.606,5.921A4.794,4.794,0,0,0,50.9,2H6.794A4.794,4.794,0,0,0,2,6.794V47.063a4.794,4.794,0,0,0,3.921,4.708,4.794,4.794,0,0,0,4.708,3.921H38.242l2.493,4.315,1.659-.959-3.576-6.194a.968.968,0,0,1,.355-1.314.949.949,0,0,1,1.3.355l1.918,3.317a.98.98,0,0,0,1.083.451.959.959,0,0,0,.71-.93V43.228a.959.959,0,0,1,1.918,0v8.629a.959.959,0,0,0,1.918,0V48.981a1.03,1.03,0,0,1,.959-.959.959.959,0,0,1,.959.959v2.876a.959.959,0,0,0,1.918,0V49.94a.959.959,0,1,1,1.918,0v2.876a.959.959,0,0,0,1.918,0V50.9a.959.959,0,1,1,1.918,0v8.629h1.918v-48.9A4.794,4.794,0,0,0,55.606,5.921ZM10.629,53.775a2.886,2.886,0,0,1-2.7-1.918H36.833a2.876,2.876,0,0,0,.307,1.918Zm43.146-6.712c0,.058-.019.115-.019.182a2.775,2.775,0,0,0-.94-.182,2.813,2.813,0,0,0-1.409.374A2.876,2.876,0,0,0,48.981,46.1a2.7,2.7,0,0,0-.959.182V43.228a2.876,2.876,0,1,0-5.753,0V49.94H41.157a2.867,2.867,0,0,0-2.943-.058l-.086.058H6.794a2.885,2.885,0,0,1-2.876-2.876V11.588H53.775Zm0-37.393H3.918V6.794A2.885,2.885,0,0,1,6.794,3.918H50.9a2.885,2.885,0,0,1,2.876,2.876ZM57.61,48.195a2.694,2.694,0,0,0-2.081.077,4.646,4.646,0,0,0,.163-1.208V7.925a2.886,2.886,0,0,1,1.918,2.7Z"/>
      <path id="Trazado_1057224" data-name="Trazado 1057224" d="M49.887,18H26.876A2.885,2.885,0,0,0,24,20.876V36.217a2.885,2.885,0,0,0,2.876,2.876H49.887a2.885,2.885,0,0,0,2.876-2.876V20.876A2.885,2.885,0,0,0,49.887,18Zm.959,18.217a.959.959,0,0,1-.959.959H26.876a.959.959,0,0,1-.959-.959V27.588H50.846Zm0-10.547H25.918V23.753H50.846Zm0-3.835H25.918v-.959a.959.959,0,0,1,.959-.959H49.887a.959.959,0,0,1,.959.959Z" transform="translate(-0.907 -0.659)"/>
      <path id="Trazado_1057225" data-name="Trazado 1057225" d="M6,6H7.918V7.918H6Z" transform="translate(-0.165 -0.165)"/>
      <path id="Trazado_1057226" data-name="Trazado 1057226" d="M10,6h1.918V7.918H10Z" transform="translate(-0.33 -0.165)"/>
      <path id="Trazado_1057227" data-name="Trazado 1057227" d="M14,6h1.918V7.918H14Z" transform="translate(-0.495 -0.165)"/>
    </g>
  </g>
</svg>
