<svg xmlns="http://www.w3.org/2000/svg" xmlns:xlink="http://www.w3.org/1999/xlink" width="113" height="113" viewBox="0 0 113 113">
  <defs>
    <filter id="Trazado_982547" x="0" y="0" width="113" height="113" filterUnits="userSpaceOnUse">
      <feOffset dy="3" input="SourceAlpha"/>
      <feGaussianBlur stdDeviation="3" result="blur"/>
      <feFlood flood-opacity="0.161"/>
      <feComposite operator="in" in2="blur"/>
      <feComposite in="SourceGraphic"/>
    </filter>
  </defs>
  <g id="Grupo_1211542" data-name="Grupo 1211542" transform="translate(-13321.529 -4300.867)">
    <g id="Grupo_1211218" data-name="Grupo 1211218" transform="translate(13330.529 4306.867)">
      <g id="Grupo_1210737" data-name="Grupo 1210737" transform="translate(0)">
        <g id="Grupo_1210537" data-name="Grupo 1210537">
          <g id="Grupo_1164202" data-name="Grupo 1164202">
            <g id="Grupo_1158168" data-name="Grupo 1158168">
              <g id="Grupo_1152576" data-name="Grupo 1152576">
                <g id="Grupo_1148633" data-name="Grupo 1148633">
                  <g id="Grupo_1148525" data-name="Grupo 1148525">
                    <g transform="matrix(1, 0, 0, 1, -9, -6)" filter="url(#Trazado_982547)">
                      <g id="Trazado_982547-2" data-name="Trazado 982547" transform="translate(9 6)" fill="#fdf6e4">
                        <path d="M 47.5 93.5 C 41.28937149047852 93.5 35.26533508300781 92.28397369384766 29.59518623352051 89.88570404052734 C 24.11771965026855 87.56893157958984 19.19813346862793 84.25196075439453 14.97309303283691 80.02691650390625 C 10.74804019927979 75.80186462402344 7.431066513061523 70.88229370117188 5.114293098449707 65.40481567382812 C 2.716026782989502 59.73468017578125 1.5 53.71062850952148 1.5 47.5 C 1.5 41.28937149047852 2.716026782989502 35.26533508300781 5.114293098449707 29.59518623352051 C 7.431066513061523 24.11771965026855 10.74804019927979 19.19813346862793 14.97309303283691 14.97309303283691 C 19.19813346862793 10.74804019927979 24.11771965026855 7.431066513061523 29.59518623352051 5.114293098449707 C 35.26533508300781 2.716026782989502 41.28937149047852 1.5 47.5 1.5 C 53.71062850952148 1.5 59.73468017578125 2.716026782989502 65.40481567382812 5.114293098449707 C 70.88229370117188 7.431066513061523 75.80186462402344 10.74804019927979 80.02691650390625 14.97309303283691 C 84.25196075439453 19.19813346862793 87.56893157958984 24.11771965026855 89.88570404052734 29.59518623352051 C 92.28397369384766 35.26533508300781 93.5 41.28937149047852 93.5 47.5 C 93.5 53.71062850952148 92.28397369384766 59.73468017578125 89.88570404052734 65.40481567382812 C 87.56893157958984 70.88229370117188 84.25196075439453 75.80186462402344 80.02691650390625 80.02691650390625 C 75.80186462402344 84.25196075439453 70.88229370117188 87.56893157958984 65.40481567382812 89.88570404052734 C 59.73468017578125 92.28397369384766 53.71062850952148 93.5 47.5 93.5 Z" stroke="none"/>
                        <path d="M 47.5 3 C 41.49121475219727 3 35.66376876831055 4.176155090332031 30.17950439453125 6.495796203613281 C 24.88084411621094 8.736953735351562 20.12152099609375 11.94598388671875 16.03375244140625 16.03375244140625 C 11.94598388671875 20.12152099609375 8.736953735351562 24.88084411621094 6.495796203613281 30.17950439453125 C 4.176155090332031 35.66376876831055 3 41.49121475219727 3 47.5 C 3 53.50878524780273 4.176155090332031 59.33623123168945 6.495796203613281 64.82049560546875 C 8.736953735351562 70.11915588378906 11.94598388671875 74.87847900390625 16.03375244140625 78.96624755859375 C 20.12152099609375 83.05401611328125 24.88084411621094 86.26304626464844 30.17950439453125 88.50419616699219 C 35.66376876831055 90.82384490966797 41.49121475219727 92 47.5 92 C 53.50878524780273 92 59.33623123168945 90.82384490966797 64.82049560546875 88.50419616699219 C 70.11915588378906 86.26304626464844 74.87847900390625 83.05401611328125 78.96624755859375 78.96624755859375 C 83.05401611328125 74.87847900390625 86.26304626464844 70.11915588378906 88.50419616699219 64.82049560546875 C 90.82384490966797 59.33623123168945 92 53.50878524780273 92 47.5 C 92 41.49121475219727 90.82384490966797 35.66376876831055 88.50419616699219 30.17950439453125 C 86.26304626464844 24.88084411621094 83.05401611328125 20.12152099609375 78.96624755859375 16.03375244140625 C 74.87847900390625 11.94598388671875 70.11915588378906 8.736953735351562 64.82049560546875 6.495796203613281 C 59.33623123168945 4.176155090332031 53.50878524780273 3 47.5 3 M 47.5 0 C 73.7335205078125 0 95 21.2664794921875 95 47.5 C 95 73.7335205078125 73.7335205078125 95 47.5 95 C 21.2664794921875 95 0 73.7335205078125 0 47.5 C 0 21.2664794921875 21.2664794921875 0 47.5 0 Z" stroke="none" fill="#f5b104"/>
                      </g>
                    </g>
                  </g>
                </g>
              </g>
            </g>
          </g>
        </g>
      </g>
    </g>
    <g id="billing_3889634" transform="translate(13350 4323)">
      <g id="Grupo_1211417" data-name="Grupo 1211417">
        <path id="Trazado_1057228" data-name="Trazado 1057228" d="M26,5H48V17H26Z" fill="#f0bc5e"/>
      </g>
      <g id="Grupo_1211419" data-name="Grupo 1211419">
        <g id="Grupo_1211418" data-name="Grupo 1211418">
          <path id="Trazado_1057229" data-name="Trazado 1057229" d="M51,62A11,11,0,1,1,62,51,11.013,11.013,0,0,1,51,62Z" fill="#f0bc5e"/>
        </g>
      </g>
      <g id="Grupo_1211420" data-name="Grupo 1211420">
        <path id="Trazado_1057230" data-name="Trazado 1057230" d="M4,15v1a4,4,0,0,0,4,4v2h2V20a4,4,0,0,0,0-8H8A2,2,0,0,1,8,8h2a2,2,0,0,1,2,2h2a4,4,0,0,0-4-4V4H8V6a4,4,0,0,0,0,8h2a2,2,0,0,1,0,4H8a2,2,0,0,1-2-2V15Z"/>
        <path id="Trazado_1057231" data-name="Trazado 1057231" d="M21,10a3,3,0,1,0-3-3A3,3,0,0,0,21,10Zm0-4a1,1,0,1,1-1,1A1,1,0,0,1,21,6Z"/>
        <path id="Trazado_1057232" data-name="Trazado 1057232" d="M21,18a3,3,0,1,0-3-3A3,3,0,0,0,21,18Zm0-4a1,1,0,1,1-1,1A1,1,0,0,1,21,14Z"/>
        <path id="Trazado_1057233" data-name="Trazado 1057233" d="M26,4H48V6H26Z"/>
        <path id="Trazado_1057234" data-name="Trazado 1057234" d="M26,8H48v2H26Z"/>
        <path id="Trazado_1057235" data-name="Trazado 1057235" d="M26,12H48v2H26Z"/>
        <path id="Trazado_1057236" data-name="Trazado 1057236" d="M26,16H48v2H26Z"/>
        <path id="Trazado_1057237" data-name="Trazado 1057237" d="M31,23.586,28.716,25.87A16.972,16.972,0,0,0,5.87,48.716L3.585,51l7.421,7.4,2.275-2.274A16.971,16.971,0,0,0,36.129,33.283L38.413,31ZM6,41A14.969,14.969,0,0,1,27.219,27.367L25.686,28.9A12.857,12.857,0,0,0,21,28,13.015,13.015,0,0,0,8,41a12.857,12.857,0,0,0,.9,4.686L7.367,47.219A14.968,14.968,0,0,1,6,41Zm4.468,3.118A10.849,10.849,0,0,1,10,41,11.013,11.013,0,0,1,21,30a10.849,10.849,0,0,1,3.118.468ZM11,55.576,6.415,51,31,26.414,35.584,31ZM32,41A11.013,11.013,0,0,1,21,52a10.831,10.831,0,0,1-3.121-.469l13.653-13.65A10.851,10.851,0,0,1,32,41Zm4,0A14.971,14.971,0,0,1,14.777,54.632L16.311,53.1A12.846,12.846,0,0,0,21,54,13.015,13.015,0,0,0,34,41a12.855,12.855,0,0,0-.9-4.687l1.534-1.533A14.965,14.965,0,0,1,36,41Z"/>
        <path id="Trazado_1057238" data-name="Trazado 1057238" d="M12.536,47.464h2v2h-2Z" transform="translate(-30.305 23.766) rotate(-45)"/>
        <path id="Trazado_1057239" data-name="Trazado 1057239" d="M9.707,50.293h2v2h-2Z" transform="translate(-33.134 22.594) rotate(-45)"/>
        <path id="Trazado_1057240" data-name="Trazado 1057240" d="M15.364,44.636h2v2h-2Z" transform="translate(-27.477 24.938) rotate(-45)"/>
        <path id="Trazado_1057241" data-name="Trazado 1057241" d="M26.678,33.322h2v2h-2Z" transform="translate(-16.163 29.624) rotate(-45)"/>
        <path id="Trazado_1057242" data-name="Trazado 1057242" d="M18.192,41.808h2v2h-2Z" transform="translate(-24.648 26.109) rotate(-45)"/>
        <path id="Trazado_1057243" data-name="Trazado 1057243" d="M23.849,36.151h2v2h-2Z" transform="translate(-18.992 28.452) rotate(-45)"/>
        <path id="Trazado_1057244" data-name="Trazado 1057244" d="M29.506,30.494h2v2h-2Z" transform="translate(-13.335 30.795) rotate(-45)"/>
        <path id="Trazado_1057245" data-name="Trazado 1057245" d="M21.021,38.979h2v2h-2Z" transform="translate(-21.82 27.281) rotate(-45)"/>
        <path id="Trazado_1057246" data-name="Trazado 1057246" d="M3,60a1,1,0,0,1-1-1V3A1,1,0,0,1,3,2H49a1,1,0,0,1,1,1V40.051c.33-.03.662-.051,1-.051s.67.021,1,.051V3a3,3,0,0,0-3-3H3A3,3,0,0,0,0,3V59a3,3,0,0,0,3,3H51a10.93,10.93,0,0,1-6.305-2Z"/>
        <path id="Trazado_1057247" data-name="Trazado 1057247" d="M56.707,46.707l-1.414-1.414L51,49.586l-4.293-4.293-1.414,1.414L49.586,51l-4.293,4.293,1.414,1.414L51,52.414l4.293,4.293,1.414-1.414L52.414,51Z"/>
      </g>
    </g>
  </g>
</svg>
