<svg xmlns="http://www.w3.org/2000/svg" xmlns:xlink="http://www.w3.org/1999/xlink" width="113" height="113" viewBox="0 0 113 113">
  <defs>
    <filter id="Trazado_982547" x="0" y="0" width="113" height="113" filterUnits="userSpaceOnUse">
      <feOffset dy="3" input="SourceAlpha"/>
      <feGaussianBlur stdDeviation="3" result="blur"/>
      <feFlood flood-opacity="0.161"/>
      <feComposite operator="in" in2="blur"/>
      <feComposite in="SourceGraphic"/>
    </filter>
    <clipPath id="clip-path">
      <path id="SVGID_63_" d="M5,47.9H60.822V59.773H5Z" transform="translate(-5 -47.9)"/>
    </clipPath>
    <clipPath id="clip-path-2">
      <path id="SVGID_65_" d="M5,142.7H60.822v34.705H5Z" transform="translate(-5 -142.7)"/>
    </clipPath>
  </defs>
  <g id="Grupo_1211544" data-name="Grupo 1211544" transform="translate(-13321.529 -4687.867)">
    <g id="Grupo_1211220" data-name="Grupo 1211220" transform="translate(13330.529 4693.867)">
      <g id="Grupo_1210737" data-name="Grupo 1210737" transform="translate(0)">
        <g id="Grupo_1210537" data-name="Grupo 1210537">
          <g id="Grupo_1164202" data-name="Grupo 1164202">
            <g id="Grupo_1158168" data-name="Grupo 1158168">
              <g id="Grupo_1152576" data-name="Grupo 1152576">
                <g id="Grupo_1148633" data-name="Grupo 1148633">
                  <g id="Grupo_1148525" data-name="Grupo 1148525">
                    <g transform="matrix(1, 0, 0, 1, -9, -6)" filter="url(#Trazado_982547)">
                      <g id="Trazado_982547-2" data-name="Trazado 982547" transform="translate(9 6)" fill="#fdf6e4">
                        <path d="M 47.5 93.5 C 41.28937149047852 93.5 35.26533508300781 92.28397369384766 29.59518623352051 89.88570404052734 C 24.11771965026855 87.56893157958984 19.19813346862793 84.25196075439453 14.97309303283691 80.02691650390625 C 10.74804019927979 75.80186462402344 7.431066513061523 70.88229370117188 5.114293098449707 65.40481567382812 C 2.716026782989502 59.73468017578125 1.5 53.71062850952148 1.5 47.5 C 1.5 41.28937149047852 2.716026782989502 35.26533508300781 5.114293098449707 29.59518623352051 C 7.431066513061523 24.11771965026855 10.74804019927979 19.19813346862793 14.97309303283691 14.97309303283691 C 19.19813346862793 10.74804019927979 24.11771965026855 7.431066513061523 29.59518623352051 5.114293098449707 C 35.26533508300781 2.716026782989502 41.28937149047852 1.5 47.5 1.5 C 53.71062850952148 1.5 59.73468017578125 2.716026782989502 65.40481567382812 5.114293098449707 C 70.88229370117188 7.431066513061523 75.80186462402344 10.74804019927979 80.02691650390625 14.97309303283691 C 84.25196075439453 19.19813346862793 87.56893157958984 24.11771965026855 89.88570404052734 29.59518623352051 C 92.28397369384766 35.26533508300781 93.5 41.28937149047852 93.5 47.5 C 93.5 53.71062850952148 92.28397369384766 59.73468017578125 89.88570404052734 65.40481567382812 C 87.56893157958984 70.88229370117188 84.25196075439453 75.80186462402344 80.02691650390625 80.02691650390625 C 75.80186462402344 84.25196075439453 70.88229370117188 87.56893157958984 65.40481567382812 89.88570404052734 C 59.73468017578125 92.28397369384766 53.71062850952148 93.5 47.5 93.5 Z" stroke="none"/>
                        <path d="M 47.5 3 C 41.49121475219727 3 35.66376876831055 4.176155090332031 30.17950439453125 6.495796203613281 C 24.88084411621094 8.736953735351562 20.12152099609375 11.94598388671875 16.03375244140625 16.03375244140625 C 11.94598388671875 20.12152099609375 8.736953735351562 24.88084411621094 6.495796203613281 30.17950439453125 C 4.176155090332031 35.66376876831055 3 41.49121475219727 3 47.5 C 3 53.50878524780273 4.176155090332031 59.33623123168945 6.495796203613281 64.82049560546875 C 8.736953735351562 70.11915588378906 11.94598388671875 74.87847900390625 16.03375244140625 78.96624755859375 C 20.12152099609375 83.05401611328125 24.88084411621094 86.26304626464844 30.17950439453125 88.50419616699219 C 35.66376876831055 90.82384490966797 41.49121475219727 92 47.5 92 C 53.50878524780273 92 59.33623123168945 90.82384490966797 64.82049560546875 88.50419616699219 C 70.11915588378906 86.26304626464844 74.87847900390625 83.05401611328125 78.96624755859375 78.96624755859375 C 83.05401611328125 74.87847900390625 86.26304626464844 70.11915588378906 88.50419616699219 64.82049560546875 C 90.82384490966797 59.33623123168945 92 53.50878524780273 92 47.5 C 92 41.49121475219727 90.82384490966797 35.66376876831055 88.50419616699219 30.17950439453125 C 86.26304626464844 24.88084411621094 83.05401611328125 20.12152099609375 78.96624755859375 16.03375244140625 C 74.87847900390625 11.94598388671875 70.11915588378906 8.736953735351562 64.82049560546875 6.495796203613281 C 59.33623123168945 4.176155090332031 53.50878524780273 3 47.5 3 M 47.5 0 C 73.7335205078125 0 95 21.2664794921875 95 47.5 C 95 73.7335205078125 73.7335205078125 95 47.5 95 C 21.2664794921875 95 0 73.7335205078125 0 47.5 C 0 21.2664794921875 21.2664794921875 0 47.5 0 Z" stroke="none" fill="#f5b104"/>
                      </g>
                    </g>
                  </g>
                </g>
              </g>
            </g>
          </g>
        </g>
      </g>
    </g>
    <g id="copyright_17080590" transform="translate(13345.663 4672.99)">
      <g id="Grupo_1211424" data-name="Grupo 1211424" transform="translate(1.414 44.313)">
        <path id="Trazado_1057256" data-name="Trazado 1057256" d="M5,47.9H60.822V59.773H5Z" transform="translate(-5 -47.9)" fill="#38739a" fill-rule="evenodd"/>
      </g>
      <g id="Grupo_1211427" data-name="Grupo 1211427" transform="translate(1.414 44.313)">
        <g id="Grupo_1211426" data-name="Grupo 1211426" transform="translate(0 0)" clip-path="url(#clip-path)">
          <g id="Grupo_1211425" data-name="Grupo 1211425" transform="translate(-4.083)">
            <path id="Trazado_1057257" data-name="Trazado 1057257" d="M-27.6,47.9H28.222V59.773H-27.6Z" transform="translate(27.6 -47.9)" fill="#3e90c7" fill-rule="evenodd"/>
          </g>
        </g>
      </g>
      <g id="Grupo_1211428" data-name="Grupo 1211428" transform="translate(0.9 43.8)">
        <path id="Trazado_1057258" data-name="Trazado 1057258" d="M57.749,56.688H.9V43.8H57.749ZM1.914,55.673H56.722V44.827H1.914Z" transform="translate(-0.9 -43.8)"/>
      </g>
      <g id="Grupo_1211429" data-name="Grupo 1211429" transform="translate(1.414 56.187)">
        <path id="Trazado_1057259" data-name="Trazado 1057259" d="M5,142.7H60.822v34.705H5Z" transform="translate(-5 -142.7)" fill="#c6d8fb" fill-rule="evenodd"/>
      </g>
      <g id="Grupo_1211432" data-name="Grupo 1211432" transform="translate(1.414 56.187)">
        <g id="Grupo_1211431" data-name="Grupo 1211431" clip-path="url(#clip-path-2)">
          <g id="Grupo_1211430" data-name="Grupo 1211430" transform="translate(-4.083)">
            <path id="Trazado_1057260" data-name="Trazado 1057260" d="M-27.6,142.7H28.222v34.705H-27.6Z" transform="translate(27.6 -142.7)" fill="#eef0f9" fill-rule="evenodd"/>
          </g>
        </g>
      </g>
      <g id="Grupo_1211433" data-name="Grupo 1211433" transform="translate(0.9 55.673)">
        <path id="Trazado_1057261" data-name="Trazado 1057261" d="M57.749,174.332H.9V138.6H57.749ZM1.914,173.305H56.722V139.614H1.914Z" transform="translate(-0.9 -138.6)"/>
      </g>
      <g id="Grupo_1211434" data-name="Grupo 1211434" transform="translate(39.15 47.745)">
        <path id="Trazado_1057262" data-name="Trazado 1057262" d="M310.4,79.4h3.983v3.983H310.4Z" transform="translate(-309.887 -78.886)" fill="#ffbc6b" fill-rule="evenodd"/>
        <path id="Trazado_1057263" data-name="Trazado 1057263" d="M311.3,80.3h-5v-5h5Zm-3.97-1.014h2.956V76.327h-2.956Z" transform="translate(-306.3 -75.3)"/>
      </g>
      <g id="Grupo_1211435" data-name="Grupo 1211435" transform="translate(47.967 47.745)">
        <path id="Trazado_1057264" data-name="Trazado 1057264" d="M380.7,79.4h3.983v3.983H380.7Z" transform="translate(-380.199 -78.886)" fill="#ffbc6b" fill-rule="evenodd"/>
        <path id="Trazado_1057265" data-name="Trazado 1057265" d="M381.7,80.3h-5v-5h5Zm-3.983-1.014h2.956V76.327h-2.956Z" transform="translate(-376.7 -75.3)"/>
      </g>
      <g id="Grupo_1211436" data-name="Grupo 1211436" transform="translate(40.903 73.101)">
        <path id="Trazado_1057266" data-name="Trazado 1057266" d="M335.747,304.632a11.476,11.476,0,0,0,11.447-11.447c-.651-15.18-22.244-15.18-22.895,0A11.468,11.468,0,0,0,335.747,304.632Z" transform="translate(-323.799 -281.293)" fill="#fcd345" fill-rule="evenodd"/>
        <path id="Trazado_1057267" data-name="Trazado 1057267" d="M332.248,301.6A11.965,11.965,0,0,1,320.3,289.642c.651-15.856,23.258-15.856,23.909,0A11.992,11.992,0,0,1,332.248,301.6Zm0-22.895a10.952,10.952,0,0,0-10.934,10.934c.6,14.5,21.279,14.5,21.868,0A10.952,10.952,0,0,0,332.248,278.708Z" transform="translate(-320.3 -277.75)"/>
      </g>
      <g id="Grupo_1211437" data-name="Grupo 1211437" transform="translate(33.825 60.933)">
        <path id="Trazado_1057268" data-name="Trazado 1057268" d="M281.611,181.614H264.29a.507.507,0,0,1,0-1.014h17.334A.507.507,0,0,1,281.611,181.614Z" transform="translate(-263.787 -180.599)"/>
      </g>
      <g id="Grupo_1211438" data-name="Grupo 1211438" transform="translate(33.825 65.192)">
        <path id="Trazado_1057269" data-name="Trazado 1057269" d="M281.611,215.614H264.29a.507.507,0,0,1,0-1.014h17.334A.507.507,0,0,1,281.611,215.614Z" transform="translate(-263.787 -214.6)"/>
      </g>
      <g id="Grupo_1211439" data-name="Grupo 1211439" transform="translate(45.245 77.481)">
        <path id="Trazado_1057270" data-name="Trazado 1057270" d="M372.1,327.051a6.919,6.919,0,0,1-2.568,2.568,7.029,7.029,0,1,1,0-12.174,6.918,6.918,0,0,1,2.568,2.568l-3.206,1.866a3.421,3.421,0,0,0-1.215-1.215,3.321,3.321,0,1,0,0,5.761,3.233,3.233,0,0,0,1.215-1.215Z" transform="translate(-358.478 -316.019)" fill="#eef0f9" fill-rule="evenodd"/>
        <path id="Trazado_1057271" data-name="Trazado 1057271" d="M362.494,327.77c-6.6.1-10.082-8.279-5.335-12.875a7.616,7.616,0,0,1,12.111,2l-4.1,2.367a2.828,2.828,0,1,0,0,1.929l4.1,2.367A7.625,7.625,0,0,1,362.494,327.77Zm0-14.065a6.522,6.522,0,1,0,5.373,10.22l-2.342-1.353a4.277,4.277,0,0,1-.714.714l.013.025a3.847,3.847,0,1,1,.05-6.124l-.025.038a4.316,4.316,0,0,1,.676.676l2.342-1.353A6.55,6.55,0,0,0,362.494,313.7Z" transform="translate(-354.962 -312.718)"/>
      </g>
      <g id="Grupo_1211440" data-name="Grupo 1211440" transform="translate(33.818 69.463)">
        <path id="Trazado_1057272" data-name="Trazado 1057272" d="M272.89,249.714h-8.667a.507.507,0,0,1,0-1.014h8.667A.507.507,0,0,1,272.89,249.714Z" transform="translate(-263.725 -248.699)"/>
      </g>
      <g id="Grupo_1211441" data-name="Grupo 1211441" transform="translate(7.45 60.921)">
        <path id="Trazado_1057273" data-name="Trazado 1057273" d="M77.364,208.81H57.3V184.6H68.923l8.442,8.429Z" transform="translate(-56.786 -184.086)" fill="#ffbc6b" fill-rule="evenodd"/>
        <path id="Trazado_1057274" data-name="Trazado 1057274" d="M74.291,205.724H53.2V180.5H65.549l8.73,8.73v16.495ZM54.227,204.71h19.05V189.655l-8.141-8.141H54.227Z" transform="translate(-53.2 -180.5)"/>
      </g>
      <g id="Grupo_1211442" data-name="Grupo 1211442" transform="translate(19.073 60.908)">
        <path id="Trazado_1057275" data-name="Trazado 1057275" d="M150.1,184.6v8.429h8.442Z" transform="translate(-149.587 -184.074)" fill="#eef0f9" fill-rule="evenodd"/>
        <path id="Trazado_1057276" data-name="Trazado 1057276" d="M154.955,189.869h-8.442a.516.516,0,0,1-.514-.514v-8.442a.535.535,0,0,1,.313-.476.5.5,0,0,1,.551.113l8.442,8.442A.514.514,0,0,1,154.955,189.869Zm-7.928-1.014h6.7l-6.7-6.7Z" transform="translate(-146 -180.4)"/>
      </g>
    </g>
  </g>
</svg>
