<svg xmlns="http://www.w3.org/2000/svg" xmlns:xlink="http://www.w3.org/1999/xlink" width="113" height="113" viewBox="0 0 113 113">
  <defs>
    <filter id="Trazado_982547" x="0" y="0" width="113" height="113" filterUnits="userSpaceOnUse">
      <feOffset dy="3" input="SourceAlpha"/>
      <feGaussianBlur stdDeviation="3" result="blur"/>
      <feFlood flood-opacity="0.161"/>
      <feComposite operator="in" in2="blur"/>
      <feComposite in="SourceGraphic"/>
    </filter>
    <clipPath id="clip-path">
      <path id="path3180" d="M0-682.665H65.134v65.134H0Z" transform="translate(0 682.665)"/>
    </clipPath>
  </defs>
  <g id="Grupo_1211545" data-name="Grupo 1211545" transform="translate(-13672.039 -4687.867)">
    <g id="Grupo_1211221" data-name="Grupo 1211221" transform="translate(13681.039 4693.867)">
      <g id="Grupo_1210737" data-name="Grupo 1210737" transform="translate(0)">
        <g id="Grupo_1210537" data-name="Grupo 1210537">
          <g id="Grupo_1164202" data-name="Grupo 1164202">
            <g id="Grupo_1158168" data-name="Grupo 1158168">
              <g id="Grupo_1152576" data-name="Grupo 1152576">
                <g id="Grupo_1148633" data-name="Grupo 1148633">
                  <g id="Grupo_1148525" data-name="Grupo 1148525">
                    <g transform="matrix(1, 0, 0, 1, -9, -6)" filter="url(#Trazado_982547)">
                      <g id="Trazado_982547-2" data-name="Trazado 982547" transform="translate(9 6)" fill="#fdf6e4">
                        <path d="M 47.5 93.5 C 41.28937149047852 93.5 35.26533508300781 92.28397369384766 29.59518623352051 89.88570404052734 C 24.11771965026855 87.56893157958984 19.19813346862793 84.25196075439453 14.97309303283691 80.02691650390625 C 10.74804019927979 75.80186462402344 7.431066513061523 70.88229370117188 5.114293098449707 65.40481567382812 C 2.716026782989502 59.73468017578125 1.5 53.71062850952148 1.5 47.5 C 1.5 41.28937149047852 2.716026782989502 35.26533508300781 5.114293098449707 29.59518623352051 C 7.431066513061523 24.11771965026855 10.74804019927979 19.19813346862793 14.97309303283691 14.97309303283691 C 19.19813346862793 10.74804019927979 24.11771965026855 7.431066513061523 29.59518623352051 5.114293098449707 C 35.26533508300781 2.716026782989502 41.28937149047852 1.5 47.5 1.5 C 53.71062850952148 1.5 59.73468017578125 2.716026782989502 65.40481567382812 5.114293098449707 C 70.88229370117188 7.431066513061523 75.80186462402344 10.74804019927979 80.02691650390625 14.97309303283691 C 84.25196075439453 19.19813346862793 87.56893157958984 24.11771965026855 89.88570404052734 29.59518623352051 C 92.28397369384766 35.26533508300781 93.5 41.28937149047852 93.5 47.5 C 93.5 53.71062850952148 92.28397369384766 59.73468017578125 89.88570404052734 65.40481567382812 C 87.56893157958984 70.88229370117188 84.25196075439453 75.80186462402344 80.02691650390625 80.02691650390625 C 75.80186462402344 84.25196075439453 70.88229370117188 87.56893157958984 65.40481567382812 89.88570404052734 C 59.73468017578125 92.28397369384766 53.71062850952148 93.5 47.5 93.5 Z" stroke="none"/>
                        <path d="M 47.5 3 C 41.49121475219727 3 35.66376876831055 4.176155090332031 30.17950439453125 6.495796203613281 C 24.88084411621094 8.736953735351562 20.12152099609375 11.94598388671875 16.03375244140625 16.03375244140625 C 11.94598388671875 20.12152099609375 8.736953735351562 24.88084411621094 6.495796203613281 30.17950439453125 C 4.176155090332031 35.66376876831055 3 41.49121475219727 3 47.5 C 3 53.50878524780273 4.176155090332031 59.33623123168945 6.495796203613281 64.82049560546875 C 8.736953735351562 70.11915588378906 11.94598388671875 74.87847900390625 16.03375244140625 78.96624755859375 C 20.12152099609375 83.05401611328125 24.88084411621094 86.26304626464844 30.17950439453125 88.50419616699219 C 35.66376876831055 90.82384490966797 41.49121475219727 92 47.5 92 C 53.50878524780273 92 59.33623123168945 90.82384490966797 64.82049560546875 88.50419616699219 C 70.11915588378906 86.26304626464844 74.87847900390625 83.05401611328125 78.96624755859375 78.96624755859375 C 83.05401611328125 74.87847900390625 86.26304626464844 70.11915588378906 88.50419616699219 64.82049560546875 C 90.82384490966797 59.33623123168945 92 53.50878524780273 92 47.5 C 92 41.49121475219727 90.82384490966797 35.66376876831055 88.50419616699219 30.17950439453125 C 86.26304626464844 24.88084411621094 83.05401611328125 20.12152099609375 78.96624755859375 16.03375244140625 C 74.87847900390625 11.94598388671875 70.11915588378906 8.736953735351562 64.82049560546875 6.495796203613281 C 59.33623123168945 4.176155090332031 53.50878524780273 3 47.5 3 M 47.5 0 C 73.7335205078125 0 95 21.2664794921875 95 47.5 C 95 73.7335205078125 73.7335205078125 95 47.5 95 C 21.2664794921875 95 0 73.7335205078125 0 47.5 C 0 21.2664794921875 21.2664794921875 0 47.5 0 Z" stroke="none" fill="#f5b104"/>
                      </g>
                    </g>
                  </g>
                </g>
              </g>
            </g>
          </g>
        </g>
      </g>
    </g>
    <g id="g3174" transform="translate(13695.973 5397.465)">
      <g id="g3176" transform="translate(0 -682.665)">
        <g id="g3178" clip-path="url(#clip-path)">
          <g id="g3184" transform="translate(0.954 2.882)">
            <path id="path3186" d="M0-346.018v-35.211a1.285,1.285,0,0,1,1.285-1.285H21.057a1.285,1.285,0,0,1,.909.376l7.215,7.215a1.285,1.285,0,0,1,.376.909v28a1.285,1.285,0,0,1-1.285,1.285H1.285A1.285,1.285,0,0,1,0-346.018" transform="translate(0 382.514)" fill="#ffd064"/>
          </g>
          <path id="path3188" d="M53.1-609.361H66.465v4.112H53.1Z" transform="translate(-48.034 616.355)" fill="#a2f5c3"/>
          <g id="g3190" transform="translate(19.459 2.882)">
            <path id="path3192" d="M-101.212-71.97l-7.215-7.215a1.285,1.285,0,0,0-.909-.376h-2.552v6.689a4.369,4.369,0,0,0,4.369,4.369h2.313a1.285,1.285,0,0,1,1.285,1.285v24.152a1.285,1.285,0,0,1-1.285,1.285h3.084a1.285,1.285,0,0,0,1.285-1.285v-28a1.285,1.285,0,0,0-.376-.909" transform="translate(111.888 79.561)" fill="#ffc250"/>
          </g>
          <g id="g3194" transform="translate(22.543 2.999)">
            <path id="path3196" d="M-72.578-71.533l-7.282-7.289a1.282,1.282,0,0,0-.373-.256v6.572a1.285,1.285,0,0,0,1.285,1.285h6.569a1.281,1.281,0,0,0-.2-.313" transform="translate(80.233 79.078)" fill="#ebb044"/>
          </g>
          <g id="g3198" transform="translate(9.179 19.331)">
            <path id="path3200" d="M-124.275-62.138a6.554,6.554,0,0,1-6.554,6.554,6.554,6.554,0,0,1-6.554-6.554,6.554,6.554,0,0,1,6.554-6.554,6.554,6.554,0,0,1,6.554,6.554" transform="translate(137.382 68.692)" fill="#62a4fb"/>
          </g>
          <g id="g3202" transform="translate(34.623 2.882)">
            <path id="path3204" d="M0-346.018v-35.211a1.285,1.285,0,0,1,1.285-1.285H21.057a1.285,1.285,0,0,1,.909.376l7.215,7.215a1.286,1.286,0,0,1,.376.909v28a1.285,1.285,0,0,1-1.285,1.285H1.285A1.285,1.285,0,0,1,0-346.018" transform="translate(0 382.514)" fill="#e175a5"/>
          </g>
          <path id="path3206" d="M405.983-609.361h13.365v4.112H405.983Z" transform="translate(-367.248 616.355)" fill="#ffd064"/>
          <g id="g3208" transform="translate(53.128 2.882)">
            <path id="path3210" d="M-101.211-71.97l-7.215-7.215a1.284,1.284,0,0,0-.909-.376h-2.552v6.689a4.369,4.369,0,0,0,4.369,4.369h2.313a1.285,1.285,0,0,1,1.285,1.285v24.152A1.285,1.285,0,0,1-105.2-41.78h3.084a1.285,1.285,0,0,0,1.285-1.285v-28a1.285,1.285,0,0,0-.376-.909" transform="translate(111.886 79.561)" fill="#de5791"/>
          </g>
          <g id="g3212" transform="translate(56.212 2.999)">
            <path id="path3214" d="M-72.579-71.533l-7.282-7.289a1.284,1.284,0,0,0-.373-.256v6.572a1.285,1.285,0,0,0,1.285,1.285h6.569a1.284,1.284,0,0,0-.2-.313" transform="translate(80.234 79.078)" fill="#db387e"/>
          </g>
          <g id="g3216" transform="translate(42.848 19.331)">
            <path id="path3218" d="M-124.273-62.138a6.554,6.554,0,0,1-6.554,6.554,6.554,6.554,0,0,1-6.554-6.554,6.554,6.554,0,0,1,6.554-6.554,6.554,6.554,0,0,1,6.554,6.554" transform="translate(137.381 68.692)" fill="#62a4fb"/>
          </g>
          <g id="g3220" transform="translate(19.074 35.266)">
            <path id="path3222" d="M-127.929-255.858a13.509,13.509,0,0,1-13.493-13.493,13.509,13.509,0,0,1,13.493-13.493,13.509,13.509,0,0,1,13.493,13.493,13.509,13.509,0,0,1-13.493,13.493" transform="translate(141.422 282.845)" fill="#a2f5c3"/>
          </g>
          <g id="g3224" transform="translate(21.749 37.94)">
            <path id="path3226" d="M-178.943,0a13.423,13.423,0,0,1,2.675,8.055,13.509,13.509,0,0,1-13.493,13.493,13.423,13.423,0,0,1-8.055-2.675A13.482,13.482,0,0,0-187,24.312a13.509,13.509,0,0,0,13.493-13.493A13.482,13.482,0,0,0-178.943,0" transform="translate(197.817)" fill="#88f2a9"/>
          </g>
          <g id="g3228" transform="translate(23.186 39.378)">
            <path id="path3230" d="M-177.883-88.941a9.381,9.381,0,0,1-9.381,9.381,9.381,9.381,0,0,1-9.381-9.381,9.381,9.381,0,0,1,9.381-9.381,9.381,9.381,0,0,1,9.381,9.381" transform="translate(196.645 98.322)" fill="#64b07d"/>
          </g>
          <path id="path3232" d="M53.1-523.161H74.432v21.332H53.1Z" transform="translate(-48.034 538.38)" fill="none" stroke="#000" stroke-linecap="round" stroke-linejoin="round" stroke-miterlimit="10" stroke-width="1"/>
          <path id="path3234" d="M53.1-609.361H66.465v4.112H53.1Z" transform="translate(-48.034 616.355)" fill="none" stroke="#000" stroke-linecap="round" stroke-linejoin="round" stroke-miterlimit="10" stroke-width="1"/>
          <g id="g3236" transform="translate(22.543 2.999)">
            <path id="path3238" d="M0,0V6.572A1.285,1.285,0,0,0,1.285,7.858H7.854" fill="none" stroke="#000" stroke-linecap="round" stroke-linejoin="round" stroke-miterlimit="10" stroke-width="1"/>
          </g>
          <g id="g3240" transform="translate(0.954 16.869)">
            <path id="path3242" d="M0,0V22.509a1.286,1.286,0,0,0,1.285,1.285H20.826" fill="none" stroke="#000" stroke-linecap="round" stroke-linejoin="round" stroke-miterlimit="10" stroke-width="1"/>
          </g>
          <g id="g3244" transform="translate(0.954 2.881)">
            <path id="path3246" d="M0-90.4v-8.25a1.286,1.286,0,0,1,1.285-1.285H21.058a1.285,1.285,0,0,1,.908.377l7.214,7.214a1.285,1.285,0,0,1,.377.908v24.041" transform="translate(0 99.933)" fill="none" stroke="#000" stroke-linecap="round" stroke-linejoin="round" stroke-miterlimit="10" stroke-width="1"/>
          </g>
          <g id="g3248" transform="translate(9.179 19.331)">
            <path id="path3250" d="M-124.275-62.138a6.554,6.554,0,0,1-6.554,6.554,6.554,6.554,0,0,1-6.554-6.554,6.554,6.554,0,0,1,6.554-6.554A6.554,6.554,0,0,1-124.275-62.138Z" transform="translate(137.382 68.692)" fill="none" stroke="#000" stroke-linecap="round" stroke-linejoin="round" stroke-miterlimit="10" stroke-width="1"/>
          </g>
          <path id="path3252" d="M405.983-523.161h21.332v21.332H405.983Z" transform="translate(-367.248 538.38)" fill="none" stroke="#000" stroke-linecap="round" stroke-linejoin="round" stroke-miterlimit="10" stroke-width="1"/>
          <path id="path3254" d="M405.983-609.361h13.365v4.112H405.983Z" transform="translate(-367.248 616.355)" fill="none" stroke="#000" stroke-linecap="round" stroke-linejoin="round" stroke-miterlimit="10" stroke-width="1"/>
          <g id="g3256" transform="translate(56.212 2.999)">
            <path id="path3258" d="M0,0V6.572A1.285,1.285,0,0,0,1.285,7.858H7.854" fill="none" stroke="#000" stroke-linecap="round" stroke-linejoin="round" stroke-miterlimit="10" stroke-width="1"/>
          </g>
          <g id="g3260" transform="translate(43.353 34.157)">
            <path id="path3262" d="M-197.453,0V5.221a1.286,1.286,0,0,1-1.285,1.285h-19.541" transform="translate(218.279)" fill="none" stroke="#000" stroke-linecap="round" stroke-linejoin="round" stroke-miterlimit="10" stroke-width="1"/>
          </g>
          <g id="g3264" transform="translate(34.623 2.881)">
            <path id="path3266" d="M0-308.512v-31.255a1.286,1.286,0,0,1,1.285-1.285H21.058a1.285,1.285,0,0,1,.908.377l7.214,7.214a1.285,1.285,0,0,1,.377.908v18.324" transform="translate(0 341.052)" fill="none" stroke="#000" stroke-linecap="round" stroke-linejoin="round" stroke-miterlimit="10" stroke-width="1"/>
          </g>
          <g id="g3268" transform="translate(42.848 19.331)">
            <path id="path3270" d="M-124.273-62.138a6.554,6.554,0,0,1-6.554,6.554,6.554,6.554,0,0,1-6.554-6.554,6.554,6.554,0,0,1,6.554-6.554A6.554,6.554,0,0,1-124.273-62.138Z" transform="translate(137.381 68.692)" fill="none" stroke="#000" stroke-linecap="round" stroke-linejoin="round" stroke-miterlimit="10" stroke-width="1"/>
          </g>
          <g id="g3272" transform="translate(19.073 35.265)">
            <path id="path3274" d="M-235.325-197.381a13.411,13.411,0,0,0,2.166-7.325A13.509,13.509,0,0,0-246.652-218.2a13.509,13.509,0,0,0-13.494,13.494,13.508,13.508,0,0,0,13.494,13.494,13.431,13.431,0,0,0,8.339-2.892" transform="translate(260.146 218.199)" fill="none" stroke="#000" stroke-linecap="round" stroke-linejoin="round" stroke-miterlimit="10" stroke-width="1"/>
          </g>
          <g id="g3276" transform="translate(23.186 39.378)">
            <path id="path3278" d="M-177.883-88.941a9.381,9.381,0,0,1-9.381,9.381,9.381,9.381,0,0,1-9.381-9.381,9.381,9.381,0,0,1,9.381-9.381A9.381,9.381,0,0,1-177.883-88.941Z" transform="translate(196.645 98.322)" fill="none" stroke="#000" stroke-linecap="round" stroke-linejoin="round" stroke-miterlimit="10" stroke-width="1"/>
          </g>
          <g id="g3280" transform="translate(27.298 43.49)">
            <path id="path3282" d="M-85.262-85.262a5.255,5.255,0,0,1-3.724,1.545,5.274,5.274,0,0,1-5.269-5.269,5.274,5.274,0,0,1,5.269-5.269,5.255,5.255,0,0,1,3.724,1.545" transform="translate(94.254 94.254)" fill="none" stroke="#000" stroke-linecap="round" stroke-linejoin="round" stroke-miterlimit="10" stroke-width="1"/>
          </g>
        </g>
      </g>
    </g>
  </g>
</svg>
